<?xml version="1.0" standalone="no"?>
<!DOCTYPE svg PUBLIC "-//W3C//DTD SVG 1.1//EN" "http://www.w3.org/Graphics/SVG/1.1/DTD/svg11.dtd" >
<svg xmlns="http://www.w3.org/2000/svg" xmlns:xlink="http://www.w3.org/1999/xlink" version="1.1">
<metadata></metadata>
<defs>
<font id="pf_handbook_prothin_italic" horiz-adv-x="3723" >
<font-face units-per-em="2048" ascent="1536" descent="-512" />
<missing-glyph horiz-adv-x="409" />
<glyph unicode="fj" horiz-adv-x="802" d="M80 12l156 805h-115q-12 0 -10 12l10 45q0 15 16 15h113l31 160q27 132 109 197t196 65q150 0 217 -74q11 -11 0 -23l-31 -36q-10 -12 -24 -4q-57 61 -177 61q-84 0 -137.5 -56t-71.5 -147l-26 -143h409q18 0 15 -21l-187 -999q-24 -119 -84.5 -177.5t-166.5 -58.5 q-64 0 -97 13q-15 3 -8 18l19 45q6 13 22 10q24 -8 72 -8q73 0 108.5 39t53.5 125l174 942h-344l-156 -805q-3 -12 -16 -12h-58q-15 0 -12 12z" />
<glyph unicode="ffj" horiz-adv-x="1249" d="M92 12q27 139 80.5 407.5t77.5 395.5h-115q-13 0 -10 14l10 45q0 15 17 15h112l25 125q25 129 116.5 197.5t215.5 68.5q117 0 192 -47q96 86 225 86q66 0 124.5 -22t90.5 -52q10 -10 0 -22l-24 -37q-10 -13 -25 -4q-83 59 -178 59q-90 0 -142.5 -52t-68.5 -138l-31 -162 h408q11 0 13.5 -4.5t0.5 -16.5q-57 -294 -95 -497t-50.5 -276t-21.5 -130t-17 -96q-24 -120 -82.5 -178t-163.5 -58q-64 0 -96 13q-15 3 -8 18l18 45q6 13 23 10q24 -8 71 -8q68 0 102 39t52 125l174 930q3 12 -10 12h-332l-156 -805q-3 -12 -16 -12h-57q-8 0 -11 3t-2 9 l156 803h-348l-156 -803q-3 -12 -16 -12h-60q-15 0 -12 12zM350 889h346l37 188q9 56 33 86q-22 18 -67.5 28.5t-88.5 10.5q-108 0 -163.5 -53.5t-75.5 -155.5z" />
<glyph unicode="ff" horiz-adv-x="974" d="M41 -178q27 140 99 503.5t96 489.5h-115q-13 0 -10 14l10 45q0 15 16 15h113l24 125q25 129 118.5 198.5t217.5 69.5q118 0 193 -47q96 86 225 86q111 0 184 -53q13 -10 5 -21l-31 -41q-12 -15 -23 -6q-58 43 -151 43q-90 0 -142.5 -53t-68.5 -139l-31 -162h256 q12 0 12 -15l-10 -45q-2 -12 -14 -12h-258l-219 -1143q-3 -12 -17 -12h-57q-15 0 -12 12l219 1141h-348l-193 -993q-3 -12 -16 -12h-60q-15 0 -12 12zM336 889h346l37 188q9 55 35 88q-22 18 -67 28.5t-87 10.5q-109 0 -166.5 -54.5t-77.5 -156.5z" />
<glyph unicode="fi" horiz-adv-x="804" d="M14 -326l222 1143h-115q-12 0 -10 12l10 45q0 15 16 15h113l31 160q26 131 112 196.5t201 65.5q150 0 217 -74q11 -11 0 -23l-31 -36q-10 -12 -24 -4q-57 61 -176 61q-177 0 -218 -203l-26 -143h407q18 0 15 -21l-156 -856q-3 -12 -14 -12h-58q-15 0 -12 12l146 805h-342 l-222 -1143q-3 -12 -16 -12h-57q-7 0 -10.5 3t-2.5 9z" />
<glyph unicode="fl" horiz-adv-x="860" d="M16 -317l217 1134h-112q-12 0 -10 12l10 45q0 15 16 15h113l31 160q13 67 44 118.5t72.5 82t89.5 46t101 15.5q114 0 190 -47q6 1 28 8.5t30 7.5q10 0 10 -12l-209 -1073q-13 -66 1.5 -95.5t72.5 -29.5h22q14 0 10 -19l-8 -47q-2 -11 -18 -14h-41q-45 0 -73.5 14 t-41.5 34.5t-15 55.5t1.5 66t13.5 78l184 952q-73 43 -172 43q-171 0 -211 -201l-26 -143h239q11 0 11 -15l-11 -45q-2 -12 -12 -12h-241l-220 -1134q-3 -13 -16 -13h-57q-16 0 -13 13z" />
<glyph unicode="ffi" horiz-adv-x="1253" d="M55 -178q27 140 99 503.5t96 489.5h-115q-13 0 -10 14l10 45q0 15 17 15h112l25 125q25 129 118.5 198.5t217.5 69.5q116 0 194 -49q96 86 219 86q66 0 124.5 -22t90.5 -52q10 -10 0 -22l-30 -37q-10 -13 -25 -4q-83 59 -172 59q-90 0 -142.5 -52t-68.5 -138l-31 -162 h420q11 0 14 -4.5t1 -16.5l-166 -856q-3 -12 -17 -12h-59q-15 0 -12 12l155 803l-350 2l-219 -1143q-3 -12 -16 -12h-58q-15 0 -12 12l219 1141h-348l-193 -993q-3 -12 -16 -12h-59q-6 0 -10 3t-3 9zM350 889h346l35 186q3 20 14 48t23 42q-22 18 -67 28.5t-87 10.5 q-109 0 -166 -54.5t-77 -156.5z" />
<glyph unicode="ffl" horiz-adv-x="1292" d="M57 -178l193 993h-111q-13 0 -10 14l10 45q0 15 17 15h108l25 125q25 128 120 198t220 70q117 0 192 -47q93 84 221 84q114 0 187 -47q53 16 57 16q15 0 12 -12l-208 -1081q-15 -61 0 -93t73 -32h23q14 0 10 -19l-8 -47q-2 -11 -19 -14h-41q-45 0 -73.5 14t-41.5 34.5 t-15 56t2 66t14 77.5l186 960q-68 42 -178 45q-85 -1 -138 -54.5t-69 -137.5l-29 -162h230q10 0 12 -4t0 -15l-6 -36q-4 -17 -21 -17h-231l-223 -1143q-3 -12 -17 -12h-57q-15 0 -12 12l223 1141h-348l-191 -993q-3 -12 -16 -12h-59q-6 0 -10 3t-3 9zM350 889h346l35 172 q3 20 16.5 55t24.5 49q-22 18 -67 28.5t-87 10.5q-205 0 -247 -211z" />
<glyph unicode="ft" horiz-adv-x="995" d="M16 -326l222 1143h-115q-13 0 -10 14l10 46q0 14 14 14h115l31 158q25 127 106.5 194.5t190.5 67.5q83 0 151 -31q15 -6 8 -20l-24 -48q-6 -13 -23 -6q-56 27 -121 27q-89 0 -139.5 -53t-66.5 -142l-31 -147h358l41 199q3 13 17 16l59 14q7 1 9.5 -3t0.5 -11l-43 -215 h244q13 0 10 -14l-10 -46q0 -14 -14 -14h-244l-109 -571q-19 -93 7 -136.5t100 -43.5q71 0 127 18q16 5 16 -10l2 -45q2 -16 -14 -21q-61 -18 -158 -18q-215 0 -166 243l111 584h-359l-217 -1143q-3 -12 -16 -12h-57q-7 0 -10.5 3t-2.5 9z" />
<glyph unicode=" "  horiz-adv-x="409" />
<glyph unicode="&#x09;" horiz-adv-x="409" />
<glyph unicode="&#xa0;" horiz-adv-x="409" />
<glyph unicode="!" horiz-adv-x="507" d="M115 59q4 29 29.5 50.5t54.5 21.5q32 0 49.5 -20.5t11.5 -51.5t-31 -51t-57 -20q-29 0 -46 21t-11 50zM215 338l145 905q3 19 25 19h61q23 0 17 -19l-197 -905q-3 -16 -18 -16h-19q-17 0 -14 16z" />
<glyph unicode="&#x22;" horiz-adv-x="444" d="M188 872l74 379q3 13 17 13h45q16 0 10 -13l-74 -379q0 -12 -14 -12h-45q-7 0 -10.5 2.5t-2.5 9.5zM360 872l74 379q3 13 19 13h45q13 0 10 -13l-74 -379q0 -12 -14 -12h-47q-6 0 -10 2.5t-3 9.5z" />
<glyph unicode="#" horiz-adv-x="911" d="M51 397l17 41q8 15 22 15h135l146 358h-156q-12 0 -6 12l14 39q7 15 21 15h155l107 260q5 10 16 10h43q17 0 10 -17l-104 -253h262l107 260q5 10 18 10h41q17 0 10 -17l-104 -253h147q13 0 9 -15l-13 -39q-4 -12 -20 -12h-152l-145 -358h164q15 0 8 -15l-15 -39 q-5 -12 -18 -12h-166l-121 -293q-3 -10 -16 -10h-41q-16 0 -10 16l116 287h-264l-121 -293q-3 -10 -16 -10h-41q-16 0 -10 16q35 82 119 287h-138q-10 0 -10 10zM295 453h264l146 358h-263z" />
<glyph unicode="$" horiz-adv-x="911" d="M49 131q-9 9 4 19l33 40q10 10 23 0q83 -72 225 -81l100 516q-52 19 -91 39t-80.5 52.5t-64 78.5t-22.5 104q0 149 104.5 241t270.5 95l24 125q3 14 19 14h35q12 0 12 -14l-27 -125q157 -15 244 -90q12 -9 -2 -23l-35 -39q-11 -11 -22 0q-78 67 -201 74l-90 -471 q138 -51 208 -119t70 -186q0 -152 -111 -245.5t-292 -102.5l-29 -146q-4 -14 -16 -14h-35q-14 0 -12 14l28 146q-174 12 -270 98zM264 907q0 -38 15.5 -69.5t44.5 -55.5t58 -40t69 -33l86 448q-119 -6 -196 -71.5t-77 -178.5zM397 109q132 9 215.5 78.5t83.5 189.5 q0 84 -58 140t-144 87z" />
<glyph unicode="%" horiz-adv-x="1320" d="M78 705l63 344q43 223 250 223q106 0 163 -56.5t40 -146.5l-68 -364q-44 -224 -254 -224q-110 0 -161.5 63t-32.5 161zM152 702q-14 -69 17 -112t112 -43q146 0 174 162l69 362q9 59 -28 98t-107 39q-142 0 -174 -161zM176 -57.5q-2 3.5 2 8.5l836 1364q6 10 18 10h33 q18 0 10 -14l-833 -1360q-6 -12 -21 -12h-37q-6 0 -8 3.5zM692 213l64 344q43 223 250 223q106 0 162.5 -56t39.5 -146l-67 -365q-44 -223 -254 -223q-110 0 -162 62.5t-33 160.5zM766 211q-14 -69 17 -112.5t112 -43.5q146 0 174 162l70 363q9 59 -28 98t-107 39 q-143 0 -175 -162z" />
<glyph unicode="&#x26;" horiz-adv-x="1167" d="M109 231q0 74 31.5 146t86.5 133t117 110.5t137 94.5q-90 150 -90 254q0 135 94 225t217 90q94 0 148.5 -51t54.5 -137q0 -195 -311 -402l225 -387q81 107 127 260q5 13 9.5 17t15.5 4h41q20 0 16 -19q-17 -77 -63.5 -165t-106.5 -162q31 -54 73 -123.5t58 -98.5 q4 -8 2 -10q0 -10 -14 -10h-59q-22 0 -33 16l-90 156q-186 -186 -402 -186q-136 0 -210 66.5t-74 178.5zM193 250q0 -86 56.5 -137.5t160.5 -51.5q186 0 348 172l-244 420q-50 -29 -101 -68t-103 -91.5t-84.5 -117t-32.5 -126.5zM475 985q0 -108 84 -233q51 32 87 59 t81 69.5t69.5 91.5t24.5 101q0 62 -36.5 98.5t-100.5 36.5q-86 0 -147.5 -70t-61.5 -153z" />
<glyph unicode="'" horiz-adv-x="313" d="M205 872l74 379q3 13 16 13h47q13 0 10 -13l-73 -379q0 -12 -15 -12h-47q-14 0 -12 12z" />
<glyph unicode="(" horiz-adv-x="606" d="M156 322q0 277 143.5 567t357.5 508q11 14 27 4l23 -12q11 -11 2 -21q-203 -232 -329 -502.5t-126 -543.5q0 -301 137 -582q9 -12 -8 -21l-33 -18q-17 -13 -26 2q-74 116 -121 279.5t-47 339.5z" />
<glyph unicode=")" horiz-adv-x="606" d="M0 -260q448 510 451 1034q3 314 -134 594q-7 10 11 21l26 12q20 10 25 -4q69 -113 118.5 -289.5t49.5 -359.5q0 -184 -69 -381.5t-178.5 -363.5t-246.5 -300q-14 -14 -26 -2l-27 18q-13 8 0 21z" />
<glyph unicode="*" horiz-adv-x="720" d="M215 1104l23 43q14 23 34 14l191 -84l24 223q3 23 29 23h43q13 0 17.5 -6.5t1.5 -16.5l-62 -223l221 82q27 10 27 -12l8 -43q3 -24 -18 -27l-230 -53l109 -172q13 -20 -8 -31l-39 -24q-27 -16 -33 4l-82 192l-154 -192q-16 -19 -34 -4l-31 24q-19 13 4 33l180 170 l-209 53q-20 5 -12 27z" />
<glyph unicode="+" horiz-adv-x="911" d="M66 465l8 41q0 18 18 18h330l67 348q1 7 8 12t15 5h41q15 0 12 -17l-67 -348h338q16 0 16 -18l-8 -39q-3 -18 -23 -18h-338l-67 -347q-3 -16 -19 -16h-41q-19 0 -16 16l68 347h-330q-15 0 -12 16z" />
<glyph unicode="," horiz-adv-x="342" d="M-23 -193l80 310q7 20 27 20h82q26 0 14 -26l-137 -308q-5 -18 -25 -18h-30q-17 0 -11 22z" />
<glyph unicode="-" horiz-adv-x="610" d="M129 461l10 55q3 14 17 14h338q14 0 10 -14l-10 -55q-3 -15 -15 -15h-338q-15 0 -12 15z" />
<glyph unicode="." horiz-adv-x="337" d="M27 43q0 33 25.5 58.5t58.5 25.5q28 0 44.5 -15.5t16.5 -41.5q0 -34 -26.5 -58t-61.5 -24q-25 0 -41 15t-16 40z" />
<glyph unicode="/" horiz-adv-x="581" d="M-98 -121l786 1485q8 16 25 16h30q7 0 10 -4t-1 -12l-787 -1485q-6 -16 -20 -16h-31q-8 0 -12 4.5t0 11.5z" />
<glyph unicode="0" horiz-adv-x="911" d="M84 322l125 639q30 148 128.5 232.5t252.5 84.5q155 0 236.5 -86.5t52.5 -233.5l-123 -651q-63 -321 -381 -321q-158 0 -239.5 92t-51.5 244zM168 309q-22 -109 35 -178.5t170 -69.5q117 0 195 64t102 184l125 647q22 108 -34.5 177t-172.5 69q-111 0 -191 -68.5 t-102 -177.5z" />
<glyph unicode="1" horiz-adv-x="911" d="M346 1026l12 66q3 21 17 28l233 131q18 11 31 11h47q11 0 8 -11l-241 -1237q-2 -14 -15 -14h-61q-13 0 -10 12l219 1129h-2l-222 -121q-9 -4 -13.5 -2t-2.5 8z" />
<glyph unicode="2" horiz-adv-x="911" d="M-14 18l6 31q8 35 20 47l572 598q198 203 198 336q0 80 -57.5 126t-161.5 46q-62 0 -129.5 -28t-111.5 -72q-20 -17 -33 -8l-35 30q-13 10 2 25q117 129 317 129q135 0 215 -59.5t80 -171.5q0 -55 -22 -113.5t-62.5 -115t-70 -91.5t-70.5 -78l-543 -571h578q16 0 12 -15 l-8 -49q-6 -14 -16 -14h-664q-21 0 -16 18z" />
<glyph unicode="3" horiz-adv-x="911" d="M25 123q-7 17 12 27l35 20q19 12 30 -8q30 -49 87.5 -76t123.5 -27q61 0 116.5 23.5t100.5 68t72 117.5t27 164q0 105 -52 164t-143 59h-121q-10 0 -10 9v4l8 49q3 14 17 14h135q113 0 194.5 84.5t81.5 194.5q0 84 -56.5 138t-147.5 54q-70 0 -136.5 -27t-107.5 -73 q-19 -19 -33 -8l-37 28q-14 11 4 25q116 131 318 131q126 0 204 -70.5t78 -183.5q0 -107 -65 -205t-176 -129l-2 -6q61 -20 98 -85t37 -155q0 -111 -32 -199.5t-88 -144.5t-129.5 -85t-158.5 -29q-97 0 -174.5 34.5t-109.5 102.5z" />
<glyph unicode="4" horiz-adv-x="911" d="M63 328l5 28q5 34 24 56l606 837q8 15 23 15h55q23 0 10 -23l-626 -860h420l79 405q3 15 19 15h53q14 0 10 -15l-77 -405h172q16 0 12 -14l-10 -45q0 -15 -17 -15h-170l-57 -293q-4 -14 -14 -14h-56q-16 0 -16 14l57 293h-483q-22 0 -19 21z" />
<glyph unicode="5" horiz-adv-x="911" d="M66.5 137.5q1.5 5.5 13.5 12.5l41 24q9 6 12.5 4.5t11.5 -12.5q63 -107 203 -107q119 0 201.5 66t107.5 182l33 174q23 111 -29 178.5t-174 67.5q-37 0 -84.5 -14.5t-78.5 -34.5q-29 -20 -50 -10l-41 26q-15 10 -12 35q81 407 101 520q4 15 18 15h547q16 0 12 -15 l-10 -49q-2 -12 -15 -12h-479l-84 -432l8 -2q89 51 189 51q152 0 225 -89.5t43 -228.5l-33 -172q-63 -329 -391 -329q-209 0 -282 137q-5 9 -3.5 14.5z" />
<glyph unicode="6" horiz-adv-x="911" d="M102 315l125 641q28 148 132 235t251 87q98 0 171 -34t106 -101q6 -15 -8 -23l-45 -26q-16 -11 -23 6q-63 102 -197 102q-111 0 -196 -70t-107 -180l-55 -288l6 -2q118 118 277 118q150 0 225.5 -89.5t50.5 -225.5l-33 -158q-28 -152 -129 -236.5t-262 -84.5 q-160 0 -239.5 87t-49.5 242zM186 313q-22 -114 35.5 -184t171.5 -70q122 0 201.5 68t103.5 186l29 146q23 115 -34.5 179t-178.5 64q-103 0 -191 -72.5t-108 -174.5z" />
<glyph unicode="7" horiz-adv-x="911" d="M92 18l744 1170h-496l-23 -129q-4 -15 -16 -15h-51q-12 0 -12 15l36 190q3 15 19 15h635q23 0 18 -19l-6 -33q-2 -17 -18 -38q-718 -1133 -732 -1158q-11 -16 -28 -16h-62q-20 0 -8 18z" />
<glyph unicode="8" horiz-adv-x="911" d="M68 266q0 141 74.5 254t189.5 152l2 6q-62 30 -96.5 91.5t-34.5 129.5q0 162 117 271.5t284 109.5q135 0 212 -68.5t77 -185.5q0 -111 -56.5 -204.5t-179.5 -147.5l-4 -6q64 -32 105 -96.5t41 -141.5q0 -111 -35.5 -197.5t-96 -139.5t-136.5 -80t-162 -27 q-134 0 -217.5 74t-83.5 206zM156 272q0 -101 61 -157t164 -56q61 0 118 21t105 62.5t77.5 111.5t29.5 158q0 102 -65.5 160.5t-164.5 58.5q-58 0 -115 -24t-104.5 -67.5t-76.5 -113.5t-29 -154zM289 905q0 -84 60 -139t149 -55q122 0 214.5 85t92.5 212q0 90 -54.5 143 t-156.5 53q-123 0 -214 -87.5t-91 -211.5z" />
<glyph unicode="9" horiz-adv-x="911" d="M82 121q-8 13 6 24l43 27q18 9 27 -6q62 -105 194 -105q114 0 197.5 70.5t105.5 181.5l58 289l-4 2q-122 -119 -285 -119q-146 0 -222 89.5t-50 226.5l30 155q30 156 127.5 239t263.5 83q163 0 242.5 -91t48.5 -247l-121 -631q-30 -152 -135 -237.5t-254 -85.5 q-200 0 -272 135zM240 805q-23 -115 32 -179.5t181 -64.5q103 0 191 72.5t110 175.5l26 133q22 116 -33.5 189t-173.5 73q-126 0 -203.5 -66.5t-101.5 -185.5z" />
<glyph unicode=":" horiz-adv-x="337" d="M25 43q0 33 26.5 57.5t59.5 24.5q28 0 44.5 -15t16.5 -40q0 -34 -27 -58t-61 -24q-26 0 -42.5 15.5t-16.5 39.5zM152 690q0 32 25 56t59 24q26 0 43.5 -16t17.5 -41q0 -31 -28 -56.5t-60 -25.5q-26 0 -41.5 17t-15.5 42z" />
<glyph unicode=";" horiz-adv-x="354" d="M-23 -193l78 310q7 20 27 20h84q24 0 12 -26l-135 -308q-8 -18 -25 -18h-30q-17 0 -11 22zM162 688q0 32 26 58t60 26q27 0 43 -15t16 -40q0 -34 -25.5 -59t-60.5 -25q-26 0 -42.5 15.5t-16.5 39.5z" />
<glyph unicode="&#x3c;" horiz-adv-x="911" d="M4 502l6 35q3 17 29 30l835 404q9 6 17.5 2.5t5.5 -15.5l-6 -45q-4 -19 -29 -30q-488 -236 -758 -369l615 -367q20 -11 16 -32l-8 -37q-4 -15 -14 -15l-15 5l-671 399q-26 15 -23 35z" />
<glyph unicode="=" horiz-adv-x="911" d="M27 301l6 37q4 18 22 18h744q16 0 12 -18l-6 -37v2q-3 -18 -21 -18h-743q-17 0 -14 16zM98 672l8 37q4 18 21 18h743q19 0 15 -18l-8 -35q-3 -19 -21 -19h-743q-18 0 -15 17z" />
<glyph unicode="&#x3e;" horiz-adv-x="911" d="M2 78l8 47q4 22 29 33l758 366l-615 369q-20 11 -16 31l6 34q6 26 31 13l676 -404q20 -10 16 -30l-6 -35q-3 -21 -35 -35l-827 -399l-15 -5q-14 0 -10 15z" />
<glyph unicode="?" horiz-adv-x="905" d="M199 41q0 32 27 58t59 26q28 0 44.5 -15t16.5 -40q0 -34 -26.5 -58t-61.5 -24q-26 0 -42.5 15t-16.5 38zM279 293v4l20 106q15 79 67.5 151t135.5 122q9 5 40 23t43.5 25.5t41 25.5t41.5 29t36.5 30.5t35 35t27.5 38t23.5 44t13 48.5t5.5 55q0 68 -52 121t-147 53 q-137 0 -243 -106q-17 -17 -31 -6l-35 30q-13 10 2 25q68 70 143 100.5t172 30.5q115 0 198 -63.5t83 -174.5q0 -226 -276 -383q-111 -63 -167 -123t-73 -143l-18 -94q0 -16 -15 -16h-57q-14 0 -14 12z" />
<glyph unicode="@" horiz-adv-x="1499" d="M117 481q0 212 101 390t279 282t394 104q227 0 371.5 -126t144.5 -345q0 -127 -36.5 -231t-94 -166.5t-123.5 -95.5t-131 -33q-42 0 -90 20t-60 62h-4q-43 -42 -101 -65t-103 -23q-113 0 -164 71t-29 187l31 166q22 108 97.5 176t178.5 68q115 0 172 -72h4l13 49 q2 8 5 11.5t6.5 4t10.5 0.5h37q11 0 8 -16l-92 -457q-5 -31 -4 -56.5t22 -41.5t64 -16q128 0 220.5 132.5t92.5 313.5q0 202 -126 313t-318 111q-193 0 -355 -92t-258 -256t-96 -365q0 -227 127 -356t367 -129q188 0 346 66q19 8 25 -11l10 -28q5 -16 -12 -23 q-77 -33 -182 -50t-191 -17q-263 0 -410 144t-147 400zM537 504q-15 -77 18 -131t115 -54q80 0 139.5 54t73.5 129l32 164q9 34 6 68.5t-14.5 62.5t-44.5 45.5t-84 17.5q-172 0 -215 -213z" />
<glyph unicode="A" horiz-adv-x="903" d="M-53 16l598 1231q9 17 20 17h94q16 0 19 -15l121 -1229q3 -6 -0.5 -13t-12.5 -7h-55q-7 0 -10 0.5t-5 3t-3 8.5l-33 307h-492l-147 -307q-6 -12 -21 -12h-61q-21 0 -12 16zM225 395h453q-10 97 -26 278t-21 232l-27 277h-4q-100 -210 -133 -281z" />
<glyph unicode="B" horiz-adv-x="968" d="M51 10v4l240 1233q4 17 16 17h361q129 0 204.5 -67.5t75.5 -188.5q0 -113 -58.5 -203.5t-172.5 -128.5v-6q79 -27 120.5 -96.5t41.5 -157.5q0 -181 -115.5 -298.5t-292.5 -117.5h-408q-12 0 -12 10zM152 78h325q136 0 223.5 98.5t87.5 235.5q0 97 -61.5 160t-163.5 63 h-301zM274 713h297q120 0 205.5 78t85.5 204q0 86 -56.5 138.5t-150.5 52.5h-288z" />
<glyph unicode="C" horiz-adv-x="851" d="M100 338l121 606q14 72 42.5 131.5t74 106t113 72.5t151.5 26q91 0 170 -33.5t129 -101.5q7 -12 -8 -27l-31 -24q-8 -7 -13.5 -6t-14.5 12q-39 45 -100.5 72.5t-129.5 27.5q-123 0 -198.5 -71.5t-98.5 -186.5l-121 -616q-5 -28 -6 -53q0 -77 48 -134q63 -76 194 -76 q150 0 260 107q16 16 29 6l39 -35q12 -12 -5 -26q-129 -129 -321 -129q-176 0 -264 99q-67 75 -67 182q0 34 7 71z" />
<glyph unicode="D" horiz-adv-x="964" d="M49 16l240 1231q4 17 16 17h369h3q166 0 234 -96q47 -67 46 -166q0 -45 -9 -97l-104 -563q-33 -171 -128.5 -256.5t-262.5 -85.5h-392q-15 0 -12 16zM150 78h303q118 0 197 65.5t102 190.5l108 567q9 40 9 78q0 15 -1 29q-5 52 -23 91t-65 63t-118 24h-297z" />
<glyph unicode="E" horiz-adv-x="880" d="M49 16l240 1231q4 17 16 17h619q15 0 12 -17l-10 -47q-3 -14 -17 -14h-544l-99 -494h492q16 0 12 -16l-8 -49q-3 -15 -17 -15h-491l-104 -534h606q15 0 12 -15l-8 -47q-3 -16 -19 -16h-680q-15 0 -12 16z" />
<glyph unicode="F" horiz-adv-x="827" d="M49 14l240 1233q4 17 20 17h633q16 0 12 -15l-10 -49q0 -14 -16 -14h-561l-99 -496h486q16 0 12 -16l-10 -49q-4 -15 -17 -15h-483l-119 -596q0 -14 -16 -14h-58q-14 0 -14 14z" />
<glyph unicode="G" horiz-adv-x="944" d="M98 338l121 608q28 150 126.5 243t264.5 93q92 0 173.5 -35.5t125.5 -101.5q10 -13 -8 -27l-33 -24q-18 -12 -30 6q-36 45 -98.5 73.5t-131.5 28.5q-123 0 -201.5 -72t-101.5 -186l-121 -616q-6 -30 -6 -57q0 -75 46 -131q63 -77 196 -77q129 0 212.5 67.5t106.5 191.5 l54 276h-193q-15 0 -12 14l8 52q7 14 18 14h263q7 0 12 -5t4 -11l-66 -343q-29 -152 -131 -241.5t-274 -89.5h-3q-172 0 -260 98q-68 76 -68 182q0 34 7 70z" />
<glyph unicode="H" horiz-adv-x="1024" d="M45 14l240 1235q3 15 18 15h57q7 0 11 -4.5t2 -10.5l-109 -559h596l109 559q6 15 18 15h60q16 0 12 -15l-240 -1235q-3 -14 -16 -14h-58q-16 0 -16 14l117 598h-596l-117 -598q-3 -14 -16 -14h-58q-17 0 -14 14z" />
<glyph unicode="I" horiz-adv-x="411" d="M80 14l239 1235q3 15 19 15h57q8 0 12 -4.5t1 -10.5l-240 -1235q0 -14 -16 -14h-60q-18 0 -12 14z" />
<glyph unicode="J" horiz-adv-x="487" d="M-176 -193q-3 22 22 25q82 9 140 36t96 75t60.5 107t39.5 145l205 1052q3 15 19 15h53q17 0 14 -15l-203 -1038q-16 -84 -32.5 -141.5t-47.5 -117.5t-73 -98t-108.5 -66t-155.5 -38q-22 -4 -25 12z" />
<glyph unicode="K" horiz-adv-x="962" d="M43 14l240 1231q2 10 5 14.5t13 4.5h59q14 0 11 -17l-119 -614l4 -2l662 618q16 13 26 13h68q8 0 10.5 -3t0.5 -7.5t-7 -8.5l-549 -516l4 -6q57 14 121 14q264 0 265 -257q0 -34 -5 -72l-47 -392q-3 -14 -17 -14h-53q-14 0 -14 16l45 365q4 30 6 52t1 53.5t-8 54t-23 47 t-40.5 39.5t-64 25t-90.5 10q-80 0 -143.5 -25t-103.5 -67.5t-64 -89.5t-35 -101l-70 -363q-1 -6 -2.5 -9.5t-4 -5t-7.5 -1.5h-60q-17 0 -14 14z" />
<glyph unicode="L" horiz-adv-x="796" d="M37 16l239 1233q3 15 19 15h57q7 0 11 -4.5t2 -10.5l-228 -1169h570q15 0 12 -14l-10 -50q-3 -16 -17 -16h-639q-19 0 -16 16z" />
<glyph unicode="M" horiz-adv-x="1226" d="M25 14l237 1223q2 11 9.5 19t19.5 8h41q23 0 26 -19q25 -135 91 -508.5t104 -574.5h6q114 195 321 563t296 522q14 17 30 17h54q24 0 20 -27l-238 -1223q-3 -14 -16 -14h-55q-9 0 -13 4t-2 10l199 1020h-6l-252 -438q-44 -76 -147 -254t-158 -274q-10 -19 -31 -19h-45 q-20 0 -22 17l-101 522q-19 114 -80 444h-6l-196 -1018q-3 -14 -17 -14h-57q-15 0 -12 14z" />
<glyph unicode="N" horiz-adv-x="1021" d="M37 14l237 1223q4 27 29 27h45q21 0 29 -19l383 -1083h4l209 1085q4 17 18 17h56q15 0 12 -17l-238 -1224q-6 -23 -26 -23h-47q-22 0 -27 16q-74 203 -211.5 591.5t-171.5 484.5h-4l-209 -1078q-3 -14 -19 -14h-57q-15 0 -12 14z" />
<glyph unicode="O" horiz-adv-x="970" d="M106 360l109 578q31 153 135.5 246.5t267.5 93.5q172 0 266 -100q70 -75 70 -182q0 -35 -8 -74l-112 -594q-64 -342 -406 -342q-122 0 -203 53t-110 137q-17 50 -17 105q0 38 8 79zM188 273q0 -43 17 -81t44.5 -67t75 -45.5t109.5 -16.5q136 0 213.5 73t100.5 196 l110 594q6 29 6 56q0 42 -13 78q-21 60 -82.5 99t-156.5 39q-128 0 -207.5 -74.5t-101.5 -189.5l-110 -572q-6 -42 -5 -82v-7z" />
<glyph unicode="P" horiz-adv-x="917" d="M51 14l242 1233q4 17 20 17h365q134 0 215.5 -75.5t81.5 -197.5q0 -184 -113.5 -290.5t-288.5 -106.5h-319l-115 -580q0 -14 -16 -14h-55q-17 0 -17 14zM266 670h312q135 0 221 85.5t86 221.5q0 95 -54.5 152t-160.5 57h-303z" />
<glyph unicode="Q" horiz-adv-x="970" d="M104 360l111 578q29 153 133.5 246.5t274.5 93.5q169 0 259 -102q68 -79 68 -185q0 -32 -6 -67l-110 -596q-67 -333 -398 -338q-8 -50 -8 -88q0 -45 19.5 -65.5t76.5 -20.5q64 0 131 18q20 6 23 -12l6 -33q5 -20 -16 -27q-27 -11 -76.5 -18.5t-83.5 -7.5q-81 0 -122.5 37 t-41.5 104q0 41 12 115q-103 11 -167 67t-83 133q-10 41 -10 86q0 40 8 82zM184 247q9 -53 34 -94t80 -65.5t134 -24.5q261 0 316 269l110 590q7 31 7 60q0 75 -49 134q-68 82 -208 82q-128 0 -205.5 -75t-99.5 -189l-113 -576q-9 -36 -9 -70q0 -21 3 -41z" />
<glyph unicode="R" horiz-adv-x="952" d="M43 12l240 1233q4 17 24 17h357q152 0 228.5 -72t76.5 -199q0 -276 -275 -422q-8 -8 -8 -10t1 -5t1 -5l148 -526q5 -23 -17 -23h-49q-23 0 -29 20l-145 533h-356l-107 -539q-2 -8 -4.5 -11t-11.5 -3h-58q-8 0 -12.5 2.5t-3.5 9.5zM252 631h360q25 0 45 10 q106 48 165 140.5t59 193.5q0 43 -11.5 78.5t-37.5 66.5t-74.5 48.5t-116.5 17.5h-279z" />
<glyph unicode="S" horiz-adv-x="874" d="M18 106q-8 9 5 25l28 33q13 14 29 -2q38 -39 118 -67.5t160 -28.5q95 0 174 32.5t129 101t50 162.5q0 49 -17.5 89t-52 70.5t-70.5 51t-88 43.5q-128 60 -173 89q-140 92 -140 227q0 88 36 157t95.5 109t128 60t141.5 20q197 0 301 -98q10 -10 -2 -25q-27 -36 -28 -37 q-12 -15 -27 0q-99 82 -244 82q-51 0 -102.5 -14t-100 -42.5t-78.5 -81.5t-30 -122q0 -44 21.5 -82t62.5 -67.5t76.5 -48t87.5 -40.5q66 -29 114 -58t92.5 -68t67.5 -89.5t23 -111.5q0 -97 -37 -173t-101 -121.5t-145.5 -69t-175.5 -23.5q-96 0 -188.5 31t-139.5 87z" />
<glyph unicode="T" horiz-adv-x="819" d="M174 1200l8 47q7 17 19 17h741q16 0 12 -15l-10 -49q0 -14 -18 -14h-326l-229 -1172q-3 -14 -17 -14h-55q-8 0 -12.5 3.5t-3.5 10.5l227 1172h-324q-8 0 -10.5 2.5t-1.5 11.5z" />
<glyph unicode="U" horiz-adv-x="983" d="M106 362l173 887q3 15 18 15h57q7 0 11 -4.5t2 -10.5l-174 -895q-7 -36 -7 -69q0 -38 9 -72q17 -64 78 -107t161 -43q135 0 213.5 74t102.5 193q35 178 107.5 548t72.5 371q3 15 18 15h58q16 0 12 -15l-180 -923q-31 -157 -132.5 -248.5t-277.5 -91.5q-178 0 -266 108 q-64 79 -65 186q0 39 9 82z" />
<glyph unicode="V" horiz-adv-x="858" d="M178 1243q-3 21 17 21h59q15 0 18 -15l56 -721l34 -413h7q7 19 99 214t97 206l338 714q7 15 23 15h61q21 0 10 -25l-589 -1227q-5 -12 -19 -12h-84q-13 0 -16 14z" />
<glyph unicode="W" horiz-adv-x="1306" d="M164 1245q0 19 16 19h58q14 0 14 -17l18 -780l4 -340h11q6 18 70.5 174t66.5 162l326 788q9 13 22 13h66q16 0 16 -19q0 -41 16 -413.5t17 -393.5l8 -311h8l127 319l322 803q8 15 22 15h66q18 0 8 -23l-508 -1229q-6 -12 -18 -12h-89q-12 0 -12 12l-31 803l-10 291h-6 q-5 -16 -61.5 -152.5t-59.5 -144.5l-332 -797q-5 -12 -18 -12h-86q-11 0 -14 10z" />
<glyph unicode="X" horiz-adv-x="845" d="M-59 18l477 639l-209 586q-4 21 16 21h56q17 0 20 -11q33 -90 90.5 -260.5t83.5 -244.5h6l371 505q11 11 27 11h67q9 0 10.5 -7t-4.5 -14l-434 -584q40 -114 120 -334.5t110 -306.5q4 -18 -13 -18h-51q-19 0 -25 8l-196 563h-4l-418 -563q-6 -8 -25 -8h-67q-20 0 -8 18z " />
<glyph unicode="Y" horiz-adv-x="815" d="M178 1243q-5 21 17 21h51q15 0 22 -17l160 -653h6q14 23 204 321t210 332q20 16 29 17h63q11 0 13 -6t-7 -17l-471 -725q-14 -24 -18 -49l-88 -453q-3 -14 -17 -14h-57q-17 0 -14 14l86 443q6 32 2 51z" />
<glyph unicode="Z" horiz-adv-x="792" d="M-49 18l6 33q3 21 16 39l830 1096h-578q-17 0 -14 16l8 45q3 17 19 17h657q21 0 18 -21l-4 -31q-2 -18 -22 -43l-821 -1089h614q18 0 14 -17l-10 -47q-3 -16 -16 -16h-699q-21 0 -18 18z" />
<glyph unicode="[" horiz-adv-x="622" d="M55 -276l322 1646q0 16 16 16h254q15 0 12 -16l-10 -45q-2 -12 -14 -12h-184l-297 -1532h182q14 0 12 -12l-10 -45q-4 -15 -14 -15h-256q-16 0 -13 15z" />
<glyph unicode="\" horiz-adv-x="581" d="M195 1364q-3 16 16 16h29q15 0 18 -16l209 -1485q3 -16 -16 -16h-31q-14 0 -17 16z" />
<glyph unicode="]" horiz-adv-x="624" d="M-29 -276l11 45q2 12 16 12h182l297 1532h-184q-12 0 -10 12l10 45q3 16 16 16h256q10 0 10 -16l-321 -1646q-3 -15 -14 -15h-258q-6 0 -9.5 4.5t-1.5 10.5z" />
<glyph unicode="^" horiz-adv-x="1028" d="M223 815l412 449q16 16 27 16h34q13 0 23 -16l244 -449q8 -12 -9 -24l-26 -19q-14 -10 -23 4l-235 389l-398 -381q-17 -17 -26 -10l-21 21q-11 8 -2 20z" />
<glyph unicode="_" horiz-adv-x="1024" d="M-131 -219l8 41q3 14 14 14h1012q12 0 12 -14l-8 -41q-2 -12 -16 -12h-1012q-12 0 -10 12z" />
<glyph unicode="`" horiz-adv-x="835" d="M365 1257q-19 22 6 33l47 25q23 13 35 -12l163 -273q9 -18 -4 -24l-22 -13q-13 -6 -27 13z" />
<glyph unicode="a" horiz-adv-x="851" d="M66 242q0 150 97 249t251 99q77 0 139 -32.5t98 -88.5h4l23 127q7 32 7 62q1 15 -1 29q-6 43 -26 75t-67.5 50.5t-119.5 18.5q-47 0 -114.5 -13.5t-112.5 -33.5q-14 -6 -19 7l-16 43q-5 12 12 20q119 51 256 51q167 0 239 -82q52 -59 52 -153q0 -38 -8 -82l-109 -574 q-3 -14 -18 -14h-55q-11 0 -11 12q4 20 8.5 44.5t6.5 34.5t2 11h-4q-97 -112 -256 -112q-120 0 -189 69t-69 183zM147 250q0 -86 48 -137.5t141 -51.5q118 0 198 81.5t80 193.5q0 80 -54 133t-144 53q-119 0 -194 -79.5t-75 -192.5z" />
<glyph unicode="b" horiz-adv-x="841" d="M27 12l247 1278q3 15 19 15h57q13 0 10 -13l-98 -499l6 -2q104 110 264 110q65 0 117 -19.5t82.5 -52.5t50.5 -76.5t21 -91.5v-12q0 -42 -6 -86l-49 -254q-28 -144 -121.5 -231.5t-249.5 -87.5q-184 0 -242 116h-6l-18 -92q-6 -14 -19 -14h-53q-17 0 -12 12zM168 309 q-6 -30 -6 -58q0 -70 39 -120q54 -70 168 -70q122 0 197 67.5t98 184.5l51 254q7 33 7 64q0 69 -36 121q-50 75 -170 75q-110 0 -194 -76t-105 -180z" />
<glyph unicode="c" horiz-adv-x="759" d="M72 313l49 262q30 152 126.5 239t252.5 87q89 0 159 -34t103 -95q8 -13 -6 -27l-39 -26q-16 -13 -25 4q-27 49 -83 76.5t-120 27.5q-105 0 -182.5 -69t-99.5 -180l-53 -265q-6 -34 -6 -64q0 -73 36 -121q50 -68 174 -67q130 0 232 107q11 14 24 4l35 -27q16 -11 2 -28 q-115 -127 -303 -127q-156 0 -230 88q-54 63 -54 157q0 37 8 78z" />
<glyph unicode="d" horiz-adv-x="856" d="M78 309l49 258q12 66 39 122.5t71 105.5t113.5 77.5t157.5 28.5q81 0 144.5 -37t88.5 -88h4l101 514q3 15 16 15h58q15 0 12 -13l-248 -1280q-3 -12 -18 -12h-56q-13 0 -10 14l16 84h-4q-60 -57 -122.5 -82.5t-147.5 -25.5q-148 0 -220 90q-52 65 -52 156q0 35 8 73z M160 313q-7 -34 -7 -65q0 -71 37 -119q52 -68 170 -68q108 0 191.5 70.5t103.5 177.5l52 262q6 29 6 56q0 70 -42 124q-58 74 -169 74q-120 0 -194.5 -73t-96.5 -185z" />
<glyph unicode="e" horiz-adv-x="829" d="M68 238q0 38 8.5 89.5t24 120.5t20.5 99q66 354 418 354q115 0 186.5 -59.5t71.5 -161.5q0 -55 -17.5 -99.5t-46.5 -76t-76 -54.5t-96.5 -37t-117 -22.5t-129 -12.5t-140.5 -5q-2 -11 -12 -61t-10 -72q0 -85 58 -132t169 -47q61 0 125 26.5t104 68.5q18 18 29 6l29 -27 q6 -6 6 -12q0 -10 -25 -35q-44 -43 -121.5 -70.5t-163.5 -27.5q-145 0 -219.5 66t-74.5 182zM186 446q73 1 132.5 4.5t122 12t109 24.5t84.5 39t57.5 58t19.5 80q0 68 -45 115.5t-144 47.5q-75 0 -132 -24t-88.5 -54t-56 -87t-33 -90t-20.5 -96z" />
<glyph unicode="f" horiz-adv-x="526" d="M-234 -349.5q-2 2.5 1 15.5l16 43q3 15 27 12q47 -14 84 -14q36 0 62.5 10t42 23.5t28.5 42.5t19 53t15 68l179 913h-125q-13 0 -13 17l9 40q7 17 20 17h123l31 158q25 133 94 197.5t192 64.5q79 0 134 -19q9 -4 10.5 -6.5t-0.5 -15.5l-13 -41q-5 -13 -26 -10 q-62 16 -103 16q-97 0 -141 -50t-65 -151l-29 -143h242q15 0 12 -17l-8 -43q-3 -14 -19 -14h-241l-179 -923q-28 -140 -80.5 -202.5t-164.5 -62.5q-72 0 -123 15q-9 4 -11 6.5z" />
<glyph unicode="g" horiz-adv-x="856" d="M-57 -154q6 36 22 66q9 15 23 12l49 -14q16 -3 4 -19q-17 -36 -17 -66q0 -48 42 -81q69 -53 210 -55q135 0 225.5 61t90.5 160q0 139 -193 139h-123q-82 0 -119.5 34t-37.5 89q0 40 26 88.5t60 75.5q-99 71 -99 199q0 150 110 258t280 108q127 0 211 -78q44 32 100 53.5 t102 22.5q11 2 15.5 -2.5t1.5 -17.5l-13 -62q-2 -9 -6 -12.5t-14 -3.5q-32 0 -78 -9t-74 -22q28 -51 28 -122q0 -25 -3 -52q-13 -94 -74 -166.5t-144.5 -108.5t-174.5 -36q-27 0 -45 2q-6 1 -14 1.5t-11.5 1t-8 1t-6.5 0t-5 -0.5t-5 -1t-4.5 -1.5t-5.5 -2.5 q-27 -13 -47 -42.5t-20 -62.5q0 -55 100 -55h152q110 0 170.5 -52.5t60.5 -146.5q0 -99 -59.5 -170.5t-153.5 -105t-209 -33.5q-166 0 -252 65q-70 53 -70 129q0 17 3 35zM188 541q0 -81 49 -132t142 -51q130 0 216.5 86t86.5 197q0 83 -49.5 133.5t-147.5 50.5 q-127 0 -212 -85.5t-85 -198.5z" />
<glyph unicode="h" horiz-adv-x="876" d="M29 12l250 1278q3 15 16 15h57q13 0 10 -13l-94 -499l4 -5q55 55 128.5 84t146.5 29q85 0 143 -27t84.5 -73t34.5 -107q3 -20 2 -41q0 -42 -10 -88l-107 -551q0 -14 -14 -14h-59q-7 0 -10.5 3t-2.5 9l109 555q9 45 9 83q0 177 -206 177q-108 0 -192.5 -76t-106.5 -184 l-106 -553q0 -14 -17 -14h-57q-15 0 -12 12z" />
<glyph unicode="i" horiz-adv-x="352" d="M47 8v4l166 865q6 12 16 12h60q12 0 12 -8v-4q-79 -399 -168 -865q-3 -12 -16 -12h-60q-10 0 -10 8zM250 1141v8q6 26 27.5 44.5t46.5 18.5q23 0 38 -14t15 -37q0 -2 -1 -6t-1 -6q-4 -26 -26 -44t-48 -18q-23 0 -37 15t-14 39z" />
<glyph unicode="j" horiz-adv-x="335" d="M-260 -340l10 43q6 17 25 14q30 -10 82 -10q78 0 113.5 45t54.5 142l190 983q3 14 16 14h60q13 0 10 -14l-195 -1002q-24 -129 -78 -188.5t-165 -59.5q-72 0 -115 13q-13 5 -8 20zM250 1151q6 26 28 43.5t48 17.5q25 0 39 -17.5t8 -43.5q-4 -26 -25.5 -45t-46.5 -19 t-40 18.5t-11 45.5z" />
<glyph unicode="k" horiz-adv-x="831" d="M27 12l247 1278q3 15 17 15h57q16 0 12 -15l-163 -841q1 0 2 -1.5t2 -1.5q50 42 233.5 196t284.5 237q15 10 29 10h77q9 0 9 -10q0 -4 -7 -11l-405 -333q41 4 80 4q122 -3 180 -89q44 -65 44 -161q0 -31 -5 -66l-31 -207q-2 -9 -6 -12.5t-14 -3.5h-52q-17 0 -14 14 l31 209q4 31 4 57q0 189 -197 189q-103 0 -185.5 -70t-100.5 -161l-43 -226q-3 -12 -17 -12h-57q-14 0 -12 12z" />
<glyph unicode="l" horiz-adv-x="399" d="M88 125.5q2 24.5 8 58.5l213 1106q4 15 15 15h57q12 0 12 -11v-4l-217 -1110q-4 -24 -4 -42q0 -27 8 -42q14 -26 76 -26h20q15 0 15 -11l-10 -55q-3 -14 -23 -14h-35q-43 0 -71.5 11.5t-42 28.5t-18.5 44t-3 51.5z" />
<glyph unicode="m" horiz-adv-x="1359" d="M25 12l112 580q28 142 126.5 225.5t242.5 83.5q76 0 140 -38t95 -111h9q53 72 130 110.5t154 38.5q140 0 212 -84q52 -61 51 -152q0 -34 -7 -73q-74 -391 -112 -578q0 -14 -15 -14h-59q-13 0 -10 12l110 580q6 31 6 59q0 65 -34 111q-48 66 -152 65q-90 0 -168.5 -69 t-97.5 -166q-18 -90 -54 -276.5t-59 -301.5q0 -14 -16 -14h-58q-15 0 -12 12l113 580q6 28 6 53q0 63 -37 113q-51 68 -143 69q-101 0 -177.5 -67t-95.5 -168l-114 -578q0 -14 -15 -14h-59q-15 0 -12 12z" />
<glyph unicode="n" horiz-adv-x="874" d="M29 12l168 865q3 14 16 14h57q14 0 11 -14l-19 -97l6 2q50 54 128 86.5t151 32.5q67 0 118 -18t80.5 -50t47 -74.5t17.5 -91.5t-9 -102l-107 -551q0 -14 -14 -14h-59q-7 0 -10.5 3t-2.5 9l109 555q7 36 7 67q0 70 -33 120q-48 74 -171 73q-108 0 -192.5 -76t-106.5 -184 l-106 -553q0 -14 -17 -14h-57q-15 0 -12 12z" />
<glyph unicode="o" horiz-adv-x="862" d="M82 328l45 250q30 148 124.5 235.5t244.5 87.5q152 -1 236 -97q62 -72 61 -172q0 -35 -7 -73l-41 -240q-65 -329 -374 -329q-161 0 -240 94q-57 68 -57 166q0 37 8 78zM164 317q-6 -32 -6 -60q0 -75 43 -126q59 -70 174 -70q112 0 185.5 68t98.5 190l41 238q6 32 6 60 q0 73 -40 129q-56 78 -174 81h-9q-104 1 -175 -67q-74 -70 -97 -185z" />
<glyph unicode="p" horiz-adv-x="870" d="M-37 -354q50 262 238 1231q3 12 16 12h55q11 0 11 -8v-4l-19 -91q1 0 4 -1t4 -1q102 115 269 115q129 0 200.5 -68t71.5 -182q0 -31 -6 -69l-49 -254q-13 -65 -40 -122t-70.5 -106.5t-110.5 -78.5t-150 -29q-80 0 -147.5 33.5t-92.5 85.5h-8l-94 -463q-3 -13 -16 -13h-54 q-12 0 -12 9v4zM170 264q0 -88 58 -144.5t159 -56.5q116 0 189 72.5t96 186.5l51 253q6 35 6 66q0 87 -52.5 136.5t-154.5 49.5q-108 0 -190.5 -70t-104.5 -177q-28 -151 -51 -263q-6 -27 -6 -53z" />
<glyph unicode="q" horiz-adv-x="856" d="M60 229q-1 8 -1 15q0 41 7 82l49 254q28 145 123 233t247 88q78 0 139.5 -33t98.5 -80h8l21 89q4 14 16 14h55q16 0 13 -14l-240 -1231q-3 -15 -16 -15h-60q-14 0 -10 15l86 448h-8q-110 -104 -258 -104q-65 0 -116.5 19.5t-82.5 52t-50.5 76t-20.5 91.5zM147 322 q-7 -32 -7 -62q0 -34 9 -65q16 -58 66.5 -95t130.5 -37q110 0 193 76t104 180l51 261q5 27 5 51q0 74 -45 127q-60 71 -169 71q-111 0 -187.5 -69t-100.5 -185z" />
<glyph unicode="r" horiz-adv-x="530" d="M35 12l168 865q3 14 18 14h51q14 0 11 -14l-23 -117h6q54 70 142 110q69 31 141 31q20 0 41 -2q17 -3 8 -20l-23 -60q-6 -12 -24 -12h-15q-123 0 -202 -63q-84 -67 -109 -193l-104 -537q-3 -14 -15 -14h-57q-7 0 -11 3t-3 9z" />
<glyph unicode="s" horiz-adv-x="696" d="M14 152q-4 13 9 18l47 20q13 8 18 -6q22 -56 79 -90.5t130 -34.5q98 0 162.5 47.5t64.5 135.5q0 33 -14 60t-41.5 48t-53 34.5t-63.5 29.5q-109 44 -147 69q-101 65 -101 172q0 79 43 136.5t107.5 83.5t140.5 26q181 0 269 -108q9 -9 -5 -23l-34 -33q-6 -5 -14.5 -4 t-12.5 8q-31 38 -89.5 63t-117.5 25q-78 0 -138 -43t-60 -122q0 -33 14 -59.5t47 -48t50.5 -30t61.5 -26.5q6 -3 9 -4q50 -21 86 -40.5t74.5 -49t58.5 -68.5t20 -86q0 -127 -91.5 -195.5t-227.5 -68.5q-100 0 -174 41t-107 123z" />
<glyph unicode="t" horiz-adv-x="569" d="M113 831l10 46q0 14 14 14h129l45 225q0 14 17 17l59 14q8 1 11 -3t1 -11l-47 -242h242q10 0 10 -14l-10 -46q-4 -14 -16 -14h-240l-111 -569q-9 -46 -9 -80q0 -38 12 -60q22 -42 100 -42q59 0 133 18q11 3 15.5 -1.5t2.5 -12.5v-41q0 -11 -2.5 -14.5t-11.5 -6.5 q-51 -20 -166 -20q-80 0 -122.5 33t-46.5 87q-1 15 -2 31q0 43 9 94l113 584h-127q-15 0 -12 14z" />
<glyph unicode="u" horiz-adv-x="872" d="M77 224q0 49 9 102l107 551q3 14 16 14h59q11 0 8 -14l-106 -555q-7 -35 -7 -66q0 -68 33 -118q48 -72 171 -72q108 0 192 75.5t105 182.5l106 553q4 14 18 14h58q15 0 12 -14l-168 -863q-3 -14 -16 -14h-58q-13 0 -10 12l21 99l-6 -2q-50 -58 -127.5 -88.5t-153.5 -30.5 q-67 0 -118 18t-80.5 50t-47 74.5t-17.5 91.5z" />
<glyph unicode="v" horiz-adv-x="745" d="M78 868q-5 21 14 21h51q20 0 23 -19l145 -764h6q76 149 275 525q27 61 35 102t8 94q0 4 -1 14t-1 17t2 15t7.5 12t14.5 4h41q16 0 20.5 -6.5t4.5 -20.5q-2 -89 -13 -141.5t-48 -126.5l-297 -569q-13 -25 -41 -25h-52q-15 0 -20 4.5t-8 22.5z" />
<glyph unicode="w" horiz-adv-x="1167" d="M100 868v6q0 15 17 15h51q11 0 14.5 -4.5t5.5 -14.5l111 -772h6l273 541q3 7 10.5 21t11.5 24.5t4 20.5q0 5 -1 16t-1 18l-18 129v6q0 15 16 15h49q20 0 23 -19l102 -768h6q46 97 133.5 276t124.5 257q28 59 35.5 100.5t7.5 98.5q0 3 -1 13.5t-0.5 17t2 14.5t7.5 12t15 4 h41q11 0 16.5 -4.5t6.5 -9t1 -13.5v-23q-1 -71 -11 -117q-12 -54 -50 -130l-281 -573q-13 -25 -41 -25h-51q-17 0 -21 4t-7 23l-78 542q-1 0 -2 -1t-2 -1q-91 -187 -273 -542q-12 -25 -39 -25h-53q-16 0 -21 4.5t-8 22.5q-79 517 -131 841z" />
<glyph unicode="x" horiz-adv-x="720" d="M-60.5 5q-2.5 5 3.5 15l370 447l-174 403q-3 7 2 13t13 6h47q15 0 20.5 -3t9.5 -14l136 -333h4l268 333q10 12 16.5 14.5t20.5 2.5h57q17 0 8 -19l-331 -401l196 -453q8 -16 -12 -16h-49q-24 0 -31 16l-160 381h-4l-307 -381q-14 -16 -37 -16h-55q-9 0 -11.5 5z" />
<glyph unicode="y" horiz-adv-x="755" d="M78 -346l182 344h-18q-16 0 -20 5t-7 22l-127 843q0 21 16 21h46q21 0 24 -19l119 -798h4l299 559q22 42 32.5 85t11.5 67.5t1 82.5q0 25 23 25h41q16 0 20 -6.5t4 -20.5q0 -89 -11 -143.5t-50 -126.5l-500 -946q-13 -21 -35 -21h-45q-22 0 -10 27z" />
<glyph unicode="z" horiz-adv-x="684" d="M-37 18l6 29q3 19 13 33l618 737h-448q-18 0 -15 14l10 43q0 17 17 17h530q19 0 19 -21l-6 -30q-3 -21 -15 -33l-614 -733h487q9 0 12.5 -4.5t0.5 -10.5l-7 -45q-3 -14 -18 -14h-573q-20 0 -17 18z" />
<glyph unicode="{" horiz-adv-x="616" d="M111 527q-3 5 0 10l8 43q0 4 1 7t2 5t2.5 4t2.5 3t4 2.5l4 2l5 2.5t5 2q89 33 134 93.5t63 152.5l51 270q30 148 96.5 213t198.5 64h49q12 0 8 -15l-8 -45q-2 -12 -14 -12h-39q-93 0 -139 -43t-66 -145l-63 -332q-16 -77 -69 -147.5t-130 -100.5v-4q66 -29 90.5 -100.5 t5.5 -163.5l-65 -338q-19 -103 9.5 -145.5t121.5 -42.5h39q13 0 10 -13l-6 -45q-7 -14 -16 -14h-35q-134 -1 -181.5 64.5t-19.5 211.5l57 297q19 90 -1.5 151t-92.5 93q-10 4 -14.5 7t-7.5 8z" />
<glyph unicode="|" horiz-adv-x="403" d="M205 -217v1585q0 14 14 14h43q12 0 12 -12v-1587q0 -12 -12 -12h-43q-14 0 -14 12z" />
<glyph unicode="}" horiz-adv-x="616" d="M-68 -291l9 45q3 15 14 15h41q92 0 137.5 42t65.5 144l69 350q18 93 70 164t129 98v4q-65 30 -89 101t-9 149l61 320q19 103 -9.5 145.5t-121.5 42.5h-39q-12 0 -10 12l8 45q4 15 16 15h33q134 1 181.5 -65t19.5 -212l-53 -270q-16 -92 5 -151.5t95 -94.5q16 -8 18 -13.5 t0 -14.5l-8 -43q-2 -13 -33 -25q-86 -32 -129.5 -92t-62.5 -152l-55 -295q-30 -150 -95 -214.5t-198 -63.5h-49q-6 0 -9 4t-2 10z" />
<glyph unicode="~" horiz-adv-x="911" d="M35 571q-5 8 2 17q45 56 110.5 84t135.5 28q58 0 122 -28.5t124.5 -57t107.5 -28.5q42 0 88 24.5t78 57.5q19 19 31 10l36 -31q4 -3 3.5 -9t-5.5 -9q-101 -125 -239 -125q-56 0 -113.5 18t-96 39t-82 39t-75.5 18q-42 0 -88 -20.5t-82 -56.5q-15 -15 -22 -6l-33 34z" />
<glyph unicode="&#xa1;" horiz-adv-x="503" d="M106 -369l201 947q3 14 15 14h32q11 0 11 -8v-4l-160 -949q-3 -16 -21 -16h-65q-13 0 -13 10v6zM311 805q0 2 1 7t1 7q5 30 28.5 50t55.5 20q26 0 43 -15t17 -40q0 -32 -27 -58t-59 -26q-26 0 -43 15t-17 40z" />
<glyph unicode="&#xa2;" horiz-adv-x="911" d="M86 313l49 262q14 68 39.5 123t66.5 100t101 72t135 31l29 143q4 15 18 15h35q16 0 12 -15l-26 -143q152 -16 225 -131q11 -14 -8 -27l-33 -24q-17 -12 -29 4q-28 48 -81.5 76t-118.5 28q-110 0 -184.5 -71.5t-94.5 -177.5l-53 -265q-21 -113 26 -182.5t166 -69.5 q148 0 244 107q16 16 27 4l33 -27q16 -12 2 -26q-108 -123 -289 -129l-27 -154q-3 -12 -16 -12h-39q-12 0 -10 12l28 158q-135 10 -194 98.5t-33 220.5z" />
<glyph unicode="&#xa3;" horiz-adv-x="911" d="M59 12l9 39q3 13 22 23q55 28 92 89.5t60 184.5q21 117 49 260h-103q-15 0 -12 13l8 43q4 12 15 12h104l55 285q31 156 128.5 239.5t244.5 83.5q194 0 273 -139q6 -12 -11 -25l-39 -24q-18 -11 -24 2q-51 108 -201 108q-120 0 -191 -68t-94 -186l-53 -276h266q5 0 9 -4 t4 -8l-8 -43q-3 -13 -15 -13h-270l-41 -235q-1 -3 -6.5 -31t-7 -36.5t-7.5 -35.5t-10.5 -39t-11.5 -35t-14.5 -36t-17 -29.5t-20.5 -28t-24 -20.5v-8h549q12 0 12 -13l-10 -49q-3 -12 -14 -12h-684q-14 0 -11 12z" />
<glyph unicode="&#xa4;" horiz-adv-x="997" d="M152 197q-8 8 0 20l106 109q-63 81 -63 182t65 182l-104 111q-9 9 0 18l37 37q8 8 16 0l106 -111q75 60 179 60q100 0 182 -66l112 113q9 13 19 0l35 -37q8 -8 2 -18l-113 -111q62 -74 62 -178q0 -102 -60 -180l107 -105q9 -9 2 -18l-37 -35q-11 -10 -19 -2l-108 104 q-83 -67 -184 -67q-104 0 -181 65l-106 -106q-8 -13 -21 0zM268 506q0 -93 66.5 -159t159.5 -66q95 0 161 65.5t66 159.5q0 95 -66 161t-161 66q-93 0 -159.5 -66t-66.5 -161z" />
<glyph unicode="&#xa5;" horiz-adv-x="911" d="M98 391l6 37q2 12 15 12h295l4 17q6 32 2 51l-14 47h-265q-11 0 -8 14l6 37q2 12 15 12h235l-160 625q-5 21 17 21h57q16 0 23 -17l159 -653h7q13 22 203 320.5t210 332.5q20 16 29 17h57q11 0 13 -6t-7 -17l-405 -623h256q12 0 10 -12l-6 -37q-4 -14 -16 -14h-285 l-25 -39q-14 -24 -18 -49l-6 -27h311q13 0 10 -12l-6 -37q-3 -14 -16 -14h-312l-69 -363q-4 -14 -17 -14h-57q-17 0 -14 14l69 363h-295q-12 0 -8 14z" />
<glyph unicode="&#xa6;" horiz-adv-x="403" d="M205 -217v743q0 15 14 15h43q14 0 14 -13l-2 -745q0 -12 -12 -12h-43q-14 0 -14 12zM205 623v745q0 14 14 14h43q12 0 12 -12v-747q0 -13 -12 -13h-43q-14 0 -14 13z" />
<glyph unicode="&#xa7;" horiz-adv-x="835" d="M53 -23q0 7 10 17l29 26q7 7 14 7t13 -9q33 -38 95.5 -64t125.5 -26q45 0 88.5 11.5t82.5 33.5t63 61t24 89q0 32 -15.5 58.5t-49.5 48.5t-66.5 37t-87.5 36q-227 86 -227 225q0 141 217 238q2 2 8 2q13 0 16 -12l17 -35q2 -2 2 -8q0 -15 -21 -23q-68 -25 -110.5 -64 t-42.5 -89q0 -93 180 -162q64 -24 104.5 -43.5t81 -49t59.5 -68t19 -87.5q0 -118 -96.5 -193t-241.5 -75q-88 0 -167.5 31t-119.5 79q-4 4 -4 8zM272 1071q0 112 85 184t229 72q78 0 145 -27.5t105 -76.5q6 -6 6 -11t-11 -16l-28 -29q-4 -4 -15 -4t-14 6q-31 40 -82 64 t-106 24q-109 0 -170.5 -50t-61.5 -126q0 -46 40.5 -85t131.5 -76q63 -26 101.5 -46t77.5 -49t57 -65.5t18 -83.5q0 -85 -51.5 -148.5t-136.5 -93.5q-1 0 -4.5 -1t-5.5 -1q-10 0 -15 10l-14 31q-2 4 -2 12q0 9 16 21q57 33 91 71t34 95q0 56 -51 96.5t-152 81.5 q-107 43 -162 95t-55 126z" />
<glyph unicode="&#xa8;" horiz-adv-x="833" d="M352 1149q4 26 25.5 43.5t46.5 17.5q24 0 37.5 -17.5t9.5 -43.5t-25 -44t-45 -18q-25 0 -39.5 18.5t-9.5 43.5zM666 1149q6 26 26 43.5t45 17.5t39 -17.5t10 -43.5q-5 -25 -25.5 -43.5t-45.5 -18.5t-39.5 18.5t-9.5 43.5z" />
<glyph unicode="&#xa9;" horiz-adv-x="1433" d="M193 487v289q0 221 166 354.5t432 133.5t425.5 -129.5t159.5 -358.5v-289q0 -228 -163.5 -357.5t-430.5 -129.5q-265 0 -427 132.5t-162 354.5zM246 481q0 -88 35 -166t100.5 -138t168.5 -95t230 -35q168 0 293.5 59t188.5 156.5t63 218.5v301q0 191 -142.5 313 t-394.5 122q-253 0 -397.5 -124.5t-144.5 -310.5v-301zM535 506v219q0 108 72.5 177t187.5 69q131 0 219 -101q6 -13 -4 -18l-27 -18q-14 -11 -22 2q-56 79 -168 79q-89 0 -143 -53t-54 -139v-213q0 -86 53.5 -140.5t145.5 -54.5q50 0 94 20.5t72 57.5q11 16 22 8l29 -20 q11 -7 4 -21q-78 -100 -221 -100q-117 0 -188.5 67t-71.5 179z" />
<glyph unicode="&#xaa;" horiz-adv-x="598" d="M104 655q-2 100 66.5 165t183.5 65q104 0 164 -74l2 2l15 74q10 61 -22 98t-130 37q-77 0 -150 -27q-20 -7 -24 11l-10 24q-4 16 14 25q83 30 176 30q124 0 179.5 -55.5t33.5 -157.5l-70 -362q-3 -14 -14 -14h-41q-17 0 -14 14l8 43h-4q-72 -66 -176 -66q-89 0 -137 46.5 t-50 121.5zM174 659q2 -50 32.5 -81t92.5 -31q82 0 136.5 50.5t51.5 117.5q0 49 -35.5 80.5t-95.5 31.5q-86 0 -134 -48t-48 -120z" />
<glyph unicode="&#xab;" horiz-adv-x="915" d="M141 381q-14 24 9 47l319 315q16 19 39 19h55q13 0 15 -7t-7 -16l-342 -340l203 -336q5 -9 0.5 -15.5t-12.5 -6.5h-51q-24 0 -35 18zM438 381q-14 25 8 47l320 315q16 19 39 19h55q13 0 15 -7t-7 -16l-342 -340l203 -336q5 -9 0.5 -15.5t-12.5 -6.5h-51q-24 0 -35 18z " />
<glyph unicode="&#xac;" horiz-adv-x="911" d="M61 465l9 41q4 18 20 18h746q14 0 14 -18l-80 -404q-3 -16 -20 -16h-41q-18 0 -15 16l68 347h-686q-18 0 -15 16z" />
<glyph unicode="&#xad;" horiz-adv-x="610" d="M129 461l10 55q3 14 17 14h338q14 0 10 -14l-10 -55q-3 -15 -15 -15h-338q-15 0 -12 15z" />
<glyph unicode="&#xae;" horiz-adv-x="823" d="M88 893v162q0 118 86.5 192t233.5 74q146 0 234.5 -73t88.5 -193v-162q0 -122 -83.5 -194t-239.5 -72q-146 0 -233 75t-87 191zM127 895q0 -102 75 -166.5t206 -64.5q132 0 207 63.5t75 167.5v158q0 105 -75 167t-207 62q-131 0 -206 -63.5t-75 -165.5v-158zM301 795v354 q0 5 4.5 9.5t11.5 4.5h111q55 0 84 -28t29 -74q0 -32 -19 -60t-49 -40q-9 -5 -2 -19l74 -147q4 -11 -10 -11h-25q-3 0 -5 0.5t-4 2.5t-2.5 3t-2 3.5t-2.5 3.5l-74 153h-76v-155q0 -11 -10 -11h-23q-7 0 -8.5 2t-1.5 9zM344 985h82q25 0 48.5 22.5t23.5 51.5t-18.5 47 t-47.5 18h-88v-139z" />
<glyph unicode="&#xaf;" horiz-adv-x="878" d="M348 1108l8 41q4 14 17 14h454q6 0 9 -4t2 -10l-9 -41q-3 -14 -16 -14h-453q-15 0 -12 14z" />
<glyph unicode="&#xb0;" horiz-adv-x="618" d="M96 1081q0 86 60 144.5t147 58.5q104 0 160.5 -56.5t56.5 -146.5q0 -83 -63.5 -140.5t-151.5 -57.5q-89 0 -149 56t-60 142zM160 1081q0 -61 40.5 -104t102.5 -43q63 0 108.5 42.5t45.5 104.5q0 64 -42.5 107t-111.5 43q-59 0 -101 -43t-42 -107z" />
<glyph unicode="&#xb1;" horiz-adv-x="911" d="M-6 111l8 39q4 18 18 18h768q19 0 15 -18l-8 -39q-3 -17 -21 -17h-768q-15 0 -12 17zM115 670l8 39q4 18 22 18h328l68 348q3 17 20 17h41q17 0 14 -17l-67 -348h340q7 0 11.5 -5t2.5 -13l-8 -39q-3 -17 -21 -17h-339l-70 -348q-3 -16 -19 -16h-40q-8 0 -13 4t-4 12 l70 348h-328q-19 0 -16 17z" />
<glyph unicode="&#xb2;" horiz-adv-x="593" d="M70 694l4 25q3 16 16 29l377 374q104 102 104 172q0 46 -33 73.5t-92 27.5q-38 0 -84 -19t-77 -41q-29 -21 -35 -8l-25 31q-6 8 8 22q45 36 105 57t119 21q80 0 134 -40.5t54 -114.5q0 -95 -137 -232l-340 -332h356q18 0 15 -16l-7 -29q-3 -16 -18 -16h-426q-12 0 -16 4 t-2 12z" />
<glyph unicode="&#xb3;" horiz-adv-x="593" d="M76 750q-8 10 6 22l24 25q8 9 19 -2q32 -34 61.5 -49t73.5 -15q106 0 154.5 60.5t48.5 154.5q0 53 -29.5 87t-87.5 34h-86h-7t-4 1t-2.5 3t-0.5 6l6 37q0 14 20 14h90q66 0 115 44.5t49 111.5q0 49 -34.5 79t-90.5 30q-42 0 -83 -16.5t-68 -43.5q-17 -17 -27 -6l-28 27 q-7 7 6 20q89 78 202 78q85 0 139 -44t54 -116q0 -68 -38.5 -123.5t-96.5 -72.5v-4q71 -36 71 -138q0 -130 -71.5 -208t-200.5 -78q-116 0 -184 82z" />
<glyph unicode="&#xb4;" horiz-adv-x="823" d="M483 1018q-13 8 0 26l187 256q18 21 39 7l41 -27q20 -14 4 -33l-228 -239q-16 -12 -28 -2z" />
<glyph unicode="&#xb5;" horiz-adv-x="882" d="M-43 -356l125 645l115 588q0 12 16 12h57q13 0 13 -12l-109 -555q-22 -111 28.5 -185t170.5 -74q107 0 190 73.5t105 180.5l108 560q0 12 17 12h57q12 0 12 -12l-168 -865q-2 -12 -16 -12h-55q-14 0 -11 12l21 107h-4q-58 -61 -136 -95t-151 -34q-75 0 -128 29t-77 77 q-4 -2 -8 -2l-84 -448q-3 -15 -16 -15h-58q-14 0 -14 13z" />
<glyph unicode="&#xb6;" horiz-adv-x="825" d="M180 952q6 156 106.5 249t245.5 93h187q12 0 12 -14l-119 -604q-3 -12 -16 -12h-158q-128 0 -195.5 79.5t-62.5 208.5zM276 -195l5 41q0 5 4 10t10 5q49 3 88 12t66 21t48 32.5t33.5 38.5t23 48t15.5 52t11 58l227 1157q0 14 14 14h43q13 0 13 -14l-224 -1153 q-14 -69 -27 -112.5t-39 -88t-62.5 -69.5t-94.5 -42.5t-139 -21.5q-15 0 -15 12z" />
<glyph unicode="&#xb7;" horiz-adv-x="337" d="M98 479q0 28 21 49t49 21q30 0 51 -21t21 -49q0 -30 -20 -50.5t-52 -20.5q-28 0 -49 21t-21 50z" />
<glyph unicode="&#xb8;" horiz-adv-x="761" d="M147 -342l19 29q7 10 18 2q16 -13 48 -23t61 -10q61 0 94 27t33 75q0 32 -22 52t-70 20h-62q-35 0 -35 25q0 1 5 16l63 133q9 19 18 19h35q12 0 4 -17l-57 -121h43q65 0 103 -30.5t38 -85.5q0 -76 -51.5 -121t-140.5 -45q-82 0 -135 37q-15 10 -9 18z" />
<glyph unicode="&#xb9;" horiz-adv-x="468" d="M197 1286l10 51q4 18 18 23l160 80q18 8 31 8h20q14 0 10 -12l-145 -742q-3 -18 -25 -18h-32q-18 0 -15 16l131 664h-4l-145 -76q-14 -7 -14 6z" />
<glyph unicode="&#xba;" horiz-adv-x="587" d="M121 711l24 143q40 225 263 225q113 0 166 -64.5t34 -164.5l-30 -154q-19 -101 -85 -156t-169 -55q-112 0 -167 62t-36 164zM188 696q-11 -67 26.5 -108t111.5 -41q73 0 120 39.5t62 115.5l27 150q14 73 -20.5 117.5t-115.5 44.5q-148 0 -180 -162z" />
<glyph unicode="&#xbb;" horiz-adv-x="915" d="M43.5 44.5q-2.5 5.5 7.5 16.5l344 355l-205 321q-6 9 -1 16t14 7h51q13 0 19 -3.5t14 -15.5l196 -313q13 -23 -8 -47l-321 -326q-16 -16 -39 -16h-58q-11 0 -13.5 5.5zM342.5 44.5q-2.5 5.5 7.5 16.5l344 355l-205 321q-6 9 -1 16t14 7h51q13 0 19 -3.5t14 -15.5 l196 -313q13 -23 -8 -47l-321 -326q-16 -16 -39 -16h-58q-11 0 -13.5 5.5z" />
<glyph unicode="&#xbc;" horiz-adv-x="1320" d="M121 -57.5q-2 3.5 2 8.5l835 1364q6 10 19 10h33q18 0 10 -14l-834 -1360q-6 -12 -20 -12h-37q-6 0 -8 3.5zM158 1102l10 51q4 18 18 23l160 79q20 9 31 9h20q15 0 11 -13l-146 -741q-3 -18 -24 -18h-33q-18 0 -15 16l132 663h-5l-145 -75q-14 -7 -14 6zM571 201l4 22 q5 18 15 33l399 510q8 8 19 8h47q10 0 10 -8l-4 -6l-399 -512h268l51 254q0 14 14 14h43q11 0 11 -14l-52 -254h115q10 0 10 -8l-8 -43q-4 -9 -8 -9h-119l-35 -176q-3 -12 -14 -12h-43q-13 0 -10 12l35 176h-332q-9 0 -13.5 3.5t-3.5 9.5z" />
<glyph unicode="&#xbd;" horiz-adv-x="1320" d="M72 -57.5q-2 3.5 2 8.5l835 1364q6 10 19 10h33q18 0 10 -14l-834 -1360q-6 -12 -20 -12h-37q-6 0 -8 3.5zM145 1102l11 51q4 18 18 23l160 79q20 9 31 9h20q14 0 10 -13l-145 -741q-3 -18 -25 -18h-32q-18 0 -15 16l131 663h-4l-145 -75q-15 -8 -15 6zM608 18l4 25 q2 14 17 29l377 374q104 102 104 172q0 46 -33 73.5t-92 27.5q-38 0 -84.5 -19t-77.5 -41q-29 -21 -35 -8l-24 31q-6 9 8 23q97 77 223 77q80 0 134.5 -40.5t54.5 -114.5q0 -95 -137 -232l-340 -332h356q17 0 14 -16l-6 -29q-3 -16 -18 -16h-426q-12 0 -16.5 4t-2.5 12z" />
<glyph unicode="&#xbe;" horiz-adv-x="1320" d="M20 565q-8 11 7 23l24 24q9 8 19 -2q32 -33 61 -48t74 -15q106 0 154.5 60.5t48.5 154.5q0 53 -29.5 87t-87.5 34h-86q-7 0 -9.5 0.5t-4 2.5t-1.5 7l7 37q0 14 20 14h90q66 0 115 44.5t49 111.5q0 49 -34.5 78.5t-90.5 29.5q-42 0 -83 -16t-68 -43q-17 -17 -27 -6l-29 26 q-7 7 6 21q89 78 203 78q85 0 139 -44t54 -116q0 -68 -38.5 -124t-96.5 -73v-4q71 -36 71 -137q0 -130 -71.5 -208.5t-200.5 -78.5q-117 0 -185 82zM193 -57.5q-2 3.5 2 8.5l835 1364q6 10 19 10h32q19 0 11 -14l-834 -1360q-6 -12 -20 -12h-37q-6 0 -8 3.5zM625 201l4 22 q6 21 14 33l399 510q8 8 19 8h47q10 0 10 -8l-4 -6l-399 -512h268l51 254q0 14 15 14h43q10 0 10 -14l-51 -254h114q11 0 11 -8l-9 -43q-5 -9 -8 -9h-119l-34 -176q-3 -12 -15 -12h-43q-13 0 -10 12l35 176h-332q-9 0 -13.5 3.5t-2.5 9.5z" />
<glyph unicode="&#xbf;" horiz-adv-x="765" d="M-31 -166q0 226 277 383q110 63 166 123t73 143l19 95q0 16 14 16h57q15 0 15 -12v-4l-21 -107q-15 -79 -67 -150.5t-135 -121.5q-9 -5 -40.5 -23.5t-43.5 -25.5t-41 -25.5t-41.5 -29t-36.5 -30.5t-35.5 -35.5t-27.5 -38t-23.5 -44t-13 -48.5t-5.5 -55q0 -68 52 -121 t147 -53q137 0 244 107q17 17 30 6l35 -31q13 -9 -2 -24q-68 -70 -143 -100.5t-172 -30.5q-115 0 -198 63t-83 174zM522 805q0 34 26.5 58t61.5 24q26 0 43 -15t17 -38q0 -32 -27 -58t-59 -26q-28 0 -45 15t-17 40z" />
<glyph unicode="&#xc0;" horiz-adv-x="903" d="M-53 16l598 1231q9 17 20 17h94q16 0 19 -15l121 -1229q3 -6 -0.5 -13t-12.5 -7h-55q-7 0 -10 0.5t-5 3t-3 8.5l-33 307h-492l-147 -307q-6 -12 -21 -12h-61q-21 0 -12 16zM225 395h453q-10 97 -26 278t-21 232l-27 277h-4q-100 -210 -133 -281zM324 1511l32 45 q13 18 33 5l260 -185q11 -8 13 -12t-3 -14l-12 -19q-8 -13 -26 -2l-287 152q-22 11 -10 30z" />
<glyph unicode="&#xc1;" horiz-adv-x="903" d="M-53 16l598 1231q9 17 20 17h94q16 0 19 -15l121 -1229q3 -6 -0.5 -13t-12.5 -7h-55q-7 0 -10 0.5t-5 3t-3 8.5l-33 307h-492l-147 -307q-6 -12 -21 -12h-61q-21 0 -12 16zM225 395h453q-10 97 -26 278t-21 232l-27 277h-4q-100 -210 -133 -281zM577 1362q2 4 13 12 l260 185q20 13 33 -5l32 -45q13 -19 -10 -30l-287 -152q-18 -11 -26 2l-12 19q-5 10 -3 14z" />
<glyph unicode="&#xc2;" horiz-adv-x="903" d="M-53 16l598 1231q9 17 20 17h94q16 0 19 -15l121 -1229q3 -6 -0.5 -13t-12.5 -7h-55q-7 0 -10 0.5t-5 3t-3 8.5l-33 307h-492l-147 -307q-6 -12 -21 -12h-61q-21 0 -12 16zM225 395h453q-10 97 -26 278t-21 232l-27 277h-4q-100 -210 -133 -281zM367 1356q-7 10 4 18 l229 185q19 16 45 16h37q26 0 37 -16l141 -187q10 -14 -4 -22l-22 -15q-13 -6 -23 4l-156 152l-243 -154q-17 -12 -27 -2z" />
<glyph unicode="&#xc3;" horiz-adv-x="903" d="M-53 16l598 1231q9 17 20 17h94q16 0 19 -15l121 -1229q3 -6 -0.5 -13t-12.5 -7h-55q-7 0 -10 0.5t-5 3t-3 8.5l-33 307h-492l-147 -307q-6 -12 -21 -12h-61q-21 0 -12 16zM225 395h453q-10 97 -26 278t-21 232l-27 277h-4q-100 -210 -133 -281zM369 1405q-9 7 2 22 q68 89 155 89q42 0 110 -36t99 -36q65 0 111 55q9 12 20 4l33 -16q11 -7 -2 -23q-65 -88 -170 -88q-45 0 -112 36t-103 36q-50 0 -92 -55q-12 -16 -25 -7z" />
<glyph unicode="&#xc4;" horiz-adv-x="903" d="M-53 16l598 1231q9 17 20 17h94q16 0 19 -15l121 -1229q3 -6 -0.5 -13t-12.5 -7h-55q-7 0 -10 0.5t-5 3t-3 8.5l-33 307h-492l-147 -307q-6 -12 -21 -12h-61q-21 0 -12 16zM225 395h453q-10 97 -26 278t-21 232l-27 277h-4q-100 -210 -133 -281zM418 1444q3 27 25 47 t49 20q23 0 36.5 -16t10.5 -39q-3 -27 -25 -47t-47 -20q-22 0 -36 16t-13 39zM733 1444q3 28 24.5 47.5t47.5 19.5q23 0 37 -15.5t12 -39.5q-3 -28 -24.5 -47.5t-47.5 -19.5q-24 0 -37.5 15.5t-11.5 39.5z" />
<glyph unicode="&#xc5;" horiz-adv-x="903" d="M-53 16l598 1231q9 17 20 17h94q16 0 19 -15l121 -1229q3 -6 -0.5 -13t-12.5 -7h-55q-7 0 -10 0.5t-5 3t-3 8.5l-33 307h-492l-147 -307q-6 -12 -21 -12h-61q-21 0 -12 16zM225 395h453q-10 97 -26 278t-21 232l-27 277h-4q-100 -210 -133 -281zM514 1464q0 74 48 124 t116 50q53 0 89 -33.5t36 -86.5q0 -73 -50.5 -120.5t-119.5 -47.5q-51 0 -85 34t-34 80zM569 1477q0 -31 20.5 -52.5t51.5 -21.5q41 0 74 31.5t33 76.5q0 33 -21.5 53.5t-52.5 20.5q-42 0 -73.5 -31.5t-31.5 -76.5z" />
<glyph unicode="&#xc6;" horiz-adv-x="1339" d="M0 8q0 1 0.5 2.5l1.5 4.5t2 5q93 203 279.5 612.5t279.5 612.5q8 19 25 19h745q15 0 15 -17l-7 -47q-3 -14 -16 -14h-522l-51 -494h469q16 0 12 -16l-2 -49q-3 -15 -17 -15h-469l-53 -534h606q16 0 13 -15l-4 -47q0 -16 -17 -16h-682q-16 0 -16 14l33 312h-389l-142 -312 q-6 -14 -18 -14h-64q-12 0 -12 8zM272 403h363l86 783h-103q-69 -154 -200.5 -453t-145.5 -330z" />
<glyph unicode="&#xc7;" horiz-adv-x="851" d="M100 338l121 606q14 72 42.5 131.5t74 106t113 72.5t151.5 26q91 0 170 -33.5t129 -101.5q7 -12 -8 -27l-31 -24q-8 -7 -13.5 -6t-14.5 12q-39 45 -100.5 72.5t-129.5 27.5q-123 0 -198.5 -71.5t-98.5 -186.5l-121 -616q-21 -111 42 -187t194 -76q150 0 260 107 q16 16 29 6l39 -35q12 -12 -5 -26q-129 -129 -321 -129q-23 0 -33 2l-47 -103h43q65 0 103 -30.5t38 -85.5q0 -76 -51.5 -121t-140.5 -45q-82 0 -135 37q-14 10 -8 18l18 29q7 10 18 2q16 -13 48 -23t61 -10q61 0 94 27t33 75q0 32 -22 52t-70 20h-62q-35 0 -35 25q0 1 5 16 l57 123q-135 23 -199 116.5t-39 227.5z" />
<glyph unicode="&#xc8;" horiz-adv-x="880" d="M49 16l240 1231q4 17 16 17h619q15 0 12 -17l-10 -47q-3 -14 -17 -14h-544l-99 -494h492q16 0 12 -16l-8 -49q-3 -15 -17 -15h-491l-104 -534h606q15 0 12 -15l-8 -47q-3 -16 -19 -16h-680q-15 0 -12 16zM354 1511l33 45q13 18 33 5l260 -185q11 -8 13 -12t-3 -14 l-12 -19q-8 -13 -27 -2l-286 152q-23 12 -11 30z" />
<glyph unicode="&#xc9;" horiz-adv-x="880" d="M49 16l240 1231q4 17 16 17h619q15 0 12 -17l-10 -47q-3 -14 -17 -14h-544l-99 -494h492q16 0 12 -16l-8 -49q-3 -15 -17 -15h-491l-104 -534h606q15 0 12 -15l-8 -47q-3 -16 -19 -16h-680q-15 0 -12 16zM519 1357q2 5 13 13l261 184q20 13 32 -4l33 -45q12 -19 -10 -30 l-287 -152q-18 -11 -26 2l-13 18q-5 9 -3 14z" />
<glyph unicode="&#xca;" horiz-adv-x="880" d="M49 16l240 1231q4 17 16 17h619q15 0 12 -17l-10 -47q-3 -14 -17 -14h-544l-99 -494h492q16 0 12 -16l-8 -49q-3 -15 -17 -15h-491l-104 -534h606q15 0 12 -15l-8 -47q-3 -16 -19 -16h-680q-15 0 -12 16zM354 1341q-8 10 4 19l230 184q20 17 45 17h37q26 0 37 -17 l141 -186q11 -14 -4 -23l-23 -14q-12 -6 -22 4l-156 152l-244 -154q-17 -11 -26 -2z" />
<glyph unicode="&#xcb;" horiz-adv-x="880" d="M49 16l240 1231q4 17 16 17h619q15 0 12 -17l-10 -47q-3 -14 -17 -14h-544l-99 -494h492q16 0 12 -16l-8 -49q-3 -15 -17 -15h-491l-104 -534h606q15 0 12 -15l-8 -47q-3 -16 -19 -16h-680q-15 0 -12 16zM432 1436q3 27 25 47t49 20q23 0 36.5 -16t10.5 -39 q-3 -27 -25 -47.5t-47 -20.5q-22 0 -36 16.5t-13 39.5zM748 1436q3 28 24 47.5t47 19.5q23 0 37 -15.5t12 -39.5q-3 -28 -24 -48t-47 -20q-24 0 -37.5 16t-11.5 40z" />
<glyph unicode="&#xcc;" horiz-adv-x="405" d="M73.5 1510.5q-3.5 8.5 2.5 17.5l33 45q12 17 32 4l260 -184q20 -14 11 -27l-13 -18q-8 -13 -26 -2l-287 151q-9 5 -12.5 13.5zM80 14l239 1235q3 15 19 15h57q8 0 12 -4.5t1 -10.5l-240 -1235q0 -14 -16 -14h-60q-18 0 -12 14z" />
<glyph unicode="&#xcd;" horiz-adv-x="405" d="M80 14l239 1235q3 15 19 15h57q8 0 12 -4.5t1 -10.5l-240 -1235q0 -14 -16 -14h-60q-18 0 -12 14zM345 1378q2 5 13 13l260 184q20 14 33 -4l33 -45q6 -9 2.5 -17.5t-12.5 -13.5l-287 -152q-19 -11 -27 3l-12 18q-5 9 -3 14z" />
<glyph unicode="&#xce;" horiz-adv-x="405" d="M80 14l239 1235q3 15 19 15h57q8 0 12 -4.5t1 -10.5l-240 -1235q0 -14 -16 -14h-60q-18 0 -12 14zM129 1346q-7 10 4 18l229 184q20 17 46 17h36q26 0 37 -17l142 -186q10 -14 -5 -23l-22 -14q-13 -6 -23 4l-155 152l-244 -154q-17 -12 -27 -2z" />
<glyph unicode="&#xcf;" horiz-adv-x="405" d="M80 14l239 1235q3 15 19 15h57q8 0 12 -4.5t1 -10.5l-240 -1235q0 -14 -16 -14h-60q-18 0 -12 14zM184 1436q3 27 25 47t49 20q23 0 36.5 -16t10.5 -39q-3 -27 -25 -47.5t-47 -20.5q-22 0 -36 16.5t-13 39.5zM500 1436q3 28 24 47.5t47 19.5q23 0 37.5 -16t12.5 -39 q-3 -28 -24.5 -48t-47.5 -20q-24 0 -37.5 16t-11.5 40z" />
<glyph unicode="&#xd0;" horiz-adv-x="964" d="M49 16l119 615h-94q-16 0 -13 14l7 35q4 14 16 14h96l109 553q4 17 16 17h369q169 1 237 -96.5t37 -262.5l-104 -563q-33 -171 -128.5 -256.5t-262.5 -85.5h-392q-15 0 -12 16zM150 78h303q118 0 197 65.5t102 190.5l108 567q13 55 8 106.5t-23 91t-65 63.5t-118 24h-297 l-97 -492h262q14 0 11 -14l-6 -35q-3 -14 -15 -14h-264z" />
<glyph unicode="&#xd1;" horiz-adv-x="1021" d="M37 14l237 1223q4 27 29 27h45q21 0 29 -19l383 -1083h4l209 1085q4 17 18 17h56q15 0 12 -17l-238 -1224q-6 -23 -26 -23h-47q-22 0 -27 16q-74 203 -211.5 591.5t-171.5 484.5h-4l-209 -1078q-3 -14 -19 -14h-57q-15 0 -12 14zM440 1391q-9 7 2 22q67 88 156 88 q42 0 110 -35.5t99 -35.5q65 0 111 55q9 12 20 4l33 -16q11 -7 -2 -23q-65 -88 -170 -88q-45 0 -112 36t-103 36q-50 0 -92 -56q-12 -16 -25 -6z" />
<glyph unicode="&#xd2;" horiz-adv-x="970" d="M106 360l109 578q31 153 135.5 246.5t267.5 93.5q172 0 265.5 -100.5t62.5 -255.5l-112 -594q-64 -342 -406 -342q-122 0 -203 53t-110 137t-9 184zM187.5 273q0.5 -43 17.5 -81t44.5 -67t75 -45.5t109.5 -16.5q136 0 213.5 73t100.5 196l110 594q14 73 -7 133.5 t-82.5 99.5t-156.5 39q-128 0 -207.5 -74.5t-101.5 -189.5l-110 -572q-6 -46 -5.5 -89zM411.5 1518.5q-3.5 8.5 2.5 17.5l32 45q13 18 33 4l260 -184q20 -14 11 -27l-13 -18q-8 -13 -26 -2l-287 151q-9 5 -12.5 13.5z" />
<glyph unicode="&#xd3;" horiz-adv-x="970" d="M106 360l109 578q31 153 135.5 246.5t267.5 93.5q172 0 265.5 -100.5t62.5 -255.5l-112 -594q-64 -342 -406 -342q-122 0 -203 53t-110 137t-9 184zM187.5 273q0.5 -43 17.5 -81t44.5 -67t75 -45.5t109.5 -16.5q136 0 213.5 73t100.5 196l110 594q14 73 -7 133.5 t-82.5 99.5t-156.5 39q-128 0 -207.5 -74.5t-101.5 -189.5l-110 -572q-6 -46 -5.5 -89zM626 1388q2 5 13 13l260 184q20 14 33 -4l33 -45q5 -9 2 -17.5t-13 -13.5l-286 -151q-19 -11 -27 2l-12 18q-5 9 -3 14z" />
<glyph unicode="&#xd4;" horiz-adv-x="970" d="M106 360l109 578q31 153 135.5 246.5t267.5 93.5q172 0 265.5 -100.5t62.5 -255.5l-112 -594q-64 -342 -406 -342q-122 0 -203 53t-110 137t-9 184zM187.5 273q0.5 -43 17.5 -81t44.5 -67t75 -45.5t109.5 -16.5q136 0 213.5 73t100.5 196l110 594q14 73 -7 133.5 t-82.5 99.5t-156.5 39q-128 0 -207.5 -74.5t-101.5 -189.5l-110 -572q-6 -46 -5.5 -89zM440 1358q-7 10 4 18l230 185q19 16 45 16h37q26 0 37 -16l141 -187q10 -14 -4 -22l-23 -15q-12 -6 -22 4l-156 152l-244 -154q-17 -11 -26 -2z" />
<glyph unicode="&#xd5;" horiz-adv-x="970" d="M106 360l109 578q31 153 135.5 246.5t267.5 93.5q172 0 265.5 -100.5t62.5 -255.5l-112 -594q-64 -342 -406 -342q-122 0 -203 53t-110 137t-9 184zM187.5 273q0.5 -43 17.5 -81t44.5 -67t75 -45.5t109.5 -16.5q136 0 213.5 73t100.5 196l110 594q14 73 -7 133.5 t-82.5 99.5t-156.5 39q-128 0 -207.5 -74.5t-101.5 -189.5l-110 -572q-6 -46 -5.5 -89zM440 1419q-10 7 2 23q67 88 156 88q42 0 110 -36t99 -36q65 0 111 55q10 13 20 5l33 -17q10 -7 -2 -22q-65 -88 -170 -88q-45 0 -112 35.5t-103 35.5q-50 0 -92 -55q-12 -16 -25 -6z " />
<glyph unicode="&#xd6;" horiz-adv-x="970" d="M106 360l109 578q31 153 135.5 246.5t267.5 93.5q172 0 265.5 -100.5t62.5 -255.5l-112 -594q-64 -342 -406 -342q-122 0 -203 53t-110 137t-9 184zM187.5 273q0.5 -43 17.5 -81t44.5 -67t75 -45.5t109.5 -16.5q136 0 213.5 73t100.5 196l110 594q14 73 -7 133.5 t-82.5 99.5t-156.5 39q-128 0 -207.5 -74.5t-101.5 -189.5l-110 -572q-6 -46 -5.5 -89zM459 1438q3 28 25 47.5t48 19.5q23 0 37 -16t11 -39q-3 -27 -25 -47.5t-47 -20.5q-22 0 -36 16.5t-13 39.5zM774 1438q3 28 24.5 47.5t47.5 19.5q23 0 37 -15.5t12 -39.5 q-3 -28 -24.5 -48t-47.5 -20q-24 0 -37.5 16t-11.5 40z" />
<glyph unicode="&#xd7;" horiz-adv-x="911" d="M133 244q0 9 8 14l271 229q-20 24 -87 105.5t-102 126.5q-4 2 -4 10q0 6 6 12l29 25q6 6 12 6q7 0 13 -6l186 -231l274 229q6 6 15 6t12 -6l22 -27q3 -6 3 -10q0 -8 -9 -14l-274 -230l186 -233q4 -2 4 -10q0 -7 -6 -13l-26 -24q-6 -6 -15 -6q-7 0 -10 6q-31 38 -94 115.5 t-94 115.5l-269 -227q-6 -6 -14 -6q-7 0 -10 6l-23 26q-4 8 -4 11z" />
<glyph unicode="&#xd8;" horiz-adv-x="970" d="M61 23l76 108q-56 96 -31 229l109 578q31 153 135.5 246.5t267.5 93.5q164 0 256 -92l64 90q8 12 16 6l39 -25q9 -5 0 -18l-75 -109q49 -85 28 -208l-112 -594q-64 -342 -406 -342q-162 0 -250 88l-57 -82q-9 -14 -21 -8l-37 22q-10 7 -2 17zM193 362q-16 -82 4 -147 l624 895q-65 88 -209 88q-128 0 -207.5 -74.5t-101.5 -189.5zM229 147q64 -84 205 -84q136 0 213.5 73t100.5 196l110 594q10 65 -4 114z" />
<glyph unicode="&#xd9;" horiz-adv-x="983" d="M106 362l173 887q3 15 18 15h57q7 0 11 -4.5t2 -10.5l-174 -895q-15 -77 2 -141t78 -107t161 -43q135 0 213.5 74t102.5 193q35 178 107.5 548t72.5 371q3 15 18 15h58q16 0 12 -15l-180 -923q-31 -157 -132.5 -248.5t-277.5 -91.5q-179 0 -266.5 108.5t-55.5 267.5z M386.5 1502.5q-3.5 8.5 2.5 17.5l33 45q13 18 33 4l260 -185q11 -8 13 -12t-3 -14l-12 -19q-8 -13 -27 -2l-287 152q-9 5 -12.5 13.5z" />
<glyph unicode="&#xda;" horiz-adv-x="983" d="M106 362l173 887q3 15 18 15h57q7 0 11 -4.5t2 -10.5l-174 -895q-15 -77 2 -141t78 -107t161 -43q135 0 213.5 74t102.5 193q35 178 107.5 548t72.5 371q3 15 18 15h58q16 0 12 -15l-180 -923q-31 -157 -132.5 -248.5t-277.5 -91.5q-179 0 -266.5 108.5t-55.5 267.5z M568 1374q2 4 14 12l260 185q20 13 32 -4l33 -45q6 -9 2.5 -17.5t-12.5 -13.5l-287 -152q-18 -11 -26 2l-13 19q-5 10 -3 14z" />
<glyph unicode="&#xdb;" horiz-adv-x="983" d="M106 362l173 887q3 15 18 15h57q7 0 11 -4.5t2 -10.5l-174 -895q-15 -77 2 -141t78 -107t161 -43q135 0 213.5 74t102.5 193q35 178 107.5 548t72.5 371q3 15 18 15h58q16 0 12 -15l-180 -923q-31 -157 -132.5 -248.5t-277.5 -91.5q-179 0 -266.5 108.5t-55.5 267.5z M420 1370q-8 10 4 19l229 184q19 16 45 16h37q26 0 37 -16l141 -187q10 -14 -4 -22l-22 -14q-13 -6 -23 4l-155 151l-244 -153q-17 -12 -27 -2z" />
<glyph unicode="&#xdc;" horiz-adv-x="983" d="M106 362l173 887q3 15 18 15h57q7 0 11 -4.5t2 -10.5l-174 -895q-15 -77 2 -141t78 -107t161 -43q135 0 213.5 74t102.5 193q35 178 107.5 548t72.5 371q3 15 18 15h58q16 0 12 -15l-180 -923q-31 -157 -132.5 -248.5t-277.5 -91.5q-179 0 -266.5 108.5t-55.5 267.5z M459 1436q3 28 25 47.5t48 19.5q23 0 37 -16t11 -39q-3 -27 -25 -47.5t-47 -20.5q-22 0 -36 16.5t-13 39.5zM774 1436q3 28 24.5 47.5t47.5 19.5q23 0 37 -15.5t12 -39.5q-3 -28 -24.5 -48t-47.5 -20q-24 0 -37.5 16t-11.5 40z" />
<glyph unicode="&#xdd;" horiz-adv-x="815" d="M178 1243q-5 21 17 21h51q15 0 22 -17l160 -653h6q14 23 204 321t210 332q20 16 29 17h63q11 0 13 -6t-7 -17l-471 -725q-14 -24 -18 -49l-88 -453q-3 -14 -17 -14h-57q-17 0 -14 14l86 443q6 32 2 51zM480 1370q2 4 14 12l260 185q20 13 32 -4l33 -45q6 -9 2.5 -17.5 t-12.5 -13.5l-287 -152q-18 -11 -26 2l-13 19q-5 10 -3 14z" />
<glyph unicode="&#xde;" horiz-adv-x="878" d="M51 12q74 372 242 1237q4 15 16 15h58q14 0 14 -13v-2l-57 -282h223q166 0 257 -67.5t91 -207.5q0 -172 -111 -284.5t-288 -112.5h-301l-56 -281q0 -14 -16 -14h-57q-15 0 -15 12zM209 373h293q131 0 218 91t87 224q0 86 -60 143.5t-149 57.5h-289z" />
<glyph unicode="&#xdf;" horiz-adv-x="913" d="M59 12l187 957q26 134 121 222.5t243 88.5q130 0 207.5 -66.5t77.5 -179.5q0 -95 -54 -175.5t-143 -117.5l-2 -4q74 -31 104 -103t15 -153l-37 -190q-27 -135 -108 -223t-213 -88h-152q-7 0 -10 0.5t-5.5 3.5t-0.5 10l8 39q1 8 4.5 12t5.5 4h10h113q112 0 177 67t87 181 l37 180q21 106 -33.5 170t-140.5 64h-22q-14 0 -11 14l8 43q3 12 17 12h22q97 0 166.5 71.5t69.5 166.5q0 82 -50 134t-147 52q-110 0 -184.5 -66t-97.5 -182l-185 -942q0 -14 -16 -14h-55q-6 0 -10 3t-3 9z" />
<glyph unicode="&#xe0;" horiz-adv-x="847" d="M66 242q0 150 97 249t251 99q77 0 139 -32.5t98 -88.5h4l23 127q11 48 5.5 91t-25.5 75t-67.5 50.5t-119.5 18.5q-47 0 -114.5 -13.5t-112.5 -33.5q-14 -6 -19 7l-16 43q-5 12 12 20q119 51 256 51q167 0 239.5 -82t43.5 -235l-109 -574q-3 -14 -18 -14h-55q-11 0 -11 12 q4 20 8.5 44.5t6.5 34.5t2 11h-4q-97 -112 -256 -112q-120 0 -189 69t-69 183zM147 250q0 -86 48 -137.5t141 -51.5q118 0 198 81.5t80 193.5q0 80 -54 133t-144 53q-119 0 -194 -79.5t-75 -192.5zM340 1257q-19 22 6 33l47 25q23 13 35 -12l164 -273q9 -18 -4 -24l-23 -13 q-12 -6 -26 13z" />
<glyph unicode="&#xe1;" horiz-adv-x="847" d="M66 242q0 150 97 249t251 99q77 0 139 -32.5t98 -88.5h4l23 127q11 48 5.5 91t-25.5 75t-67.5 50.5t-119.5 18.5q-47 0 -114.5 -13.5t-112.5 -33.5q-14 -6 -19 7l-16 43q-5 12 12 20q119 51 256 51q167 0 239.5 -82t43.5 -235l-109 -574q-3 -14 -18 -14h-55q-11 0 -11 12 q4 20 8.5 44.5t6.5 34.5t2 11h-4q-97 -112 -256 -112q-120 0 -189 69t-69 183zM147 250q0 -86 48 -137.5t141 -51.5q118 0 198 81.5t80 193.5q0 80 -54 133t-144 53q-119 0 -194 -79.5t-75 -192.5zM471 1018q-13 8 0 26l186 256q18 21 39 7l41 -27q20 -14 4 -33l-227 -239 q-16 -12 -29 -2z" />
<glyph unicode="&#xe2;" horiz-adv-x="847" d="M66 242q0 150 97 249t251 99q77 0 139 -32.5t98 -88.5h4l23 127q11 48 5.5 91t-25.5 75t-67.5 50.5t-119.5 18.5q-47 0 -114.5 -13.5t-112.5 -33.5q-14 -6 -19 7l-16 43q-5 12 12 20q119 51 256 51q167 0 239.5 -82t43.5 -235l-109 -574q-3 -14 -18 -14h-55q-11 0 -11 12 q4 20 8.5 44.5t6.5 34.5t2 11h-4q-97 -112 -256 -112q-120 0 -189 69t-69 183zM147 250q0 -86 48 -137.5t141 -51.5q118 0 198 81.5t80 193.5q0 80 -54 133t-144 53q-119 0 -194 -79.5t-75 -192.5zM281 1030q-9 12 4 25l239 239q17 17 35 17h51q15 0 29 -17l141 -239 q10 -16 -6 -27l-14 -10q-13 -10 -25 2l-160 207l-253 -207q-19 -12 -27 -4z" />
<glyph unicode="&#xe3;" horiz-adv-x="847" d="M66 242q0 150 97 249t251 99q77 0 139 -32.5t98 -88.5h4l23 127q11 48 5.5 91t-25.5 75t-67.5 50.5t-119.5 18.5q-47 0 -114.5 -13.5t-112.5 -33.5q-14 -6 -19 7l-16 43q-5 12 12 20q119 51 256 51q167 0 239.5 -82t43.5 -235l-109 -574q-3 -14 -18 -14h-55q-11 0 -11 12 q4 20 8.5 44.5t6.5 34.5t2 11h-4q-97 -112 -256 -112q-120 0 -189 69t-69 183zM147 250q0 -86 48 -137.5t141 -51.5q118 0 198 81.5t80 193.5q0 80 -54 133t-144 53q-119 0 -194 -79.5t-75 -192.5zM303 1104q-9 7 2 22q67 88 156 88q42 0 110 -35.5t99 -35.5q64 0 110 55 q9 13 21 4l33 -16q10 -7 -3 -23q-65 -88 -169 -88q-44 0 -112 36t-104 36q-50 0 -92 -55q-12 -16 -24 -7z" />
<glyph unicode="&#xe4;" horiz-adv-x="847" d="M66 242q0 150 97 249t251 99q77 0 139 -32.5t98 -88.5h4l23 127q11 48 5.5 91t-25.5 75t-67.5 50.5t-119.5 18.5q-47 0 -114.5 -13.5t-112.5 -33.5q-14 -6 -19 7l-16 43q-5 12 12 20q119 51 256 51q167 0 239.5 -82t43.5 -235l-109 -574q-3 -14 -18 -14h-55q-11 0 -11 12 q4 20 8.5 44.5t6.5 34.5t2 11h-4q-97 -112 -256 -112q-120 0 -189 69t-69 183zM147 250q0 -86 48 -137.5t141 -51.5q118 0 198 81.5t80 193.5q0 80 -54 133t-144 53q-119 0 -194 -79.5t-75 -192.5zM334 1149q4 26 25.5 43.5t46.5 17.5q24 0 37.5 -17.5t9.5 -43.5t-25 -44 t-45 -18q-25 0 -39.5 18.5t-9.5 43.5zM647 1149q6 26 26.5 43.5t45.5 17.5t39 -17.5t10 -43.5q-5 -25 -26 -43.5t-46 -18.5t-39.5 18.5t-9.5 43.5z" />
<glyph unicode="&#xe5;" horiz-adv-x="851" d="M66 242q0 150 97 249t251 99q77 0 139 -32.5t98 -88.5h4l23 127q11 48 5.5 91t-25.5 75t-67.5 50.5t-119.5 18.5q-47 0 -114.5 -13.5t-112.5 -33.5q-14 -6 -19 7l-16 43q-5 12 12 20q119 51 256 51q167 0 239.5 -82t43.5 -235l-109 -574q-3 -14 -18 -14h-55q-11 0 -11 12 q4 20 8.5 44.5t6.5 34.5t2 11h-4q-97 -112 -256 -112q-120 0 -189 69t-69 183zM147 250q0 -86 48 -137.5t141 -51.5q118 0 198 81.5t80 193.5q0 80 -54 133t-144 53q-119 0 -194 -79.5t-75 -192.5zM434 1128q0 74 48 124.5t116 50.5q53 0 89 -34t36 -87q0 -73 -50.5 -120.5 t-119.5 -47.5q-51 0 -85 34t-34 80zM489 1141q0 -31 20.5 -52.5t51.5 -21.5q41 0 74 32t33 77q0 33 -21 53t-53 20q-42 0 -73.5 -31.5t-31.5 -76.5z" />
<glyph unicode="&#xe6;" horiz-adv-x="1400" d="M88 231q0 138 77 231t208 93q79 0 148 -19.5t153 -54.5l24 123q18 107 -40.5 167t-163.5 60q-113 0 -197 -34q-15 -9 -26 -6.5t-15 22.5l-6 27q-4 15 14 26q98 39 250 39q207 0 250 -157h6q105 153 338 153q110 0 181 -60t71 -161q0 -80 -40.5 -141t-109.5 -95.5 t-150.5 -51.5t-174.5 -17q-68 0 -142 8q-24 -105 -24 -158q6 -76 62 -116.5t153 -40.5q121 0 223 102q19 16 29 6l35 -37q13 -10 -7 -30q-75 -69 -139.5 -94t-156.5 -25q-109 0 -179 42.5t-90 121.5h-4q-113 -164 -305 -164q-114 0 -183 65t-69 176zM170 242 q0 -80 48.5 -132.5t131.5 -52.5q127 0 205.5 98t103.5 251q-189 75 -280 75q-94 0 -151.5 -66t-57.5 -173zM756 457q102 -11 129 -11q162 0 275.5 57t113.5 161q0 67 -44.5 115t-137.5 48q-40 0 -75.5 -7t-62 -17t-50 -29t-39.5 -35t-31.5 -43.5t-23.5 -45t-18 -50 t-14 -48.5t-11.5 -50t-10.5 -45z" />
<glyph unicode="&#xe7;" horiz-adv-x="759" d="M72 313l49 262q30 152 126.5 239t252.5 87q89 0 159 -34t103 -95q8 -13 -6 -27l-39 -26q-16 -13 -25 4q-27 49 -83 76.5t-120 27.5q-105 0 -182.5 -69t-99.5 -180l-53 -265q-21 -117 29.5 -184.5t174.5 -67.5q130 0 232 107q11 14 24 4l35 -27q16 -11 2 -28 q-115 -127 -303 -127l-49 -105h43q65 0 103 -30.5t38 -85.5q0 -76 -51.5 -121t-140.5 -45q-82 0 -135 37q-15 10 -9 18l19 29q7 10 18 2q16 -13 48 -23t61 -10q61 0 94 27t33 75q0 32 -22 52t-70 20h-62q-35 0 -35 25q0 1 5 16l57 123q-129 14 -189 100t-32 219z" />
<glyph unicode="&#xe8;" horiz-adv-x="829" d="M68 238q0 38 8.5 89.5t24 120.5t20.5 99q66 354 418 354q115 0 186.5 -59.5t71.5 -161.5q0 -55 -17.5 -99.5t-46.5 -76t-76 -54.5t-96.5 -37t-117 -22.5t-129 -12.5t-140.5 -5q-2 -11 -12 -61t-10 -72q0 -85 58 -132t169 -47q61 0 125 26.5t104 68.5q18 18 29 6l29 -27 q6 -6 6 -12q0 -10 -25 -35q-44 -43 -121.5 -70.5t-163.5 -27.5q-145 0 -219.5 66t-74.5 182zM186 446q73 1 132.5 4.5t122 12t109 24.5t84.5 39t57.5 58t19.5 80q0 68 -45 115.5t-144 47.5q-75 0 -132 -24t-88.5 -54t-56 -87t-33 -90t-20.5 -96zM348 1257q-19 22 6 33l47 25 q23 13 35 -12l164 -273q9 -18 -4 -24l-23 -13q-12 -6 -26 13z" />
<glyph unicode="&#xe9;" horiz-adv-x="829" d="M68 238q0 38 8.5 89.5t24 120.5t20.5 99q66 354 418 354q115 0 186.5 -59.5t71.5 -161.5q0 -55 -17.5 -99.5t-46.5 -76t-76 -54.5t-96.5 -37t-117 -22.5t-129 -12.5t-140.5 -5q-2 -11 -12 -61t-10 -72q0 -85 58 -132t169 -47q61 0 125 26.5t104 68.5q18 18 29 6l29 -27 q6 -6 6 -12q0 -10 -25 -35q-44 -43 -121.5 -70.5t-163.5 -27.5q-145 0 -219.5 66t-74.5 182zM186 446q73 1 132.5 4.5t122 12t109 24.5t84.5 39t57.5 58t19.5 80q0 68 -45 115.5t-144 47.5q-75 0 -132 -24t-88.5 -54t-56 -87t-33 -90t-20.5 -96zM485 1018q-13 8 0 26 l187 256q18 21 39 7l41 -27q20 -14 4 -33l-228 -239q-16 -12 -28 -2z" />
<glyph unicode="&#xea;" horiz-adv-x="829" d="M68 238q0 38 8.5 89.5t24 120.5t20.5 99q66 354 418 354q115 0 186.5 -59.5t71.5 -161.5q0 -55 -17.5 -99.5t-46.5 -76t-76 -54.5t-96.5 -37t-117 -22.5t-129 -12.5t-140.5 -5q-2 -11 -12 -61t-10 -72q0 -85 58 -132t169 -47q61 0 125 26.5t104 68.5q18 18 29 6l29 -27 q6 -6 6 -12q0 -10 -25 -35q-44 -43 -121.5 -70.5t-163.5 -27.5q-145 0 -219.5 66t-74.5 182zM186 446q73 1 132.5 4.5t122 12t109 24.5t84.5 39t57.5 58t19.5 80q0 68 -45 115.5t-144 47.5q-75 0 -132 -24t-88.5 -54t-56 -87t-33 -90t-20.5 -96zM287 1030q-9 12 4 25 l239 239q17 17 35 17h51q15 0 29 -17l141 -239q10 -16 -6 -27l-14 -10q-13 -10 -25 2l-159 207l-254 -207q-19 -12 -27 -4z" />
<glyph unicode="&#xeb;" horiz-adv-x="829" d="M68 238q0 38 8.5 89.5t24 120.5t20.5 99q66 354 418 354q115 0 186.5 -59.5t71.5 -161.5q0 -55 -17.5 -99.5t-46.5 -76t-76 -54.5t-96.5 -37t-117 -22.5t-129 -12.5t-140.5 -5q-2 -11 -12 -61t-10 -72q0 -85 58 -132t169 -47q61 0 125 26.5t104 68.5q18 18 29 6l29 -27 q6 -6 6 -12q0 -10 -25 -35q-44 -43 -121.5 -70.5t-163.5 -27.5q-145 0 -219.5 66t-74.5 182zM186 446q73 1 132.5 4.5t122 12t109 24.5t84.5 39t57.5 58t19.5 80q0 68 -45 115.5t-144 47.5q-75 0 -132 -24t-88.5 -54t-56 -87t-33 -90t-20.5 -96zM358 1149q4 26 25.5 43.5 t46.5 17.5q24 0 37.5 -17.5t9.5 -43.5t-24.5 -44t-44.5 -18q-25 0 -40 18.5t-10 43.5zM672 1149q6 26 26 43.5t45 17.5t39.5 -17.5t10.5 -43.5q-5 -25 -26 -43.5t-46 -18.5t-39.5 18.5t-9.5 43.5z" />
<glyph unicode="&#xec;" horiz-adv-x="352" d="M47 8v4l166 865q6 12 16 12h60q12 0 12 -8v-4q-79 -399 -168 -865q-3 -12 -16 -12h-60q-10 0 -10 8zM76 1257q-19 22 6 33l47 25q23 13 35 -12l164 -273q9 -18 -4 -24l-23 -13q-13 -6 -27 13z" />
<glyph unicode="&#xed;" horiz-adv-x="352" d="M47 8v4l166 865q6 12 16 12h60q12 0 12 -8v-4q-79 -399 -168 -865q-3 -12 -16 -12h-60q-10 0 -10 8zM254 1018q-13 8 0 26l186 256q18 21 39 7l41 -27q20 -14 4 -33l-227 -239q-16 -12 -29 -2z" />
<glyph unicode="&#xee;" horiz-adv-x="352" d="M33 1030q-9 12 4 25l239 239q17 17 35 17h51q15 0 29 -17l141 -239q10 -16 -6 -27l-14 -10q-13 -10 -25 2l-159 207l-254 -207q-19 -12 -27 -4zM47 8v4l166 865q6 12 16 12h60q12 0 12 -8v-4q-79 -399 -168 -865q-3 -12 -16 -12h-60q-10 0 -10 8z" />
<glyph unicode="&#xef;" horiz-adv-x="352" d="M47 8v4l166 865q6 12 16 12h60q12 0 12 -8v-4q-79 -399 -168 -865q-3 -12 -16 -12h-60q-10 0 -10 8zM96 1149q4 26 25.5 43.5t46.5 17.5q24 0 37.5 -17.5t9.5 -43.5t-25 -44t-45 -18q-25 0 -39.5 18.5t-9.5 43.5zM410 1149q6 26 26 43.5t45 17.5t39 -17.5t10 -43.5 q-5 -25 -25.5 -43.5t-45.5 -18.5t-39.5 18.5t-9.5 43.5z" />
<glyph unicode="&#xf0;" horiz-adv-x="862" d="M74 246q0 21 5 56.5t10 64t15 78t13 67.5l10 49q33 146 124.5 227.5t237.5 81.5q83 0 152.5 -37.5t95.5 -97.5h4q31 152 31 219q0 75 -29 138l-129 -105q-9 -9 -18 0l-21 23q-5 10 5 20l133 109q-80 103 -258 106q-8 0 -13 4t-4 11l8 45q3 14 23 14q207 0 309 -129 l113 92q10 10 18 2l23 -27q6 -9 -6 -18l-117 -94q43 -81 43 -187q0 -97 -39 -284q-62 -312 -76 -375q-67 -309 -375 -309q-137 0 -212.5 69t-75.5 187zM158 252q0 -90 56 -140.5t159 -50.5q113 0 187 67.5t97 188.5q6 34 21.5 108.5t23.5 117.5q0 4 3.5 22t3.5 27 q0 90 -63.5 147.5t-162.5 57.5q-113 0 -183 -69t-93 -185q-49 -261 -49 -291z" />
<glyph unicode="&#xf1;" horiz-adv-x="874" d="M29 12l168 865q3 14 16 14h57q14 0 11 -14l-19 -97l6 2q50 54 128 86.5t151 32.5q67 0 118 -18t80.5 -50t47 -74.5t17.5 -91.5t-9 -102l-107 -551q0 -14 -14 -14h-59q-7 0 -10.5 3t-2.5 9l109 555q22 113 -26 186.5t-171 73.5q-108 0 -192.5 -76t-106.5 -184l-106 -553 q0 -14 -17 -14h-57q-15 0 -12 12zM299 1104q-9 7 2 22q67 88 156 88q42 0 110 -35.5t99 -35.5q64 0 110 55q9 13 21 4l32 -16q11 -7 -2 -23q-65 -88 -170 -88q-45 0 -112 36t-103 36q-50 0 -92 -55q-12 -16 -24 -7z" />
<glyph unicode="&#xf2;" horiz-adv-x="862" d="M82 328l45 250q30 148 124.5 235.5t244.5 87.5q152 0 235.5 -96.5t54.5 -245.5l-41 -240q-65 -329 -374 -329q-161 0 -240 94.5t-49 243.5zM164 317q-22 -116 37 -186t174 -70q112 0 185.5 68t98.5 190l41 238q22 112 -34 189.5t-174 80.5q-110 3 -184 -67.5t-97 -184.5z M369 1257q-19 22 6 33l47 25q23 13 35 -12l164 -273q9 -18 -5 -24l-22 -13q-13 -6 -27 13z" />
<glyph unicode="&#xf3;" horiz-adv-x="862" d="M82 328l45 250q30 148 124.5 235.5t244.5 87.5q152 0 235.5 -96.5t54.5 -245.5l-41 -240q-65 -329 -374 -329q-161 0 -240 94.5t-49 243.5zM164 317q-22 -116 37 -186t174 -70q112 0 185.5 68t98.5 190l41 238q22 112 -34 189.5t-174 80.5q-110 3 -184 -67.5t-97 -184.5z M479 1018q-13 8 0 26l187 256q18 21 39 7l40 -27q20 -15 5 -33l-228 -239q-16 -12 -28 -2z" />
<glyph unicode="&#xf4;" horiz-adv-x="862" d="M82 328l45 250q30 148 124.5 235.5t244.5 87.5q152 0 235.5 -96.5t54.5 -245.5l-41 -240q-65 -329 -374 -329q-161 0 -240 94.5t-49 243.5zM164 317q-22 -116 37 -186t174 -70q112 0 185.5 68t98.5 190l41 238q22 112 -34 189.5t-174 80.5q-110 3 -184 -67.5t-97 -184.5z M293 1030q-9 12 4 25l240 239q17 17 34 17h52q14 0 28 -17l142 -239q10 -16 -7 -27l-14 -10q-12 -10 -24 2l-160 207l-254 -207q-19 -12 -27 -4z" />
<glyph unicode="&#xf5;" horiz-adv-x="862" d="M82 328l45 250q30 148 124.5 235.5t244.5 87.5q152 0 235.5 -96.5t54.5 -245.5l-41 -240q-65 -329 -374 -329q-161 0 -240 94.5t-49 243.5zM164 317q-22 -116 37 -186t174 -70q112 0 185.5 68t98.5 190l41 238q22 112 -34 189.5t-174 80.5q-110 3 -184 -67.5t-97 -184.5z M307 1104q-9 7 2 22q67 88 156 88q42 0 110 -35.5t99 -35.5q64 0 110 55q9 13 21 4l33 -16q11 -7 -2 -23q-65 -88 -170 -88q-44 0 -112 36t-103 36q-51 0 -93 -55q-12 -16 -24 -7z" />
<glyph unicode="&#xf6;" horiz-adv-x="862" d="M82 328l45 250q30 148 124.5 235.5t244.5 87.5q152 0 235.5 -96.5t54.5 -245.5l-41 -240q-65 -329 -374 -329q-161 0 -240 94.5t-49 243.5zM164 317q-22 -116 37 -186t174 -70q112 0 185.5 68t98.5 190l41 238q22 112 -34 189.5t-174 80.5q-110 3 -184 -67.5t-97 -184.5z M352 1149q4 26 25.5 43.5t46.5 17.5q24 0 37.5 -17.5t9.5 -43.5t-25 -44t-45 -18q-25 0 -39.5 18.5t-9.5 43.5zM666 1149q6 26 26 43.5t45 17.5t39 -17.5t10 -43.5q-5 -25 -25.5 -43.5t-45.5 -18.5t-39.5 18.5t-9.5 43.5z" />
<glyph unicode="&#xf7;" horiz-adv-x="911" d="M47 496v4q2 6 4 21t4 22q3 10 8 13t17 3h764q18 0 18 -8q0 -4 -2 -8l-6 -41q-5 -17 -25 -17h-763q-19 0 -19 11zM305 152q0 33 27.5 59.5t60.5 26.5q28 0 45 -15.5t17 -40.5q0 -10 -2 -16q-6 -31 -31 -52.5t-57 -21.5q-26 0 -43 17t-17 43zM442 854q0 33 27.5 60.5 t60.5 27.5q28 0 45 -16t17 -41q0 -11 -2 -17q-6 -31 -31 -51t-57 -20q-27 0 -43.5 15.5t-16.5 41.5z" />
<glyph unicode="&#xf8;" horiz-adv-x="847" d="M33 23q-8 6 0 18l71 82q-46 87 -22 205l45 250q30 148 124.5 235.5t244.5 87.5q139 0 225 -86l70 80q9 14 22 4l31 -22q6 -12 -2 -21l-82 -92q48 -85 26 -205l-41 -240q-65 -329 -374 -329q-148 0 -228 80l-57 -66q-8 -12 -20 -6zM164 317q-12 -73 4 -124l494 559 q-56 72 -170 75q-110 3 -184 -67.5t-97 -184.5zM201 133q57 -72 174 -72q112 0 185.5 68t98.5 190l41 238q13 79 -6 133z" />
<glyph unicode="&#xf9;" horiz-adv-x="872" d="M77 224q0 49 9 102l107 551q3 14 16 14h59q11 0 8 -14l-106 -555q-22 -111 26 -183.5t171 -72.5q108 0 192 75.5t105 182.5l106 553q4 14 18 14h58q15 0 12 -14l-168 -863q-3 -14 -16 -14h-58q-13 0 -10 12l21 99l-6 -2q-50 -58 -127.5 -88.5t-153.5 -30.5q-67 0 -118 18 t-80.5 50t-47 74.5t-17.5 91.5zM369 1257q-19 22 6 33l47 25q23 13 35 -12l164 -273q9 -18 -5 -24l-22 -13q-13 -6 -27 13z" />
<glyph unicode="&#xfa;" horiz-adv-x="872" d="M77 224q0 49 9 102l107 551q3 14 16 14h59q11 0 8 -14l-106 -555q-22 -111 26 -183.5t171 -72.5q108 0 192 75.5t105 182.5l106 553q4 14 18 14h58q15 0 12 -14l-168 -863q-3 -14 -16 -14h-58q-13 0 -10 12l21 99l-6 -2q-50 -58 -127.5 -88.5t-153.5 -30.5q-67 0 -118 18 t-80.5 50t-47 74.5t-17.5 91.5zM506 1018q-13 8 0 26l186 256q18 21 39 7l41 -27q20 -14 4 -33l-227 -239q-16 -12 -29 -2z" />
<glyph unicode="&#xfb;" horiz-adv-x="872" d="M77 224q0 49 9 102l107 551q3 14 16 14h59q11 0 8 -14l-106 -555q-22 -111 26 -183.5t171 -72.5q108 0 192 75.5t105 182.5l106 553q4 14 18 14h58q15 0 12 -14l-168 -863q-3 -14 -16 -14h-58q-13 0 -10 12l21 99l-6 -2q-50 -58 -127.5 -88.5t-153.5 -30.5q-67 0 -118 18 t-80.5 50t-47 74.5t-17.5 91.5zM279 1030q-9 12 4 25l239 239q17 17 35 17h51q15 0 29 -17l141 -239q10 -16 -6 -27l-14 -10q-13 -10 -25 2l-160 207l-254 -207q-18 -12 -26 -4z" />
<glyph unicode="&#xfc;" horiz-adv-x="872" d="M77 224q0 49 9 102l107 551q3 14 16 14h59q11 0 8 -14l-106 -555q-22 -111 26 -183.5t171 -72.5q108 0 192 75.5t105 182.5l106 553q4 14 18 14h58q15 0 12 -14l-168 -863q-3 -14 -16 -14h-58q-13 0 -10 12l21 99l-6 -2q-50 -58 -127.5 -88.5t-153.5 -30.5q-67 0 -118 18 t-80.5 50t-47 74.5t-17.5 91.5zM369 1149q4 26 25 43.5t46 17.5q24 0 37.5 -17.5t9.5 -43.5t-24.5 -44t-44.5 -18q-25 0 -39.5 18.5t-9.5 43.5zM682 1149q6 26 26.5 43.5t45.5 17.5t39 -17.5t10 -43.5q-5 -25 -26 -43.5t-46 -18.5t-39.5 18.5t-9.5 43.5z" />
<glyph unicode="&#xfd;" horiz-adv-x="755" d="M78 -346l182 344h-18q-16 0 -20 5t-7 22l-127 843q0 21 16 21h46q21 0 24 -19l119 -798h4l299 559q22 42 32.5 85t11.5 67.5t1 82.5q0 25 23 25h41q16 0 20 -6.5t4 -20.5q0 -89 -11 -143.5t-50 -126.5l-500 -946q-13 -21 -35 -21h-45q-22 0 -10 27zM387 1018q-13 8 0 26 l186 256q18 21 39 7l41 -27q20 -14 4 -33l-227 -239q-16 -12 -29 -2z" />
<glyph unicode="&#xfe;" horiz-adv-x="870" d="M-37 -354q46 244 178 919.5t142 724.5q3 13 16 13h55q11 0 11 -9v-4l-101 -504q1 0 4 -1t4 -1q102 115 269 115q129 0 200.5 -68t71.5 -182q0 -31 -6 -69l-49 -254q-13 -65 -40 -122t-70.5 -106.5t-110.5 -78.5t-150 -29q-80 0 -147.5 33.5t-92.5 85.5h-8l-94 -463 q-3 -13 -16 -13h-54q-12 0 -12 9v4zM170 264q0 -88 58 -144.5t159 -56.5q116 0 189 72.5t96 186.5l51 253q6 35 6 66q0 87 -52.5 136.5t-154.5 49.5q-108 0 -190.5 -70t-104.5 -177q-28 -151 -51 -263q-6 -27 -6 -53z" />
<glyph unicode="&#xff;" horiz-adv-x="755" d="M78 -346l182 344h-18q-16 0 -20 5t-7 22l-127 843q0 21 16 21h46q21 0 24 -19l119 -798h4l299 559q22 42 32.5 85t11.5 67.5t1 82.5q0 25 23 25h41q16 0 20 -6.5t4 -20.5q0 -89 -11 -143.5t-50 -126.5l-500 -946q-13 -21 -35 -21h-45q-22 0 -10 27zM229 1149 q4 26 25.5 43.5t46.5 17.5q24 0 37.5 -17.5t9.5 -43.5t-24.5 -44t-44.5 -18q-25 0 -40 18.5t-10 43.5zM543 1149q6 26 26 43.5t45 17.5t39.5 -17.5t10.5 -43.5q-5 -25 -26 -43.5t-46 -18.5t-39.5 18.5t-9.5 43.5z" />
<glyph unicode="&#x100;" horiz-adv-x="903" d="M-53 16l598 1231q9 17 20 17h94q16 0 19 -15l121 -1229q3 -6 -0.5 -13t-12.5 -7h-55q-7 0 -10 0.5t-5 3t-3 8.5l-33 307h-492l-147 -307q-6 -12 -21 -12h-61q-21 0 -12 16zM225 395h453q-10 97 -26 278t-21 232l-27 277h-4q-100 -210 -133 -281zM449 1425l8 43 q4 15 16 15h371q12 0 12 -15l-8 -43q-3 -12 -17 -12h-370q-8 0 -10.5 2.5t-1.5 9.5z" />
<glyph unicode="&#x101;" horiz-adv-x="847" d="M66 242q0 150 97 249t251 99q77 0 139 -32.5t98 -88.5h4l23 127q11 48 5.5 91t-25.5 75t-67.5 50.5t-119.5 18.5q-47 0 -114.5 -13.5t-112.5 -33.5q-14 -6 -19 7l-16 43q-5 12 12 20q119 51 256 51q167 0 239.5 -82t43.5 -235l-109 -574q-3 -14 -18 -14h-55q-11 0 -11 12 q4 20 8.5 44.5t6.5 34.5t2 11h-4q-97 -112 -256 -112q-120 0 -189 69t-69 183zM147 250q0 -86 48 -137.5t141 -51.5q118 0 198 81.5t80 193.5q0 80 -54 133t-144 53q-119 0 -194 -79.5t-75 -192.5zM338 1108l8 41q4 14 16 14h455q13 0 10 -14l-8 -41q-3 -14 -16 -14h-453 q-15 0 -12 14z" />
<glyph unicode="&#x102;" horiz-adv-x="903" d="M-53 16l598 1231q9 17 20 17h94q16 0 19 -15l121 -1229q3 -6 -0.5 -13t-12.5 -7h-55q-7 0 -10 0.5t-5 3t-3 8.5l-33 307h-492l-147 -307q-6 -12 -21 -12h-61q-21 0 -12 16zM225 395h453q-10 97 -26 278t-21 232l-27 277h-4q-100 -210 -133 -281zM442 1556q0 17 17 17h24 q8 0 9.5 -3.5t1.5 -12.5v-3q-2 -69 35 -110t106 -41q65 0 119.5 41t79.5 108q10 21 22 21h25q14 0 10 -21q-23 -98 -96 -156.5t-168 -58.5q-93 0 -147.5 61t-37.5 158z" />
<glyph unicode="&#x103;" horiz-adv-x="847" d="M66 242q0 150 97 249t251 99q77 0 139 -32.5t98 -88.5h4l23 127q11 48 5.5 91t-25.5 75t-67.5 50.5t-119.5 18.5q-47 0 -114.5 -13.5t-112.5 -33.5q-14 -6 -19 7l-16 43q-5 12 12 20q119 51 256 51q167 0 239.5 -82t43.5 -235l-109 -574q-3 -14 -18 -14h-55q-11 0 -11 12 q4 20 8.5 44.5t6.5 34.5t2 11h-4q-97 -112 -256 -112q-120 0 -189 69t-69 183zM147 250q0 -86 48 -137.5t141 -51.5q118 0 198 81.5t80 193.5q0 80 -54 133t-144 53q-119 0 -194 -79.5t-75 -192.5zM354 1251q0 6 5 11.5t12 5.5h24q5 0 8 -1t4 -4.5t1 -5v-8.5q0 -67 38 -107 t103 -40q62 0 120.5 39t80.5 104l2.5 7.5t2 6.5t1.5 4t2.5 3t3.5 1.5t6 0.5h31q12 0 8 -21q-23 -100 -98 -158.5t-172 -58.5q-86 0 -136 59t-47 162z" />
<glyph unicode="&#x104;" horiz-adv-x="903" d="M-53 16l598 1231q9 17 20 17h94q16 0 19 -15l121 -1229q3 -6 -0.5 -13t-12.5 -7h-38q-69 -54 -112.5 -120.5t-43.5 -123.5q0 -63 78 -63q43 0 123 45q8 4 10 4q5 0 8 -6l12 -19l4 -8q0 -4 -8 -12q-84 -66 -170 -66q-64 0 -97.5 29t-33.5 82q0 71 54.5 152.5t121.5 123.5 q16 11 17 11l-31 290h-492l-147 -307q-6 -12 -21 -12h-61q-21 0 -12 16zM225 395h453q-10 97 -26 278t-21 232l-27 277h-4q-100 -210 -133 -281z" />
<glyph unicode="&#x105;" horiz-adv-x="851" d="M66 242q0 150 97 249t251 99q77 0 139 -32.5t98 -88.5h4l23 127q11 48 5.5 91t-25.5 75t-67.5 50.5t-119.5 18.5q-47 0 -114.5 -13.5t-112.5 -33.5q-14 -6 -19 7l-16 43q-5 12 12 20q119 51 256 51q167 0 239.5 -82t43.5 -235l-109 -574q-3 -14 -18 -14h-19 q-69 -54 -112 -120.5t-43 -123.5q0 -63 78 -63q42 0 122 45q8 4 11 4q5 0 8 -6l12 -19l4 -8q0 -4 -8 -12q-84 -66 -170 -66q-64 0 -97.5 29t-33.5 82q0 71 54.5 152.5t121.5 123.5l8 7q3 19 7 38.5t6 28.5t2 10h-4q-97 -112 -256 -112q-120 0 -189 69t-69 183zM147 250 q0 -86 48 -137.5t141 -51.5q118 0 198 81.5t80 193.5q0 80 -54 133t-144 53q-119 0 -194 -79.5t-75 -192.5z" />
<glyph unicode="&#x106;" horiz-adv-x="851" d="M100 338l121 606q14 72 42.5 131.5t74 106t113 72.5t151.5 26q91 0 170 -33.5t129 -101.5q7 -12 -8 -27l-31 -24q-8 -7 -13.5 -6t-14.5 12q-39 45 -100.5 72.5t-129.5 27.5q-123 0 -198.5 -71.5t-98.5 -186.5l-121 -616q-21 -111 42 -187t194 -76q150 0 260 107 q16 16 29 6l39 -35q12 -12 -5 -26q-129 -129 -321 -129q-175 0 -263.5 99t-60.5 253zM595 1384q2 5 13 13l260 184q20 14 33 -4l33 -45q6 -9 2.5 -17.5t-12.5 -13.5l-287 -151q-19 -11 -27 2l-12 18q-5 9 -3 14z" />
<glyph unicode="&#x107;" horiz-adv-x="759" d="M72 313l49 262q30 152 126.5 239t252.5 87q89 0 159 -34t103 -95q8 -13 -6 -27l-39 -26q-16 -13 -25 4q-27 49 -83 76.5t-120 27.5q-105 0 -182.5 -69t-99.5 -180l-53 -265q-21 -117 29.5 -184.5t174.5 -67.5q130 0 232 107q11 14 24 4l35 -27q16 -11 2 -28 q-115 -127 -303 -127q-156 0 -230.5 88t-45.5 235zM457 1018q-13 8 0 26l186 256q18 21 39 7l41 -27q20 -14 4 -33l-227 -239q-16 -12 -29 -2z" />
<glyph unicode="&#x108;" horiz-adv-x="851" d="M100 338l121 606q14 72 42.5 131.5t74 106t113 72.5t151.5 26q91 0 170 -33.5t129 -101.5q7 -12 -8 -27l-31 -24q-8 -7 -13.5 -6t-14.5 12q-39 45 -100.5 72.5t-129.5 27.5q-123 0 -198.5 -71.5t-98.5 -186.5l-121 -616q-21 -111 42 -187t194 -76q150 0 260 107 q16 16 29 6l39 -35q12 -12 -5 -26q-129 -129 -321 -129q-175 0 -263.5 99t-60.5 253zM391 1364q-7 10 4 18l230 185q19 16 45 16h37q25 0 36 -16l142 -187q10 -14 -4 -22l-23 -15q-11 -6 -22 5l-156 151l-244 -153q-17 -12 -26 -3z" />
<glyph unicode="&#x109;" horiz-adv-x="759" d="M72 313l49 262q30 152 126.5 239t252.5 87q89 0 159 -34t103 -95q8 -13 -6 -27l-39 -26q-16 -13 -25 4q-27 49 -83 76.5t-120 27.5q-105 0 -182.5 -69t-99.5 -180l-53 -265q-21 -117 29.5 -184.5t174.5 -67.5q130 0 232 107q11 14 24 4l35 -27q16 -11 2 -28 q-115 -127 -303 -127q-156 0 -230.5 88t-45.5 235zM276 1030q-9 11 5 25l239 239q17 17 35 17h51q15 0 29 -17l141 -239q10 -16 -6 -27l-14 -10q-13 -10 -25 2l-160 207l-254 -207q-18 -12 -26 -4z" />
<glyph unicode="&#x10a;" horiz-adv-x="851" d="M100 338l121 606q14 72 42.5 131.5t74 106t113 72.5t151.5 26q91 0 170 -33.5t129 -101.5q7 -12 -8 -27l-31 -24q-8 -7 -13.5 -6t-14.5 12q-39 45 -100.5 72.5t-129.5 27.5q-123 0 -198.5 -71.5t-98.5 -186.5l-121 -616q-21 -111 42 -187t194 -76q150 0 260 107 q16 16 29 6l39 -35q12 -12 -5 -26q-129 -129 -321 -129q-175 0 -263.5 99t-60.5 253zM612 1470q6 26 27.5 44t46.5 18q24 0 37.5 -18t7.5 -44q-4 -26 -24 -43.5t-45 -17.5t-39.5 18t-10.5 43z" />
<glyph unicode="&#x10b;" horiz-adv-x="759" d="M72 313l49 262q30 152 126.5 239t252.5 87q89 0 159 -34t103 -95q8 -13 -6 -27l-39 -26q-16 -13 -25 4q-27 49 -83 76.5t-120 27.5q-105 0 -182.5 -69t-99.5 -180l-53 -265q-21 -117 29.5 -184.5t174.5 -67.5q130 0 232 107q11 14 24 4l35 -27q16 -11 2 -28 q-115 -127 -303 -127q-156 0 -230.5 88t-45.5 235zM492 1149q6 26 27 43.5t46 17.5q24 0 37.5 -17.5t7.5 -43.5q-5 -26 -24.5 -44t-44.5 -18t-39.5 18.5t-9.5 43.5z" />
<glyph unicode="&#x10c;" horiz-adv-x="851" d="M100 338l121 606q14 72 42.5 131.5t74 106t113 72.5t151.5 26q91 0 170 -33.5t129 -101.5q7 -12 -8 -27l-31 -24q-8 -7 -13.5 -6t-14.5 12q-39 45 -100.5 72.5t-129.5 27.5q-123 0 -198.5 -71.5t-98.5 -186.5l-121 -616q-21 -111 42 -187t194 -76q150 0 260 107 q16 16 29 6l39 -35q12 -12 -5 -26q-129 -129 -321 -129q-175 0 -263.5 99t-60.5 253zM444 1552q-10 14 5 23l22 14q13 6 23 -4l159 -151l240 153q13 8 25 0l20 -18q11 -8 -4 -19l-229 -184q-19 -16 -46 -16h-36q-26 0 -37 16z" />
<glyph unicode="&#x10d;" horiz-adv-x="759" d="M72 313l49 262q30 152 126.5 239t252.5 87q89 0 159 -34t103 -95q8 -13 -6 -27l-39 -26q-16 -13 -25 4q-27 49 -83 76.5t-120 27.5q-105 0 -182.5 -69t-99.5 -180l-53 -265q-21 -117 29.5 -184.5t174.5 -67.5q130 0 232 107q11 14 24 4l35 -27q16 -11 2 -28 q-115 -127 -303 -127q-156 0 -230.5 88t-45.5 235zM340 1260q-11 14 4 26l18 14q15 10 27 -2l162 -206l250 206q11 7 14.5 8.5t11.5 -3.5l15 -15q10 -10 -2 -24l-240 -240q-19 -16 -37 -16h-51q-16 0 -27 16z" />
<glyph unicode="&#x10e;" horiz-adv-x="964" d="M49 16l240 1231q4 17 16 17h369q169 1 237 -96.5t37 -262.5l-104 -563q-33 -171 -128.5 -256.5t-262.5 -85.5h-392q-15 0 -12 16zM150 78h303q118 0 197 65.5t102 190.5l108 567q13 55 8 106.5t-23 91t-65 63.5t-118 24h-297zM412 1540q-11 14 4 23l22 14q13 6 23 -4 l160 -152l239 154q13 8 25 0l20 -19q10 -8 -4 -18l-229 -184q-20 -17 -45 -17h-37q-26 0 -37 17z" />
<glyph unicode="&#x10f;" horiz-adv-x="1013" d="M78 309l49 258q12 66 39 122.5t71 105.5t113.5 77.5t157.5 28.5q81 0 144.5 -37t88.5 -88h4l101 514q3 15 16 15h58q15 0 12 -13l-248 -1280q-3 -12 -18 -12h-56q-13 0 -10 14l16 84h-4q-60 -57 -122.5 -82.5t-147.5 -25.5q-147 0 -219.5 90.5t-44.5 228.5zM160 313 q-22 -116 30 -184t170 -68q108 0 191.5 70.5t103.5 177.5l52 262q22 106 -36 180t-169 74q-120 0 -194.5 -73t-96.5 -185zM997 1004l72 284q8 19 23 19h77q28 0 13 -27l-125 -283q-8 -16 -23 -16h-26q-18 0 -11 23z" />
<glyph unicode="&#x110;" horiz-adv-x="964" d="M49 16l119 615h-94q-16 0 -13 14l7 35q4 14 16 14h96l109 553q4 17 16 17h369q169 1 237 -96.5t37 -262.5l-104 -563q-33 -171 -128.5 -256.5t-262.5 -85.5h-392q-15 0 -12 16zM150 78h303q118 0 197 65.5t102 190.5l108 567q13 55 8 106.5t-23 91t-65 63.5t-118 24h-297 l-97 -492h262q14 0 11 -14l-6 -35q-3 -14 -15 -14h-264z" />
<glyph unicode="&#x111;" horiz-adv-x="960" d="M78 309l49 258q12 66 39 122.5t71 105.5t113.5 77.5t157.5 28.5q81 0 144.5 -37t88.5 -88h4l48 246h-261q-14 0 -10 16l6 35q3 12 17 12h260l41 205q3 15 16 15h58q15 0 12 -13l-41 -207h94q13 0 10 -14l-6 -33q-3 -16 -16 -16h-94l-195 -1010q-3 -12 -18 -12h-56 q-13 0 -10 14l16 84h-4q-60 -57 -122.5 -82.5t-147.5 -25.5q-147 0 -219.5 90.5t-44.5 228.5zM160 313q-22 -116 30 -184t170 -68q108 0 191.5 70.5t103.5 177.5l52 262q22 106 -36 180t-169 74q-120 0 -194.5 -73t-96.5 -185z" />
<glyph unicode="&#x112;" horiz-adv-x="880" d="M49 16l240 1231q4 17 16 17h619q15 0 12 -17l-10 -47q-3 -14 -17 -14h-544l-99 -494h492q16 0 12 -16l-8 -49q-3 -15 -17 -15h-491l-104 -534h606q15 0 12 -15l-8 -47q-3 -16 -19 -16h-680q-15 0 -12 16zM430 1409l8 43q4 14 17 14h370q13 0 13 -14l-9 -43 q-3 -12 -16 -12h-371q-8 0 -10.5 2.5t-1.5 9.5z" />
<glyph unicode="&#x113;" horiz-adv-x="829" d="M68 238q0 38 8.5 89.5t24 120.5t20.5 99q66 354 418 354q115 0 186.5 -59.5t71.5 -161.5q0 -55 -17.5 -99.5t-46.5 -76t-76 -54.5t-96.5 -37t-117 -22.5t-129 -12.5t-140.5 -5q-2 -11 -12 -61t-10 -72q0 -85 58 -132t169 -47q61 0 125 26.5t104 68.5q18 18 29 6l29 -27 q6 -6 6 -12q0 -10 -25 -35q-44 -43 -121.5 -70.5t-163.5 -27.5q-145 0 -219.5 66t-74.5 182zM186 446q73 1 132.5 4.5t122 12t109 24.5t84.5 39t57.5 58t19.5 80q0 68 -45 115.5t-144 47.5q-75 0 -132 -24t-88.5 -54t-56 -87t-33 -90t-20.5 -96zM354 1108l8 41q4 14 17 14 h455q14 0 10 -14l-8 -41q-3 -14 -17 -14h-452q-16 0 -13 14z" />
<glyph unicode="&#x114;" horiz-adv-x="880" d="M49 16l240 1231q4 17 16 17h619q15 0 12 -17l-10 -47q-3 -14 -17 -14h-544l-99 -494h492q16 0 12 -16l-8 -49q-3 -15 -17 -15h-491l-104 -534h606q15 0 12 -15l-8 -47q-3 -16 -19 -16h-680q-15 0 -12 16zM451 1559q0 16 16 16h25q5 0 7.5 -2t2.5 -4v-8v-5q-2 -69 35 -110 t106 -41q65 0 119.5 41t79.5 108q10 21 22 21h25q14 0 10 -21q-23 -98 -96 -156.5t-168 -58.5q-93 0 -147 61.5t-37 158.5z" />
<glyph unicode="&#x115;" horiz-adv-x="829" d="M68 238q0 38 8.5 89.5t24 120.5t20.5 99q66 354 418 354q115 0 186.5 -59.5t71.5 -161.5q0 -55 -17.5 -99.5t-46.5 -76t-76 -54.5t-96.5 -37t-117 -22.5t-129 -12.5t-140.5 -5q-2 -11 -12 -61t-10 -72q0 -85 58 -132t169 -47q61 0 125 26.5t104 68.5q18 18 29 6l29 -27 q6 -6 6 -12q0 -10 -25 -35q-44 -43 -121.5 -70.5t-163.5 -27.5q-145 0 -219.5 66t-74.5 182zM186 446q73 1 132.5 4.5t122 12t109 24.5t84.5 39t57.5 58t19.5 80q0 68 -45 115.5t-144 47.5q-75 0 -132 -24t-88.5 -54t-56 -87t-33 -90t-20.5 -96zM369 1251q0 6 4.5 11.5 t11.5 5.5h25q6 0 8.5 -2t3 -4.5t0.5 -8.5v-2v-2q0 -67 38 -107t103 -40q62 0 120.5 39t80.5 104l2.5 7.5t2 6.5t1.5 4t2.5 3t3.5 1.5t6 0.5h31q12 0 8 -21q-23 -100 -98 -158.5t-172 -58.5q-86 0 -135.5 59t-46.5 162z" />
<glyph unicode="&#x116;" horiz-adv-x="880" d="M49 16l240 1231q4 17 16 17h619q15 0 12 -17l-10 -47q-3 -14 -17 -14h-544l-99 -494h492q16 0 12 -16l-8 -49q-3 -15 -17 -15h-491l-104 -534h606q15 0 12 -15l-8 -47q-3 -16 -19 -16h-680q-15 0 -12 16zM567 1456q6 26 27.5 44t46.5 18q24 0 37.5 -18t7.5 -44 q-4 -26 -24.5 -43.5t-45.5 -17.5t-39.5 18t-9.5 43z" />
<glyph unicode="&#x117;" horiz-adv-x="829" d="M68 238q0 38 8.5 89.5t24 120.5t20.5 99q66 354 418 354q115 0 186.5 -59.5t71.5 -161.5q0 -55 -17.5 -99.5t-46.5 -76t-76 -54.5t-96.5 -37t-117 -22.5t-129 -12.5t-140.5 -5q-2 -11 -12 -61t-10 -72q0 -85 58 -132t169 -47q61 0 125 26.5t104 68.5q18 18 29 6l29 -27 q6 -6 6 -12q0 -10 -25 -35q-44 -43 -121.5 -70.5t-163.5 -27.5q-145 0 -219.5 66t-74.5 182zM186 446q73 1 132.5 4.5t122 12t109 24.5t84.5 39t57.5 58t19.5 80q0 68 -45 115.5t-144 47.5q-75 0 -132 -24t-88.5 -54t-56 -87t-33 -90t-20.5 -96zM512 1149q6 26 27.5 43.5 t46.5 17.5q24 0 37.5 -17.5t7.5 -43.5q-4 -26 -24.5 -44t-45.5 -18t-39.5 18.5t-9.5 43.5z" />
<glyph unicode="&#x118;" horiz-adv-x="880" d="M49 16l240 1231q4 17 16 17h619q15 0 12 -17l-10 -47q-3 -14 -17 -14h-544l-99 -494h492q16 0 12 -16l-8 -49q-3 -15 -17 -15h-491l-104 -534h606q15 0 12 -15l-8 -47q-3 -16 -19 -16h-84q-69 -54 -112 -120.5t-43 -123.5q0 -63 78 -63q42 0 122 45q8 4 11 4q5 0 8 -6 l12 -19l4 -8q0 -4 -8 -12q-84 -66 -170 -66q-64 0 -97.5 29t-33.5 82q0 64 44.5 138t105.5 120h-517q-15 0 -12 16z" />
<glyph unicode="&#x119;" horiz-adv-x="829" d="M68 238q0 38 8.5 89.5t24 120.5t20.5 99q66 354 418 354q115 0 186.5 -59.5t71.5 -161.5q0 -55 -17.5 -99.5t-46.5 -76t-76 -54.5t-96.5 -37t-117 -22.5t-129 -12.5t-140.5 -5q-2 -11 -12 -61t-10 -72q0 -85 58 -132t169 -47q61 0 125 26.5t104 68.5q18 18 29 6l29 -27 q6 -6 6 -12q0 -10 -25 -35q-33 -33 -86 -57l-20 -15q-71 -54 -115.5 -121t-44.5 -124q0 -64 78 -64q43 0 123 45q8 4 10 4q5 0 8 -6l12 -18l4 -8q0 -5 -8 -13q-83 -65 -170 -65q-64 0 -97.5 28.5t-33.5 81.5q0 58 36.5 124t90.5 116q-38 -6 -72 -6q-145 0 -219.5 66 t-74.5 182zM186 446q73 1 132.5 4.5t122 12t109 24.5t84.5 39t57.5 58t19.5 80q0 68 -45 115.5t-144 47.5q-75 0 -132 -24t-88.5 -54t-56 -87t-33 -90t-20.5 -96z" />
<glyph unicode="&#x11a;" horiz-adv-x="880" d="M49 16l240 1231q4 17 16 17h619q15 0 12 -17l-10 -47q-3 -14 -17 -14h-544l-99 -494h492q16 0 12 -16l-8 -49q-3 -15 -17 -15h-491l-104 -534h606q15 0 12 -15l-8 -47q-3 -16 -19 -16h-680q-15 0 -12 16zM420 1548q-11 14 4 23l22 14q13 6 23 -4l160 -151l239 153 q13 8 25 0l20 -18q11 -8 -4 -19l-229 -184q-19 -16 -45 -16h-37q-26 0 -37 16z" />
<glyph unicode="&#x11b;" horiz-adv-x="829" d="M68 238q0 38 8.5 89.5t24 120.5t20.5 99q66 354 418 354q115 0 186.5 -59.5t71.5 -161.5q0 -55 -17.5 -99.5t-46.5 -76t-76 -54.5t-96.5 -37t-117 -22.5t-129 -12.5t-140.5 -5q-2 -11 -12 -61t-10 -72q0 -85 58 -132t169 -47q61 0 125 26.5t104 68.5q18 18 29 6l29 -27 q6 -6 6 -12q0 -10 -25 -35q-44 -43 -121.5 -70.5t-163.5 -27.5q-145 0 -219.5 66t-74.5 182zM186 446q73 1 132.5 4.5t122 12t109 24.5t84.5 39t57.5 58t19.5 80q0 68 -45 115.5t-144 47.5q-75 0 -132 -24t-88.5 -54t-56 -87t-33 -90t-20.5 -96zM336 1260q-11 14 4 26l18 14 q15 10 27 -2l162 -206l250 206q11 7 14.5 8.5t11.5 -3.5l15 -15q10 -10 -2 -24l-240 -240q-19 -16 -37 -16h-51q-16 0 -27 16z" />
<glyph unicode="&#x11c;" horiz-adv-x="940" d="M98 338l121 608q28 150 126.5 243t264.5 93q92 0 173.5 -35.5t125.5 -101.5q10 -13 -8 -27l-33 -24q-18 -12 -30 6q-36 45 -98.5 73.5t-131.5 28.5q-123 0 -201.5 -72t-101.5 -186l-121 -616q-23 -112 40 -188.5t196 -76.5q129 0 212.5 67.5t106.5 191.5l54 276h-193 q-15 0 -12 14l8 52q7 14 18 14h263q7 0 12 -5t4 -11l-66 -343q-29 -152 -131 -241.5t-274 -89.5q-174 -1 -263 98.5t-61 251.5zM393 1372q-8 10 4 19l230 184q19 16 45 16h37q25 0 36 -16l142 -186q11 -14 -4 -23l-23 -14q-12 -6 -22 4l-156 151l-244 -153q-17 -11 -26 -2z " />
<glyph unicode="&#x11d;" horiz-adv-x="856" d="M-57 -154q6 36 22 66q9 15 23 12l49 -14q16 -3 4 -19q-44 -93 25 -146.5t210 -55.5q135 0 225.5 61t90.5 160q0 139 -193 139h-123q-82 0 -119.5 34t-37.5 89q0 40 26 88.5t60 75.5q-99 71 -99 199q0 150 110 258t280 108q127 0 211 -78q44 32 100 53.5t102 22.5 q11 2 15.5 -2.5t1.5 -17.5l-13 -62q-2 -9 -6 -12.5t-14 -3.5q-32 0 -78 -9t-74 -22q38 -68 25 -174q-13 -94 -74 -166.5t-144.5 -108.5t-174.5 -36q-27 0 -45 2q-6 1 -14 1.5t-11.5 1t-8 1t-6.5 0t-5 -0.5t-5 -1t-4.5 -1.5t-5.5 -2.5q-27 -13 -47 -42.5t-20 -62.5 q0 -55 100 -55h152q110 0 170.5 -52.5t60.5 -146.5q0 -99 -59.5 -170.5t-153.5 -105t-209 -33.5q-166 0 -252 65t-67 164zM188 541q0 -81 49 -132t142 -51q130 0 216.5 86t86.5 197q0 83 -49.5 133.5t-147.5 50.5q-127 0 -212 -85.5t-85 -198.5zM279 1030q-9 12 4 25 l239 239q17 17 35 17h51q15 0 29 -17l141 -239q10 -16 -6 -27l-14 -10q-13 -10 -25 2l-160 207l-254 -207q-18 -12 -26 -4z" />
<glyph unicode="&#x11e;" horiz-adv-x="940" d="M98 338l121 608q28 150 126.5 243t264.5 93q92 0 173.5 -35.5t125.5 -101.5q10 -13 -8 -27l-33 -24q-18 -12 -30 6q-36 45 -98.5 73.5t-131.5 28.5q-123 0 -201.5 -72t-101.5 -186l-121 -616q-23 -112 40 -188.5t196 -76.5q129 0 212.5 67.5t106.5 191.5l54 276h-193 q-15 0 -12 14l8 52q7 14 18 14h263q7 0 12 -5t4 -11l-66 -343q-29 -152 -131 -241.5t-274 -89.5q-174 -1 -263 98.5t-61 251.5zM467 1567q0 16 16 16h25q4 0 6 -1t3 -2.5t1 -4v-5.5v-5q-2 -69 35 -110.5t106 -41.5q65 0 119.5 41.5t79.5 108.5q10 20 23 20h24q14 0 10 -20 q-23 -98 -96 -156.5t-168 -58.5q-93 0 -147 61t-37 158z" />
<glyph unicode="&#x11f;" horiz-adv-x="856" d="M-57 -154q6 36 22 66q9 15 23 12l49 -14q16 -3 4 -19q-44 -93 25 -146.5t210 -55.5q135 0 225.5 61t90.5 160q0 139 -193 139h-123q-82 0 -119.5 34t-37.5 89q0 40 26 88.5t60 75.5q-99 71 -99 199q0 150 110 258t280 108q127 0 211 -78q44 32 100 53.5t102 22.5 q11 2 15.5 -2.5t1.5 -17.5l-13 -62q-2 -9 -6 -12.5t-14 -3.5q-32 0 -78 -9t-74 -22q38 -68 25 -174q-13 -94 -74 -166.5t-144.5 -108.5t-174.5 -36q-27 0 -45 2q-6 1 -14 1.5t-11.5 1t-8 1t-6.5 0t-5 -0.5t-5 -1t-4.5 -1.5t-5.5 -2.5q-27 -13 -47 -42.5t-20 -62.5 q0 -55 100 -55h152q110 0 170.5 -52.5t60.5 -146.5q0 -99 -59.5 -170.5t-153.5 -105t-209 -33.5q-166 0 -252 65t-67 164zM188 541q0 -81 49 -132t142 -51q130 0 216.5 86t86.5 197q0 83 -49.5 133.5t-147.5 50.5q-127 0 -212 -85.5t-85 -198.5zM358 1251q0 6 5 11.5t12 5.5 h24q5 0 8 -1t4 -4.5t1 -5v-8.5q0 -67 38 -107t103 -40q62 0 120.5 39t80.5 104l2.5 7.5t2 6.5t1.5 4t2.5 3t3.5 1.5t6 0.5h31q12 0 8 -21q-23 -100 -98 -158.5t-172 -58.5q-86 0 -136 59t-47 162z" />
<glyph unicode="&#x120;" horiz-adv-x="940" d="M98 338l121 608q28 150 126.5 243t264.5 93q92 0 173.5 -35.5t125.5 -101.5q10 -13 -8 -27l-33 -24q-18 -12 -30 6q-36 45 -98.5 73.5t-131.5 28.5q-123 0 -201.5 -72t-101.5 -186l-121 -616q-23 -112 40 -188.5t196 -76.5q129 0 212.5 67.5t106.5 191.5l54 276h-193 q-15 0 -12 14l8 52q7 14 18 14h263q7 0 12 -5t4 -11l-66 -343q-29 -152 -131 -241.5t-274 -89.5q-174 -1 -263 98.5t-61 251.5zM600 1456q6 26 27.5 44t46.5 18q24 0 37.5 -18t7.5 -44q-4 -26 -24.5 -43.5t-45.5 -17.5t-39.5 18t-9.5 43z" />
<glyph unicode="&#x121;" horiz-adv-x="856" d="M-57 -154q6 36 22 66q9 15 23 12l49 -14q16 -3 4 -19q-44 -93 25 -146.5t210 -55.5q135 0 225.5 61t90.5 160q0 139 -193 139h-123q-82 0 -119.5 34t-37.5 89q0 40 26 88.5t60 75.5q-99 71 -99 199q0 150 110 258t280 108q127 0 211 -78q44 32 100 53.5t102 22.5 q11 2 15.5 -2.5t1.5 -17.5l-13 -62q-2 -9 -6 -12.5t-14 -3.5q-32 0 -78 -9t-74 -22q38 -68 25 -174q-13 -94 -74 -166.5t-144.5 -108.5t-174.5 -36q-27 0 -45 2q-6 1 -14 1.5t-11.5 1t-8 1t-6.5 0t-5 -0.5t-5 -1t-4.5 -1.5t-5.5 -2.5q-27 -13 -47 -42.5t-20 -62.5 q0 -55 100 -55h152q110 0 170.5 -52.5t60.5 -146.5q0 -99 -59.5 -170.5t-153.5 -105t-209 -33.5q-166 0 -252 65t-67 164zM188 541q0 -81 49 -132t142 -51q130 0 216.5 86t86.5 197q0 83 -49.5 133.5t-147.5 50.5q-127 0 -212 -85.5t-85 -198.5zM512 1149q6 26 27.5 43.5 t46.5 17.5q24 0 37.5 -17.5t7.5 -43.5q-4 -26 -24.5 -44t-45.5 -18t-39.5 18.5t-9.5 43.5z" />
<glyph unicode="&#x122;" horiz-adv-x="940" d="M98 338l121 608q28 150 126.5 243t264.5 93q92 0 173.5 -35.5t125.5 -101.5q10 -13 -8 -27l-33 -24q-18 -12 -30 6q-36 45 -98.5 73.5t-131.5 28.5q-123 0 -201.5 -72t-101.5 -186l-121 -616q-23 -112 40 -188.5t196 -76.5q129 0 212.5 67.5t106.5 191.5l54 276h-193 q-15 0 -12 14l8 52q7 14 18 14h263q7 0 12 -5t4 -11l-66 -343q-29 -152 -131 -241.5t-274 -89.5q-174 -1 -263 98.5t-61 251.5zM225 -395l72 284q8 19 22 19h78q28 0 13 -27l-125 -282q-9 -17 -23 -17h-26q-18 0 -11 23z" />
<glyph unicode="&#x123;" horiz-adv-x="862" d="M-57 -154q6 36 22 66q9 15 23 12l49 -14q16 -3 4 -19q-44 -93 25 -146.5t210 -55.5q135 0 225.5 61t90.5 160q0 139 -193 139h-123q-82 0 -119.5 34t-37.5 89q0 40 26 88.5t60 75.5q-99 71 -99 199q0 150 110 258t280 108q127 0 211 -78q44 32 100 53.5t102 22.5 q11 2 15.5 -2.5t1.5 -17.5l-13 -62q-2 -9 -6 -12.5t-14 -3.5q-32 0 -78 -9t-74 -22q38 -68 25 -174q-13 -94 -74 -166.5t-144.5 -108.5t-174.5 -36q-27 0 -45 2q-6 1 -14 1.5t-11.5 1t-8 1t-6.5 0t-5 -0.5t-5 -1t-4.5 -1.5t-5.5 -2.5q-27 -13 -47 -42.5t-20 -62.5 q0 -55 100 -55h152q110 0 170.5 -52.5t60.5 -146.5q0 -99 -59.5 -170.5t-153.5 -105t-209 -33.5q-166 0 -252 65t-67 164zM188 541q0 -81 49 -132t142 -51q130 0 216.5 86t86.5 197q0 83 -49.5 133.5t-147.5 50.5q-127 0 -212 -85.5t-85 -198.5zM461 1020q0 7 6 16l125 283 q8 16 20 16h29q12 0 12 -10l-4 -12l-69 -285q-7 -18 -25 -18h-78q-16 0 -16 10z" />
<glyph unicode="&#x124;" horiz-adv-x="1024" d="M45 14l240 1235q3 15 18 15h57q7 0 11 -4.5t2 -10.5l-109 -559h596l109 559q6 15 18 15h60q16 0 12 -15l-240 -1235q-3 -14 -16 -14h-58q-16 0 -16 14l117 598h-596l-117 -598q-3 -14 -16 -14h-58q-17 0 -14 14zM428 1360q-7 10 4 18l230 185q19 16 45 16h36q26 0 37 -16 l142 -187q10 -14 -4 -22l-23 -15q-13 -6 -23 4l-155 152l-244 -154q-17 -12 -27 -2z" />
<glyph unicode="&#x125;" horiz-adv-x="876" d="M29 12l250 1278q3 15 16 15h57q13 0 10 -13l-94 -499l4 -5q55 55 128.5 84t146.5 29q85 0 143 -27t84.5 -73t34.5 -107t-8 -129l-107 -551q0 -14 -14 -14h-59q-7 0 -10.5 3t-2.5 9l109 555q53 260 -197 260q-108 0 -192.5 -76t-106.5 -184l-106 -553q0 -14 -17 -14h-57 q-15 0 -12 12zM70 1341q-8 10 4 19l229 184q20 17 45 17h37q26 0 37 -17l141 -186q11 -14 -4 -23l-22 -14q-13 -6 -23 4l-156 152l-243 -154q-17 -12 -27 -2z" />
<glyph unicode="&#x126;" horiz-adv-x="1050" d="M49 14l201 1037h-88q-13 0 -10 14l4 31q4 16 18 16h88l27 137q3 15 18 15h58q16 0 12 -15l-27 -137h584l27 137q3 15 18 15h57q19 0 15 -15l-27 -137h92q14 0 10 -16l-4 -31q-3 -14 -18 -14h-92l-201 -1037q-3 -14 -16 -14h-60q-17 0 -14 14l117 598h-584l-117 -598 q-3 -14 -16 -14h-58q-17 0 -14 14zM268 690h584l70 361h-584z" />
<glyph unicode="&#x127;" horiz-adv-x="876" d="M29 12l202 1043h-90q-13 0 -10 14l6 31q3 14 15 14h92l35 176q3 15 16 15h57q13 0 10 -13l-34 -178h395q15 0 12 -14l-6 -31q-3 -14 -16 -14h-396l-49 -262l4 -5q55 55 128.5 84t146.5 29q85 0 143 -27t84.5 -73t34.5 -107t-8 -129l-107 -551q0 -14 -14 -14h-59 q-7 0 -10.5 3t-2.5 9l109 555q53 260 -197 260q-108 0 -192.5 -76t-106.5 -184l-106 -553q0 -14 -17 -14h-57q-15 0 -12 12z" />
<glyph unicode="&#x128;" horiz-adv-x="405" d="M80 14l239 1235q3 15 19 15h57q8 0 12 -4.5t1 -10.5l-240 -1235q0 -14 -16 -14h-60q-18 0 -12 14zM139 1452q-10 7 2 23q67 88 156 88q42 0 110 -36t99 -36q64 0 110 55q9 13 21 4l33 -16q11 -7 -2 -23q-65 -88 -170 -88q-44 0 -112 36t-103 36q-51 0 -93 -55 q-12 -15 -24 -6z" />
<glyph unicode="&#x129;" horiz-adv-x="417" d="M84 1104q-9 7 2 22q67 88 156 88q42 0 110 -35.5t99 -35.5q64 0 110 55q9 13 21 4l32 -16q11 -7 -2 -23q-65 -88 -170 -88q-44 0 -112 36t-103 36q-50 0 -92 -55q-12 -16 -24 -7zM106 8v4l166 865q6 12 17 12h59q12 0 12 -8v-4q-43 -220 -167 -865q-3 -12 -17 -12h-59 q-11 0 -11 8z" />
<glyph unicode="&#x12a;" horiz-adv-x="405" d="M80 14l239 1235q3 15 19 15h57q8 0 12 -4.5t1 -10.5l-240 -1235q0 -14 -16 -14h-60q-18 0 -12 14zM186 1409l9 43q3 14 16 14h371q12 0 12 -14l-8 -43q-3 -12 -17 -12h-370q-8 0 -11 2.5t-2 9.5z" />
<glyph unicode="&#x12b;" horiz-adv-x="393" d="M86 1108l8 41q4 14 17 14h454q13 0 10 -14l-8 -41q-3 -14 -16 -14h-453q-15 0 -12 14zM88 8v4l166 865q6 12 16 12h60q12 0 12 -8v-4q-79 -399 -168 -865q-3 -12 -16 -12h-60q-10 0 -10 8z" />
<glyph unicode="&#x12c;" horiz-adv-x="405" d="M80 14l239 1235q3 15 19 15h57q8 0 12 -4.5t1 -10.5l-240 -1235q0 -14 -16 -14h-60q-18 0 -12 14zM188 1546q0 6 5 11.5t12 5.5h24q5 0 8 -1t4 -4.5t1 -5v-8.5q0 -67 38 -107t103 -40q62 0 120.5 39t80.5 104l2.5 7.5t2 6.5t1.5 4t2.5 3t3.5 1.5t6 0.5h31q12 0 8 -21 q-23 -100 -98 -158.5t-172 -58.5q-86 0 -136 59t-47 162z" />
<glyph unicode="&#x12d;" horiz-adv-x="387" d="M82 8v4l166 865q6 12 16 12h60q12 0 12 -8v-4q-79 -399 -168 -865q-3 -12 -16 -12h-60q-10 0 -10 8zM121 1253q0 6 4.5 11.5t11.5 5.5h25q6 0 8.5 -2t3 -4.5t0.5 -8.5v-2v-2q0 -67 38 -107t103 -40q62 0 120.5 39t80.5 104q7 20 10 21q3 2 9 2h30q12 0 8 -21 q-23 -100 -98 -158.5t-172 -58.5q-86 0 -135.5 59t-46.5 162z" />
<glyph unicode="&#x12e;" horiz-adv-x="405" d="M-102 -258q0 71 54.5 152.5t121.5 123.5q5 5 8 5l237 1226q3 15 19 15h57q8 0 12 -4.5t1 -10.5l-240 -1235q0 -14 -16 -14h-25q-69 -54 -112.5 -120.5t-43.5 -123.5q0 -63 78 -63q43 0 123 45q8 4 10 4q5 0 8 -6l13 -19l4 -8q0 -4 -8 -12q-84 -66 -170 -66 q-64 0 -97.5 29t-33.5 82z" />
<glyph unicode="&#x12f;" horiz-adv-x="352" d="M-135 -258q0 71 54.5 152.5t121.5 123.5l8 7q14 74 164 852q6 12 16 12h60q12 0 12 -8v-4q-79 -399 -168 -865q-3 -12 -16 -12h-23q-69 -54 -112 -120.5t-43 -123.5q0 -63 77 -63q43 0 123 45q8 4 11 4q5 0 8 -6l12 -19l4 -8q0 -4 -8 -12q-84 -66 -170 -66 q-64 0 -97.5 29t-33.5 82zM250 1141v8q6 26 27.5 44.5t46.5 18.5q23 0 38 -14t15 -37q0 -2 -1 -6t-1 -6q-4 -26 -26 -44t-48 -18q-23 0 -37 15t-14 39z" />
<glyph unicode="&#x130;" horiz-adv-x="405" d="M80 14l239 1235q3 15 19 15h57q8 0 12 -4.5t1 -10.5l-240 -1235q0 -14 -16 -14h-60q-18 0 -12 14zM348 1468q6 26 27.5 44t46.5 18q24 0 37.5 -18t7.5 -44q-4 -26 -24.5 -43.5t-45.5 -17.5t-39.5 18t-9.5 43z" />
<glyph unicode="&#x131;" horiz-adv-x="352" d="M47 8v4l166 865q6 12 16 12h60q12 0 12 -8v-4q-79 -399 -168 -865q-3 -12 -16 -12h-60q-10 0 -10 8z" />
<glyph unicode="&#x132;" horiz-adv-x="868" d="M80 14l239 1235q3 15 19 15h57q8 0 12 -4.5t1 -10.5l-240 -1235q0 -14 -16 -14h-60q-18 0 -12 14zM231 -193q-3 22 23 25q82 9 140 36t96 75t60.5 107t39.5 145l205 1052q3 15 18 15h53q18 0 15 -15l-203 -1038q-16 -83 -32.5 -141t-47.5 -118t-73.5 -98t-109 -66 t-155.5 -38q-21 -4 -24 12z" />
<glyph unicode="&#x133;" horiz-adv-x="671" d="M47 8v4l166 865q6 12 16 12h60q12 0 12 -8v-4q-79 -399 -168 -865q-3 -12 -16 -12h-60q-10 0 -10 8zM92 -340l10 43q6 17 25 14q30 -10 82 -10q78 0 113.5 45t54.5 142l190 983q3 14 17 14h59q13 0 10 -14l-194 -1002q-24 -129 -78.5 -188.5t-165.5 -59.5q-72 0 -115 13 q-13 5 -8 20zM250 1141v8q6 26 27.5 44.5t46.5 18.5q23 0 38 -14t15 -37q0 -2 -1 -6t-1 -6q-4 -26 -26 -44t-48 -18q-23 0 -37 15t-14 39zM602 1151q6 26 28 43.5t48 17.5q25 0 39 -17.5t8 -43.5q-4 -26 -25.5 -45t-46.5 -19t-40 18.5t-11 45.5z" />
<glyph unicode="&#x134;" horiz-adv-x="487" d="M-176 -190q-3 21 22 24q82 9 140 36t96 75t60.5 107t39.5 145l205 1052q3 15 19 15h53q17 0 14 -15l-203 -1038q-16 -84 -32.5 -141.5t-47.5 -117.5t-73 -98t-108.5 -66t-155.5 -38q-22 -4 -25 12zM188 1346q-7 9 5 18l229 184q20 17 45 17h37q26 0 37 -17l141 -186 q11 -14 -4 -23l-23 -14q-12 -6 -22 4l-156 152l-244 -154q-17 -11 -26 -2z" />
<glyph unicode="&#x135;" horiz-adv-x="440" d="M-205 -338l19 47q4 16 22 10q40 -12 68 -12q45 0 77.5 14t52.5 43.5t31 62.5t21 83l188 967q4 14 15 14h59q15 0 12 -14l-190 -983q-27 -134 -90 -199.5t-176 -65.5q-60 0 -101 13q-13 5 -8 20zM82 1030q-8 10 4 25l240 239q17 17 34 17h52q14 0 28 -17l146 -235 q10 -16 -6 -27l-19 -14q-12 -10 -24 2l-156 205l-258 -205q-17 -14 -25 -4z" />
<glyph unicode="&#x136;" horiz-adv-x="962" d="M43 14l240 1231q2 10 5 14.5t13 4.5h59q14 0 11 -17l-119 -614l4 -2l662 618q16 13 26 13h68q8 0 10.5 -3t0.5 -7.5t-7 -8.5l-549 -516l4 -6q57 14 121 14q299 0 260 -329l-47 -392q-3 -14 -17 -14h-53q-14 0 -14 16l45 365q4 30 6 52t1 53.5t-8 54t-23 47t-40.5 39.5 t-64 25t-90.5 10q-80 0 -143.5 -25t-103.5 -67.5t-64 -89.5t-35 -101l-70 -363q-1 -6 -2.5 -9.5t-4 -5t-7.5 -1.5h-60q-17 0 -14 14zM305 -354l72 284q8 19 22 19h78q27 0 12 -27l-124 -282q-9 -17 -23 -17h-27q-17 0 -10 23z" />
<glyph unicode="&#x137;" horiz-adv-x="831" d="M27 12l247 1278q3 15 17 15h57q16 0 12 -15l-163 -841q1 0 2 -1.5t2 -1.5q50 42 233.5 196t284.5 237q15 10 29 10h77q9 0 9 -10q0 -4 -7 -11l-405 -333q41 4 80 4q122 -3 180 -89t39 -227l-31 -207q-2 -9 -6 -12.5t-14 -3.5h-52q-17 0 -14 14l31 209q32 246 -193 246 q-103 0 -185.5 -70t-100.5 -161l-43 -226q-3 -12 -17 -12h-57q-14 0 -12 12zM227 -395l72 284q8 19 23 19h77q28 0 13 -27l-125 -282q-9 -17 -23 -17h-26q-18 0 -11 23z" />
<glyph unicode="&#x138;" horiz-adv-x="831" d="M27 12l168 869q3 14 16 14h57q16 0 13 -14l-82 -428q1 0 2 -1t2 -1l516 428q15 10 29 10h77q9 0 9 -10q0 -4 -7 -11l-405 -333q41 4 80 4q122 -3 180 -89t39 -227l-31 -207q-2 -9 -6 -12.5t-14 -3.5h-52q-17 0 -14 14l31 209q32 246 -193 246q-103 0 -185.5 -70 t-100.5 -161l-43 -226q-3 -12 -17 -12h-57q-14 0 -12 12z" />
<glyph unicode="&#x139;" horiz-adv-x="796" d="M37 16l239 1233q3 15 19 15h57q7 0 11 -4.5t2 -10.5l-228 -1169h570q15 0 12 -14l-10 -50q-3 -16 -17 -16h-639q-19 0 -16 16zM300 1357q2 5 13 13l260 184q20 14 33 -4l33 -45q13 -19 -10 -30l-287 -152q-19 -11 -27 2l-12 18q-5 9 -3 14z" />
<glyph unicode="&#x13a;" horiz-adv-x="399" d="M88 125.5q2 24.5 8 58.5l213 1106q4 15 15 15h57q12 0 12 -11v-4l-217 -1110q-10 -58 4.5 -84t75.5 -26h20q15 0 15 -11l-10 -55q-3 -14 -23 -14h-35q-43 0 -71.5 11.5t-42 28.5t-18.5 44t-3 51.5zM337 1417q2 5 13 13l260 184q20 14 33 -4l33 -45q13 -19 -10 -31 l-287 -152q-19 -11 -27 2l-12 19q-5 9 -3 14z" />
<glyph unicode="&#x13b;" horiz-adv-x="796" d="M37 16l239 1233q3 15 19 15h57q7 0 11 -4.5t2 -10.5l-228 -1169h570q15 0 12 -14l-10 -50q-3 -16 -17 -16h-639q-19 0 -16 16zM174 -395l72 284q8 19 22 19h78q27 0 12 -27l-125 -282q-9 -17 -22 -17h-27q-17 0 -10 23z" />
<glyph unicode="&#x13c;" horiz-adv-x="399" d="M-18 -395l71 284q8 19 23 19h78q27 0 12 -27l-125 -282q-9 -17 -23 -17h-26q-17 0 -10 23zM88 125.5q2 24.5 8 58.5l213 1106q4 15 15 15h57q12 0 12 -11v-4l-217 -1110q-10 -58 4.5 -84t75.5 -26h20q15 0 15 -11l-10 -55q-3 -14 -23 -14h-35q-43 0 -71.5 11.5t-42 28.5 t-18.5 44t-3 51.5z" />
<glyph unicode="&#x13d;" horiz-adv-x="796" d="M37 16l239 1233q3 15 19 15h57q7 0 11 -4.5t2 -10.5l-228 -1169h570q15 0 12 -14l-10 -50q-3 -16 -17 -16h-639q-19 0 -16 16zM514 965l72 284q8 19 22 19h78q27 0 12 -27l-125 -283q-8 -16 -22 -16h-27q-17 0 -10 23z" />
<glyph unicode="&#x13e;" horiz-adv-x="526" d="M90 125.5q2 24.5 8 58.5l213 1106q4 15 15 15h57q12 0 12 -11v-4l-217 -1110q-10 -58 4.5 -84t75.5 -26h21q14 0 14 -11l-10 -55q-3 -14 -23 -14h-35q-43 0 -71.5 11.5t-42 28.5t-18.5 44t-3 51.5zM485 1001l72 285q8 19 23 19h77q28 0 13 -27l-125 -283q-8 -16 -23 -16 h-26q-17 0 -11 22z" />
<glyph unicode="&#x13f;" horiz-adv-x="796" d="M37 16l239 1233q3 15 19 15h57q7 0 11 -4.5t2 -10.5l-228 -1169h570q15 0 12 -14l-10 -50q-3 -16 -17 -16h-639q-19 0 -16 16zM492 657q6 26 27 44t46 18q24 0 37.5 -18t7.5 -44q-4 -26 -24 -43.5t-45 -17.5t-39.5 18t-9.5 43z" />
<glyph unicode="&#x140;" horiz-adv-x="526" d="M90 125.5q2 24.5 8 58.5l213 1106q4 15 15 15h57q12 0 12 -11v-4l-217 -1110q-10 -58 4.5 -84t75.5 -26h21q14 0 14 -11l-10 -55q-3 -14 -23 -14h-35q-43 0 -71.5 11.5t-42 28.5t-18.5 44t-3 51.5zM401 723q6 26 27.5 43.5t46.5 17.5q24 0 37.5 -17.5t7.5 -43.5 q-4 -26 -24 -43.5t-45 -17.5t-39.5 18t-10.5 43z" />
<glyph unicode="&#x141;" horiz-adv-x="841" d="M-2 426q-3 16 8 20l187 99l137 704q3 15 18 15h58q16 0 12 -15l-127 -655l223 117q10 8 18 -4l11 -35q5 -12 -6 -19l-263 -137l-84 -436h555q8 0 12 -3.5t3 -10.5l-10 -50q-3 -16 -17 -16h-627q-19 0 -16 16l88 449l-149 -76q-13 -10 -17 4z" />
<glyph unicode="&#x142;" horiz-adv-x="509" d="M31 528q-6 14 8 19l192 98l125 645q4 15 15 15h57q12 0 12 -11v-4l-116 -598l159 82q13 7 17 -4l14 -33q6 -11 -8 -18l-197 -101l-86 -438q-10 -58 4.5 -84t75.5 -26h21q14 0 14 -11l-10 -55q-3 -14 -23 -14h-35q-43 0 -71.5 11.5t-42 28.5t-18.5 44t-3 51.5t8 58.5 l74 387l-158 -79q-10 -5 -14 4z" />
<glyph unicode="&#x143;" horiz-adv-x="1021" d="M37 14l237 1223q4 27 29 27h45q21 0 29 -19l383 -1083h4l209 1085q4 17 18 17h56q15 0 12 -17l-238 -1224q-6 -23 -26 -23h-47q-22 0 -27 16q-74 203 -211.5 591.5t-171.5 484.5h-4l-209 -1078q-3 -14 -19 -14h-57q-15 0 -12 14zM595 1357q2 5 13 13l260 184q20 14 33 -4 l33 -45q12 -19 -10 -30l-287 -152q-19 -11 -27 2l-12 18q-5 9 -3 14z" />
<glyph unicode="&#x144;" horiz-adv-x="874" d="M29 12l168 865q3 14 16 14h57q14 0 11 -14l-19 -97l6 2q50 54 128 86.5t151 32.5q67 0 118 -18t80.5 -50t47 -74.5t17.5 -91.5t-9 -102l-107 -551q0 -14 -14 -14h-59q-7 0 -10.5 3t-2.5 9l109 555q22 113 -26 186.5t-171 73.5q-108 0 -192.5 -76t-106.5 -184l-106 -553 q0 -14 -17 -14h-57q-15 0 -12 12zM469 1018q-13 8 0 26l186 256q18 21 39 7l41 -27q20 -14 4 -33l-227 -239q-16 -12 -29 -2z" />
<glyph unicode="&#x145;" horiz-adv-x="1021" d="M37 14l237 1223q4 27 29 27h45q21 0 29 -19l383 -1083h4l209 1085q4 17 18 17h56q15 0 12 -17l-238 -1224q-6 -23 -26 -23h-47q-22 0 -27 16q-74 203 -211.5 591.5t-171.5 484.5h-4l-209 -1078q-3 -14 -19 -14h-57q-15 0 -12 14zM258 -354l72 284q8 19 22 19h78 q27 0 12 -27l-125 -282q-9 -17 -22 -17h-27q-17 0 -10 23z" />
<glyph unicode="&#x146;" horiz-adv-x="874" d="M29 12l168 865q3 14 16 14h57q14 0 11 -14l-19 -97l6 2q50 54 128 86.5t151 32.5q67 0 118 -18t80.5 -50t47 -74.5t17.5 -91.5t-9 -102l-107 -551q0 -14 -14 -14h-59q-7 0 -10.5 3t-2.5 9l109 555q22 113 -26 186.5t-171 73.5q-108 0 -192.5 -76t-106.5 -184l-106 -553 q0 -14 -17 -14h-57q-15 0 -12 12zM205 -395l71 284q8 19 23 19h78q27 0 12 -27l-125 -282q-8 -17 -22 -17h-27q-17 0 -10 23z" />
<glyph unicode="&#x147;" horiz-adv-x="1021" d="M37 14l237 1223q4 27 29 27h45q21 0 29 -19l383 -1083h4l209 1085q4 17 18 17h56q15 0 12 -17l-238 -1224q-6 -23 -26 -23h-47q-22 0 -27 16q-74 203 -211.5 591.5t-171.5 484.5h-4l-209 -1078q-3 -14 -19 -14h-57q-15 0 -12 14zM487 1528q-10 13 5 22l22 15q13 6 23 -4 l159 -152l240 154q13 8 25 0l20 -19q10 -8 -4 -18l-229 -185q-19 -16 -46 -16h-36q-26 0 -37 16z" />
<glyph unicode="&#x148;" horiz-adv-x="874" d="M29 12l168 865q3 14 16 14h57q14 0 11 -14l-19 -97l6 2q50 54 128 86.5t151 32.5q67 0 118 -18t80.5 -50t47 -74.5t17.5 -91.5t-9 -102l-107 -551q0 -14 -14 -14h-59q-7 0 -10.5 3t-2.5 9l109 555q22 113 -26 186.5t-171 73.5q-108 0 -192.5 -76t-106.5 -184l-106 -553 q0 -14 -17 -14h-57q-15 0 -12 12zM313 1260q-11 14 4 26l19 14q14 10 26 -2l162 -206l250 206q19 13 27 5l14 -15q10 -10 -2 -24l-240 -240q-19 -16 -36 -16h-52q-15 0 -26 16z" />
<glyph unicode="&#x149;" horiz-adv-x="964" d="M119 12l168 865q3 14 16 14h57q14 0 11 -14l-19 -97l6 2q50 54 128 86.5t151 32.5q67 0 118 -18t80.5 -50t47 -74.5t17.5 -91.5t-9 -102l-107 -551q0 -14 -14 -14h-59q-7 0 -10.5 3t-2.5 9l109 555q22 113 -26 186.5t-171 73.5q-108 0 -192.5 -76t-106.5 -184l-106 -553 q0 -14 -17 -14h-57q-15 0 -12 12zM127 954l72 285q7 18 22 18h78q26 0 12 -26l-125 -283q-8 -16 -22 -16h-27q-16 0 -10 22z" />
<glyph unicode="&#x14a;" horiz-adv-x="991" d="M35 14l239 1235q4 15 17 15h55q19 0 27 -19l372 -1069h5l208 1073q4 15 17 15h57q13 0 10 -15l-276 -1425q-8 -40 -18.5 -68.5t-32 -58t-58.5 -44.5t-90 -15q-63 0 -112 24q-12 7 -9 21l15 30q11 21 28 17q47 -17 82 -17q62 0 81.5 30.5t37.5 121.5q1 8 2 12l13 64 q8 57 -3 88l-370 1056h-4l-209 -1071q-3 -14 -15 -14h-57q-15 0 -12 14z" />
<glyph unicode="&#x14b;" horiz-adv-x="874" d="M29 12l168 865q3 14 16 14h57q14 0 11 -14l-19 -97l6 2q50 54 128 86.5t151 32.5q67 0 118 -18t80.5 -50t47 -74.5t17.5 -91.5t-9 -102q-79 -414 -146 -741q-7 -34 -12.5 -55.5t-20 -49t-34.5 -43t-54.5 -27t-80.5 -11.5q-59 0 -109 24q-12 7 -8 21l14 30q11 22 29 17 q47 -17 74 -17q33 0 56 10.5t36.5 34t20.5 47t14 62.5l137 700q22 113 -26 186.5t-171 73.5q-108 0 -192.5 -76t-106.5 -184l-106 -553q0 -14 -17 -14h-57q-15 0 -12 12z" />
<glyph unicode="&#x14c;" horiz-adv-x="970" d="M106 360l109 578q31 153 135.5 246.5t267.5 93.5q172 0 265.5 -100.5t62.5 -255.5l-112 -594q-64 -342 -406 -342q-122 0 -203 53t-110 137t-9 184zM187.5 273q0.5 -43 17.5 -81t44.5 -67t75 -45.5t109.5 -16.5q136 0 213.5 73t100.5 196l110 594q14 73 -7 133.5 t-82.5 99.5t-156.5 39q-128 0 -207.5 -74.5t-101.5 -189.5l-110 -572q-6 -46 -5.5 -89zM451 1409l8 43q3 14 16 14h371q12 0 12 -14l-8 -43q-3 -12 -16 -12h-371q-8 0 -10.5 2.5t-1.5 9.5z" />
<glyph unicode="&#x14d;" horiz-adv-x="862" d="M82 328l45 250q30 148 124.5 235.5t244.5 87.5q152 0 235.5 -96.5t54.5 -245.5l-41 -240q-65 -329 -374 -329q-161 0 -240 94.5t-49 243.5zM164 317q-22 -116 37 -186t174 -70q112 0 185.5 68t98.5 190l41 238q22 112 -34 189.5t-174 80.5q-110 3 -184 -67.5t-97 -184.5z M301 1108l8 41q3 14 17 14h454q14 0 11 -14l-9 -41q-3 -14 -16 -14h-453q-15 0 -12 14z" />
<glyph unicode="&#x14e;" horiz-adv-x="970" d="M106 360l109 578q31 153 135.5 246.5t267.5 93.5q172 0 265.5 -100.5t62.5 -255.5l-112 -594q-64 -342 -406 -342q-122 0 -203 53t-110 137t-9 184zM187.5 273q0.5 -43 17.5 -81t44.5 -67t75 -45.5t109.5 -16.5q136 0 213.5 73t100.5 196l110 594q14 73 -7 133.5 t-82.5 99.5t-156.5 39q-128 0 -207.5 -74.5t-101.5 -189.5l-110 -572q-6 -46 -5.5 -89zM500 1554q0 17 16 17h25q5 0 7.5 -2t2.5 -4v-8v-5q-2 -69 35 -110t106 -41q65 0 119.5 41t79.5 108q4 8 6 11t6 6.5t10 3.5h25q14 0 10 -21q-23 -98 -96 -156.5t-168 -58.5 q-93 0 -147 61t-37 158z" />
<glyph unicode="&#x14f;" horiz-adv-x="862" d="M82 328l45 250q30 148 124.5 235.5t244.5 87.5q152 0 235.5 -96.5t54.5 -245.5l-41 -240q-65 -329 -374 -329q-161 0 -240 94.5t-49 243.5zM164 317q-22 -116 37 -186t174 -70q112 0 185.5 68t98.5 190l41 238q22 112 -34 189.5t-174 80.5q-110 3 -184 -67.5t-97 -184.5z M385 1251q0 6 4.5 11.5t11.5 5.5h25q6 0 8.5 -2t3 -4.5t0.5 -8.5v-2v-2q0 -67 38.5 -107t103.5 -40q62 0 120 39t80 104q7 20 10 21q3 2 9 2h30q13 0 9 -21q-23 -99 -98.5 -158t-172.5 -59q-86 0 -135.5 59t-46.5 162z" />
<glyph unicode="&#x150;" horiz-adv-x="970" d="M106 360l109 578q31 153 135.5 246.5t267.5 93.5q172 0 265.5 -100.5t62.5 -255.5l-112 -594q-64 -342 -406 -342q-122 0 -203 53t-110 137t-9 184zM187.5 273q0.5 -43 17.5 -81t44.5 -67t75 -45.5t109.5 -16.5q136 0 213.5 73t100.5 196l110 594q14 73 -7 133.5 t-82.5 99.5t-156.5 39q-128 0 -207.5 -74.5t-101.5 -189.5l-110 -572q-6 -46 -5.5 -89zM489 1376q2 5 13 13l260 184q20 14 33 -4l32 -45q6 -9 2.5 -17.5t-12.5 -13.5l-287 -152q-18 -11 -26 2l-12 19q-5 9 -3 14zM743 1368q-9 13 11 27l260 184q20 14 33 -4l32 -45 q6 -9 2.5 -17.5t-12.5 -13.5l-287 -151q-18 -11 -26 2z" />
<glyph unicode="&#x151;" horiz-adv-x="862" d="M82 328l45 250q30 148 124.5 235.5t244.5 87.5q152 0 235.5 -96.5t54.5 -245.5l-41 -240q-65 -329 -374 -329q-161 0 -240 94.5t-49 243.5zM164 317q-22 -116 37 -186t174 -70q112 0 185.5 68t98.5 190l41 238q22 112 -34 189.5t-174 80.5q-110 3 -184 -67.5t-97 -184.5z M408 1018q-13 8 0 26l186 256q18 21 39 7l41 -27q20 -14 4 -33l-227 -239q-16 -12 -29 -2zM639 1018q-13 8 0 26l186 256q18 21 39 7l41 -27q20 -14 4 -33l-227 -239q-16 -12 -29 -2z" />
<glyph unicode="&#x152;" horiz-adv-x="1282" d="M88 254q0 11 3 34t3 36q102 503 127 634q29 148 129.5 234t272.5 86q57 0 118 -14h596q13 0 13 -13v-4l-11 -47q0 -14 -16 -14h-526q-36 -194 -97 -496h455q12 0 12 -12v-4l-10 -49q-3 -13 -16 -13h-455q-30 -163 -104 -534h596q12 0 12 -10v-5l-8 -49q-4 -14 -19 -14 h-651q-14 0 -55 -6t-62 -6q-142 0 -224.5 71.5t-82.5 194.5zM182 279q0 -99 52.5 -158.5t162.5 -59.5q43 0 97 13l215 1112q-38 14 -93 14q-126 0 -207 -68.5t-102 -177.5l-117 -594q-10 -50 -8 -81z" />
<glyph unicode="&#x153;" horiz-adv-x="1429" d="M74 246q0 15 4 51l12 76l41 202q30 147 130 236.5t251 89.5q95 0 165.5 -42.5t100.5 -113.5h6q70 84 152.5 120t189.5 36t179.5 -59t72.5 -158q0 -56 -20.5 -101t-53.5 -76.5t-84 -55t-102 -37t-118 -23t-122 -13t-124 -5.5l-15 -80q-6 -35 -6 -51q0 -84 56.5 -132.5 t158.5 -48.5q60 0 121.5 28t104.5 71q17 17 28 6l33 -29q13 -10 2 -24q-60 -66 -131.5 -94.5t-173.5 -28.5q-94 0 -162.5 39t-99.5 106h-6q-60 -84 -132.5 -114.5t-169.5 -30.5q-136 0 -212 69.5t-76 186.5zM158 256q0 -91 56 -143t153 -52q115 0 191 66t101 190l50 256 q6 30 6 58q0 88 -55 141t-152 53q-113 0 -192 -70t-101 -180q-5 -27 -22 -100t-26 -125.5t-9 -93.5zM768 444q75 1 140.5 6.5t138.5 21t125 38.5t86 62.5t34 91.5q0 68 -43 115.5t-139 47.5q-134 0 -214 -76t-103 -186z" />
<glyph unicode="&#x154;" horiz-adv-x="952" d="M43 12l240 1233q4 17 24 17h357q152 0 228.5 -72t76.5 -199q0 -276 -275 -422q-8 -8 -8 -10t1 -5t1 -5l148 -526q5 -23 -17 -23h-49q-23 0 -29 20l-145 533h-356l-107 -539q-2 -8 -4.5 -11t-11.5 -3h-58q-8 0 -12.5 2.5t-3.5 9.5zM252 631h360q25 0 45 10 q106 48 165 140.5t59 193.5q0 43 -11.5 78.5t-37.5 66.5t-74.5 48.5t-116.5 17.5h-279zM542 1384q2 5 13 13l260 184q20 14 33 -4l33 -45q5 -9 2 -17.5t-13 -13.5l-286 -151q-19 -11 -27 2l-12 18q-5 9 -3 14z" />
<glyph unicode="&#x155;" horiz-adv-x="530" d="M35 12l168 865q3 14 18 14h51q14 0 11 -14l-23 -117h6q54 70 141.5 110t182.5 29q17 -3 8 -20l-23 -60q-6 -12 -24 -12q-133 4 -217 -63t-109 -193l-104 -537q-3 -14 -15 -14h-57q-7 0 -11 3t-3 9zM350 1018q-13 8 0 26l187 256q17 21 38 7l41 -27q20 -15 5 -33 l-228 -239q-16 -12 -28 -2z" />
<glyph unicode="&#x156;" horiz-adv-x="952" d="M43 12l240 1233q4 17 24 17h357q152 0 228.5 -72t76.5 -199q0 -276 -275 -422q-8 -8 -8 -10t1 -5t1 -5l148 -526q5 -23 -17 -23h-49q-23 0 -29 20l-145 533h-356l-107 -539q-2 -8 -4.5 -11t-11.5 -3h-58q-8 0 -12.5 2.5t-3.5 9.5zM252 631h360q25 0 45 10 q106 48 165 140.5t59 193.5q0 43 -11.5 78.5t-37.5 66.5t-74.5 48.5t-116.5 17.5h-279zM264 -383l72 285q7 18 22 18h78q27 0 13 -26l-125 -283q-8 -17 -23 -17h-27q-17 0 -10 23z" />
<glyph unicode="&#x157;" horiz-adv-x="530" d="M-76 -395l72 284q8 19 22 19h78q28 0 13 -27l-125 -282q-8 -17 -23 -17h-27q-17 0 -10 23zM35 12l168 865q3 14 18 14h51q14 0 11 -14l-23 -117h6q54 70 141.5 110t182.5 29q17 -3 8 -20l-23 -60q-6 -12 -24 -12q-133 4 -217 -63t-109 -193l-104 -537q-3 -14 -15 -14h-57 q-7 0 -11 3t-3 9z" />
<glyph unicode="&#x158;" horiz-adv-x="952" d="M43 12l240 1233q4 17 24 17h357q152 0 228.5 -72t76.5 -199q0 -276 -275 -422q-8 -8 -8 -10t1 -5t1 -5l148 -526q5 -23 -17 -23h-49q-23 0 -29 20l-145 533h-356l-107 -539q-2 -8 -4.5 -11t-11.5 -3h-58q-8 0 -12.5 2.5t-3.5 9.5zM252 631h360q25 0 45 10 q106 48 165 140.5t59 193.5q0 43 -11.5 78.5t-37.5 66.5t-74.5 48.5t-116.5 17.5h-279zM403 1546q-10 14 5 23l22 14q13 6 23 -4l159 -152l240 154q13 8 25 0l20 -18q11 -8 -4 -19l-229 -184q-20 -17 -46 -17h-36q-26 0 -37 17z" />
<glyph unicode="&#x159;" horiz-adv-x="530" d="M35 12l168 865q3 14 18 14h51q14 0 11 -14l-23 -117h6q54 70 141.5 110t182.5 29q17 -3 8 -20l-23 -60q-6 -12 -24 -12q-133 4 -217 -63t-109 -193l-104 -537q-3 -14 -15 -14h-57q-7 0 -11 3t-3 9zM164 1260q-11 14 4 26l18 14q15 10 27 -2l162 -206l250 206 q11 7 14.5 8.5t11.5 -3.5l15 -15q10 -10 -2 -24l-240 -240q-19 -16 -37 -16h-51q-16 0 -27 16z" />
<glyph unicode="&#x15a;" horiz-adv-x="874" d="M18 106q-8 9 5 25l28 33q13 14 29 -2q38 -39 118 -67.5t160 -28.5q95 0 174 32.5t129 101t50 162.5q0 49 -17.5 89t-52 70.5t-70.5 51t-88 43.5q-128 60 -173 89q-140 92 -140 227q0 88 36 157t95.5 109t128 60t141.5 20q197 0 301 -98q10 -10 -2 -25q-27 -36 -28 -37 q-12 -15 -27 0q-99 82 -244 82q-51 0 -102.5 -14t-100 -42.5t-78.5 -81.5t-30 -122q0 -44 21.5 -82t62.5 -67.5t76.5 -48t87.5 -40.5q66 -29 114 -58t92.5 -68t67.5 -89.5t23 -111.5q0 -97 -37 -173t-101 -121.5t-145.5 -69t-175.5 -23.5q-96 0 -188.5 31t-139.5 87z M507 1388q2 5 13 13l260 184q20 14 33 -4l33 -45q6 -9 2.5 -17.5t-12.5 -13.5l-287 -151q-19 -11 -27 2l-12 18q-5 9 -3 14z" />
<glyph unicode="&#x15b;" horiz-adv-x="696" d="M14 152q-4 13 9 18l47 20q13 8 18 -6q22 -56 79 -90.5t130 -34.5q98 0 162.5 47.5t64.5 135.5q0 33 -14 60t-41.5 48t-53 34.5t-63.5 29.5q-109 44 -147 69q-101 65 -101 172q0 79 43 136.5t107.5 83.5t140.5 26q181 0 269 -108q9 -9 -5 -23l-34 -33q-6 -5 -14.5 -4 t-12.5 8q-31 38 -89.5 63t-117.5 25q-78 0 -138 -43t-60 -122q0 -33 14 -59.5t47 -48t50.5 -30t61.5 -26.5q6 -3 9 -4q50 -21 86 -40.5t74.5 -49t58.5 -68.5t20 -86q0 -127 -91.5 -195.5t-227.5 -68.5q-100 0 -174 41t-107 123zM362 1024q-13 9 0 27l187 256q17 21 39 6 l41 -27q20 -14 4 -33l-227 -239q-16 -12 -29 -2z" />
<glyph unicode="&#x15c;" horiz-adv-x="874" d="M18 106q-8 9 5 25l28 33q13 14 29 -2q38 -39 118 -67.5t160 -28.5q95 0 174 32.5t129 101t50 162.5q0 49 -17.5 89t-52 70.5t-70.5 51t-88 43.5q-128 60 -173 89q-140 92 -140 227q0 88 36 157t95.5 109t128 60t141.5 20q197 0 301 -98q10 -10 -2 -25q-27 -36 -28 -37 q-12 -15 -27 0q-99 82 -244 82q-51 0 -102.5 -14t-100 -42.5t-78.5 -81.5t-30 -122q0 -44 21.5 -82t62.5 -67.5t76.5 -48t87.5 -40.5q66 -29 114 -58t92.5 -68t67.5 -89.5t23 -111.5q0 -97 -37 -173t-101 -121.5t-145.5 -69t-175.5 -23.5q-96 0 -188.5 31t-139.5 87z M332 1366q-7 10 4 18l229 185q19 16 45 16h37q26 0 37 -16l141 -187q10 -14 -4 -22l-22 -14q-13 -6 -23 4l-155 151l-244 -153q-17 -12 -27 -2z" />
<glyph unicode="&#x15d;" horiz-adv-x="696" d="M14 152q-4 13 9 18l47 20q13 8 18 -6q22 -56 79 -90.5t130 -34.5q98 0 162.5 47.5t64.5 135.5q0 33 -14 60t-41.5 48t-53 34.5t-63.5 29.5q-109 44 -147 69q-101 65 -101 172q0 79 43 136.5t107.5 83.5t140.5 26q181 0 269 -108q9 -9 -5 -23l-34 -33q-6 -5 -14.5 -4 t-12.5 8q-31 38 -89.5 63t-117.5 25q-78 0 -138 -43t-60 -122q0 -33 14 -59.5t47 -48t50.5 -30t61.5 -26.5q6 -3 9 -4q50 -21 86 -40.5t74.5 -49t58.5 -68.5t20 -86q0 -127 -91.5 -195.5t-227.5 -68.5q-100 0 -174 41t-107 123zM190 1030q-9 11 5 25l239 239q17 17 35 17h51 q15 0 29 -17l141 -239q10 -16 -6 -27l-14 -10q-13 -10 -25 2l-160 207l-254 -207q-18 -12 -26 -4z" />
<glyph unicode="&#x15e;" horiz-adv-x="874" d="M18 106q-8 9 5 25l28 33q13 14 29 -2q38 -39 118 -67.5t160 -28.5q95 0 174 32.5t129 101t50 162.5q0 49 -17.5 89t-52 70.5t-70.5 51t-88 43.5q-128 60 -173 89q-140 92 -140 227q0 88 36 157t95.5 109t128 60t141.5 20q197 0 301 -98q10 -10 -2 -25q-27 -36 -28 -37 q-12 -15 -27 0q-99 82 -244 82q-51 0 -102.5 -14t-100 -42.5t-78.5 -81.5t-30 -122q0 -44 21.5 -82t62.5 -67.5t76.5 -48t87.5 -40.5q66 -29 114 -58t92.5 -68t67.5 -89.5t23 -111.5q0 -118 -54 -203t-140.5 -128t-198.5 -52l-50 -107h44q65 0 103 -30.5t38 -85.5 q0 -75 -52 -120.5t-141 -45.5q-82 0 -135 37q-14 10 -8 18l18 29q7 11 19 2q16 -13 47.5 -23t60.5 -10q61 0 94 27t33 75q0 32 -22 52t-70 20h-61q-35 0 -35 25q0 4 4 16l55 117h-8q-96 0 -188.5 31t-139.5 87z" />
<glyph unicode="&#x15f;" horiz-adv-x="696" d="M14 152q-4 13 9 18l47 20q13 8 18 -6q22 -56 79 -90.5t130 -34.5q98 0 162.5 47.5t64.5 135.5q0 33 -14 60t-41.5 48t-53 34.5t-63.5 29.5q-109 44 -147 69q-101 65 -101 172q0 79 43 136.5t107.5 83.5t140.5 26q181 0 269 -108q9 -9 -5 -23l-34 -33q-6 -5 -14.5 -4 t-12.5 8q-31 38 -89.5 63t-117.5 25q-78 0 -138 -43t-60 -122q0 -33 14 -59.5t47 -48t50.5 -30t61.5 -26.5q6 -3 9 -4q50 -21 86 -40.5t74.5 -49t58.5 -68.5t20 -86q0 -123 -85.5 -191t-215.5 -73l-49 -103h43q65 0 103.5 -30.5t38.5 -85.5q0 -75 -52 -120.5t-141 -45.5 q-82 0 -135 37q-14 10 -8 18l18 29q7 11 19 2q16 -13 47.5 -23t60.5 -10q61 0 94 27t33 75q0 32 -22 52t-70 20h-62q-34 0 -34 25q0 4 4 16l55 119q-86 6 -149 47t-93 115z" />
<glyph unicode="&#x160;" horiz-adv-x="874" d="M18 106q-8 9 5 25l28 33q13 14 29 -2q38 -39 118 -67.5t160 -28.5q95 0 174 32.5t129 101t50 162.5q0 49 -17.5 89t-52 70.5t-70.5 51t-88 43.5q-128 60 -173 89q-140 92 -140 227q0 88 36 157t95.5 109t128 60t141.5 20q197 0 301 -98q10 -10 -2 -25q-27 -36 -28 -37 q-12 -15 -27 0q-99 82 -244 82q-51 0 -102.5 -14t-100 -42.5t-78.5 -81.5t-30 -122q0 -44 21.5 -82t62.5 -67.5t76.5 -48t87.5 -40.5q66 -29 114 -58t92.5 -68t67.5 -89.5t23 -111.5q0 -97 -37 -173t-101 -121.5t-145.5 -69t-175.5 -23.5q-96 0 -188.5 31t-139.5 87z M397 1556q-11 14 4 23l23 14q12 6 22 -4l160 -151l240 153q13 8 24 0l21 -18q11 -8 -4 -19l-230 -184q-19 -16 -45 -16h-37q-25 0 -36 16z" />
<glyph unicode="&#x161;" horiz-adv-x="696" d="M14 152q-4 13 9 18l47 20q13 8 18 -6q22 -56 79 -90.5t130 -34.5q98 0 162.5 47.5t64.5 135.5q0 33 -14 60t-41.5 48t-53 34.5t-63.5 29.5q-109 44 -147 69q-101 65 -101 172q0 79 43 136.5t107.5 83.5t140.5 26q181 0 269 -108q9 -9 -5 -23l-34 -33q-6 -5 -14.5 -4 t-12.5 8q-31 38 -89.5 63t-117.5 25q-78 0 -138 -43t-60 -122q0 -33 14 -59.5t47 -48t50.5 -30t61.5 -26.5q6 -3 9 -4q50 -21 86 -40.5t74.5 -49t58.5 -68.5t20 -86q0 -127 -91.5 -195.5t-227.5 -68.5q-100 0 -174 41t-107 123zM264 1260q-11 14 4 26l19 14q14 10 26 -2 l162 -206l250 206q19 13 27 5l14 -15q10 -10 -2 -24l-240 -240q-19 -16 -37 -16h-51q-15 0 -26 16z" />
<glyph unicode="&#x162;" horiz-adv-x="819" d="M147 -342l19 29q7 10 18 2q16 -13 48 -23t61 -10q61 0 94 27t33 75q0 32 -22 52t-70 20h-62q-35 0 -35 25q0 1 5 16l61 129q-17 0 -14 14l227 1172h-324q-8 0 -10.5 2.5t-1.5 11.5l8 47q7 17 19 17h741q16 0 12 -15l-10 -49q0 -14 -18 -14h-326l-229 -1172 q-3 -14 -17 -14h-2l-53 -115h43q65 0 103 -30.5t38 -85.5q0 -76 -51.5 -121t-140.5 -45q-82 0 -135 37q-15 10 -9 18z" />
<glyph unicode="&#x163;" horiz-adv-x="569" d="M27 -317l18 28q7 10 18 2q16 -13 47.5 -22.5t61.5 -9.5q61 0 94 27t33 75q0 32 -22 52t-70 20h-62q-34 0 -34 24q0 5 4 17l61 127q-68 57 -37 210l113 584h-127q-15 0 -12 14l10 46q0 14 14 14h129l45 225q0 14 17 17l59 14q8 1 11 -3t1 -11l-47 -242h242q10 0 10 -14 l-10 -46q-4 -14 -16 -14h-240l-111 -569q-19 -99 2.5 -140.5t100.5 -41.5q59 0 133 18q11 3 15.5 -1.5t2.5 -12.5v-41q0 -11 -2.5 -14.5t-11.5 -6.5q-51 -20 -166 -20q-47 0 -82 12l-41 -90h43q65 0 103 -31t38 -86q0 -76 -51.5 -121t-140.5 -45q-82 0 -135 37q-15 10 -8 19 z" />
<glyph unicode="&#x164;" horiz-adv-x="819" d="M174 1200l8 47q7 17 19 17h741q16 0 12 -15l-10 -49q0 -14 -18 -14h-326l-229 -1172q-3 -14 -17 -14h-55q-8 0 -12.5 3.5t-3.5 10.5l227 1172h-324q-8 0 -10.5 2.5t-1.5 11.5zM375 1548q-11 14 4 23l22 14q13 6 23 -4l160 -151l239 153q13 8 25 0l20 -18q11 -8 -4 -19 l-229 -184q-19 -16 -45 -16h-37q-26 0 -37 16z" />
<glyph unicode="&#x165;" horiz-adv-x="618" d="M113 831l10 46q0 14 14 14h129l45 225q0 14 17 17l59 14q8 1 11 -3t1 -11l-47 -242h242q10 0 10 -14l-10 -46q-4 -14 -16 -14h-240l-111 -569q-19 -99 2.5 -140.5t100.5 -41.5q59 0 133 18q11 3 15.5 -1.5t2.5 -12.5v-41q0 -11 -2.5 -14.5t-11.5 -6.5q-51 -20 -166 -20 q-80 0 -122.5 33t-47 87.5t7.5 124.5l113 584h-127q-15 0 -12 14zM553 1042l72 285q8 19 22 19h78q27 0 12 -27l-125 -283q-8 -16 -22 -16h-27q-16 0 -10 22z" />
<glyph unicode="&#x166;" horiz-adv-x="819" d="M170 1200l10 47q3 17 17 17h741q16 0 12 -15l-10 -49q-3 -14 -16 -14h-330l-80 -412h234q13 0 10 -16l-4 -29q-3 -14 -19 -14h-233l-135 -701q-3 -14 -17 -14h-55q-8 0 -12.5 3.5t-3.5 10.5l135 701h-230q-13 0 -10 14l4 29q3 16 19 16h229l80 412h-324q-8 0 -10.5 2.5 t-1.5 11.5z" />
<glyph unicode="&#x167;" horiz-adv-x="575" d="M80 616l6 31q3 17 14 17h138l30 153h-129q-12 0 -12 14l10 46q3 14 15 14h131l43 225q4 14 18 17l57 14q8 1 11.5 -3t1.5 -11l-47 -242h241q13 0 10 -14l-10 -46q0 -14 -14 -14h-242l-30 -153h241q14 0 10 -15l-6 -33q-3 -14 -14 -14h-242l-69 -354q-19 -96 5 -138 t99 -42q65 0 131 16q11 3 15 -0.5t6 -13.5l4 -41q0 -9 -3.5 -12.5t-13.5 -6.5q-51 -20 -168 -20q-80 0 -122 32.5t-46.5 86.5t7.5 124l71 369h-135q-15 0 -12 14z" />
<glyph unicode="&#x168;" horiz-adv-x="983" d="M106 362l173 887q3 15 18 15h57q7 0 11 -4.5t2 -10.5l-174 -895q-15 -77 2 -141t78 -107t161 -43q135 0 213.5 74t102.5 193q35 178 107.5 548t72.5 371q3 15 18 15h58q16 0 12 -15l-180 -923q-31 -157 -132.5 -248.5t-277.5 -91.5q-179 0 -266.5 108.5t-55.5 267.5z M403 1411q-9 7 3 23q67 88 155 88q42 0 110 -36t99 -36q65 0 111 55q9 12 20 4l33 -16q11 -7 -2 -23q-65 -88 -170 -88q-44 0 -112 36t-103 36q-50 0 -92 -55q-12 -16 -25 -6z" />
<glyph unicode="&#x169;" horiz-adv-x="872" d="M77 224q0 49 9 102l107 551q3 14 16 14h59q11 0 8 -14l-106 -555q-22 -111 26 -183.5t171 -72.5q108 0 192 75.5t105 182.5l106 553q4 14 18 14h58q15 0 12 -14l-168 -863q-3 -14 -16 -14h-58q-13 0 -10 12l21 99l-6 -2q-50 -58 -127.5 -88.5t-153.5 -30.5q-67 0 -118 18 t-80.5 50t-47 74.5t-17.5 91.5zM297 1104q-9 7 2 22q67 88 156 88q42 0 110 -35.5t99 -35.5q64 0 110 55q9 13 21 4l32 -16q11 -7 -2 -23q-65 -88 -170 -88q-45 0 -112 36t-103 36q-50 0 -92 -55q-12 -16 -24 -7z" />
<glyph unicode="&#x16a;" horiz-adv-x="983" d="M106 362l173 887q3 15 18 15h57q7 0 11 -4.5t2 -10.5l-174 -895q-15 -77 2 -141t78 -107t161 -43q135 0 213.5 74t102.5 193q35 178 107.5 548t72.5 371q3 15 18 15h58q16 0 12 -15l-180 -923q-31 -157 -132.5 -248.5t-277.5 -91.5q-179 0 -266.5 108.5t-55.5 267.5z M461 1409l8 43q3 14 16 14h371q12 0 12 -14l-8 -43q-3 -12 -16 -12h-371q-8 0 -10.5 2.5t-1.5 9.5z" />
<glyph unicode="&#x16b;" horiz-adv-x="872" d="M77 224q0 49 9 102l107 551q3 14 16 14h59q11 0 8 -14l-106 -555q-22 -111 26 -183.5t171 -72.5q108 0 192 75.5t105 182.5l106 553q4 14 18 14h58q15 0 12 -14l-168 -863q-3 -14 -16 -14h-58q-13 0 -10 12l21 99l-6 -2q-50 -58 -127.5 -88.5t-153.5 -30.5q-67 0 -118 18 t-80.5 50t-47 74.5t-17.5 91.5zM336 1108l8 41q4 14 16 14h455q13 0 10 -14l-8 -41q-3 -14 -16 -14h-453q-15 0 -12 14z" />
<glyph unicode="&#x16c;" horiz-adv-x="983" d="M106 362l173 887q3 15 18 15h57q7 0 11 -4.5t2 -10.5l-174 -895q-15 -77 2 -141t78 -107t161 -43q135 0 213.5 74t102.5 193q35 178 107.5 548t72.5 371q3 15 18 15h58q16 0 12 -15l-180 -923q-31 -157 -132.5 -248.5t-277.5 -91.5q-179 0 -266.5 108.5t-55.5 267.5z M451 1559q0 16 16 16h25q6 0 8.5 -2t3 -4.5t0.5 -8.5v-2v-2q0 -67 38 -107t103 -40q62 0 120.5 39t80.5 104l2.5 7.5t2 6.5t1.5 4t2.5 3t3.5 1.5t6 0.5h31q12 0 8 -21q-23 -100 -98 -158.5t-172 -58.5q-86 0 -135.5 59.5t-46.5 162.5z" />
<glyph unicode="&#x16d;" horiz-adv-x="872" d="M77 224q0 49 9 102l107 551q3 14 16 14h59q11 0 8 -14l-106 -555q-22 -111 26 -183.5t171 -72.5q108 0 192 75.5t105 182.5l106 553q4 14 18 14h58q15 0 12 -14l-168 -863q-3 -14 -16 -14h-58q-13 0 -10 12l21 99l-6 -2q-50 -58 -127.5 -88.5t-153.5 -30.5q-67 0 -118 18 t-80.5 50t-47 74.5t-17.5 91.5zM354 1251q0 6 5 11.5t12 5.5h24q5 0 8 -1t4 -4.5t1 -5v-8.5q0 -67 38 -107t103 -40q62 0 120.5 39t80.5 104l2.5 7.5t2 6.5t1.5 4t2.5 3t3.5 1.5t6 0.5h31q12 0 8 -21q-23 -100 -98 -158.5t-172 -58.5q-86 0 -136 59t-47 162z" />
<glyph unicode="&#x16e;" horiz-adv-x="983" d="M106 362l173 887q3 15 18 15h57q7 0 11 -4.5t2 -10.5l-174 -895q-15 -77 2 -141t78 -107t161 -43q135 0 213.5 74t102.5 193q35 178 107.5 548t72.5 371q3 15 18 15h58q16 0 12 -15l-180 -923q-31 -157 -132.5 -248.5t-277.5 -91.5q-179 0 -266.5 108.5t-55.5 267.5z M512 1460q0 74 48 124t116 50q53 0 89 -34t36 -87q0 -73 -50 -120t-120 -47q-51 0 -85 34t-34 80zM567 1473q0 -31 20.5 -52.5t51.5 -21.5q41 0 73.5 31.5t32.5 76.5q0 33 -21 53.5t-52 20.5q-42 0 -73.5 -31.5t-31.5 -76.5z" />
<glyph unicode="&#x16f;" horiz-adv-x="872" d="M77 224q0 49 9 102l107 551q3 14 16 14h59q11 0 8 -14l-106 -555q-22 -111 26 -183.5t171 -72.5q108 0 192 75.5t105 182.5l106 553q4 14 18 14h58q15 0 12 -14l-168 -863q-3 -14 -16 -14h-58q-13 0 -10 12l21 99l-6 -2q-50 -58 -127.5 -88.5t-153.5 -30.5q-67 0 -118 18 t-80.5 50t-47 74.5t-17.5 91.5zM422 1128q0 74 48 124.5t116 50.5q53 0 89 -34t36 -87q0 -73 -50.5 -120.5t-119.5 -47.5q-51 0 -85 34t-34 80zM477 1141q0 -31 20.5 -52.5t51.5 -21.5q41 0 73.5 32t32.5 77q0 33 -21 53t-52 20q-42 0 -73.5 -31.5t-31.5 -76.5z" />
<glyph unicode="&#x170;" horiz-adv-x="983" d="M106 362l173 887q3 15 18 15h57q7 0 11 -4.5t2 -10.5l-174 -895q-15 -77 2 -141t78 -107t161 -43q135 0 213.5 74t102.5 193q35 178 107.5 548t72.5 371q3 15 18 15h58q16 0 12 -15l-180 -923q-31 -157 -132.5 -248.5t-277.5 -91.5q-179 0 -266.5 108.5t-55.5 267.5z M431 1376q2 5 13 13l261 184q20 13 32 -4l33 -45q6 -9 2.5 -17.5t-12.5 -13.5l-287 -152q-19 -11 -27 2l-12 19q-5 9 -3 14zM683 1382q2 5 13 13l260 184q20 14 33 -4l33 -45q6 -9 2.5 -17.5t-12.5 -13.5l-287 -151q-19 -11 -27 2l-12 18q-5 9 -3 14z" />
<glyph unicode="&#x171;" horiz-adv-x="872" d="M77 224q0 49 9 102l107 551q3 14 16 14h59q11 0 8 -14l-106 -555q-22 -111 26 -183.5t171 -72.5q108 0 192 75.5t105 182.5l106 553q4 14 18 14h58q15 0 12 -14l-168 -863q-3 -14 -16 -14h-58q-13 0 -10 12l21 99l-6 -2q-50 -58 -127.5 -88.5t-153.5 -30.5q-67 0 -118 18 t-80.5 50t-47 74.5t-17.5 91.5zM360 1018q-13 8 0 26l187 256q18 21 39 7l41 -27q20 -14 4 -33l-228 -239q-16 -12 -28 -2zM592 1018q-13 8 0 26l186 256q18 21 39 7l41 -27q20 -14 4 -33l-227 -239q-16 -12 -29 -2z" />
<glyph unicode="&#x172;" horiz-adv-x="983" d="M106 362l173 887q3 15 18 15h57q7 0 11 -4.5t2 -10.5l-174 -895q-15 -77 2 -141t78 -107t161 -43q135 0 213.5 74t102.5 193q35 178 107.5 548t72.5 371q3 15 18 15h58q16 0 12 -15l-180 -923q-31 -153 -127 -243.5t-262 -96.5q-67 -52 -108.5 -117t-41.5 -121 q0 -63 78 -63q43 0 123 45q8 4 10 4q5 0 8 -6l12 -19q1 -2 2 -3.5t2 -2.5t1 -2q0 -3 -9 -12q-84 -66 -170 -66q-64 0 -97.5 29t-33.5 82q0 63 43 135.5t103 120.5q-152 17 -223.5 122.5t-41.5 249.5z" />
<glyph unicode="&#x173;" horiz-adv-x="872" d="M77 224q0 49 9 102l107 551q3 14 16 14h59q11 0 8 -14l-106 -555q-22 -111 26 -183.5t171 -72.5q108 0 192 75.5t105 182.5l106 553q4 14 18 14h58q15 0 12 -14l-168 -863q-3 -14 -16 -14h-25q-69 -54 -112 -120.5t-43 -123.5q0 -63 77 -63q43 0 123 45q8 4 11 4 q5 0 8 -6l12 -19l4 -8q0 -4 -8 -12q-84 -66 -170 -66q-64 0 -97.5 29t-33.5 82q0 71 54.5 152.5t121.5 123.5l12 9l19 84l-6 -2q-50 -58 -127.5 -88.5t-153.5 -30.5q-67 0 -118 18t-80.5 50t-47 74.5t-17.5 91.5z" />
<glyph unicode="&#x174;" horiz-adv-x="1298" d="M164 1245q0 19 16 19h58q14 0 14 -17l18 -780l4 -340h11q6 18 70.5 174t66.5 162l326 788q9 13 22 13h66q16 0 16 -19q0 -41 16 -413.5t17 -393.5l8 -311h8l127 319l322 803q8 15 22 15h66q18 0 8 -23l-508 -1229q-6 -12 -18 -12h-89q-12 0 -12 12l-31 803l-10 291h-6 q-5 -16 -61.5 -152.5t-59.5 -144.5l-332 -797q-5 -12 -18 -12h-86q-11 0 -14 10zM553 1341q-8 10 4 19l229 184q20 17 45 17h37q26 0 37 -17l142 -186q10 -14 -5 -23l-22 -14q-13 -6 -23 4l-155 152l-244 -154q-17 -12 -27 -2z" />
<glyph unicode="&#x175;" horiz-adv-x="1167" d="M100 868v6q0 15 17 15h51q11 0 14.5 -4.5t5.5 -14.5l111 -772h6l273 541q3 7 10.5 21t11.5 24.5t4 20.5q0 5 -1 16t-1 18l-18 129v6q0 15 16 15h49q20 0 23 -19l102 -768h6q46 97 133.5 276t124.5 257q28 59 35.5 100.5t7.5 98.5q0 3 -1 13.5t-0.5 17t2 14.5t7.5 12t15 4 h41q11 0 16.5 -4.5t6.5 -9t1 -13.5q2 -85 -10.5 -139.5t-50.5 -130.5l-281 -573q-13 -25 -41 -25h-51q-17 0 -21 4t-7 23l-78 542q-1 0 -2 -1t-2 -1q-91 -187 -273 -542q-12 -25 -39 -25h-53q-16 0 -21 4.5t-8 22.5q-79 517 -131 841zM379 1030q-9 12 4 25l240 239 q17 17 34 17h52q14 0 28 -17l142 -239q10 -16 -7 -27l-14 -10q-12 -10 -24 2l-160 207l-254 -207q-19 -12 -27 -4z" />
<glyph unicode="&#x176;" horiz-adv-x="815" d="M178 1243q-5 21 17 21h51q15 0 22 -17l160 -653h6q14 23 204 321t210 332q20 16 29 17h63q11 0 13 -6t-7 -17l-471 -725q-14 -24 -18 -49l-88 -453q-3 -14 -17 -14h-57q-17 0 -14 14l86 443q6 32 2 51zM326 1341q-8 10 4 19l229 184q20 17 45 17h37q26 0 37 -17l141 -186 q11 -14 -4 -23l-22 -14q-13 -6 -23 4l-156 152l-243 -154q-17 -12 -27 -2z" />
<glyph unicode="&#x177;" horiz-adv-x="755" d="M78 -346l182 344h-18q-16 0 -20 5t-7 22l-127 843q0 21 16 21h46q21 0 24 -19l119 -798h4l299 559q22 42 32.5 85t11.5 67.5t1 82.5q0 25 23 25h41q16 0 20 -6.5t4 -20.5q0 -89 -11 -143.5t-50 -126.5l-500 -946q-13 -21 -35 -21h-45q-22 0 -10 27zM205 1030q-9 12 4 25 l240 239q17 17 34 17h52q14 0 28 -17l142 -239q10 -16 -7 -27l-14 -10q-13 -10 -25 2l-159 207l-254 -207q-19 -12 -27 -4z" />
<glyph unicode="&#x178;" horiz-adv-x="815" d="M178 1243q-5 21 17 21h51q15 0 22 -17l160 -653h6q14 23 204 321t210 332q20 16 29 17h63q11 0 13 -6t-7 -17l-471 -725q-14 -24 -18 -49l-88 -453q-3 -14 -17 -14h-57q-17 0 -14 14l86 443q6 32 2 51zM375 1436q3 27 25 47t49 20q23 0 36.5 -16t10.5 -39 q-3 -27 -25 -47.5t-47 -20.5q-22 0 -36 16.5t-13 39.5zM690 1436q3 28 24.5 47.5t47.5 19.5q23 0 37 -15.5t12 -39.5q-3 -28 -24.5 -48t-47.5 -20q-24 0 -37.5 16t-11.5 40z" />
<glyph unicode="&#x179;" horiz-adv-x="792" d="M-49 18l6 33q3 21 16 39l830 1096h-578q-17 0 -14 16l8 45q3 17 19 17h657q21 0 18 -21l-4 -31q-2 -18 -22 -43l-821 -1089h614q18 0 14 -17l-10 -47q-3 -16 -16 -16h-699q-21 0 -18 18zM476 1386q2 5 13 13l261 184q20 13 32 -4l33 -45q6 -9 2.5 -17.5t-12.5 -13.5 l-287 -151q-18 -11 -26 2l-13 18q-5 9 -3 14z" />
<glyph unicode="&#x17a;" horiz-adv-x="684" d="M-37 18l6 29q3 19 13 33l618 737h-448q-18 0 -15 14l10 43q0 17 17 17h530q19 0 19 -21l-6 -30q-3 -21 -15 -33l-614 -733h487q9 0 12.5 -4.5t0.5 -10.5l-7 -45q-3 -14 -18 -14h-573q-20 0 -17 18zM397 1018q-13 8 0 26l187 256q18 21 39 7l41 -27q20 -14 4 -33 l-228 -239q-16 -12 -28 -2z" />
<glyph unicode="&#x17b;" horiz-adv-x="792" d="M-49 18l6 33q3 21 16 39l830 1096h-578q-17 0 -14 16l8 45q3 17 19 17h657q21 0 18 -21l-4 -31q-2 -18 -22 -43l-821 -1089h614q18 0 14 -17l-10 -47q-3 -16 -16 -16h-699q-21 0 -18 18zM524 1458q6 26 27.5 44t46.5 18q24 0 37.5 -18t7.5 -44q-4 -26 -24.5 -43.5 t-45.5 -17.5t-39.5 18t-9.5 43z" />
<glyph unicode="&#x17c;" horiz-adv-x="684" d="M-37 18l6 29q3 19 13 33l618 737h-448q-18 0 -15 14l10 43q0 17 17 17h530q19 0 19 -21l-6 -30q-3 -21 -15 -33l-614 -733h487q9 0 12.5 -4.5t0.5 -10.5l-7 -45q-3 -14 -18 -14h-573q-20 0 -17 18zM420 1149q6 26 27.5 43.5t46.5 17.5q24 0 37.5 -17.5t7.5 -43.5 q-4 -26 -24.5 -44t-45.5 -18t-39.5 18.5t-9.5 43.5z" />
<glyph unicode="&#x17d;" horiz-adv-x="792" d="M-49 18l6 33q3 21 16 39l830 1096h-578q-17 0 -14 16l8 45q3 17 19 17h657q21 0 18 -21l-4 -31q-2 -18 -22 -43l-821 -1089h614q18 0 14 -17l-10 -47q-3 -16 -16 -16h-699q-21 0 -18 18zM369 1526q-10 14 4 22l22 15q13 6 23 -4l160 -152l239 154q13 8 25 0l20 -19 q10 -8 -4 -18l-229 -185q-19 -16 -45 -16h-37q-26 0 -37 16z" />
<glyph unicode="&#x17e;" horiz-adv-x="684" d="M-37 18l6 29q3 19 13 33l618 737h-448q-18 0 -15 14l10 43q0 17 17 17h530q19 0 19 -21l-6 -30q-3 -21 -15 -33l-614 -733h487q9 0 12.5 -4.5t0.5 -10.5l-7 -45q-3 -14 -18 -14h-573q-20 0 -17 18zM266 1260q-11 14 4 26l19 14q14 10 26 -2l162 -206l250 206q19 13 27 5 l14 -15q10 -10 -2 -24l-240 -240q-19 -16 -37 -16h-51q-15 0 -26 16z" />
<glyph unicode="&#x192;" horiz-adv-x="911" d="M-39 -176q0 4 2 8l21 51q7 11 12 11q4 0 10 -3q50 -16 84 -16q86 0 131.5 52t79.5 186l135 553h-174q-14 0 -14 10q0 8 1 25t1 22q3 16 20 16h185l55 226q77 311 309 311q75 0 131 -19q15 -3 15 -12q0 -4 -2 -8q-3 -9 -10.5 -25.5t-10.5 -25.5q-7 -10 -12 -10q-8 0 -12 2 q-39 16 -103 16q-52 0 -90 -19.5t-63.5 -60t-40.5 -81.5t-31 -105l-47 -189h200q17 0 17 -16l-4 -43q-3 -14 -17 -14h-215l-118 -490q-47 -203 -114 -293t-194 -90q-76 0 -125 19q-12 3 -12 12z" />
<glyph unicode="&#x1fc;" horiz-adv-x="1339" d="M0 8q0 1 0.5 2.5l1.5 4.5t2 5q93 203 279.5 612.5t279.5 612.5q8 19 25 19h745q15 0 15 -17l-7 -47q-3 -14 -16 -14h-522l-51 -494h469q16 0 12 -16l-2 -49q-3 -15 -17 -15h-469l-53 -534h606q16 0 13 -15l-4 -47q0 -16 -17 -16h-682q-16 0 -16 14l33 312h-389l-142 -312 q-6 -14 -18 -14h-64q-12 0 -12 8zM272 403h363l86 783h-103q-69 -154 -200.5 -453t-145.5 -330zM865 1405q2 4 14 12l260 185q19 13 32 -5l33 -45q12 -19 -10 -30l-287 -152q-18 -11 -26 2l-13 19q-5 10 -3 14z" />
<glyph unicode="&#x1fd;" horiz-adv-x="1400" d="M88 231q0 138 77 231t208 93q79 0 148 -19.5t153 -54.5l24 123q18 107 -40.5 167t-163.5 60q-113 0 -197 -34q-15 -9 -26 -6.5t-15 22.5l-6 27q-4 15 14 26q98 39 250 39q207 0 250 -157h6q105 153 338 153q110 0 181 -60t71 -161q0 -80 -40.5 -141t-109.5 -95.5 t-150.5 -51.5t-174.5 -17q-68 0 -142 8q-24 -105 -24 -158q6 -76 62 -116.5t153 -40.5q121 0 223 102q19 16 29 6l35 -37q13 -10 -7 -30q-75 -69 -139.5 -94t-156.5 -25q-109 0 -179 42.5t-90 121.5h-4q-113 -164 -305 -164q-114 0 -183 65t-69 176zM170 242 q0 -80 48.5 -132.5t131.5 -52.5q127 0 205.5 98t103.5 251q-189 75 -280 75q-94 0 -151.5 -66t-57.5 -173zM756 457q102 -11 129 -11q162 0 275.5 57t113.5 161q0 67 -44.5 115t-137.5 48q-40 0 -75.5 -7t-62 -17t-50 -29t-39.5 -35t-31.5 -43.5t-23.5 -45t-18 -50 t-14 -48.5t-11.5 -50t-10.5 -45zM768 1020q-13 9 0 27l186 256q17 21 39 6l41 -27q20 -14 4 -33l-227 -239q-16 -12 -29 -2z" />
<glyph unicode="&#x1fe;" horiz-adv-x="970" d="M61 23l76 108q-56 96 -31 229l109 578q31 153 135.5 246.5t267.5 93.5q164 0 256 -92l64 90q8 12 16 6l39 -25q9 -5 0 -18l-75 -109q49 -85 28 -208l-112 -594q-64 -342 -406 -342q-162 0 -250 88l-57 -82q-9 -14 -21 -8l-37 22q-10 7 -2 17zM193 362q-16 -82 4 -147 l624 895q-65 88 -209 88q-128 0 -207.5 -74.5t-101.5 -189.5zM229 147q64 -84 205 -84q136 0 213.5 73t100.5 196l110 594q10 65 -4 114zM593 1396q2 5 13 13l260 184q20 14 33 -4l33 -45q6 -9 2.5 -17.5t-12.5 -13.5l-287 -151q-19 -11 -27 2l-12 18q-5 9 -3 14z" />
<glyph unicode="&#x1ff;" horiz-adv-x="847" d="M33 23q-8 6 0 18l71 82q-46 87 -22 205l45 250q30 148 124.5 235.5t244.5 87.5q139 0 225 -86l70 80q9 14 22 4l31 -22q6 -12 -2 -21l-82 -92q48 -85 26 -205l-41 -240q-65 -329 -374 -329q-148 0 -228 80l-57 -66q-8 -12 -20 -6zM164 317q-12 -73 4 -124l494 559 q-56 72 -170 75q-110 3 -184 -67.5t-97 -184.5zM201 133q57 -72 174 -72q112 0 185.5 68t98.5 190l41 238q13 79 -6 133zM498 1018q-13 8 0 26l186 256q18 21 39 7l41 -27q20 -14 4 -33l-227 -239q-16 -12 -29 -2z" />
<glyph unicode="&#x218;" horiz-adv-x="874" d="M18 106q-8 9 5 25l28 33q13 14 29 -2q38 -39 118 -67.5t160 -28.5q95 0 174 32.5t129 101t50 162.5q0 49 -17.5 89t-52 70.5t-70.5 51t-88 43.5q-128 60 -173 89q-140 92 -140 227q0 88 36 157t95.5 109t128 60t141.5 20q197 0 301 -98q10 -10 -2 -25q-27 -36 -28 -37 q-12 -15 -27 0q-99 82 -244 82q-51 0 -102.5 -14t-100 -42.5t-78.5 -81.5t-30 -122q0 -44 21.5 -82t62.5 -67.5t76.5 -48t87.5 -40.5q66 -29 114 -58t92.5 -68t67.5 -89.5t23 -111.5q0 -97 -37 -173t-101 -121.5t-145.5 -69t-175.5 -23.5q-96 0 -188.5 31t-139.5 87z M209 -395l72 284q8 19 22 19h78q27 0 12 -27l-125 -282q-8 -17 -22 -17h-27q-17 0 -10 23z" />
<glyph unicode="&#x219;" horiz-adv-x="696" d="M14 152q-4 13 9 18l47 20q13 8 18 -6q22 -56 79 -90.5t130 -34.5q98 0 162.5 47.5t64.5 135.5q0 33 -14 60t-41.5 48t-53 34.5t-63.5 29.5q-109 44 -147 69q-101 65 -101 172q0 79 43 136.5t107.5 83.5t140.5 26q181 0 269 -108q9 -9 -5 -23l-34 -33q-6 -5 -14.5 -4 t-12.5 8q-31 38 -89.5 63t-117.5 25q-78 0 -138 -43t-60 -122q0 -33 14 -59.5t47 -48t50.5 -30t61.5 -26.5q6 -3 9 -4q50 -21 86 -40.5t74.5 -49t58.5 -68.5t20 -86q0 -127 -91.5 -195.5t-227.5 -68.5q-100 0 -174 41t-107 123zM139 -395l72 284q8 19 22 19h78q28 0 13 -27 l-125 -282q-9 -17 -23 -17h-26q-18 0 -11 23z" />
<glyph unicode="&#x21a;" horiz-adv-x="819" d="M174 1200l8 47q7 17 19 17h741q16 0 12 -15l-10 -49q0 -14 -18 -14h-326l-229 -1172q-3 -14 -17 -14h-55q-8 0 -12.5 3.5t-3.5 10.5l227 1172h-324q-8 0 -10.5 2.5t-1.5 11.5zM178 -395l72 284q8 19 22 19h78q27 0 12 -27l-124 -282q-8 -17 -23 -17h-27q-17 0 -10 23z " />
<glyph unicode="&#x21b;" horiz-adv-x="569" d="M59 -395l72 284q8 19 23 19h77q28 0 13 -27l-125 -282q-9 -17 -23 -17h-26q-18 0 -11 23zM113 831l10 46q0 14 14 14h129l45 225q0 14 17 17l59 14q8 1 11 -3t1 -11l-47 -242h242q10 0 10 -14l-10 -46q-4 -14 -16 -14h-240l-111 -569q-19 -99 2.5 -140.5t100.5 -41.5 q59 0 133 18q11 3 15.5 -1.5t2.5 -12.5v-41q0 -11 -2.5 -14.5t-11.5 -6.5q-51 -20 -166 -20q-80 0 -122.5 33t-47 87.5t7.5 124.5l113 584h-127q-15 0 -12 14z" />
<glyph unicode="&#x259;" horiz-adv-x="823" d="M33 209q0 64 21 113.5t64 82.5t95.5 55t127.5 33.5t147 16.5t167 6l11 70q2 10 2 28q0 89 -58 152t-168 63q-61 0 -122.5 -25t-106.5 -75q-10 -10 -16 -10q-5 0 -9 4l-30 31q-13 13 0 26q108 123 299 123q141 0 217 -79.5t76 -209.5q0 -7 -5 -57l-34 -205 q-32 -188 -142 -275t-278 -87q-115 0 -186.5 59t-71.5 160zM121 225q0 -68 44.5 -115t141.5 -47q72 0 129 22.5t93.5 61t59 83.5t32.5 96l22 118q-92 -1 -162.5 -6t-141 -19t-116 -37.5t-74 -63t-28.5 -93.5z" />
<glyph unicode="&#x2b9;" horiz-adv-x="387" d="M188 823q-13 9 0 27l263 440q17 20 38 6l52 -26q20 -14 4 -33l-303 -428q-16 -12 -29 -2z" />
<glyph unicode="&#x2c6;" horiz-adv-x="862" d="M293 1030q-9 12 4 25l240 239q17 17 34 17h52q14 0 28 -17l142 -239q10 -16 -7 -27l-14 -10q-12 -10 -24 2l-160 207l-254 -207q-19 -12 -27 -4z" />
<glyph unicode="&#x2c7;" horiz-adv-x="878" d="M344 1260q-11 14 4 26l19 14q14 10 26 -2l162 -206l250 206q11 7 14.5 8.5t11.5 -3.5l15 -15q10 -10 -2 -24l-240 -240q-19 -16 -37 -16h-51q-16 0 -27 16z" />
<glyph unicode="&#x2d8;" horiz-adv-x="856" d="M365 1251q0 6 4.5 11.5t11.5 5.5h25q6 0 8.5 -2t3 -4.5t0.5 -8.5v-2v-2q0 -67 38 -107t103 -40q62 0 120.5 39t80.5 104l2.5 7.5t2 6.5t1.5 4t2.5 3t3.5 1.5t6 0.5h31q12 0 8 -21q-23 -100 -98 -158.5t-172 -58.5q-86 0 -135.5 59t-46.5 162z" />
<glyph unicode="&#x2d9;" horiz-adv-x="878" d="M510 1149q6 26 27.5 43.5t46.5 17.5q24 0 37.5 -17.5t7.5 -43.5q-4 -26 -24.5 -44t-45.5 -18t-39.5 18.5t-9.5 43.5z" />
<glyph unicode="&#x2da;" horiz-adv-x="878" d="M434 1128q0 74 48 124.5t116 50.5q53 0 89 -34t36 -87q0 -73 -50.5 -120.5t-119.5 -47.5q-51 0 -85 34t-34 80zM489 1141q0 -31 20.5 -52.5t51.5 -21.5q41 0 74 32t33 77q0 33 -21 53t-53 20q-42 0 -73.5 -31.5t-31.5 -76.5z" />
<glyph unicode="&#x2db;" horiz-adv-x="747" d="M260 -258q0 71 54.5 152.5t121.5 123.5q21 15 37 15h41q8 0 8 -4t-2 -6l-26 -21q-71 -54 -115.5 -121.5t-44.5 -124.5q0 -63 78 -63q43 0 123 45q8 4 10 4q5 0 8 -6l12 -19l4 -8q0 -4 -8 -12q-84 -66 -170 -66q-64 0 -97.5 29t-33.5 82z" />
<glyph unicode="&#x2dc;" horiz-adv-x="860" d="M293 1104q-9 7 2 22q67 88 156 88q42 0 109.5 -35.5t98.5 -35.5q65 0 111 55q9 13 21 4l32 -16q11 -7 -2 -23q-65 -88 -170 -88q-45 0 -112.5 36t-102.5 36q-50 0 -92 -55q-12 -16 -25 -7z" />
<glyph unicode="&#x2dd;" horiz-adv-x="862" d="M395 1018q-13 8 0 26l187 256q18 21 39 7l41 -27q20 -14 4 -33l-228 -239q-16 -12 -28 -2zM627 1018q-13 8 0 26l186 256q18 21 39 7l41 -27q20 -14 4 -33l-227 -239q-16 -12 -29 -2z" />
<glyph unicode="&#x384;" horiz-adv-x="823" d="M516 1018q-13 8 0 26l186 256q18 21 39 7l41 -27q20 -14 4 -33l-227 -239q-16 -12 -29 -2z" />
<glyph unicode="&#x385;" horiz-adv-x="878" d="M328 1114v10q6 26 27 44t46 18q21 0 34.5 -13t13.5 -34q0 -6 -3 -15q-5 -25 -24.5 -42t-44.5 -17q-22 0 -35.5 13.5t-13.5 35.5zM457 1018q-13 8 0 26l186 256q18 21 39 7l41 -27q20 -14 4 -33l-227 -239q-16 -12 -29 -2zM696 1114q0 29 22.5 50.5t49.5 21.5 q22 0 36.5 -13.5t14.5 -35.5q0 -2 -1 -6.5t-1 -6.5q-4 -25 -25.5 -42t-46.5 -17q-22 0 -35.5 13.5t-13.5 35.5z" />
<glyph unicode="&#x386;" horiz-adv-x="903" d="M-53 16l598 1231q9 17 20 17h94q16 0 19 -15l121 -1229q3 -6 -0.5 -13t-12.5 -7h-55q-7 0 -10 0.5t-5 3t-3 8.5l-33 307h-492l-147 -307q-6 -12 -21 -12h-61q-21 0 -12 16zM45 969q-13 8 0 26l186 256q17 21 39 6l41 -26q20 -14 4 -33l-227 -240q-16 -12 -29 -2zM225 395 h453q-10 97 -26 278t-21 232l-27 277h-4q-100 -210 -133 -281z" />
<glyph unicode="&#x387;" horiz-adv-x="337" d="M152 690q0 32 25 56t59 24q26 0 43.5 -16t17.5 -41q0 -31 -28 -56.5t-60 -25.5q-26 0 -41.5 17t-15.5 42z" />
<glyph unicode="&#x388;" horiz-adv-x="880" d="M-109 971q-13 8 0 26l187 256q18 21 39 7l41 -27q20 -14 4 -33l-228 -239q-16 -12 -28 -3zM49 16l240 1231q4 17 16 17h619q15 0 12 -17l-10 -47q-3 -14 -17 -14h-544l-99 -494h492q16 0 12 -16l-8 -49q-3 -15 -17 -15h-491l-104 -534h606q15 0 12 -15l-8 -47 q-3 -16 -19 -16h-680q-15 0 -12 16z" />
<glyph unicode="&#x389;" horiz-adv-x="1024" d="M-84 969q-13 8 0 26l186 256q17 21 39 6l41 -26q20 -14 4 -33l-227 -240q-16 -12 -29 -2zM45 14l240 1235q3 15 18 15h57q7 0 11 -4.5t2 -10.5l-109 -559h596l109 559q6 15 18 15h60q16 0 12 -15l-240 -1235q-3 -14 -16 -14h-58q-16 0 -16 14l117 598h-596l-117 -598 q-3 -14 -16 -14h-58q-17 0 -14 14z" />
<glyph unicode="&#x38a;" horiz-adv-x="405" d="M-84 969q-13 8 0 26l186 256q17 21 39 6l41 -26q20 -14 4 -33l-227 -240q-16 -12 -29 -2zM80 14l239 1235q3 15 19 15h57q8 0 12 -4.5t1 -10.5l-240 -1235q0 -14 -16 -14h-60q-18 0 -12 14z" />
<glyph unicode="&#x38c;" horiz-adv-x="970" d="M-80 969q-13 8 0 26l186 256q17 21 39 6l41 -26q20 -14 4 -33l-227 -240q-16 -12 -29 -2zM106 360l109 578q31 153 135.5 246.5t267.5 93.5q172 0 265.5 -100.5t62.5 -255.5l-112 -594q-64 -342 -406 -342q-122 0 -203 53t-110 137t-9 184zM187.5 273q0.5 -43 17.5 -81 t44.5 -67t75 -45.5t109.5 -16.5q136 0 213.5 73t100.5 196l110 594q14 73 -7 133.5t-82.5 99.5t-156.5 39q-128 0 -207.5 -74.5t-101.5 -189.5l-110 -572q-6 -46 -5.5 -89z" />
<glyph unicode="&#x38e;" horiz-adv-x="815" d="M-184 969q-13 8 0 26l186 256q17 21 39 6l41 -26q20 -14 4 -33l-227 -240q-16 -12 -29 -2zM178 1243q-5 21 17 21h51q15 0 22 -17l160 -653h6q14 23 204 321t210 332q20 16 29 17h63q11 0 13 -6t-7 -17l-471 -725q-14 -24 -18 -49l-88 -453q-3 -14 -17 -14h-57 q-17 0 -14 14l86 443q6 32 2 51z" />
<glyph unicode="&#x38f;" horiz-adv-x="1003" d="M-59 969q-13 8 0 26l186 256q17 21 39 6l41 -26q20 -14 4 -33l-227 -240q-16 -12 -29 -2zM18 14l9 49q4 15 18 15h148v6q-118 79 -72 328l94 495q26 164 141 267.5t297 103.5q167 0 261.5 -104t66.5 -254l-107 -570q-23 -103 -57.5 -169.5t-103.5 -98.5v-4h137 q18 0 14 -15l-10 -49q-3 -14 -16 -14h-275q-17 0 -14 14l12 66q2 15 27 22q88 28 134 86t62 148l109 582q25 116 -45 199t-207 83q-143 0 -226.5 -77t-107.5 -195l-108 -578q-15 -83 10.5 -150t97.5 -96q13 -6 16 -10.5t1 -15.5l-11 -64q-2 -14 -18 -14h-264q-17 0 -13 14z " />
<glyph unicode="&#x390;" horiz-adv-x="368" d="M47 1114v10q6 26 27.5 44t46.5 18q21 0 34 -13t13 -34q0 -9 -2 -15q-4 -25 -24.5 -42t-45.5 -17q-22 0 -35.5 13.5t-13.5 35.5zM90 213l129 664q0 12 14 12h58q12 0 12 -12l-127 -658q-6 -39 -7.5 -70t19.5 -52.5t66 -28.5q19 -3 12 -21l-10 -47q-2 -10 -16 -10 q-19 0 -27 2q-162 18 -123 221zM176 1018q-13 8 0 26l186 256q18 21 39 7l41 -27q20 -14 4 -33l-227 -239q-16 -12 -29 -2zM416 1114q0 29 22 50.5t49 21.5q22 0 37 -14t15 -35q0 -2 -1 -6.5t-1 -6.5q-4 -25 -25.5 -42t-46.5 -17q-22 0 -35.5 13.5t-13.5 35.5z" />
<glyph unicode="&#x391;" horiz-adv-x="903" d="M-53 16l598 1231q9 17 20 17h94q16 0 19 -15l121 -1229q3 -6 -0.5 -13t-12.5 -7h-55q-7 0 -10 0.5t-5 3t-3 8.5l-33 307h-492l-147 -307q-6 -12 -21 -12h-61q-21 0 -12 16zM225 395h453q-10 97 -26 278t-21 232l-27 277h-4q-100 -210 -133 -281z" />
<glyph unicode="&#x392;" horiz-adv-x="968" d="M51 10v4l240 1233q4 17 16 17h361q129 0 204.5 -67.5t75.5 -188.5q0 -113 -58.5 -203.5t-172.5 -128.5v-6q79 -27 120.5 -96.5t41.5 -157.5q0 -181 -115.5 -298.5t-292.5 -117.5h-408q-12 0 -12 10zM152 78h325q136 0 223.5 98.5t87.5 235.5q0 97 -61.5 160t-163.5 63 h-301zM274 713h297q120 0 205.5 78t85.5 204q0 86 -56.5 138.5t-150.5 52.5h-288z" />
<glyph unicode="&#x393;" horiz-adv-x="813" d="M49 14l240 1233q3 17 20 17h639q7 0 11 -4.5t2 -10.5l-9 -49q-3 -14 -18 -14h-567l-230 -1172q-3 -14 -16 -14h-58q-17 0 -14 14z" />
<glyph unicode="&#x395;" horiz-adv-x="880" d="M49 16l240 1231q4 17 16 17h619q15 0 12 -17l-10 -47q-3 -14 -17 -14h-544l-99 -494h492q16 0 12 -16l-8 -49q-3 -15 -17 -15h-491l-104 -534h606q15 0 12 -15l-8 -47q-3 -16 -19 -16h-680q-15 0 -12 16z" />
<glyph unicode="&#x396;" horiz-adv-x="792" d="M-49 18l6 33q3 21 16 39l830 1096h-578q-17 0 -14 16l8 45q3 17 19 17h657q21 0 18 -21l-4 -31q-2 -18 -22 -43l-821 -1089h614q18 0 14 -17l-10 -47q-3 -16 -16 -16h-699q-21 0 -18 18z" />
<glyph unicode="&#x397;" horiz-adv-x="1024" d="M45 14l240 1235q3 15 18 15h57q7 0 11 -4.5t2 -10.5l-109 -559h596l109 559q6 15 18 15h60q16 0 12 -15l-240 -1235q-3 -14 -16 -14h-58q-16 0 -16 14l117 598h-596l-117 -598q-3 -14 -16 -14h-58q-17 0 -14 14z" />
<glyph unicode="&#x398;" horiz-adv-x="980" d="M96 365l109 573q30 149 144 244.5t278 95.5q91 0 162.5 -29t114 -79t59.5 -117.5t4 -143.5l-113 -581q-30 -161 -129 -250.5t-291 -89.5q-186 0 -275 106.5t-63 270.5zM182 360q-25 -123 39.5 -210t216.5 -87q145 0 226 73t104 196l111 588q26 115 -44 196.5t-214 81.5 q-136 0 -221 -75.5t-105 -188.5zM307 633l8 41q3 14 15 14h420q16 0 12 -22l-8 -41q-3 -13 -15 -13h-424q-13 0 -8 21z" />
<glyph unicode="&#x399;" horiz-adv-x="405" d="M80 14l239 1235q3 15 19 15h57q8 0 12 -4.5t1 -10.5l-240 -1235q0 -14 -16 -14h-60q-18 0 -12 14z" />
<glyph unicode="&#x39a;" horiz-adv-x="962" d="M43 14l240 1231q2 10 5 14.5t13 4.5h59q14 0 11 -17l-119 -614l4 -2l662 618q16 13 26 13h68q8 0 10.5 -3t0.5 -7.5t-7 -8.5l-549 -516l4 -6q57 14 121 14q299 0 260 -329l-47 -392q-3 -14 -17 -14h-53q-14 0 -14 16l45 365q4 30 6 52t1 53.5t-8 54t-23 47t-40.5 39.5 t-64 25t-90.5 10q-80 0 -143.5 -25t-103.5 -67.5t-64 -89.5t-35 -101l-70 -363q-1 -6 -2.5 -9.5t-4 -5t-7.5 -1.5h-60q-17 0 -14 14z" />
<glyph unicode="&#x39b;" horiz-adv-x="901" d="M-53 20q34 69 260.5 528t347.5 701q7 15 18 15h82q16 0 19 -13l131 -1228q0 -2 0.5 -7t0 -6.5l-1.5 -4.5t-5 -4t-11 -1h-53q-7 0 -10 0.5t-5 3t-3 8.5q-15 153 -45.5 456t-44.5 456l-25 225h-6l-150 -311q-79 -160 -222.5 -458.5t-176.5 -365.5q-8 -14 -22 -14h-66 q-22 0 -12 20z" />
<glyph unicode="&#x39c;" horiz-adv-x="1226" d="M25 14l237 1223q2 11 9.5 19t19.5 8h41q23 0 26 -19q25 -135 91 -508.5t104 -574.5h6q114 195 321 563t296 522q14 17 30 17h54q24 0 20 -27l-238 -1223q-3 -14 -16 -14h-55q-9 0 -13 4t-2 10l199 1020h-6l-252 -438q-44 -76 -147 -254t-158 -274q-10 -19 -31 -19h-45 q-20 0 -22 17l-101 522q-19 114 -80 444h-6l-196 -1018q-3 -14 -17 -14h-57q-15 0 -12 14z" />
<glyph unicode="&#x39d;" horiz-adv-x="1021" d="M37 14l237 1223q4 27 29 27h45q21 0 29 -19l383 -1083h4l209 1085q4 17 18 17h56q15 0 12 -17l-238 -1224q-6 -23 -26 -23h-47q-22 0 -27 16q-74 203 -211.5 591.5t-171.5 484.5h-4l-209 -1078q-3 -14 -19 -14h-57q-15 0 -12 14z" />
<glyph unicode="&#x39e;" horiz-adv-x="888" d="M-20 16l10 47q0 15 18 15h326l102 532h-239q-16 0 -13 15l11 47q3 16 18 16h240l96 498h-320q-12 0 -12 14l10 47q3 17 19 17h719q17 0 14 -17l-10 -47q0 -14 -19 -14h-317l-96 -498h243q16 0 13 -16l-11 -47q-3 -15 -16 -15h-246l-102 -532h338q12 0 12 -15l-10 -47 q-3 -16 -19 -16h-747q-15 0 -12 16z" />
<glyph unicode="&#x39f;" horiz-adv-x="970" d="M106 360l109 578q31 153 135.5 246.5t267.5 93.5q172 0 265.5 -100.5t62.5 -255.5l-112 -594q-64 -342 -406 -342q-122 0 -203 53t-110 137t-9 184zM187.5 273q0.5 -43 17.5 -81t44.5 -67t75 -45.5t109.5 -16.5q136 0 213.5 73t100.5 196l110 594q14 73 -7 133.5 t-82.5 99.5t-156.5 39q-128 0 -207.5 -74.5t-101.5 -189.5l-110 -572q-6 -46 -5.5 -89z" />
<glyph unicode="&#x3a0;" horiz-adv-x="1030" d="M45 14l240 1235q3 15 18 15h750q16 0 12 -15l-240 -1235q-3 -14 -16 -14h-59q-15 0 -15 14l230 1172h-603l-229 -1172q0 -14 -16 -14h-58q-17 0 -14 14z" />
<glyph unicode="&#x3a1;" horiz-adv-x="917" d="M51 14l242 1233q4 17 20 17h365q134 0 215.5 -75.5t81.5 -197.5q0 -184 -113.5 -290.5t-288.5 -106.5h-319l-115 -580q0 -14 -16 -14h-55q-17 0 -17 14zM266 670h312q135 0 221 85.5t86 221.5q0 95 -54.5 152t-160.5 57h-303z" />
<glyph unicode="&#x3a3;" horiz-adv-x="788" d="M-41 18l4 35q4 14 19 39l401 570l-188 509q-7 21 -5 37l7 35q3 21 26 21h637q7 0 11.5 -4.5t2.5 -10.5l-8 -47q-3 -16 -22 -16h-561q8 -22 95 -250t95 -252q12 -29 -8 -55l-389 -549h626q15 0 15 -17l-10 -47q-3 -16 -19 -16h-713q-22 0 -16 18z" />
<glyph unicode="&#x3a4;" horiz-adv-x="819" d="M174 1200l8 47q7 17 19 17h741q16 0 12 -15l-10 -49q0 -14 -18 -14h-326l-229 -1172q-3 -14 -17 -14h-55q-8 0 -12.5 3.5t-3.5 10.5l227 1172h-324q-8 0 -10.5 2.5t-1.5 11.5z" />
<glyph unicode="&#x3a5;" horiz-adv-x="815" d="M178 1243q-5 21 17 21h51q15 0 22 -17l160 -653h6q14 23 204 321t210 332q20 16 29 17h63q11 0 13 -6t-7 -17l-471 -725q-14 -24 -18 -49l-88 -453q-3 -14 -17 -14h-57q-17 0 -14 14l86 443q6 32 2 51z" />
<glyph unicode="&#x3a6;" horiz-adv-x="1110" d="M113 418q0 47 18 121l57 295q31 162 146 259t328 103l10 53q6 15 18 15h58q12 0 12 -11v-4l-12 -53q159 -7 249 -94.5t90 -216.5q0 -34 -6 -72l-69 -354q-15 -74 -47 -133t-86.5 -108t-141 -76t-198.5 -27l-21 -103q-3 -12 -14 -12h-58q-14 0 -14 8v4l21 103 q-166 7 -253 92t-87 211zM195 420q0 -95 64.5 -160.5t207.5 -69.5l180 930q-165 -3 -258 -81.5t-117 -200.5l-71 -363q-6 -27 -6 -55zM553 193q165 0 257 69t116 191l73 372q7 31 7 56q0 99 -69.5 167t-203.5 72z" />
<glyph unicode="&#x3a7;" horiz-adv-x="845" d="M-59 18l477 639l-209 586q-4 21 16 21h56q17 0 20 -11q33 -90 90.5 -260.5t83.5 -244.5h6l371 505q11 11 27 11h67q9 0 10.5 -7t-4.5 -14l-434 -584q40 -114 120 -334.5t110 -306.5q4 -18 -13 -18h-51q-19 0 -25 8l-196 563h-4l-418 -563q-6 -8 -25 -8h-67q-20 0 -8 18z " />
<glyph unicode="&#x3a8;" horiz-adv-x="1120" d="M139 567q0 31 6 66l125 627q3 14 19 14h55q12 0 12 -10v-4l-123 -631q-4 -28 -4 -43q0 -45 13 -83.5t42 -73t83.5 -56t130.5 -25.5q112 593 176 918q3 14 20 14h56q12 0 12 -8v-6q-165 -854 -178 -918q170 7 259.5 84t121.5 223l114 605q3 14 21 14h55q12 0 12 -10v-4 l-123 -631q-14 -73 -48.5 -135.5t-90.5 -113.5t-142 -80t-194 -30l-51 -256q0 -14 -16 -14h-56q-14 0 -14 8v4l49 256q-165 6 -253.5 91t-88.5 208z" />
<glyph unicode="&#x3a9;" horiz-adv-x="1003" d="M18 14l9 49q4 15 18 15h148v6q-118 79 -72 328l94 495q26 164 141 267.5t297 103.5q167 0 261.5 -104t66.5 -254l-107 -570q-23 -103 -57.5 -169.5t-103.5 -98.5v-4h137q18 0 14 -15l-10 -49q-3 -14 -16 -14h-275q-17 0 -14 14l12 66q2 15 27 22q88 28 134 86t62 148 l109 582q25 116 -45 199t-207 83q-143 0 -226.5 -77t-107.5 -195l-108 -578q-15 -83 10.5 -150t97.5 -96q13 -6 16 -10.5t1 -15.5l-11 -64q-2 -14 -18 -14h-264q-17 0 -13 14z" />
<glyph unicode="&#x3aa;" horiz-adv-x="405" d="M80 14l239 1235q3 15 19 15h57q8 0 12 -4.5t1 -10.5l-240 -1235q0 -14 -16 -14h-60q-18 0 -12 14zM172 1436q3 27 25 47t49 20q23 0 36.5 -16t10.5 -39q-3 -27 -25 -47.5t-47 -20.5q-22 0 -36 16.5t-13 39.5zM487 1436q3 28 24.5 47.5t47.5 19.5q23 0 37 -15.5t12 -39.5 q-3 -28 -24 -48t-47 -20q-24 0 -38 16t-12 40z" />
<glyph unicode="&#x3ab;" horiz-adv-x="815" d="M178 1243q-5 21 17 21h51q15 0 22 -17l160 -653h6q14 23 204 321t210 332q20 16 29 17h63q11 0 13 -6t-7 -17l-471 -725q-14 -24 -18 -49l-88 -453q-3 -14 -17 -14h-57q-17 0 -14 14l86 443q6 32 2 51zM362 1436q3 27 25 47t49 20q23 0 36.5 -16t10.5 -39 q-3 -27 -24.5 -47.5t-46.5 -20.5q-22 0 -36.5 16.5t-13.5 39.5zM678 1436q3 28 24.5 47.5t47.5 19.5q23 0 37 -15.5t12 -39.5q-3 -28 -24.5 -48t-47.5 -20q-24 0 -37.5 16t-11.5 40z" />
<glyph unicode="&#x3ac;" horiz-adv-x="878" d="M72 252q0 24 8 74l51 254q29 144 123 231.5t246 87.5q163 0 239 -115h9l20 93q3 12 16 12h54q15 0 10 -19l-166 -860q-2 -10 -18 -10h-56q-4 0 -6 0.5t-3.5 2.5t-0.5 7l20 94h-6q-111 -114 -268 -114q-137 0 -204.5 74.5t-67.5 187.5zM156 258q0 -88 51 -142.5t153 -54.5 q110 0 194 76t105 180q20 111 52 263q4 32 4 47q0 89 -60.5 144.5t-160.5 55.5q-107 0 -182 -69t-99 -183l-51 -253q-6 -34 -6 -64zM508 1018q-13 8 0 26l186 256q18 21 39 7l41 -27q20 -14 4 -33l-227 -239q-16 -12 -29 -2z" />
<glyph unicode="&#x3ad;" horiz-adv-x="743" d="M72 313l49 262q64 326 368 326q90 0 162 -33.5t105 -95.5q8 -13 -6 -24l-39 -29q-8 -5 -15 -3t-10 9q-27 48 -84.5 75t-124.5 27q-110 0 -179.5 -67t-92.5 -182l-17 -72h326q14 0 10 -14l-8 -43q-3 -15 -16 -15h-324l-22 -121q-21 -117 29.5 -184.5t174.5 -67.5 q130 0 232 107q11 14 24 4l35 -27q8 -9 7.5 -13t-7.5 -13q-114 -129 -301 -129q-156 0 -230.5 88t-45.5 235zM459 1018q-13 8 0 26l186 256q18 21 39 7l41 -27q20 -14 4 -33l-227 -239q-16 -12 -29 -2z" />
<glyph unicode="&#x3ae;" horiz-adv-x="874" d="M29 12l168 865q3 14 16 14h57q14 0 11 -14l-19 -97l6 2q50 54 128 86.5t151 32.5q67 0 118 -18t80.5 -50t47 -74.5t17.5 -91.5t-9 -102q-17 -89 -166 -850q0 -14 -14 -14h-60q-15 0 -12 12l168 854q22 113 -26 186.5t-171 73.5q-108 0 -192.5 -76t-106.5 -184l-106 -553 q0 -14 -17 -14h-57q-15 0 -12 12zM457 1018q-13 8 0 26l186 256q18 21 39 7l41 -27q20 -14 4 -33l-227 -239q-16 -12 -29 -2z" />
<glyph unicode="&#x3af;" horiz-adv-x="368" d="M90 213l129 664q0 12 14 12h58q12 0 12 -12l-127 -658q-6 -39 -7.5 -70t19.5 -52.5t66 -28.5q19 -3 12 -21l-10 -47q-2 -10 -16 -10q-19 0 -27 2q-162 18 -123 221zM248 1008q-13 8 0 26l186 256q17 21 39 6l41 -26q20 -14 4 -33l-227 -240q-16 -12 -29 -2z" />
<glyph unicode="&#x3b0;" horiz-adv-x="868" d="M82 311q58 269 111 566q3 14 18 14h55q16 0 13 -14q-8 -40 -32 -165t-45.5 -234.5t-33.5 -166.5q-22 -114 33 -183t168 -69t191.5 69t101.5 187q45 223 106 562q6 14 18 14h60q14 0 10 -14q-12 -58 -30 -151.5t-41.5 -220t-36.5 -192.5q-30 -155 -127 -241t-250 -86 q-159 0 -238 89t-51 236zM315 1114v10q6 26 27.5 44t46.5 18q21 0 34 -13t13 -34q0 -9 -2 -15q-5 -25 -24.5 -42t-44.5 -17q-22 0 -36 13.5t-14 35.5zM444 1018q-13 8 0 26l187 256q18 21 39 7l41 -27q20 -14 4 -33l-228 -239q-16 -12 -28 -2zM684 1114q0 29 22.5 50.5 t49.5 21.5q22 0 36.5 -13.5t14.5 -35.5q0 -2 -1 -6.5t-1 -6.5q-4 -25 -25.5 -42t-46.5 -17q-22 0 -35.5 13.5t-13.5 35.5z" />
<glyph unicode="&#x3b1;" horiz-adv-x="878" d="M72 252q0 24 8 74l51 254q29 144 123 231.5t246 87.5q163 0 239 -115h9l20 93q3 12 16 12h54q15 0 10 -19l-166 -860q-2 -10 -18 -10h-56q-4 0 -6 0.5t-3.5 2.5t-0.5 7l20 94h-6q-111 -114 -268 -114q-137 0 -204.5 74.5t-67.5 187.5zM156 258q0 -88 51 -142.5t153 -54.5 q110 0 194 76t105 180q20 111 52 263q4 32 4 47q0 89 -60.5 144.5t-160.5 55.5q-107 0 -182 -69t-99 -183l-51 -253q-6 -34 -6 -64z" />
<glyph unicode="&#x3b2;" horiz-adv-x="878" d="M-23 -281l242 1264q28 144 128.5 238t254.5 94q132 0 204.5 -67.5t72.5 -180.5q0 -102 -55.5 -187.5t-157.5 -119.5l-2 -8q52 -19 84.5 -65t38 -96.5t-0.5 -101.5q-2 -9 -14 -87t-14 -87q-26 -142 -122.5 -232.5t-248.5 -90.5q-168 0 -240 117h-8l-76 -390 q-3 -12 -16 -12h-57q-7 0 -10.5 2.5t-2.5 9.5zM180 317q-21 -104 36 -179t163 -75q112 0 191.5 69t101.5 185l26 154q21 116 -31.5 184t-177.5 68h-77q-14 0 -11 14l9 43q3 15 16 15h92q106 0 190.5 74t84.5 182q0 84 -52.5 136t-140.5 52q-114 0 -192 -69t-99 -177z" />
<glyph unicode="&#x3b3;" horiz-adv-x="722" d="M74 868q-4 21 16 21h51q20 0 23 -19l119 -692l8 -2l272 447q9 16 16.5 30.5t13 30t9 26t6 26.5t4 24t2 25.5t0.5 24v27.5v27q0 25 21 25h43q16 0 20 -6.5t4 -20.5q0 -67 -2 -98.5t-15.5 -76t-41.5 -91.5l-324 -518q-18 -31 -28 -80l-70 -352q0 -15 -18 -15h-56 q-17 0 -14 15l80 401q5 30 0 66z" />
<glyph unicode="&#x3b4;" horiz-adv-x="866" d="M88 317l47 242q22 111 101 199t184 119v4q-60 31 -90.5 78.5t-30.5 99.5q3 68 32.5 119t75.5 79t96 41t103 13q142 0 228 -47q10 -5 4 -17l-19 -41q-8 -13 -20 -8q-110 44 -209 41q-32 -2 -63.5 -10.5t-63.5 -26.5t-52.5 -52.5t-21.5 -80.5q-1 -29 15.5 -56t47 -49.5 t59 -37.5t64.5 -31q39 -16 68 -30t56.5 -32t45.5 -37t32.5 -44t20 -54t5 -66t-9.5 -81l-48 -238q-63 -327 -389 -327q-153 0 -225.5 91.5t-42.5 239.5zM170 311q-24 -116 28.5 -184t170.5 -68q120 0 194.5 68t98.5 188l47 238q8 39 9 70t-8.5 65.5t-32.5 61.5t-67 51 t-108 39q-117 -27 -190.5 -104t-94.5 -183z" />
<glyph unicode="&#x3b5;" horiz-adv-x="749" d="M72 313l49 262q64 326 368 326q90 0 162 -33.5t105 -95.5q8 -13 -6 -24l-39 -29q-8 -5 -15 -3t-10 9q-27 48 -84.5 75t-124.5 27q-110 0 -179.5 -67t-92.5 -182l-17 -72h326q14 0 10 -14l-8 -43q-3 -15 -16 -15h-324l-22 -121q-21 -117 29.5 -184.5t174.5 -67.5 q130 0 232 107q11 14 24 4l35 -27q8 -9 7.5 -13t-7.5 -13q-114 -129 -301 -129q-156 0 -230.5 88t-45.5 235z" />
<glyph unicode="&#x3b6;" horiz-adv-x="663" d="M68 291q0 94 55 204.5t139 209.5t188.5 194t200.5 165t178 116v6h-489q-20 0 -16 24l6 33q3 19 24 19h615q11 0 17 -4.5t3 -14.5l-8 -33q-6 -24 -20 -32q-79 -43 -178.5 -112.5t-211 -164t-203 -192t-152 -203.5t-60.5 -191q0 -57 17.5 -98t57 -69.5t78 -45.5t105.5 -39 q11 -4 38.5 -12.5t42.5 -13.5t39 -14t37.5 -18t28 -21t21 -26.5t6.5 -31.5q0 -85 -133 -260q-12 -15 -27 -8l-37 23q-14 9 -4 26q49 68 74.5 119t25.5 70q0 7 -2.5 13t-8 11.5t-11 10t-15.5 10t-17.5 9t-21.5 8.5t-21.5 7.5l-24 8t-23.5 8.5q-32 11 -44 15.5t-43 16 t-44.5 18.5t-40 20.5t-39.5 25.5t-32.5 29.5t-29.5 36t-20.5 41t-15 49.5t-4.5 57z" />
<glyph unicode="&#x3b7;" horiz-adv-x="874" d="M29 12l168 865q3 14 16 14h57q14 0 11 -14l-19 -97l6 2q50 54 128 86.5t151 32.5q67 0 118 -18t80.5 -50t47 -74.5t17.5 -91.5t-9 -102q-17 -89 -166 -850q0 -14 -14 -14h-60q-15 0 -12 12l168 854q22 113 -26 186.5t-171 73.5q-108 0 -192.5 -76t-106.5 -184l-106 -553 q0 -14 -17 -14h-57q-15 0 -12 12z" />
<glyph unicode="&#x3b8;" horiz-adv-x="872" d="M78 244q0 37 8 73l129 668q28 145 130.5 234.5t250.5 89.5q132 0 210.5 -68.5t78.5 -185.5q0 -33 -6 -70l-127 -670q-31 -155 -129 -240t-254 -85q-137 0 -214 69t-77 185zM164 256q0 -91 54.5 -143t152.5 -52q43 0 80 9.5t65.5 24.5t52.5 41t40.5 51t32 63.5t24.5 69.5 t19 78t15.5 79.5t14 83.5t14.5 82h-498l-61 -330q-6 -30 -6 -57zM246 715h497q5 31 54 268q4 18 4 53q0 88 -55 142.5t-150 54.5q-111 0 -192 -70t-103 -178z" />
<glyph unicode="&#x3b9;" horiz-adv-x="368" d="M90 213l129 664q0 12 14 12h58q12 0 12 -12l-127 -658q-6 -39 -7.5 -70t19.5 -52.5t66 -28.5q19 -3 12 -21l-10 -47q-2 -10 -16 -10q-19 0 -27 2q-162 18 -123 221z" />
<glyph unicode="&#x3ba;" horiz-adv-x="831" d="M27 12l168 869q3 14 16 14h57q16 0 13 -14l-82 -428q1 0 2 -1t2 -1l516 428q15 10 29 10h77q9 0 9 -10q0 -4 -7 -11l-405 -333q41 4 80 4q122 -3 180 -89t39 -227l-31 -207q-2 -9 -6 -12.5t-14 -3.5h-52q-17 0 -14 14l31 209q32 246 -193 246q-103 0 -185.5 -70 t-100.5 -161l-43 -226q-3 -12 -17 -12h-57q-14 0 -12 12z" />
<glyph unicode="&#x3bb;" horiz-adv-x="897" d="M31 12l102 549q14 68 41 125.5t70.5 106.5t109.5 76.5t148 27.5q74 0 144 -26.5t112 -84.5l4 2l37 195q22 113 -31.5 180.5t-167.5 67.5q-89 0 -201 -49q-19 -6 -24 8l-15 39q-3 17 17 24q93 52 231 52q149 0 227.5 -86t49.5 -232q-58 -292 -189 -973q-3 -14 -18 -14h-57 q-17 0 -11 12l105 555q22 105 -38 181.5t-167 76.5q-122 0 -194.5 -74t-94.5 -186l-104 -551q-3 -14 -19 -14h-57q-13 0 -10 12z" />
<glyph unicode="&#x3bd;" horiz-adv-x="745" d="M78 868q-5 21 14 21h51q20 0 23 -19l145 -764h6q76 149 275 525q27 61 35 102t8 94q0 4 -1 14t-1 17t2 15t7.5 12t14.5 4h41q16 0 20.5 -6.5t4.5 -20.5q-2 -89 -13 -141.5t-48 -126.5l-297 -569q-13 -25 -41 -25h-52q-15 0 -20 4.5t-8 22.5z" />
<glyph unicode="&#x3be;" horiz-adv-x="686" d="M39 287q0 117 94.5 224t214.5 142v9q-87 21 -127.5 74t-40.5 112q0 47 20.5 90t58.5 77.5t78.5 62.5t96.5 53t94 40.5t88 32.5q9 3 9 6q0 4 -9 4h-372q-22 0 -19 21l6 39q3 18 27 18h604q11 0 16.5 -4t4.5 -14l-6 -37q-3 -20 -23 -27q-74 -19 -142 -40t-153 -55.5 t-146 -71t-103 -86.5t-42 -103q0 -49 46 -86.5t103.5 -53.5t110.5 -16h138q21 0 18 -18l-6 -35q-3 -20 -27 -20h-133q-81 0 -171 -44.5t-154 -124t-64 -165.5q0 -38 16 -69t37 -50.5t60 -38.5t64.5 -27.5t72.5 -22.5t65 -20q25 -7 36.5 -10.5t37 -12t39 -17t30 -21t24 -28 t7.5 -33.5q0 -88 -137 -254q-12 -15 -26 -6l-33 18q-14 7 -2 27q88 127 98 182q5 37 -65 65q-16 7 -56 19q-13 4 -43.5 12.5t-47.5 13.5t-47 15t-48.5 18.5t-44.5 22.5t-41.5 28t-34 34t-28.5 42t-16.5 50t-6.5 59z" />
<glyph unicode="&#x3bf;" horiz-adv-x="862" d="M82 328l49 250q30 148 124.5 235.5t244.5 87.5q152 0 236 -96.5t55 -245.5l-46 -240q-65 -329 -374 -329q-161 0 -240 94.5t-49 243.5zM164 317q-22 -116 37 -186t174 -70q112 0 185.5 68t98.5 190l48 238q22 112 -35 189.5t-176 80.5q-110 3 -184 -67.5t-97 -184.5z" />
<glyph unicode="&#x3c0;" horiz-adv-x="892" d="M35 12q161 825 168 865q3 14 16 14h639q10 0 10 -14l-168 -863q-3 -14 -14 -14h-59q-13 0 -13 12l158 803h-493q0 -2 -20.5 -105.5t-44.5 -227.5t-51.5 -262t-41.5 -206q0 -14 -15 -14h-57q-14 0 -14 12z" />
<glyph unicode="&#x3c1;" horiz-adv-x="864" d="M-43 -356l180 931q30 153 127 239.5t258 86.5q151 0 229.5 -88t51.5 -233l-47 -248q-30 -153 -122 -248.5t-247 -95.5q-163 0 -240 118l-10 3l-94 -465q-3 -13 -16 -13h-58q-15 0 -12 13zM172 319q-21 -106 38.5 -182t170.5 -76q114 0 190 73.5t97 187.5l49 251 q21 111 -34 182.5t-167 71.5q-120 0 -196 -69.5t-99 -182.5z" />
<glyph unicode="&#x3c2;" horiz-adv-x="700" d="M25 152q-4 12 10 18l47 20q10 6 18 -6q22 -56 86.5 -90.5t128.5 -34.5q100 0 165 47.5t65 135.5q0 26 -13 49.5t-29.5 40t-44.5 33t-46 25t-45 20.5q-110 45 -154 76q-94 66 -94 165q0 65 26 115t69 79t93.5 43.5t104.5 14.5q139 0 231 -47q17 -7 10 -22l-20 -41 q-6 -19 -27 -7q-93 41 -190 41q-87 0 -149 -43t-62 -125q0 -32 13.5 -57.5t45 -46.5t50 -30.5t60.5 -27.5q7 -3 11 -5q37 -16 52.5 -23.5t48.5 -24.5t48.5 -28t38.5 -31t34 -38.5t19.5 -43.5t8.5 -53q0 -125 -89 -193.5t-231 -68.5q-102 0 -182.5 44t-107.5 120z" />
<glyph unicode="&#x3c3;" horiz-adv-x="864" d="M78 315l49 250q28 146 130.5 236t252.5 90h391q13 0 10 -14l-8 -46q0 -14 -16 -14h-170l-2 -6q52 -36 71 -101.5t5 -142.5l-48 -250q-31 -156 -128 -241.5t-253 -85.5q-157 0 -234.5 90.5t-49.5 234.5zM162 315q-22 -113 34.5 -183.5t165.5 -70.5q115 0 193.5 69.5 t101.5 188.5l48 244q22 110 -30.5 181t-168.5 71q-108 0 -191.5 -71.5t-103.5 -178.5z" />
<glyph unicode="&#x3c4;" horiz-adv-x="612" d="M104 831l9 46q3 14 14 14h508q13 0 10 -14l-8 -46q-3 -14 -16 -14h-244l-115 -575q-33 -176 119 -176q54 0 106 18q19 5 19 -10l4 -47q3 -16 -14 -19q-53 -18 -142 -18q-114 0 -157 65.5t-23 173.5l115 588h-174q-15 0 -11 14z" />
<glyph unicode="&#x3c5;" horiz-adv-x="868" d="M82 311q58 269 111 566q3 14 18 14h55q16 0 13 -14q-8 -40 -32 -165t-45.5 -234.5t-33.5 -166.5q-22 -114 33 -183t168 -69t191.5 69t101.5 187q45 223 106 562q6 14 18 14h60q14 0 10 -14q-12 -58 -30 -151.5t-41.5 -220t-36.5 -192.5q-30 -155 -127 -241t-250 -86 q-159 0 -238 89t-51 236z" />
<glyph unicode="&#x3c6;" horiz-adv-x="1044" d="M78 279q0 51 6 92q4 19 11.5 61t11 62.5t12 58.5t15.5 59t19 53.5t24.5 52.5t30.5 46t39 43.5t48 35.5t59 31l15 5q7 0 14 -13l14 -41v-6q0 -9 -14 -16q-67 -34 -111.5 -91.5t-58.5 -127.5q-4 -22 -19.5 -88.5t-23.5 -112.5t-8 -82q0 -107 61 -171t185 -71l159 820 q2 11 10.5 19t20.5 7l37 -2q167 -9 256.5 -78.5t89.5 -197.5q0 -20 -4 -56l-43 -231q-17 -84 -48.5 -145.5t-84.5 -107.5t-132.5 -70.5t-187.5 -28.5l-67 -342q-3 -15 -15 -15h-57q-14 0 -14 13q55 275 67 344q-150 6 -233.5 83t-83.5 208zM494 61q158 6 242.5 74.5 t111.5 204.5q1 9 23 116.5t22 159.5q0 107 -59 154t-191 59q-98 -512 -149 -768z" />
<glyph unicode="&#x3c7;" horiz-adv-x="720" d="M-60.5 5q-2.5 5 3.5 15l370 447l-174 403q-3 7 2 13t13 6h47q15 0 20.5 -3t9.5 -14l136 -333h4l268 333q10 12 16.5 14.5t20.5 2.5h57q17 0 8 -19l-331 -401l196 -453q8 -16 -12 -16h-49q-24 0 -31 16l-160 381h-4l-307 -381q-14 -16 -37 -16h-55q-9 0 -11.5 5z" />
<glyph unicode="&#x3c8;" horiz-adv-x="1048" d="M84 350l104 527q0 14 17 14h57q14 0 10 -14q-7 -38 -48 -250t-54 -283q-26 -126 37 -201t205 -82l168 867q3 14 18 14h57q15 0 11 -14l-168 -867q140 5 233 77.5t117 201.5q13 64 53 274.5t51 262.5q3 14 17 14h59q14 0 10 -14q-30 -145 -104 -541q-67 -338 -451 -350 l-67 -342q0 -13 -15 -13h-57q-14 0 -14 13l67 342q-175 8 -260 104.5t-53 259.5z" />
<glyph unicode="&#x3c9;" horiz-adv-x="1224" d="M80 322l49 258q28 141 121 228t223 91q10 0 15 -3t4 -11l-9 -47q-3 -15 -18 -15q-92 -9 -163 -76t-91 -169l-49 -256q-23 -116 14 -188.5t129 -72.5q61 0 115 40.5t83.5 92t39.5 101.5q34 176 59 305q2 12 19 12h57q13 0 10 -12l-59 -305q-10 -51 1 -102t51 -90.5 t103 -39.5q88 0 152 70.5t88 188.5l51 256q20 102 -23 166t-134 79q-9 0 -12.5 2.5t-2.5 12.5l10 47q2 14 23 14q122 -16 185 -99.5t38 -221.5l-51 -261q-28 -156 -108.5 -241.5t-211.5 -85.5q-85 0 -146.5 42t-76.5 111h-8q-108 -153 -268 -153q-128 0 -184 90t-25 242z " />
<glyph unicode="&#x3ca;" horiz-adv-x="368" d="M90 213l129 664q0 12 14 12h58q12 0 12 -12l-127 -658q-6 -39 -7.5 -70t19.5 -52.5t66 -28.5q19 -3 12 -21l-10 -47q-2 -10 -16 -10q-19 0 -27 2q-162 18 -123 221zM100 1149q4 26 25.5 43.5t46.5 17.5q24 0 37.5 -17.5t9.5 -43.5t-24.5 -44t-44.5 -18q-25 0 -40 18.5 t-10 43.5zM414 1149q6 26 26 43.5t45 17.5t39.5 -17.5t10.5 -43.5q-5 -25 -26 -43.5t-46 -18.5t-39.5 18.5t-9.5 43.5z" />
<glyph unicode="&#x3cb;" horiz-adv-x="868" d="M82 311q58 269 111 566q3 14 18 14h55q16 0 13 -14q-8 -40 -32 -165t-45.5 -234.5t-33.5 -166.5q-22 -114 33 -183t168 -69t191.5 69t101.5 187q45 223 106 562q6 14 18 14h60q14 0 10 -14q-12 -58 -30 -151.5t-41.5 -220t-36.5 -192.5q-30 -155 -127 -241t-250 -86 q-159 0 -238 89t-51 236zM358 1149q4 26 25.5 43.5t46.5 17.5q24 0 37.5 -17.5t9.5 -43.5t-24.5 -44t-44.5 -18q-25 0 -40 18.5t-10 43.5zM672 1149q6 26 26 43.5t45 17.5t39.5 -17.5t10.5 -43.5q-5 -25 -26 -43.5t-46 -18.5t-39.5 18.5t-9.5 43.5z" />
<glyph unicode="&#x3cc;" horiz-adv-x="862" d="M82 328l45 250q30 148 124.5 235.5t244.5 87.5q152 0 235.5 -96.5t54.5 -245.5l-41 -240q-65 -329 -374 -329q-161 0 -240 94.5t-49 243.5zM164 317q-22 -116 37 -186t174 -70q112 0 185.5 68t98.5 190l41 238q22 112 -34 189.5t-174 80.5q-110 3 -184 -67.5t-97 -184.5z M502 1018q-13 8 0 26l186 256q18 21 39 7l41 -27q20 -14 4 -33l-227 -239q-16 -12 -29 -2z" />
<glyph unicode="&#x3cd;" horiz-adv-x="868" d="M82 311q58 269 111 566q3 14 18 14h55q16 0 13 -14q-8 -40 -32 -165t-45.5 -234.5t-33.5 -166.5q-22 -114 33 -183t168 -69t191.5 69t101.5 187q45 223 106 562q6 14 18 14h60q14 0 10 -14q-12 -58 -30 -151.5t-41.5 -220t-36.5 -192.5q-30 -155 -127 -241t-250 -86 q-159 0 -238 89t-51 236zM475 1018q-13 8 0 26l187 256q17 21 38 7l41 -27q20 -14 4 -33l-227 -239q-16 -12 -29 -2z" />
<glyph unicode="&#x3ce;" horiz-adv-x="1224" d="M80 322l49 258q28 141 121 228t223 91q10 0 15 -3t4 -11l-9 -47q-3 -15 -18 -15q-92 -9 -163 -76t-91 -169l-49 -256q-23 -116 14 -188.5t129 -72.5q61 0 115 40.5t83.5 92t39.5 101.5q34 176 59 305q2 12 19 12h57q13 0 10 -12l-59 -305q-10 -51 1 -102t51 -90.5 t103 -39.5q88 0 152 70.5t88 188.5l51 256q20 102 -23 166t-134 79q-9 0 -12.5 2.5t-2.5 12.5l10 47q2 14 23 14q122 -16 185 -99.5t38 -221.5l-51 -261q-28 -156 -108.5 -241.5t-211.5 -85.5q-85 0 -146.5 42t-76.5 111h-8q-108 -153 -268 -153q-128 0 -184 90t-25 242z M686 1018q-13 8 0 26l186 256q18 21 39 7l41 -27q20 -14 4 -33l-227 -239q-16 -12 -29 -2z" />
<glyph unicode="&#x401;" horiz-adv-x="880" d="M49 16l240 1231q4 17 16 17h619q15 0 12 -17l-10 -47q-3 -14 -17 -14h-544l-99 -494h492q16 0 12 -16l-8 -49q-3 -15 -17 -15h-491l-104 -534h606q15 0 12 -15l-8 -47q-3 -16 -19 -16h-680q-15 0 -12 16zM412 1436q3 28 25 47.5t48 19.5q23 0 36.5 -16t10.5 -39 q-3 -27 -24.5 -47.5t-46.5 -20.5q-22 0 -36 16.5t-13 39.5zM727 1436q3 28 24.5 47.5t47.5 19.5q23 0 37 -15.5t12 -39.5q-3 -28 -24.5 -48t-47.5 -20q-24 0 -37.5 16t-11.5 40z" />
<glyph unicode="&#x402;" horiz-adv-x="1202" d="M195 1200l8 47q3 17 18 17h864q7 0 11 -4.5t2 -10.5l-8 -49q-3 -14 -19 -14h-485l-90 -453l2 -4q165 105 327 105q75 0 131.5 -19t89.5 -52.5t52 -79.5t18.5 -100t-10.5 -114l-35 -180q-10 -49 -23 -89t-43.5 -87.5t-72.5 -79.5t-112.5 -53.5t-160.5 -20.5q-11 0 -16 4 t-4 14l6 46q2 18 27 18q76 -1 133.5 18t92.5 55.5t55.5 79t31.5 97.5l33 168q14 62 9.5 116.5t-25 94.5t-73 63t-134.5 23q-68 0 -160 -37.5t-160 -93.5l-121 -611q-4 -14 -14 -14h-55q-8 0 -13 3.5t-4 10.5l228 1172h-291q-12 0 -10 14z" />
<glyph unicode="&#x403;" horiz-adv-x="813" d="M49 14l240 1233q3 17 20 17h639q7 0 11 -4.5t2 -10.5l-9 -49q-3 -14 -18 -14h-567l-230 -1172q-3 -14 -16 -14h-58q-17 0 -14 14zM507 1357q2 5 13 13l260 184q20 14 33 -4l33 -45q12 -19 -10 -30l-287 -152q-19 -11 -27 2l-12 18q-5 9 -3 14z" />
<glyph unicode="&#x404;" horiz-adv-x="851" d="M100 336q102 532 119 608q30 151 124.5 243.5t258.5 92.5q89 0 169 -35t128 -102q9 -9 -6 -25l-33 -26q-12 -6 -15.5 -5t-13.5 11q-38 46 -99 74t-130 28q-117 0 -194.5 -72t-100.5 -186q-23 -104 -51 -254h422q16 0 10 -16l-8 -47q-3 -13 -14 -13h-424l-56 -286 q-18 -112 42.5 -188.5t191.5 -76.5q153 0 262 109q11 9 14.5 10t14.5 -6l34 -31q15 -13 -2 -30q-122 -125 -321 -125q-175 0 -264 98t-58 250z" />
<glyph unicode="&#x405;" horiz-adv-x="874" d="M18 106q-8 9 5 25l28 33q13 14 29 -2q38 -39 118 -67.5t160 -28.5q95 0 174 32.5t129 101t50 162.5q0 49 -17.5 89t-52 70.5t-70.5 51t-88 43.5q-128 60 -173 89q-140 92 -140 227q0 88 36 157t95.5 109t128 60t141.5 20q197 0 301 -98q10 -10 -2 -25q-27 -36 -28 -37 q-12 -15 -27 0q-99 82 -244 82q-51 0 -102.5 -14t-100 -42.5t-78.5 -81.5t-30 -122q0 -44 21.5 -82t62.5 -67.5t76.5 -48t87.5 -40.5q66 -29 114 -58t92.5 -68t67.5 -89.5t23 -111.5q0 -97 -37 -173t-101 -121.5t-145.5 -69t-175.5 -23.5q-96 0 -188.5 31t-139.5 87z" />
<glyph unicode="&#x406;" horiz-adv-x="405" d="M80 14l239 1235q3 15 19 15h57q8 0 12 -4.5t1 -10.5l-240 -1235q0 -14 -16 -14h-60q-18 0 -12 14z" />
<glyph unicode="&#x407;" horiz-adv-x="405" d="M80 14l239 1235q3 15 19 15h57q8 0 12 -4.5t1 -10.5l-240 -1235q0 -14 -16 -14h-60q-18 0 -12 14zM176 1436q3 27 25 47t49 20q23 0 36.5 -16t10.5 -39q-3 -27 -25 -47.5t-47 -20.5q-22 0 -36 16.5t-13 39.5zM492 1436q3 28 24 47.5t47 19.5q23 0 37 -15.5t12 -39.5 q-3 -28 -24 -48t-47 -20q-24 0 -37.5 16t-11.5 40z" />
<glyph unicode="&#x408;" horiz-adv-x="487" d="M-176 -193q-3 22 22 25q82 9 140 36t96 75t60.5 107t39.5 145l205 1052q3 15 19 15h53q17 0 14 -15l-203 -1038q-16 -84 -32.5 -141.5t-47.5 -117.5t-73 -98t-108.5 -66t-155.5 -38q-22 -4 -25 12z" />
<glyph unicode="&#x409;" horiz-adv-x="1558" d="M-61 27v4q0 13 14 18q60 23 103 59t82.5 98.5t74.5 167t70 248t77 357.5l50 270q3 15 18 15h567q13 -3 13 -11v-4l-105 -551h295q148 0 229.5 -77.5t81.5 -210.5q0 -174 -111.5 -292t-295.5 -118h-404q-18 0 -18 16q29 146 107 549t122 621h-426q-14 -61 -39 -207 q-38 -194 -69.5 -331t-66 -246.5t-67.5 -178.5t-76 -119.5t-88.5 -78.5t-107.5 -48q-4 -2 -8 -2q-10 0 -14 15zM780 78h322q77 0 139.5 28.5t100.5 75t58.5 103t20.5 116.5q0 104 -58.5 162t-176.5 58h-297z" />
<glyph unicode="&#x40a;" horiz-adv-x="1519" d="M43 12l240 1237q3 15 18 15h57q15 0 15 -11v-4l-109 -551h510q39 205 109 551q3 15 18 15h55q13 0 13 -15l-107 -549h289q149 0 234 -82.5t85 -218.5q0 -171 -111 -285t-294 -114h-406q-18 0 -18 16l119 605h-510l-115 -596q-4 -25 -18 -25h-58q-16 0 -16 12zM739 78h326 q77 0 139 27t100 72t58 100t20 114q0 105 -63.5 168.5t-179.5 63.5h-291z" />
<glyph unicode="&#x40b;" horiz-adv-x="1218" d="M193 1200l10 47q4 17 16 17h864q7 0 11 -5.5t2 -11.5l-11 -47q-3 -14 -16 -14h-487l-90 -463h8q165 111 327 111q73 0 129 -18.5t90 -51.5t54 -78.5t20.5 -98.5t-8.5 -112l-90 -461q-4 -14 -16 -14h-60q-15 0 -12 14l86 445q15 62 9 116t-29.5 93.5t-76 62.5t-130.5 23 q-170 0 -322 -133l-117 -609q-3 -12 -16 -12h-53q-9 0 -13.5 2.5t-3.5 9.5l228 1174h-291q-8 0 -10.5 2.5t-1.5 11.5z" />
<glyph unicode="&#x40c;" horiz-adv-x="962" d="M43 14l240 1231q2 10 5 14.5t13 4.5h59q14 0 11 -17l-119 -614l4 -2l655 618q16 13 27 13h74q8 0 10.5 -3t0.5 -7.5t-7 -8.5l-549 -516l4 -6q57 14 121 14q299 0 260 -329l-47 -392q-3 -14 -17 -14h-53q-14 0 -14 16l45 365q4 30 6 52t1 53.5t-8 54t-23 47t-40.5 39.5 t-64 25t-90.5 10q-80 0 -143.5 -25t-103.5 -67.5t-64 -89.5t-35 -101l-70 -363q-1 -6 -2.5 -9.5t-4 -5t-7.5 -1.5h-60q-17 0 -14 14zM525 1364q2 4 14 12l260 185q19 13 32 -5l33 -45q12 -19 -10 -30l-287 -152q-18 -11 -26 2l-13 19q-5 10 -3 14z" />
<glyph unicode="&#x40e;" horiz-adv-x="839" d="M70 0l8 41q3 13 6 16.5t10 3.5h49q87 0 146 101l37 63q22 39 25.5 63.5t-5.5 59.5l-168 895q0 21 17 21h53q18 0 20 -17l152 -837h6l448 837q10 17 31 17h56q23 0 8 -23l-582 -1071q-63 -108 -118 -147t-152 -39h-35q-10 0 -12 3.5t0 12.5zM393 1528q0 16 17 16h24 q4 0 6 -1t3 -2.5t1 -4v-6.5v-4q-2 -69 35.5 -110.5t106.5 -41.5q64 0 118.5 41t79.5 109q10 20 23 20h24q15 0 11 -20q-23 -98 -96 -156.5t-168 -58.5q-93 0 -147.5 61t-37.5 158z" />
<glyph unicode="&#x40f;" horiz-adv-x="1030" d="M47 14l240 1235q3 15 18 15h57q7 0 11 -4.5t2 -10.5l-228 -1171h603l227 1171q3 15 18 15h58q16 0 12 -15l-240 -1235q-3 -14 -16 -14h-330l-55 -283q-7 -24 -25 -24h-55q-9 0 -11 5.5t1 18.5l55 283h-328q-17 0 -14 14z" />
<glyph unicode="&#x410;" horiz-adv-x="903" d="M-53 16l598 1231q9 17 20 17h94q16 0 19 -15l121 -1229q3 -6 -0.5 -13t-12.5 -7h-55q-7 0 -10 0.5t-5 3t-3 8.5l-33 307h-492l-147 -307q-6 -12 -21 -12h-61q-21 0 -12 16zM225 395h453q-10 97 -26 278t-21 232l-27 277h-4q-100 -210 -133 -281z" />
<glyph unicode="&#x411;" horiz-adv-x="935" d="M43 16l240 1229q4 19 24 19h572q12 0 12 -15l-10 -49q0 -14 -17 -14h-506l-94 -488h295q146 0 229.5 -83t83.5 -216q0 -171 -108.5 -285t-298.5 -114h-406q-16 0 -16 16zM143 78h322q79 0 142 27.5t100.5 72t57 98t19.5 109.5q0 105 -59 170.5t-178 65.5h-297 q-33 -160 -107 -543z" />
<glyph unicode="&#x412;" horiz-adv-x="968" d="M51 10v4l240 1233q4 17 16 17h361q129 0 204.5 -67.5t75.5 -188.5q0 -113 -58.5 -203.5t-172.5 -128.5v-6q79 -27 120.5 -96.5t41.5 -157.5q0 -181 -115.5 -298.5t-292.5 -117.5h-408q-12 0 -12 10zM152 78h325q136 0 223.5 98.5t87.5 235.5q0 97 -61.5 160t-163.5 63 h-301zM274 713h297q120 0 205.5 78t85.5 204q0 86 -56.5 138.5t-150.5 52.5h-288z" />
<glyph unicode="&#x413;" horiz-adv-x="813" d="M49 14l240 1233q3 17 20 17h639q7 0 11 -4.5t2 -10.5l-9 -49q-3 -14 -18 -14h-567l-230 -1172q-3 -14 -16 -14h-58q-17 0 -14 14z" />
<glyph unicode="&#x414;" horiz-adv-x="1085" d="M-119 -258l58 305q3 14 7.5 20t16.5 9q32 4 51 4q139 81 207 332q97 376 209 829q5 21 25 21h606q22 0 16 -21l-225 -1161h70q17 -2 14 -25l-62 -311q-3 -15 -7 -19t-13 -4h-47q-17 0 -14 23l51 256h-832l-51 -256q-3 -15 -7 -19t-13 -4h-47q-18 0 -13 21zM133 84 q0 -1 1 -2t1 -2h629l215 1104h-479q-45 -182 -201 -787q-50 -200 -166 -313z" />
<glyph unicode="&#x415;" horiz-adv-x="880" d="M49 16l240 1231q4 17 16 17h619q15 0 12 -17l-10 -47q-3 -14 -17 -14h-544l-99 -494h492q16 0 12 -16l-8 -49q-3 -15 -17 -15h-491l-104 -534h606q15 0 12 -15l-8 -47q-3 -16 -19 -16h-680q-15 0 -12 16z" />
<glyph unicode="&#x416;" horiz-adv-x="1546" d="M6 14l100 373q16 59 33.5 103t49.5 91.5t72.5 78t104 50t142.5 19.5q76 0 115 -16l4 4l-353 526q-6 6 -1 12.5t14 6.5h59q13 0 23 -13q67 -100 201 -298.5t200 -299.5q4 2 8 2q74 376 115 592q3 19 16 19h60q17 0 12 -19l-113 -575l6 -6q73 69 287 271t330 314 q16 13 27 13h65q14 0 14 -9q0 -7 -6 -10l-542 -520v-6q47 12 114 12q148 0 208.5 -70.5t60.5 -189.5q0 -9 -5 -72l-49 -383q0 -14 -16 -14h-53q-13 0 -13 8v6l41 365q9 70 9 96q0 39 -9 70t-30.5 59t-64 43t-103.5 15q-274 0 -324 -269q-43 -219 -72 -381q-3 -12 -18 -12 h-59q-13 0 -13 10v4q65 337 74 385q10 52 10 88q0 82 -52.5 127t-176.5 45q-67 0 -120 -18.5t-85.5 -45t-58 -67.5t-37.5 -73.5t-23 -75.5l-96 -365q-2 -14 -16 -14h-54q-17 0 -12 14z" />
<glyph unicode="&#x417;" horiz-adv-x="872" d="M0 125q-6 13 6 22l33 27q10 6 14 4.5t13 -12.5q36 -44 109 -74.5t159 -30.5q151 0 247.5 99t96.5 260q0 117 -75.5 175t-192.5 58h-113q-10 0 -10 13v2l8 49q3 14 18 14h146q126 0 211.5 78t85.5 188q0 90 -60 144.5t-170 54.5q-155 0 -264 -92q-20 -20 -31 -8l-34 34 q-12 12 2 23q135 123 336 123q140 0 225.5 -72.5t85.5 -195.5q0 -113 -80 -205t-170 -111v-8q78 -28 124 -96t46 -162q0 -199 -120 -318.5t-320 -119.5q-102 0 -196 36.5t-130 100.5z" />
<glyph unicode="&#x418;" horiz-adv-x="1024" d="M39 14l240 1233q3 17 18 17h55q13 0 13 -17l-205 -1063h6l799 1061q19 19 32 19h50q17 0 14 -23l-238 -1227q-3 -14 -18 -14h-55q-13 0 -13 14l205 1061h-8q-132 -176 -399.5 -529.5t-399.5 -529.5q-11 -16 -31 -16h-51q-14 0 -14 14z" />
<glyph unicode="&#x419;" horiz-adv-x="1024" d="M39 14l240 1233q3 17 18 17h55q13 0 13 -17l-205 -1063h6l799 1061q19 19 32 19h50q17 0 14 -23l-238 -1227q-3 -14 -18 -14h-55q-13 0 -13 14l205 1061h-8q-132 -176 -399.5 -529.5t-399.5 -529.5q-11 -16 -31 -16h-51q-14 0 -14 14zM498 1518q0 16 16 16h25q4 0 6 -1 t3 -2.5t1 -4v-6.5v-4q-2 -69 35 -110.5t106 -41.5q65 0 119.5 41t79.5 108q4 8 6 11t6 6.5t10 3.5h25q14 0 10 -21q-23 -98 -96 -156.5t-168 -58.5q-93 0 -147 61.5t-37 158.5z" />
<glyph unicode="&#x41a;" horiz-adv-x="962" d="M43 14l240 1231q2 10 5 14.5t13 4.5h59q14 0 11 -17l-119 -614l4 -2l655 618q16 13 27 13h74q8 0 10.5 -3t0.5 -7.5t-7 -8.5l-549 -516l4 -6q57 14 121 14q299 0 260 -329l-47 -392q-3 -14 -17 -14h-53q-14 0 -14 16l45 365q4 30 6 52t1 53.5t-8 54t-23 47t-40.5 39.5 t-64 25t-90.5 10q-80 0 -143.5 -25t-103.5 -67.5t-64 -89.5t-35 -101l-70 -363q-1 -6 -2.5 -9.5t-4 -5t-7.5 -1.5h-60q-17 0 -14 14z" />
<glyph unicode="&#x41b;" horiz-adv-x="1021" d="M-66 29q0 15 17 22q60 23 103 59t83 98.5t75 166.5t70 248t76 356q25 153 52 272q3 13 18 13h619q16 0 12 -15l-242 -1235q0 -14 -14 -14h-58q-17 0 -14 14l227 1172h-477l-39 -205q-57 -292 -102 -466t-101 -289t-117 -166.5t-155 -82.5q-16 -4 -24 11z" />
<glyph unicode="&#x41c;" horiz-adv-x="1226" d="M25 14l237 1223q2 11 9.5 19t19.5 8h41q23 0 26 -19q25 -135 91 -508.5t104 -574.5h6q114 195 321 563t296 522q14 17 30 17h54q24 0 20 -27l-238 -1223q-3 -14 -16 -14h-55q-9 0 -13 4t-2 10l199 1020h-6l-252 -438q-44 -76 -147 -254t-158 -274q-10 -19 -31 -19h-45 q-20 0 -22 17l-101 522q-19 114 -80 444h-6l-196 -1018q-3 -14 -17 -14h-57q-15 0 -12 14z" />
<glyph unicode="&#x41d;" horiz-adv-x="1024" d="M45 14l240 1235q3 15 18 15h57q7 0 11 -4.5t2 -10.5l-109 -559h596l109 559q6 15 18 15h60q16 0 12 -15l-240 -1235q-3 -14 -16 -14h-58q-16 0 -16 14l117 598h-596l-117 -598q-3 -14 -16 -14h-58q-17 0 -14 14z" />
<glyph unicode="&#x41e;" horiz-adv-x="970" d="M106 360l109 578q31 153 135.5 246.5t267.5 93.5q172 0 265.5 -100.5t62.5 -255.5l-112 -594q-64 -342 -406 -342q-122 0 -203 53t-110 137t-9 184zM187.5 273q0.5 -43 17.5 -81t44.5 -67t75 -45.5t109.5 -16.5q136 0 213.5 73t100.5 196l110 594q14 73 -7 133.5 t-82.5 99.5t-156.5 39q-128 0 -207.5 -74.5t-101.5 -189.5l-110 -572q-6 -46 -5.5 -89z" />
<glyph unicode="&#x41f;" horiz-adv-x="1030" d="M45 14l240 1235q3 15 18 15h750q16 0 12 -15l-240 -1235q-3 -14 -16 -14h-59q-15 0 -15 14l230 1172h-603l-229 -1172q0 -14 -16 -14h-58q-17 0 -14 14z" />
<glyph unicode="&#x420;" horiz-adv-x="917" d="M51 14l242 1233q4 17 20 17h365q134 0 215.5 -75.5t81.5 -197.5q0 -184 -113.5 -290.5t-288.5 -106.5h-319l-115 -580q0 -14 -16 -14h-55q-17 0 -17 14zM266 670h312q135 0 221 85.5t86 221.5q0 95 -54.5 152t-160.5 57h-303z" />
<glyph unicode="&#x421;" horiz-adv-x="851" d="M100 338l121 606q14 72 42.5 131.5t74 106t113 72.5t151.5 26q91 0 170 -33.5t129 -101.5q7 -12 -8 -27l-31 -24q-8 -7 -13.5 -6t-14.5 12q-39 45 -100.5 72.5t-129.5 27.5q-123 0 -198.5 -71.5t-98.5 -186.5l-121 -616q-21 -111 42 -187t194 -76q150 0 260 107 q16 16 29 6l39 -35q12 -12 -5 -26q-129 -129 -321 -129q-175 0 -263.5 99t-60.5 253z" />
<glyph unicode="&#x422;" horiz-adv-x="819" d="M174 1200l8 47q7 17 19 17h741q16 0 12 -15l-10 -49q0 -14 -18 -14h-326l-229 -1172q-3 -14 -17 -14h-55q-8 0 -12.5 3.5t-3.5 10.5l227 1172h-324q-8 0 -10.5 2.5t-1.5 11.5z" />
<glyph unicode="&#x423;" horiz-adv-x="839" d="M70 0l8 41q3 13 6 16.5t10 3.5h49q87 0 146 101l37 63q22 39 25.5 63.5t-5.5 59.5l-168 895q0 21 17 21h53q18 0 20 -17l152 -837h6l448 837q10 17 31 17h56q23 0 8 -23l-582 -1071q-63 -108 -118 -147t-152 -39h-35q-10 0 -12 3.5t0 12.5z" />
<glyph unicode="&#x424;" horiz-adv-x="1110" d="M113 418q0 47 18 121l57 295q31 162 146 259t328 103l10 53q6 15 18 15h58q12 0 12 -11v-4l-12 -53q159 -7 249 -94.5t90 -216.5q0 -34 -6 -72l-69 -354q-15 -74 -47 -133t-86.5 -108t-141 -76t-198.5 -27l-21 -103q-3 -12 -14 -12h-58q-14 0 -14 8v4l21 103 q-166 7 -253 92t-87 211zM195 420q0 -95 64.5 -160.5t207.5 -69.5l180 930q-165 -3 -258 -81.5t-117 -200.5l-71 -363q-6 -27 -6 -55zM553 193q165 0 257 69t116 191l73 372q7 31 7 56q0 99 -69.5 167t-203.5 72z" />
<glyph unicode="&#x425;" horiz-adv-x="845" d="M-59 18l477 639l-209 586q-4 21 16 21h56q17 0 20 -11q33 -90 90.5 -260.5t83.5 -244.5h6l371 505q11 11 27 11h67q9 0 10.5 -7t-4.5 -14l-434 -584q40 -114 120 -334.5t110 -306.5q4 -18 -13 -18h-51q-19 0 -25 8l-196 563h-4l-418 -563q-6 -8 -25 -8h-67q-20 0 -8 18z " />
<glyph unicode="&#x426;" horiz-adv-x="1042" d="M43 14q208 1067 240 1235q6 15 20 15h57q13 0 13 -11v-4l-230 -1173h605l227 1173q3 15 18 15h58q12 0 12 -11v-4l-227 -1173h77q17 0 17 -15q0 -1 -1 -4.5t-1 -5.5q-38 -189 -58 -297q-5 -22 -24 -22h-43q-17 0 -17 12q0 6 2 10l48 246h-777q-16 0 -16 14z" />
<glyph unicode="&#x427;" horiz-adv-x="935" d="M150 791q0 45 8 86l73 374q0 15 17 15h59q12 0 12 -15l-69 -358q-10 -55 -10 -92q0 -201 227 -201q75 0 163 32t154 93q20 104 60 302.5t45 223.5q4 15 16 15h56q16 0 16 -15q-106 -534 -242 -1239q-2 -12 -18 -12h-58q-14 0 -14 8q0 4 2 6l115 602q-1 0 -2 1t-2 1 q-60 -45 -148.5 -71.5t-165.5 -26.5q-147 0 -220.5 74t-73.5 197z" />
<glyph unicode="&#x428;" horiz-adv-x="1513" d="M43 14l242 1235q3 15 18 15h57q15 0 15 -11q0 -1 -1 -3t-1 -3v2l-230 -1173h494l227 1173q3 15 19 15h55q14 0 14 -11q0 -1 -1 -3t-1 -3v2l-225 -1173h506l229 1173q3 15 17 15h57q14 0 14 -11q0 -1 -1 -3t-1 -3q-39 -205 -239 -1235q0 -12 -15 -12h-1233q-16 0 -16 14z " />
<glyph unicode="&#x429;" horiz-adv-x="1529" d="M47 14l240 1235q3 15 18 15h57q7 0 11 -4.5t2 -10.5l-228 -1173h492l227 1173q3 15 17 15h57q18 0 14 -15l-227 -1173h508l227 1173q3 15 17 15h57q16 0 12 -15l-225 -1173h76q22 0 14 -25l-59 -307q-5 -23 -23 -23h-47q-19 0 -14 23l51 256h-1260q-17 0 -14 14z" />
<glyph unicode="&#x42a;" horiz-adv-x="1181" d="M123 1198l8 45q4 19 16 19h467q13 0 13 -11v-4l-105 -549h221q385 0 385 -305q0 -172 -110 -282.5t-295 -110.5h-404q-16 0 -16 16q36 184 110.5 575t114.5 593h-395q-10 0 -10 14zM399 78h324q78 0 140 26t99.5 70t57.5 98t20 113q0 106 -60 171t-173 65h-301 q-67 -348 -107 -543z" />
<glyph unicode="&#x42b;" horiz-adv-x="1247" d="M45 16l238 1233q3 15 18 15h55q15 0 15 -15q-41 -201 -107 -551h297q146 0 228.5 -84.5t82.5 -220.5q0 -172 -110.5 -282.5t-296.5 -110.5h-404q-16 0 -16 16zM143 78h322q152 0 235.5 90t83.5 217q0 106 -60.5 171t-174.5 65h-299q-18 -86 -53 -267.5t-54 -275.5z M948 12l242 1237q3 15 18 15h58q14 0 14 -13v-2l-242 -1235q0 -14 -14 -14h-59q-17 0 -17 12z" />
<glyph unicode="&#x42c;" horiz-adv-x="925" d="M45 16l238 1233q3 15 18 15h55q15 0 15 -15q-41 -201 -107 -551h297q146 0 228.5 -84.5t82.5 -220.5q0 -172 -110.5 -282.5t-296.5 -110.5h-404q-16 0 -16 16zM143 78h322q152 0 235.5 90t83.5 217q0 106 -60.5 171t-174.5 65h-299q-18 -86 -53 -267.5t-54 -275.5z" />
<glyph unicode="&#x42d;" horiz-adv-x="815" d="M14 119q-7 10 9 22l36 27q21 14 27 -4q29 -47 87 -75t128 -28q122 0 199 66.5t102 187.5l62 308h-422q-17 0 -11 16l9 47q2 12 14 12h424l43 236q21 107 -39.5 186.5t-179.5 79.5q-144 0 -246 -96q-14 -14 -20 -15.5t-15 5.5l-33 30q-14 11 0 25q127 127 301 127 t258 -100.5t54 -255.5l-113 -607q-27 -156 -125.5 -241.5t-259.5 -85.5q-97 0 -174.5 34.5t-114.5 98.5z" />
<glyph unicode="&#x42e;" horiz-adv-x="1282" d="M43 12l240 1237q3 15 18 15h57q15 0 15 -11v-4l-111 -561h248l39 203q17 89 46.5 157t76.5 121t117 81t161 28q139 0 228.5 -69t89.5 -189q0 -41 -6 -68l-117 -645q-61 -319 -395 -319q-146 0 -230 71.5t-84 198.5q0 58 21 154l39 200h-248l-117 -598q0 -14 -14 -14h-58 q-16 0 -16 12zM520 276q0 -96 62 -154.5t168 -58.5q256 0 307 248l119 643q4 16 4 50q0 87 -62.5 141.5t-167.5 54.5q-118 0 -198.5 -68.5t-102.5 -177.5l-123 -618q-6 -30 -6 -60z" />
<glyph unicode="&#x42f;" horiz-adv-x="978" d="M-14 10q0 6 6 15q176 272 340 518q6 10 6 18l-8 10q-59 49 -95 127.5t-36 171.5q0 169 111.5 280.5t291.5 111.5h391q9 0 15 -5.5t6 -11.5l-15 -71q-39 -198 -112.5 -586.5t-110.5 -575.5q0 -12 -16 -12h-55q-15 0 -15 14l105 539h-353l-350 -533q-12 -20 -37 -20h-55 q-14 0 -14 10zM291 883q0 -32 8 -72t23.5 -82.5t45.5 -71t68 -28.5h373l109 557h-293q-68 0 -125 -18.5t-95 -48.5t-64 -70t-38 -82t-12 -84z" />
<glyph unicode="&#x430;" horiz-adv-x="847" d="M66 242q0 150 97 249t251 99q77 0 139 -32.5t98 -88.5h4l23 127q11 48 5.5 91t-25.5 75t-67.5 50.5t-119.5 18.5q-47 0 -114.5 -13.5t-112.5 -33.5q-14 -6 -19 7l-16 43q-5 12 12 20q119 51 256 51q167 0 239.5 -82t43.5 -235l-109 -574q-3 -14 -18 -14h-55q-11 0 -11 12 q4 20 8.5 44.5t6.5 34.5t2 11h-4q-97 -112 -256 -112q-120 0 -189 69t-69 183zM147 250q0 -86 48 -137.5t141 -51.5q118 0 198 81.5t80 193.5q0 80 -54 133t-144 53q-119 0 -194 -79.5t-75 -192.5z" />
<glyph unicode="&#x431;" horiz-adv-x="862" d="M84 338l98 498q11 57 21.5 98.5t27.5 89.5t37 81.5t50.5 68t67.5 56.5t88.5 38.5t113.5 23.5q121 14 209 23q11 2 16 -1t6 -14l4 -38q0 -16 -20 -19q-202 -22 -217 -24q-141 -19 -210 -95t-100 -221l-28 -143l4 -4q52 55 124 84.5t144 29.5q149 0 220 -91t46 -232 l-43 -232q-27 -150 -124.5 -237.5t-258.5 -87.5q-167 0 -238 93.5t-38 254.5zM164 319q-24 -121 27.5 -189.5t175.5 -68.5q116 0 192 69.5t100 191.5l43 225q23 109 -29.5 179.5t-172.5 70.5q-107 0 -189 -71.5t-102 -180.5z" />
<glyph unicode="&#x432;" horiz-adv-x="888" d="M74 254q0 12 2.5 38t3.5 34q5 26 20.5 102t28.5 145q12 61 42.5 117t78 104.5t120 77.5t158.5 29q139 0 215 -59t76 -146q0 -69 -39 -122t-114 -74v-4q56 -14 92.5 -59t36.5 -105q0 -57 -25 -115.5t-72.5 -110t-127 -84t-177.5 -32.5q-142 0 -230.5 69t-88.5 195z M160 256q0 -90 65.5 -142.5t173.5 -52.5q77 0 139 27t97 68.5t53.5 85.5t18.5 84q0 68 -58 103.5t-168 35.5h-75q-13 0 -13 10l10 49q0 11 17 11h84q100 0 165.5 37t65.5 112q0 64 -53 103.5t-154 39.5q-129 0 -211.5 -75t-101.5 -177l-51 -260q-4 -40 -4 -59z" />
<glyph unicode="&#x433;" horiz-adv-x="684" d="M12 186q0 57 24.5 105t69 83.5t91.5 60t108 46.5q9 3 42 15t48 17.5t45.5 18.5t46.5 23t38.5 26t34 31.5t20 36.5t8.5 43q0 48 -30.5 80.5t-69.5 44.5t-82 12q-56 0 -119.5 -26t-108.5 -66q-15 -15 -28 -2l-27 33q-9 12 2 23q126 108 295 108q104 0 178 -51t74 -143 q0 -26 -6.5 -50.5t-16 -44t-26 -38.5t-31.5 -32.5t-39.5 -28.5t-41.5 -24t-44.5 -21t-43.5 -18t-44 -17t-39 -15q-41 -15 -68 -26.5t-63.5 -32.5t-58 -41.5t-37 -51t-15.5 -65.5q0 -65 50 -104.5t126 -39.5q60 0 133.5 38.5t118.5 90.5q15 16 27 4l35 -26q7 -5 6 -12.5 t-8 -14.5q-63 -68 -147.5 -107.5t-180.5 -39.5q-113 0 -179.5 56.5t-66.5 141.5z" />
<glyph unicode="&#x434;" horiz-adv-x="862" d="M80 328l41 204q30 156 119 241t239 85q78 0 149.5 -36.5t104.5 -96.5h6l23 135q31 172 -28.5 271.5t-223.5 99.5q-83 0 -180 -25q-19 -5 -21 13l-8 38q-3 16 14 23q108 27 199 27q200 0 282.5 -121.5t39.5 -354.5l-95 -512q-60 -329 -364 -329q-165 0 -246 94t-51 244z M162 317q-23 -117 37.5 -186.5t183.5 -69.5q220 0 274 258l43 211q22 110 -41 182t-182 72q-114 0 -181.5 -68t-90.5 -184z" />
<glyph unicode="&#x435;" horiz-adv-x="829" d="M68 238q0 38 8.5 89.5t24 120.5t20.5 99q66 354 418 354q115 0 186.5 -59.5t71.5 -161.5q0 -55 -17.5 -99.5t-46.5 -76t-76 -54.5t-96.5 -37t-117 -22.5t-129 -12.5t-140.5 -5q-2 -11 -12 -61t-10 -72q0 -85 58 -132t169 -47q61 0 125 26.5t104 68.5q18 18 29 6l29 -27 q6 -6 6 -12q0 -10 -25 -35q-44 -43 -121.5 -70.5t-163.5 -27.5q-145 0 -219.5 66t-74.5 182zM186 446q73 1 132.5 4.5t122 12t109 24.5t84.5 39t57.5 58t19.5 80q0 68 -45 115.5t-144 47.5q-75 0 -132 -24t-88.5 -54t-56 -87t-33 -90t-20.5 -96z" />
<glyph unicode="&#x436;" horiz-adv-x="1366" d="M-2 16l49 207q15 62 41 115.5t67.5 102t104.5 77t141 29.5q41 0 64 -4v4l-272 319q-2 2 -3 5.5t-1 7.5t4 7t12 3h61q17 0 27 -10q59 -72 175 -208.5t171 -205.5q1 0 3 1t3 1l80 412q3 12 14 12h60q15 0 12 -14l-82 -414h6q83 68 498 416q15 10 31 10h63q9 0 12 -4.5 t0 -11t-10 -11.5l-389 -315l4 -4q20 4 60 4q266 -5 229 -324l-33 -207q-3 -16 -18 -16h-54q-17 0 -14 14l31 209q33 252 -191 252q-111 0 -180 -71.5t-90 -176.5l-41 -215q-2 -12 -18 -12h-58q-13 0 -10 12l49 256q14 88 -37 147.5t-145 59.5q-65 0 -117 -21.5t-85 -59 t-53 -79.5t-32 -92l-51 -209q-3 -14 -18 -14h-54q-19 0 -16 16z" />
<glyph unicode="&#x437;" horiz-adv-x="747" d="M-14 129q0 9 12 16l41 27q4 2 10 2q7 0 10 -8q27 -46 79 -75.5t122 -29.5q47 0 92.5 13t85.5 38.5t65 69.5t25 101q0 71 -45.5 111t-117.5 40h-109q-12 0 -12 15l8 43q4 14 16 14h140q70 0 126 42.5t56 127.5q0 53 -28 87.5t-67 47t-87 12.5q-60 0 -120.5 -24.5 t-105.5 -69.5q-10 -10 -18 -10q-2 0 -10 4l-35 33q-4 2 -4 10q0 5 6 14q127 121 293 121q130 0 200 -58t70 -159q0 -169 -170 -223v-8q38 -15 62.5 -44t33 -56.5t8.5 -57.5q0 -138 -99 -222.5t-259 -84.5q-99 0 -171.5 33t-100.5 100q-2 4 -2 8z" />
<glyph unicode="&#x438;" horiz-adv-x="872" d="M77 224q0 49 9 102l107 551q3 14 16 14h59q11 0 8 -14l-106 -555q-22 -111 26 -183.5t171 -72.5q108 0 192 75.5t105 182.5l106 553q4 14 18 14h58q15 0 12 -14l-168 -863q-3 -14 -16 -14h-58q-13 0 -10 12l21 99l-6 -2q-50 -58 -127.5 -88.5t-153.5 -30.5q-67 0 -118 18 t-80.5 50t-47 74.5t-17.5 91.5z" />
<glyph unicode="&#x439;" horiz-adv-x="872" d="M77 224q0 49 9 102l107 551q3 14 16 14h59q11 0 8 -14l-106 -555q-22 -111 26 -183.5t171 -72.5q108 0 192 75.5t105 182.5l106 553q4 14 18 14h58q15 0 12 -14l-168 -863q-3 -14 -16 -14h-58q-13 0 -10 12l21 99l-6 -2q-50 -58 -127.5 -88.5t-153.5 -30.5q-67 0 -118 18 t-80.5 50t-47 74.5t-17.5 91.5zM350 1249q4 17 17 17h26q5 0 7.5 -2t2.5 -4v-8v-5q-1 -67 37.5 -107t104.5 -40q61 0 118.5 40t81.5 105q11 21 23 21h25q14 0 10 -21q-23 -98 -97 -156.5t-171 -58.5q-93 0 -148 61t-37 158z" />
<glyph unicode="&#x43a;" horiz-adv-x="831" d="M27 12l168 869q3 14 16 14h57q16 0 13 -14l-82 -428q1 0 2 -1t2 -1l516 428q15 10 29 10h77q9 0 9 -10q0 -4 -7 -11l-405 -333q41 4 80 4q122 -3 180 -89t39 -227l-31 -207q-2 -9 -6 -12.5t-14 -3.5h-52q-17 0 -14 14l31 209q32 246 -193 246q-103 0 -185.5 -70 t-100.5 -161l-43 -226q-3 -12 -17 -12h-57q-14 0 -12 12z" />
<glyph unicode="&#x43b;" horiz-adv-x="876" d="M-74 25q-2 8 1.5 12t15.5 10q25 11 34.5 16t32 18t33 24.5t30 34.5t31.5 48.5t29 64.5t30.5 86t29 110t30.5 139l56 286q3 17 22 17h541q12 0 12 -17l-168 -860q-3 -16 -18 -16h-56q-14 0 -14 16l160 803h-408l-45 -227q-21 -108 -44 -194t-44.5 -145.5t-48.5 -105.5 t-49 -73t-52.5 -47.5t-53 -30.5t-56.5 -21q-15 -2 -18 11z" />
<glyph unicode="&#x43c;" horiz-adv-x="1054" d="M27 18l166 852q3 21 22 21h45q19 0 23 -19q5 -15 34 -123.5t59 -223t34 -128.5l57 -235h6l158 239l303 469q18 21 35 21h53q16 0 12 -19l-164 -854q-6 -18 -22 -18h-45q-11 0 -16.5 4.5t-2.5 13.5l136 691l-5 2l-129 -205l-282 -422q-13 -21 -29 -21h-39q-11 0 -15 4 t-9 17l-111 424l-51 203l-6 -4l-133 -689q-3 -18 -21 -18h-47q-19 0 -16 18z" />
<glyph unicode="&#x43d;" horiz-adv-x="856" d="M25 12v4l168 856q0 19 22 19h49q15 0 15 -10v-7l-74 -380h471l74 378q3 19 22 19h45q21 0 21 -17l-168 -858q-3 -16 -25 -16h-45q-16 0 -16 12v4q48 243 78 408h-472q-11 -60 -37 -197t-40 -211q-5 -16 -23 -16h-47q-18 0 -18 12z" />
<glyph unicode="&#x43e;" horiz-adv-x="862" d="M82 328l45 250q30 148 124.5 235.5t244.5 87.5q152 0 235.5 -96.5t54.5 -245.5l-41 -240q-65 -329 -374 -329q-161 0 -240 94.5t-49 243.5zM164 317q-22 -116 37 -186t174 -70q112 0 185.5 68t98.5 190l41 238q22 112 -34 189.5t-174 80.5q-110 3 -184 -67.5t-97 -184.5z " />
<glyph unicode="&#x43f;" horiz-adv-x="874" d="M29 12l168 865q3 14 16 14h57q14 0 11 -14l-19 -97l6 2q50 54 128 86.5t151 32.5q67 0 118 -18t80.5 -50t47 -74.5t17.5 -91.5t-9 -102l-107 -551q0 -14 -14 -14h-59q-7 0 -10.5 3t-2.5 9l109 555q22 113 -26 186.5t-171 73.5q-108 0 -192.5 -76t-106.5 -184l-106 -553 q0 -14 -17 -14h-57q-15 0 -12 12z" />
<glyph unicode="&#x440;" horiz-adv-x="870" d="M-37 -354q50 262 238 1231q3 12 16 12h55q11 0 11 -8v-4l-19 -91q1 0 4 -1t4 -1q102 115 269 115q129 0 200.5 -68t71.5 -182q0 -31 -6 -69l-49 -254q-13 -65 -40 -122t-70.5 -106.5t-110.5 -78.5t-150 -29q-80 0 -147.5 33.5t-92.5 85.5h-8l-94 -463q-3 -13 -16 -13h-54 q-12 0 -12 9v4zM170 264q0 -88 58 -144.5t159 -56.5q116 0 189 72.5t96 186.5l51 253q6 35 6 66q0 87 -52.5 136.5t-154.5 49.5q-108 0 -190.5 -70t-104.5 -177q-28 -151 -51 -263q-6 -27 -6 -53z" />
<glyph unicode="&#x441;" horiz-adv-x="759" d="M72 313l49 262q30 152 126.5 239t252.5 87q89 0 159 -34t103 -95q8 -13 -6 -27l-39 -26q-16 -13 -25 4q-27 49 -83 76.5t-120 27.5q-105 0 -182.5 -69t-99.5 -180l-53 -265q-21 -117 29.5 -184.5t174.5 -67.5q130 0 232 107q11 14 24 4l35 -27q16 -11 2 -28 q-115 -127 -303 -127q-156 0 -230.5 88t-45.5 235z" />
<glyph unicode="&#x442;" horiz-adv-x="1359" d="M25 12l112 580q28 142 126.5 225.5t242.5 83.5q76 0 140 -38t95 -111h9q53 72 130 110.5t154 38.5q140 0 211.5 -84t44.5 -225q-74 -391 -112 -578q0 -14 -15 -14h-59q-13 0 -10 12l110 580q21 104 -27.5 169.5t-152.5 65.5q-90 0 -168.5 -69t-97.5 -166 q-18 -90 -54 -276.5t-59 -301.5q0 -14 -16 -14h-58q-15 0 -12 12l113 580q20 98 -31 166.5t-143 68.5q-101 0 -177.5 -67t-95.5 -168l-114 -578q0 -14 -15 -14h-59q-15 0 -12 12z" />
<glyph unicode="&#x443;" horiz-adv-x="755" d="M78 -346l182 344h-18q-16 0 -20 5t-7 22l-127 843q0 21 16 21h46q21 0 24 -19l119 -798h4l299 559q22 42 32.5 85t11.5 67.5t1 82.5q0 25 23 25h41q16 0 20 -6.5t4 -20.5q0 -89 -11 -143.5t-50 -126.5l-500 -946q-13 -21 -35 -21h-45q-22 0 -10 27z" />
<glyph unicode="&#x444;" horiz-adv-x="1046" d="M92 375l37 186q29 148 139 245.5t301 100.5l74 379q5 19 16 19h64q13 0 10 -19l-74 -381q119 -10 196.5 -62.5t104 -130t7.5 -171.5l-35 -187q-33 -165 -146 -265.5t-309 -106.5l-65 -338q-3 -13 -17 -13h-59q-15 0 -12 13l69 342q-116 10 -192 67t-102 140.5t-7 181.5z M176 365q-15 -78 3.5 -143t75.5 -109t148 -52l152 768q-139 0 -228 -76t-112 -192zM492 61q77 1 140 25t105.5 65.5t69 92.5t37.5 110l35 181q25 121 -32 202t-202 94z" />
<glyph unicode="&#x445;" horiz-adv-x="720" d="M-60.5 5q-2.5 5 3.5 15l370 447l-174 403q-3 7 2 13t13 6h47q15 0 20.5 -3t9.5 -14l136 -333h4l268 333q10 12 16.5 14.5t20.5 2.5h57q17 0 8 -19l-331 -401l196 -453q8 -16 -12 -16h-49q-24 0 -31 16l-160 381h-4l-307 -381q-14 -16 -37 -16h-55q-9 0 -11.5 5z" />
<glyph unicode="&#x446;" horiz-adv-x="872" d="M82 315l108 566q2 14 15 14h63q11 0 8 -12l-108 -568q-21 -106 29 -176.5t165 -70.5q101 0 189 73.5t108 173.5l109 566q2 14 14 14h64q13 0 10 -12l-143 -736q-5 -30 2 -52t19 -31.5t20 -24t4 -31.5l-49 -213q-5 -22 -25 -22h-29q-19 0 -16 22l37 191q3 19 -6 26 q-19 14 -32 43t-15 54h-11q-65 -55 -125.5 -85t-140.5 -30q-154 0 -223 93t-41 228z" />
<glyph unicode="&#x447;" horiz-adv-x="819" d="M106 598q0 30 15 107l35 172q3 12 16 12h57q13 0 13 -12l-35 -175q-10 -44 -10 -98q0 -178 196 -178q41 0 81 8.5t78 26.5t66.5 49.5t40.5 73.5l60 293q0 12 16 12h58q12 0 12 -12q-96 -488 -168 -865q-2 -12 -16 -12h-58q-12 0 -12 8v4l86 430h-6q-54 -46 -125.5 -68 t-136.5 -22q-134 0 -198.5 67.5t-64.5 178.5z" />
<glyph unicode="&#x448;" horiz-adv-x="1363" d="M74 227q0 20 8 70q4 19 113 580q3 12 16 12h57q13 0 13 -8v-4q-18 -92 -55.5 -285.5t-57.5 -294.5q-6 -35 -6 -61q0 -81 47 -128t139 -47q98 0 175 78.5t98 184.5l108 553q0 12 14 12h60q10 0 10 -8v-4l-108 -558q-9 -56 -9 -75q0 -80 41.5 -130.5t136.5 -50.5 q104 0 181 77.5t100 191.5l107 545q3 12 16 12h57q13 0 13 -10v-2l-168 -865q-2 -12 -19 -12h-59q-10 0 -10 6v6l18 99q-107 -121 -264 -121q-172 0 -221 160q-54 -74 -130.5 -117t-162.5 -43q-121 0 -189.5 62.5t-68.5 174.5z" />
<glyph unicode="&#x449;" horiz-adv-x="1359" d="M80 305l115 574q2 14 14 14h63q12 0 9 -12l-113 -576q-19 -102 30 -172t152 -70q83 0 165.5 73.5t100.5 168.5l113 574q2 14 14 14h66q11 0 8 -12l-112 -576q-21 -106 30 -174t137 -68q101 0 179 75t94 167l112 574q2 14 15 14h63q14 0 11 -12l-146 -734q-5 -30 2 -52 t19 -31.5t20 -24t4 -31.5l-49 -213q-6 -22 -25 -22h-28q-20 0 -17 22l37 191q3 19 -6 26q-16 11 -30 37t-17 47l-8 -2q-41 -43 -113.5 -75.5t-132.5 -32.5q-83 0 -142 42t-77 124h-10q-54 -77 -129 -121.5t-162 -44.5q-149 0 -216 91t-40 228z" />
<glyph unicode="&#x44a;" horiz-adv-x="956" d="M12 836l6 36q3 17 27 17h348q11 0 18.5 -4.5t4.5 -16.5l-66 -329h297q107 0 182.5 -54.5t75.5 -165.5q0 -60 -25 -117.5t-71 -105.5t-121 -77t-166 -29q-148 0 -226.5 67.5t-78.5 184.5q0 15 4 51q11 70 96 524h-286q-21 0 -19 19zM303 266q0 -93 53.5 -149t173.5 -56 q69 0 127 24t92.5 61.5t53 79t18.5 79.5q0 158 -213 158h-270q-35 -125 -35 -197z" />
<glyph unicode="&#x44b;" horiz-adv-x="1099" d="M55 252q0 26 6 61l17 93l90 466q3 17 22 17h52q5 0 8.5 -0.5t6 -4.5t1.5 -10l-65 -335h294q68 0 124.5 -20.5t96.5 -72t40 -127.5q0 -60 -25 -117.5t-72 -105t-122 -77t-167 -29.5q-151 0 -229 70t-78 192zM143 256q0 -90 55.5 -142.5t172.5 -52.5q69 0 127 24t92.5 61.5 t53 79t18.5 79.5q0 158 -213 158h-271l-12 -62q-26 -121 -23 -145zM817 12v4l168 856q0 7 8 12t17 5h45q16 0 16 -12v-5l-166 -854q-3 -11 -7 -14.5t-15 -3.5h-45q-21 0 -21 12z" />
<glyph unicode="&#x44c;" horiz-adv-x="792" d="M51 252q0 26 6 61l17 93l90 466q3 17 22 17h52q5 0 8.5 -0.5t6 -4.5t1.5 -10l-66 -335h295q107 0 183.5 -54.5t76.5 -165.5q0 -60 -25 -117.5t-71.5 -105.5t-122 -77t-166.5 -29q-151 0 -229 70t-78 192zM139 256q0 -90 55.5 -142.5t172.5 -52.5q69 0 126.5 24t92 61.5 t53 79t18.5 79.5q0 158 -213 158h-270l-12 -62q-26 -121 -23 -145z" />
<glyph unicode="&#x44d;" horiz-adv-x="765" d="M37 117q-8 16 4 26l43 29q2 2 5.5 3.5t10.5 0t11 -9.5q23 -40 70.5 -71.5t123.5 -31.5q117 0 188.5 66.5t94.5 177.5l20 119h-358q-6 0 -9 3.5t-1 8.5l8 47q3 13 16 13h357l10 71q17 116 -36 183t-165 67q-124 0 -217 -96q-17 -20 -29 -8l-39 35q-10 6 2 18 q45 60 122 95.5t167 35.5q108 0 178 -49t93 -126t6 -171l-41 -242q-27 -146 -115 -234.5t-244 -88.5q-101 0 -169.5 29.5t-106.5 99.5z" />
<glyph unicode="&#x44e;" horiz-adv-x="1067" d="M29 18l166 854q3 19 24 19h45q20 0 17 -17l-76 -378h151l21 90q65 315 360 315q150 0 218.5 -87.5t39.5 -238.5l-49 -256q-32 -164 -118.5 -246.5t-249.5 -82.5q-154 0 -217.5 95t-34.5 249l18 90h-151l-78 -406q-5 -18 -23 -18h-45q-21 0 -18 18zM408 317 q-24 -119 23 -187.5t159 -68.5q219 0 270 258l51 254q23 114 -22 184t-158 70q-116 0 -183 -69t-89 -185z" />
<glyph unicode="&#x44f;" horiz-adv-x="821" d="M-16 8q0 6 6 15q56 92 223 354q6 9 6 12q0 2 -4 6q-94 84 -94 209t75.5 206t206.5 81h365q36 0 29 -33l-156 -840q-3 -18 -18 -18h-52q-20 0 -16 20l70 353h-316l-225 -353q-11 -20 -33 -20h-53q-14 0 -14 8zM207 614q0 -21 5 -47t15.5 -53.5t30.5 -46t47 -18.5h332 l74 368h-308q-54 0 -94.5 -20t-61 -52t-30.5 -65t-10 -66z" />
<glyph unicode="&#x451;" horiz-adv-x="829" d="M68 238q0 38 8.5 89.5t24 120.5t20.5 99q66 354 418 354q115 0 186.5 -59.5t71.5 -161.5q0 -55 -17.5 -99.5t-46.5 -76t-76 -54.5t-96.5 -37t-117 -22.5t-129 -12.5t-140.5 -5q-2 -11 -12 -61t-10 -72q0 -85 58 -132t169 -47q61 0 125 26.5t104 68.5q18 18 29 6l29 -27 q6 -6 6 -12q0 -10 -25 -35q-44 -43 -121.5 -70.5t-163.5 -27.5q-145 0 -219.5 66t-74.5 182zM186 446q73 1 132.5 4.5t122 12t109 24.5t84.5 39t57.5 58t19.5 80q0 68 -45 115.5t-144 47.5q-75 0 -132 -24t-88.5 -54t-56 -87t-33 -90t-20.5 -96zM342 1153q4 26 25.5 43.5 t46.5 17.5q24 0 37.5 -17.5t9.5 -43.5t-25 -43.5t-45 -17.5q-25 0 -39.5 18t-9.5 43zM655 1153q6 26 26.5 43.5t45.5 17.5t39 -17.5t10 -43.5q-5 -25 -25.5 -43t-45.5 -18t-39.5 18t-10.5 43z" />
</font>
</defs>
</svg>
