<?xml version="1.0" standalone="no"?>
<!DOCTYPE svg PUBLIC "-//W3C//DTD SVG 1.1//EN" "http://www.w3.org/Graphics/SVG/1.1/DTD/svg11.dtd" >
<svg xmlns="http://www.w3.org/2000/svg" xmlns:xlink="http://www.w3.org/1999/xlink" version="1.1">
<metadata></metadata>
<defs>
<font id="pf_handbook_proitalic" horiz-adv-x="3723" >
<font-face units-per-em="2048" ascent="1536" descent="-512" />
<missing-glyph horiz-adv-x="450" />
<glyph unicode="fj" horiz-adv-x="837" d="M23 18l145 742h-109q-18 0 -12 20l19 101q3 18 24 18h107l30 160q25 127 108.5 194.5t221.5 67.5q144 0 223 -57q14 -8 14.5 -17t-6.5 -22l-38 -82q-10 -13 -19 -13q-6 0 -20 7q-80 34 -160 34q-70 0 -113 -40.5t-57 -108.5l-25 -123h420q20 0 25.5 -8t1.5 -31l-189 -991 q-11 -53 -28.5 -94.5t-47.5 -77t-77 -55t-109 -19.5q-79 0 -119 10q-14 5 -17 11.5t1 21.5l25 96q8 25 39 19q48 -6 57 -6q53 0 81.5 29.5t39.5 86.5l170 869h-299l-146 -742q-3 -18 -22 -18h-123q-10 0 -14 5.5t-2 12.5z" />
<glyph unicode="ffj" horiz-adv-x="1296" d="M25 18l141 742h-111q-18 0 -12 20l18 101q3 18 25 18h107l22 113q22 117 114.5 193.5t223.5 76.5q117 0 221 -51q86 86 248 86q138 0 217 -57q14 -11 15 -18t-7 -21l-41 -82q-10 -13 -20 -13q-5 0 -19 7q-85 34 -161 34q-68 0 -110.5 -38t-55.5 -99l-25 -131h426 q19 0 22.5 -8t-1.5 -31l-189 -991q-11 -53 -28.5 -94.5t-47.5 -77t-77 -55t-109 -19.5q-79 0 -119 10q-14 5 -17 11.5t1 21.5l24 96q8 25 39 19q48 -6 58 -6q53 0 81.5 29.5t39.5 86.5l163 844q7 25 -14 25h-279l-143 -742q-3 -18 -22 -18h-123q-10 0 -14.5 5.5t-2.5 12.5 l144 742h-297l-144 -742q-3 -18 -22 -18h-123q-10 0 -14 5.5t-2 12.5zM354 899h297l39 201q-71 33 -151 33q-73 0 -114 -41.5t-54 -110.5z" />
<glyph unicode="ff" horiz-adv-x="995" d="M23 -178l180 938h-111q-18 0 -12 20l18 101q3 18 25 18h106l23 113q22 117 114.5 193.5t223.5 76.5q117 0 221 -51q43 43 109 66.5t139 23.5q111 0 192 -45q18 -9 6 -33l-36 -82q-10 -26 -43 -14q-62 24 -134 24q-67 0 -110.5 -39.5t-56.5 -101.5l-25 -131h192 q20 0 17 -20l-21 -101q-3 -18 -22 -18h-193l-213 -1096q-3 -18 -22 -18h-123q-10 0 -14 5.5t-2 12.5l213 1096h-297l-183 -938q-3 -19 -22 -19h-123q-10 0 -14 6t-2 13zM391 899h297l39 201q-72 33 -152 33q-72 0 -113 -41t-54 -111z" />
<glyph unicode="fi" horiz-adv-x="907" d="M23 -338l210 1098h-108q-18 0 -12 20l18 101q3 18 25 18h106l31 160q25 127 108.5 194.5t221.5 67.5q144 0 223 -57q14 -8 14.5 -17t-6.5 -22l-39 -82q-10 -13 -18 -13q-7 0 -21 7q-80 34 -160 34q-70 0 -113 -40.5t-57 -108.5l-24 -123h428q20 0 25.5 -8t1.5 -31 l-164 -842q-3 -18 -23 -18h-123q-10 0 -14 5.5t-2 12.5l143 742h-299l-211 -1098q-3 -18 -22 -18h-123q-10 0 -14 5.5t-2 12.5z" />
<glyph unicode="fl" horiz-adv-x="970" d="M23 -334l210 1094h-110q-18 0 -12 20l18 101q3 18 25 18h104l33 160q25 126 108.5 194t216.5 68q121 0 222 -37l75 19q20 4 27 4q13 0 16 -8.5t-2 -28.5l-196 -1016q-13 -69 1.5 -91t65.5 -22h27q12 0 13.5 -9.5t-1.5 -20.5l-18 -97q-6 -23 -27 -26q-16 -4 -57 -4 q-89 0 -132 35.5t-46 100.5t14 156l166 865q-71 30 -160 30q-61 0 -103 -39t-57 -110l-24 -123h184q20 0 24 -6t1 -29l-17 -76q-2 -14 -8 -20.5t-10.5 -7t-15.5 -0.5h-181l-213 -1094q-3 -18 -22 -18h-123q-10 0 -14 5.5t-2 12.5z" />
<glyph unicode="ffi" horiz-adv-x="1337" d="M25 -178l180 938h-111q-18 0 -12 20l18 101q3 18 25 18h106l23 113q22 117 114.5 193.5t223.5 76.5q117 0 221 -51q86 86 248 86q138 0 217 -57q14 -11 15 -18t-7 -21l-41 -82q-10 -13 -20 -13q-5 0 -19 7q-85 34 -162 34q-68 0 -110 -37.5t-55 -99.5l-25 -131h432 q19 0 22.5 -8t-1.5 -31l-164 -842q-3 -18 -23 -18h-123q-10 0 -14 5.5t-2 12.5l139 717q7 25 -14 25h-279l-213 -1096q-3 -18 -22 -18h-123q-10 0 -14 5.5t-2 12.5l213 1096h-297l-183 -938q-3 -19 -22 -19h-123q-10 0 -14 6t-2 13zM393 899h297l39 201q-71 33 -151 33 q-72 0 -113.5 -41.5t-54.5 -110.5z" />
<glyph unicode="ffl" horiz-adv-x="1345" d="M25 -178l180 938h-111q-18 0 -12 20l18 101q3 18 25 18h106l23 113q22 117 114.5 193.5t223.5 76.5q117 0 221 -51q86 86 240 86q114 0 209 -39l79 20q4 1 9.5 2t9 2t6.5 1q13 0 16 -8.5t0 -28.5l-196 -1012q-13 -69 1.5 -91t65.5 -22h27q12 0 13.5 -9.5t-1.5 -20.5 l-18 -97q-6 -23 -27 -26q-16 -4 -57 -4q-89 0 -132 35.5t-46 100.5t14 156l166 861q-74 30 -152 30q-67 0 -107.5 -37.5t-53.5 -99.5l-25 -131h178q20 0 24 -6t1 -29l-17 -76q-2 -14 -8 -20.5t-10.5 -7t-15.5 -0.5h-179l-213 -1096q-3 -18 -22 -18h-123q-10 0 -14 5.5 t-2 12.5l213 1096h-297l-183 -938q-3 -19 -22 -19h-123q-10 0 -14 6t-2 13zM393 899h297l39 201q-71 33 -151 33q-72 0 -113.5 -41.5t-54.5 -110.5z" />
<glyph unicode="ft" horiz-adv-x="1081" d="M23 -330l219 1090h-109q-18 0 -12 20l18 99q3 18 25 18h104l33 160q22 118 90.5 189t192.5 71q91 0 153 -17q16 -4 19 -10.5t-2 -21.5l-27 -97q-3 -11 -11.5 -13.5t-23.5 1.5q-42 10 -98 10q-112 0 -135 -131l-29 -141h299l39 199q4 17 25 22l122 29h7q9 0 13.5 -5.5 t2.5 -13.5l-45 -231h209q19 0 16 -18l-20 -101q-3 -20 -25 -20l-78 2h-131l-45 -232l-49 -260q-23 -129 86 -129q49 0 107 15q12 4 16 4q12 0 12 -15l4 -100q0 -28 -30 -35q-67 -18 -160 -18q-125 0 -175.5 67.5t-27.5 180.5l55 290l45 232h-301l-217 -1090q-3 -18 -22 -18 h-123q-10 0 -14 5.5t-2 12.5z" />
<glyph unicode=" "  horiz-adv-x="450" />
<glyph unicode="&#x09;" horiz-adv-x="450" />
<glyph unicode="&#xa0;" horiz-adv-x="450" />
<glyph unicode="!" horiz-adv-x="538" d="M104 88q9 44 49 76.5t85 32.5q47 0 73 -31.5t17 -77.5q-8 -44 -46 -76t-85 -32q-46 0 -73.5 32t-19.5 76zM217 346l135 897q4 21 25 21h137q9 0 13.5 -5.5t2.5 -13.5l-204 -897q-4 -18 -23 -18h-72q-18 0 -14 16z" />
<glyph unicode="&#x22;" horiz-adv-x="589" d="M203 866l73 379q3 19 23 19h98q8 0 13 -5t2 -12l-74 -381q-3 -16 -23 -16h-94q-10 0 -14.5 3.5t-3.5 12.5zM436 866l74 379q3 19 25 19h96q9 0 13 -5t1 -12l-74 -381q-3 -16 -20 -16h-96q-9 0 -14.5 4t-4.5 12z" />
<glyph unicode="#" horiz-adv-x="972" d="M6 371q2 5 2.5 7.5t2.5 6.5t8.5 21.5t15.5 42.5q9 20 28 20h132l127 289h-156q-16 0 -12 16l30 76q8 18 27 18h151l111 262q8 13 21 13h84q17 0 20 -6.5t-2 -16.5l-107 -252h201l115 262q3 13 18 13h82q17 0 20.5 -6.5t-1.5 -16.5l-105 -250h139q19 0 9 -30l-25 -62 q-9 -20 -29 -20h-141l-119 -289h156q19 0 12 -18l-28 -74q-9 -21 -29 -21h-158l-104 -252q-6 -14 -21 -14h-82q-17 0 -20 7t2 18l104 243h-202l-113 -254q-6 -14 -18 -14h-86q-27 0 -19 23q4 10 51.5 118t55.5 125h-136q-17 0 -12 15zM324 469h202l119 289h-201z" />
<glyph unicode="$" horiz-adv-x="972" d="M59 135q-11 9 9 33l61 80q16 18 39 -2q79 -64 188 -78l78 410q-39 14 -71 28.5t-69.5 39.5t-62.5 54t-42 72t-17 94q0 156 109 263.5t280 111.5l25 129q4 19 24 19h64q19 0 16 -19l-26 -129q152 -19 245 -115q14 -14 -8 -32l-72 -76q-21 -20 -41 0q-52 63 -151 78 l-78 -396q57 -19 100.5 -40.5t89.5 -57t71.5 -88.5t25.5 -119q0 -165 -115 -270t-305 -111l-25 -131q-3 -20 -24 -20h-64q-10 0 -13.5 3.5t-2.5 14.5l25 135q-171 24 -263 119zM342 885q0 -87 123 -148l70 359q-83 -16 -138 -72t-55 -139zM455 164q102 6 160.5 59.5 t58.5 151.5q0 63 -39.5 103t-106.5 67z" />
<glyph unicode="%" horiz-adv-x="1433" d="M53 700q11 58 32 176t32 175q19 104 89 162.5t181 58.5q114 0 179.5 -61t45.5 -164l-63 -347q-19 -106 -91 -163.5t-190 -57.5q-110 0 -170 60t-45 161zM188 700q-11 -50 14 -79t79 -29q52 0 88 29t45 79l65 351q9 47 -18.5 77.5t-79.5 30.5q-50 0 -84 -30.5t-45 -77.5 q-14 -71 -64 -351zM201 -43l831 1352q10 16 29 16h61q17 0 19.5 -6.5t-4.5 -18.5l-828 -1347q-8 -14 -26 -14h-74q-19 0 -8 18zM745 209q11 57 31.5 174.5t32.5 175.5q19 104 89 162.5t181 58.5q114 0 180 -61t46 -164l-64 -346q-19 -106 -90.5 -163.5t-189.5 -57.5 q-110 0 -170.5 60t-45.5 161zM881 209q-11 -50 13.5 -79.5t78.5 -29.5q52 0 88 29.5t45 79.5l65 350q9 47 -18.5 78t-79.5 31q-50 0 -84 -31t-45 -78q-8 -40 -63 -350z" />
<glyph unicode="&#x26;" horiz-adv-x="1167" d="M80 266q0 77 29 147.5t81 127t108.5 99.5t125.5 81q-76 126 -76 225q0 146 100.5 242t239.5 96q107 0 171.5 -56.5t64.5 -148.5q0 -202 -283 -391l166 -285q57 91 82 183q6 21 13.5 26.5t31.5 5.5h84q23 0 27 -9t-3 -31q-45 -170 -157 -306l141 -239q6 -12 -1 -22.5 t-24 -10.5h-116q-29 0 -41 6.5t-27 32.5l-55 100q-183 -155 -381 -155q-145 0 -223 79.5t-78 202.5zM242 283q0 -70 48 -113t126 -43q138 0 276 131l-205 350q-37 -21 -74.5 -50t-78.5 -70.5t-66.5 -95.5t-25.5 -109zM508 985q0 -92 67 -192q36 22 63 42.5t59 51t49.5 67.5 t17.5 76q0 50 -28.5 81.5t-73.5 31.5q-61 0 -107.5 -48t-46.5 -110z" />
<glyph unicode="'" horiz-adv-x="354" d="M197 866l73 379q3 19 23 19h100q18 -4 15 -17l-76 -381q-3 -16 -21 -16h-96q-10 0 -14.5 3.5t-3.5 12.5z" />
<glyph unicode="(" horiz-adv-x="665" d="M150 350q1 140 45.5 290t120 287t164 257t190.5 227q21 21 47 4l51 -31q24 -16 2 -45q-88 -103 -163 -215.5t-140 -239.5t-102 -264t-37 -264q0 -296 135 -585q12 -31 -17 -47l-59 -35q-41 -21 -57 8q-77 131 -129 301t-51 352z" />
<glyph unicode=")" horiz-adv-x="628" d="M-80 -276q-23 16 2 47q95 112 168.5 220.5t136 233t96 259t33.5 270.5q0 295 -131 585q-14 31 19 45l63 31q32 15 45 -4q70 -123 125 -312t55 -384q0 -131 -43.5 -275.5t-117 -277t-160.5 -249t-184 -216.5q-30 -30 -62 -8z" />
<glyph unicode="*" horiz-adv-x="757" d="M209 1085l33 66q18 37 49 23l176 -78l20 215q2 15 11 21.5t34 6.5h64q36 0 29 -30l-64 -213l205 75q22 9 31 4.5t12 -24.5l12 -61q4 -32 -26 -39l-215 -54l100 -159q19 -31 -8 -47l-64 -37q-23 -13 -32.5 -12t-16.5 22l-74 180l-145 -182q-15 -19 -25.5 -20.5t-27.5 12.5 l-45 34q-27 24 10 56l162 155l-193 52q-26 5 -12 34z" />
<glyph unicode="+" horiz-adv-x="972" d="M82 455l12 65q7 31 35 31h305l60 307q7 31 34 31h68q31 0 25 -31l-60 -307h309q14 0 21 -9t4 -22l-12 -63q-6 -31 -37 -31h-309l-60 -309q-6 -29 -35 -29h-67q-31 0 -25 29l60 309h-306q-12 0 -18.5 8t-3.5 21z" />
<glyph unicode="," horiz-adv-x="436" d="M-12 -197l94 369q11 35 41 35h137q39 0 21 -43l-179 -371q-12 -26 -36 -26h-60q-26 0 -18 36z" />
<glyph unicode="-" horiz-adv-x="696" d="M115 440l18 95q3 20 23 20h417q20 0 17 -18l-19 -97q-3 -20 -22 -20h-418q-19 0 -16 20z" />
<glyph unicode="." horiz-adv-x="436" d="M43 72q0 51 40 90t91 39q41 0 67.5 -24.5t26.5 -61.5q0 -53 -42 -93t-95 -40q-38 0 -63 26t-25 64z" />
<glyph unicode="/" horiz-adv-x="620" d="M-96 -126.5q-4 8.5 2 20.5l766 1464q13 24 47 24h59q10 0 14 -6t-1 -18l-768 -1469q-10 -24 -39 -24h-64q-12 0 -16 8.5z" />
<glyph unicode="0" horiz-adv-x="972" d="M65.5 205.5q-15.5 73.5 2.5 173.5l110 555q33 165 135 255.5t271 90.5q167 0 259 -94.5t62 -257.5l-108 -592q-33 -168 -135.5 -258t-268.5 -90q-84 0 -151.5 23.5t-114 72t-62 122zM227 336q-19 -92 29 -149.5t139 -57.5q90 0 153.5 56.5t82.5 150.5l117 598 q17 89 -33 147t-140 58q-89 0 -151 -57.5t-80 -147.5z" />
<glyph unicode="1" horiz-adv-x="972" d="M299 967l18 94q4 32 29 47l246 135q40 21 57 21h68q17 0 22 -6.5t2 -24.5l-235 -1213q-6 -20 -25 -20h-127q-19 0 -16 18l203 1041l-191 -105q-25 -13 -40 -10t-11 23z" />
<glyph unicode="2" horiz-adv-x="972" d="M-8 33l12 59q4 22 6 29.5t10.5 23t24.5 31.5l594 608q41 41 71.5 99t30.5 108q0 67 -47.5 107.5t-134.5 40.5q-56 0 -116.5 -31t-94.5 -70q-29 -33 -49 -18l-76 67q-19 14 -2 39q129 154 361 154q139 0 230.5 -67.5t92.5 -192.5q1 -82 -43 -165.5t-104 -147.5l-551 -566 h532q20 0 17 -18l-19 -103q-6 -20 -24 -20h-693q-20 0 -25.5 7.5t-2.5 25.5z" />
<glyph unicode="3" horiz-adv-x="972" d="M12 162q-4 21 19 35l80 47q26 16 39 -11q24 -51 73 -77.5t107 -26.5q116 0 186 82t70 217q0 97 -42.5 145t-135.5 48h-103q-16 0 -16 12v6l20 104q3 19 21 19h129q98 0 165.5 62.5t67.5 158.5q0 68 -45 112t-119 44q-59 0 -116.5 -29t-94.5 -74q-28 -34 -49 -18l-82 59 q-18 13 4 39q131 164 355 164q139 0 227 -74t88 -192q0 -105 -58.5 -198.5t-170.5 -129.5l-2 -8q58 -20 91.5 -83.5t33.5 -150.5q0 -218 -123 -337t-314 -119q-66 0 -124.5 16t-109.5 56.5t-71 101.5z" />
<glyph unicode="4" horiz-adv-x="972" d="M55 303l8 47q10 58 35 90l582 815q4 9 18 9h129q12 0 17 -9t-2 -20l-592 -827h317l74 385q3 20 23 20h124q20 0 17 -20l-74 -385h139q20 0 17 -21l-19 -94q-4 -21 -24 -21h-137l-50 -252q-3 -20 -22 -20h-125q-19 0 -16 20l47 252h-461q-30 0 -25 31z" />
<glyph unicode="5" horiz-adv-x="972" d="M45 164q-7 17 12 31l90 53q22 14 33 -4q35 -60 71.5 -87.5t102.5 -27.5q99 0 166 53t86 144l31 157q18 88 -25 141.5t-137 53.5q-34 0 -74 -11.5t-61 -25.5q-44 -27 -72 -16l-65 30q-27 16 -23 43l107 545q3 21 22 21h592q20 0 17 -19l-21 -106q-3 -17 -20 -17h-453 l-66 -334h9q64 35 149 35q151 0 229.5 -95t49.5 -247l-25 -151q-31 -162 -134.5 -252t-268.5 -90q-128 0 -204.5 39t-117.5 137z" />
<glyph unicode="6" horiz-adv-x="972" d="M86 326l119 610q31 161 138.5 252.5t262.5 91.5q250 0 316 -172q11 -20 -13 -35l-94 -55q-20 -11 -31 10q-62 111 -172 111q-88 0 -157 -55.5t-86 -143.5l-39 -205h8q99 74 225 74q71 0 130.5 -24t100.5 -66.5t58 -106.5t2 -139l-29 -147q-31 -158 -140.5 -248 t-270.5 -90q-81 0 -147.5 21.5t-113 62t-65 106t-2.5 148.5zM250 326q-17 -88 32.5 -143.5t137.5 -55.5q84 0 152 57t87 142l31 147q18 88 -33 141.5t-139 53.5q-85 0 -153.5 -55.5t-85.5 -139.5z" />
<glyph unicode="7" horiz-adv-x="972" d="M60.5 6.5q-4.5 6.5 2.5 18.5l713 1097h-409l-23 -116q-3 -23 -22 -23h-105q-19 0 -16 21l47 239q4 21 22 21h680q20 0 29 -6.5t6 -22.5l-12 -61q-5 -23 -27 -62q-659 -1020 -706 -1092q-13 -20 -31 -20h-133q-11 0 -15.5 6.5z" />
<glyph unicode="8" horiz-adv-x="972" d="M49 281q0 126 60 235t172 154l2 8q-47 25 -72 81t-25 122q0 169 121 286t299 117q137 0 223 -73.5t86 -198.5q0 -108 -42.5 -192.5t-145.5 -145.5l-6 -10q53 -42 78.5 -98t25.5 -113q0 -216 -129.5 -340.5t-326.5 -124.5q-140 0 -230 76.5t-90 216.5zM219 301 q0 -83 46.5 -127.5t123.5 -44.5q64 0 123 32t100 100.5t41 158.5q0 82 -49.5 127t-124.5 45q-100 0 -180 -79.5t-80 -211.5zM348 901q0 -66 47.5 -114t116.5 -48q99 0 168.5 71t69.5 169q0 74 -41.5 119t-120.5 45q-101 0 -170.5 -72t-69.5 -170z" />
<glyph unicode="9" horiz-adv-x="972" d="M66 160q-9 20 12 35l92 55q20 12 33 -10q29 -53 69 -82t101 -29q95 0 158.5 54t82.5 145l43 209h-8q-46 -35 -110.5 -56.5t-116.5 -21.5q-68 0 -127.5 22.5t-102 64t-60.5 106.5t-3 143l29 147q66 338 405 338q180 0 274 -100t62 -267l-113 -581q-33 -173 -138 -258.5 t-265 -85.5q-126 0 -200 38.5t-117 133.5zM295 795q-18 -93 24 -144t148 -51q86 0 155.5 55.5t84.5 139.5l26 116q20 94 -25 162t-145 68q-97 0 -158 -54.5t-79 -142.5z" />
<glyph unicode=":" horiz-adv-x="436" d="M43 70q0 52 40.5 91.5t90.5 39.5q41 0 67.5 -24.5t26.5 -61.5q0 -53 -42 -93t-95 -40q-38 0 -63 25.5t-25 62.5zM156 651q0 50 39.5 90.5t91.5 40.5q39 0 66.5 -27t27.5 -63q0 -50 -43 -89.5t-94 -39.5q-38 0 -63 25t-25 63z" />
<glyph unicode=";" horiz-adv-x="436" d="M-25 -197l95 367q11 37 43 37h135q21 0 25 -11t-7 -34l-176 -369q-10 -26 -37 -26h-59q-26 0 -19 36zM158 674q8 43 46.5 75.5t82.5 32.5q47 0 74 -31t18 -75q-9 -46 -47.5 -78.5t-85.5 -32.5q-45 0 -71 32t-17 77z" />
<glyph unicode="&#x3c;" horiz-adv-x="972" d="M4 469l16 90q8 34 37 47l873 408q15 8 27.5 3t11.5 -20l-19 -94q-2 -12 -11 -26.5t-21 -20.5l-766 -348l632 -346q23 -12 13 -51l-15 -70q-3 -13 -17.5 -21t-27.5 0l-706 406q-34 16 -27 43z" />
<glyph unicode="=" horiz-adv-x="972" d="M29 291l12 71q6 31 37 31h768q31 0 28 -28l-14 -74v2q-7 -33 -37 -33h-770q-13 0 -20 8.5t-4 22.5zM96 641l15 74q7 30 36 30h768q15 0 22.5 -8.5t4.5 -21.5l-14 -72q-6 -31 -37 -31h-770q-31 0 -25 29z" />
<glyph unicode="&#x3e;" horiz-adv-x="972" d="M4 41l16 92q0 1 2 8.5t2.5 9.5t3.5 8.5t5.5 10t8 7.5t11.5 7l760 348l-623 347q-21 11 -16 47l16 71q3 15 17 20t26 -3l715 -408q26 -15 19 -47l-17 -90q-7 -27 -45 -43l-866 -406q-16 -7 -27 0.5t-8 20.5z" />
<glyph unicode="?" horiz-adv-x="1005" d="M221 88q9 44 49 76.5t84 32.5q47 0 73 -31t17 -78q-8 -45 -46 -76.5t-87 -31.5q-44 0 -70.5 32t-19.5 76zM305 354l12 70q15 79 74.5 157t145.5 130q8 5 41 24t47 27.5t44 28.5t44.5 33.5t36.5 36t32.5 42.5t18.5 45.5t8 52.5q0 61 -41 101.5t-119 40.5q-113 0 -198 -96 l-17 -19q-19 -22 -41 -6l-80 57q-15 12 -2 35q137 170 342 170q139 0 232.5 -67.5t93.5 -188.5t-80 -224t-201 -171q-103 -58 -154.5 -111t-64.5 -127l-10 -43q-3 -28 -23 -28h-118q-18 0 -22.5 5.5t-0.5 24.5z" />
<glyph unicode="@" horiz-adv-x="1544" d="M141 500q0 163 60.5 305t165.5 242t251.5 157.5t313.5 57.5q251 0 407 -137.5t156 -358.5q0 -109 -22.5 -198t-60.5 -147.5t-89 -98.5t-105 -57t-112 -17q-136 0 -182 98h-4q-81 -90 -218 -90q-119 0 -180.5 72t-34.5 186l39 174q25 113 96.5 181.5t188.5 68.5 q55 0 102.5 -16t75.5 -41l4 -2l11 34q3 10 6 13.5t10 3.5h84q15 0 12 -15l-90 -409q-14 -61 7.5 -104.5t86.5 -43.5q42 0 84 21.5t81.5 65.5t64 124.5t24.5 184.5q0 189 -124 298t-318 109q-143 0 -268 -51t-212.5 -139t-137.5 -210t-50 -261q0 -463 463 -463q178 0 352 67 q22 9 31 6t14 -18l23 -53q7 -22 -12 -33q-53 -31 -179.5 -55.5t-234.5 -24.5q-284 0 -432 143.5t-148 430.5zM610 526q-16 -68 11 -113.5t100 -45.5q76 0 122.5 44.5t61.5 108.5l37 168q8 22 3.5 47t-16.5 46.5t-42.5 35.5t-73.5 14q-130 0 -166 -143z" />
<glyph unicode="A" horiz-adv-x="909" d="M-35 39l543 1206q8 19 31 19h168q21 0 26 -19l84 -1206q0 -39 -35 -39h-106q-24 0 -29 20l-12 269h-385l-115 -269q-9 -20 -31 -20h-118q-35 0 -21 39zM311 430h316l-19 401l-6 265h-6l-107 -258z" />
<glyph unicode="B" horiz-adv-x="980" d="M53 23l240 1218q4 23 26 23h334q144 0 231 -77.5t87 -211.5q0 -98 -47 -178t-138 -121l-2 -6q61 -33 92 -103t31 -149q0 -180 -116.5 -299t-305.5 -119h-409q-26 0 -23 23zM250 150h237q119 0 183.5 74.5t64.5 189.5q0 75 -43 126.5t-127 51.5h-227zM365 737h206 q100 0 165 58.5t65 152.5q0 77 -46.5 122.5t-123.5 45.5h-193z" />
<glyph unicode="C" horiz-adv-x="901" d="M102 356l113 576q32 170 123.5 259t261.5 89q232 0 348 -166q12 -18 -12 -39l-66 -57q-10 -10 -19.5 -9t-23.5 17q-103 107 -217 107q-186 0 -225 -199l-115 -598q-4 -21 -3 -40q1 -60 35 -102q46 -56 140 -57q54 0 98.5 16t68 33.5t59.5 51.5q27 27 49 12l86 -78 q12 -12 -4 -35q-80 -87 -163.5 -118t-180.5 -31q-187 0 -287 100q-75 75 -74 188q0 38 8 80z" />
<glyph unicode="D" horiz-adv-x="993" d="M53 23l238 1218q4 23 28 23h332h14q183 0 259 -98q57 -73 58 -181q0 -42 -9 -90l-94 -514q-37 -201 -134.5 -291t-277.5 -90h-393q-24 0 -21 23zM248 150h209q206 0 243 204l111 559q5 27 5 50q0 64 -34 102q-46 51 -147 51h-197z" />
<glyph unicode="E" horiz-adv-x="909" d="M53 23l238 1218q4 23 28 23h648q11 0 17 -6.5t5 -16.5l-20 -100q-4 -25 -27 -25h-504l-78 -385h428q24 0 21 -24l-18 -107q-3 -18 -27 -18h-428l-88 -432h540q11 0 17.5 -6.5t5.5 -16.5l-20 -102q-3 -25 -29 -25h-688q-24 0 -21 23z" />
<glyph unicode="F" horiz-adv-x="870" d="M53 23l238 1218q4 23 28 23h631q10 0 16 -6t5 -15l-21 -104q-3 -23 -26 -23h-486l-80 -391h416q25 0 19 -25l-19 -102q-4 -23 -26 -23h-412l-109 -550q-4 -25 -28 -25h-125q-24 0 -21 23z" />
<glyph unicode="G" horiz-adv-x="980" d="M100 356l115 576q66 348 399 348q106 0 197.5 -42t144.5 -128q13 -19 -16 -41l-74 -53q-12 -7 -24.5 -5t-20.5 13q-39 47 -92.5 78t-112.5 31q-100 0 -158.5 -53.5t-76.5 -145.5l-115 -598q-4 -24 -4 -45q0 -59 32 -99q44 -55 148 -55q105 0 166.5 51t79.5 144l37 205 h-164q-13 0 -17.5 5t-2.5 17l20 111q6 18 29 18h307q13 0 20 -6.5t3 -17.5l-60 -334q-31 -158 -133 -250t-272 -92h-17q-174 0 -270 98q-76 79 -76 192q0 37 8 78z" />
<glyph unicode="H" horiz-adv-x="1075" d="M53 23l236 1218q3 12 8.5 17.5t17.5 5.5h125q12 0 18 -6t3 -15l-101 -516h469l101 514q7 23 26 23h125q12 0 19 -6t4 -15l-236 -1218q-6 -25 -28 -25h-125q-12 0 -18 6.5t-3 16.5l107 557h-467l-109 -555q-6 -25 -26 -25h-125q-12 0 -18 6.5t-3 16.5z" />
<glyph unicode="I" horiz-adv-x="489" d="M74 23l235 1218q7 23 29 23h127q11 0 17 -6t3 -15l-235 -1218q-6 -25 -29 -25h-127q-11 0 -17 6.5t-3 16.5z" />
<glyph unicode="J" horiz-adv-x="548" d="M-150 -129q-2 19 5.5 31t35.5 16q77 11 130.5 36t87.5 68.5t53 93.5t33 124l194 997q9 27 33 27h108q14 0 21.5 -8t5.5 -19l-188 -989q-17 -85 -36.5 -147t-55 -128t-82.5 -108.5t-120.5 -72t-168.5 -34.5q-30 -1 -37 3t-10 24z" />
<glyph unicode="K" horiz-adv-x="1021" d="M49 18l238 1225q6 21 26 21h133q20 0 17 -19l-103 -510l5 -2l530 516q15 15 31 15h147q19 0 23.5 -10t-6.5 -19l-488 -483l4 -4q19 2 40 2q34 0 73 -5q112 -15 159 -96q34 -59 34 -156q0 -37 -5 -81l-47 -392q-3 -20 -22 -20h-119q-11 0 -16.5 4.5t-4.5 13.5l47 369 q4 32 5 56t-2 53t-14 49t-30 37.5t-51.5 26.5t-77.5 9q-114 0 -186.5 -66t-95.5 -177l-70 -355q-3 -20 -20 -20h-133q-24 0 -21 18z" />
<glyph unicode="L" horiz-adv-x="835" d="M53 23l236 1218q4 23 26 23h125q24 0 21 -21l-213 -1093h510q11 0 17 -6.5t5 -16.5l-20 -102q-3 -25 -27 -25h-659q-24 0 -21 23z" />
<glyph unicode="M" horiz-adv-x="1316" d="M53 23l234 1202q6 39 43 39h69q27 0 34 -5t13 -26l132 -733l40 -232h7l129 236l415 731q12 17 23 23t31 6h92q37 0 31 -37l-234 -1202q-6 -25 -27 -25h-116q-26 0 -19 23l154 794l-4 2l-131 -239l-303 -510q-22 -29 -45 -29h-80q-16 0 -24 5.5t-11 21.5l-92 495l-39 250 h-6l-154 -788q-6 -25 -27 -25h-114q-11 0 -17.5 6.5t-3.5 16.5z" />
<glyph unicode="N" horiz-adv-x="1077" d="M53 23l232 1189q5 29 14.5 40.5t36.5 11.5h74q22 0 32 -8t17 -25l301 -897l6 -2l178 909q7 23 27 23h114q12 0 18 -6t3 -15l-234 -1202q-7 -41 -45 -41h-77q-41 0 -50 31q-48 137 -152.5 446.5t-152.5 446.5h-6l-172 -899q-6 -25 -27 -25h-116q-12 0 -18 6.5t-3 16.5z " />
<glyph unicode="O" horiz-adv-x="1003" d="M100 367l109 565q33 165 142 256.5t282 91.5q84 0 154.5 -24.5t120.5 -69.5q50 -44 71 -116q12 -40 12 -84q0 -36 -8 -75l-111 -573q-68 -350 -428 -350q-180 0 -278 106q-73 80 -74 195q0 37 8 78zM268 362q-3 -23 -4 -44q0 -70 39 -118q50 -62 146 -63q213 0 253 205 l113 586q4 21 4 40q0 60 -41 104q-54 58 -149 58q-98 0 -166 -57t-86 -145z" />
<glyph unicode="P" horiz-adv-x="954" d="M53 23l238 1218q4 23 28 23h316q154 0 252 -85.5t98 -220.5q0 -190 -121 -314t-315 -124h-227l-97 -495q-4 -25 -28 -25h-123q-24 0 -21 23zM346 666h201q113 0 188.5 75t75.5 185q0 80 -48 135t-142 55h-185z" />
<glyph unicode="Q" horiz-adv-x="1005" d="M100 369l109 563q69 348 436 348q77 0 145.5 -26.5t116.5 -73t69 -114.5q13 -40 13 -84q0 -30 -6 -62l-111 -582q-30 -151 -128.5 -247t-258.5 -97q-4 -22 -4 -39q0 -29 11 -46q18 -28 55 -28q56 0 141 25q40 14 45 -23l10 -53q2 -10 -2.5 -25.5t-17.5 -23.5 q-100 -49 -203 -49q-100 0 -150.5 43.5t-50.5 126.5q0 49 9 94q-134 30 -194 134q-42 73 -42 161q0 37 8 78zM268 350q-5 -27 -5 -51q0 -59 33 -102q47 -60 146 -60q106 0 174 56t89 149l112 580q4 19 4 37q0 63 -47 111q-59 60 -156 60q-98 0 -160.5 -57.5t-78.5 -144.5z " />
<glyph unicode="R" horiz-adv-x="989" d="M51 23l238 1222q8 19 28 19h361q164 0 242.5 -75t78.5 -210q0 -267 -268 -430q-10 -7 -10 -14l137 -490q8 -24 -1.5 -34.5t-27.5 -10.5h-94q-27 0 -39.5 10t-17.5 31q-18 65 -61 227.5t-68 251.5h-227l-99 -495q-4 -25 -26 -25h-123q-9 0 -16 6.5t-7 16.5zM346 666h266 q10 0 35 10q64 34 106.5 89t56 99.5t13.5 81.5q0 76 -45 123t-149 47h-195z" />
<glyph unicode="S" horiz-adv-x="927" d="M33 113q-10 12 6 41l59 75q12 12 20 13.5t27 -11.5q39 -32 115.5 -60t161.5 -28q108 0 185 61t77 163q0 33 -12.5 62t-30 49.5t-47.5 41t-54.5 33t-62.5 29.5q-4 2 -38.5 17.5t-43.5 20l-41 20.5t-44 25t-38.5 27.5t-38 33t-29.5 37t-25.5 44t-14 49t-6.5 57.5 q0 87 33.5 157.5t91.5 115.5t133.5 69.5t161.5 24.5q99 0 192 -31.5t150 -87.5q12 -16 -7 -39l-57 -71q-13 -13 -22 -12.5t-25 12.5q-105 82 -227 82q-106 0 -177 -51t-71 -148q0 -36 17.5 -66.5t52 -56t63 -42t72.5 -36.5q52 -24 88 -42.5t85.5 -52.5t80 -67t53 -81 t22.5 -101q0 -189 -128.5 -294t-348.5 -105q-103 0 -198.5 30.5t-159.5 92.5z" />
<glyph unicode="T" horiz-adv-x="854" d="M170 1139l18 102q7 23 29 23h744q12 0 17.5 -6t2.5 -15l-18 -104q-7 -23 -31 -23h-285l-215 -1091q-3 -14 -8 -19.5t-18 -5.5h-125q-12 0 -18 6.5t-3 16.5l213 1093h-285q-12 0 -16.5 5t-1.5 18z" />
<glyph unicode="U" horiz-adv-x="1026" d="M102 369l170 872q4 23 27 23h125q22 0 18 -21l-176 -903q-3 -21 -4 -40q0 -65 40 -108q52 -55 142 -55q111 0 178 54t85 143l176 907q4 23 28 23h123q24 0 21 -21l-178 -915q-32 -160 -150 -250t-285 -90q-82 0 -151.5 25.5t-117.5 73t-68 120.5q-11 39 -11 84q0 37 8 78 z" />
<glyph unicode="V" horiz-adv-x="911" d="M176 1229q-2 15 6.5 25t26.5 10h123q23 0 26 -19l39 -688l15 -307h8q18 41 70 155.5t75 169.5l307 670q11 19 31 19h123q40 0 23 -39l-570 -1207q-8 -18 -30 -18h-140q-24 0 -28 20z" />
<glyph unicode="W" horiz-adv-x="1368" d="M174 1235q0 29 29 29h119q9 0 14 -4.5t5.5 -9t0.5 -13.5l14 -651v-303h11q20 54 58.5 155t51.5 137l266 674q10 15 31 15h117q9 0 16.5 -6t7.5 -15q1 -38 6.5 -288t6.5 -377v-295h10l117 301l264 659q11 21 31 21h135q37 0 20 -35l-516 -1211q-14 -18 -24 -18h-152 q-20 0 -20 16l-11 672v248h-4q-17 -47 -52.5 -138.5t-43.5 -113.5l-262 -670q-8 -14 -27 -14h-147q-20 0 -23 12z" />
<glyph unicode="X" horiz-adv-x="923" d="M-41 33q337 465 451 626l-189 576q-5 13 2 21t25 8h123q31 0 37 -25v2l120 -432h7l292 432q20 23 45 23h132q30 0 18 -29q-36 -50 -187 -258.5t-233 -323.5l211 -620q5 -15 1 -24t-23 -9h-117q-13 0 -18.5 1t-12 6t-10.5 16l-144 479h-4l-329 -479q-15 -23 -47 -23h-136 q-31 0 -14 33z" />
<glyph unicode="Y" horiz-adv-x="862" d="M172 1229q-12 35 25 35h106q34 0 39 -25l117 -573h4q44 76 162.5 273.5t175.5 297.5q13 17 22 22t29 5h123q22 0 25 -9t-7 -24l-458 -729q-15 -21 -21 -49l-84 -428q-4 -25 -27 -25h-120q-26 0 -23 23l86 434q4 30 2 37l-176 737v-2z" />
<glyph unicode="Z" horiz-adv-x="825" d="M-27 33l13 65q8 35 24 58l690 960h-462q-24 0 -19 23l19 102q7 23 28 23h617q25 0 33.5 -8.5t5.5 -28.5l-13 -60q-5 -35 -43 -84l-665 -933h499q10 0 16 -6.5t5 -16.5l-21 -102q-6 -25 -28 -25h-666q-19 0 -27.5 10t-5.5 23z" />
<glyph unicode="[" horiz-adv-x="667" d="M76 -283l321 1663q7 21 23 21h301q22 0 16 -21l-18 -102q-5 -18 -23 -18h-155l-279 -1420h156q21 0 18 -18l-20 -105q-6 -18 -23 -18h-303q-19 0 -14 18z" />
<glyph unicode="\" horiz-adv-x="620" d="M190 1358q-1 11 7 17.5t18 6.5h59q19 0 26 -5t9 -19l197 -1464q2 -12 -4.5 -20.5t-18.5 -8.5h-63q-28 0 -31 24z" />
<glyph unicode="]" horiz-adv-x="649" d="M-37 -285l21 103q3 18 22 18h158l278 1419h-159q-21 0 -15 21l19 102q6 21 22 21h301q23 0 17 -21l-324 -1663q-3 -18 -20 -18h-303q-20 0 -17 18z" />
<glyph unicode="^" horiz-adv-x="1122" d="M233.5 820.5q0.5 13.5 12.5 25.5l391 418q8 8 11.5 11t12 6t21.5 3h94q15 0 21 -3.5t12 -16.5l223 -412q14 -23 -20 -45l-54 -35q-14 -10 -38 21l-215 327l-361 -332q-34 -34 -53 -20l-49 35q-9 4 -8.5 17.5z" />
<glyph unicode="_" horiz-adv-x="1024" d="M-137 -276l16 83q3 19 23 19h985q21 0 18 -19l-16 -81q-3 -21 -23 -21h-987q-19 0 -16 19z" />
<glyph unicode="`" horiz-adv-x="927" d="M367 1247q-22 27 0 45l84 62q10 7 22 -1t21 -22l178 -280q13 -23 -4 -35l-37 -23q-11 -5 -23.5 -0.5t-19.5 13.5z" />
<glyph unicode="a" horiz-adv-x="905" d="M61 262q0 158 103.5 256t269.5 98q141 0 217 -71l6 2l11 59q4 22 4 41q0 125 -168 125q-41 0 -119 -16t-117 -35q-22 -8 -28 12l-31 90q-6 19 14 27q135 61 295 61q172 -1 252 -91q57 -65 58 -164q0 -39 -9 -83l-108 -553q-3 -20 -23 -20h-117q-16 0 -16 16l10 52l-6 2 q-89 -82 -223 -82q-131 0 -203 76t-72 198zM215 268q0 -63 38.5 -102t113.5 -39q93 0 158 65t65 158q0 62 -39 99.5t-113 37.5q-99 0 -161 -61.5t-62 -157.5z" />
<glyph unicode="b" horiz-adv-x="923" d="M33 18l246 1266q3 21 24 21h125q17 0 14 -19l-82 -434l7 -2q100 57 221 57q97 0 166.5 -48t97.5 -126q17 -48 16 -101q0 -33 -6 -67l-47 -237q-31 -161 -123.5 -249.5t-265.5 -88.5q-73 0 -131.5 22t-81.5 58h-6l-14 -50q-6 -20 -27 -20h-117q-21 0 -16 18zM256 328 q-5 -27 -5 -50q0 -56 27 -96q38 -56 142 -55q108 0 160 52.5t71 148.5l49 237q5 25 5 48q0 55 -30 97q-43 58 -134 58q-94 0 -158.5 -62t-79.5 -141z" />
<glyph unicode="c" horiz-adv-x="823" d="M74 326l45 235q68 348 405 348q99 0 175 -41.5t120 -119.5q6 -11 1 -24t-17 -22l-72 -51q-14 -8 -26.5 -4t-18.5 17q-27 49 -76.5 76.5t-99.5 27.5q-88 0 -147.5 -54t-77.5 -141l-49 -254q-5 -29 -6 -54q0 -138 167 -138q65 0 117 29.5t119 91.5q11 11 31 -2l67 -58 q16 -13 16.5 -23.5t-10.5 -21.5q-74 -83 -156 -119t-190 -36q-167 0 -257 92q-67 69 -68 173q0 34 8 73z" />
<glyph unicode="d" horiz-adv-x="923" d="M76 328l47 237q14 72 43.5 132.5t76 108t115 74.5t152.5 27q72 0 134 -24t83 -45l6 -2l90 448q3 21 25 21h121q19 0 16 -19l-246 -1268q-3 -18 -22 -18h-117q-22 0 -16 20l12 50h-6q-95 -80 -234 -80q-68 0 -126 23.5t-97.5 66t-55.5 106.5q-8 33 -8 70q0 35 7 72z M238 328q-6 -28 -5 -52q0 -54 27 -92q40 -55 139 -55q84 0 150.5 57.5t83.5 141.5l49 237q4 21 4 41q0 58 -38 102q-50 58 -144 58q-85 0 -142 -56.5t-75 -144.5z" />
<glyph unicode="e" horiz-adv-x="876" d="M59 238q0 28 7 75l43 230q36 199 150.5 283.5t293.5 84.5q120 0 199 -62t79 -173q0 -60 -20.5 -108t-51.5 -80.5t-82.5 -56.5t-97 -37t-113 -22t-113.5 -12t-113 -6q-17 -87 -17 -102q0 -59 39.5 -90t134.5 -31q48 0 110.5 30t113.5 85q16 16 30 2l64 -66q15 -15 16 -24 t-10 -21q-134 -151 -354 -151q-159 0 -233.5 69.5t-74.5 182.5zM262 489q63 1 114.5 5.5t108 15.5t94.5 28.5t62.5 47t24.5 69.5q0 47 -33 81t-98 34q-116 0 -176.5 -50.5t-77.5 -131.5z" />
<glyph unicode="f" horiz-adv-x="561" d="M-203 -315l29 84q8 26 49 18q33 -10 74 -10q86 0 110 114l170 869h-106q-25 0 -19 26l17 88q6 25 33 25h102l31 152q23 116 101.5 187t209.5 71q67 0 133 -17q11 -4 16.5 -7.5t10 -13t-3.5 -22.5l-27 -78q-6 -14 -16.5 -17.5t-32.5 -0.5q-66 12 -94 12q-56 0 -90.5 -36 t-44.5 -87l-29 -143h186q27 0 21 -27l-17 -88q-6 -24 -32 -24h-187l-170 -869q-24 -123 -85.5 -193.5t-180.5 -70.5q-77 0 -135 15q-34 11 -23 43z" />
<glyph unicode="g" horiz-adv-x="897" d="M-61 -168q0 13 4 37q7 36 26.5 78.5t42.5 42.5q1 0 4 -1t4 -1l107 -35q8 -2 8 -10q0 -1 -14.5 -30t-14.5 -46q0 -47 53 -77t152 -30q116 0 183 45t67 117q0 103 -149 103h-123q-93 0 -143 35t-50 90q0 14 2.5 27t10.5 27.5t13 23t19 24.5t18 21t22 23.5t20 20.5 q-117 73 -117 218q0 158 117 267t303 109q150 0 231 -84q46 34 103.5 56t105.5 22q17 0 23 -6t2 -25l-21 -104q-3 -14 -7.5 -18t-16.5 -4q-2 0 -20 2.5t-47.5 4.5t-61.5 1q18 -47 18 -107q0 -171 -117.5 -277t-316.5 -106h-29q-31 0 -50 -16t-19 -43q0 -43 75 -43h136 q104 0 171.5 -55t67.5 -162q0 -80 -39 -144t-104 -102t-142.5 -58t-160.5 -20q-152 0 -249 55.5t-97 153.5zM248 541q0 -63 40.5 -104.5t114.5 -41.5q103 0 175.5 65t72.5 154q0 66 -45 111t-117 45q-103 0 -172 -69t-69 -160z" />
<glyph unicode="h" horiz-adv-x="954" d="M35 18l248 1266q3 21 22 21h123q19 0 14 -19l-88 -469h8q121 92 236 92q153 0 224 -93q50 -66 51 -164q0 -40 -9 -85l-106 -547q-3 -20 -23 -20h-127q-17 0 -14 18l106 547q6 29 6 54q0 55 -27 93q-39 56 -136 56q-87 0 -154.5 -62.5t-85.5 -152.5l-102 -533 q-3 -20 -25 -20h-125q-19 0 -16 18z" />
<glyph unicode="i" horiz-adv-x="415" d="M47 18l166 859q6 20 23 20h126q23 0 17 -20l-166 -859q-3 -18 -23 -18h-127q-19 0 -16 18zM256 1180q6 41 41.5 70.5t77.5 29.5q43 0 69 -28q20 -22 21 -54q0 -9 -2 -18q-8 -41 -45 -72t-80 -31q-42 0 -65 29q-18 23 -18 56q0 9 1 18z" />
<glyph unicode="j" horiz-adv-x="448" d="M-201.5 -355.5q-3.5 6.5 0.5 21.5l25 96q8 25 39 19q48 -6 57 -6q53 0 81.5 29.5t39.5 86.5l192 988q3 18 25 18h123q19 0 14 -18l-198 -1010q-11 -53 -29 -94.5t-47.5 -77t-77 -55t-109.5 -19.5q-78 0 -118 10q-14 5 -17.5 11.5zM268 1180q9 41 44.5 70.5t76.5 29.5 q45 0 70 -29q18 -21 18 -50q0 -10 -2 -21q-8 -41 -44 -72t-79 -31t-67 29q-19 23 -19 55q0 9 2 19z" />
<glyph unicode="k" horiz-adv-x="894" d="M37 18l246 1266q7 21 22 21h127q20 0 17 -19l-150 -772h6l414 373q10 10 31 10h151q10 0 15.5 -5t3.5 -13q-2 -6 -15 -19l-342 -305l2 -4q55 0 99 -12q142 -42 142 -229q0 -41 -7 -89l-27 -186q-5 -20 -12 -27.5t-23 -7.5h-108q-31 0 -25 29l27 190q6 30 6 59 q-1 10 -1 18q-2 36 -13 64t-48 45t-98 17q-97 0 -156.5 -57t-78.5 -144l-39 -201q-3 -20 -23 -20h-125q-21 0 -18 18z" />
<glyph unicode="l" horiz-adv-x="452" d="M74 120v20q0 59 14 136l195 1008q7 21 22 21h125q22 0 19 -19l-201 -1032q-6 -33 -6 -55q0 -25 8 -36q14 -22 65 -22h27q12 0 13.5 -9.5t-1.5 -20.5l-18 -97q-6 -23 -27 -26q-16 -4 -57 -4q-89 0 -132 35.5t-46 100.5z" />
<glyph unicode="m" horiz-adv-x="1439" d="M31 18l106 549q29 154 132 248t263 94q80 0 150 -32t106 -82h9q127 114 286 114q153 1 231 -95q56 -69 56 -169q0 -37 -8 -78l-107 -547q-3 -20 -22 -20h-127q-17 0 -14 18l106 549q6 31 6 58q0 53 -23 89q-35 54 -128 54q-84 0 -145 -58t-77 -143l-106 -547 q-3 -20 -23 -20h-124q-20 0 -17 18l107 549q5 25 5 48q0 54 -27 95q-38 58 -126 58q-82 0 -141.5 -59t-75.5 -142l-106 -547q-3 -20 -23 -20h-127q-19 0 -16 18z" />
<glyph unicode="n" horiz-adv-x="946" d="M35 18l166 859q6 20 22 20h121q10 0 13 -3.5t1 -14.5l-12 -72l10 -2q51 51 118 77.5t124 26.5q153 0 224 -93q50 -66 51 -164q0 -40 -9 -85l-106 -547q-3 -20 -23 -20h-127q-17 0 -14 18l106 547q6 29 6 54q0 55 -27 93q-39 56 -136 56q-87 0 -154.5 -62.5t-85.5 -152.5 l-102 -533q-3 -20 -25 -20h-125q-19 0 -16 18z" />
<glyph unicode="o" horiz-adv-x="917" d="M86 367l41 200q32 160 133.5 252t269.5 92q166 0 258 -93q68 -69 67 -175q0 -36 -7 -76l-45 -233q-67 -346 -414 -346q-169 0 -253 108q-60 77 -59 183q0 42 9 88zM246 332q-5 -26 -5 -50q1 -56 31 -96q44 -56 138 -57q87 0 147.5 56t79.5 147l47 235q5 25 5 47 q1 56 -33 97q-48 57 -138 57q-88 0 -148.5 -55t-78.5 -146z" />
<glyph unicode="p" horiz-adv-x="929" d="M-37 -348l238 1227q3 18 22 18h117q19 0 16 -20l-10 -58h8q98 88 230 88q68 0 126 -23.5t97.5 -66t55.5 -107.5q8 -33 8 -69q0 -35 -7 -72l-47 -237q-14 -72 -43.5 -132.5t-76 -108t-115 -74.5t-152.5 -27q-73 0 -134 25t-81 48h-8l-82 -409q-3 -21 -25 -21h-120 q-20 0 -17 19zM258 332q-4 -21 -4 -41q0 -58 38 -101q50 -59 144 -59q85 0 142 56.5t75 144.5l49 237q6 28 6 52q0 54 -28 92q-40 55 -139 55q-84 0 -150.5 -57.5t-83.5 -141.5z" />
<glyph unicode="q" horiz-adv-x="929" d="M76 332l47 237q66 338 389 338q59 0 116 -20.5t97 -57.5l10 -2l10 50q6 20 27 20h117q21 0 16 -18l-237 -1225q-3 -21 -25 -21h-125q-17 0 -14 19l82 407h-8q-93 -69 -224 -69q-100 0 -170.5 48t-97.5 126q-17 47 -17 99q0 33 7 69zM238 332q-6 -27 -6 -52q0 -54 28 -94 q40 -57 137 -57q94 0 158.5 62t79.5 141l47 237q3 19 3 38q0 60 -39 105q-50 58 -146 58q-83 0 -139 -55.5t-74 -145.5z" />
<glyph unicode="r" horiz-adv-x="626" d="M41 18l168 859q3 20 22 20h107q19 0 16 -18l-22 -117h8q49 65 135 109q68 35 153 35q23 0 48 -3q26 -3 12 -31l-47 -120q-7 -21 -31 -21h-14q-92 1 -152 -25q-65 -28 -96 -76t-45 -124l-96 -486q-3 -20 -21 -20h-127q-21 0 -18 18z" />
<glyph unicode="s" horiz-adv-x="802" d="M16 190q-3 15 13 23l102 45q14 7 23 -10q52 -125 200 -125q69 0 114.5 32.5t45.5 98.5q0 35 -30.5 59t-92.5 49q-9 4 -34 14t-37.5 15.5t-36.5 17t-37 19.5t-33 22t-31.5 26.5t-25.5 30t-21.5 36t-12.5 41.5t-5 49q0 133 88 204.5t237 71.5q97 0 175 -37t124 -102 q12 -15 -12 -35l-67 -57q-10 -11 -23.5 -10t-22.5 14q-30 42 -79.5 68t-106.5 26q-64 0 -105.5 -31t-41.5 -96q0 -38 27 -62t79 -48q12 -5 46 -20.5t48.5 -22t44.5 -21.5t44 -25t36.5 -27t33.5 -32.5t23.5 -36t17.5 -43.5t5 -49q0 -134 -98 -203t-252 -69q-115 0 -204 51 t-118 149z" />
<glyph unicode="t" horiz-adv-x="624" d="M102 776l21 101q3 20 20 20h109l39 197q4 17 22 22l125 29q13 3 18.5 -3t2.5 -16l-45 -229h211q19 0 16 -18l-20 -101q-3 -20 -25 -20h-209l-94 -488q-5 -27 -6 -49q0 -29 10 -47q16 -32 74 -33q51 0 123 15q23 4 29.5 -2.5t4.5 -20.5v-86q0 -16 -5 -22.5t-21 -12.5 q-60 -24 -185 -24q-201 0 -201 170q0 35 9 78l100 522h-106q-20 0 -17 18z" />
<glyph unicode="u" horiz-adv-x="940" d="M80 330l106 547q3 20 23 20h127q17 0 14 -18l-106 -547q-6 -29 -5 -54q0 -56 26 -94q39 -56 136 -55q87 0 154.5 62.5t85.5 152.5l102 533q3 20 25 20h125q19 0 16 -18l-166 -859q-6 -20 -22 -20h-121q-10 0 -13 3.5t-1 14.5l12 62h-4q-49 -50 -120.5 -71t-137.5 -21 q-152 0 -219 92q-46 64 -46 159q0 42 9 91z" />
<glyph unicode="v" horiz-adv-x="776" d="M49 860q-4 37 31 37h108q18 0 24.5 -8t8.5 -23l117 -641h8l205 412q33 72 42 114.5t9 94.5q0 49 41 49h78q29 0 37 -10.5t8 -36.5q0 -74 -13 -127t-48 -123l-295 -575q-14 -27 -48 -27h-100q-21 0 -28.5 5.5t-10.5 23.5z" />
<glyph unicode="w" horiz-adv-x="1245" d="M100 860q-4 37 31 37h109q13 0 20 -5t9 -10.5t3 -15.5l101 -649l8 -2l209 420q8 15 8.5 19.5t-2.5 19.5l-31 186q-4 37 31 37h109q13 0 20 -5t9 -10.5t3 -15.5l97 -649h8l196 420q33 73 42.5 115.5t9.5 93.5q0 49 40 49h78q29 0 37 -10.5t8 -36.5q0 -74 -13 -127 t-48 -123l-287 -575q-13 -27 -47 -27h-100q-21 0 -28.5 5.5t-10.5 23.5l-72 399l-8 -2l-199 -399q-14 -27 -47 -27h-100q-21 0 -28.5 5.5t-10.5 23.5z" />
<glyph unicode="x" horiz-adv-x="833" d="M-55 9q-2 9 8 20l362 440l-172 397q-6 12 1 21.5t22 9.5h110q16 0 22 -1t11 -5.5t10 -16.5l101 -274h4l219 274q13 16 21 19.5t30 3.5h127q15 0 17 -9.5t-7 -21.5l-329 -397l192 -440q7 -11 2.5 -20t-20.5 -9h-117q-34 0 -43 25l-123 313h-4l-244 -313q-20 -25 -51 -25 h-131q-16 0 -18 9z" />
<glyph unicode="y" horiz-adv-x="790" d="M70 -322l168 318h-33q-19 0 -25 4.5t-8 17.5l-82 840q-4 37 31 37h96q39 0 43 -31l53 -719h4l263 492q24 48 35.5 87.5t13.5 61t2 60.5q0 49 41 49h78q29 0 37 -10.5t8 -36.5q0 -75 -13 -128.5t-49 -121.5l-491 -930q-24 -43 -70 -43h-80q-32 0 -32 22q0 12 10 31z" />
<glyph unicode="z" horiz-adv-x="798" d="M-23 29l11 55q9 36 24 53l541 623h-393q-20 0 -17 18l19 99q6 20 22 20h564q23 0 30 -8t4 -27l-12 -57q-4 -35 -22 -53l-535 -613h442q23 0 17 -20l-19 -99q-3 -20 -22 -20h-627q-16 0 -23 9t-4 20z" />
<glyph unicode="{" horiz-adv-x="692" d="M92 510l17 88q2 9 4.5 15t8.5 10.5t9.5 6.5t15 6.5t17.5 6.5q152 59 176 195l47 243q33 167 107.5 242.5t218.5 75.5h71q20 0 17 -21l-21 -100q-3 -21 -22 -21h-23q-88 0 -123.5 -33t-54.5 -126l-63 -316q-15 -72 -63.5 -131.5t-119.5 -97.5l-2 -6q59 -30 81 -103t9 -145 l-57 -309q-18 -92 5.5 -126t111.5 -34h22q21 0 15 -20l-19 -101q-6 -20 -24 -20h-31q-305 0 -242 317l53 273q25 140 -98 192q-21 8 -28.5 12t-12 10.5t-2.5 16.5z" />
<glyph unicode="|" horiz-adv-x="464" d="M211 -217v1583q0 18 20 18h78q21 0 21 -16v-1583q0 -21 -19 -21h-80q-20 0 -20 19z" />
<glyph unicode="}" horiz-adv-x="692" d="M-68 -289l19 101q6 20 22 20h25q87 0 123 33.5t55 126.5l70 340q13 71 63.5 144.5t120.5 103.5v6q-56 37 -80.5 96.5t-11.5 132.5l53 283q18 92 -5.5 125.5t-111.5 33.5h-22q-20 0 -14 21l18 100q3 21 25 21h22q152 0 217 -79t33 -239l-47 -243q-24 -135 100 -195 q3 -1 10 -4t9.5 -4t7 -3.5t6 -4t4 -4.5t3 -6.5t0.5 -8t-1 -10.5l-18 -88q-1 -14 -12 -20.5t-46 -18.5q-146 -53 -174 -192l-51 -271q-33 -168 -104.5 -242.5t-216.5 -74.5h-74q-23 0 -17 20z" />
<glyph unicode="~" horiz-adv-x="972" d="M23 582q-13 13 2 28q130 144 258 144q95 0 217 -64q120 -63 196 -63q27 -1 56.5 12.5t47 27.5t46.5 40q22 23 37 8l61 -53q17 -15 0 -35q-128 -148 -264 -148q-20 0 -43 4t-40 9t-43 15.5t-38 16t-41 19.5t-37 18q-108 53 -168 53q-41 0 -80 -22.5t-88 -71.5 q-9 -9 -18 -4z" />
<glyph unicode="&#xa1;" horiz-adv-x="538" d="M63 -369l205 897q4 19 23 19h71q9 0 13 -5.5t2 -11.5l-135 -897q-3 -20 -25 -20h-137q-9 0 -14 5t-3 13zM266 788q8 45 46 77t85 32q46 0 73 -32.5t19 -76.5q-9 -44 -48.5 -76t-84.5 -32q-47 0 -73 31t-17 77z" />
<glyph unicode="&#xa2;" horiz-adv-x="972" d="M117 326l45 235q15 76 40 134.5t67 107.5t107.5 76.5t151.5 31.5l21 115q4 18 24 18h64q19 0 16 -18l-20 -115q157 -34 231 -163q12 -21 -16 -46l-66 -47q-15 -11 -30 -8.5t-21 15.5q-27 47 -74 76.5t-102 29.5q-85 0 -147.5 -54.5t-79.5 -140.5l-49 -254 q-16 -87 21.5 -139.5t129.5 -52.5q78 0 133 31.5t111 89.5q13 13 31 -2l67 -56q30 -19 8 -45q-65 -75 -134 -112t-175 -41l-18 -117q-3 -20 -25 -20h-63q-10 0 -14 3.5t-3 14.5l21 123q-145 10 -211.5 103t-40.5 227z" />
<glyph unicode="&#xa3;" horiz-adv-x="972" d="M-25 18l19 103q5 17 26 20q108 32 138 195l45 233h-99q-17 0 -14 21l21 102q2 11 6 15t14 4h100l39 200q74 369 408 369q105 0 195 -43.5t124 -122.5q8 -16 -14 -35l-70 -53q-24 -18 -39 6q-65 107 -190 107q-93 0 -159 -54t-81 -141l-45 -233h244q19 0 16 -21l-20 -102 q-3 -19 -25 -19h-243l-29 -143q-17 -98 -37 -160t-57 -108q-10 -17 4 -17h498q21 0 18 -18l-20 -103q-3 -20 -23 -20h-735q-20 0 -15 18z" />
<glyph unicode="&#xa4;" horiz-adv-x="1007" d="M113 178q-13 14 0 27l108 114q-59 82 -59 183q0 97 57 182l-94 104q-7 11 -7.5 14.5t7.5 14.5l68 66q14 14 26 2l94 -105q85 58 187 58q103 0 182 -58l113 107q5 8 13.5 8.5t14.5 -8.5l66 -66q15 -15 2 -28l-109 -105q62 -83 62 -190q0 -106 -60 -189l103 -98 q15 -15 2 -27l-70 -69q-13 -13 -26 0l-105 100q-85 -61 -184 -61q-104 0 -189 67l-106 -108q-13 -16 -27 -2zM295 498q0 -86 61.5 -146.5t147.5 -60.5t146.5 60.5t60.5 146.5t-60.5 147.5t-146.5 61.5t-147.5 -61.5t-61.5 -147.5z" />
<glyph unicode="&#xa5;" horiz-adv-x="972" d="M90 430l16 76q3 18 23 18h262l-22 99h-219q-10 0 -15 4.5t-4 13.5l16 76q3 20 23 20h170l-115 492q-7 35 27 35h117q34 0 39 -23l114 -569h10q65 108 189 318.5t145 246.5q11 16 20.5 21.5t31.5 5.5h112q39 0 17 -33l-312 -494h209q20 0 17 -18l-15 -76q-6 -20 -22 -20 h-258l-62 -99h299q17 0 17 -18l-17 -76q-1 -8 -8 -13t-12 -5l-322 -2l-74 -385q-6 -25 -28 -25h-123q-12 0 -18 6.5t-3 16.5l74 387h-283q-19 0 -16 20z" />
<glyph unicode="&#xa6;" horiz-adv-x="464" d="M211 -217l2 725q0 18 20 18h78q21 0 21 -16l-2 -727q-3 -19 -19 -19h-80q-20 0 -20 19zM211 635v731q0 18 20 18h78q21 0 21 -16v-733q-3 -19 -19 -19h-80q-20 0 -20 19z" />
<glyph unicode="&#xa7;" horiz-adv-x="925" d="M63 4q0 9 17 23l59 63q10 10 23 10q14 0 22 -14q32 -43 92 -72.5t121 -29.5q55 0 104 12.5t86.5 45.5t37.5 81q0 20 -11.5 38.5t-27.5 31.5t-46.5 28t-56 24.5t-67.5 24.5q-117 43 -181.5 97.5t-64.5 136.5q0 89 60 156.5t161 109.5q15 4 21.5 2t13.5 -16l37 -72 q13 -23 -23 -43q-52 -30 -79 -55.5t-27 -57.5q0 -36 34.5 -61t120.5 -57q72 -26 118.5 -47.5t92.5 -54t68.5 -75t22.5 -96.5q0 -128 -108.5 -207.5t-274.5 -79.5q-107 0 -200.5 37.5t-141.5 104.5q-4 9 -3 12zM285 1081q0 131 99 206t257 75q86 0 168 -32t125 -93 q4 -4 4 -12q-2 -9 -16 -23l-56 -63q-15 -11 -22 -11q-16 0 -25 15q-30 41 -78 63.5t-100 22.5q-94 0 -147.5 -35.5t-53.5 -93.5q0 -38 37.5 -67t124.5 -62q65 -25 109.5 -47t85 -52.5t60.5 -69t20 -85.5q0 -94 -61 -162t-159 -106q-1 0 -4.5 -1.5t-5.5 -1.5q-11 0 -16 15 l-39 90q-2 4 -2 12q2 9 18 17q97 46 97 122q0 25 -11 43.5t-38.5 35.5t-52.5 27.5t-75 29.5q-120 46 -181.5 101.5t-61.5 141.5z" />
<glyph unicode="&#xa8;" horiz-adv-x="931" d="M322 1116q8 40 41 68t73 28t62.5 -28t15.5 -68t-41 -68t-74 -28t-62.5 28t-14.5 68zM653 1116q7 40 41 68t74 28t62.5 -28t15.5 -68q-8 -40 -40.5 -68t-72.5 -28q-41 0 -64.5 28t-15.5 68z" />
<glyph unicode="&#xa9;" horiz-adv-x="1447" d="M166 489v283q0 224 166.5 358t435.5 134q178 0 314.5 -57t215 -169.5t78.5 -265.5v-283q0 -153 -78.5 -265t-215 -168t-314.5 -56q-177 0 -313.5 59t-212.5 170.5t-76 259.5zM256 485q0 -83 32.5 -155.5t94.5 -129t160.5 -89.5t222.5 -33q123 0 223 32.5t164 88.5 t98.5 129t34.5 157v293q0 177 -137.5 291.5t-382.5 114.5q-124 0 -222.5 -32.5t-160.5 -88.5t-94.5 -129t-32.5 -156v-293zM537 492v256q0 106 68.5 168.5t178.5 62.5q150 0 217 -111q7 -14 -6 -22l-59 -39q-22 -11 -29 4q-43 74 -125 74q-60 0 -97.5 -37.5t-37.5 -97.5 v-256q0 -59 37 -97.5t96 -38.5q72 0 125 68q13 21 31 6l61 -41q8 -8 0 -20q-80 -109 -215 -109q-113 0 -179 60t-66 170z" />
<glyph unicode="&#xaa;" horiz-adv-x="612" d="M92 653q-3 104 69.5 168t194.5 64q79 0 127 -35h4l9 33q8 32 -21.5 53.5t-101.5 21.5q-61 0 -133 -22q-15 -6 -23 -3.5t-14 19.5l-15 45q-5 22 21 35q80 35 186 35q124 0 183.5 -59.5t37.5 -161.5l-67 -338q-4 -23 -21 -23h-77q-14 0 -19.5 7t-3.5 14l4 18h-4 q-55 -47 -141 -47q-93 0 -143 48.5t-52 127.5zM217 657q4 -77 92 -77q57 0 96 38.5t39 90.5q0 35 -24.5 56t-67.5 21q-62 0 -98.5 -35.5t-36.5 -93.5z" />
<glyph unicode="&#xab;" horiz-adv-x="980" d="M96 416q4 18 27 41l295 297q32 32 69 32h111q15 0 21.5 -5t4 -13t-11.5 -18l-350 -359l199 -309q9 -14 0 -27.5t-23 -13.5h-94q-23 0 -35 8t-26 31l-177 291q-14 27 -10 45zM459 416.5q4 18.5 26 40.5l295 297q32 32 70 32h111q15 0 21.5 -5t4 -13t-11.5 -18l-348 -355 l196 -313q8 -15 0 -28t-22 -13h-94q-23 0 -36 8t-26 31l-176 291q-14 27 -10 45.5z" />
<glyph unicode="&#xac;" horiz-adv-x="972" d="M76 455l12 65q7 31 37 31h747q14 0 21 -9t4 -22l-78 -403q-6 -29 -35 -29h-69q-31 0 -25 29l60 309h-650q-30 0 -24 29z" />
<glyph unicode="&#xad;" horiz-adv-x="696" d="M115 440l18 95q3 20 23 20h417q20 0 17 -18l-19 -97q-3 -20 -22 -20h-418q-19 0 -16 20z" />
<glyph unicode="&#xae;" horiz-adv-x="837" d="M86 899v152q0 123 91 196.5t239 73.5t241 -72t93 -198v-152q0 -127 -92.5 -198.5t-241.5 -71.5q-148 0 -239 73.5t-91 196.5zM147 895q0 -89 70.5 -150t198.5 -61q127 0 198.5 61t71.5 150v158q0 93 -71 152t-199 59q-129 0 -199 -60.5t-70 -150.5v-158zM305 797v352 q0 4 3.5 8t10.5 4h113q56 0 87.5 -28.5t31.5 -75.5q0 -58 -55 -96q-8 -6 -9 -7.5t2 -13.5l68 -141q4 -7 1 -12t-11 -5h-41q-16 0 -23 15l-61 141h-49v-139q0 -17 -11 -17h-47q-10 0 -10 15zM373 995h53q27 0 43 16.5t16 39.5t-15 37t-38 14h-47q-12 0 -12 -10v-97z" />
<glyph unicode="&#xaf;" horiz-adv-x="927" d="M371 1098l16 84q6 20 23 20h436q22 0 16 -18l-16 -86q-4 -21 -23 -21h-436q-19 0 -16 21z" />
<glyph unicode="&#xb0;" horiz-adv-x="620" d="M61 1071q0 96 68.5 161.5t165.5 65.5q117 0 182.5 -63.5t65.5 -163.5q0 -95 -73 -161t-173 -66q-99 0 -167.5 65t-68.5 162zM170 1071q0 -55 36 -95t89 -40q55 0 95 40t40 95q0 56 -37 94.5t-98 38.5q-50 0 -87.5 -39t-37.5 -94z" />
<glyph unicode="&#xb1;" horiz-adv-x="972" d="M18 111l15 65q2 14 12 22.5t25 8.5h747q28 0 25 -31l-13 -63q-6 -31 -36 -31h-748q-30 0 -27 29zM131 680l12 65q7 31 37 31h305l62 307q7 31 35 31h69q31 0 25 -31l-62 -307h314q13 0 20 -8.5t4 -22.5l-12 -63q-6 -31 -37 -31h-313l-60 -309q-3 -29 -32 -29h-70 q-30 0 -27 29l60 309h-305q-14 0 -21 8t-4 21z" />
<glyph unicode="&#xb2;" horiz-adv-x="632" d="M39 700l10 54q7 22 25 43l377 360q21 18 38 49t17 58q0 79 -100 79q-32 0 -64 -16.5t-53 -38.5q-26 -32 -45 -16q-51 34 -58 41q-19 13 9 41q88 104 237 104q96 0 149.5 -49.5t53.5 -128.5q0 -103 -100 -199l-312 -297h309q16 0 20.5 -6t2.5 -20l-12 -64q-6 -24 -29 -24 h-446q-19 0 -25 7.5t-4 22.5z" />
<glyph unicode="&#xb3;" horiz-adv-x="632" d="M76 778q-12 19 14 35l60 35q19 8 25.5 5t17.5 -17q35 -60 96 -60q68 0 109.5 41.5t41.5 114.5q0 50 -26.5 79t-73.5 29h-72q-24 0 -24 15v6l10 61q3 16 10 21.5t21 5.5h82q57 0 94 32t37 85q0 35 -23.5 56t-64.5 21q-35 0 -69.5 -16.5t-55.5 -40.5q-23 -27 -45 -12 l-52 35q-10 11 -7 22.5t14 22.5q85 98 217 98q96 0 153.5 -47.5t57.5 -124.5q0 -54 -29.5 -109t-81.5 -81l-2 -7q59 -45 59 -145q0 -132 -80 -203t-204 -71q-68 0 -124 28.5t-85 85.5z" />
<glyph unicode="&#xb4;" horiz-adv-x="897" d="M514 1022q-17 14 0 37l197 262q25 33 49 14l80 -59q24 -19 -2 -45l-248 -227q-9 -9 -21 -12t-22 3z" />
<glyph unicode="&#xb5;" horiz-adv-x="970" d="M-37 -352q12 60 114.5 585.5t123.5 643.5q3 18 24 18h125q18 0 15 -18l-107 -555q-15 -79 31.5 -136t128.5 -57q84 0 150 55t83 138l107 555q3 18 24 18h125q20 0 17 -18l-166 -859q-3 -18 -23 -18h-117q-12 0 -15.5 4t-0.5 14l10 48h-8q-53 -43 -106 -60.5t-125 -17.5 q-45 0 -89.5 15t-68.5 40l-8 4l-78 -397q-3 -21 -23 -21h-124q-22 0 -19 19z" />
<glyph unicode="&#xb6;" horiz-adv-x="919" d="M168 973q17 155 113.5 243.5t240.5 88.5h219q8 0 13 -6t4 -13l-123 -622q-3 -19 -21 -19h-178q-142 0 -212.5 92t-55.5 236zM356 -162l6 78q0 9 6.5 17.5t16.5 9.5q50 4 86.5 13t62 24.5t42 31.5t28 43.5t18 50.5t13.5 62l219 1118q4 19 23 19h90q9 0 14.5 -5.5 t3.5 -13.5l-215 -1124q-18 -88 -41.5 -145.5t-67 -105.5t-114.5 -70t-174 -21q-17 0 -17 18z" />
<glyph unicode="&#xb7;" horiz-adv-x="436" d="M109 475q0 43 32 76t76 33t78.5 -33.5t34.5 -73.5q0 -46 -33 -79t-80 -33q-44 0 -76 32t-32 78z" />
<glyph unicode="&#xb8;" horiz-adv-x="835" d="M156 -358q0 9 8 20l26 41q7 10 17 10q2 0 10 -4q52 -33 100 -33q44 0 70.5 21t26.5 55q0 22 -16 38.5t-56 16.5h-55q-54 0 -54 43q0 6 9 33l63 135q13 27 29 27h61q6 0 8 -6t0 -12t-4 -11l-53 -118h23q74 0 114.5 -34t40.5 -95q0 -78 -57.5 -131.5t-151.5 -53.5 q-96 0 -155 47q-4 4 -4 11z" />
<glyph unicode="&#xb9;" horiz-adv-x="524" d="M154 1247l14 66q7 31 29 41l170 84q23 10 39 10h36q14 0 21.5 -10t5.5 -23l-139 -717q-4 -28 -33 -28h-84q-17 0 -21 6t-2 20l115 586l-112 -55q-26 -11 -34 -5.5t-5 25.5z" />
<glyph unicode="&#xba;" horiz-adv-x="612" d="M123 735l20 111q41 219 265 219q116 0 180 -65t45 -169l-21 -126q-19 -109 -79 -165.5t-185 -56.5q-122 0 -184 68t-41 184zM246 702q-9 -49 18 -80.5t84 -31.5q117 0 139 127l21 112q10 57 -21 91t-88 34q-52 0 -85 -29.5t-42 -78.5z" />
<glyph unicode="&#xbb;" horiz-adv-x="980" d="M2.5 48q-3.5 11 11.5 26l351 346l-201 321q-9 15 -0.5 28t24.5 13h93q23 0 35 -8t26 -31l176 -288q26 -46 -14 -86l-297 -299q-12 -12 -18.5 -17.5t-20.5 -10.5t-31 -5h-110q-21 0 -24.5 11zM364.5 55.5q2.5 8.5 12.5 18.5l350 350l-201 317q-9 14 0 27.5t25 13.5h92 q23 0 36 -8t26 -31l176 -288q26 -45 -15 -86l-297 -299q-12 -12 -18 -17t-20 -10.5t-31 -5.5h-111q-14 0 -20.5 5t-4 13.5z" />
<glyph unicode="&#xbc;" horiz-adv-x="1433" d="M131 -43l832 1352q10 16 28 16h62q12 0 16.5 -3.5t3.5 -8t-6 -13.5l-827 -1347q-8 -14 -27 -14h-74q-19 0 -8 18zM158 1063l14 65q7 31 29 41l170 84q26 11 39 11h36q14 0 21.5 -10t5.5 -23l-139 -717q-5 -29 -33 -29h-84q-12 0 -17.5 3.5t-5.5 9.5t1 14l114 586 l-112 -56q-26 -11 -34 -5t-5 26zM590 186l4 27q4 29 24 55l359 500q4 4 14 4h101q8 0 11.5 -5t-1.5 -13l-342 -482h180l39 195q4 12 16 12h97q6 0 9 -3.5t1 -8.5l-37 -195h98q7 0 10.5 -3t2.5 -9l-17 -82q-3 -12 -16 -12h-99l-30 -160q-3 -12 -17 -12h-98q-13 0 -10 12 l31 160h-310q-25 0 -20 20z" />
<glyph unicode="&#xbd;" horiz-adv-x="1433" d="M113 -43l831 1352q10 16 29 16h61q17 0 19.5 -6.5t-4.5 -18.5l-828 -1347q-8 -14 -26 -14h-74q-19 0 -8 18zM137 1063l15 65q7 32 28 41l170 84q26 11 39 11h37q14 0 21.5 -10t5.5 -23l-140 -717q-5 -29 -32 -29h-84q-17 0 -21 6.5t-2 20.5l115 586l-113 -56 q-26 -11 -34 -5t-5 26zM625 25l10 53q1 2 2.5 7.5t2.5 8.5t6 10t13 17l377 360q22 18 39 49.5t17 57.5q0 80 -101 80q-32 0 -64 -17t-53 -39q-26 -32 -45 -16q-48 32 -57 41q-19 14 8 41q88 104 238 104q96 0 149.5 -49.5t53.5 -128.5q0 -101 -101 -198l-311 -297h309 q16 0 20.5 -6.5t2.5 -20.5l-13 -64q-6 -24 -28 -24h-447q-19 0 -24.5 8t-3.5 23z" />
<glyph unicode="&#xbe;" horiz-adv-x="1433" d="M25 594q-12 19 14 35l59 35q19 8 25.5 5t17.5 -18q34 -59 97 -59q68 0 109.5 41.5t41.5 114.5q0 50 -26.5 79t-73.5 29h-72q-24 0 -24 14v7l10 61q3 17 9.5 22t20.5 5h82q57 0 94 31.5t37 84.5q0 36 -23.5 57t-64.5 21q-35 0 -69.5 -16.5t-55.5 -40.5q-23 -27 -45 -12 l-51 34q-22 17 6 45q86 99 217 99q96 0 153.5 -47.5t57.5 -124.5q0 -54 -29 -109.5t-81 -81.5l-2 -6q59 -45 59 -145q0 -132 -80.5 -203.5t-204.5 -71.5q-68 0 -123 28.5t-85 86.5zM182 -43l832 1352q10 16 28 16h62q12 0 16.5 -3.5t3.5 -8t-6 -13.5l-827 -1347 q-8 -14 -27 -14h-74q-19 0 -8 18zM631 186l4 27q4 29 24 55l359 500q4 4 14 4h101q8 0 11.5 -5t-1.5 -13l-342 -482h180l39 195q4 12 16 12h97q6 0 9 -3.5t1 -8.5l-37 -195h98q6 0 10 -3t3 -9l-17 -82q-3 -12 -16 -12h-99l-30 -160q-3 -12 -17 -12h-98q-13 0 -10 12l31 160 h-310q-25 0 -20 20z" />
<glyph unicode="&#xbf;" horiz-adv-x="835" d="M-35 -154q0 121 80 225t201 171q103 58 154.5 110.5t64.5 126.5l10 43q4 29 23 29h118q18 0 22.5 -5.5t0.5 -25.5l-12 -69q-15 -79 -74 -157t-145 -130q-8 -5 -41.5 -24.5t-47 -27.5t-44 -28.5t-45 -34t-36.5 -36t-32 -42.5t-18.5 -45.5t-8.5 -52.5q0 -61 41 -101 t119 -40q114 0 199 96l16 18q20 22 41 7l80 -58q15 -12 2 -35q-137 -170 -342 -170q-139 0 -232.5 67.5t-93.5 188.5zM500 786q8 45 46 77t87 32q44 0 71 -32.5t19 -76.5q-9 -44 -48.5 -76t-84.5 -32q-48 0 -73.5 30.5t-16.5 77.5z" />
<glyph unicode="&#xc0;" horiz-adv-x="909" d="M-35 39l543 1206q8 19 31 19h168q21 0 26 -19l84 -1206q0 -39 -35 -39h-106q-24 0 -29 20l-12 269h-385l-115 -269q-9 -20 -31 -20h-118q-35 0 -21 39zM289.5 1465.5q-6.5 9.5 1.5 25.5l55 90q7 10 21.5 9t25.5 -9l283 -176q23 -16 12 -33l-22 -37q-15 -21 -45 -8 l-312 125q-13 4 -19.5 13.5zM311 430h316l-19 401l-6 265h-6l-107 -258z" />
<glyph unicode="&#xc1;" horiz-adv-x="909" d="M-35 39l543 1206q8 19 31 19h168q21 0 26 -19l84 -1206q0 -39 -35 -39h-106q-24 0 -29 20l-12 269h-385l-115 -269q-9 -20 -31 -20h-118q-35 0 -21 39zM311 430h316l-19 401l-6 265h-6l-107 -258zM586 1372q-11 17 12 33l283 176q11 8 25.5 9t21.5 -9l55 -90 q8 -16 1.5 -25.5t-19.5 -13.5l-312 -125q-30 -13 -45 8z" />
<glyph unicode="&#xc2;" horiz-adv-x="909" d="M-35 39l543 1206q8 19 31 19h168q21 0 26 -19l84 -1206q0 -39 -35 -39h-106q-24 0 -29 20l-12 269h-385l-115 -269q-9 -20 -31 -20h-118q-35 0 -21 39zM311 430h316l-19 401l-6 265h-6l-107 -258zM377 1352q-19 14 6 32l240 189q21 18 49 18h65q24 0 39 -18l148 -189 q18 -18 -11 -32l-32 -21q-17 -7 -22.5 -6t-18.5 10l-152 123l-239 -123q-29 -18 -43 -4z" />
<glyph unicode="&#xc3;" horiz-adv-x="909" d="M-35 39l543 1206q8 19 31 19h168q21 0 26 -19l84 -1206q0 -39 -35 -39h-106q-24 0 -29 20l-12 269h-385l-115 -269q-9 -20 -31 -20h-118q-35 0 -21 39zM311 430h316l-19 401l-6 265h-6l-107 -258zM367 1380q-10 10 4 33q39 54 88.5 86.5t99.5 32.5q42 0 107.5 -36 t93.5 -36q42 0 90 64q13 17 33 4l53 -37q13 -8 -2 -35q-79 -119 -186 -119q-45 0 -109 35t-96 35q-18 0 -43.5 -18t-44.5 -43q-18 -23 -37 -9z" />
<glyph unicode="&#xc4;" horiz-adv-x="909" d="M-35 39l543 1206q8 19 31 19h168q21 0 26 -19l84 -1206q0 -39 -35 -39h-106q-24 0 -29 20l-12 269h-385l-115 -269q-9 -20 -31 -20h-118q-35 0 -21 39zM311 430h316l-19 401l-6 265h-6l-107 -258zM393 1434q7 40 41 68t74 28t62.5 -28t15.5 -68q-8 -40 -41.5 -68.5 t-73.5 -28.5t-63 28.5t-15 68.5zM725 1434q7 40 41 68t74 28t62.5 -28t15.5 -68q-8 -40 -40.5 -68.5t-72.5 -28.5q-41 0 -64.5 28.5t-15.5 68.5z" />
<glyph unicode="&#xc5;" horiz-adv-x="909" d="M-35 39l543 1206q8 19 31 19h168q21 0 26 -19l84 -1206q0 -39 -35 -39h-106q-24 0 -29 20l-12 269h-385l-115 -269q-9 -20 -31 -20h-118q-35 0 -21 39zM311 430h316l-19 401l-6 265h-6l-107 -258zM489 1458q0 94 56.5 149.5t140.5 55.5q66 0 112 -41t46 -109 q0 -88 -59.5 -141t-145.5 -53q-63 0 -106.5 39.5t-43.5 99.5zM578 1479q0 -31 21.5 -53.5t51.5 -22.5q41 0 72 29t31 71q0 38 -22.5 58t-55.5 20q-39 0 -68.5 -30.5t-29.5 -71.5z" />
<glyph unicode="&#xc6;" horiz-adv-x="1421" d="M-25 39q104 203 302 608t290 586q12 31 47 31h826q24 0 24 -23l-14 -100q0 -25 -25 -25h-477l-51 -385h412q22 0 22 -24l-10 -107q-3 -18 -27 -18h-411l-58 -432h525q11 0 17 -6.5t5 -16.5l-12 -102q-3 -25 -27 -25h-667q-11 0 -18 6.5t-7 16.5l41 284h-401l-142 -287 q-9 -20 -30 -20h-117q-35 0 -17 39zM356 459h346l97 657h-127q-54 -112 -159.5 -332t-156.5 -325z" />
<glyph unicode="&#xc7;" horiz-adv-x="901" d="M102 356l113 576q32 170 123.5 259t261.5 89q232 0 348 -166q12 -18 -12 -39l-66 -57q-10 -10 -19.5 -9t-23.5 17q-103 107 -217 107q-186 0 -225 -199l-115 -598q-15 -86 31.5 -142.5t140.5 -56.5q54 0 98.5 16t68 33.5t59.5 51.5q27 27 49 12l86 -78q12 -12 -4 -35 q-80 -87 -163.5 -118t-180.5 -31l-39 -90h22q74 0 115 -34t41 -95q0 -78 -57.5 -131.5t-151.5 -53.5q-97 0 -156 47q-4 4 -4 11q0 9 8 20l27 41q8 10 16 10q3 0 11 -4q52 -33 100 -33q44 0 70 21t26 55q0 55 -71 55h-56q-53 0 -53 43q0 9 8 33l51 113q-145 22 -217 117.5 t-43 242.5z" />
<glyph unicode="&#xc8;" horiz-adv-x="909" d="M53 23l238 1218q4 23 28 23h648q11 0 17 -6.5t5 -16.5l-20 -100q-4 -25 -27 -25h-504l-78 -385h428q24 0 21 -24l-18 -107q-3 -18 -27 -18h-428l-88 -432h540q11 0 17.5 -6.5t5.5 -16.5l-20 -102q-3 -25 -29 -25h-688q-24 0 -21 23zM338.5 1465.5q-6.5 9.5 1.5 25.5 l55 90q7 10 21.5 9t25.5 -9l283 -176q23 -16 12 -33l-22 -37q-15 -21 -45 -8l-312 125q-13 4 -19.5 13.5z" />
<glyph unicode="&#xc9;" horiz-adv-x="909" d="M53 23l238 1218q4 23 28 23h648q11 0 17 -6.5t5 -16.5l-20 -100q-4 -25 -27 -25h-504l-78 -385h428q24 0 21 -24l-18 -107q-3 -18 -27 -18h-428l-88 -432h540q11 0 17.5 -6.5t5.5 -16.5l-20 -102q-3 -25 -29 -25h-688q-24 0 -21 23zM532 1372q-11 16 13 33l282 176 q11 8 25.5 9t21.5 -9l56 -90q8 -16 1 -25.5t-20 -13.5l-311 -125q-30 -13 -45 8z" />
<glyph unicode="&#xca;" horiz-adv-x="909" d="M53 23l238 1218q4 23 28 23h648q11 0 17 -6.5t5 -16.5l-20 -100q-4 -25 -27 -25h-504l-78 -385h428q24 0 21 -24l-18 -107q-3 -18 -27 -18h-428l-88 -432h540q11 0 17.5 -6.5t5.5 -16.5l-20 -102q-3 -25 -29 -25h-688q-24 0 -21 23zM346 1352q-19 14 6 32l240 189 q21 18 49 18h66q23 0 38 -18l148 -189q18 -18 -10 -32l-33 -21q-17 -7 -22.5 -6t-18.5 10l-152 123l-239 -123q-29 -18 -43 -4z" />
<glyph unicode="&#xcb;" horiz-adv-x="909" d="M53 23l238 1218q4 23 28 23h648q11 0 17 -6.5t5 -16.5l-20 -100q-4 -25 -27 -25h-504l-78 -385h428q24 0 21 -24l-18 -107q-3 -18 -27 -18h-428l-88 -432h540q11 0 17.5 -6.5t5.5 -16.5l-20 -102q-3 -25 -29 -25h-688q-24 0 -21 23zM399 1434q7 40 41 68t74 28t62.5 -28 t15.5 -68q-8 -40 -41.5 -68.5t-73.5 -28.5t-63 28.5t-15 68.5zM731 1434q7 40 41 68t74 28t62.5 -28t15.5 -68q-8 -40 -40.5 -68.5t-72.5 -28.5q-41 0 -64.5 28.5t-15.5 68.5z" />
<glyph unicode="&#xcc;" horiz-adv-x="489" d="M52 1465.5q-7 9.5 1 25.5l56 90q7 10 21.5 9t25.5 -9l282 -176q24 -17 13 -33l-23 -37q-15 -21 -45 -8l-311 125q-13 4 -20 13.5zM74 23l235 1218q7 23 29 23h127q11 0 17 -6t3 -15l-235 -1218q-6 -25 -29 -25h-127q-11 0 -17 6.5t-3 16.5z" />
<glyph unicode="&#xcd;" horiz-adv-x="489" d="M74 23l235 1218q7 23 29 23h127q11 0 17 -6t3 -15l-235 -1218q-6 -25 -29 -25h-127q-11 0 -17 6.5t-3 16.5zM358 1372q-11 16 13 33l282 176q11 8 25.5 9t21.5 -9l56 -90q8 -16 1 -25.5t-20 -13.5l-311 -125q-30 -13 -45 8z" />
<glyph unicode="&#xce;" horiz-adv-x="489" d="M74 23l235 1218q7 23 29 23h127q11 0 17 -6t3 -15l-235 -1218q-6 -25 -29 -25h-127q-11 0 -17 6.5t-3 16.5zM160 1368q-20 14 6 33l240 188q22 19 49 19h65q23 0 39 -19l148 -188q18 -18 -11 -33l-32 -20q-17 -7 -22.5 -6t-18.5 10l-152 123l-240 -123q-29 -18 -43 -4z " />
<glyph unicode="&#xcf;" horiz-adv-x="489" d="M74 23l235 1218q7 23 29 23h127q11 0 17 -6t3 -15l-235 -1218q-6 -25 -29 -25h-127q-11 0 -17 6.5t-3 16.5zM160 1434q8 40 41 68t73 28t62.5 -28t15.5 -68q-8 -40 -41 -68.5t-73 -28.5t-63 28.5t-15 68.5zM492 1434q8 40 41 68t73 28t62.5 -28t15.5 -68 q-8 -40 -40.5 -68.5t-72.5 -28.5q-41 0 -64 28.5t-15 68.5z" />
<glyph unicode="&#xd0;" horiz-adv-x="993" d="M53 23l109 561h-80q-24 0 -21 24l15 78q6 21 26 21h84l105 534q4 23 28 23h332q194 4 273.5 -98t48.5 -271l-94 -514q-37 -201 -134.5 -291t-277.5 -90h-393q-24 0 -21 23zM248 150h209q206 0 243 204l111 559q17 101 -29.5 152t-146.5 51h-197l-80 -409h160q12 0 18 -7 t3 -18l-15 -74q-3 -24 -26 -24h-164z" />
<glyph unicode="&#xd1;" horiz-adv-x="1077" d="M53 23l232 1189q5 29 14.5 40.5t36.5 11.5h74q22 0 32 -8t17 -25l301 -897l6 -2l178 909q7 23 27 23h114q12 0 18 -6t3 -15l-234 -1202q-7 -41 -45 -41h-77q-41 0 -50 31q-48 137 -152.5 446.5t-152.5 446.5h-6l-172 -899q-6 -25 -27 -25h-116q-12 0 -18 6.5t-3 16.5z M422 1372q-10 10 4 33q39 54 88.5 86.5t99.5 32.5q42 0 107.5 -36t93.5 -36q42 0 90 64q13 17 33 4l53 -37q13 -8 -2 -35q-79 -119 -186 -119q-45 0 -109 35t-96 35q-18 0 -43.5 -18t-44.5 -44q-18 -23 -37 -8z" />
<glyph unicode="&#xd2;" horiz-adv-x="1003" d="M100 367l109 565q33 165 142 256.5t282 91.5q84 0 154.5 -24.5t120.5 -69.5t71 -116.5t4 -158.5l-111 -573q-68 -350 -428 -350q-181 0 -278.5 106.5t-65.5 272.5zM268 362q-15 -100 35 -162.5t146 -62.5q213 0 253 205l113 586q17 87 -37 144.5t-149 57.5 q-98 0 -166 -57t-86 -145zM414.5 1465.5q-6.5 9.5 1.5 25.5l55 90q7 10 21.5 9t25.5 -9l283 -176q23 -16 12 -33l-22 -37q-15 -21 -46 -8l-311 125q-13 4 -19.5 13.5z" />
<glyph unicode="&#xd3;" horiz-adv-x="1003" d="M100 367l109 565q33 165 142 256.5t282 91.5q84 0 154.5 -24.5t120.5 -69.5t71 -116.5t4 -158.5l-111 -573q-68 -350 -428 -350q-181 0 -278.5 106.5t-65.5 272.5zM268 362q-15 -100 35 -162.5t146 -62.5q213 0 253 205l113 586q17 87 -37 144.5t-149 57.5 q-98 0 -166 -57t-86 -145zM553 1372q-11 17 12 33l283 176q11 8 25.5 9t21.5 -9l55 -90q8 -16 1.5 -25.5t-19.5 -13.5l-311 -125q-31 -13 -46 8z" />
<glyph unicode="&#xd4;" horiz-adv-x="1003" d="M100 367l109 565q33 165 142 256.5t282 91.5q84 0 154.5 -24.5t120.5 -69.5t71 -116.5t4 -158.5l-111 -573q-68 -350 -428 -350q-181 0 -278.5 106.5t-65.5 272.5zM268 362q-15 -100 35 -162.5t146 -62.5q213 0 253 205l113 586q17 87 -37 144.5t-149 57.5 q-98 0 -166 -57t-86 -145zM385 1352q-19 14 6 32l240 189q21 18 49 18h65q24 0 39 -18l148 -189q18 -18 -10 -32l-33 -21q-17 -7 -22.5 -6t-18.5 10l-152 123l-239 -123q-29 -18 -43 -4z" />
<glyph unicode="&#xd5;" horiz-adv-x="1003" d="M100 367l109 565q33 165 142 256.5t282 91.5q84 0 154.5 -24.5t120.5 -69.5t71 -116.5t4 -158.5l-111 -573q-68 -350 -428 -350q-181 0 -278.5 106.5t-65.5 272.5zM268 362q-15 -100 35 -162.5t146 -62.5q213 0 253 205l113 586q17 87 -37 144.5t-149 57.5 q-98 0 -166 -57t-86 -145zM399 1393q-9 9 4 32q38 53 88 86t101 33q42 0 107.5 -35.5t93.5 -35.5q42 0 90 63q13 17 32 4l54 -37q13 -8 -2 -35q-78 -118 -187 -118q-45 0 -109 34.5t-96 34.5q-18 0 -43.5 -18t-44.5 -43q-17 -22 -36 -8z" />
<glyph unicode="&#xd6;" horiz-adv-x="1003" d="M100 367l109 565q33 165 142 256.5t282 91.5q84 0 154.5 -24.5t120.5 -69.5t71 -116.5t4 -158.5l-111 -573q-68 -350 -428 -350q-181 0 -278.5 106.5t-65.5 272.5zM268 362q-15 -100 35 -162.5t146 -62.5q213 0 253 205l113 586q17 87 -37 144.5t-149 57.5 q-98 0 -166 -57t-86 -145zM440 1434q7 40 41 68t74 28t62.5 -28t15.5 -68q-8 -40 -41.5 -68.5t-73.5 -28.5t-63 28.5t-15 68.5zM772 1434q7 40 41 68t74 28t62.5 -28t15.5 -68q-8 -40 -40.5 -68.5t-72.5 -28.5q-41 0 -64.5 28.5t-15.5 68.5z" />
<glyph unicode="&#xd7;" horiz-adv-x="972" d="M127 221q-16 23 10 43l266 225l-178 218q-16 22 6 41l48 38q24 21 43 2l176 -219l268 226q25 25 41 2l39 -45q14 -24 -8 -43l-269 -228l176 -215q9 -9 7.5 -20.5t-13.5 -20.5l-45 -39q-28 -22 -43 0l-176 215l-268 -225q-11 -9 -23.5 -9t-19.5 9z" />
<glyph unicode="&#xd8;" horiz-adv-x="1003" d="M44 30q-2 9 3 19l78 105q-49 92 -25 213l109 565q33 165 142 256.5t282 91.5q154 0 258 -80l57 74q8 16 29 8q-2 -4 57 -33q14 -9 6 -26l-79 -109q45 -86 22 -203l-111 -573q-68 -350 -428 -350q-157 0 -251 82l-56 -76q-17 -17 -31 -10q-41 23 -53 32q-7 5 -9 14z M266 346q115 159 522 713q-52 71 -159 71q-98 0 -166 -57t-86 -145l-109 -566q-2 -6 -2 -16zM295 209q50 -72 154 -72q213 0 253 205l109 569z" />
<glyph unicode="&#xd9;" horiz-adv-x="1026" d="M102 369l170 872q4 23 27 23h125q22 0 18 -21l-176 -903q-15 -93 36.5 -148t141.5 -55q111 0 178 54t85 143l176 907q4 23 28 23h123q24 0 21 -21l-178 -915q-32 -160 -150 -250t-285 -90q-82 0 -151.5 25.5t-117.5 73t-68 120.5t-3 162zM363.5 1465.5q-6.5 9.5 1.5 25.5 l55 90q7 10 21.5 9t25.5 -9l283 -176q23 -16 12 -33l-23 -37q-15 -21 -45 -8l-311 125q-13 4 -19.5 13.5z" />
<glyph unicode="&#xda;" horiz-adv-x="1026" d="M102 369l170 872q4 23 27 23h125q22 0 18 -21l-176 -903q-15 -93 36.5 -148t141.5 -55q111 0 178 54t85 143l176 907q4 23 28 23h123q24 0 21 -21l-178 -915q-32 -160 -150 -250t-285 -90q-82 0 -151.5 25.5t-117.5 73t-68 120.5t-3 162zM571 1372q-11 16 13 33l282 176 q11 8 25.5 9t21.5 -9l56 -90q8 -16 1 -25.5t-20 -13.5l-311 -125q-30 -13 -45 8z" />
<glyph unicode="&#xdb;" horiz-adv-x="1026" d="M102 369l170 872q4 23 27 23h125q22 0 18 -21l-176 -903q-15 -93 36.5 -148t141.5 -55q111 0 178 54t85 143l176 907q4 23 28 23h123q24 0 21 -21l-178 -915q-32 -160 -150 -250t-285 -90q-82 0 -151.5 25.5t-117.5 73t-68 120.5t-3 162zM406 1352q-19 14 6 32l239 189 q21 18 49 18h66q24 0 39 -18l147 -189q18 -18 -10 -32l-33 -21q-17 -7 -22.5 -6t-18.5 10l-151 123l-240 -123q-29 -18 -43 -4z" />
<glyph unicode="&#xdc;" horiz-adv-x="1026" d="M102 369l170 872q4 23 27 23h125q22 0 18 -21l-176 -903q-15 -93 36.5 -148t141.5 -55q111 0 178 54t85 143l176 907q4 23 28 23h123q24 0 21 -21l-178 -915q-32 -160 -150 -250t-285 -90q-82 0 -151.5 25.5t-117.5 73t-68 120.5t-3 162zM426 1434q7 40 41 68t74 28 t62.5 -28t14.5 -68t-41 -68.5t-73 -28.5t-63 28.5t-15 68.5zM758 1434q8 40 41 68t73 28t62.5 -28t15.5 -68q-8 -40 -40.5 -68.5t-71.5 -28.5q-41 0 -64.5 28.5t-15.5 68.5z" />
<glyph unicode="&#xdd;" horiz-adv-x="862" d="M172 1229q-12 35 25 35h106q34 0 39 -25l117 -573h4q44 76 162.5 273.5t175.5 297.5q13 17 22 22t29 5h123q22 0 25 -9t-7 -24l-458 -729q-15 -21 -21 -49l-84 -428q-4 -25 -27 -25h-120q-26 0 -23 23l86 434q4 30 2 37l-176 737v-2zM500 1372q-11 17 12 33l283 176 q11 8 25.5 9t21.5 -9l55 -90q8 -16 1.5 -25.5t-19.5 -13.5l-312 -125q-30 -13 -45 8z" />
<glyph unicode="&#xde;" horiz-adv-x="954" d="M51 23l238 1222q8 19 26 19h121q11 0 17.5 -6t5.5 -15l-45 -231h172q164 0 258 -96.5t84 -256.5q-18 -178 -137 -287t-314 -108h-209l-45 -239q-4 -25 -26 -25h-123q-23 0 -23 23zM297 414h205q106 0 182 74.5t76 187.5q-2 75 -50.5 130.5t-129.5 55.5h-195z" />
<glyph unicode="&#xdf;" horiz-adv-x="991" d="M78 18l178 924q30 152 136.5 247t262.5 95q144 0 230 -78t84 -207q0 -80 -42 -155.5t-112 -108.5l-4 -6q46 -31 70.5 -93.5t11.5 -133.5l-33 -185q-67 -337 -348 -337h-156q-13 0 -22 6t-6 18l16 80q4 19 12.5 23t28.5 4h86q96 0 151.5 55t73.5 151l35 175 q15 85 -24.5 132.5t-124.5 47.5h-25q-20 0 -14 18l18 96q3 19 19 19h32q88 0 139.5 51.5t51.5 130.5q0 66 -41.5 111t-110.5 45q-94 0 -152.5 -54.5t-74.5 -140.5l-180 -928q-3 -20 -23 -20h-127q-19 0 -16 18z" />
<glyph unicode="&#xe0;" horiz-adv-x="905" d="M61 262q0 158 103.5 256t269.5 98q141 0 217 -71l6 2l11 59q29 166 -164 166q-41 0 -119 -16t-117 -35q-22 -8 -28 12l-31 90q-6 19 14 27q135 61 295 61q173 0 252.5 -90.5t48.5 -247.5l-108 -553q-3 -20 -23 -20h-117q-16 0 -16 16l10 52l-6 2q-89 -82 -223 -82 q-131 0 -203 76t-72 198zM215 268q0 -63 38.5 -102t113.5 -39q93 0 158 65t65 158q0 62 -39 99.5t-113 37.5q-99 0 -161 -61.5t-62 -157.5zM336 1247q-22 27 0 45l84 62q10 7 22 -1t21 -22l178 -280q13 -23 -4 -35l-37 -23q-11 -5 -23.5 -0.5t-19.5 13.5z" />
<glyph unicode="&#xe1;" horiz-adv-x="905" d="M61 262q0 158 103.5 256t269.5 98q141 0 217 -71l6 2l11 59q29 166 -164 166q-41 0 -119 -16t-117 -35q-22 -8 -28 12l-31 90q-6 19 14 27q135 61 295 61q173 0 252.5 -90.5t48.5 -247.5l-108 -553q-3 -20 -23 -20h-117q-16 0 -16 16l10 52l-6 2q-89 -82 -223 -82 q-131 0 -203 76t-72 198zM215 268q0 -63 38.5 -102t113.5 -39q93 0 158 65t65 158q0 62 -39 99.5t-113 37.5q-99 0 -161 -61.5t-62 -157.5zM483 1022q-17 14 0 37l197 262q25 33 49 14l80 -59q24 -19 -2 -45l-248 -227q-9 -9 -21 -12t-22 3z" />
<glyph unicode="&#xe2;" horiz-adv-x="905" d="M61 262q0 158 103.5 256t269.5 98q141 0 217 -71l6 2l11 59q29 166 -164 166q-41 0 -119 -16t-117 -35q-22 -8 -28 12l-31 90q-6 19 14 27q135 61 295 61q173 0 252.5 -90.5t48.5 -247.5l-108 -553q-3 -20 -23 -20h-117q-16 0 -16 16l10 52l-6 2q-89 -82 -223 -82 q-131 0 -203 76t-72 198zM215 268q0 -63 38.5 -102t113.5 -39q93 0 158 65t65 158q0 62 -39 99.5t-113 37.5q-99 0 -161 -61.5t-62 -157.5zM313 1034q-19 18 6 43l244 240q22 22 49 22h68q23 0 39 -22l149 -240q17 -24 -10 -43l-33 -24q-27 -19 -43 4l-147 180l-252 -180 q-17 -11 -23.5 -12.5t-21.5 8.5z" />
<glyph unicode="&#xe3;" horiz-adv-x="905" d="M61 262q0 158 103.5 256t269.5 98q141 0 217 -71l6 2l11 59q29 166 -164 166q-41 0 -119 -16t-117 -35q-22 -8 -28 12l-31 90q-6 19 14 27q135 61 295 61q173 0 252.5 -90.5t48.5 -247.5l-108 -553q-3 -20 -23 -20h-117q-16 0 -16 16l10 52l-6 2q-89 -82 -223 -82 q-131 0 -203 76t-72 198zM215 268q0 -63 38.5 -102t113.5 -39q93 0 158 65t65 158q0 62 -39 99.5t-113 37.5q-99 0 -161 -61.5t-62 -157.5zM297 1085q-10 10 4 33q39 54 88.5 86.5t99.5 32.5q42 0 107.5 -36t93.5 -36q42 0 90 64q13 17 33 4l53 -37q13 -8 -2 -35 q-79 -119 -186 -119q-45 0 -109 35t-96 35q-18 0 -43.5 -18t-44.5 -43q-18 -23 -37 -9z" />
<glyph unicode="&#xe4;" horiz-adv-x="905" d="M61 262q0 158 103.5 256t269.5 98q141 0 217 -71l6 2l11 59q29 166 -164 166q-41 0 -119 -16t-117 -35q-22 -8 -28 12l-31 90q-6 19 14 27q135 61 295 61q173 0 252.5 -90.5t48.5 -247.5l-108 -553q-3 -20 -23 -20h-117q-16 0 -16 16l10 52l-6 2q-89 -82 -223 -82 q-131 0 -203 76t-72 198zM215 268q0 -63 38.5 -102t113.5 -39q93 0 158 65t65 158q0 62 -39 99.5t-113 37.5q-99 0 -161 -61.5t-62 -157.5zM342 1116q7 40 41 68t74 28t62.5 -28t15.5 -68t-41 -68t-74 -28t-62.5 28t-15.5 68zM674 1116q8 40 41 68t73 28t62.5 -28t15.5 -68 q-8 -40 -40 -68t-72 -28q-41 0 -64.5 28t-15.5 68z" />
<glyph unicode="&#xe5;" horiz-adv-x="905" d="M61 262q0 158 103.5 256t269.5 98q141 0 217 -71l6 2l11 59q29 166 -164 166q-41 0 -119 -16t-117 -35q-22 -8 -28 12l-31 90q-6 19 14 27q135 61 295 61q173 0 252.5 -90.5t48.5 -247.5l-108 -553q-3 -20 -23 -20h-117q-16 0 -16 16l10 52l-6 2q-89 -82 -223 -82 q-131 0 -203 76t-72 198zM215 268q0 -63 38.5 -102t113.5 -39q93 0 158 65t65 158q0 62 -39 99.5t-113 37.5q-99 0 -161 -61.5t-62 -157.5zM416 1137q0 94 56 149t140 55q66 0 112 -40.5t46 -108.5q0 -88 -59.5 -141.5t-145.5 -53.5q-63 0 -106 40t-43 100zM504 1157 q0 -31 21.5 -53.5t52.5 -22.5q41 0 71.5 29.5t30.5 71.5q0 38 -22.5 58t-55.5 20q-38 0 -68 -31t-30 -72z" />
<glyph unicode="&#xe6;" horiz-adv-x="1411" d="M74 262q0 150 92 240t264 90q135 0 219 -49l4 2l17 65q19 75 -33.5 117.5t-140.5 42.5q-39 0 -99 -14.5t-102 -34.5q-23 -10 -29 12l-24 96q-3 20 14 27q122 55 276 55q170 0 254 -100h5q114 100 313 100q120 0 199 -62t79 -173q0 -60 -20.5 -108t-51.5 -80.5 t-82.5 -56.5t-97 -37t-113 -22t-113.5 -12t-113 -6q-17 -87 -17 -102q0 -59 39.5 -90t134.5 -31q48 0 110 30t113 85q17 16 31 2l64 -66q15 -15 16 -24t-10 -21q-134 -151 -354 -151q-209 0 -277 123h-4q-53 -55 -129 -87t-158 -32q-127 0 -201.5 71t-74.5 201zM227 276 q0 -68 39.5 -111.5t108.5 -43.5q83 0 148 54.5t85 129.5q16 71 19 96q-27 22 -90.5 42t-114.5 20q-82 0 -138.5 -51.5t-56.5 -135.5zM813 489q63 1 114.5 5.5t108 15.5t94.5 28.5t62.5 47t24.5 69.5q0 47 -33.5 81t-98.5 34q-116 0 -176.5 -50.5t-77.5 -131.5z" />
<glyph unicode="&#xe7;" horiz-adv-x="823" d="M74 326l45 235q68 348 405 348q99 0 175 -41.5t120 -119.5q6 -11 1 -24t-17 -22l-72 -51q-14 -8 -26.5 -4t-18.5 17q-27 49 -76.5 76.5t-99.5 27.5q-88 0 -147.5 -54t-77.5 -141l-49 -254q-35 -192 161 -192q65 0 117 29.5t119 91.5q11 11 31 -2l67 -58 q16 -13 16.5 -23.5t-10.5 -21.5q-74 -83 -156 -119t-190 -36h-6l-39 -90h23q74 0 114.5 -34t40.5 -95q0 -78 -57.5 -131.5t-151.5 -53.5q-96 0 -155 47q-4 4 -4 11q0 9 8 20l26 41q7 10 17 10q2 0 10 -4q52 -33 100 -33q44 0 70.5 21t26.5 55q0 22 -16 38.5t-56 16.5h-55 q-54 0 -54 43q0 6 9 33l53 115q-124 24 -185.5 111.5t-35.5 216.5z" />
<glyph unicode="&#xe8;" horiz-adv-x="876" d="M59 238q0 28 7 75l43 230q36 199 150.5 283.5t293.5 84.5q120 0 199 -62t79 -173q0 -60 -20.5 -108t-51.5 -80.5t-82.5 -56.5t-97 -37t-113 -22t-113.5 -12t-113 -6q-17 -87 -17 -102q0 -59 39.5 -90t134.5 -31q48 0 110.5 30t113.5 85q16 16 30 2l64 -66q15 -15 16 -24 t-10 -21q-134 -151 -354 -151q-159 0 -233.5 69.5t-74.5 182.5zM262 489q63 1 114.5 5.5t108 15.5t94.5 28.5t62.5 47t24.5 69.5q0 47 -33 81t-98 34q-116 0 -176.5 -50.5t-77.5 -131.5zM340 1247q-22 27 0 45l84 62q10 7 22 -1t21 -22l178 -280q13 -23 -4 -35l-37 -23 q-11 -5 -23.5 -0.5t-19.5 13.5z" />
<glyph unicode="&#xe9;" horiz-adv-x="876" d="M59 238q0 28 7 75l43 230q36 199 150.5 283.5t293.5 84.5q120 0 199 -62t79 -173q0 -60 -20.5 -108t-51.5 -80.5t-82.5 -56.5t-97 -37t-113 -22t-113.5 -12t-113 -6q-17 -87 -17 -102q0 -59 39.5 -90t134.5 -31q48 0 110.5 30t113.5 85q16 16 30 2l64 -66q15 -15 16 -24 t-10 -21q-134 -151 -354 -151q-159 0 -233.5 69.5t-74.5 182.5zM262 489q63 1 114.5 5.5t108 15.5t94.5 28.5t62.5 47t24.5 69.5q0 47 -33 81t-98 34q-116 0 -176.5 -50.5t-77.5 -131.5zM479 1022q-17 14 0 37l197 262q25 33 49 14l80 -59q24 -19 -2 -45l-248 -227 q-9 -9 -21 -12t-22 3z" />
<glyph unicode="&#xea;" horiz-adv-x="876" d="M59 238q0 28 7 75l43 230q36 199 150.5 283.5t293.5 84.5q120 0 199 -62t79 -173q0 -60 -20.5 -108t-51.5 -80.5t-82.5 -56.5t-97 -37t-113 -22t-113.5 -12t-113 -6q-17 -87 -17 -102q0 -59 39.5 -90t134.5 -31q48 0 110.5 30t113.5 85q16 16 30 2l64 -66q15 -15 16 -24 t-10 -21q-134 -151 -354 -151q-159 0 -233.5 69.5t-74.5 182.5zM262 489q63 1 114.5 5.5t108 15.5t94.5 28.5t62.5 47t24.5 69.5q0 47 -33 81t-98 34q-116 0 -176.5 -50.5t-77.5 -131.5zM270 1034q-18 18 6 43l244 240q22 22 49 22h68q23 0 39 -22l149 -240q17 -24 -10 -43 l-33 -24q-27 -19 -43 4l-147 180l-252 -180q-17 -11 -23.5 -12.5t-21.5 8.5z" />
<glyph unicode="&#xeb;" horiz-adv-x="876" d="M59 238q0 28 7 75l43 230q36 199 150.5 283.5t293.5 84.5q120 0 199 -62t79 -173q0 -60 -20.5 -108t-51.5 -80.5t-82.5 -56.5t-97 -37t-113 -22t-113.5 -12t-113 -6q-17 -87 -17 -102q0 -59 39.5 -90t134.5 -31q48 0 110.5 30t113.5 85q16 16 30 2l64 -66q15 -15 16 -24 t-10 -21q-134 -151 -354 -151q-159 0 -233.5 69.5t-74.5 182.5zM262 489q63 1 114.5 5.5t108 15.5t94.5 28.5t62.5 47t24.5 69.5q0 47 -33 81t-98 34q-116 0 -176.5 -50.5t-77.5 -131.5zM324 1116q8 40 41 68t73 28t62.5 -28t15.5 -68t-41 -68t-74 -28t-62.5 28t-14.5 68z M655 1116q7 40 41 68t74 28t62.5 -28t15.5 -68q-8 -40 -40.5 -68t-72.5 -28q-41 0 -64.5 28t-15.5 68z" />
<glyph unicode="&#xec;" horiz-adv-x="415" d="M47 18l166 859q6 20 23 20h126q23 0 17 -20l-166 -859q-3 -18 -23 -18h-127q-19 0 -16 18zM76 1247q-22 27 0 45l84 62q10 7 22 -1t21 -22l178 -280q13 -23 -4 -35l-37 -23q-11 -5 -23.5 -0.5t-19.5 13.5z" />
<glyph unicode="&#xed;" horiz-adv-x="415" d="M47 18l166 859q6 20 23 20h126q23 0 17 -20l-166 -859q-3 -18 -23 -18h-127q-19 0 -16 18zM276 1022q-17 14 0 37l197 262q25 33 49 14l80 -59q24 -19 -2 -45l-248 -227q-9 -9 -21 -12t-22 3z" />
<glyph unicode="&#xee;" horiz-adv-x="415" d="M47 18l166 859q6 20 23 20h126q23 0 17 -20l-166 -859q-3 -18 -23 -18h-127q-19 0 -16 18zM55 1034q-19 18 6 43l244 240q22 22 49 22h68q23 0 39 -22l149 -240q17 -24 -10 -43l-33 -24q-27 -19 -43 4l-147 180l-252 -180q-17 -11 -23.5 -12.5t-21.5 8.5z" />
<glyph unicode="&#xef;" horiz-adv-x="415" d="M47 18l166 859q6 20 23 20h126q23 0 17 -20l-166 -859q-3 -18 -23 -18h-127q-19 0 -16 18zM82 1116q7 40 41 68t74 28t62.5 -28t14.5 -68t-41 -68t-73 -28t-62.5 28t-15.5 68zM414 1116q8 40 41 68t73 28t62.5 -28t15.5 -68q-8 -40 -40 -68t-72 -28q-41 0 -64.5 28 t-15.5 68z" />
<glyph unicode="&#xf0;" horiz-adv-x="917" d="M84 367l33 155q32 162 129 253t264 91q48 0 115.5 -20.5t97.5 -57.5l4 3q11 54 15.5 91t0 78t-21.5 74l-109 -90q-12 -9 -22 -2l-37 43q-9 12 2 23l115 94q-75 67 -211 74q-10 0 -17 1t-13.5 7.5t-2.5 17.5l16 90q5 25 41 25q90 2 175 -27.5t145 -83.5l104 86q16 13 25 4 l37 -43q6 -15 -4 -22l-111 -94q34 -66 40.5 -157t-2 -158.5t-28.5 -168.5l-63 -319q-67 -346 -414 -346q-169 0 -252.5 108t-50.5 271zM244 332q-18 -90 25.5 -146.5t138.5 -56.5q87 0 147.5 56t79.5 147l39 190q19 87 -31.5 146t-140.5 59q-89 0 -146 -56t-75 -149z" />
<glyph unicode="&#xf1;" horiz-adv-x="946" d="M35 18l166 859q6 20 22 20h121q10 0 13 -3.5t1 -14.5l-12 -72l10 -2q51 51 118 77.5t124 26.5q153 0 224 -93t42 -249l-106 -547q-3 -20 -23 -20h-127q-17 0 -14 18l106 547q18 92 -21 147.5t-136 55.5q-87 0 -154.5 -62.5t-85.5 -152.5l-102 -533q-3 -20 -25 -20h-125 q-19 0 -16 18zM311 1085q-10 10 4 33q38 53 88 86t101 33q42 0 107.5 -36t93.5 -36q42 0 90 64q13 17 32 4l54 -37q13 -8 -2 -35q-79 -119 -187 -119q-45 0 -109 35t-96 35q-18 0 -43.5 -18t-44.5 -43q-18 -23 -37 -9z" />
<glyph unicode="&#xf2;" horiz-adv-x="917" d="M86 367l41 200q32 160 133.5 252t269.5 92q166 0 257.5 -93t60.5 -251l-45 -233q-67 -346 -414 -346q-169 0 -252.5 108t-50.5 271zM246 332q-18 -90 25.5 -146.5t138.5 -56.5q87 0 147.5 56t79.5 147l47 235q19 87 -28.5 144t-137.5 57q-88 0 -148.5 -55t-78.5 -146z M362 1247q-22 27 0 45l84 62q10 7 22 -1t21 -22l179 -280q13 -23 -4 -35l-37 -23q-11 -5 -23.5 -0.5t-19.5 13.5z" />
<glyph unicode="&#xf3;" horiz-adv-x="917" d="M86 367l41 200q32 160 133.5 252t269.5 92q166 0 257.5 -93t60.5 -251l-45 -233q-67 -346 -414 -346q-169 0 -252.5 108t-50.5 271zM246 332q-18 -90 25.5 -146.5t138.5 -56.5q87 0 147.5 56t79.5 147l47 235q19 87 -28.5 144t-137.5 57q-88 0 -148.5 -55t-78.5 -146z M528 1022q-17 14 0 37l197 262q25 33 49 14l80 -59q24 -19 -2 -45l-248 -227q-9 -9 -21 -12t-22 3z" />
<glyph unicode="&#xf4;" horiz-adv-x="917" d="M86 367l41 200q32 160 133.5 252t269.5 92q166 0 257.5 -93t60.5 -251l-45 -233q-67 -346 -414 -346q-169 0 -252.5 108t-50.5 271zM246 332q-18 -90 25.5 -146.5t138.5 -56.5q87 0 147.5 56t79.5 147l47 235q19 87 -28.5 144t-137.5 57q-88 0 -148.5 -55t-78.5 -146z M324 1034q-18 18 6 43l243 240q22 22 50 22h67q23 0 39 -22l150 -240q17 -24 -11 -43l-32 -24q-27 -19 -43 4l-148 180l-252 -180q-17 -11 -23.5 -12.5t-21.5 8.5z" />
<glyph unicode="&#xf5;" horiz-adv-x="917" d="M86 367l41 200q32 160 133.5 252t269.5 92q166 0 257.5 -93t60.5 -251l-45 -233q-67 -346 -414 -346q-169 0 -252.5 108t-50.5 271zM246 332q-18 -90 25.5 -146.5t138.5 -56.5q87 0 147.5 56t79.5 147l47 235q19 87 -28.5 144t-137.5 57q-88 0 -148.5 -55t-78.5 -146z M324 1085q-10 10 4 33q39 54 88.5 86.5t99.5 32.5q42 0 107.5 -36t93.5 -36q42 0 90 64q13 17 33 4l53 -37q13 -8 -2 -35q-79 -119 -186 -119q-45 0 -109 35t-96 35q-18 0 -43.5 -18t-44.5 -43q-18 -23 -37 -9z" />
<glyph unicode="&#xf6;" horiz-adv-x="917" d="M86 367l41 200q32 160 133.5 252t269.5 92q166 0 257.5 -93t60.5 -251l-45 -233q-67 -346 -414 -346q-169 0 -252.5 108t-50.5 271zM246 332q-18 -90 25.5 -146.5t138.5 -56.5q87 0 147.5 56t79.5 147l47 235q19 87 -28.5 144t-137.5 57q-88 0 -148.5 -55t-78.5 -146z M309 1116q7 40 41 68t74 28t62.5 -28t15.5 -68t-41 -68t-74 -28t-62.5 28t-15.5 68zM641 1116q7 40 41 68t74 28t62.5 -28t15.5 -68q-8 -40 -40.5 -68t-72.5 -28q-41 0 -64.5 28t-15.5 68z" />
<glyph unicode="&#xf7;" horiz-adv-x="972" d="M33 555l16 88q3 19 23 19h852q19 0 16 -19l-16 -86q-3 -20 -23 -20h-852q-21 0 -16 18zM299 240q9 49 50 82.5t91 33.5t77 -33.5t18 -82.5h2q-9 -47 -50.5 -82t-91.5 -35t-77.5 34t-18.5 83zM438 956q9 48 51 83.5t91 35.5t77 -34.5t19 -84.5q-9 -48 -49 -82t-92 -34 q-51 0 -78.5 33t-18.5 83z" />
<glyph unicode="&#xf8;" horiz-adv-x="917" d="M29 45q-7 7 2 18l75 78q-47 96 -20 226l41 200q32 160 133.5 252t269.5 92q151 0 244 -80l64 66q7 6 10 6.5t12 -4.5l39 -39q8 -12 0 -20l-74 -76q44 -80 23 -197l-45 -233q-67 -346 -414 -346q-150 0 -235 88l-64 -64q-10 -14 -20 -4zM240 279l415 430q-46 59 -137 59 q-88 0 -148.5 -55t-78.5 -146l-45 -235q-6 -27 -6 -53zM266 193q42 -64 144 -64q87 0 147.5 56t79.5 147l47 235q7 34 4 58z" />
<glyph unicode="&#xf9;" horiz-adv-x="940" d="M80 330l106 547q3 20 23 20h127q17 0 14 -18l-106 -547q-18 -92 21 -147.5t136 -55.5q87 0 154.5 62.5t85.5 152.5l102 533q3 20 25 20h125q19 0 16 -18l-166 -859q-6 -20 -22 -20h-121q-10 0 -13 3.5t-1 14.5l12 62h-4q-49 -50 -120.5 -71t-137.5 -21q-152 0 -219 92.5 t-37 249.5zM362 1247q-22 27 0 45l84 62q10 7 22 -1t21 -22l179 -280q13 -23 -4 -35l-37 -23q-11 -5 -23.5 -0.5t-19.5 13.5z" />
<glyph unicode="&#xfa;" horiz-adv-x="940" d="M80 330l106 547q3 20 23 20h127q17 0 14 -18l-106 -547q-18 -92 21 -147.5t136 -55.5q87 0 154.5 62.5t85.5 152.5l102 533q3 20 25 20h125q19 0 16 -18l-166 -859q-6 -20 -22 -20h-121q-10 0 -13 3.5t-1 14.5l12 62h-4q-49 -50 -120.5 -71t-137.5 -21q-152 0 -219 92.5 t-37 249.5zM496 1022q-17 14 0 37l196 262q25 33 49 14l80 -59q24 -19 -2 -45l-248 -227q-9 -9 -21 -12t-22 3z" />
<glyph unicode="&#xfb;" horiz-adv-x="940" d="M80 330l106 547q3 20 23 20h127q17 0 14 -18l-106 -547q-18 -92 21 -147.5t136 -55.5q87 0 154.5 62.5t85.5 152.5l102 533q3 20 25 20h125q19 0 16 -18l-166 -859q-6 -20 -22 -20h-121q-10 0 -13 3.5t-1 14.5l12 62h-4q-49 -50 -120.5 -71t-137.5 -21q-152 0 -219 92.5 t-37 249.5zM274 1034q-18 18 7 43l243 240q22 22 49 22h68q23 0 39 -22l149 -240q17 -24 -10 -43l-33 -24q-27 -19 -43 4l-147 180l-252 -180q-17 -11 -23.5 -12.5t-21.5 8.5z" />
<glyph unicode="&#xfc;" horiz-adv-x="940" d="M80 330l106 547q3 20 23 20h127q17 0 14 -18l-106 -547q-18 -92 21 -147.5t136 -55.5q87 0 154.5 62.5t85.5 152.5l102 533q3 20 25 20h125q19 0 16 -18l-166 -859q-6 -20 -22 -20h-121q-10 0 -13 3.5t-1 14.5l12 62h-4q-49 -50 -120.5 -71t-137.5 -21q-152 0 -219 92.5 t-37 249.5zM332 1116q8 40 41 68t73 28t62.5 -28t15.5 -68q-8 -40 -41 -68t-73 -28t-62.5 28t-15.5 68zM664 1116q8 40 41 68t73 28t62.5 -28t15.5 -68q-8 -40 -40.5 -68t-72.5 -28q-41 0 -64 28t-15 68z" />
<glyph unicode="&#xfd;" horiz-adv-x="790" d="M70 -322l168 318h-33q-19 0 -25 4.5t-8 17.5l-82 840q-4 37 31 37h96q39 0 43 -31l53 -719h4l263 492q24 48 35.5 87.5t13.5 61t2 60.5q0 49 41 49h78q29 0 37 -10.5t8 -36.5q0 -75 -13 -128.5t-49 -121.5l-491 -930q-24 -43 -70 -43h-80q-49 0 -22 53zM416 1022 q-17 14 0 37l196 262q25 34 50 14l79 -59q24 -19 -2 -45l-247 -227q-9 -9 -21 -12t-22 3z" />
<glyph unicode="&#xfe;" horiz-adv-x="929" d="M-37 -348l318 1636q3 19 22 19h117q19 0 16 -21l-90 -467h8q98 88 230 88q68 0 126 -23.5t97.5 -66t55.5 -107t1 -141.5l-47 -237q-14 -72 -43.5 -132.5t-76 -108t-115 -74.5t-152.5 -27q-73 0 -134 25t-81 48h-8l-82 -409q-3 -21 -25 -21h-120q-20 0 -17 19zM258 332 q-17 -84 33.5 -142.5t144.5 -58.5q85 0 142 56.5t75 144.5l49 237q18 89 -22 144t-139 55q-84 0 -150.5 -57.5t-83.5 -141.5z" />
<glyph unicode="&#xff;" horiz-adv-x="790" d="M70 -322l168 318h-33q-19 0 -25 4.5t-8 17.5l-82 840q-4 37 31 37h96q39 0 43 -31l53 -719h4l263 492q24 48 35.5 87.5t13.5 61t2 60.5q0 49 41 49h78q29 0 37 -10.5t8 -36.5q0 -75 -13 -128.5t-49 -121.5l-491 -930q-24 -43 -70 -43h-80q-49 0 -22 53zM250 1116 q7 40 41 68t74 28t62.5 -28t14.5 -68t-41 -68t-73 -28t-62.5 28t-15.5 68zM582 1116q8 40 41 68t73 28t62.5 -28t15.5 -68q-8 -40 -40 -68t-72 -28q-41 0 -64.5 28t-15.5 68z" />
<glyph unicode="&#x100;" horiz-adv-x="909" d="M-35 39l543 1206q8 19 31 19h168q21 0 26 -19l84 -1206q0 -39 -35 -39h-106q-24 0 -29 20l-12 269h-385l-115 -269q-9 -20 -31 -20h-118q-35 0 -21 39zM311 430h316l-19 401l-6 265h-6l-107 -258zM395 1399l17 84q6 20 22 20h436q23 0 17 -18l-17 -86q-4 -21 -22 -21 h-436q-20 0 -17 21z" />
<glyph unicode="&#x101;" horiz-adv-x="905" d="M61 262q0 158 103.5 256t269.5 98q141 0 217 -71l6 2l11 59q29 166 -164 166q-41 0 -119 -16t-117 -35q-22 -8 -28 12l-31 90q-6 19 14 27q135 61 295 61q173 0 252.5 -90.5t48.5 -247.5l-108 -553q-3 -20 -23 -20h-117q-16 0 -16 16l10 52l-6 2q-89 -82 -223 -82 q-131 0 -203 76t-72 198zM215 268q0 -63 38.5 -102t113.5 -39q93 0 158 65t65 158q0 62 -39 99.5t-113 37.5q-99 0 -161 -61.5t-62 -157.5zM340 1098l16 84q6 20 23 20h436q22 0 16 -18l-16 -86q-3 -21 -22 -21h-437q-19 0 -16 21z" />
<glyph unicode="&#x102;" horiz-adv-x="909" d="M-35 39l543 1206q8 19 31 19h168q21 0 26 -19l84 -1206q0 -39 -35 -39h-106q-24 0 -29 20l-12 269h-385l-115 -269q-9 -20 -31 -20h-118q-35 0 -21 39zM311 430h316l-19 401l-6 265h-6l-107 -258zM440 1573q4 25 29 22h43q16 1 19.5 -4.5t3.5 -21.5q-2 -61 27 -95t87 -34 q112 0 168 129q5 11 7.5 15.5t9.5 8t18 2.5h43q14 1 18 -4.5t2 -17.5q-18 -108 -92.5 -178t-189.5 -70q-112 0 -160.5 69.5t-32.5 178.5z" />
<glyph unicode="&#x103;" horiz-adv-x="905" d="M61 262q0 158 103.5 256t269.5 98q141 0 217 -71l6 2l11 59q29 166 -164 166q-41 0 -119 -16t-117 -35q-22 -8 -28 12l-31 90q-6 19 14 27q135 61 295 61q173 0 252.5 -90.5t48.5 -247.5l-108 -553q-3 -20 -23 -20h-117q-16 0 -16 16l10 52l-6 2q-89 -82 -223 -82 q-131 0 -203 76t-72 198zM215 268q0 -63 38.5 -102t113.5 -39q93 0 158 65t65 158q0 62 -39 99.5t-113 37.5q-99 0 -161 -61.5t-62 -157.5zM358 1268q4 25 29 22h43q4 2 7.5 0.5t5.5 -1t4 -2t2.5 -3t1.5 -4t1 -4.5t0.5 -5.5t0.5 -6.5q8 -62 35 -92.5t83 -30.5q110 0 164 123 q5 11 7.5 15.5t9.5 8t18 2.5h43q14 1 18.5 -4.5t2.5 -17.5q-18 -109 -89 -178.5t-186 -69.5q-98 0 -157 72.5t-44 175.5z" />
<glyph unicode="&#x104;" horiz-adv-x="909" d="M-35 39l543 1206q8 19 31 19h168q21 0 26 -19l84 -1206q0 -39 -35 -39h-41q-64 -54 -109.5 -118t-45.5 -118q0 -22 11.5 -32.5t41.5 -10.5q44 0 115 41q14 7 18 -2l31 -49q5 -9 -6 -20q-89 -74 -195 -74q-73 0 -109 31.5t-36 83.5q0 70 57 155.5t129 135.5q2 2 4 2 l-12 264h-385l-115 -269q-9 -20 -31 -20h-118q-35 0 -21 39zM311 430h316l-19 401l-6 265h-6l-107 -258z" />
<glyph unicode="&#x105;" horiz-adv-x="905" d="M61 262q0 158 103.5 256t269.5 98q141 0 217 -71l6 2l11 59q29 166 -164 166q-41 0 -119 -16t-117 -35q-22 -8 -28 12l-31 90q-6 19 14 27q135 61 295 61q173 0 252.5 -90.5t48.5 -247.5l-108 -553q-3 -20 -23 -20h-41q-64 -54 -109.5 -118t-45.5 -118q0 -22 11.5 -32.5 t41.5 -10.5q43 0 114 41q14 7 19 -2l31 -49q4 -9 -7 -20q-89 -74 -194 -74q-73 0 -109.5 31.5t-36.5 83.5q0 70 57.5 155.5t129.5 135.5l8 6l8 39l-6 2q-89 -82 -223 -82q-131 0 -203 76t-72 198zM215 268q0 -63 38.5 -102t113.5 -39q93 0 158 65t65 158q0 62 -39 99.5 t-113 37.5q-99 0 -161 -61.5t-62 -157.5z" />
<glyph unicode="&#x106;" horiz-adv-x="901" d="M102 356l113 576q32 170 123.5 259t261.5 89q232 0 348 -166q12 -18 -12 -39l-66 -57q-10 -10 -19.5 -9t-23.5 17q-103 107 -217 107q-186 0 -225 -199l-115 -598q-15 -86 31.5 -142.5t140.5 -56.5q54 0 98.5 16t68 33.5t59.5 51.5q27 27 49 12l86 -78q12 -12 -4 -35 q-80 -87 -163.5 -118t-180.5 -31q-187 0 -286.5 99.5t-66.5 268.5zM569 1372q-11 16 13 33l282 176q11 8 25.5 9t21.5 -9l56 -90q8 -16 1 -25.5t-20 -13.5l-311 -125q-30 -13 -45 8z" />
<glyph unicode="&#x107;" horiz-adv-x="823" d="M74 326l45 235q68 348 405 348q99 0 175 -41.5t120 -119.5q6 -11 1 -24t-17 -22l-72 -51q-14 -8 -26.5 -4t-18.5 17q-27 49 -76.5 76.5t-99.5 27.5q-88 0 -147.5 -54t-77.5 -141l-49 -254q-35 -192 161 -192q65 0 117 29.5t119 91.5q11 11 31 -2l67 -58 q16 -13 16.5 -23.5t-10.5 -21.5q-74 -83 -156 -119t-190 -36q-168 0 -257.5 92t-59.5 246zM471 1022q-17 14 0 37l197 262q25 33 49 14l80 -59q24 -19 -2 -45l-248 -227q-9 -9 -21 -12t-22 3z" />
<glyph unicode="&#x108;" horiz-adv-x="901" d="M102 356l113 576q32 170 123.5 259t261.5 89q232 0 348 -166q12 -18 -12 -39l-66 -57q-10 -10 -19.5 -9t-23.5 17q-103 107 -217 107q-186 0 -225 -199l-115 -598q-15 -86 31.5 -142.5t140.5 -56.5q54 0 98.5 16t68 33.5t59.5 51.5q27 27 49 12l86 -78q12 -12 -4 -35 q-80 -87 -163.5 -118t-180.5 -31q-187 0 -286.5 99.5t-66.5 268.5zM362 1352q-19 14 7 32l239 189q21 18 49 18h66q24 0 39 -18l147 -189q18 -18 -10 -32l-33 -21q-17 -7 -22.5 -6t-18.5 10l-151 123l-240 -123q-29 -18 -43 -4z" />
<glyph unicode="&#x109;" horiz-adv-x="823" d="M74 326l45 235q68 348 405 348q99 0 175 -41.5t120 -119.5q6 -11 1 -24t-17 -22l-72 -51q-14 -8 -26.5 -4t-18.5 17q-27 49 -76.5 76.5t-99.5 27.5q-88 0 -147.5 -54t-77.5 -141l-49 -254q-35 -192 161 -192q65 0 117 29.5t119 91.5q11 11 31 -2l67 -58 q16 -13 16.5 -23.5t-10.5 -21.5q-74 -83 -156 -119t-190 -36q-168 0 -257.5 92t-59.5 246zM266 1034q-18 18 6 43l244 240q22 22 49 22h68q23 0 39 -22l149 -240q17 -24 -10 -43l-33 -24q-27 -19 -43 4l-147 180l-252 -180q-17 -11 -23.5 -12.5t-21.5 8.5z" />
<glyph unicode="&#x10a;" horiz-adv-x="901" d="M102 356l113 576q32 170 123.5 259t261.5 89q232 0 348 -166q12 -18 -12 -39l-66 -57q-10 -10 -19.5 -9t-23.5 17q-103 107 -217 107q-186 0 -225 -199l-115 -598q-15 -86 31.5 -142.5t140.5 -56.5q54 0 98.5 16t68 33.5t59.5 51.5q27 27 49 12l86 -78q12 -12 -4 -35 q-80 -87 -163.5 -118t-180.5 -31q-187 0 -286.5 99.5t-66.5 268.5zM575 1464q8 40 41.5 68.5t73.5 28.5t63 -28.5t15 -68.5q-7 -40 -41 -68t-74 -28t-62.5 28t-15.5 68z" />
<glyph unicode="&#x10b;" horiz-adv-x="823" d="M74 326l45 235q68 348 405 348q99 0 175 -41.5t120 -119.5q6 -11 1 -24t-17 -22l-72 -51q-14 -8 -26.5 -4t-18.5 17q-27 49 -76.5 76.5t-99.5 27.5q-88 0 -147.5 -54t-77.5 -141l-49 -254q-35 -192 161 -192q65 0 117 29.5t119 91.5q11 11 31 -2l67 -58 q16 -13 16.5 -23.5t-10.5 -21.5q-74 -83 -156 -119t-190 -36q-168 0 -257.5 92t-59.5 246zM471 1116q7 40 41 68t74 28t62.5 -28t15.5 -68t-41 -68t-74 -28t-62.5 28t-15.5 68z" />
<glyph unicode="&#x10c;" horiz-adv-x="901" d="M102 356l113 576q32 170 123.5 259t261.5 89q232 0 348 -166q12 -18 -12 -39l-66 -57q-10 -10 -19.5 -9t-23.5 17q-103 107 -217 107q-186 0 -225 -199l-115 -598q-15 -86 31.5 -142.5t140.5 -56.5q54 0 98.5 16t68 33.5t59.5 51.5q27 27 49 12l86 -78q12 -12 -4 -35 q-80 -87 -163.5 -118t-180.5 -31q-187 0 -286.5 99.5t-66.5 268.5zM430 1532q-19 19 10 33l33 20q17 7 22.5 6t18.5 -10l152 -123l239 123q29 18 43 4l29 -20q20 -14 -6 -33l-240 -189q-21 -18 -49 -18h-66q-23 0 -38 18z" />
<glyph unicode="&#x10d;" horiz-adv-x="823" d="M74 326l45 235q68 348 405 348q99 0 175 -41.5t120 -119.5q6 -11 1 -24t-17 -22l-72 -51q-14 -8 -26.5 -4t-18.5 17q-27 49 -76.5 76.5t-99.5 27.5q-88 0 -147.5 -54t-77.5 -141l-49 -254q-35 -192 161 -192q65 0 117 29.5t119 91.5q11 11 31 -2l67 -58 q16 -13 16.5 -23.5t-10.5 -21.5q-74 -83 -156 -119t-190 -36q-168 0 -257.5 92t-59.5 246zM322 1257q-17 24 10 43l33 25q27 19 43 -4l155 -178l244 178q17 11 23.5 12.5t21.5 -8.5l25 -25q18 -18 -7 -43l-243 -239q-23 -23 -49 -23h-68q-23 0 -39 23z" />
<glyph unicode="&#x10e;" horiz-adv-x="993" d="M53 23l238 1218q4 23 28 23h332q194 4 273.5 -98t48.5 -271l-94 -514q-37 -201 -134.5 -291t-277.5 -90h-393q-24 0 -21 23zM248 150h209q206 0 243 204l111 559q17 101 -29.5 152t-146.5 51h-197zM385 1532q-19 19 10 33l33 20q17 7 22.5 6t18.5 -10l152 -123l239 123 q29 18 43 4l29 -20q20 -14 -6 -33l-240 -189q-21 -18 -49 -18h-66q-24 0 -39 18z" />
<glyph unicode="&#x10f;" horiz-adv-x="1105" d="M76 328l47 237q14 72 43.5 132.5t76 108t115 74.5t152.5 27q72 0 134 -24t83 -45l6 -2l90 448q3 21 25 21h121q19 0 16 -19l-246 -1268q-3 -18 -22 -18h-117q-22 0 -16 20l12 50h-6q-95 -80 -234 -80q-68 0 -126 23.5t-97.5 66t-55.5 107t-1 141.5zM238 328 q-18 -89 22 -144t139 -55q84 0 150.5 57.5t83.5 141.5l49 237q17 84 -33.5 142.5t-144.5 58.5q-85 0 -142 -56.5t-75 -144.5zM1020 929q-3 11 2 23l82 322q11 33 37 33h127q39 0 18 -41l-158 -324q-15 -24 -36 -24h-56q-13 0 -16 11z" />
<glyph unicode="&#x110;" horiz-adv-x="993" d="M53 23l109 561h-80q-24 0 -21 24l15 78q6 21 26 21h84l105 534q4 23 28 23h332q194 4 273.5 -98t48.5 -271l-94 -514q-37 -201 -134.5 -291t-277.5 -90h-393q-24 0 -21 23zM248 150h209q206 0 243 204l111 559q17 101 -29.5 152t-146.5 51h-197l-80 -409h160q12 0 18 -7 t3 -18l-15 -74q-3 -24 -26 -24h-164z" />
<glyph unicode="&#x111;" horiz-adv-x="1001" d="M76 328l47 237q14 72 43.5 132.5t76 108t115 74.5t152.5 27q72 0 134 -24t83 -45l6 -2l31 151h-168q-18 0 -14 21l14 75q3 19 25 19h165l37 182q3 21 25 21h121q19 0 16 -19l-37 -184h88q18 0 15 -21l-15 -73q-3 -21 -24 -21h-86l-187 -969q-3 -18 -22 -18h-117 q-22 0 -16 20l12 50h-6q-95 -80 -234 -80q-68 0 -126 23.5t-97.5 66t-55.5 107t-1 141.5zM238 328q-18 -89 22 -144t139 -55q84 0 150.5 57.5t83.5 141.5l49 237q17 84 -33.5 142.5t-144.5 58.5q-85 0 -142 -56.5t-75 -144.5z" />
<glyph unicode="&#x112;" horiz-adv-x="909" d="M53 23l238 1218q4 23 28 23h648q11 0 17 -6.5t5 -16.5l-20 -100q-4 -25 -27 -25h-504l-78 -385h428q24 0 21 -24l-18 -107q-3 -18 -27 -18h-428l-88 -432h540q11 0 17.5 -6.5t5.5 -16.5l-20 -102q-3 -25 -29 -25h-688q-24 0 -21 23zM418 1399l16 84q6 20 23 20h436 q22 0 16 -18l-16 -86q-3 -21 -23 -21h-436q-19 0 -16 21z" />
<glyph unicode="&#x113;" horiz-adv-x="876" d="M59 238q0 28 7 75l43 230q36 199 150.5 283.5t293.5 84.5q120 0 199 -62t79 -173q0 -60 -20.5 -108t-51.5 -80.5t-82.5 -56.5t-97 -37t-113 -22t-113.5 -12t-113 -6q-17 -87 -17 -102q0 -59 39.5 -90t134.5 -31q48 0 110.5 30t113.5 85q16 16 30 2l64 -66q15 -15 16 -24 t-10 -21q-134 -151 -354 -151q-159 0 -233.5 69.5t-74.5 182.5zM262 489q63 1 114.5 5.5t108 15.5t94.5 28.5t62.5 47t24.5 69.5q0 47 -33 81t-98 34q-116 0 -176.5 -50.5t-77.5 -131.5zM330 1098l16 84q6 20 23 20h436q22 0 16 -18l-16 -86q-3 -21 -23 -21h-436 q-19 0 -16 21z" />
<glyph unicode="&#x114;" horiz-adv-x="909" d="M53 23l238 1218q4 23 28 23h648q11 0 17 -6.5t5 -16.5l-20 -100q-4 -25 -27 -25h-504l-78 -385h428q24 0 21 -24l-18 -107q-3 -18 -27 -18h-428l-88 -432h540q11 0 17.5 -6.5t5.5 -16.5l-20 -102q-3 -25 -29 -25h-688q-24 0 -21 23zM426 1573q4 25 29 22h43q16 1 19 -4.5 t3 -21.5q-2 -61 27.5 -95t87.5 -34q112 0 168 129q5 11 7.5 15.5t9.5 8t18 2.5h43q14 1 18 -4.5t2 -17.5q-18 -108 -93 -178t-190 -70q-112 0 -160 69.5t-32 178.5z" />
<glyph unicode="&#x115;" horiz-adv-x="876" d="M59 238q0 28 7 75l43 230q36 199 150.5 283.5t293.5 84.5q120 0 199 -62t79 -173q0 -60 -20.5 -108t-51.5 -80.5t-82.5 -56.5t-97 -37t-113 -22t-113.5 -12t-113 -6q-17 -87 -17 -102q0 -59 39.5 -90t134.5 -31q48 0 110.5 30t113.5 85q16 16 30 2l64 -66q15 -15 16 -24 t-10 -21q-134 -151 -354 -151q-159 0 -233.5 69.5t-74.5 182.5zM262 489q63 1 114.5 5.5t108 15.5t94.5 28.5t62.5 47t24.5 69.5q0 47 -33 81t-98 34q-116 0 -176.5 -50.5t-77.5 -131.5zM319 1268q4 25 29 22h43q4 2 7.5 0.5t5.5 -1t4 -2t2.5 -3t1.5 -4t1 -4.5t0.5 -5.5 t0.5 -6.5q8 -62 35 -92.5t83 -30.5q110 0 164 123q5 11 7.5 15.5t9.5 8t18 2.5h43q14 1 18.5 -4.5t2.5 -17.5q-18 -109 -89 -178.5t-186 -69.5q-98 0 -157 72.5t-44 175.5z" />
<glyph unicode="&#x116;" horiz-adv-x="909" d="M53 23l238 1218q4 23 28 23h648q11 0 17 -6.5t5 -16.5l-20 -100q-4 -25 -27 -25h-504l-78 -385h428q24 0 21 -24l-18 -107q-3 -18 -27 -18h-428l-88 -432h540q11 0 17.5 -6.5t5.5 -16.5l-20 -102q-3 -25 -29 -25h-688q-24 0 -21 23zM569 1423q8 40 41.5 68.5t73.5 28.5 t63 -28.5t15 -68.5q-7 -40 -41 -68t-74 -28t-62.5 28t-15.5 68z" />
<glyph unicode="&#x117;" horiz-adv-x="876" d="M59 238q0 28 7 75l43 230q36 199 150.5 283.5t293.5 84.5q120 0 199 -62t79 -173q0 -60 -20.5 -108t-51.5 -80.5t-82.5 -56.5t-97 -37t-113 -22t-113.5 -12t-113 -6q-17 -87 -17 -102q0 -59 39.5 -90t134.5 -31q48 0 110.5 30t113.5 85q16 16 30 2l64 -66q15 -15 16 -24 t-10 -21q-134 -151 -354 -151q-159 0 -233.5 69.5t-74.5 182.5zM262 489q63 1 114.5 5.5t108 15.5t94.5 28.5t62.5 47t24.5 69.5q0 47 -33 81t-98 34q-116 0 -176.5 -50.5t-77.5 -131.5zM453 1116q8 40 41 68t73 28t62.5 -28t15.5 -68t-41 -68t-74 -28t-62.5 28t-14.5 68z " />
<glyph unicode="&#x118;" horiz-adv-x="909" d="M53 23l238 1218q4 23 28 23h648q11 0 17 -6.5t5 -16.5l-20 -100q-4 -25 -27 -25h-504l-78 -385h428q24 0 21 -24l-18 -107q-3 -18 -27 -18h-428l-88 -432h540q11 0 17.5 -6.5t5.5 -16.5l-20 -102q-3 -25 -29 -25h-66q-64 -54 -109.5 -118t-45.5 -118q0 -22 11.5 -32.5 t41.5 -10.5q44 0 115 41q14 7 18 -2l31 -49q5 -9 -6 -20q-89 -74 -195 -74q-73 0 -109 31.5t-36 83.5q0 63 46 138.5t111 129.5h-495q-24 0 -21 23z" />
<glyph unicode="&#x119;" horiz-adv-x="876" d="M59 238q0 28 7 75l43 230q36 199 150.5 283.5t293.5 84.5q120 0 199 -62t79 -173q0 -60 -20.5 -108t-51.5 -80.5t-82.5 -56.5t-97 -37t-113 -22t-113.5 -12t-113 -6q-17 -87 -17 -102q0 -59 39.5 -90t134.5 -31q48 0 110.5 30t113.5 85q16 16 30 2l64 -66q15 -15 16 -24 t-10 -21q-75 -84 -168 -119q-69 -55 -123.5 -126t-54.5 -128q0 -22 11.5 -32.5t41.5 -10.5q44 0 115 41q14 7 18 -2l31 -49q5 -9 -6 -20q-89 -74 -195 -74q-73 0 -109 31.5t-36 83.5q0 59 40.5 130t100.5 124h-20q-159 0 -233.5 69.5t-74.5 182.5zM262 489q63 1 114.5 5.5 t108 15.5t94.5 28.5t62.5 47t24.5 69.5q0 47 -33 81t-98 34q-116 0 -176.5 -50.5t-77.5 -131.5z" />
<glyph unicode="&#x11a;" horiz-adv-x="909" d="M53 23l238 1218q4 23 28 23h648q11 0 17 -6.5t5 -16.5l-20 -100q-4 -25 -27 -25h-504l-78 -385h428q24 0 21 -24l-18 -107q-3 -18 -27 -18h-428l-88 -432h540q11 0 17.5 -6.5t5.5 -16.5l-20 -102q-3 -25 -29 -25h-688q-24 0 -21 23zM410 1532q-19 19 10 33l33 20 q17 7 22.5 6t18.5 -10l151 -123l240 123q29 18 43 4l28 -20q20 -14 -6 -33l-239 -189q-21 -18 -49 -18h-66q-24 0 -39 18z" />
<glyph unicode="&#x11b;" horiz-adv-x="876" d="M59 238q0 28 7 75l43 230q36 199 150.5 283.5t293.5 84.5q120 0 199 -62t79 -173q0 -60 -20.5 -108t-51.5 -80.5t-82.5 -56.5t-97 -37t-113 -22t-113.5 -12t-113 -6q-17 -87 -17 -102q0 -59 39.5 -90t134.5 -31q48 0 110.5 30t113.5 85q16 16 30 2l64 -66q15 -15 16 -24 t-10 -21q-134 -151 -354 -151q-159 0 -233.5 69.5t-74.5 182.5zM262 489q63 1 114.5 5.5t108 15.5t94.5 28.5t62.5 47t24.5 69.5q0 47 -33 81t-98 34q-116 0 -176.5 -50.5t-77.5 -131.5zM303 1257q-17 24 10 43l33 25q27 19 43 -4l156 -178l243 178q16 11 23.5 12.5 t22.5 -8.5l24 -25q18 -18 -6 -43l-244 -239q-23 -23 -49 -23h-67q-23 0 -39 23z" />
<glyph unicode="&#x11c;" horiz-adv-x="980" d="M100 356l115 576q66 348 399 348q106 0 197.5 -42t144.5 -128q13 -19 -16 -41l-74 -53q-12 -7 -24.5 -5t-20.5 13q-39 47 -92.5 78t-112.5 31q-100 0 -158.5 -53.5t-76.5 -145.5l-115 -598q-16 -89 28 -144t148 -55q105 0 166.5 51t79.5 144l37 205h-164q-13 0 -17.5 5 t-2.5 17l20 111q6 18 29 18h307q13 0 20 -6.5t3 -17.5l-60 -334q-31 -158 -133 -250t-272 -92q-186 -5 -287 98.5t-68 269.5zM365 1352q-19 14 6 32l239 189q21 18 49 18h66q24 0 39 -18l147 -189q18 -18 -10 -32l-33 -21q-17 -7 -22.5 -6t-18.5 10l-151 123l-240 -123 q-29 -18 -43 -4z" />
<glyph unicode="&#x11d;" horiz-adv-x="929" d="M-61 -168q0 13 4 37q7 36 26.5 78.5t42.5 42.5q1 0 4 -1t4 -1l107 -35q8 -2 8 -10q0 -1 -14.5 -30t-14.5 -46q0 -47 53 -77t152 -30q116 0 183 45t67 117q0 103 -149 103h-123q-93 0 -143 35t-50 90q0 14 2.5 27t10.5 27.5t13 23t19 24.5t18 21t22 23.5t20 20.5 q-117 73 -117 218q0 158 117 267t303 109q150 0 231 -84q46 34 103.5 56t105.5 22q17 0 23 -6t2 -25l-21 -104q-3 -14 -7.5 -18t-16.5 -4q-2 0 -20 2.5t-47.5 4.5t-61.5 1q18 -47 18 -107q0 -171 -117.5 -277t-316.5 -106h-29q-31 0 -50 -16t-19 -43q0 -43 75 -43h136 q104 0 171.5 -55t67.5 -162q0 -80 -39 -144t-104 -102t-142.5 -58t-160.5 -20q-152 0 -249 55.5t-97 153.5zM248 541q0 -63 40.5 -104.5t114.5 -41.5q103 0 175.5 65t72.5 154q0 66 -45 111t-117 45q-103 0 -172 -69t-69 -160zM270 1034q-18 18 6 43l244 240q22 22 49 22h68 q23 0 39 -22l149 -240q17 -24 -10 -43l-33 -24q-27 -19 -43 4l-147 180l-252 -180q-17 -11 -23.5 -12.5t-21.5 8.5z" />
<glyph unicode="&#x11e;" horiz-adv-x="980" d="M100 356l115 576q66 348 399 348q106 0 197.5 -42t144.5 -128q13 -19 -16 -41l-74 -53q-12 -7 -24.5 -5t-20.5 13q-39 47 -92.5 78t-112.5 31q-100 0 -158.5 -53.5t-76.5 -145.5l-115 -598q-16 -89 28 -144t148 -55q105 0 166.5 51t79.5 144l37 205h-164q-13 0 -17.5 5 t-2.5 17l20 111q6 18 29 18h307q13 0 20 -6.5t3 -17.5l-60 -334q-31 -158 -133 -250t-272 -92q-186 -5 -287 98.5t-68 269.5zM444 1573q4 25 29 22h43q16 1 19.5 -4.5t3.5 -21.5q-2 -61 27 -95t87 -34q112 0 168 129q5 11 7.5 15.5t9.5 8t18 2.5h43q14 1 18.5 -4.5 t2.5 -17.5q-18 -108 -93 -178t-190 -70q-112 0 -160.5 69.5t-32.5 178.5z" />
<glyph unicode="&#x11f;" horiz-adv-x="929" d="M-61 -168q0 13 4 37q7 36 26.5 78.5t42.5 42.5q1 0 4 -1t4 -1l107 -35q8 -2 8 -10q0 -1 -14.5 -30t-14.5 -46q0 -47 53 -77t152 -30q116 0 183 45t67 117q0 103 -149 103h-123q-93 0 -143 35t-50 90q0 14 2.5 27t10.5 27.5t13 23t19 24.5t18 21t22 23.5t20 20.5 q-117 73 -117 218q0 158 117 267t303 109q150 0 231 -84q46 34 103.5 56t105.5 22q17 0 23 -6t2 -25l-21 -104q-3 -14 -7.5 -18t-16.5 -4q-2 0 -20 2.5t-47.5 4.5t-61.5 1q18 -47 18 -107q0 -171 -117.5 -277t-316.5 -106h-29q-31 0 -50 -16t-19 -43q0 -43 75 -43h136 q104 0 171.5 -55t67.5 -162q0 -80 -39 -144t-104 -102t-142.5 -58t-160.5 -20q-152 0 -249 55.5t-97 153.5zM248 541q0 -63 40.5 -104.5t114.5 -41.5q103 0 175.5 65t72.5 154q0 66 -45 111t-117 45q-103 0 -172 -69t-69 -160zM369 1268q3 24 28 22h43q4 2 7.5 0.5t5.5 -1 t4 -2t2.5 -3t1.5 -4t1 -4.5t0.5 -5.5t0.5 -6.5q8 -62 35.5 -92.5t83.5 -30.5q109 0 163 123q5 11 7.5 15.5t9.5 8t18 2.5h43q14 1 18.5 -4.5t2.5 -17.5q-18 -109 -89 -178.5t-186 -69.5q-98 0 -156.5 72.5t-43.5 175.5z" />
<glyph unicode="&#x120;" horiz-adv-x="980" d="M100 356l115 576q66 348 399 348q106 0 197.5 -42t144.5 -128q13 -19 -16 -41l-74 -53q-12 -7 -24.5 -5t-20.5 13q-39 47 -92.5 78t-112.5 31q-100 0 -158.5 -53.5t-76.5 -145.5l-115 -598q-16 -89 28 -144t148 -55q105 0 166.5 51t79.5 144l37 205h-164q-13 0 -17.5 5 t-2.5 17l20 111q6 18 29 18h307q13 0 20 -6.5t3 -17.5l-60 -334q-31 -158 -133 -250t-272 -92q-186 -5 -287 98.5t-68 269.5zM563 1423q8 40 41.5 68.5t73.5 28.5t63 -28.5t15 -68.5q-7 -40 -41 -68t-74 -28t-62.5 28t-15.5 68z" />
<glyph unicode="&#x121;" horiz-adv-x="929" d="M-61 -168q0 13 4 37q7 36 26.5 78.5t42.5 42.5q1 0 4 -1t4 -1l107 -35q8 -2 8 -10q0 -1 -14.5 -30t-14.5 -46q0 -47 53 -77t152 -30q116 0 183 45t67 117q0 103 -149 103h-123q-93 0 -143 35t-50 90q0 14 2.5 27t10.5 27.5t13 23t19 24.5t18 21t22 23.5t20 20.5 q-117 73 -117 218q0 158 117 267t303 109q150 0 231 -84q46 34 103.5 56t105.5 22q17 0 23 -6t2 -25l-21 -104q-3 -14 -7.5 -18t-16.5 -4q-2 0 -20 2.5t-47.5 4.5t-61.5 1q18 -47 18 -107q0 -171 -117.5 -277t-316.5 -106h-29q-31 0 -50 -16t-19 -43q0 -43 75 -43h136 q104 0 171.5 -55t67.5 -162q0 -80 -39 -144t-104 -102t-142.5 -58t-160.5 -20q-152 0 -249 55.5t-97 153.5zM248 541q0 -63 40.5 -104.5t114.5 -41.5q103 0 175.5 65t72.5 154q0 66 -45 111t-117 45q-103 0 -172 -69t-69 -160zM514 1116q7 40 41 68t74 28t62.5 -28t15.5 -68 t-41 -68t-74 -28t-62.5 28t-15.5 68z" />
<glyph unicode="&#x122;" horiz-adv-x="980" d="M100 356l115 576q66 348 399 348q106 0 197.5 -42t144.5 -128q13 -19 -16 -41l-74 -53q-12 -7 -24.5 -5t-20.5 13q-39 47 -92.5 78t-112.5 31q-100 0 -158.5 -53.5t-76.5 -145.5l-115 -598q-16 -89 28 -144t148 -55q105 0 166.5 51t79.5 144l37 205h-164q-13 0 -17.5 5 t-2.5 17l20 111q6 18 29 18h307q13 0 20 -6.5t3 -17.5l-60 -334q-31 -158 -133 -250t-272 -92q-186 -5 -287 98.5t-68 269.5zM217 -453.5q-3 11.5 2 23.5l82 321q11 33 37 33h127q39 0 18 -41l-157 -323q-16 -25 -37 -25h-56q-13 0 -16 11.5z" />
<glyph unicode="&#x123;" horiz-adv-x="929" d="M-61 -168q0 13 4 37q7 36 26.5 78.5t42.5 42.5q1 0 4 -1t4 -1l107 -35q8 -2 8 -10q0 -1 -14.5 -30t-14.5 -46q0 -47 53 -77t152 -30q116 0 183 45t67 117q0 103 -149 103h-123q-93 0 -143 35t-50 90q0 14 2.5 27t10.5 27.5t13 23t19 24.5t18 21t22 23.5t20 20.5 q-117 73 -117 218q0 158 117 267t303 109q150 0 231 -84q46 34 103.5 56t105.5 22q17 0 23 -6t2 -25l-21 -104q-3 -14 -7.5 -18t-16.5 -4q-2 0 -20 2.5t-47.5 4.5t-61.5 1q18 -47 18 -107q0 -171 -117.5 -277t-316.5 -106h-29q-31 0 -50 -16t-19 -43q0 -43 75 -43h136 q104 0 171.5 -55t67.5 -162q0 -80 -39 -144t-104 -102t-142.5 -58t-160.5 -20q-152 0 -249 55.5t-97 153.5zM248 541q0 -63 40.5 -104.5t114.5 -41.5q103 0 175.5 65t72.5 154q0 66 -45 111t-117 45q-103 0 -172 -69t-69 -160zM489 1055l158 323q16 25 37 25h55 q13 0 16.5 -11.5t-1.5 -23.5l-82 -321q-11 -33 -37 -33h-127q-40 0 -19 41z" />
<glyph unicode="&#x124;" horiz-adv-x="1075" d="M53 23l236 1218q3 12 8.5 17.5t17.5 5.5h125q12 0 18 -6t3 -15l-101 -516h469l101 514q7 23 26 23h125q12 0 19 -6t4 -15l-236 -1218q-6 -25 -28 -25h-125q-12 0 -18 6.5t-3 16.5l107 557h-467l-109 -555q-6 -25 -26 -25h-125q-12 0 -18 6.5t-3 16.5zM424 1352 q-19 14 6 32l240 189q21 18 49 18h65q24 0 39 -18l148 -189q18 -18 -10 -32l-33 -21q-17 -7 -22.5 -6t-18.5 10l-152 123l-239 -123q-29 -18 -43 -4z" />
<glyph unicode="&#x125;" horiz-adv-x="954" d="M35 18l248 1266q3 21 22 21h123q19 0 14 -19l-88 -469h8q121 92 236 92q153 0 224 -93t42 -249l-106 -547q-3 -20 -23 -20h-127q-17 0 -14 18l106 547q18 92 -21 147.5t-136 55.5q-87 0 -154.5 -62.5t-85.5 -152.5l-102 -533q-3 -20 -25 -20h-125q-19 0 -16 18zM90 1352 q-19 14 6 32l240 189q21 18 49 18h66q23 0 38 -18l148 -189q18 -18 -10 -32l-33 -21q-17 -7 -22.5 -6t-18.5 10l-152 123l-239 -123q-29 -18 -43 -4z" />
<glyph unicode="&#x126;" horiz-adv-x="1075" d="M53 23l189 974h-80q-28 0 -21 27l11 61q6 21 26 21h84l27 135q3 12 8.5 17.5t17.5 5.5h125q12 0 18 -6t3 -15l-27 -137h469l27 135q7 23 26 23h125q12 0 19 -6t4 -15l-27 -137h80q26 0 19 -27l-11 -61q-6 -21 -26 -21h-82l-189 -972q-6 -25 -28 -25h-125q-12 0 -18 6.5 t-3 16.5l107 557h-467l-109 -555q-6 -25 -26 -25h-125q-12 0 -18 6.5t-3 16.5zM360 727h469l54 270h-471z" />
<glyph unicode="&#x127;" horiz-adv-x="954" d="M35 18l194 992h-86q-19 0 -16 20l12 66q6 20 23 20h88l33 168q3 21 22 21h123q19 0 14 -19l-32 -170h338q21 0 18 -18l-14 -68q-3 -20 -23 -20h-340l-35 -193h8q121 92 236 92q153 0 224 -93t42 -249l-106 -547q-3 -20 -23 -20h-127q-17 0 -14 18l106 547 q18 92 -21 147.5t-136 55.5q-87 0 -154.5 -62.5t-85.5 -152.5l-102 -533q-3 -20 -25 -20h-125q-19 0 -16 18z" />
<glyph unicode="&#x128;" horiz-adv-x="489" d="M74 23l235 1218q7 23 29 23h127q11 0 17 -6t3 -15l-235 -1218q-6 -25 -29 -25h-127q-11 0 -17 6.5t-3 16.5zM164 1434q-10 9 4 32q39 54 88.5 86.5t99.5 32.5q42 0 107.5 -36t93.5 -36q42 0 90 64q13 17 33 4l53 -37q13 -8 -2 -35q-78 -118 -186 -118q-45 0 -109 34.5 t-96 34.5q-18 0 -43.5 -18t-44.5 -43q-18 -23 -37 -8z" />
<glyph unicode="&#x129;" horiz-adv-x="471" d="M68 18l165 859q6 20 23 20h127q22 0 16 -20l-166 -859q-3 -18 -22 -18h-127q-19 0 -16 18zM72 1085q-10 10 4 33q39 54 88.5 86.5t99.5 32.5q42 0 107.5 -36t93.5 -36q42 0 90 64q13 17 33 4l53 -37q13 -8 -2 -35q-79 -119 -186 -119q-45 0 -109 35t-96 35 q-18 0 -43.5 -18t-44.5 -43q-18 -23 -37 -9z" />
<glyph unicode="&#x12a;" horiz-adv-x="489" d="M74 23l235 1218q7 23 29 23h127q11 0 17 -6t3 -15l-235 -1218q-6 -25 -29 -25h-127q-11 0 -17 6.5t-3 16.5zM182 1399l17 84q6 20 22 20h436q23 0 17 -18l-17 -86q-3 -21 -22 -21h-436q-20 0 -17 21z" />
<glyph unicode="&#x12b;" horiz-adv-x="415" d="M47 18l166 859q6 20 23 20h126q23 0 17 -20l-166 -859q-3 -18 -23 -18h-127q-19 0 -16 18zM84 1098l16 84q6 20 23 20h436q22 0 16 -18l-16 -86q-3 -21 -22 -21h-437q-19 0 -16 21z" />
<glyph unicode="&#x12c;" horiz-adv-x="555" d="M111 23l235 1218q7 23 29 23h127q11 0 17 -6t3 -15l-235 -1218q-6 -25 -29 -25h-127q-11 0 -17 6.5t-3 16.5zM248 1573q3 24 28 22h43q16 1 19.5 -4.5t3.5 -21.5q-2 -61 27.5 -95t87.5 -34q112 0 168 129q5 12 7.5 16t9 7.5t17.5 2.5h43q14 1 18.5 -4.5t2.5 -17.5 q-18 -108 -93 -178t-190 -70q-112 0 -160 69.5t-32 178.5z" />
<glyph unicode="&#x12d;" horiz-adv-x="415" d="M47 18l166 859q6 20 23 20h126q23 0 17 -20l-166 -859q-3 -18 -23 -18h-127q-19 0 -16 18zM127 1280q4 26 29 23h43q6 0 9.5 -0.5t6 -1.5t3.5 -4.5t1.5 -5t1 -7.5t0.5 -8q8 -62 35.5 -92.5t83.5 -30.5q110 0 164 123q5 12 7.5 16t9.5 8t18 3h43q14 1 18 -5t2 -18 q-18 -109 -88.5 -178.5t-185.5 -69.5q-98 0 -157 72.5t-44 175.5z" />
<glyph unicode="&#x12e;" horiz-adv-x="489" d="M-115 -268q0 70 57.5 155.5t129.5 135.5l2 2l235 1216q7 23 29 23h127q11 0 17 -6t3 -15l-235 -1218q-6 -25 -29 -25h-51q-64 -55 -110 -118.5t-46 -117.5q0 -22 11.5 -32.5t42.5 -10.5q43 0 114 41q14 7 19 -2l30 -49q5 -9 -6 -20q-89 -74 -194 -74q-73 0 -109.5 31.5 t-36.5 83.5z" />
<glyph unicode="&#x12f;" horiz-adv-x="415" d="M-139 -268q0 70 57 155.5t129 135.5l166 854q6 20 23 20h126q23 0 17 -20l-166 -859q-3 -18 -23 -18h-45q-64 -54 -109.5 -118t-45.5 -118q0 -22 11.5 -32.5t41.5 -10.5q44 0 115 41q14 7 18 -2l31 -49q5 -9 -6 -20q-89 -74 -195 -74q-73 0 -109 31.5t-36 83.5zM256 1180 q6 41 41.5 70.5t77.5 29.5q44 0 69.5 -28.5t18.5 -71.5q-8 -41 -45 -72t-80 -31q-42 0 -65 29t-17 74z" />
<glyph unicode="&#x130;" horiz-adv-x="489" d="M74 23l235 1218q7 23 29 23h127q11 0 17 -6t3 -15l-235 -1218q-6 -25 -29 -25h-127q-11 0 -17 6.5t-3 16.5zM340 1464q8 40 41.5 68.5t73.5 28.5t62.5 -28.5t14.5 -68.5t-41 -68t-73 -28t-62.5 28t-15.5 68z" />
<glyph unicode="&#x131;" horiz-adv-x="415" d="M47 18l166 859q6 20 23 20h126q23 0 17 -20l-166 -859q-3 -18 -23 -18h-127q-19 0 -16 18z" />
<glyph unicode="&#x132;" horiz-adv-x="1032" d="M74 23l235 1218q7 23 29 23h127q11 0 17 -6t3 -15l-235 -1218q-6 -25 -29 -25h-127q-11 0 -17 6.5t-3 16.5zM334 -129q-2 19 5.5 31t35.5 16q77 11 130.5 36t87 68.5t52.5 93.5t33 124l194 997q9 27 33 27h109q14 0 21 -8t5 -19l-188 -989q-17 -85 -36.5 -147t-55 -128 t-82.5 -108.5t-120.5 -72t-168.5 -34.5q-30 -1 -37 3t-10 24z" />
<glyph unicode="&#x133;" horiz-adv-x="835" d="M47 18l166 859q6 20 23 20h126q23 0 17 -20l-166 -859q-3 -18 -23 -18h-127q-19 0 -16 18zM196 -355.5q-3 6.5 1 21.5l24 96q8 25 39 19q48 -6 57 -6q53 0 81.5 29.5t39.5 86.5l193 988q3 18 24 18h123q20 0 15 -18l-199 -1010q-11 -53 -28.5 -94.5t-47.5 -77t-77 -55 t-109 -19.5q-79 0 -119 10q-14 5 -17 11.5zM256 1180q6 41 41.5 70.5t77.5 29.5q44 0 69.5 -28.5t18.5 -71.5q-8 -41 -45 -72t-80 -31q-42 0 -65 29t-17 74zM666 1180q9 41 44 70.5t76 29.5q45 0 70 -29t16 -71q-8 -42 -44 -72.5t-78 -30.5q-43 0 -67 29.5t-17 73.5z" />
<glyph unicode="&#x134;" horiz-adv-x="548" d="M-150 -127q-2 19 5.5 31t35.5 16q77 11 130.5 36t87.5 68.5t53 93.5t33 124l194 997q9 27 33 27h108q14 0 21.5 -8t5.5 -19l-188 -989q-17 -85 -36.5 -147t-55 -128t-82.5 -108.5t-120.5 -72t-168.5 -34.5q-30 -1 -37 3t-10 24zM217 1356q-20 14 6 33l240 188 q21 18 49 18h66q23 0 38 -18l148 -188q19 -19 -10 -33l-33 -21q-17 -7 -22.5 -6t-18.5 10l-152 123l-239 -123q-29 -18 -43 -4z" />
<glyph unicode="&#x135;" horiz-adv-x="448" d="M-199 -324l43 99q6 18 35 12q31 -8 60 -8t50.5 12t34 34t19 40.5t12.5 44.5q61 321 187 967q3 20 20 20h129q20 0 17 -18l-195 -988q-23 -115 -95 -187.5t-186 -72.5q-76 0 -114 13q-30 7 -17 32zM61 1034q-18 18 7 43l243 240q22 22 49 22h68q23 0 39 -22l149 -240 q17 -24 -10 -43l-33 -24q-27 -19 -43 4l-147 180l-252 -180q-17 -11 -23.5 -12.5t-21.5 8.5z" />
<glyph unicode="&#x136;" horiz-adv-x="1021" d="M49 18l238 1225q6 21 26 21h133q20 0 17 -19l-103 -510l5 -2l530 516q15 15 31 15h147q19 0 23.5 -10t-6.5 -19l-488 -483l4 -4q49 5 113 -3q112 -15 159 -96t29 -237l-47 -392q-3 -20 -22 -20h-119q-11 0 -16.5 4.5t-4.5 13.5l47 369q4 32 5 56t-2 53t-14 49t-30 37.5 t-51.5 26.5t-77.5 9q-114 0 -186.5 -66t-95.5 -177l-70 -355q-3 -20 -20 -20h-133q-24 0 -21 18zM295 -412.5q-3 11.5 2 23.5l82 321q11 33 37 33h127q39 0 18 -41l-158 -323q-16 -25 -36 -25h-56q-13 0 -16 11.5z" />
<glyph unicode="&#x137;" horiz-adv-x="894" d="M37 18l246 1266q7 21 22 21h127q20 0 17 -19l-150 -772h6l414 373q10 10 31 10h151q10 0 15.5 -5t3.5 -13q-2 -6 -15 -19l-342 -305l2 -4q55 0 99 -12q173 -51 135 -318l-27 -186q-5 -20 -12 -27.5t-23 -7.5h-108q-31 0 -25 29l27 190q8 40 5.5 76.5t-13.5 64.5t-48 45 t-98 17q-97 0 -156.5 -57t-78.5 -144l-39 -201q-3 -20 -23 -20h-125q-21 0 -18 18zM201 -453.5q-3 11.5 2 23.5l82 321q11 33 37 33h127q39 0 18 -41l-158 -323q-16 -25 -37 -25h-55q-13 0 -16 11.5z" />
<glyph unicode="&#x138;" horiz-adv-x="894" d="M37 18l168 863q7 20 22 20h127q20 0 17 -18l-72 -369h6l414 373q10 10 31 10h151q10 0 15.5 -5t3.5 -13q-2 -6 -15 -19l-342 -305l2 -4q55 0 99 -12q173 -51 135 -318l-27 -186q-5 -20 -12 -27.5t-23 -7.5h-108q-31 0 -25 29l27 190q8 40 5.5 76.5t-13.5 64.5t-48 45 t-98 17q-97 0 -156.5 -57t-78.5 -144l-39 -201q-3 -20 -23 -20h-125q-21 0 -18 18z" />
<glyph unicode="&#x139;" horiz-adv-x="835" d="M53 23l236 1218q4 23 26 23h125q24 0 21 -21l-213 -1093h510q11 0 17 -6.5t5 -16.5l-20 -102q-3 -25 -27 -25h-659q-24 0 -21 23zM330 1372q-11 17 12 33l283 176q11 8 25.5 9t21.5 -9l55 -90q8 -16 1.5 -25.5t-19.5 -13.5l-312 -125q-30 -13 -45 8z" />
<glyph unicode="&#x13a;" horiz-adv-x="452" d="M86 120q-3 65 14 156l195 1008q7 21 22 21h125q22 0 19 -19l-201 -1032q-13 -68 2 -90.5t66 -22.5h26q12 0 14 -9.5t-1 -20.5l-19 -97q-6 -23 -26 -26q-16 -4 -58 -4q-89 0 -132 35.5t-46 100.5zM354 1446q-11 16 13 33l282 176q11 8 25.5 9t21.5 -9l56 -90 q8 -16 1 -25.5t-20 -13.5l-311 -125q-30 -13 -45 8z" />
<glyph unicode="&#x13b;" horiz-adv-x="835" d="M53 23l236 1218q4 23 26 23h125q24 0 21 -21l-213 -1093h510q11 0 17 -6.5t5 -16.5l-20 -102q-3 -25 -27 -25h-659q-24 0 -21 23zM170 -453.5q-3 11.5 2 23.5l82 321q11 33 37 33h127q39 0 18 -41l-157 -323q-16 -25 -37 -25h-56q-13 0 -16 11.5z" />
<glyph unicode="&#x13c;" horiz-adv-x="452" d="M-16 -453.5q-3 11.5 2 23.5l82 321q11 33 36 33h127q40 0 19 -41l-158 -323q-16 -25 -37 -25h-55q-13 0 -16 11.5zM86 120q-3 65 14 156l195 1008q7 21 22 21h125q22 0 19 -19l-201 -1032q-13 -68 2 -90.5t66 -22.5h26q12 0 14 -9.5t-1 -20.5l-19 -97q-6 -23 -26 -26 q-16 -4 -58 -4q-89 0 -132 35.5t-46 100.5z" />
<glyph unicode="&#x13d;" horiz-adv-x="835" d="M53 23l236 1218q4 23 26 23h125q24 0 21 -21l-213 -1093h510q11 0 17 -6.5t5 -16.5l-20 -102q-3 -25 -27 -25h-659q-24 0 -21 23zM559 890q-3 11 2 23l82 322q11 33 37 33h127q39 0 18 -41l-157 -324q-15 -24 -37 -24h-56q-13 0 -16 11z" />
<glyph unicode="&#x13e;" horiz-adv-x="663" d="M86 120q-3 65 14 156l195 1008q7 21 22 21h125q22 0 19 -19l-201 -1032q-13 -68 2 -90.5t66 -22.5h26q12 0 14 -9.5t-1 -20.5l-19 -97q-6 -23 -26 -26q-16 -4 -58 -4q-89 0 -132 35.5t-46 100.5zM522.5 931q-3.5 11 1.5 23l82 322q11 33 37 33h127q39 0 18 -41l-157 -324 q-15 -24 -37 -24h-55q-13 0 -16.5 11z" />
<glyph unicode="&#x13f;" horiz-adv-x="835" d="M53 23l236 1218q4 23 26 23h125q24 0 21 -21l-213 -1093h510q11 0 17 -6.5t5 -16.5l-20 -102q-3 -25 -27 -25h-659q-24 0 -21 23zM512 666q7 40 41 68t74 28t62.5 -28t15.5 -68q-8 -40 -41.5 -68.5t-73.5 -28.5t-63 28.5t-15 68.5z" />
<glyph unicode="&#x140;" horiz-adv-x="651" d="M86 120q-3 65 14 156l195 1008q7 21 22 21h125q22 0 19 -19l-201 -1032q-13 -68 2 -90.5t66 -22.5h26q12 0 14 -9.5t-1 -20.5l-19 -97q-6 -23 -26 -26q-16 -4 -58 -4q-89 0 -132 35.5t-46 100.5zM471 739q8 40 41.5 68.5t73.5 28.5t63 -28.5t15 -68.5q-7 -40 -41 -68 t-74 -28t-62.5 28t-15.5 68z" />
<glyph unicode="&#x141;" horiz-adv-x="835" d="M-39 436q-8 19 10 29l187 98l131 678q4 23 26 23h125q24 0 21 -21l-113 -577l199 104q18 9 28 -8l27 -70q3 -9 -0.5 -17t-9.5 -11l-273 -142l-71 -372h502q11 0 17 -6.5t5 -16.5l-20 -102q-3 -25 -27 -25h-651q-24 0 -21 23l76 397l-113 -62q-24 -12 -28 9z" />
<glyph unicode="&#x142;" horiz-adv-x="614" d="M8 498q-5 13 10 22l195 101l129 663q7 21 23 21h124q22 0 19 -19l-111 -571l158 82q16 8 20 -6l27 -70q10 -16 -8 -23l-223 -114l-64 -330q-13 -68 2 -90.5t66 -22.5h26q12 0 14 -9.5t-1 -20.5l-19 -97q-6 -23 -26 -26q-16 -4 -58 -4q-89 0 -132 35.5t-46 100.5t14 156 l41 213l-131 -67q-17 -10 -20 6z" />
<glyph unicode="&#x143;" horiz-adv-x="1077" d="M53 23l232 1189q5 29 14.5 40.5t36.5 11.5h74q22 0 32 -8t17 -25l301 -897l6 -2l178 909q7 23 27 23h114q12 0 18 -6t3 -15l-234 -1202q-7 -41 -45 -41h-77q-41 0 -50 31q-48 137 -152.5 446.5t-152.5 446.5h-6l-172 -899q-6 -25 -27 -25h-116q-12 0 -18 6.5t-3 16.5z M606 1372q-11 17 12 33l283 176q11 8 25.5 9t21.5 -9l56 -90q8 -16 1 -25.5t-20 -13.5l-311 -125q-30 -13 -45 8z" />
<glyph unicode="&#x144;" horiz-adv-x="946" d="M35 18l166 859q6 20 22 20h121q10 0 13 -3.5t1 -14.5l-12 -72l10 -2q51 51 118 77.5t124 26.5q153 0 224 -93t42 -249l-106 -547q-3 -20 -23 -20h-127q-17 0 -14 18l106 547q18 92 -21 147.5t-136 55.5q-87 0 -154.5 -62.5t-85.5 -152.5l-102 -533q-3 -20 -25 -20h-125 q-19 0 -16 18zM485 1022q-17 14 0 37l197 262q25 33 49 14l80 -59q24 -19 -2 -45l-248 -227q-9 -9 -21 -12t-22 3z" />
<glyph unicode="&#x145;" horiz-adv-x="1077" d="M53 23l232 1189q5 29 14.5 40.5t36.5 11.5h74q22 0 32 -8t17 -25l301 -897l6 -2l178 909q7 23 27 23h114q12 0 18 -6t3 -15l-234 -1202q-7 -41 -45 -41h-77q-41 0 -50 31q-48 137 -152.5 446.5t-152.5 446.5h-6l-172 -899q-6 -25 -27 -25h-116q-12 0 -18 6.5t-3 16.5z M260 -412.5q-3 11.5 2 23.5l82 321q11 33 37 33h127q39 0 18 -41l-157 -323q-16 -25 -37 -25h-56q-13 0 -16 11.5z" />
<glyph unicode="&#x146;" horiz-adv-x="946" d="M35 18l166 859q6 20 22 20h121q10 0 13 -3.5t1 -14.5l-12 -72l10 -2q51 51 118 77.5t124 26.5q153 0 224 -93t42 -249l-106 -547q-3 -20 -23 -20h-127q-17 0 -14 18l106 547q18 92 -21 147.5t-136 55.5q-87 0 -154.5 -62.5t-85.5 -152.5l-102 -533q-3 -20 -25 -20h-125 q-19 0 -16 18zM201 -453.5q-3 11.5 2 23.5l82 321q11 33 37 33h127q39 0 18 -41l-158 -323q-16 -25 -37 -25h-55q-13 0 -16 11.5z" />
<glyph unicode="&#x147;" horiz-adv-x="1077" d="M53 23l232 1189q5 29 14.5 40.5t36.5 11.5h74q22 0 32 -8t17 -25l301 -897l6 -2l178 909q7 23 27 23h114q12 0 18 -6t3 -15l-234 -1202q-7 -41 -45 -41h-77q-41 0 -50 31q-48 137 -152.5 446.5t-152.5 446.5h-6l-172 -899q-6 -25 -27 -25h-116q-12 0 -18 6.5t-3 16.5z M461 1532q-19 19 10 33l33 20q17 7 22.5 6t18.5 -10l151 -123l240 123q29 18 43 4l29 -20q20 -14 -7 -33l-239 -189q-21 -18 -49 -18h-66q-24 0 -39 18z" />
<glyph unicode="&#x148;" horiz-adv-x="946" d="M35 18l166 859q6 20 22 20h121q10 0 13 -3.5t1 -14.5l-12 -72l10 -2q51 51 118 77.5t124 26.5q153 0 224 -93t42 -249l-106 -547q-3 -20 -23 -20h-127q-17 0 -14 18l106 547q18 92 -21 147.5t-136 55.5q-87 0 -154.5 -62.5t-85.5 -152.5l-102 -533q-3 -20 -25 -20h-125 q-19 0 -16 18zM344 1257q-17 24 10 43l33 25q27 19 43 -4l156 -178l243 178q17 11 23.5 12.5t21.5 -8.5l25 -25q19 -18 -6 -43l-244 -239q-23 -23 -49 -23h-68q-22 0 -38 23z" />
<glyph unicode="&#x149;" horiz-adv-x="1042" d="M88 896.5q-3 11.5 2 23.5l82 321q11 33 37 33h127q39 0 18 -41l-157 -324q-15 -24 -37 -24h-56q-13 0 -16 11.5zM131 18l166 859q6 20 22 20h121q10 0 13.5 -3.5t1.5 -14.5l-13 -72l11 -2q51 51 117.5 77.5t123.5 26.5q153 0 224.5 -93t42.5 -249l-107 -547 q-3 -20 -23 -20h-126q-18 0 -15 18l107 547q18 92 -21 147.5t-137 55.5q-87 0 -154.5 -62.5t-85.5 -152.5l-102 -533q-3 -20 -25 -20h-125q-19 0 -16 18z" />
<glyph unicode="&#x14a;" horiz-adv-x="1077" d="M53 23l240 1218q4 23 24 23h82q22 0 32 -8.5t15 -24.5l322 -871l6 -2q26 135 85.5 434t88.5 449q4 23 25 23h114q12 0 18.5 -6t4.5 -15l-262 -1337q-9 -44 -21 -79t-34.5 -71t-52 -60t-75 -39t-102.5 -15q-84 0 -119 18q-14 8 -8 35q2 13 8.5 39t8.5 39q6 16 14.5 19 t30.5 1q40 -4 53 -4q57 0 86.5 35.5t44.5 105.5q2 15 8 45.5t8 44.5q8 48 -2 80q-293 778 -301 799h-6l-172 -874q-4 -25 -24 -25h-117q-26 0 -23 23z" />
<glyph unicode="&#x14b;" horiz-adv-x="946" d="M35 18l166 859q6 20 22 20h121q10 0 13 -3.5t1 -14.5l-12 -72l10 -2q51 51 118 77.5t124 26.5q153 0 224 -93t42 -249q-35 -180 -61.5 -315.5t-36 -183.5t-17 -87t-14.5 -79q-10 -55 -28 -98t-49.5 -82t-83.5 -60.5t-121 -21.5q-82 0 -117 18q-11 7 -6 31l16 73 q10 24 35 21q46 -4 59 -4q61 0 90.5 36t44.5 111l125 639q18 92 -21 147.5t-136 55.5q-87 0 -154.5 -62.5t-85.5 -152.5l-102 -533q-3 -20 -25 -20h-125q-19 0 -16 18z" />
<glyph unicode="&#x14c;" horiz-adv-x="1003" d="M100 367l109 565q33 165 142 256.5t282 91.5q84 0 154.5 -24.5t120.5 -69.5t71 -116.5t4 -158.5l-111 -573q-68 -350 -428 -350q-181 0 -278.5 106.5t-65.5 272.5zM268 362q-15 -100 35 -162.5t146 -62.5q213 0 253 205l113 586q17 87 -37 144.5t-149 57.5 q-98 0 -166 -57t-86 -145zM442 1399l17 84q6 20 22 20h437q22 0 16 -18l-16 -86q-4 -21 -23 -21h-436q-20 0 -17 21z" />
<glyph unicode="&#x14d;" horiz-adv-x="917" d="M86 367l41 200q32 160 133.5 252t269.5 92q166 0 257.5 -93t60.5 -251l-45 -233q-67 -346 -414 -346q-169 0 -252.5 108t-50.5 271zM246 332q-18 -90 25.5 -146.5t138.5 -56.5q87 0 147.5 56t79.5 147l47 235q19 87 -28.5 144t-137.5 57q-88 0 -148.5 -55t-78.5 -146z M369 1098l16 84q6 20 23 20h436q22 0 16 -18l-16 -86q-4 -21 -23 -21h-436q-19 0 -16 21z" />
<glyph unicode="&#x14e;" horiz-adv-x="1003" d="M100 367l109 565q33 165 142 256.5t282 91.5q84 0 154.5 -24.5t120.5 -69.5t71 -116.5t4 -158.5l-111 -573q-68 -350 -428 -350q-181 0 -278.5 106.5t-65.5 272.5zM268 362q-15 -100 35 -162.5t146 -62.5q213 0 253 205l113 586q17 87 -37 144.5t-149 57.5 q-98 0 -166 -57t-86 -145zM481 1573q4 25 29 22h43q16 1 19 -4.5t3 -21.5q-2 -61 27.5 -95t87.5 -34q112 0 168 129q5 11 7.5 15.5t9.5 8t18 2.5h43q14 1 18 -4.5t2 -17.5q-18 -108 -92.5 -178t-189.5 -70q-112 0 -160.5 69.5t-32.5 178.5z" />
<glyph unicode="&#x14f;" horiz-adv-x="917" d="M86 367l41 200q32 160 133.5 252t269.5 92q166 0 257.5 -93t60.5 -251l-45 -233q-67 -346 -414 -346q-169 0 -252.5 108t-50.5 271zM246 332q-18 -90 25.5 -146.5t138.5 -56.5q87 0 147.5 56t79.5 147l47 235q19 87 -28.5 144t-137.5 57q-88 0 -148.5 -55t-78.5 -146z M391 1268q4 25 29 22h43q5 -1 8.5 0t5.5 -1t3.5 -2.5t2.5 -4t1 -5t0.5 -6t0.5 -7.5q8 -62 35.5 -92.5t83.5 -30.5q110 0 164 123q5 11 7.5 15.5t9.5 8t18 2.5h43q14 1 18 -4.5t2 -17.5q-18 -109 -88.5 -178.5t-185.5 -69.5q-98 0 -157 72.5t-44 175.5z" />
<glyph unicode="&#x150;" horiz-adv-x="1003" d="M100 367l109 565q33 165 142 256.5t282 91.5q84 0 154.5 -24.5t120.5 -69.5t71 -116.5t4 -158.5l-111 -573q-68 -350 -428 -350q-181 0 -278.5 106.5t-65.5 272.5zM268 362q-15 -100 35 -162.5t146 -62.5q213 0 253 205l113 586q17 87 -37 144.5t-149 57.5 q-98 0 -166 -57t-86 -145zM455 1354q-11 17 10 35l264 200q11 10 25.5 12t21.5 -8l64 -84q9 -16 3.5 -25.5t-18.5 -15.5l-299 -153q-29 -12 -45 4zM762 1354q-11 17 10 35l264 200q11 10 25.5 12t21.5 -8l64 -84q9 -16 4 -25.5t-18 -15.5l-299 -153q-29 -13 -46 4z" />
<glyph unicode="&#x151;" horiz-adv-x="917" d="M86 367l41 200q32 160 133.5 252t269.5 92q166 0 257.5 -93t60.5 -251l-45 -233q-67 -346 -414 -346q-169 0 -252.5 108t-50.5 271zM246 332q-18 -90 25.5 -146.5t138.5 -56.5q87 0 147.5 56t79.5 147l47 235q19 87 -28.5 144t-137.5 57q-88 0 -148.5 -55t-78.5 -146z M401 1020q-17 14 0 37l199 264q10 13 22.5 19t22.5 -1l84 -63q24 -19 -2 -45l-248 -227q-9 -9 -21 -12t-22 3zM668 1020q-17 14 0 37l198 264q10 13 22.5 19t22.5 -1l84 -63q24 -19 -2 -45l-248 -227q-9 -9 -21 -12t-22 3z" />
<glyph unicode="&#x152;" horiz-adv-x="1366" d="M92 264q0 38 8 74l117 594q68 348 424 348q71 0 137 -16h627q11 0 17 -6.5t5 -16.5l-20 -100q-4 -25 -27 -25h-487l-78 -385h428q24 0 21 -24l-19 -107q-6 -18 -26 -18h-428l-89 -432h541q11 0 17.5 -6.5t5.5 -16.5l-21 -102q-3 -25 -28 -25h-646q-55 -12 -127 -12 q-157 0 -254.5 72.5t-97.5 203.5zM270 342q-16 -92 30 -148.5t149 -56.5q38 0 83 10l189 971q-34 12 -84 12q-112 0 -173.5 -56t-78.5 -146z" />
<glyph unicode="&#x153;" horiz-adv-x="1449" d="M86 367l41 200q32 160 133.5 252t269.5 92q179 0 267 -102l10 -4q146 106 330 106q116 0 197 -59t81 -168q0 -61 -23 -111t-58 -83.5t-89 -58.5t-104.5 -38.5t-117 -22.5t-113 -11.5t-105.5 -4.5l-8 -43q-6 -30 -6 -59q0 -121 180 -121q53 0 113 32.5t102 72.5 q15 13 24 14t19 -8l63 -58q21 -18 11 -32q-62 -82 -159.5 -124t-203.5 -42q-172 0 -266 94l-6 -4q-105 -88 -279 -88q-169 0 -252.5 108t-50.5 271zM246 332q-18 -90 25.5 -146.5t138.5 -56.5q89 0 148 52.5t79 150.5l47 235q19 87 -28.5 144t-137.5 57q-88 0 -148.5 -55 t-78.5 -146zM827 489q74 1 141 8.5t134 24.5t107 50t40 79q0 51 -29 85t-98 34q-107 0 -181.5 -51.5t-92.5 -130.5z" />
<glyph unicode="&#x154;" horiz-adv-x="989" d="M51 23l238 1222q8 19 28 19h361q164 0 242.5 -75t78.5 -210q0 -267 -268 -430q-10 -7 -10 -14l137 -490q8 -24 -1.5 -34.5t-27.5 -10.5h-94q-27 0 -39.5 10t-17.5 31q-18 65 -61 227.5t-68 251.5h-227l-99 -495q-4 -25 -26 -25h-123q-9 0 -16 6.5t-7 16.5zM346 666h266 q10 0 35 10q64 34 106.5 89t56 99.5t13.5 81.5q0 76 -45 123t-149 47h-195zM524 1372q-11 16 13 33l282 176q11 8 25.5 9t21.5 -9l56 -90q8 -16 1 -25.5t-20 -13.5l-311 -125q-30 -13 -45 8z" />
<glyph unicode="&#x155;" horiz-adv-x="595" d="M41 18l168 859q3 20 22 20h107q19 0 16 -18l-22 -117h8q49 65 135 109t201 32q26 -3 12 -31l-47 -120q-7 -21 -31 -21q-101 2 -166 -25.5t-96 -75.5t-45 -124l-96 -486q-3 -20 -21 -20h-127q-21 0 -18 18zM381 1022q-17 14 0 37l197 262q25 33 49 14l80 -59 q24 -19 -2 -45l-248 -227q-9 -9 -21 -12t-22 3z" />
<glyph unicode="&#x156;" horiz-adv-x="989" d="M51 23l238 1222q8 19 28 19h361q164 0 242.5 -75t78.5 -210q0 -267 -268 -430q-10 -7 -10 -14l137 -490q8 -24 -1.5 -34.5t-27.5 -10.5h-94q-27 0 -39.5 10t-17.5 31q-18 65 -61 227.5t-68 251.5h-227l-99 -495q-4 -25 -26 -25h-123q-9 0 -16 6.5t-7 16.5zM248 -412.5 q-3 11.5 2 23.5l82 321q11 33 37 33h127q39 0 18 -41l-158 -323q-16 -25 -37 -25h-55q-13 0 -16 11.5zM346 666h266q10 0 35 10q64 34 106.5 89t56 99.5t13.5 81.5q0 76 -45 123t-149 47h-195z" />
<glyph unicode="&#x157;" horiz-adv-x="595" d="M-75.5 -453.5q-3.5 11.5 1.5 23.5l82 321q11 33 37 33h127q39 0 18 -41l-157 -323q-16 -25 -37 -25h-55q-13 0 -16.5 11.5zM41 18l168 859q3 20 22 20h107q19 0 16 -18l-22 -117h8q49 65 135 109t201 32q26 -3 12 -31l-47 -120q-7 -21 -31 -21q-101 2 -166 -25.5 t-96 -75.5t-45 -124l-96 -486q-3 -20 -21 -20h-127q-21 0 -18 18z" />
<glyph unicode="&#x158;" horiz-adv-x="989" d="M51 23l238 1222q8 19 28 19h361q164 0 242.5 -75t78.5 -210q0 -267 -268 -430q-10 -7 -10 -14l137 -490q8 -24 -1.5 -34.5t-27.5 -10.5h-94q-27 0 -39.5 10t-17.5 31q-18 65 -61 227.5t-68 251.5h-227l-99 -495q-4 -25 -26 -25h-123q-9 0 -16 6.5t-7 16.5zM346 666h266 q10 0 35 10q64 34 106.5 89t56 99.5t13.5 81.5q0 76 -45 123t-149 47h-195zM391 1532q-19 19 10 33l33 20q17 7 22.5 6t18.5 -10l152 -123l239 123q29 18 43 4l29 -20q20 -14 -6 -33l-240 -189q-21 -18 -49 -18h-65q-24 0 -39 18z" />
<glyph unicode="&#x159;" horiz-adv-x="595" d="M41 18l168 859q3 20 22 20h107q19 0 16 -18l-22 -117h8q49 65 135 109t201 32q26 -3 12 -31l-47 -120q-7 -21 -31 -21q-101 2 -166 -25.5t-96 -75.5t-45 -124l-96 -486q-3 -20 -21 -20h-127q-21 0 -18 18zM211 1257q-17 24 10 43l33 25q27 19 43 -4l156 -178l243 178 q17 11 23.5 12.5t21.5 -8.5l25 -25q18 -18 -6 -43l-244 -239q-23 -23 -49 -23h-68q-23 0 -39 23z" />
<glyph unicode="&#x15a;" horiz-adv-x="927" d="M33 113q-10 12 6 41l59 75q12 12 20 13.5t27 -11.5q39 -32 115.5 -60t161.5 -28q108 0 185 61t77 163q0 33 -12.5 62t-30 49.5t-47.5 41t-54.5 33t-62.5 29.5q-4 2 -38.5 17.5t-43.5 20l-41 20.5t-44 25t-38.5 27.5t-38 33t-29.5 37t-25.5 44t-14 49t-6.5 57.5 q0 87 33.5 157.5t91.5 115.5t133.5 69.5t161.5 24.5q99 0 192 -31.5t150 -87.5q12 -16 -7 -39l-57 -71q-13 -13 -22 -12.5t-25 12.5q-105 82 -227 82q-106 0 -177 -51t-71 -148q0 -36 17.5 -66.5t52 -56t63 -42t72.5 -36.5q52 -24 88 -42.5t85.5 -52.5t80 -67t53 -81 t22.5 -101q0 -189 -128.5 -294t-348.5 -105q-103 0 -198.5 30.5t-159.5 92.5zM455 1372q-11 17 12 33l283 176q11 8 25.5 9t21.5 -9l55 -90q8 -16 1.5 -25.5t-19.5 -13.5l-312 -125q-30 -13 -45 8z" />
<glyph unicode="&#x15b;" horiz-adv-x="802" d="M16 190q-3 15 13 23l102 45q14 7 23 -10q52 -125 200 -125q69 0 114.5 32.5t45.5 98.5q0 35 -30.5 59t-92.5 49q-9 4 -34 14t-37.5 15.5t-36.5 17t-37 19.5t-33 22t-31.5 26.5t-25.5 30t-21.5 36t-12.5 41.5t-5 49q0 133 88 204.5t237 71.5q97 0 175 -37t124 -102 q12 -15 -12 -35l-67 -57q-10 -11 -23.5 -10t-22.5 14q-30 42 -79.5 68t-106.5 26q-64 0 -105.5 -31t-41.5 -96q0 -38 27 -62t79 -48q12 -5 46 -20.5t48.5 -22t44.5 -21.5t44 -25t36.5 -27t33.5 -32.5t23.5 -36t17.5 -43.5t5 -49q0 -134 -98 -203t-252 -69q-115 0 -204 51 t-118 149zM406 1022q-17 14 0 37l196 262q25 33 49 14l80 -59q24 -19 -2 -45l-248 -227q-9 -9 -21 -12t-22 3z" />
<glyph unicode="&#x15c;" horiz-adv-x="927" d="M33 113q-10 12 6 41l59 75q12 12 20 13.5t27 -11.5q39 -32 115.5 -60t161.5 -28q108 0 185 61t77 163q0 33 -12.5 62t-30 49.5t-47.5 41t-54.5 33t-62.5 29.5q-4 2 -38.5 17.5t-43.5 20l-41 20.5t-44 25t-38.5 27.5t-38 33t-29.5 37t-25.5 44t-14 49t-6.5 57.5 q0 87 33.5 157.5t91.5 115.5t133.5 69.5t161.5 24.5q99 0 192 -31.5t150 -87.5q12 -16 -7 -39l-57 -71q-13 -13 -22 -12.5t-25 12.5q-105 82 -227 82q-106 0 -177 -51t-71 -148q0 -36 17.5 -66.5t52 -56t63 -42t72.5 -36.5q52 -24 88 -42.5t85.5 -52.5t80 -67t53 -81 t22.5 -101q0 -189 -128.5 -294t-348.5 -105q-103 0 -198.5 30.5t-159.5 92.5zM326 1352q-19 14 6 32l239 189q21 18 50 18h65q24 0 39 -18l147 -189q18 -18 -10 -32l-33 -21q-17 -7 -22.5 -6t-18.5 10l-151 123l-240 -123q-29 -18 -43 -4z" />
<glyph unicode="&#x15d;" horiz-adv-x="802" d="M16 190q-3 15 13 23l102 45q14 7 23 -10q52 -125 200 -125q69 0 114.5 32.5t45.5 98.5q0 35 -30.5 59t-92.5 49q-9 4 -34 14t-37.5 15.5t-36.5 17t-37 19.5t-33 22t-31.5 26.5t-25.5 30t-21.5 36t-12.5 41.5t-5 49q0 133 88 204.5t237 71.5q97 0 175 -37t124 -102 q12 -15 -12 -35l-67 -57q-10 -11 -23.5 -10t-22.5 14q-30 42 -79.5 68t-106.5 26q-64 0 -105.5 -31t-41.5 -96q0 -38 27 -62t79 -48q12 -5 46 -20.5t48.5 -22t44.5 -21.5t44 -25t36.5 -27t33.5 -32.5t23.5 -36t17.5 -43.5t5 -49q0 -134 -98 -203t-252 -69q-115 0 -204 51 t-118 149zM223 1034q-19 18 6 43l244 240q22 22 49 22h68q23 0 39 -22l149 -240q17 -24 -10 -43l-33 -24q-27 -19 -43 4l-147 180l-252 -180q-17 -11 -23.5 -12.5t-21.5 8.5z" />
<glyph unicode="&#x15e;" horiz-adv-x="927" d="M33 113q-10 12 6 41l59 75q12 12 20 13.5t27 -11.5q39 -32 115.5 -60t161.5 -28q108 0 185 61t77 163q0 33 -12.5 62t-30 49.5t-47.5 41t-54.5 33t-62.5 29.5q-4 2 -38.5 17.5t-43.5 20l-41 20.5t-44 25t-38.5 27.5t-38 33t-29.5 37t-25.5 44t-14 49t-6.5 57.5 q0 87 33.5 157.5t91.5 115.5t133.5 69.5t161.5 24.5q99 0 192 -31.5t150 -87.5q12 -16 -7 -39l-57 -71q-13 -13 -22 -12.5t-25 12.5q-105 82 -227 82q-106 0 -177 -51t-71 -148q0 -36 17.5 -66.5t52 -56t63 -42t72.5 -36.5q52 -24 88 -42.5t85.5 -52.5t80 -67t53 -81 t22.5 -101q0 -183 -120.5 -287t-327.5 -112l-41 -92h22q74 0 115 -34t41 -95q0 -78 -57.5 -131.5t-151.5 -53.5q-96 0 -155 47q-5 5 -5 11q0 8 9 20l26 41q7 10 17 10q2 0 10 -4q52 -33 100 -33q44 0 70 21t26 55q0 55 -71 55h-56q-53 0 -53 43q0 9 8 33l52 111 q-188 14 -293 119z" />
<glyph unicode="&#x15f;" horiz-adv-x="802" d="M16 190q-3 15 13 23l102 45q14 7 23 -10q52 -125 200 -125q69 0 114.5 32.5t45.5 98.5q0 35 -30.5 59t-92.5 49q-9 4 -34 14t-37.5 15.5t-36.5 17t-37 19.5t-33 22t-31.5 26.5t-25.5 30t-21.5 36t-12.5 41.5t-5 49q0 133 88 204.5t237 71.5q97 0 175 -37t124 -102 q12 -15 -12 -35l-67 -57q-10 -11 -23.5 -10t-22.5 14q-30 42 -79.5 68t-106.5 26q-64 0 -105.5 -31t-41.5 -96q0 -38 27 -62t79 -48q12 -5 46 -20.5t48.5 -22t44.5 -21.5t44 -25t36.5 -27t33.5 -32.5t23.5 -36t17.5 -43.5t5 -49q0 -131 -94.5 -200t-243.5 -72l-41 -92h23 q74 0 114.5 -34t40.5 -95q0 -78 -57 -131.5t-151 -53.5q-97 0 -156 47q-4 4 -4 11q0 9 8 20l27 41q8 10 16 10q2 0 10 -4q52 -33 101 -33q44 0 70 21t26 55q0 22 -16 38.5t-56 16.5h-55q-53 0 -53 43q0 9 8 33l53 115q-89 14 -153.5 62.5t-88.5 129.5z" />
<glyph unicode="&#x160;" horiz-adv-x="927" d="M33 113q-10 12 6 41l59 75q12 12 20 13.5t27 -11.5q39 -32 115.5 -60t161.5 -28q108 0 185 61t77 163q0 33 -12.5 62t-30 49.5t-47.5 41t-54.5 33t-62.5 29.5q-4 2 -38.5 17.5t-43.5 20l-41 20.5t-44 25t-38.5 27.5t-38 33t-29.5 37t-25.5 44t-14 49t-6.5 57.5 q0 87 33.5 157.5t91.5 115.5t133.5 69.5t161.5 24.5q99 0 192 -31.5t150 -87.5q12 -16 -7 -39l-57 -71q-13 -13 -22 -12.5t-25 12.5q-105 82 -227 82q-106 0 -177 -51t-71 -148q0 -36 17.5 -66.5t52 -56t63 -42t72.5 -36.5q52 -24 88 -42.5t85.5 -52.5t80 -67t53 -81 t22.5 -101q0 -189 -128.5 -294t-348.5 -105q-103 0 -198.5 30.5t-159.5 92.5zM369 1532q-19 19 10 33l33 20q17 7 22.5 6t18.5 -10l151 -123l240 123q29 18 43 4l28 -20q20 -14 -6 -33l-239 -189q-21 -18 -49 -18h-66q-24 0 -39 18z" />
<glyph unicode="&#x161;" horiz-adv-x="802" d="M16 190q-3 15 13 23l102 45q14 7 23 -10q52 -125 200 -125q69 0 114.5 32.5t45.5 98.5q0 35 -30.5 59t-92.5 49q-9 4 -34 14t-37.5 15.5t-36.5 17t-37 19.5t-33 22t-31.5 26.5t-25.5 30t-21.5 36t-12.5 41.5t-5 49q0 133 88 204.5t237 71.5q97 0 175 -37t124 -102 q12 -15 -12 -35l-67 -57q-10 -11 -23.5 -10t-22.5 14q-30 42 -79.5 68t-106.5 26q-64 0 -105.5 -31t-41.5 -96q0 -38 27 -62t79 -48q12 -5 46 -20.5t48.5 -22t44.5 -21.5t44 -25t36.5 -27t33.5 -32.5t23.5 -36t17.5 -43.5t5 -49q0 -134 -98 -203t-252 -69q-115 0 -204 51 t-118 149zM233 1257q-17 24 11 43l32 25q27 19 43 -4l156 -178l244 178q17 11 23.5 12.5t21.5 -8.5l24 -25q18 -18 -6 -43l-243 -239q-23 -23 -50 -23h-67q-23 0 -39 23z" />
<glyph unicode="&#x162;" horiz-adv-x="854" d="M152 -358q0 9 8 20l26 41q8 10 17 10q2 0 10 -4q52 -33 100 -33q44 0 70.5 21t26.5 55q0 22 -16 38.5t-56 16.5h-55q-54 0 -54 43q0 6 9 33l55 117h-12q-12 0 -18 6.5t-3 16.5l213 1093h-285q-12 0 -16.5 5t-1.5 18l18 102q7 23 29 23h744q12 0 17.5 -6t2.5 -15l-18 -104 q-7 -23 -31 -23h-285l-215 -1091q-3 -14 -8 -19.5t-18 -5.5h-19l-45 -102h23q74 0 114.5 -34t40.5 -95q0 -78 -57.5 -131.5t-151.5 -53.5q-96 0 -155 47q-4 4 -4 11z" />
<glyph unicode="&#x163;" horiz-adv-x="643" d="M59 -350q0 8 9 20l26 41q7 10 17 10q2 0 10 -4q50 -32 100 -32q44 0 70 20.5t26 54.5q0 22 -15.5 39t-55.5 17h-56q-53 0 -53 43q0 8 8 32l56 117q-110 49 -76 228l100 522h-106q-20 0 -17 18l21 101q3 20 20 20h109l39 197q4 17 22 22l125 29q13 3 18.5 -3t2.5 -16 l-45 -229h211q19 0 16 -18l-20 -101q-3 -20 -25 -20h-209l-94 -488q-12 -64 4 -96.5t74 -32.5q51 0 123 15q23 4 29.5 -2.5t4.5 -20.5v-86q0 -16 -5 -22.5t-21 -12.5q-60 -24 -185 -24q-22 0 -30 2l-37 -84h22q74 0 115 -34t41 -95q0 -78 -57.5 -131.5t-151.5 -53.5 q-96 0 -156 48q-4 4 -4 10z" />
<glyph unicode="&#x164;" horiz-adv-x="854" d="M170 1139l18 102q7 23 29 23h744q12 0 17.5 -6t2.5 -15l-18 -104q-7 -23 -31 -23h-285l-215 -1091q-3 -14 -8 -19.5t-18 -5.5h-125q-12 0 -18 6.5t-3 16.5l213 1093h-285q-12 0 -16.5 5t-1.5 18zM393 1532q-19 19 10 33l33 20q17 7 22.5 6t18.5 -10l152 -123l239 123 q29 18 43 4l29 -20q20 -14 -6 -33l-240 -189q-21 -18 -49 -18h-65q-24 0 -39 18z" />
<glyph unicode="&#x165;" horiz-adv-x="776" d="M102 776l21 101q3 20 20 20h109l39 197q4 17 22 22l125 29q13 3 18.5 -3t2.5 -16l-45 -229h211q19 0 16 -18l-20 -101q-3 -20 -25 -20h-209l-94 -488q-12 -64 4 -96.5t74 -32.5q51 0 123 15q23 4 29.5 -2.5t4.5 -20.5v-86q0 -16 -5 -22.5t-21 -12.5q-60 -24 -185 -24 q-242 0 -192 248l100 522h-106q-20 0 -17 18zM612.5 1027.5q-3.5 11.5 1.5 23.5l82 321q11 33 37 33h127q40 0 19 -41l-158 -324q-15 -24 -37 -24h-55q-13 0 -16.5 11.5z" />
<glyph unicode="&#x166;" horiz-adv-x="854" d="M154 662l12 61q3 9 11.5 15.5t17.5 6.5h206l72 371h-285q-12 0 -16.5 5t-1.5 18l18 102q7 23 29 23h744q12 0 17.5 -6t2.5 -15l-18 -104q-7 -23 -31 -23h-285l-74 -371h203q24 0 21 -22l-13 -61q-4 -25 -26 -25h-205l-121 -612q-3 -14 -8 -19.5t-18 -5.5h-125 q-12 0 -18 6.5t-3 16.5l119 614h-207q-22 0 -18 25z" />
<glyph unicode="&#x167;" horiz-adv-x="624" d="M27 489l12 68q6 21 20 21h131l35 180h-106q-20 0 -17 18l21 101q3 20 20 20h109l39 197q4 17 22 22l125 29q13 3 18.5 -3t2.5 -16l-45 -229h211q19 0 16 -18l-20 -101q-3 -20 -25 -20h-209l-35 -180h209q22 0 19 -19l-15 -67q-3 -21 -24 -21h-209l-39 -201 q-12 -64 4 -96.5t74 -32.5q51 0 123 15q23 4 29.5 -2.5t4.5 -20.5v-86q0 -16 -5 -22.5t-21 -12.5q-60 -24 -185 -24q-242 0 -192 248l45 235h-127q-19 0 -16 18z" />
<glyph unicode="&#x168;" horiz-adv-x="1026" d="M102 369l170 872q4 23 27 23h125q22 0 18 -21l-176 -903q-15 -93 36.5 -148t141.5 -55q111 0 178 54t85 143l176 907q4 23 28 23h123q24 0 21 -21l-178 -915q-32 -160 -150 -250t-285 -90q-82 0 -151.5 25.5t-117.5 73t-68 120.5t-3 162zM414 1393q-10 9 4 32 q39 54 88.5 86.5t99.5 32.5q42 0 107.5 -35.5t93.5 -35.5q42 0 90 63q13 17 33 4l53 -37q13 -8 -2 -35q-78 -118 -186 -118q-45 0 -109 34.5t-96 34.5q-18 0 -43.5 -18t-44.5 -43q-18 -23 -37 -8z" />
<glyph unicode="&#x169;" horiz-adv-x="940" d="M80 330l106 547q3 20 23 20h127q17 0 14 -18l-106 -547q-18 -92 21 -147.5t136 -55.5q87 0 154.5 62.5t85.5 152.5l102 533q3 20 25 20h125q19 0 16 -18l-166 -859q-6 -20 -22 -20h-121q-10 0 -13 3.5t-1 14.5l12 62h-4q-49 -50 -120.5 -71t-137.5 -21q-152 0 -219 92.5 t-37 249.5zM313 1085q-10 10 4 33q38 53 88 86t101 33q42 0 107.5 -36t93.5 -36q42 0 90 64q13 17 32 4l54 -37q13 -8 -2 -35q-79 -119 -187 -119q-45 0 -109 35t-96 35q-18 0 -43.5 -18t-44.5 -43q-18 -23 -36 -9z" />
<glyph unicode="&#x16a;" horiz-adv-x="1026" d="M102 369l170 872q4 23 27 23h125q22 0 18 -21l-176 -903q-15 -93 36.5 -148t141.5 -55q111 0 178 54t85 143l176 907q4 23 28 23h123q24 0 21 -21l-178 -915q-32 -160 -150 -250t-285 -90q-82 0 -151.5 25.5t-117.5 73t-68 120.5t-3 162zM438 1399l17 84q6 20 22 20h436 q23 0 17 -18l-17 -86q-3 -21 -22 -21h-436q-20 0 -17 21z" />
<glyph unicode="&#x16b;" horiz-adv-x="940" d="M80 330l106 547q3 20 23 20h127q17 0 14 -18l-106 -547q-18 -92 21 -147.5t136 -55.5q87 0 154.5 62.5t85.5 152.5l102 533q3 20 25 20h125q19 0 16 -18l-166 -859q-6 -20 -22 -20h-121q-10 0 -13 3.5t-1 14.5l12 62h-4q-49 -50 -120.5 -71t-137.5 -21q-152 0 -219 92.5 t-37 249.5zM371 1098l16 84q6 20 23 20h436q22 0 16 -18l-16 -86q-4 -21 -23 -21h-436q-19 0 -16 21z" />
<glyph unicode="&#x16c;" horiz-adv-x="1026" d="M102 369l170 872q4 23 27 23h125q22 0 18 -21l-176 -903q-15 -93 36.5 -148t141.5 -55q111 0 178 54t85 143l176 907q4 23 28 23h123q24 0 21 -21l-178 -915q-32 -160 -150 -250t-285 -90q-82 0 -151.5 25.5t-117.5 73t-68 120.5t-3 162zM483 1575q4 25 29 22h43 q4 2 7.5 0.5t5.5 -1t4 -2t2.5 -3t1.5 -4t1 -4.5t0.5 -5.5t0.5 -6.5q8 -62 35 -92.5t83 -30.5q110 0 164 123q5 11 7.5 15.5t9.5 8t18 2.5h43q14 1 18 -4.5t2 -17.5q-18 -109 -88.5 -178.5t-185.5 -69.5q-98 0 -157 72.5t-44 175.5z" />
<glyph unicode="&#x16d;" horiz-adv-x="940" d="M80 330l106 547q3 20 23 20h127q17 0 14 -18l-106 -547q-18 -92 21 -147.5t136 -55.5q87 0 154.5 62.5t85.5 152.5l102 533q3 20 25 20h125q19 0 16 -18l-166 -859q-6 -20 -22 -20h-121q-10 0 -13 3.5t-1 14.5l12 62h-4q-49 -50 -120.5 -71t-137.5 -21q-152 0 -219 92.5 t-37 249.5zM371 1268q3 24 28 22h43q4 2 7.5 0.5t5.5 -1t4 -2t2.5 -3t1.5 -4t1 -4.5t0.5 -5.5t0.5 -6.5q8 -62 35.5 -92.5t83.5 -30.5q110 0 164 123q5 12 7.5 16t9 7.5t17.5 2.5h43q14 1 18.5 -4.5t2.5 -17.5q-18 -109 -89 -178.5t-186 -69.5q-98 0 -156.5 72.5 t-43.5 175.5z" />
<glyph unicode="&#x16e;" horiz-adv-x="1026" d="M102 369l170 872q4 23 27 23h125q22 0 18 -21l-176 -903q-15 -93 36.5 -148t141.5 -55q111 0 178 54t85 143l176 907q4 23 28 23h123q24 0 21 -21l-178 -915q-32 -160 -150 -250t-285 -90q-82 0 -151.5 25.5t-117.5 73t-68 120.5t-3 162zM508 1468q0 94 56.5 149.5 t140.5 55.5q66 0 111.5 -40.5t45.5 -108.5q0 -88 -59.5 -141.5t-145.5 -53.5q-63 0 -106 39.5t-43 99.5zM596 1489q0 -31 21.5 -53.5t52.5 -22.5q41 0 71.5 29t30.5 71q0 38 -22.5 58t-55.5 20q-39 0 -68.5 -30.5t-29.5 -71.5z" />
<glyph unicode="&#x16f;" horiz-adv-x="940" d="M80 330l106 547q3 20 23 20h127q17 0 14 -18l-106 -547q-18 -92 21 -147.5t136 -55.5q87 0 154.5 62.5t85.5 152.5l102 533q3 20 25 20h125q19 0 16 -18l-166 -859q-6 -20 -22 -20h-121q-10 0 -13 3.5t-1 14.5l12 62h-4q-49 -50 -120.5 -71t-137.5 -21q-152 0 -219 92.5 t-37 249.5zM412 1137q0 94 56 149t140 55q66 0 112 -40.5t46 -108.5q0 -88 -59.5 -141.5t-145.5 -53.5q-63 0 -106 40t-43 100zM500 1157q0 -31 21.5 -53.5t51.5 -22.5q41 0 72 29.5t31 71.5q0 38 -22.5 58t-55.5 20q-38 0 -68 -31t-30 -72z" />
<glyph unicode="&#x170;" horiz-adv-x="1026" d="M102 369l170 872q4 23 27 23h125q22 0 18 -21l-176 -903q-15 -93 36.5 -148t141.5 -55q111 0 178 54t85 143l176 907q4 23 28 23h123q24 0 21 -21l-178 -915q-32 -160 -150 -250t-285 -90q-82 0 -151.5 25.5t-117.5 73t-68 120.5t-3 162zM416 1354q-11 17 10 35l264 200 q11 10 25.5 12t21.5 -8l64 -84q9 -16 3.5 -25.5t-18.5 -15.5l-299 -153q-29 -12 -45 4zM723 1354q-11 17 10 35l264 200q11 10 25.5 12t21.5 -8l64 -84q9 -16 4 -25.5t-18 -15.5l-299 -153q-29 -12 -45 4z" />
<glyph unicode="&#x171;" horiz-adv-x="940" d="M80 330l106 547q3 20 23 20h127q17 0 14 -18l-106 -547q-18 -92 21 -147.5t136 -55.5q87 0 154.5 62.5t85.5 152.5l102 533q3 20 25 20h125q19 0 16 -18l-166 -859q-6 -20 -22 -20h-121q-10 0 -13 3.5t-1 14.5l12 62h-4q-49 -50 -120.5 -71t-137.5 -21q-152 0 -219 92.5 t-37 249.5zM387 1020q-17 14 0 37l199 264q10 13 22.5 19t22.5 -1l84 -63q24 -19 -2 -45l-248 -227q-9 -9 -21 -12t-22 3zM653 1020q-17 14 0 37l199 264q10 13 22.5 19t22.5 -1l84 -63q24 -19 -2 -45l-248 -227q-9 -9 -21 -12t-22 3z" />
<glyph unicode="&#x172;" horiz-adv-x="1026" d="M102 369l170 872q4 23 27 23h125q22 0 18 -21l-176 -903q-15 -93 36.5 -148t141.5 -55q111 0 178 54t85 143l176 907q4 23 28 23h123q24 0 21 -21l-178 -915q-32 -157 -145.5 -246t-274.5 -94q-144 -130 -144 -224q0 -22 11.5 -32.5t42.5 -10.5q43 0 114 41q14 7 19 -2 l30 -49q5 -9 -6 -20q-89 -74 -194 -74q-73 0 -109.5 31.5t-36.5 83.5q0 63 45.5 137t110.5 131q-131 28 -198.5 124.5t-39.5 244.5z" />
<glyph unicode="&#x173;" horiz-adv-x="940" d="M80 330l106 547q3 20 23 20h127q17 0 14 -18l-106 -547q-18 -92 21 -147.5t136 -55.5q87 0 154.5 62.5t85.5 152.5l102 533q3 20 25 20h125q19 0 16 -18l-166 -859q-6 -20 -22 -20h-45q-64 -55 -110 -118.5t-46 -117.5q0 -22 11.5 -32.5t41.5 -10.5q44 0 115 41 q14 7 19 -2l30 -49q5 -9 -6 -20q-89 -74 -194 -74q-73 0 -109.5 31.5t-36.5 83.5q0 70 57.5 155.5t129.5 135.5l10 8l10 49h-4q-49 -50 -120.5 -71t-137.5 -21q-152 0 -219 92.5t-37 249.5z" />
<glyph unicode="&#x174;" horiz-adv-x="1368" d="M174 1235q0 29 29 29h119q9 0 14 -4.5t5.5 -9t0.5 -13.5l14 -651v-303h11q20 54 58.5 155t51.5 137l266 674q10 15 31 15h117q9 0 16.5 -6t7.5 -15q1 -38 6.5 -288t6.5 -377v-295h10l117 301l264 659q11 21 31 21h135q37 0 20 -35l-516 -1211q-14 -18 -24 -18h-152 q-20 0 -20 16l-11 672v248h-4q-17 -47 -52.5 -138.5t-43.5 -113.5l-262 -670q-8 -14 -27 -14h-147q-20 0 -23 12zM561 1352q-19 14 6 32l240 189q21 18 49 18h66q24 0 39 -18l147 -189q18 -18 -10 -32l-33 -21q-17 -7 -22.5 -6t-18.5 10l-152 123l-239 -123q-29 -18 -43 -4z " />
<glyph unicode="&#x175;" horiz-adv-x="1245" d="M100 860q-4 37 31 37h109q13 0 20 -5t9 -10.5t3 -15.5l101 -649l8 -2l209 420q8 15 8.5 19.5t-2.5 19.5l-31 186q-4 37 31 37h109q13 0 20 -5t9 -10.5t3 -15.5l97 -649h8l196 420q33 73 42.5 115.5t9.5 93.5q0 49 40 49h78q29 0 37 -10.5t8 -36.5q0 -74 -13 -127 t-48 -123l-287 -575q-13 -27 -47 -27h-100q-21 0 -28.5 5.5t-10.5 23.5l-72 399l-8 -2l-199 -399q-14 -27 -47 -27h-100q-21 0 -28.5 5.5t-10.5 23.5zM444 1034q-18 18 7 43l243 240q22 22 49 22h68q23 0 39 -22l149 -240q17 -24 -10 -43l-33 -24q-27 -19 -43 4l-147 180 l-252 -180q-17 -11 -23.5 -12.5t-21.5 8.5z" />
<glyph unicode="&#x176;" horiz-adv-x="862" d="M172 1229q-12 35 25 35h106q34 0 39 -25l117 -573h4q44 76 162.5 273.5t175.5 297.5q13 17 22 22t29 5h123q22 0 25 -9t-7 -24l-458 -729q-15 -21 -21 -49l-84 -428q-4 -25 -27 -25h-120q-26 0 -23 23l86 434q4 30 2 37l-176 737v-2zM311 1352q-19 14 6 32l240 189 q21 18 49 18h66q24 0 39 -18l147 -189q18 -18 -10 -32l-33 -21q-17 -7 -22.5 -6t-18.5 10l-151 123l-240 -123q-29 -18 -43 -4z" />
<glyph unicode="&#x177;" horiz-adv-x="790" d="M70 -322l168 318h-33q-19 0 -25 4.5t-8 17.5l-82 840q-4 37 31 37h96q39 0 43 -31l53 -719h4l263 492q24 48 35.5 87.5t13.5 61t2 60.5q0 49 41 49h78q29 0 37 -10.5t8 -36.5q0 -75 -13 -128.5t-49 -121.5l-491 -930q-24 -43 -70 -43h-80q-49 0 -22 53zM223 1034 q-19 18 6 43l244 240q22 22 49 22h68q23 0 39 -22l149 -240q17 -24 -10 -43l-33 -24q-27 -19 -43 4l-147 180l-252 -180q-17 -11 -23.5 -12.5t-21.5 8.5z" />
<glyph unicode="&#x178;" horiz-adv-x="862" d="M172 1229q-12 35 25 35h106q34 0 39 -25l117 -573h4q44 76 162.5 273.5t175.5 297.5q13 17 22 22t29 5h123q22 0 25 -9t-7 -24l-458 -729q-15 -21 -21 -49l-84 -428q-4 -25 -27 -25h-120q-26 0 -23 23l86 434q4 30 2 37l-176 737v-2zM346 1434q7 40 41 68t74 28t62.5 -28 t15.5 -68q-8 -40 -41.5 -68.5t-73.5 -28.5t-63 28.5t-15 68.5zM678 1434q7 40 41 68t74 28t62.5 -28t14.5 -68t-40.5 -68.5t-71.5 -28.5q-41 0 -64.5 28.5t-15.5 68.5z" />
<glyph unicode="&#x179;" horiz-adv-x="825" d="M-27 33l13 65q8 35 24 58l690 960h-462q-24 0 -19 23l19 102q7 23 28 23h617q25 0 33.5 -8.5t5.5 -28.5l-13 -60q-5 -35 -43 -84l-665 -933h499q10 0 16 -6.5t5 -16.5l-21 -102q-6 -25 -28 -25h-666q-19 0 -27.5 10t-5.5 23zM461 1372q-11 17 12 33l283 176q11 8 25.5 9 t21.5 -9l55 -90q8 -16 1.5 -25.5t-19.5 -13.5l-312 -125q-30 -13 -45 8z" />
<glyph unicode="&#x17a;" horiz-adv-x="823" d="M-2 29l10 55q9 34 25 53l540 623h-393q-11 0 -14 4t-2 14l18 99q6 20 23 20h563q23 0 30.5 -8t4.5 -27l-12 -57q-4 -34 -23 -53l-535 -613h443q22 0 16 -20l-18 -99q-3 -20 -23 -20h-626q-16 0 -23 9t-4 20zM438 1022q-17 14 0 37l197 262q25 33 49 14l80 -59 q24 -19 -2 -45l-248 -227q-9 -9 -21 -12t-22 3z" />
<glyph unicode="&#x17b;" horiz-adv-x="825" d="M-27 33l13 65q8 35 24 58l690 960h-462q-24 0 -19 23l19 102q7 23 28 23h617q25 0 33.5 -8.5t5.5 -28.5l-13 -60q-5 -35 -43 -84l-665 -933h499q10 0 16 -6.5t5 -16.5l-21 -102q-6 -25 -28 -25h-666q-19 0 -27.5 10t-5.5 23zM506 1436q7 40 41 68t74 28t62.5 -28 t14.5 -68t-41 -68.5t-73 -28.5t-63 28.5t-15 68.5z" />
<glyph unicode="&#x17c;" horiz-adv-x="823" d="M-2 29l10 55q9 34 25 53l540 623h-393q-11 0 -14 4t-2 14l18 99q6 20 23 20h563q23 0 30.5 -8t4.5 -27l-12 -57q-4 -34 -23 -53l-535 -613h443q22 0 16 -20l-18 -99q-3 -20 -23 -20h-626q-16 0 -23 9t-4 20zM453 1116q8 40 41 68t73 28t62.5 -28t15.5 -68t-41 -68 t-74 -28t-62.5 28t-14.5 68z" />
<glyph unicode="&#x17d;" horiz-adv-x="825" d="M-27 33l13 65q8 35 24 58l690 960h-462q-24 0 -19 23l19 102q7 23 28 23h617q25 0 33.5 -8.5t5.5 -28.5l-13 -60q-5 -35 -43 -84l-665 -933h499q10 0 16 -6.5t5 -16.5l-21 -102q-6 -25 -28 -25h-666q-19 0 -27.5 10t-5.5 23zM356 1538q-18 18 11 33l32 20q17 7 22.5 6 t18.5 -10l152 -123l239 123q29 18 43 4l29 -20q20 -14 -6 -33l-240 -188q-22 -19 -49 -19h-65q-23 0 -39 19z" />
<glyph unicode="&#x17e;" horiz-adv-x="823" d="M-2 29l10 55q9 34 25 53l540 623h-393q-11 0 -14 4t-2 14l18 99q6 20 23 20h563q23 0 30.5 -8t4.5 -27l-12 -57q-4 -34 -23 -53l-535 -613h443q22 0 16 -20l-18 -99q-3 -20 -23 -20h-626q-16 0 -23 9t-4 20zM291 1257q-17 24 10 43l33 25q27 19 43 -4l155 -178l244 178 q17 11 23.5 12.5t21.5 -8.5l25 -25q18 -18 -6 -43l-244 -239q-23 -23 -49 -23h-68q-23 0 -39 23z" />
<glyph unicode="&#x192;" horiz-adv-x="972" d="M-0.5 -181q-3.5 5 0.5 23l49 105q7 15 13.5 16.5t29.5 -4.5q78 -24 135 11.5t80 125.5l127 516h-137q-13 0 -19.5 5.5t-5.5 17.5l9 94q4 23 30 23h158l57 229q75 305 328 305q64 0 123 -22q18 -7 21.5 -12t-1.5 -23l-49 -105q-8 -15 -14.5 -17t-28.5 5q-72 27 -130 -3 t-79 -116l-59 -241h158q24 0 24 -23l-8 -94q-3 -23 -27 -23h-182l-117 -477q-43 -183 -134.5 -266.5t-207.5 -83.5q-64 0 -123 22q-17 7 -20.5 12z" />
<glyph unicode="&#x1fc;" horiz-adv-x="1421" d="M-25 39q104 203 302 608t290 586q12 31 47 31h826q24 0 24 -23l-14 -100q0 -25 -25 -25h-477l-51 -385h412q22 0 22 -24l-10 -107q-3 -18 -27 -18h-411l-58 -432h525q11 0 17 -6.5t5 -16.5l-12 -102q-3 -25 -27 -25h-667q-11 0 -18 6.5t-7 16.5l41 284h-401l-142 -287 q-9 -20 -30 -20h-117q-35 0 -17 39zM356 459h346l97 657h-127q-54 -112 -159.5 -332t-156.5 -325zM891 1372q-11 17 12 33l283 176q11 8 25.5 9t21.5 -9l55 -90q8 -16 1.5 -25.5t-19.5 -13.5l-312 -125q-30 -13 -45 8z" />
<glyph unicode="&#x1fd;" horiz-adv-x="1413" d="M100 262q0 149 92.5 239.5t264.5 90.5q135 0 219 -49l4 2l16 65q19 75 -33.5 117.5t-140.5 42.5q-39 0 -98.5 -14.5t-101.5 -34.5q-23 -10 -29 12l-25 96q-3 20 15 27q122 55 276 55q170 0 254 -100h4q114 100 313 100q120 0 199.5 -62t79.5 -173q0 -47 -12.5 -87 t-32.5 -69.5t-53 -53.5t-65.5 -40t-78.5 -28.5t-84 -19.5t-90.5 -12.5t-88.5 -7.5t-87 -4q-16 -82 -16 -102q0 -59 39.5 -90t134.5 -31q48 0 110 30t113 85q16 16 31 2l63 -66q15 -15 16 -24t-10 -21q-134 -151 -354 -151q-208 0 -276 123h-4q-53 -55 -129 -87t-158 -32 q-127 0 -202 71t-75 201zM254 276q0 -68 39 -111.5t108 -43.5q83 0 148.5 54.5t85.5 129.5q13 61 18 96q-27 23 -90 42.5t-114 19.5q-82 0 -138.5 -51.5t-56.5 -135.5zM786 1022q-17 14 0 37l197 262q25 33 49 14l80 -59q24 -19 -2 -45l-248 -227q-9 -9 -21 -12t-22 3z M840 489q81 2 144 9t126 23.5t98 50.5t35 83q0 47 -33 81t-98 34q-116 0 -176.5 -50.5t-77.5 -131.5z" />
<glyph unicode="&#x1fe;" horiz-adv-x="1003" d="M44 30q-2 9 3 19l78 105q-49 92 -25 213l109 565q33 165 142 256.5t282 91.5q154 0 258 -80l57 74q8 16 29 8q-2 -4 57 -33q14 -9 6 -26l-79 -109q45 -86 22 -203l-111 -573q-68 -350 -428 -350q-157 0 -251 82l-56 -76q-17 -17 -31 -10q-41 23 -53 32q-7 5 -9 14z M266 346q115 159 522 713q-52 71 -159 71q-98 0 -166 -57t-86 -145l-109 -566q-2 -6 -2 -16zM295 209q50 -72 154 -72q213 0 253 205l109 569zM592 1372q-11 17 12 33l283 176q11 8 25.5 9t21.5 -9l55 -90q8 -16 1.5 -25.5t-19.5 -13.5l-312 -125q-30 -13 -45 8z" />
<glyph unicode="&#x1ff;" horiz-adv-x="917" d="M29 45q-7 7 2 18l75 78q-47 96 -20 226l41 200q32 160 133.5 252t269.5 92q151 0 244 -80l64 66q7 6 10 6.5t12 -4.5l39 -39q8 -12 0 -20l-74 -76q44 -80 23 -197l-45 -233q-67 -346 -414 -346q-150 0 -235 88l-64 -64q-10 -14 -20 -4zM240 279l415 430q-46 59 -137 59 q-88 0 -148.5 -55t-78.5 -146l-45 -235q-6 -27 -6 -53zM266 193q42 -64 144 -64q87 0 147.5 56t79.5 147l47 235q7 34 4 58zM475 1022q-17 14 0 37l197 262q25 33 49 14l80 -59q24 -19 -2 -45l-248 -227q-9 -9 -21 -12t-22 3z" />
<glyph unicode="&#x218;" horiz-adv-x="927" d="M33 113q-10 12 6 41l59 75q12 12 20 13.5t27 -11.5q39 -32 115.5 -60t161.5 -28q108 0 185 61t77 163q0 33 -12.5 62t-30 49.5t-47.5 41t-54.5 33t-62.5 29.5q-4 2 -38.5 17.5t-43.5 20l-41 20.5t-44 25t-38.5 27.5t-38 33t-29.5 37t-25.5 44t-14 49t-6.5 57.5 q0 87 33.5 157.5t91.5 115.5t133.5 69.5t161.5 24.5q99 0 192 -31.5t150 -87.5q12 -16 -7 -39l-57 -71q-13 -13 -22 -12.5t-25 12.5q-105 82 -227 82q-106 0 -177 -51t-71 -148q0 -36 17.5 -66.5t52 -56t63 -42t72.5 -36.5q52 -24 88 -42.5t85.5 -52.5t80 -67t53 -81 t22.5 -101q0 -189 -128.5 -294t-348.5 -105q-103 0 -198.5 30.5t-159.5 92.5zM172 -453.5q-3 11.5 2 23.5l82 321q11 33 37 33h127q39 0 18 -41l-157 -323q-16 -25 -37 -25h-56q-13 0 -16 11.5z" />
<glyph unicode="&#x219;" horiz-adv-x="802" d="M16 190q-3 15 13 23l102 45q14 7 23 -10q52 -125 200 -125q69 0 114.5 32.5t45.5 98.5q0 35 -30.5 59t-92.5 49q-9 4 -34 14t-37.5 15.5t-36.5 17t-37 19.5t-33 22t-31.5 26.5t-25.5 30t-21.5 36t-12.5 41.5t-5 49q0 133 88 204.5t237 71.5q97 0 175 -37t124 -102 q12 -15 -12 -35l-67 -57q-10 -11 -23.5 -10t-22.5 14q-30 42 -79.5 68t-106.5 26q-64 0 -105.5 -31t-41.5 -96q0 -38 27 -62t79 -48q12 -5 46 -20.5t48.5 -22t44.5 -21.5t44 -25t36.5 -27t33.5 -32.5t23.5 -36t17.5 -43.5t5 -49q0 -134 -98 -203t-252 -69q-115 0 -204 51 t-118 149zM158 -453.5q-3 11.5 2 23.5l82 321q11 33 37 33h127q39 0 18 -41l-158 -323q-16 -25 -37 -25h-55q-13 0 -16 11.5z" />
<glyph unicode="&#x21a;" horiz-adv-x="854" d="M145.5 -453.5q-3.5 11.5 1.5 23.5l82 321q11 33 37 33h127q40 0 19 -41l-158 -323q-16 -25 -37 -25h-55q-13 0 -16.5 11.5zM170 1139l18 102q7 23 29 23h744q12 0 17.5 -6t2.5 -15l-18 -104q-7 -23 -31 -23h-285l-215 -1091q-3 -14 -8 -19.5t-18 -5.5h-125q-12 0 -18 6.5 t-3 16.5l213 1093h-285q-12 0 -16.5 5t-1.5 18z" />
<glyph unicode="&#x21b;" horiz-adv-x="643" d="M59.5 -453.5q-3.5 11.5 1.5 23.5l82 321q11 33 37 33h127q40 0 19 -41l-158 -323q-16 -25 -37 -25h-55q-13 0 -16.5 11.5zM102 776l21 101q3 20 20 20h109l39 197q4 17 22 22l125 29q13 3 18.5 -3t2.5 -16l-45 -229h211q19 0 16 -18l-20 -101q-3 -20 -25 -20h-209 l-94 -488q-12 -64 4 -96.5t74 -32.5q51 0 123 15q23 4 29.5 -2.5t4.5 -20.5v-86q0 -16 -5 -22.5t-21 -12.5q-60 -24 -185 -24q-242 0 -192 248l100 522h-106q-20 0 -17 18z" />
<glyph unicode="&#x259;" horiz-adv-x="862" d="M29 221q0 60 18.5 108.5t48.5 81t77.5 57t95 38t112 22t118 11.5t122.5 4q14 72 14 86q0 137 -172 137q-48 0 -110 -30t-113 -85q-16 -17 -31 -2l-64 66q-15 15 -16 24t10 21q134 151 355 151q157 0 231 -76t74 -192q0 -35 -6 -76l-41 -213q-19 -103 -59.5 -176 t-100 -114t-129 -59.5t-156.5 -18.5q-120 0 -199 62t-79 173zM195 242q0 -47 33 -81t98 -34q211 0 249 184l23 97q-89 0 -156 -7t-126 -24.5t-90 -51.5t-31 -83z" />
<glyph unicode="&#x2b9;" horiz-adv-x="481" d="M242 799q-22 15 0 51l233 432q10 16 26.5 24t30.5 1l95 -50q33 -17 0 -61l-279 -408q-26 -39 -57 -20z" />
<glyph unicode="&#x2c6;" horiz-adv-x="917" d="M285 1034q-19 18 6 43l244 240q22 22 49 22h67q23 0 39 -22l150 -240q17 -24 -11 -43l-32 -24q-27 -19 -43 4l-148 180l-252 -180q-17 -11 -23.5 -12.5t-21.5 8.5z" />
<glyph unicode="&#x2c7;" horiz-adv-x="927" d="M354 1257q-17 24 11 43l32 25q27 19 43 -4l156 -178l244 178q17 11 23.5 12.5t21.5 -8.5l24 -25q19 -18 -6 -43l-244 -239q-23 -23 -49 -23h-67q-23 0 -39 23z" />
<glyph unicode="&#x2d8;" horiz-adv-x="927" d="M389 1268q4 25 29 22h43q5 -1 8.5 0t5.5 -1t3.5 -2.5t2.5 -4t1 -5t0.5 -6t0.5 -7.5q8 -62 35.5 -92.5t83.5 -30.5q110 0 164 123q5 11 7.5 15.5t9.5 8t18 2.5h43q14 1 18 -4.5t2 -17.5q-18 -109 -88.5 -178.5t-185.5 -69.5q-98 0 -157 72.5t-44 175.5z" />
<glyph unicode="&#x2d9;" horiz-adv-x="927" d="M520 1116q7 40 41 68t74 28t62.5 -28t15.5 -68t-41 -68t-74 -28t-62.5 28t-15.5 68z" />
<glyph unicode="&#x2da;" horiz-adv-x="927" d="M446 1137q0 94 56 149t141 55q66 0 112 -40.5t46 -108.5q0 -88 -59.5 -141.5t-145.5 -53.5q-63 0 -106.5 40t-43.5 100zM535 1157q0 -31 21.5 -53.5t51.5 -22.5q41 0 72 29.5t31 71.5q0 38 -22.5 58t-55.5 20q-38 0 -68 -31t-30 -72z" />
<glyph unicode="&#x2db;" horiz-adv-x="921" d="M326 -268q0 70 57 155.5t129 135.5q26 20 57 20h66q10 0 10 -10l-6 -10q-70 -55 -127 -127.5t-57 -131.5q0 -22 11.5 -32.5t41.5 -10.5q44 0 115 41q14 7 18 -2l31 -49q5 -9 -6 -20q-89 -74 -195 -74q-73 0 -109 31.5t-36 83.5z" />
<glyph unicode="&#x2dc;" horiz-adv-x="905" d="M305 1085q-10 10 4 33q38 53 88 86t101 33q42 0 107 -36t93 -36q42 0 90 64q13 17 33 4l53 -37q13 -8 -2 -35q-79 -119 -186 -119q-45 0 -109 35t-96 35q-18 0 -43.5 -18t-44.5 -43q-18 -23 -37 -9z" />
<glyph unicode="&#x2dd;" horiz-adv-x="917" d="M360 1020q-17 14 0 37l199 264q10 13 22.5 19t22.5 -1l84 -63q24 -19 -2 -45l-248 -227q-9 -9 -21 -12t-22 3zM627 1020q-17 14 0 37l198 264q10 13 22.5 19t22.5 -1l84 -63q24 -19 -2 -45l-247 -227q-9 -9 -21 -12t-22 3z" />
<glyph unicode="&#x384;" horiz-adv-x="897" d="M518 1020q-17 14 0 37l199 264q10 13 22.5 19t22.5 -1l84 -63q24 -19 -2 -45l-248 -227q-9 -9 -21 -12t-22 3z" />
<glyph unicode="&#x385;" horiz-adv-x="929" d="M242 1137q8 40 41 68t73 28t62.5 -28t15.5 -68q-8 -40 -41.5 -68.5t-73.5 -28.5t-62.5 28.5t-14.5 68.5zM428 1020q-17 14 0 37l199 264q10 13 22.5 19t22.5 -1l84 -63q24 -19 -2 -45l-248 -227q-9 -9 -21 -12t-22 3zM735 1137q8 40 42 68t75 28q39 0 62 -28.5t16 -67.5 q-8 -40 -41.5 -68.5t-73.5 -28.5q-41 0 -64.5 28.5t-15.5 68.5z" />
<glyph unicode="&#x386;" horiz-adv-x="909" d="M-35 39l543 1206q8 19 31 19h168q21 0 26 -19l84 -1206q0 -39 -35 -39h-106q-24 0 -29 20l-12 269h-385l-115 -269q-9 -20 -31 -20h-118q-35 0 -21 39zM-14 944q-17 14 0 37l198 264q10 13 22.5 19t22.5 0l84 -64q24 -19 -2 -45l-248 -227q-8 -8 -20.5 -11.5t-22.5 3.5z M311 430h316l-19 401l-6 265h-6l-107 -258z" />
<glyph unicode="&#x387;" horiz-adv-x="436" d="M156 651q0 50 39.5 90.5t91.5 40.5q39 0 66.5 -27t27.5 -63q0 -50 -43 -89.5t-94 -39.5q-38 0 -63 25t-25 63z" />
<glyph unicode="&#x388;" horiz-adv-x="909" d="M-162 944q-17 14 0 37l199 264q10 13 22.5 19t22.5 0l84 -64q24 -19 -2 -45l-248 -227q-8 -8 -20.5 -11.5t-22.5 3.5zM53 23l238 1218q4 23 28 23h648q11 0 17 -6.5t5 -16.5l-20 -100q-4 -25 -27 -25h-504l-78 -385h428q24 0 21 -24l-18 -107q-3 -18 -27 -18h-428 l-88 -432h540q11 0 17.5 -6.5t5.5 -16.5l-20 -102q-3 -25 -29 -25h-688q-24 0 -21 23z" />
<glyph unicode="&#x389;" horiz-adv-x="1075" d="M-168 944q-17 14 0 37l199 264q10 13 22.5 19t22.5 0l84 -64q24 -19 -2 -45l-248 -227q-8 -8 -20.5 -11.5t-22.5 3.5zM53 23l236 1218q3 12 8.5 17.5t17.5 5.5h125q12 0 18 -6t3 -15l-101 -516h469l101 514q7 23 26 23h125q12 0 19 -6t4 -15l-236 -1218q-6 -25 -28 -25 h-125q-12 0 -18 6.5t-3 16.5l107 557h-467l-109 -555q-6 -25 -26 -25h-125q-12 0 -18 6.5t-3 16.5z" />
<glyph unicode="&#x38a;" horiz-adv-x="489" d="M-174 944q-17 14 0 37l199 264q10 13 22.5 19t22.5 0l84 -64q24 -19 -2 -45l-248 -227q-8 -8 -20.5 -11.5t-22.5 3.5zM74 23l235 1218q7 23 29 23h127q11 0 17 -6t3 -15l-235 -1218q-6 -25 -29 -25h-127q-11 0 -17 6.5t-3 16.5z" />
<glyph unicode="&#x38c;" horiz-adv-x="1003" d="M-135 944q-17 14 0 37l198 264q10 13 23 19t23 0l84 -64q23 -19 -3 -45l-247 -227q-8 -8 -20.5 -11.5t-22.5 3.5zM100 367l109 565q33 165 142 256.5t282 91.5q84 0 154.5 -24.5t120.5 -69.5t71 -116.5t4 -158.5l-111 -573q-68 -350 -428 -350q-181 0 -278.5 106.5 t-65.5 272.5zM268 362q-15 -100 35 -162.5t146 -62.5q213 0 253 205l113 586q17 87 -37 144.5t-149 57.5q-98 0 -166 -57t-86 -145z" />
<glyph unicode="&#x38e;" horiz-adv-x="862" d="M-231 944q-17 14 0 37l198 264q10 13 22.5 19t22.5 0l84 -64q24 -19 -2 -45l-248 -227q-8 -8 -20.5 -11.5t-22.5 3.5zM172 1229q-12 35 25 35h106q34 0 39 -25l117 -573h4q44 76 162.5 273.5t175.5 297.5q13 17 22 22t29 5h123q22 0 25 -9t-7 -24l-458 -729 q-15 -21 -21 -49l-84 -428q-4 -25 -27 -25h-120q-26 0 -23 23l86 434q4 30 2 37l-176 737v-2z" />
<glyph unicode="&#x38f;" horiz-adv-x="1009" d="M-131 944q-17 14 0 37l199 264q10 13 22.5 19t22.5 0l84 -64q24 -19 -2 -45l-248 -227q-8 -8 -20.5 -11.5t-22.5 3.5zM6 23l21 108q6 19 26 19h94v6q-34 38 -44.5 109t3.5 132l91 510q33 172 152 273.5t310 101.5q86 0 158.5 -28.5t122 -79t70 -125t4.5 -160.5l-88 -477 q-38 -204 -140 -256q-6 -6 0 -6h107q11 0 17 -6.5t5 -16.5l-20 -102q-3 -25 -27 -25h-333q-17 0 -21.5 5.5t-1.5 19.5v-2l25 139q7 13 22 16q67 12 120.5 67.5t68.5 125.5l96 524q21 102 -32 168.5t-169 66.5q-66 0 -117.5 -20.5t-83.5 -56.5t-51 -74.5t-29 -83.5 q-18 -105 -96 -522q-14 -72 15 -127.5t90 -65.5q12 -3 15.5 -8t0.5 -18l-25 -129q-5 -18 -8 -21.5t-18 -3.5h-309q-24 0 -21 23z" />
<glyph unicode="&#x390;" horiz-adv-x="450" d="M-14 1137q8 40 41 68t73 28t62.5 -28t15.5 -68q-8 -40 -41.5 -68.5t-73.5 -28.5t-62.5 28.5t-14.5 68.5zM92 195q0 42 8 81l117 601q3 20 23 20h125q19 0 16 -18l-117 -600q-4 -23 -4 -58q0 -37 23 -55.5t69 -24.5q20 -2 15 -30l-21 -105q-4 -20 -33 -20 q-117 9 -169 61.5t-52 147.5zM172 1020q-17 14 0 37l199 264q10 13 22.5 19t22.5 -1l84 -63q24 -19 -2 -45l-248 -227q-9 -9 -21 -12t-22 3zM479 1137q8 40 42 68t75 28q39 0 62 -28.5t16 -67.5q-8 -40 -41.5 -68.5t-73.5 -28.5q-41 0 -64.5 28.5t-15.5 68.5z" />
<glyph unicode="&#x391;" horiz-adv-x="909" d="M-35 39l543 1206q8 19 31 19h168q21 0 26 -19l84 -1206q0 -39 -35 -39h-106q-24 0 -29 20l-12 269h-385l-115 -269q-9 -20 -31 -20h-118q-35 0 -21 39zM311 430h316l-19 401l-6 265h-6l-107 -258z" />
<glyph unicode="&#x392;" horiz-adv-x="980" d="M53 23l240 1218q4 23 26 23h334q144 0 231 -77.5t87 -211.5q0 -98 -47 -178t-138 -121l-2 -6q61 -33 92 -103t31 -149q0 -180 -116.5 -299t-305.5 -119h-409q-26 0 -23 23zM250 150h237q119 0 183.5 74.5t64.5 189.5q0 75 -43 126.5t-127 51.5h-227zM365 737h206 q100 0 165 58.5t65 152.5q0 77 -46.5 122.5t-123.5 45.5h-193z" />
<glyph unicode="&#x393;" horiz-adv-x="839" d="M53 23l236 1218q7 23 28 23h644q11 0 17 -6t3 -15l-18 -104q-7 -23 -31 -23h-496l-211 -1091q-6 -25 -26 -25h-125q-11 0 -17.5 6.5t-3.5 16.5z" />
<glyph unicode="&#x395;" horiz-adv-x="909" d="M53 23l238 1218q4 23 28 23h648q11 0 17 -6.5t5 -16.5l-20 -100q-4 -25 -27 -25h-504l-78 -385h428q24 0 21 -24l-18 -107q-3 -18 -27 -18h-428l-88 -432h540q11 0 17.5 -6.5t5.5 -16.5l-20 -102q-3 -25 -29 -25h-688q-24 0 -21 23z" />
<glyph unicode="&#x396;" horiz-adv-x="825" d="M-27 33l13 65q8 35 24 58l690 960h-462q-24 0 -19 23l19 102q7 23 28 23h617q25 0 33.5 -8.5t5.5 -28.5l-13 -60q-5 -35 -43 -84l-665 -933h499q10 0 16 -6.5t5 -16.5l-21 -102q-6 -25 -28 -25h-666q-19 0 -27.5 10t-5.5 23z" />
<glyph unicode="&#x397;" horiz-adv-x="1075" d="M53 23l236 1218q3 12 8.5 17.5t17.5 5.5h125q12 0 18 -6t3 -15l-101 -516h469l101 514q7 23 26 23h125q12 0 19 -6t4 -15l-236 -1218q-6 -25 -28 -25h-125q-12 0 -18 6.5t-3 16.5l107 557h-467l-109 -555q-6 -25 -26 -25h-125q-12 0 -18 6.5t-3 16.5z" />
<glyph unicode="&#x398;" horiz-adv-x="1048" d="M102 381l109 551q32 162 153.5 255t297.5 93q189 0 294.5 -112t69.5 -291l-111 -539q-34 -172 -141 -261t-307 -89q-192 0 -296.5 105.5t-68.5 287.5zM270 360q-20 -101 32.5 -161t162.5 -60q121 0 190.5 54.5t89.5 148.5l113 569q17 97 -39.5 158t-163.5 61 q-117 0 -186.5 -55.5t-85.5 -146.5zM373 588l20 110q3 17 21 17h331q16 0 13 -17l-21 -110q-5 -15 -16 -15h-336q-15 0 -12 15z" />
<glyph unicode="&#x399;" horiz-adv-x="489" d="M74 23l235 1218q7 23 29 23h127q11 0 17 -6t3 -15l-235 -1218q-6 -25 -29 -25h-127q-11 0 -17 6.5t-3 16.5z" />
<glyph unicode="&#x39a;" horiz-adv-x="1021" d="M49 18l238 1225q6 21 26 21h133q20 0 17 -19l-103 -510l5 -2l530 516q15 15 31 15h147q19 0 23.5 -10t-6.5 -19l-488 -483l4 -4q49 5 113 -3q112 -15 159 -96t29 -237l-47 -392q-3 -20 -22 -20h-119q-11 0 -16.5 4.5t-4.5 13.5l47 369q4 32 5 56t-2 53t-14 49t-30 37.5 t-51.5 26.5t-77.5 9q-114 0 -186.5 -66t-95.5 -177l-70 -355q-3 -20 -20 -20h-133q-24 0 -21 18z" />
<glyph unicode="&#x39b;" horiz-adv-x="907" d="M-48 12q-5 12 3 27l575 1206q11 19 33 19h139q24 0 27 -17l102 -1206q6 -41 -34 -41h-111q-25 0 -27 18q-5 92 -41 631l-22 367h-8l-160 -365l-281 -631q-9 -20 -30 -20h-142q-18 0 -23 12z" />
<glyph unicode="&#x39c;" horiz-adv-x="1316" d="M53 23l234 1202q6 39 43 39h69q27 0 34 -5t13 -26l132 -733l40 -232h7l129 236l415 731q12 17 23 23t31 6h92q37 0 31 -37l-234 -1202q-6 -25 -27 -25h-116q-26 0 -19 23l154 794l-4 2l-131 -239l-303 -510q-22 -29 -45 -29h-80q-16 0 -24 5.5t-11 21.5l-92 495l-39 250 h-6l-154 -788q-6 -25 -27 -25h-114q-11 0 -17.5 6.5t-3.5 16.5z" />
<glyph unicode="&#x39d;" horiz-adv-x="1077" d="M53 23l232 1189q5 29 14.5 40.5t36.5 11.5h74q22 0 32 -8t17 -25l301 -897l6 -2l178 909q7 23 27 23h114q12 0 18 -6t3 -15l-234 -1202q-7 -41 -45 -41h-77q-41 0 -50 31q-48 137 -152.5 446.5t-152.5 446.5h-6l-172 -899q-6 -25 -27 -25h-116q-12 0 -18 6.5t-3 16.5z " />
<glyph unicode="&#x39e;" horiz-adv-x="925" d="M-2 25l20 102q1 10 9.5 16.5t19.5 6.5h277l86 423h-189q-21 0 -18 23l20 102q3 25 29 25h186l78 393h-278q-12 0 -17 7t-2 18l19 100q7 23 30 23h707q11 0 18 -6.5t4 -16.5l-18 -100q-7 -25 -31 -25h-274l-78 -393h201q23 0 20 -25l-20 -102q-3 -23 -27 -23h-205 l-84 -423h314q23 0 20 -23l-20 -102q-6 -25 -29 -25h-748q-26 0 -20 25z" />
<glyph unicode="&#x39f;" horiz-adv-x="1003" d="M100 367l109 565q33 165 142 256.5t282 91.5q84 0 154.5 -24.5t120.5 -69.5t71 -116.5t4 -158.5l-111 -573q-68 -350 -428 -350q-181 0 -278.5 106.5t-65.5 272.5zM268 362q-15 -100 35 -162.5t146 -62.5q213 0 253 205l113 586q17 87 -37 144.5t-149 57.5 q-98 0 -166 -57t-86 -145z" />
<glyph unicode="&#x3a0;" horiz-adv-x="1091" d="M53 23l236 1218q7 23 28 23h783q12 0 17.5 -6t2.5 -15l-235 -1218q-6 -25 -29 -25h-125q-25 0 -18 23l215 1095h-488l-213 -1093q-6 -25 -28 -25h-125q-11 0 -17.5 6.5t-3.5 16.5z" />
<glyph unicode="&#x3a1;" horiz-adv-x="954" d="M53 23l238 1218q4 23 28 23h316q154 0 252 -85.5t98 -220.5q0 -190 -121 -314t-315 -124h-227l-97 -495q-4 -25 -28 -25h-123q-24 0 -21 23zM346 666h201q113 0 188.5 75t75.5 185q0 80 -48 135t-142 55h-185z" />
<glyph unicode="&#x3a3;" horiz-adv-x="837" d="M-2 33l12 71q6 28 27 58l338 493l-150 443q-11 32 -6 55l14 72q6 39 52 39h616q12 0 18 -6t3 -15l-19 -104q-7 -23 -29 -23h-477q153 -413 154 -416q18 -52 -12 -92q-47 -64 -148 -218.5t-164 -239.5h525q9 0 15 -6.5t5 -16.5l-20 -102q-6 -25 -29 -25h-692 q-19 0 -27.5 10t-5.5 23z" />
<glyph unicode="&#x3a4;" horiz-adv-x="854" d="M170 1139l18 102q7 23 29 23h744q12 0 17.5 -6t2.5 -15l-18 -104q-7 -23 -31 -23h-285l-215 -1091q-3 -14 -8 -19.5t-18 -5.5h-125q-12 0 -18 6.5t-3 16.5l213 1093h-285q-12 0 -16.5 5t-1.5 18z" />
<glyph unicode="&#x3a5;" horiz-adv-x="862" d="M172 1229q-12 35 25 35h106q34 0 39 -25l117 -573h4q44 76 162.5 273.5t175.5 297.5q13 17 22 22t29 5h123q22 0 25 -9t-7 -24l-458 -729q-15 -21 -21 -49l-84 -428q-4 -25 -27 -25h-120q-26 0 -23 23l86 434q4 30 2 37l-176 737v-2z" />
<glyph unicode="&#x3a6;" horiz-adv-x="1112" d="M115 514l63 315q31 159 142.5 256t304.5 97l10 59q7 23 27 23h122q25 0 19 -21l-12 -59q170 -15 255.5 -118.5t55.5 -252.5l-64 -332q-11 -57 -32.5 -106.5t-58.5 -94.5t-86.5 -77t-119 -51t-153.5 -19l-21 -110q-3 -13 -8 -18t-16 -5h-125q-22 0 -19 20l21 109 q-174 15 -255.5 118.5t-49.5 266.5zM272 471q-15 -80 21.5 -130t155.5 -69l149 766q-113 -6 -175 -60.5t-79 -135.5zM612 276q108 6 175.5 57.5t82.5 137.5l72 369q16 79 -31 135t-147 63z" />
<glyph unicode="&#x3a7;" horiz-adv-x="923" d="M-41 33q337 465 451 626l-189 576q-5 13 2 21t25 8h123q31 0 37 -25v2l120 -432h7l292 432q20 23 45 23h132q30 0 18 -29q-36 -50 -187 -258.5t-233 -323.5l211 -620q5 -15 1 -24t-23 -9h-117q-13 0 -18.5 1t-12 6t-10.5 16l-144 479h-4l-329 -479q-15 -23 -47 -23h-136 q-31 0 -14 33z" />
<glyph unicode="&#x3a8;" horiz-adv-x="1142" d="M131 606l125 635q2 9 9.5 16t17.5 7h125q9 0 14.5 -6.5t5.5 -14.5l-129 -657q-32 -169 170 -193q126 659 168 867q2 10 10 17t19 7h122q24 0 21 -24l-170 -867q102 12 168 59.5t86 149.5l121 639q4 23 28 23h127q9 0 14.5 -6t4.5 -15l-123 -637q-70 -354 -457 -364 l-41 -217q-3 -25 -26 -25h-123q-22 0 -19 23l41 217q-115 7 -192.5 59t-106.5 132t-10 175z" />
<glyph unicode="&#x3a9;" horiz-adv-x="1009" d="M6 23l21 108q6 19 26 19h94v6q-34 38 -44.5 109t3.5 132l91 510q33 172 152 273.5t310 101.5q86 0 158.5 -28.5t122 -79t70 -125t4.5 -160.5l-88 -477q-38 -204 -140 -256q-6 -6 0 -6h107q11 0 17 -6.5t5 -16.5l-20 -102q-3 -25 -27 -25h-333q-17 0 -21.5 5.5t-1.5 19.5 v-2l25 139q7 13 22 16q67 12 120.5 67.5t68.5 125.5l96 524q21 102 -32 168.5t-169 66.5q-66 0 -117.5 -20.5t-83.5 -56.5t-51 -74.5t-29 -83.5q-18 -105 -96 -522q-14 -72 15 -127.5t90 -65.5q12 -3 15.5 -8t0.5 -18l-25 -129q-5 -18 -8 -21.5t-18 -3.5h-309q-24 0 -21 23z " />
<glyph unicode="&#x3aa;" horiz-adv-x="489" d="M74 23l235 1218q7 23 29 23h127q11 0 17 -6t3 -15l-235 -1218q-6 -25 -29 -25h-127q-11 0 -17 6.5t-3 16.5zM158 1434q8 40 41 68t73 28t62.5 -28t15.5 -68q-8 -40 -41 -68.5t-73 -28.5t-63 28.5t-15 68.5zM489 1434q7 40 41 68t74 28t62.5 -28t15.5 -68 q-8 -40 -40.5 -68.5t-72.5 -28.5q-41 0 -64.5 28.5t-15.5 68.5z" />
<glyph unicode="&#x3ab;" horiz-adv-x="862" d="M172 1229q-12 35 25 35h106q34 0 39 -25l117 -573h4q44 76 162.5 273.5t175.5 297.5q13 17 22 22t29 5h123q22 0 25 -9t-7 -24l-458 -729q-15 -21 -21 -49l-84 -428q-4 -25 -27 -25h-120q-26 0 -23 23l86 434q4 30 2 37l-176 737v-2zM344 1434q7 40 41 68t74 28t62.5 -28 t15.5 -68q-8 -40 -41.5 -68.5t-73.5 -28.5t-63 28.5t-15 68.5zM676 1434q7 40 41 68t74 28t62.5 -28t14.5 -68t-40.5 -68.5t-71.5 -28.5q-41 0 -64.5 28.5t-15.5 68.5z" />
<glyph unicode="&#x3ac;" horiz-adv-x="927" d="M76 332l47 237q66 338 389 338q59 0 117 -20.5t98 -57.5l10 -2l13 50q6 20 26 20h113q21 0 16 -18l-168 -859q-3 -20 -24 -20h-119q-17 0 -14 18l8 41h-8q-93 -69 -226 -69q-100 0 -170.5 48t-98 126t-9.5 168zM238 332q-18 -88 22 -145.5t137 -57.5q94 0 158.5 62 t79.5 141l47 237q15 85 -35.5 143t-146.5 58q-83 0 -139 -55.5t-74 -145.5zM518 1020q-17 14 0 37l199 264q10 13 22.5 19t22.5 -1l84 -63q24 -19 -2 -45l-248 -227q-9 -9 -21 -12t-22 3z" />
<glyph unicode="&#x3ad;" horiz-adv-x="798" d="M74 326l45 235q15 77 42 136.5t72 109t116 76t165 26.5q101 0 182 -41t125 -118q13 -23 -16 -45l-72 -52q-14 -8 -26.5 -4t-18.5 17q-27 49 -79.5 75.5t-112.5 26.5q-87 0 -140 -52.5t-71 -142.5l-9 -36h297q18 0 15 -19l-21 -98q-3 -19 -22 -19h-293l-16 -82 q-35 -192 161 -192q71 0 118 27.5t118 93.5q11 11 31 -2l63 -53q16 -13 16.5 -24t-10.5 -22q-75 -84 -155.5 -121.5t-186.5 -37.5q-168 0 -257.5 92t-59.5 246zM465 1020q-17 14 0 37l199 264q10 13 22.5 19t22.5 -1l84 -63q24 -19 -2 -45l-248 -227q-9 -9 -21 -12t-22 3z " />
<glyph unicode="&#x3ae;" horiz-adv-x="946" d="M35 18l166 859q6 20 22 20h121q10 0 13 -3.5t1 -14.5l-12 -72l10 -2q51 51 118 77.5t124 26.5q153 0 224 -93t42 -249l-168 -846q-3 -20 -22 -20h-127q-18 0 -15 18l168 846q18 92 -21 147.5t-136 55.5q-87 0 -154.5 -62.5t-85.5 -152.5l-102 -533q-3 -20 -25 -20h-125 q-19 0 -16 18zM457 1020q-17 14 0 37l198 264q10 13 22.5 19t22.5 -1l84 -63q24 -19 -2 -45l-247 -227q-9 -9 -21 -12t-22 3z" />
<glyph unicode="&#x3af;" horiz-adv-x="436" d="M92 195q0 42 8 81l117 601q3 20 23 20h125q19 0 16 -18l-117 -600q-4 -23 -4 -58q0 -37 23 -55.5t69 -24.5q20 -2 15 -30l-21 -105q-4 -20 -33 -20q-117 9 -169 61.5t-52 147.5zM293 1020q-17 14 0 37l199 264q10 13 22.5 19t22.5 -1l84 -63q23 -19 -3 -45l-247 -227 q-9 -9 -21 -12t-22 3z" />
<glyph unicode="&#x3b0;" horiz-adv-x="929" d="M88 317l109 560q6 20 24 20h123q22 0 16 -20l-108 -560q-16 -83 26.5 -140.5t131.5 -57.5q91 0 155 56.5t80 141.5l109 560q6 20 24 20h127q21 0 15 -20l-109 -560q-30 -154 -136 -245.5t-267 -91.5q-167 0 -258 92.5t-62 244.5zM233 1137q7 40 41 68t74 28t62.5 -28 t15.5 -68q-8 -40 -41.5 -68.5t-73.5 -28.5t-63 28.5t-15 68.5zM420 1020q-17 14 0 37l198 264q10 13 23 19t23 -1l84 -63q23 -19 -3 -45l-247 -227q-9 -9 -21 -12t-22 3zM727 1137q8 40 42 68t75 28q39 0 62 -28.5t16 -67.5q-8 -40 -41.5 -68.5t-73.5 -28.5 q-41 0 -64.5 28.5t-15.5 68.5z" />
<glyph unicode="&#x3b1;" horiz-adv-x="927" d="M76 332l47 237q66 338 389 338q59 0 117 -20.5t98 -57.5l10 -2l13 50q6 20 26 20h113q21 0 16 -18l-168 -859q-3 -20 -24 -20h-119q-17 0 -14 18l8 41h-8q-93 -69 -226 -69q-100 0 -170.5 48t-98 126t-9.5 168zM238 332q-18 -88 22 -145.5t137 -57.5q94 0 158.5 62 t79.5 141l47 237q15 85 -35.5 143t-146.5 58q-83 0 -139 -55.5t-74 -145.5z" />
<glyph unicode="&#x3b2;" horiz-adv-x="937" d="M-29 -281l230 1233q31 155 133.5 254t263.5 99q150 0 232.5 -74t82.5 -199q0 -91 -46.5 -169.5t-116.5 -106.5l-2 -6q68 -32 84.5 -97.5t3.5 -160.5l-23 -168q-21 -150 -117.5 -242t-257.5 -92q-147 0 -223 73l-8 3l-70 -345q-3 -20 -22 -20h-127q-20 0 -17 18zM254 324 q-15 -82 35 -139.5t147 -57.5q98 0 147 52.5t66 144.5l27 188q12 85 -32 132.5t-130 47.5h-90q-9 0 -13.5 5.5t-2.5 13.5l18 96q5 18 20 18h99q87 0 143 47.5t62 131.5q4 69 -39.5 112t-112.5 43q-89 0 -150 -54.5t-77 -137.5z" />
<glyph unicode="&#x3b3;" horiz-adv-x="782" d="M76 858q-4 37 30 37h109q18 0 24.5 -8t8.5 -23l86 -600l8 -2l215 375q10 18 18.5 35.5t13.5 30t9 29t6 24t3 25t1 20.5v23v22q0 49 41 49h84q29 0 37 -10.5t8 -36.5q0 -82 -11.5 -134.5t-49.5 -115.5l-328 -530q-28 -51 -35 -97l-61 -317q-4 -25 -31 -25h-121 q-22 0 -18 25l78 383q9 51 4 80z" />
<glyph unicode="&#x3b4;" horiz-adv-x="929" d="M94 338l41 203q20 99 85.5 187t160.5 126l2 6q-34 20 -56 47t-28.5 50.5t-10 46t0.5 34.5q7 74 41.5 128t87 83t110 42.5t121.5 13.5q159 0 248 -52q16 -8 6 -28l-33 -86q-13 -21 -30 -15q-53 25 -119 36.5t-121 4.5q-120 -17 -137 -108q-7 -37 39.5 -75t122.5 -78 t92 -52q87 -58 117 -129t8 -186l-41 -220q-31 -161 -130 -249t-286 -88q-159 0 -240.5 101.5t-50.5 256.5zM252 317q-16 -84 23 -140t131 -56q97 0 157 54.5t78 141.5l43 230q36 172 -168 237q-80 -22 -142 -89.5t-79 -153.5z" />
<glyph unicode="&#x3b5;" horiz-adv-x="823" d="M74 326l45 235q15 77 42 136.5t72 109t116 76t165 26.5q101 0 182 -41t125 -118q13 -23 -16 -45l-72 -52q-14 -8 -26.5 -4t-18.5 17q-27 49 -79.5 75.5t-112.5 26.5q-87 0 -140 -52.5t-71 -142.5l-9 -36h297q18 0 15 -19l-21 -98q-3 -19 -22 -19h-293l-16 -82 q-35 -192 161 -192q71 0 118 27.5t118 93.5q11 11 31 -2l63 -53q16 -13 16.5 -24t-10.5 -22q-75 -84 -155.5 -121.5t-186.5 -37.5q-168 0 -257.5 92t-59.5 246z" />
<glyph unicode="&#x3b6;" horiz-adv-x="778" d="M63 338q0 85 45.5 179t115 175.5t162.5 165t177.5 145t171.5 115.5l-4 4h-416q-22 0 -26.5 9t-1.5 30l14 80q6 29 37 29h637q23 0 32.5 -9t6.5 -24l-15 -68q-9 -40 -32 -53q-67 -36 -156.5 -96.5t-193 -145t-190.5 -171t-144.5 -179.5t-57.5 -166q0 -31 9 -58t21.5 -47.5 t40 -42t49.5 -35.5t66.5 -34t74.5 -32t89 -35q81 -31 107 -68t16 -90q-12 -70 -159 -248q-13 -16 -27 -16q-4 0 -16 4l-68 43q-17 6 -14 22q5 14 10 21l61 88q27 43 31 61q4 26 -10 41.5t-55 30.5q-138 50 -193 80q-195 107 -195 295z" />
<glyph unicode="&#x3b7;" horiz-adv-x="946" d="M35 18l166 859q6 20 22 20h121q10 0 13 -3.5t1 -14.5l-12 -72l10 -2q51 51 118 77.5t124 26.5q153 0 224 -93t42 -249l-168 -846q-3 -20 -22 -20h-127q-18 0 -15 18l168 846q18 92 -21 147.5t-136 55.5q-87 0 -154.5 -62.5t-85.5 -152.5l-102 -533q-3 -20 -25 -20h-125 q-19 0 -16 18z" />
<glyph unicode="&#x3b8;" horiz-adv-x="931" d="M94 344l115 625q28 155 134.5 245.5t268.5 90.5q166 0 256.5 -93.5t63.5 -242.5l-117 -641q-29 -156 -134 -248t-273 -92q-171 0 -256.5 100.5t-57.5 255.5zM258 324q-14 -87 25.5 -141t130.5 -54q89 0 154 57.5t81 139.5l53 284h-395zM334 750h395l43 219 q15 79 -32 136.5t-130 57.5q-90 0 -154 -55t-79 -139z" />
<glyph unicode="&#x3b9;" horiz-adv-x="471" d="M92 195q0 42 8 81l117 601q3 20 23 20h125q19 0 16 -18l-117 -600q-4 -23 -4 -58q0 -37 23 -55.5t69 -24.5q20 -2 15 -30l-21 -105q-4 -20 -33 -20q-117 9 -169 61.5t-52 147.5z" />
<glyph unicode="&#x3ba;" horiz-adv-x="894" d="M37 18l168 863q7 20 22 20h127q20 0 17 -18l-72 -369h6l414 373q10 10 31 10h151q10 0 15.5 -5t3.5 -13q-2 -6 -15 -19l-342 -305l2 -4q55 0 99 -12q173 -51 135 -318l-27 -186q-5 -20 -12 -27.5t-23 -7.5h-108q-31 0 -25 29l27 190q8 40 5.5 76.5t-13.5 64.5t-48 45 t-98 17q-97 0 -156.5 -57t-78.5 -144l-39 -201q-3 -20 -23 -20h-125q-21 0 -18 18z" />
<glyph unicode="&#x3bb;" horiz-adv-x="970" d="M37 18l94 510q30 165 127 261t254 96q62 0 115 -14t112 -56h9l30 148q16 85 -24.5 136.5t-145.5 51.5q-82 0 -184 -41q-40 -14 -47 12l-27 74q-4 19 2 28t25 19q51 28 124 42.5t136 14.5q165 0 249 -94.5t56 -240.5l-182 -945q-3 -20 -25 -20h-125q-19 0 -14 18l96 502 q21 108 -17.5 169t-139.5 61q-50 0 -90 -17t-64 -41.5t-42 -62t-26.5 -67t-15.5 -68.5l-94 -474q-3 -20 -25 -20h-125q-19 0 -16 18z" />
<glyph unicode="&#x3bd;" horiz-adv-x="776" d="M49 860q-4 37 31 37h108q18 0 24.5 -8t8.5 -23l117 -641h8l205 412q33 72 42 114.5t9 94.5q0 49 41 49h78q29 0 37 -10.5t8 -36.5q0 -74 -13 -127t-48 -123l-295 -575q-14 -27 -48 -27h-100q-21 0 -28.5 5.5t-10.5 23.5z" />
<glyph unicode="&#x3be;" horiz-adv-x="724" d="M33 285q0 112 71.5 215t184.5 139v4q-124 49 -121 180q0 97 83.5 178t192.5 129v7h-225q-23 0 -29.5 8t-3.5 29l17 81q6 29 43 29h635q22 0 31 -8t6 -23l-13 -63q-3 -20 -9.5 -29t-21.5 -12q-251 -58 -394.5 -138t-143.5 -169q0 -59 52.5 -95t135.5 -36h168q20 0 28 -7.5 t5 -21.5l-12 -70q-5 -21 -14.5 -29t-32.5 -8h-166q-107 0 -203 -85.5t-96 -192.5q0 -22 7 -41t16.5 -33t28.5 -27t32 -20.5t39.5 -16.5t39.5 -12.5t42 -11.5t38 -10q4 -1 31.5 -8t35.5 -9.5t32.5 -10t34 -12.5t28.5 -14.5t27 -18.5t18.5 -21t14.5 -26.5t4 -31.5 q0 -99 -160 -299q-17 -20 -43 -10l-74 43q-28 11 -6 43q41 60 61 93.5t22 38.5t5 18q5 28 -18.5 50t-104.5 40q-148 33 -233.5 105.5t-85.5 189.5z" />
<glyph unicode="&#x3bf;" horiz-adv-x="917" d="M86 367l41 200q32 160 133.5 252t269.5 92q166 0 257.5 -93t60.5 -251l-45 -233q-67 -346 -414 -346q-169 0 -252.5 108t-50.5 271zM246 332q-18 -90 25.5 -146.5t138.5 -56.5q87 0 147.5 56t79.5 147l47 235q19 87 -28.5 144t-137.5 57q-88 0 -148.5 -55t-78.5 -146z " />
<glyph unicode="&#x3c0;" horiz-adv-x="940" d="M31 18l166 859q3 20 24 20h680q20 0 17 -18l-166 -859q-3 -20 -23 -20h-125q-17 0 -14 18l145 738h-393l-145 -736q-3 -20 -25 -20h-125q-19 0 -16 18z" />
<glyph unicode="&#x3c1;" horiz-adv-x="911" d="M-53 -352l178 913q33 169 137 259.5t279 90.5q156 0 246 -92t63 -241l-43 -230q-32 -175 -134 -268.5t-233 -93.5q-154 0 -233 73h-8l-84 -409q-6 -21 -25 -21h-125q-18 0 -18 19zM244 330q-16 -86 29 -143.5t139 -57.5q84 0 148 57t79 144l45 237q15 88 -29.5 144.5 t-136.5 56.5q-89 0 -149 -56t-78 -147z" />
<glyph unicode="&#x3c2;" horiz-adv-x="774" d="M2 190q-3 15 12 23l103 45q14 7 22 -10q24 -56 78.5 -90.5t122.5 -34.5q72 0 125 33t53 98q0 35 -32.5 58t-96.5 50q-8 3 -40.5 16.5t-47.5 20.5t-46.5 23t-48.5 28.5t-40.5 33t-35.5 41t-21 47.5t-9 57q0 65 22 115.5t56 81t80 50.5t88.5 27.5t85.5 7.5q152 0 260 -55 q34 -17 23 -41l-37 -78q-12 -25 -47 -10q-39 21 -95 34t-94 13q-75 0 -125.5 -28.5t-50.5 -96.5q0 -37 27.5 -61t81.5 -49q16 -7 52.5 -23t55.5 -24.5t51 -25.5t49.5 -29.5t40 -33t34 -40t20 -46t8.5 -55.5q0 -131 -99 -201.5t-251 -70.5q-117 0 -211 51.5t-123 148.5z" />
<glyph unicode="&#x3c3;" horiz-adv-x="921" d="M74 330l45 225q30 154 131 248t254 94h459q22 0 16 -18l-18 -101q-3 -18 -23 -18h-133l-4 -8q31 -34 40.5 -91t-1.5 -100l-45 -231q-31 -162 -134.5 -252t-271.5 -90q-163 0 -253 99t-62 243zM236 330q-15 -85 28.5 -143t128.5 -58q92 0 156.5 57t79.5 144l45 225 q15 85 -30 143t-134 58q-86 0 -150 -57t-79 -142z" />
<glyph unicode="&#x3c4;" horiz-adv-x="661" d="M102 776l19 101q6 20 20 20h521q22 0 16 -18l-19 -101q-3 -20 -24 -20h-203l-98 -490q-10 -57 9.5 -93t76.5 -36q47 0 90 15q31 11 31 -11l2 -102q1 -16 -5.5 -23t-23.5 -12q-59 -16 -145 -16q-116 0 -169.5 68.5t-31.5 179.5l98 520h-147q-20 0 -17 18z" />
<glyph unicode="&#x3c5;" horiz-adv-x="929" d="M88 317l109 560q6 20 24 20h123q22 0 16 -20l-108 -560q-16 -83 26.5 -140.5t131.5 -57.5q91 0 155 56.5t80 141.5l109 560q6 20 24 20h127q21 0 15 -20l-109 -560q-30 -154 -136 -245.5t-267 -91.5q-167 0 -258 92.5t-62 244.5z" />
<glyph unicode="&#x3c6;" horiz-adv-x="1087" d="M76 358l39 215q21 107 91 192.5t171 121.5q17 8 28.5 5t18.5 -24l33 -90q5 -18 -23 -30q-56 -22 -99.5 -70t-53.5 -103l-50 -251q-15 -76 34 -137t138 -68l152 772q3 20 23 20h106q109 0 194 -38.5t129.5 -119t24.5 -188.5l-45 -241q-65 -336 -446 -344l-62 -330 q-6 -21 -24 -21h-125q-21 0 -15 19l64 332q-162 9 -247 113.5t-56 264.5zM569 123q107 3 170.5 57.5t81.5 143.5l45 239q17 87 -18.5 142t-151.5 63z" />
<glyph unicode="&#x3c7;" horiz-adv-x="798" d="M-55 9q-2 9 8 20l362 440l-172 397q-6 12 1 21.5t22 9.5h110q16 0 22 -1t11 -5.5t10 -16.5l101 -274h4l219 274q13 16 21 19.5t30 3.5h127q15 0 17 -9.5t-7 -21.5l-329 -397l192 -440q7 -11 2.5 -20t-20.5 -9h-117q-34 0 -43 25l-123 313h-4l-244 -313q-20 -25 -51 -25 h-131q-16 0 -18 9z" />
<glyph unicode="&#x3c8;" horiz-adv-x="1095" d="M78 346l104 531q6 20 23 20h125q22 0 16 -18l-106 -555q-17 -84 29.5 -140t136.5 -65l161 817q3 20 25 20h125q17 0 14 -20l-160 -815q93 7 164 64.5t86 136.5l107 555q3 11 7.5 15.5t14.5 4.5h125q23 0 17 -18l-107 -555q-14 -71 -47 -131.5t-85.5 -109.5t-130.5 -77.5 t-175 -30.5l-64 -325q-3 -21 -24 -21h-125q-21 0 -15 19l62 327q-162 7 -247.5 114t-55.5 257z" />
<glyph unicode="&#x3c9;" horiz-adv-x="1294" d="M86 344l45 234q29 156 129 246t272 87q11 0 16 -0.5t9.5 -5.5t3.5 -14l-20 -105q-6 -18 -23 -18q-91 0 -151 -56t-74 -137l-47 -237q-35 -205 112 -205q72 0 121.5 51.5t67.5 139.5l61 317q0 18 23 18h125q19 0 16 -16l-61 -319q-19 -92 9.5 -142.5t102.5 -50.5 q72 0 123 51t72 156l47 237q14 76 -28 132.5t-124 60.5q-21 0 -16 18l21 105q2 25 30 20q150 -11 227.5 -101t51.5 -235l-45 -245q-27 -154 -117 -248t-248 -94q-87 0 -146.5 34t-84.5 87h-6q-49 -61 -108 -91t-140 -30q-145 0 -210 102.5t-36 253.5z" />
<glyph unicode="&#x3ca;" horiz-adv-x="436" d="M92 195q0 42 8 81l117 601q3 20 23 20h125q19 0 16 -18l-117 -600q-4 -23 -4 -58q0 -37 23 -55.5t69 -24.5q20 -2 15 -30l-21 -105q-4 -20 -33 -20q-117 9 -169 61.5t-52 147.5zM96 1116q7 40 41 68t74 28t62.5 -28t15.5 -68t-41 -68t-74 -28t-62.5 28t-15.5 68z M428 1116q7 40 41 68t74 28t62.5 -28t15.5 -68q-8 -40 -40.5 -68t-72.5 -28q-41 0 -64.5 28t-15.5 68z" />
<glyph unicode="&#x3cb;" horiz-adv-x="929" d="M88 317l109 560q6 20 24 20h123q22 0 16 -20l-108 -560q-16 -83 26.5 -140.5t131.5 -57.5q91 0 155 56.5t80 141.5l109 560q6 20 24 20h127q21 0 15 -20l-109 -560q-30 -154 -136 -245.5t-267 -91.5q-167 0 -258 92.5t-62 244.5zM354 1116q7 40 41 68t74 28t62.5 -28 t15.5 -68t-41 -68t-74 -28t-62.5 28t-15.5 68zM686 1116q7 40 41 68t74 28t62.5 -28t15.5 -68q-8 -40 -40.5 -68t-72.5 -28q-41 0 -64.5 28t-15.5 68z" />
<glyph unicode="&#x3cc;" horiz-adv-x="917" d="M86 367l41 200q32 160 133.5 252t269.5 92q166 0 257.5 -93t60.5 -251l-45 -233q-67 -346 -414 -346q-169 0 -252.5 108t-50.5 271zM246 332q-18 -90 25.5 -146.5t138.5 -56.5q87 0 147.5 56t79.5 147l47 235q19 87 -28.5 144t-137.5 57q-88 0 -148.5 -55t-78.5 -146z M520 1020q-17 14 0 37l199 264q10 13 22.5 19t22.5 -1l84 -63q24 -19 -2 -45l-248 -227q-9 -9 -21 -12t-22 3z" />
<glyph unicode="&#x3cd;" horiz-adv-x="929" d="M88 317l109 560q6 20 24 20h123q22 0 16 -20l-108 -560q-16 -83 26.5 -140.5t131.5 -57.5q91 0 155 56.5t80 141.5l109 560q6 20 24 20h127q21 0 15 -20l-109 -560q-30 -154 -136 -245.5t-267 -91.5q-167 0 -258 92.5t-62 244.5zM510 1020q-17 14 0 37l199 264 q10 13 22.5 19t22.5 -1l84 -63q24 -19 -2 -45l-248 -227q-9 -9 -21 -12t-22 3z" />
<glyph unicode="&#x3ce;" horiz-adv-x="1294" d="M86 344l45 234q29 156 129 246t272 87q11 0 16 -0.5t9.5 -5.5t3.5 -14l-20 -105q-6 -18 -23 -18q-91 0 -151 -56t-74 -137l-47 -237q-35 -205 112 -205q72 0 121.5 51.5t67.5 139.5l61 317q0 18 23 18h125q19 0 16 -16l-61 -319q-19 -92 9.5 -142.5t102.5 -50.5 q72 0 123 51t72 156l47 237q14 76 -28 132.5t-124 60.5q-21 0 -16 18l21 105q2 25 30 20q150 -11 227.5 -101t51.5 -235l-45 -245q-27 -154 -117 -248t-248 -94q-87 0 -146.5 34t-84.5 87h-6q-49 -61 -108 -91t-140 -30q-145 0 -210 102.5t-36 253.5zM684 1020q-17 14 0 37 l199 264q10 13 22.5 19t22.5 -1l84 -63q24 -19 -2 -45l-248 -227q-9 -9 -21 -12t-22 3z" />
<glyph unicode="&#x401;" horiz-adv-x="909" d="M53 23l238 1218q4 23 28 23h648q11 0 17 -6.5t5 -16.5l-20 -100q-4 -25 -27 -25h-504l-78 -385h428q24 0 21 -24l-18 -107q-3 -18 -27 -18h-428l-88 -432h540q11 0 17.5 -6.5t5.5 -16.5l-20 -102q-3 -25 -29 -25h-688q-24 0 -21 23zM393 1434q7 40 41 68t74 28t62.5 -28 t15.5 -68q-8 -40 -41.5 -68.5t-73.5 -28.5t-63 28.5t-15 68.5zM725 1434q7 40 41 68t74 28t62.5 -28t15.5 -68q-8 -40 -40.5 -68.5t-72.5 -28.5q-41 0 -64.5 28.5t-15.5 68.5z" />
<glyph unicode="&#x402;" horiz-adv-x="1267" d="M188 1139l19 102q7 23 29 23h866q12 0 17.5 -6t2.5 -15l-18 -104q-7 -23 -31 -23h-432l-61 -328l2 -4q128 43 276 43q164 0 240 -95.5t45 -256.5l-29 -166q-26 -126 -62 -194q-101 -185 -345 -199q-16 -1 -27 -1t-16.5 5.5t-4.5 18.5l9 106q1 13 10 21t16.5 9.5t22.5 2.5 q52 5 91.5 23.5t62 41t39 58.5t23 61.5t13.5 63.5l23 123q12 47 10 88.5t-17 73t-57 49.5t-110 18q-118 0 -248 -64l-117 -591q-3 -23 -27 -23h-122q-12 0 -18.5 5.5t-4.5 14.5l215 1096h-266q-24 0 -19 23z" />
<glyph unicode="&#x403;" horiz-adv-x="839" d="M53 23l236 1218q7 23 28 23h644q11 0 17 -6t3 -15l-18 -104q-7 -23 -31 -23h-496l-211 -1091q-6 -25 -26 -25h-125q-11 0 -17.5 6.5t-3.5 16.5zM477 1372q-11 17 12 33l283 176q11 8 25.5 9t21.5 -9l55 -90q8 -16 1.5 -25.5t-19.5 -13.5l-311 -125q-30 -13 -45 8z" />
<glyph unicode="&#x404;" horiz-adv-x="888" d="M92 268q0 49 8 88l109 576q32 167 131.5 257.5t271.5 90.5q247 0 349 -166q10 -20 -17 -41l-74 -57q-27 -17 -45 8q-88 109 -209 109q-95 0 -156 -55.5t-81 -143.5q-34 -179 -39 -211h383q29 0 20 -27v2l-18 -106q-6 -19 -25 -19h-389l-47 -237q-4 -28 -4.5 -56t11 -54 t30.5 -45.5t54 -31.5t81 -12q78 0 126 26t95 75q30 30 52 12l88 -74q12 -12 -4 -35q-81 -88 -164.5 -120.5t-179.5 -32.5q-168 0 -262.5 72t-94.5 208z" />
<glyph unicode="&#x405;" horiz-adv-x="927" d="M33 113q-10 12 6 41l59 75q12 12 20 13.5t27 -11.5q39 -32 115.5 -60t161.5 -28q108 0 185 61t77 163q0 33 -12.5 62t-30 49.5t-47.5 41t-54.5 33t-62.5 29.5q-4 2 -38.5 17.5t-43.5 20l-41 20.5t-44 25t-38.5 27.5t-38 33t-29.5 37t-25.5 44t-14 49t-6.5 57.5 q0 87 33.5 157.5t91.5 115.5t133.5 69.5t161.5 24.5q99 0 192 -31.5t150 -87.5q12 -16 -7 -39l-57 -71q-13 -13 -22 -12.5t-25 12.5q-105 82 -227 82q-106 0 -177 -51t-71 -148q0 -36 17.5 -66.5t52 -56t63 -42t72.5 -36.5q52 -24 88 -42.5t85.5 -52.5t80 -67t53 -81 t22.5 -101q0 -189 -128.5 -294t-348.5 -105q-103 0 -198.5 30.5t-159.5 92.5z" />
<glyph unicode="&#x406;" horiz-adv-x="489" d="M74 23l235 1218q7 23 29 23h127q11 0 17 -6t3 -15l-235 -1218q-6 -25 -29 -25h-127q-11 0 -17 6.5t-3 16.5z" />
<glyph unicode="&#x407;" horiz-adv-x="489" d="M74 23l235 1218q7 23 29 23h127q11 0 17 -6t3 -15l-235 -1218q-6 -25 -29 -25h-127q-11 0 -17 6.5t-3 16.5zM166 1434q7 40 41 68t74 28t62.5 -28t14.5 -68t-41 -68.5t-73 -28.5t-63 28.5t-15 68.5zM498 1434q8 40 41 68t73 28t62.5 -28t15.5 -68q-8 -40 -40.5 -68.5 t-71.5 -28.5q-41 0 -64.5 28.5t-15.5 68.5z" />
<glyph unicode="&#x408;" horiz-adv-x="548" d="M-150 -129q-2 19 5.5 31t35.5 16q77 11 130.5 36t87.5 68.5t53 93.5t33 124l194 997q9 27 33 27h108q14 0 21.5 -8t5.5 -19l-188 -989q-17 -85 -36.5 -147t-55 -128t-82.5 -108.5t-120.5 -72t-168.5 -34.5q-30 -1 -37 3t-10 24z" />
<glyph unicode="&#x409;" horiz-adv-x="1630" d="M-41 68q-8 27 16 36q40 15 70.5 31.5t59 43t49 55.5t42 76.5t38.5 99.5t37 132.5t38.5 165.5t42.5 207l62 330q8 19 28 19h648q13 -3 17.5 -7.5t4.5 -13.5l-98 -495h223q157 0 248.5 -94.5t91.5 -237.5q0 -180 -119 -298t-303 -118h-428q-12 0 -18.5 9t-6.5 18 q62 318 218 1091h-371l-37 -200q-28 -143 -47.5 -237t-44 -189.5t-44.5 -154t-48 -117t-56.5 -92.5t-68 -66t-84 -52.5t-103.5 -38.5q-12 -6 -20 -2t-10 7t-6 14zM895 150h244q128 0 196 78t68 188q0 84 -51.5 133t-137.5 49h-227z" />
<glyph unicode="&#x40a;" horiz-adv-x="1538" d="M51 23l236 1222q8 19 26 19h125q12 0 18.5 -6t4.5 -15l-96 -498h387l98 498q4 21 27 21h118q11 0 17.5 -6t5.5 -15l-96 -495h221q158 0 250 -92t92 -240q0 -175 -120.5 -295.5t-303.5 -120.5h-428q-29 0 -25 27l115 571h-389l-111 -573q-4 -25 -24 -25h-125q-26 0 -23 23 zM803 150h241q88 0 149.5 39t88.5 97.5t27 129.5q0 85 -55 133.5t-134 48.5h-227z" />
<glyph unicode="&#x40b;" horiz-adv-x="1247" d="M186 1139l19 102q7 23 28 23h867q12 0 17.5 -6t2.5 -15l-18 -104q-7 -23 -31 -23h-430l-68 -340l2 -4q132 55 281 55q165 0 242.5 -95.5t46.5 -256.5l-88 -452q-7 -23 -27 -23h-127q-23 0 -20 20l84 429q12 47 10 88.5t-17 72t-57 48.5t-110 18q-133 0 -252 -78 l-113 -575q-3 -23 -27 -23h-122q-12 0 -18.5 5.5t-4.5 14.5l215 1096h-266q-24 0 -19 23z" />
<glyph unicode="&#x40c;" horiz-adv-x="1021" d="M49 18l238 1225q6 21 26 21h133q20 0 17 -19l-103 -510l5 -2l530 516q15 15 31 15h147q19 0 23.5 -10t-6.5 -19l-488 -483l4 -4q49 5 113 -3q112 -15 159 -96t29 -237l-47 -392q-3 -20 -22 -20h-119q-11 0 -16.5 4.5t-4.5 13.5l47 369q4 32 5 56t-2 53t-14 49t-30 37.5 t-51.5 26.5t-77.5 9q-114 0 -186.5 -66t-95.5 -177l-70 -355q-3 -20 -20 -20h-133q-24 0 -21 18zM559 1378q-11 17 12 33l283 176q11 8 25.5 9t21.5 -9l55 -90q8 -16 1.5 -25.5t-19.5 -13.5l-311 -125q-30 -13 -45 8z" />
<glyph unicode="&#x40e;" horiz-adv-x="888" d="M51 10l17 82q4 21 10.5 27t21.5 6h54q45 0 72 11.5t55 47.5q31 40 41 68t4 63l-146 916q-3 15 4.5 25t24.5 10h108q34 0 37 -23l103 -737h8l377 733q15 27 53 27h109q34 0 16 -33l-498 -934q-82 -157 -123 -210q-76 -99 -183 -113q-22 -3 -46 -3h-92q-21 0 -25.5 6.5 t-1.5 30.5zM406 1559q3 24 28 22h43q16 1 19.5 -5t3.5 -22q-2 -61 27 -95t87 -34q112 0 168 129q5 12 7.5 16t9.5 8t18 3h43q14 1 18.5 -4.5t2.5 -17.5q-18 -108 -93 -178t-190 -70q-112 0 -160 69.5t-32 178.5z" />
<glyph unicode="&#x40f;" horiz-adv-x="1093" d="M55 25l236 1218q7 21 28 21h125q12 0 18 -6.5t3 -16.5l-215 -1094h487l213 1096q7 21 27 21h125q12 0 17.5 -6.5t2.5 -16.5l-235 -1218q-7 -23 -29 -23h-311l-60 -301q-9 -39 -45 -39h-94q-16 0 -20 9.5t0 29.5l59 301h-311q-12 0 -18 7t-3 18z" />
<glyph unicode="&#x410;" horiz-adv-x="909" d="M-35 39l543 1206q8 19 31 19h168q21 0 26 -19l84 -1206q0 -39 -35 -39h-106q-24 0 -29 20l-12 269h-385l-115 -269q-9 -20 -31 -20h-118q-35 0 -21 39zM311 430h316l-19 401l-6 265h-6l-107 -258z" />
<glyph unicode="&#x411;" horiz-adv-x="987" d="M51 25l240 1216q3 23 26 23h621q20 0 20 -21l-20 -104q-3 -23 -27 -23h-479q-10 -55 -22 -117t-26 -136t-22 -115h218q157 0 251.5 -89t94.5 -227q0 -66 -17 -128.5t-52 -117.5t-84.5 -96.5t-119.5 -65.5t-151 -24h-428q-23 0 -23 25zM248 150h237q71 0 125 26t83.5 67 t44 84.5t14.5 84.5q0 81 -51 133.5t-140 52.5h-227z" />
<glyph unicode="&#x412;" horiz-adv-x="980" d="M53 23l240 1218q4 23 26 23h334q144 0 231 -77.5t87 -211.5q0 -98 -47 -178t-138 -121l-2 -6q61 -33 92 -103t31 -149q0 -180 -116.5 -299t-305.5 -119h-409q-26 0 -23 23zM250 150h237q119 0 183.5 74.5t64.5 189.5q0 75 -43 126.5t-127 51.5h-227zM365 737h206 q100 0 165 58.5t65 152.5q0 77 -46.5 122.5t-123.5 45.5h-193z" />
<glyph unicode="&#x413;" horiz-adv-x="839" d="M53 23l236 1218q7 23 28 23h644q11 0 17 -6t3 -15l-18 -104q-7 -23 -31 -23h-496l-211 -1091q-6 -25 -26 -25h-125q-11 0 -17.5 6.5t-3.5 16.5z" />
<glyph unicode="&#x414;" horiz-adv-x="1136" d="M-111 -250l62 328q6 29 14 38t31 17l39 14q118 40 190 281q37 117 76.5 271t128.5 526q6 23 16 31t31 8h615q20 0 27 -8.5t3 -30.5l-209 -1075h56q21 0 25.5 -9.5t-1.5 -29.5l-67 -351q-5 -18 -11.5 -26t-11 -9t-16.5 -1h-90q-18 0 -23 6t-2 30l49 240h-729l-49 -240 q-5 -19 -11 -27.5t-11.5 -10t-16.5 -1.5h-90q-18 0 -23 5.5t-2 23.5zM258 162l8 -12h471l195 966h-371q-118 -493 -172 -678q-56 -179 -131 -276z" />
<glyph unicode="&#x415;" horiz-adv-x="909" d="M53 23l238 1218q4 23 28 23h648q11 0 17 -6.5t5 -16.5l-20 -100q-4 -25 -27 -25h-504l-78 -385h428q24 0 21 -24l-18 -107q-3 -18 -27 -18h-428l-88 -432h540q11 0 17.5 -6.5t5.5 -16.5l-20 -102q-3 -25 -29 -25h-688q-24 0 -21 23z" />
<glyph unicode="&#x416;" horiz-adv-x="1566" d="M-6 20l115 410q82 289 340 309q39 4 83 0l5 4l-297 492q-7 11 -1 20t25 9h127q18 0 27 -15l327 -526l11 4l100 518q3 19 21 19h133q21 0 18 -21l-100 -506l8 -2l514 514q15 15 31 15h145q19 0 23 -9t-7 -20l-483 -483l2 -9q38 0 70 -4q128 -12 187 -104t40 -244l-45 -371 q0 -20 -22 -20h-119q-11 0 -16.5 4.5t-4.5 13.5l41 361q4 38 5 72.5t-8.5 64.5t-27.5 52.5t-52.5 35t-82.5 12.5q-105 0 -176 -71t-92 -180l-67 -347q-3 -18 -25 -18h-133q-20 0 -17 20l70 359q47 231 -176 231q-199 0 -260 -231l-94 -361q-3 -18 -25 -18h-119q-24 0 -18 20 z" />
<glyph unicode="&#x417;" horiz-adv-x="882" d="M-10 170q0 17 24 29l72 49q28 16 43 -4q36 -49 100.5 -78t130.5 -29q128 0 203.5 75t75.5 206q0 91 -66 147t-178 56h-116q-12 0 -16.5 4.5t-4.5 17.5l21 100q7 23 26 23h141q100 0 170 53.5t70 151.5q0 72 -51 113.5t-131 41.5q-141 0 -258 -88q-27 -23 -45 -2l-49 58 q-15 19 -17 30t12 25q53 46 109.5 76t111 41.5t87.5 14.5t75 3q142 0 236 -82.5t94 -214.5q0 -56 -20 -110.5t-72.5 -108t-130.5 -80.5l-2 -6q78 -28 127 -98t49 -158q0 -202 -122 -320t-327 -118q-114 0 -220 43t-150 129z" />
<glyph unicode="&#x418;" horiz-adv-x="1079" d="M53 25l240 1218q3 21 26 21h113q25 0 19 -25v2q-41 -220 -170 -883l6 2l661 873q24 31 60 31h82q24 0 18 -25v2q-39 -203 -119 -609t-119 -609q-4 -23 -26 -23h-115q-23 0 -20 25l170 874h-7l-657 -868q-12 -20 -21.5 -25.5t-35.5 -5.5h-82q-26 0 -23 25z" />
<glyph unicode="&#x419;" horiz-adv-x="1079" d="M53 25l240 1218q3 21 26 21h113q25 0 19 -25v2q-41 -220 -170 -883l6 2l661 873q24 31 60 31h82q24 0 18 -25v2q-39 -203 -119 -609t-119 -609q-4 -23 -26 -23h-115q-23 0 -20 25l170 874h-7l-657 -868q-12 -20 -21.5 -25.5t-35.5 -5.5h-82q-26 0 -23 25zM518 1542 q4 26 29 23h43q16 1 19 -4.5t3 -22.5q-2 -61 27.5 -95t87.5 -34q112 0 168 129q5 12 7.5 16t9.5 8t18 3h43q14 1 18 -5t2 -18q-18 -108 -92.5 -178t-189.5 -70q-112 0 -160.5 69.5t-32.5 178.5z" />
<glyph unicode="&#x41a;" horiz-adv-x="1021" d="M49 18l238 1225q6 21 26 21h133q20 0 17 -19l-103 -510l5 -2l530 516q15 15 31 15h147q19 0 23.5 -10t-6.5 -19l-488 -483l4 -4q49 5 113 -3q112 -15 159 -96t29 -237l-47 -392q-3 -20 -22 -20h-119q-11 0 -16.5 4.5t-4.5 13.5l47 369q4 32 5 56t-2 53t-14 49t-30 37.5 t-51.5 26.5t-77.5 9q-114 0 -186.5 -66t-95.5 -177l-70 -355q-3 -20 -20 -20h-133q-24 0 -21 18z" />
<glyph unicode="&#x41b;" horiz-adv-x="1099" d="M-43 68q-8 27 16 36q40 15 70.5 31.5t59 43t49 55.5t42 76.5t38.5 99.5t37 132.5t38.5 165.5t42.5 207l62 330q8 19 28 19h662q12 0 18 -6t4 -15l-237 -1218q-4 -25 -27 -25h-125q-21 0 -18 23l211 1095h-379l-39 -200q-28 -143 -47.5 -237t-44 -189.5t-44.5 -154 t-48 -117t-56.5 -92.5t-68 -66t-84 -52.5t-103.5 -38.5q-12 -6 -20 -2t-10.5 7.5t-6.5 13.5z" />
<glyph unicode="&#x41c;" horiz-adv-x="1316" d="M53 23l234 1202q6 39 43 39h69q27 0 34 -5t13 -26l132 -733l40 -232h7l129 236l415 731q12 17 23 23t31 6h92q37 0 31 -37l-234 -1202q-6 -25 -27 -25h-116q-26 0 -19 23l154 794l-4 2l-131 -239l-303 -510q-22 -29 -45 -29h-80q-16 0 -24 5.5t-11 21.5l-92 495l-39 250 h-6l-154 -788q-6 -25 -27 -25h-114q-11 0 -17.5 6.5t-3.5 16.5z" />
<glyph unicode="&#x41d;" horiz-adv-x="1075" d="M53 23l236 1218q3 12 8.5 17.5t17.5 5.5h125q12 0 18 -6t3 -15l-101 -516h469l101 514q7 23 26 23h125q12 0 19 -6t4 -15l-236 -1218q-6 -25 -28 -25h-125q-12 0 -18 6.5t-3 16.5l107 557h-467l-109 -555q-6 -25 -26 -25h-125q-12 0 -18 6.5t-3 16.5z" />
<glyph unicode="&#x41e;" horiz-adv-x="1003" d="M100 367l109 565q33 165 142 256.5t282 91.5q84 0 154.5 -24.5t120.5 -69.5t71 -116.5t4 -158.5l-111 -573q-68 -350 -428 -350q-181 0 -278.5 106.5t-65.5 272.5zM268 362q-15 -100 35 -162.5t146 -62.5q213 0 253 205l113 586q17 87 -37 144.5t-149 57.5 q-98 0 -166 -57t-86 -145z" />
<glyph unicode="&#x41f;" horiz-adv-x="1091" d="M53 23l236 1218q7 23 28 23h783q12 0 17.5 -6t2.5 -15l-235 -1218q-6 -25 -29 -25h-125q-25 0 -18 23l215 1095h-488l-213 -1093q-6 -25 -28 -25h-125q-11 0 -17.5 6.5t-3.5 16.5z" />
<glyph unicode="&#x420;" horiz-adv-x="954" d="M53 23l238 1218q4 23 28 23h316q154 0 252 -85.5t98 -220.5q0 -190 -121 -314t-315 -124h-227l-97 -495q-4 -25 -28 -25h-123q-24 0 -21 23zM346 666h201q113 0 188.5 75t75.5 185q0 80 -48 135t-142 55h-185z" />
<glyph unicode="&#x421;" horiz-adv-x="901" d="M102 356l113 576q32 170 123.5 259t261.5 89q232 0 348 -166q12 -18 -12 -39l-66 -57q-10 -10 -19.5 -9t-23.5 17q-103 107 -217 107q-186 0 -225 -199l-115 -598q-15 -86 31.5 -142.5t140.5 -56.5q54 0 98.5 16t68 33.5t59.5 51.5q27 27 49 12l86 -78q12 -12 -4 -35 q-80 -87 -163.5 -118t-180.5 -31q-187 0 -286.5 99.5t-66.5 268.5z" />
<glyph unicode="&#x422;" horiz-adv-x="854" d="M170 1139l18 102q7 23 29 23h744q12 0 17.5 -6t2.5 -15l-18 -104q-7 -23 -31 -23h-285l-215 -1091q-3 -14 -8 -19.5t-18 -5.5h-125q-12 0 -18 6.5t-3 16.5l213 1093h-285q-12 0 -16.5 5t-1.5 18z" />
<glyph unicode="&#x423;" horiz-adv-x="888" d="M51 10l17 82q4 21 10.5 27t21.5 6h54q45 0 72 11.5t55 47.5q31 40 41 68t4 63l-146 916q-3 15 4.5 25t24.5 10h108q34 0 37 -23l103 -737h8l377 733q15 27 53 27h109q34 0 16 -33l-498 -934q-82 -157 -123 -210q-76 -99 -183 -113q-22 -3 -46 -3h-92q-21 0 -25.5 6.5 t-1.5 30.5z" />
<glyph unicode="&#x424;" horiz-adv-x="1112" d="M115 514l63 315q31 159 142.5 256t304.5 97l10 59q7 23 27 23h122q25 0 19 -21l-12 -59q170 -15 255.5 -118.5t55.5 -252.5l-64 -332q-11 -57 -32.5 -106.5t-58.5 -94.5t-86.5 -77t-119 -51t-153.5 -19l-21 -110q-3 -13 -8 -18t-16 -5h-125q-22 0 -19 20l21 109 q-174 15 -255.5 118.5t-49.5 266.5zM272 471q-15 -80 21.5 -130t155.5 -69l149 766q-113 -6 -175 -60.5t-79 -135.5zM612 276q108 6 175.5 57.5t82.5 137.5l72 369q16 79 -31 135t-147 63z" />
<glyph unicode="&#x425;" horiz-adv-x="923" d="M-41 33q337 465 451 626l-189 576q-5 13 2 21t25 8h123q31 0 37 -25v2l120 -432h7l292 432q20 23 45 23h132q30 0 18 -29q-36 -50 -187 -258.5t-233 -323.5l211 -620q5 -15 1 -24t-23 -9h-117q-13 0 -18.5 1t-12 6t-10.5 16l-144 479h-4l-329 -479q-15 -23 -47 -23h-136 q-31 0 -14 33z" />
<glyph unicode="&#x426;" horiz-adv-x="1101" d="M53 25l236 1218q7 21 28 21h125q12 0 18 -6.5t3 -16.5l-215 -1094h489l211 1096q7 21 27 21h125q12 0 17.5 -6.5t2.5 -16.5l-211 -1094h82q22 0 26.5 -15t-1.5 -30l-62 -321q-5 -23 -15 -30t-26 -7h-79q-23 0 -27 9t0 28l41 219h-774q-12 0 -18 7t-3 18z" />
<glyph unicode="&#x427;" horiz-adv-x="989" d="M154 858l73 385q7 23 29 23h127q21 0 18 -21l-71 -360q-10 -64 -6 -114.5t44 -82t117 -31.5q72 0 145 21.5t126 56.5l100 508q7 23 29 23h123q24 0 20 -21l-237 -1222q-7 -23 -29 -23h-123q-27 0 -21 25l103 538h-6q-51 -26 -132.5 -42.5t-142.5 -16.5q-157 0 -237 97.5 t-49 256.5z" />
<glyph unicode="&#x428;" horiz-adv-x="1544" d="M53 25l238 1218q3 21 26 21h125q30 0 21 -25v2l-215 -1094h385q90 445 217 1096q4 21 24 21h123q30 0 21 -25v2q-104 -547 -213 -1094h385q59 284 213 1096q3 21 24 21h125q27 0 21 -25l-236 -1216q-4 -23 -26 -23h-1235q-12 0 -18.5 7t-4.5 18z" />
<glyph unicode="&#x429;" horiz-adv-x="1552" d="M51 25l238 1218q3 21 26 21h125q30 0 21 -25v2l-215 -1094h385q90 445 217 1096q4 21 24 21h123q30 0 21 -25v2q-104 -547 -213 -1094h385q59 284 213 1096q3 21 24 21h125q27 0 21 -25l-211 -1092h88q22 0 26.5 -15t-1.5 -30l-62 -321q-7 -37 -41 -37h-80q-17 0 -24 6.5 t-2 30.5l43 219h-1233q-12 0 -18.5 7t-4.5 18z" />
<glyph unicode="&#x42a;" horiz-adv-x="1189" d="M123 1137l18 108q7 17 29 17h481q21 0 21 -23l-94 -491h221q157 0 248.5 -94.5t91.5 -237.5q0 -180 -119 -298t-303 -118h-428q-23 0 -23 25l213 1089h-336q-20 0 -20 23zM459 150h243q129 0 197 78t68 188q0 82 -56 132t-133 50h-231z" />
<glyph unicode="&#x42b;" horiz-adv-x="1359" d="M55 25l232 1218q2 9 8.5 15t15.5 6h121q11 0 17.5 -6t5.5 -15l-97 -495h222q157 0 248.5 -94.5t91.5 -237.5q0 -180 -119 -298t-303 -118h-422q-27 0 -21 25zM242 150h241q129 0 197 78t68 188q0 82 -55.5 132t-133.5 50h-227zM971 23l237 1222q8 19 29 19h125 q11 0 17 -6t5 -15l-237 -1218q-3 -25 -27 -25h-127q-11 0 -17 6.5t-5 16.5z" />
<glyph unicode="&#x42c;" horiz-adv-x="972" d="M55 25l232 1218q2 9 8.5 15t15.5 6h121q11 0 17.5 -6t5.5 -15l-97 -495h222q157 0 248.5 -94.5t91.5 -237.5q0 -180 -119 -298t-303 -118h-422q-27 0 -21 25zM242 150h241q129 0 197 78t68 188q0 82 -55.5 132t-133.5 50h-227z" />
<glyph unicode="&#x42d;" horiz-adv-x="905" d="M33 154q-2 24 10 32l74 62q19 17 47 -15q89 -100 198 -100q211 0 252 203l50 237h-416q-19 0 -19 23l21 102q3 25 29 25h409l41 211q17 86 -34.5 142.5t-151.5 56.5q-49 0 -108.5 -27t-112.5 -80q-29 -29 -50 -8l-65 61q-11 11 -11.5 19t9.5 20q135 162 368 162 q149 0 237.5 -75.5t88.5 -211.5q0 -34 -10 -82l-109 -577q-31 -168 -139.5 -257t-282.5 -89q-97 0 -188 42t-137 124z" />
<glyph unicode="&#x42e;" horiz-adv-x="1357" d="M51 23l236 1222q8 19 26 19h125q12 0 18.5 -6t4.5 -15l-103 -516h166l39 205q30 161 149.5 254.5t284.5 93.5q97 0 174.5 -29t127 -94.5t49.5 -159.5q0 -17 -11 -86l-108 -573q-68 -350 -436 -350q-155 0 -249.5 79t-94.5 218q0 46 8 82l39 213h-166l-109 -555 q-4 -25 -24 -25h-123q-26 0 -23 23zM623 362q-15 -100 34.5 -162.5t147.5 -62.5q212 0 252 205l114 586q17 88 -35 145t-147 57q-97 0 -167.5 -57t-88.5 -145z" />
<glyph unicode="&#x42f;" horiz-adv-x="1038" d="M4 51l307 479q6 6 6 11q0 6 -4 10q-123 133 -123 291q0 185 116.5 303.5t303.5 118.5h428q23 0 23 -15q0 -6 -2 -8q-39 -203 -112.5 -609t-112.5 -609q-2 -9 -9.5 -16t-17.5 -7h-117q-22 0 -22 25l96 495h-258l-305 -479q-14 -23 -27.5 -32t-44.5 -9h-104q-49 0 -21 51z M371 866q0 -42 15.5 -92.5t47.5 -83.5q24 -24 58 -24h296l89 450h-228q-71 0 -126.5 -22.5t-87.5 -59.5t-48 -80t-16 -88z" />
<glyph unicode="&#x430;" horiz-adv-x="905" d="M61 262q0 158 103.5 256t269.5 98q141 0 217 -71l6 2l11 59q29 166 -164 166q-41 0 -119 -16t-117 -35q-22 -8 -28 12l-31 90q-6 19 14 27q135 61 295 61q173 0 252.5 -90.5t48.5 -247.5l-108 -553q-3 -20 -23 -20h-117q-16 0 -16 16l10 52l-6 2q-89 -82 -223 -82 q-131 0 -203 76t-72 198zM215 268q0 -63 38.5 -102t113.5 -39q93 0 158 65t65 158q0 62 -39 99.5t-113 37.5q-99 0 -161 -61.5t-62 -157.5z" />
<glyph unicode="&#x431;" horiz-adv-x="917" d="M78 255.5q-1 57.5 10 121.5l55 276q46 229 58 273q47 179 134 262q103 97 300 115q39 4 73.5 7.5t61 6t66.5 6.5q12 0 17 -1t10.5 -7t6.5 -19l7 -77q2 -31 -31 -35q-41 -4 -98 -12t-95 -11q-142 -14 -208 -70.5t-99 -205.5l-18 -84l4 -4q99 71 235 71q110 0 178.5 -48.5 t89 -124t3.5 -169.5l-35 -192q-29 -159 -129.5 -252.5t-274.5 -93.5q-80 0 -141 20t-98 56t-59 85t-23 106.5zM246 332q-21 -88 19.5 -145.5t144.5 -57.5q89 0 148 52.5t79 150.5l39 196q18 88 -23 144.5t-143 56.5q-88 0 -148.5 -55t-78.5 -146z" />
<glyph unicode="&#x432;" horiz-adv-x="935" d="M76 281q0 37 10 92l41 194q35 165 145.5 254.5t278.5 89.5q135 0 229 -64t94 -165q0 -132 -116 -193v-4q40 -19 68 -60t28 -83q0 -45 -12 -91t-43.5 -94t-79 -84.5t-125 -60t-174.5 -24.5q-166 0 -255 81t-89 212zM242 285q0 -156 200 -156q112 0 177 59t65 129 q0 48 -42 82.5t-122 34.5h-88q-16 0 -16 15l18 90q6 14 21 14h82q174 0 174 109q0 106 -172 106q-94 0 -162 -52t-86 -149l-45 -239q-4 -28 -4 -43z" />
<glyph unicode="&#x433;" horiz-adv-x="763" d="M27 199q0 53 25 100.5t59.5 81t93 68t101.5 54t110 46.5q38 16 58.5 26.5t46.5 28t38 39.5t12 49q0 44 -37 64t-94 20q-43 0 -102.5 -21.5t-116.5 -68.5q-10 -8 -21 -8t-18 10l-51 62q-8 8 -8 20q0 6 8 14q144 125 326 125q121 0 197.5 -56t76.5 -159q0 -147 -164 -225 q-42 -20 -103 -47t-93.5 -42t-73 -37t-60 -39t-33.5 -40t-14 -49q0 -46 35.5 -71t98.5 -25q125 0 243 133q10 10 15.5 11t15.5 -7l78 -57q8 -5 8 -13t-12 -24q-65 -87 -165.5 -131.5t-211.5 -44.5q-122 0 -195 54.5t-73 158.5z" />
<glyph unicode="&#x434;" horiz-adv-x="917" d="M80 367l33 155q69 344 387 344q47 0 107 -18t112 -62h6l14 84q51 297 -221 297q-72 0 -168 -22q-7 -5 -21 -2.5t-18 22.5l-14 74q-5 17 -1.5 26.5t23.5 16.5q94 27 207 27q447 0 357 -500l-86 -475q-28 -156 -128.5 -251t-273.5 -95q-179 0 -263.5 107.5t-51.5 271.5z M240 332q-18 -90 25 -146.5t138 -56.5q185 0 228 203l39 190q20 95 -28 150t-148 55q-92 0 -146 -55t-72 -150z" />
<glyph unicode="&#x435;" horiz-adv-x="876" d="M59 238q0 28 7 75l43 230q36 199 150.5 283.5t293.5 84.5q120 0 199 -62t79 -173q0 -60 -20.5 -108t-51.5 -80.5t-82.5 -56.5t-97 -37t-113 -22t-113.5 -12t-113 -6q-17 -87 -17 -102q0 -59 39.5 -90t134.5 -31q48 0 110.5 30t113.5 85q16 16 30 2l64 -66q15 -15 16 -24 t-10 -21q-134 -151 -354 -151q-159 0 -233.5 69.5t-74.5 182.5zM262 489q63 1 114.5 5.5t108 15.5t94.5 28.5t62.5 47t24.5 69.5q0 47 -33 81t-98 34q-116 0 -176.5 -50.5t-77.5 -131.5z" />
<glyph unicode="&#x436;" horiz-adv-x="1439" d="M14 35l43 186q33 130 93.5 209.5t179.5 106.5q38 10 86 10l4 6l-219 307q-8 12 -6 19q4 18 26 18h137q21 0 27 -10l260 -363h10l70 359q3 18 23 18h126q18 0 15 -20l-66 -340l8 -2l383 348q10 10 31 10h156q22 0 18 -18q-3 -8 -14 -19l-328 -303l6 -8q38 -5 47 -8 q79 -19 121.5 -65.5t49.5 -110t-3 -144.5l-26 -186q-5 -20 -12 -27.5t-23 -7.5h-109q-30 0 -24 29l26 190q8 43 4 81t-18 66.5t-49.5 45t-89.5 16.5q-81 0 -140 -61t-77 -146l-39 -203q-3 -18 -23 -18h-125q-21 0 -18 20l43 216q15 81 -21.5 130.5t-119.5 49.5 q-54 0 -95 -15.5t-67.5 -44t-42.5 -61.5t-27 -76l-47 -190q-6 -29 -33 -29h-108q-17 0 -22.5 8t-0.5 27z" />
<glyph unicode="&#x437;" horiz-adv-x="817" d="M11.5 164.5q5.5 12.5 17.5 21.5l73 56q24 16 45 -13q70 -98 185 -98q77 0 132.5 42t55.5 120q0 54 -34.5 82t-75.5 28h-131q-17 0 -17 13v4l21 98q3 19 20 19h137q32 0 63 10t57 38.5t26 71.5q0 57 -42 84t-100 27q-57 0 -108 -21.5t-109 -76.5q-11 -11 -30 2l-58 57 q-15 15 -16.5 24.5t10.5 20.5q79 75 160 106t180 31q122 0 204.5 -61.5t82.5 -161.5q0 -161 -150 -221l-2 -8q86 -42 86 -140q0 -149 -104.5 -240t-257.5 -91q-105 0 -191 39t-129 114q-6 11 -0.5 23.5z" />
<glyph unicode="&#x438;" horiz-adv-x="940" d="M80 330l106 547q3 20 23 20h127q17 0 14 -18l-106 -547q-18 -92 21 -147.5t136 -55.5q87 0 154.5 62.5t85.5 152.5l102 533q3 20 25 20h125q19 0 16 -18l-166 -859q-6 -20 -22 -20h-121q-10 0 -13 3.5t-1 14.5l12 62h-4q-49 -50 -120.5 -71t-137.5 -21q-152 0 -219 92.5 t-37 249.5z" />
<glyph unicode="&#x439;" horiz-adv-x="940" d="M80 330l106 547q3 20 23 20h127q17 0 14 -18l-106 -547q-18 -92 21 -147.5t136 -55.5q87 0 154.5 62.5t85.5 152.5l102 533q3 20 25 20h125q19 0 16 -18l-166 -859q-6 -20 -22 -20h-121q-10 0 -13 3.5t-1 14.5l12 62h-4q-49 -50 -120.5 -71t-137.5 -21q-152 0 -219 92.5 t-37 249.5zM381 1268q4 25 29 22h43q16 1 19 -4.5t3 -21.5q-2 -61 27.5 -95t87.5 -34q112 0 168 129q5 11 7.5 15.5t9.5 8t18 2.5h43q14 1 18 -4.5t2 -17.5q-18 -108 -93 -178t-190 -70q-112 0 -160 69.5t-32 178.5z" />
<glyph unicode="&#x43a;" horiz-adv-x="894" d="M37 18l168 863q7 20 22 20h127q20 0 17 -18l-72 -369h6l414 373q10 10 31 10h151q10 0 15.5 -5t3.5 -13q-2 -6 -15 -19l-342 -305l2 -4q55 0 99 -12q173 -51 135 -318l-27 -186q-5 -20 -12 -27.5t-23 -7.5h-108q-31 0 -25 29l27 190q8 40 5.5 76.5t-13.5 64.5t-48 45 t-98 17q-97 0 -156.5 -57t-78.5 -144l-39 -201q-3 -20 -23 -20h-125q-21 0 -18 18z" />
<glyph unicode="&#x43b;" horiz-adv-x="919" d="M-70 63q-5 12 0 19.5t25 17.5q52 26 83 51.5t62.5 74.5t55.5 126t47 197l61 321q2 11 12.5 19t26.5 8h567q11 0 18.5 -7t4.5 -18l-164 -843q-6 -29 -33 -29h-110q-17 0 -21.5 6.5t-1.5 20.5l144 733h-312l-39 -209q-26 -131 -54.5 -224t-58 -153.5t-71 -102t-81 -64 t-99.5 -44.5q-15 -4 -20.5 -1.5t-10.5 13.5z" />
<glyph unicode="&#x43c;" horiz-adv-x="1134" d="M35 27l164 841q4 29 34 29h82q10 0 16 -1t9.5 -5t5 -5.5t3.5 -8.5t3 -9q37 -118 111 -385q14 -45 35.5 -130t23.5 -91h6l160 246l244 362q13 17 21 22t26 5h108q25 0 21 -27l-164 -841q-6 -29 -33 -29h-104q-18 0 -23 6.5t-2 20.5l101 518l-4 2l-127 -187l-183 -258 q-1 -1 -4.5 -6.5t-6 -8t-7 -6.5t-10.5 -5.5t-13 -1.5h-73q-13 0 -18.5 5.5t-10.5 20.5l-70 234l-55 209h-6l-100 -514q-3 -16 -9 -22.5t-22 -6.5h-103q-32 0 -26 27z" />
<glyph unicode="&#x43d;" horiz-adv-x="917" d="M35 23l164 849q7 25 32 25h113q16 0 20.5 -5t2.5 -18l-70 -350h360l68 348q3 11 13 18t22 7h104q14 0 22 -6t7 -17l-166 -849q-5 -25 -35 -25h-104q-15 0 -22.5 5t-4.5 18l72 378h-359l-73 -376q-5 -25 -33 -25h-107q-18 0 -23.5 5t-2.5 18z" />
<glyph unicode="&#x43e;" horiz-adv-x="917" d="M86 367l41 200q32 160 133.5 252t269.5 92q166 0 257.5 -93t60.5 -251l-45 -233q-67 -346 -414 -346q-169 0 -252.5 108t-50.5 271zM246 332q-18 -90 25.5 -146.5t138.5 -56.5q87 0 147.5 56t79.5 147l47 235q19 87 -28.5 144t-137.5 57q-88 0 -148.5 -55t-78.5 -146z " />
<glyph unicode="&#x43f;" horiz-adv-x="946" d="M35 18l166 859q6 20 22 20h121q10 0 13 -3.5t1 -14.5l-12 -72l10 -2q51 51 118 77.5t124 26.5q153 0 224 -93t42 -249l-106 -547q-3 -20 -23 -20h-127q-17 0 -14 18l106 547q18 92 -21 147.5t-136 55.5q-87 0 -154.5 -62.5t-85.5 -152.5l-102 -533q-3 -20 -25 -20h-125 q-19 0 -16 18z" />
<glyph unicode="&#x440;" horiz-adv-x="929" d="M-37 -348l238 1227q3 18 22 18h117q19 0 16 -20l-10 -58h8q98 88 230 88q68 0 126 -23.5t97.5 -66t55.5 -107t1 -141.5l-47 -237q-14 -72 -43.5 -132.5t-76 -108t-115 -74.5t-152.5 -27q-73 0 -134 25t-81 48h-8l-82 -409q-3 -21 -25 -21h-120q-20 0 -17 19zM258 332 q-17 -84 33.5 -142.5t144.5 -58.5q85 0 142 56.5t75 144.5l49 237q18 89 -22 144t-139 55q-84 0 -150.5 -57.5t-83.5 -141.5z" />
<glyph unicode="&#x441;" horiz-adv-x="823" d="M74 326l45 235q68 348 405 348q99 0 175 -41.5t120 -119.5q6 -11 1 -24t-17 -22l-72 -51q-14 -8 -26.5 -4t-18.5 17q-27 49 -76.5 76.5t-99.5 27.5q-88 0 -147.5 -54t-77.5 -141l-49 -254q-35 -192 161 -192q65 0 117 29.5t119 91.5q11 11 31 -2l67 -58 q16 -13 16.5 -23.5t-10.5 -21.5q-74 -83 -156 -119t-190 -36q-168 0 -257.5 92t-59.5 246z" />
<glyph unicode="&#x442;" horiz-adv-x="1439" d="M31 18l106 549q29 154 132 248t263 94q80 0 150 -32t106 -82h9q127 114 286 114q153 0 230.5 -95.5t48.5 -246.5l-107 -547q-3 -20 -22 -20h-127q-17 0 -14 18l106 549q18 92 -17 146.5t-128 54.5q-84 0 -145 -58t-77 -143l-106 -547q-3 -20 -23 -20h-124q-20 0 -17 18 l107 549q16 85 -22 143t-126 58q-82 0 -141.5 -59t-75.5 -142l-106 -547q-3 -20 -23 -20h-127q-19 0 -16 18z" />
<glyph unicode="&#x443;" horiz-adv-x="790" d="M70 -322l168 318h-33q-19 0 -25 4.5t-8 17.5l-82 840q-4 37 31 37h96q39 0 43 -31l53 -719h4l263 492q24 48 35.5 87.5t13.5 61t2 60.5q0 49 41 49h78q29 0 37 -10.5t8 -36.5q0 -75 -13 -128.5t-49 -121.5l-491 -930q-24 -43 -70 -43h-80q-49 0 -22 53z" />
<glyph unicode="&#x444;" horiz-adv-x="1089" d="M86 365l37 188q14 74 43 134.5t78 110.5t126 79t177 32l74 377q3 21 24 21h129q15 0 18.5 -4t0.5 -17l-74 -379q172 -22 251 -116t48 -244l-41 -211q-68 -345 -445 -356l-61 -330q-3 -21 -25 -21h-129q-17 0 -14 19l68 338q-169 20 -241.5 123.5t-43.5 255.5zM240 330 q-17 -87 20.5 -140.5t130.5 -66.5l131 647q-100 -6 -158.5 -60.5t-74.5 -140.5zM561 125q117 7 172 60t76 145l45 219q20 93 -18.5 149.5t-147.5 73.5z" />
<glyph unicode="&#x445;" horiz-adv-x="798" d="M-55 9q-2 9 8 20l362 440l-172 397q-6 12 1 21.5t22 9.5h110q16 0 22 -1t11 -5.5t10 -16.5l101 -274h4l219 274q13 16 21 19.5t30 3.5h127q15 0 17 -9.5t-7 -21.5l-329 -397l192 -440q7 -11 2.5 -20t-20.5 -9h-117q-34 0 -43 25l-123 313h-4l-244 -313q-20 -25 -51 -25 h-131q-16 0 -18 9z" />
<glyph unicode="&#x446;" horiz-adv-x="944" d="M82 330l106 547q3 20 23 20h127q17 0 14 -18l-106 -547q-18 -90 19.5 -146.5t123.5 -56.5q97 0 165.5 60.5t88.5 162.5l102 525q3 20 25 20h125q19 0 16 -18l-141 -725q-1 -15 -2.5 -24t3 -20.5t6 -17t8 -13.5t9 -10.5l8.5 -8.5l5 -5q13 -13 15.5 -19t-1.5 -32l-63 -283 q-9 -26 -33 -26h-72q-27 0 -20 31l49 239q0 15 -10 23q-24 18 -41.5 44t-20.5 44l-8 4q-48 -42 -122.5 -67t-131.5 -25q-160 0 -228 91.5t-38 250.5z" />
<glyph unicode="&#x447;" horiz-adv-x="897" d="M98 578q0 41 8 77l44 222q6 20 22 20h127q19 0 16 -18l-43 -222q-8 -50 -8 -65q0 -135 166 -135q103 0 184 55q27 21 31 45l62 320q6 20 24 20h125q21 0 18 -18l-165 -859q-6 -20 -23 -20h-127q-17 0 -14 20l73 361h-8q-86 -66 -231 -66q-131 0 -206 71t-75 192z" />
<glyph unicode="&#x448;" horiz-adv-x="1441" d="M78 328l108 549q3 20 23 20h127q17 0 14 -18l-108 -551q-18 -92 17 -146.5t128 -54.5q91 0 147.5 58.5t73.5 142.5l109 549q3 20 22 20h127q18 0 15 -18l-109 -549q-40 -203 143 -203q85 0 146 69t82 175l102 506q3 20 25 20h125q19 0 16 -18l-168 -859q-3 -20 -22 -20 h-131q-10 0 -13.5 3.5t-1.5 14.5l12 64h-6q-50 -56 -104.5 -76t-122.5 -20q-153 0 -219 114q-127 -114 -279 -114q-153 0 -230 95.5t-48 246.5z" />
<glyph unicode="&#x449;" horiz-adv-x="1443" d="M80 328l108 549q3 20 23 20h127q17 0 14 -18l-108 -551q-18 -92 17 -146.5t128 -54.5q91 0 147.5 58.5t73.5 142.5l109 549q3 20 22 20h127q18 0 15 -18l-109 -549q-40 -203 144 -203q82 0 143.5 62t81.5 163l102 525q3 20 25 20h125q19 0 16 -18l-141 -725 q-1 -15 -2.5 -24t3 -20.5t6 -17t8 -13.5t9 -10.5l8.5 -8.5l5 -5q13 -13 15.5 -19t-1.5 -32l-64 -283q-9 -26 -32 -26h-72q-27 0 -20 31l49 239q0 15 -11 23q-23 18 -38.5 41.5t-18.5 42.5l-8 2q-93 -88 -236 -88q-167 0 -233 114q-127 -114 -279 -114q-153 0 -230 95.5 t-48 246.5z" />
<glyph unicode="&#x44a;" horiz-adv-x="974" d="M18 786l17 91q5 20 37 20h362q20 0 26 -5.5t3 -17.5l-62 -292h275q118 0 183 -69t65 -171q0 -61 -23 -120t-69.5 -113t-130 -87.5t-191.5 -33.5q-158 0 -241 75t-83 191q0 56 13 119l73 387h-227q-17 0 -23.5 6t-3.5 20zM356 285q0 -65 41.5 -110.5t134.5 -45.5 q96 0 161 54.5t65 127.5q0 58 -34.5 94.5t-109.5 36.5h-233l-4 -14q-21 -89 -21 -143z" />
<glyph unicode="&#x44b;" horiz-adv-x="1236" d="M74 254q0 60 12 119l96 499q6 25 35 25h109q15 0 19.5 -3.5t4.5 -12.5v-7l-61 -292h274q118 0 183 -69t65 -171q0 -61 -23 -120t-69.5 -113t-130 -87.5t-191.5 -33.5q-158 0 -240.5 75t-82.5 191zM242 285q0 -64 42.5 -110t135.5 -46q96 0 160.5 54.5t64.5 127.5 q0 58 -34.5 94.5t-108.5 36.5h-236l-4 -14q-20 -85 -20 -143zM872 27l164 841q2 11 12 19t23 8h100q14 0 22 -6.5t5 -18.5l-164 -841q-3 -16 -10.5 -22.5t-24.5 -6.5h-100q-14 0 -22 7t-5 20z" />
<glyph unicode="&#x44c;" horiz-adv-x="847" d="M59 254q0 56 13 119l96 499q6 25 35 25h108q15 0 20 -3.5t5 -12.5v-7l-62 -292h275q118 0 183 -69t65 -171q0 -61 -23 -120t-69.5 -113t-130 -87.5t-191.5 -33.5q-158 0 -241 75t-83 191zM227 285q0 -64 43 -110t136 -46q96 0 160.5 54.5t64.5 127.5q0 58 -34.5 94.5 t-109.5 36.5h-235l-4 -14q-21 -89 -21 -143z" />
<glyph unicode="&#x44d;" horiz-adv-x="845" d="M28 171q5 13 17 22l72 51q14 8 26.5 4t18.5 -17q27 -49 79.5 -75.5t112.5 -26.5q87 0 140 52.5t71 142.5l17 71h-303q-18 0 -15 19l21 98q3 18 22 18h297l10 48q15 83 -23 137.5t-145 54.5q-112 0 -210 -113q-11 -11 -31 2l-68 54q-16 12 -16 22.5t10 22.5 q111 151 340 151q166 0 250.5 -91.5t54.5 -246.5l-45 -235q-12 -65 -27 -111t-43 -94t-67 -77t-101 -47.5t-143 -18.5q-103 0 -190.5 41.5t-130.5 117.5q-6 11 -1 24z" />
<glyph unicode="&#x44e;" horiz-adv-x="1193" d="M35 25l166 849q3 23 28 23h113q17 0 22 -4t3 -16l-68 -347h135l8 37q33 167 120.5 255.5t262.5 88.5q164 0 246.5 -92t50.5 -252l-45 -233q-34 -173 -126 -259.5t-267 -86.5q-167 0 -241.5 107t-41.5 272l9 32h-136l-73 -372q-5 -27 -31 -27h-113q-28 0 -22 25zM561 332 q-18 -93 16.5 -148t127.5 -55q163 0 206 203l47 235q19 90 -19 145.5t-126 55.5q-86 0 -137.5 -53.5t-69.5 -147.5z" />
<glyph unicode="&#x44f;" horiz-adv-x="915" d="M13 11q-6 11 5 30l187 301q8 13 8.5 19t-6.5 14q-109 109 -92 250q14 121 90.5 199.5t189.5 78.5h410q71 0 59 -61l-139 -809q-7 -33 -33 -33h-106q-19 0 -24 7.5t-1 27.5l57 301h-231l-178 -297q-10 -15 -15.5 -21.5t-18.5 -12t-34 -5.5h-104q-18 0 -24 11zM272 616 q-5 -89 54 -135q11 -8 32 -8h283l53 295h-276q-66 0 -105 -49t-41 -103z" />
<glyph unicode="&#x451;" horiz-adv-x="876" d="M59 238q0 28 7 75l43 230q36 199 150.5 283.5t293.5 84.5q120 0 199 -62t79 -173q0 -60 -20.5 -108t-51.5 -80.5t-82.5 -56.5t-97 -37t-113 -22t-113.5 -12t-113 -6q-17 -87 -17 -102q0 -59 39.5 -90t134.5 -31q48 0 110.5 30t113.5 85q16 16 30 2l64 -66q15 -15 16 -24 t-10 -21q-134 -151 -354 -151q-159 0 -233.5 69.5t-74.5 182.5zM262 489q63 1 114.5 5.5t108 15.5t94.5 28.5t62.5 47t24.5 69.5q0 47 -33 81t-98 34q-116 0 -176.5 -50.5t-77.5 -131.5zM311 1130q8 40 41.5 68.5t73.5 28.5t63 -28.5t15 -68.5q-7 -40 -41 -68t-74 -28 t-62.5 28t-15.5 68zM643 1130q8 40 41.5 68.5t73.5 28.5t63 -28.5t15 -68.5t-40.5 -68t-72.5 -28q-41 0 -64.5 28t-15.5 68z" />
</font>
</defs>
</svg>
