<?xml version="1.0" standalone="no"?>
<!DOCTYPE svg PUBLIC "-//W3C//DTD SVG 1.1//EN" "http://www.w3.org/Graphics/SVG/1.1/DTD/svg11.dtd" >
<svg xmlns="http://www.w3.org/2000/svg" xmlns:xlink="http://www.w3.org/1999/xlink" version="1.1">
<metadata></metadata>
<defs>
<font id="pf_handbook_prothin" horiz-adv-x="3723" >
<font-face units-per-em="2048" ascent="1536" descent="-512" />
<missing-glyph horiz-adv-x="409" />
<glyph unicode="fj" horiz-adv-x="802" d="M33 829v45q0 15 14 15h113v160q0 131 73.5 196.5t188.5 65.5q150 0 231 -74q14 -11 4 -23l-22 -36q-8 -13 -25 -4q-69 61 -188 61q-176 0 -176 -203v-143h418q18 0 18 -21v-999q0 -118 -50.5 -177t-156.5 -59q-61 0 -98 13q-15 3 -12 18l10 45q3 13 20 10q27 -8 74 -8 q73 0 101 39t28 125v942h-352v-805q0 -12 -15 -12h-57q-14 0 -14 12v805h-115q-12 0 -12 12z" />
<glyph unicode="ffj" horiz-adv-x="1249" d="M47 829v45q0 15 14 15h113v125q0 128 80.5 198t204.5 70q118 0 200 -47q76 84 205 84q66 0 129.5 -22t100.5 -52q12 -9 4 -22l-23 -37q-7 -12 -24 -4q-92 59 -183 59q-90 0 -132 -52t-42 -138v-162h420q19 0 19 -21q0 -294 -0.5 -497t-1 -276t-1 -130.5t-0.5 -95.5 q0 -236 -208 -236q-62 0 -99 13q-15 3 -12 18l10 45q3 13 21 10q27 -8 73 -8q73 0 101 39t28 125v930q0 12 -12 12h-338v-805q0 -12 -14 -12h-57q-15 0 -15 12v803h-348v-803q0 -12 -14 -12h-60q-14 0 -14 12q0 134 1 402t1 401h-115q-12 0 -12 14zM260 889h346v188 q0 56 19 88q-25 18 -72 28.5t-90 10.5q-109 0 -156 -55t-47 -156v-104z" />
<glyph unicode="ff" horiz-adv-x="974" d="M33 829v45q0 15 14 15h113v125q0 128 80 198t204 70q119 0 201 -47q78 86 209 86q115 0 195 -53q14 -9 8 -21l-23 -41q-9 -14 -20 -6q-69 43 -160 43q-90 0 -132 -53t-42 -139v-162h256q14 0 14 -15v-45q0 -12 -12 -12h-258v-805q0 -12 -14 -12h-58q-14 0 -14 12v803 h-348v-803q0 -12 -15 -12h-59q-14 0 -14 12q0 134 1 402t1 401h-115q-12 0 -12 14zM246 889h346v188q0 58 18 88q-25 18 -71.5 28.5t-89.5 10.5q-109 0 -156 -55t-47 -156v-104z" />
<glyph unicode="fi" horiz-adv-x="804" d="M33 829v45q0 15 14 15h113v160q0 131 73.5 196.5t188.5 65.5q150 0 231 -74q14 -11 4 -23l-22 -36q-8 -13 -25 -4q-69 61 -188 61q-176 0 -176 -203v-143h418q18 0 18 -21v-856q0 -12 -12 -12h-58q-14 0 -14 12v805h-352v-805q0 -12 -15 -12h-57q-14 0 -14 12v805h-115 q-12 0 -12 12z" />
<glyph unicode="fl" horiz-adv-x="860" d="M33 829v45q0 15 14 15h113v160q0 131 72.5 196.5t183.5 65.5q114 0 200 -47q4 1 25 8.5t29 7.5q12 0 12 -12v-1073q0 -66 20 -95.5t78 -29.5h23q14 0 14 -19v-47q0 -5 -1.5 -7.5t-5 -4t-9.5 -2.5h-41q-24 0 -44.5 3t-35.5 10.5t-27 14.5t-20.5 21.5t-15 24t-10 30 t-5.5 31.5t-3 36.5t-1 37v39.5v952q-82 43 -182 43q-170 0 -170 -201v-143h239q13 0 13 -15v-45q0 -12 -11 -12h-241v-805q0 -12 -15 -12h-57q-14 0 -14 12v805h-115q-12 0 -12 12z" />
<glyph unicode="ffi" horiz-adv-x="1253" d="M47 829v45q0 15 14 15h113v125q0 128 80.5 198t204.5 70q118 0 200 -47q76 84 205 84q66 0 129.5 -22t100.5 -52q12 -9 4 -22l-23 -37q-7 -12 -24 -4q-92 59 -183 59q-90 0 -132 -52t-42 -138v-162h420q19 0 19 -21v-856q0 -12 -15 -12h-59q-15 0 -15 12v803l-350 2v-805 q0 -12 -14 -12h-57q-15 0 -15 12v803h-348v-803q0 -12 -14 -12h-60q-14 0 -14 12q0 134 1 402t1 401h-115q-12 0 -12 14zM260 889h346v188q0 56 19 88q-25 18 -72 28.5t-90 10.5q-109 0 -156 -55t-47 -156v-104z" />
<glyph unicode="ffl" horiz-adv-x="1292" d="M51 829v45q0 15 15 15h112v125q0 128 80.5 198t204.5 70q119 0 201 -47q76 84 204 84q114 0 197 -47q5 1 25 8.5t28 7.5q6 0 10.5 -3.5t4.5 -8.5v-1081q0 -66 20 -95.5t78 -29.5h20q17 0 17 -19v-47q0 -11 -17 -14h-43q-34 0 -59.5 7.5t-42.5 17t-29 30t-17.5 36 t-8.5 46.5t-3.5 49t-0.5 55v3.5v3.5v960q-77 42 -183 45q-85 -1 -125.5 -54t-40.5 -138l2 -162h230q10 0 13 -4t3 -15v-36q0 -11 -3.5 -14t-12.5 -3h-232v-805q0 -12 -14 -12h-57q-15 0 -15 12v803h-348v-803q0 -12 -14 -12h-60q-14 0 -14 12q0 134 1 402t1 401h-115 q-12 0 -12 14zM264 889h346v188q0 56 19 88q-25 18 -72 28.5t-90 10.5q-109 0 -156 -55t-47 -156v-104z" />
<glyph unicode="ft" horiz-adv-x="995" d="M35 831v46q0 14 12 14h115v164q0 128 66.5 192t185.5 64q83 0 149 -25q19 -6 15 -20l-13 -43q-4 -16 -20 -13q-78 25 -131 25q-94 0 -131 -49t-37 -148v-147h358v184q0 14 14 17l56 14q16 3 16 -14v-201h240q14 0 14 -14v-46q0 -14 -14 -14h-240v-569q0 -96 32 -138 t105 -42q79 0 129 16q19 2 23 -14l8 -41q2 -14 -10 -19q-51 -20 -162 -20q-62 0 -104.5 18t-65 52.5t-32 76t-9.5 96.5v584h-358v-805q0 -12 -15 -12h-57q-14 0 -14 12v805h-113q-12 0 -12 14z" />
<glyph unicode=" "  horiz-adv-x="409" />
<glyph unicode="&#x09;" horiz-adv-x="409" />
<glyph unicode="&#xa0;" horiz-adv-x="409" />
<glyph unicode="!" horiz-adv-x="507" d="M184 59q0 29 21.5 50.5t50.5 21.5q32 0 53 -20.5t21 -51.5t-21 -51t-53 -20q-29 0 -50.5 21t-21.5 50zM201 1243q0 19 20 19h62q11 0 16 -5t4 -14l-20 -905q0 -16 -17 -16h-18q-17 0 -17 16z" />
<glyph unicode="&#x22;" horiz-adv-x="444" d="M100 872v379q0 13 15 13h45q14 0 14 -13v-379q0 -12 -14 -12h-45q-15 0 -15 12zM272 872v379q0 13 17 13h45q15 0 12 -13v-379q0 -12 -12 -12h-45q-17 0 -17 12z" />
<glyph unicode="#" horiz-adv-x="911" d="M47 397l8 41q4 15 21 15h135l76 358h-156q-13 0 -10 12q0 1 8 39q4 15 16 15h156l57 260q2 10 15 10h43q15 0 12 -17l-55 -253h262l57 260q2 10 17 10h41q15 0 12 -17l-55 -253h165q13 0 9 -15l-7 -39q-5 -12 -16 -12h-166l-76 -358h166q13 0 9 -15l-7 -39 q-5 -12 -16 -12h-166l-63 -293q-3 -10 -15 -10h-41q-17 0 -14 16l61 287h-264l-63 -293q-3 -10 -15 -10h-41q-17 0 -14 16q19 82 64 287h-138q-12 0 -12 10zM281 453h264l76 358h-263z" />
<glyph unicode="$" horiz-adv-x="911" d="M109 924q0 124 85 205.5t214 101.5v129q0 14 14 14h39q14 0 14 -14v-129q156 -5 270 -86q12 -12 3 -25l-29 -35q-11 -11 -25 2q-91 67 -221 74v-479q69 -21 123.5 -46.5t105.5 -64t79 -93.5t28 -122q0 -139 -93.5 -221t-240.5 -96v-152q0 -14 -14 -14h-39q-14 0 -14 14 v152q-168 8 -287 92q-10 10 0 23l31 36q10 10 24 -2q42 -33 103.5 -53.5t128.5 -23.5v507q-62 20 -107 41.5t-93 57t-73.5 88t-25.5 119.5zM193 920q0 -45 18 -81t51.5 -61.5t67 -42.5t78.5 -33v455q-90 -13 -152.5 -73.5t-62.5 -163.5zM473 111q107 10 179.5 71t72.5 164 q0 45 -17.5 83.5t-41 64t-61.5 48t-66 34t-66 24.5v-489z" />
<glyph unicode="%" horiz-adv-x="1320" d="M86 686v387q0 92 60.5 146.5t162.5 54.5q103 0 165.5 -53.5t62.5 -147.5v-387q0 -94 -60.5 -147.5t-167.5 -53.5q-103 0 -163 54.5t-60 146.5zM162 688q0 -61 39.5 -100t107.5 -39q69 0 111.5 36.5t42.5 102.5v385q0 60 -41.5 98.5t-112.5 38.5q-66 0 -106.5 -38.5 t-40.5 -98.5v-385zM332 -49l579 1362q7 12 19 12h31q15 0 12 -14l-580 -1360q-5 -12 -18 -12h-35q-14 0 -8 12zM782 195v387q0 92 61 146t163 54q103 0 165 -53t62 -147v-387q0 -94 -60 -147.5t-167 -53.5q-103 0 -163.5 54.5t-60.5 146.5zM858 197q0 -61 40 -100.5 t108 -39.5q69 0 111 37t42 103v385q0 60 -41.5 98.5t-111.5 38.5q-66 0 -107 -39t-41 -98v-385z" />
<glyph unicode="&#x26;" horiz-adv-x="1089" d="M96 301q0 120 80.5 225.5t204.5 188.5q-77 96 -111 169.5t-34 141.5q0 115 72.5 186.5t183.5 71.5q108 0 175.5 -66.5t67.5 -173.5q0 -166 -237 -350l299 -387q60 101 77 260q2 13 5.5 17t15.5 4h41q18 0 18 -19q0 -76 -29.5 -164t-74.5 -163q38 -50 70.5 -91.5 t61.5 -77.5t42 -53q4 -8 4 -10q0 -10 -14 -10h-60q-21 0 -34 16l-121 156q-147 -186 -365 -186q-157 0 -247.5 88t-90.5 227zM176 307q0 -109 69 -177.5t191 -68.5q187 0 314 172l-326 420q-37 -24 -76 -57.5t-79.5 -79t-66.5 -101t-26 -108.5zM317 1028q0 -117 134 -276 q202 142 202 282q0 77 -46.5 125.5t-119.5 48.5t-121.5 -54.5t-48.5 -125.5z" />
<glyph unicode="'" horiz-adv-x="313" d="M117 872v379q0 13 14 13h47q15 0 15 -13l-3 -379q0 -12 -12 -12h-45q-16 0 -16 12z" />
<glyph unicode="(" horiz-adv-x="606" d="M154 543q0 223 97 463t216 391q11 14 27 4l24 -12q13 -10 6 -21q-124 -183 -198 -399t-74 -426q0 -218 76 -423.5t196 -379.5q10 -14 -4 -21l-28 -18q-17 -14 -27 2q-130 154 -220.5 381.5t-90.5 458.5z" />
<glyph unicode=")" horiz-adv-x="606" d="M133 -260q273 403 273 803q0 210 -74.5 426t-198.5 399q-7 11 6 21l25 12q15 9 26 -4q74 -94 142.5 -225t120 -304t51.5 -325q0 -231 -90.5 -458.5t-220.5 -381.5q-10 -16 -27 -2l-29 18q-14 7 -4 21z" />
<glyph unicode="*" horiz-adv-x="720" d="M84 1104l14 43q9 24 31 14l207 -84l-19 223q0 23 25 23h43q13 0 19 -6.5t4 -16.5l-19 -223l205 82q26 10 31 -12l16 -43q7 -24 -14 -27l-219 -53l143 -172q17 -20 -2 -31l-35 -24q-24 -16 -35 4l-119 192l-116 -192q-12 -20 -33 -4l-35 24q-21 12 -4 33l147 170l-219 53 q-21 5 -16 27z" />
<glyph unicode="+" horiz-adv-x="911" d="M66 465v41q0 18 16 18h330v348q0 17 18 17h41q16 0 16 -17v-348h338q19 0 19 -18v-39q0 -18 -19 -18h-338v-347q0 -16 -16 -16h-41q-18 0 -18 16v347h-330q-16 0 -16 16z" />
<glyph unicode="," horiz-adv-x="342" d="M98 -193l19 310q0 20 20 20h84q28 0 19 -26l-76 -308q-5 -18 -21 -18h-30q-18 0 -15 22z" />
<glyph unicode="-" horiz-adv-x="610" d="M121 461v55q0 14 14 14h338q12 0 12 -14v-55q0 -15 -12 -15h-338q-14 0 -14 15z" />
<glyph unicode="." horiz-adv-x="337" d="M98 57q0 29 21 49.5t49 20.5q32 0 52 -19.5t20 -50.5q0 -30 -20 -49.5t-52 -19.5q-28 0 -49 20t-21 49z" />
<glyph unicode="/" horiz-adv-x="581" d="M8 -121l496 1485q5 16 22 16h29q17 0 14 -16l-497 -1485q-6 -16 -19 -16h-30q-8 0 -13 4.5t-2 11.5z" />
<glyph unicode="0" horiz-adv-x="911" d="M125 307v654q0 145 91 231t245 86t246 -84.5t92 -232.5v-654q0 -152 -88.5 -236.5t-247.5 -84.5q-157 0 -247.5 86t-90.5 235zM211 309q0 -110 68.5 -179t181.5 -69q112 0 182 65t70 183v647q0 109 -68.5 177.5t-183.5 68.5q-112 0 -181 -69t-69 -177v-647z" />
<glyph unicode="1" horiz-adv-x="911" d="M227 1034v58q0 20 13 28l206 131q18 11 29 11h45q10 0 10 -11v-1237q0 -14 -12 -14h-61q-13 0 -13 12v1137l-200 -121q-8 -4 -12.5 -2t-4.5 8z" />
<glyph unicode="2" horiz-adv-x="911" d="M86 18v31q0 33 12 47l455 598q65 85 101 162t36 127q0 100 -66 159.5t-175 59.5q-69 0 -134.5 -28t-97.5 -72q-16 -20 -31 -8l-36 26q-8 5 -9.5 12t4.5 13q46 64 128 98.5t176 34.5q144 0 236.5 -73t92.5 -216q0 -136 -157 -340l-435 -571h582q14 0 14 -15v-49 q0 -14 -12 -14h-664q-20 0 -20 18z" />
<glyph unicode="3" horiz-adv-x="911" d="M80 119q-8 15 8 28l31 25q11 7 14 6t14 -12q12 -13 46 -43q76 -64 184 -64q112 0 190 77t78 196v84q0 17 -4 45q-12 85 -72.5 138.5t-154.5 53.5h-135q-15 0 -15 15v49q0 14 12 14h138q95 0 161 63.5t66 166.5q0 106 -63 173.5t-183 67.5q-70 0 -128.5 -26t-92.5 -72 q-12 -23 -31 -10l-41 26q-7 5 -6 12.5t6 12.5q45 65 122.5 99t170.5 34q157 0 245.5 -84t88.5 -227q0 -100 -50 -173t-130 -98v-4q61 -15 104 -62.5t60.5 -101t17.5 -106.5v-82q0 -159 -97.5 -255.5t-258.5 -96.5q-132 0 -207 49q-54 37 -88 82z" />
<glyph unicode="4" horiz-adv-x="911" d="M82 324v32q0 34 12 56l443 837q7 15 22 15h55q9 0 13 -6t-2 -17l-459 -860h422v405q0 15 16 15h53q15 0 15 -15v-405h174q14 0 14 -14v-45q0 -15 -14 -15h-174v-293q0 -14 -15 -14h-53q-16 0 -16 14v293h-488q-18 0 -18 17z" />
<glyph unicode="5" horiz-adv-x="911" d="M130.5 137q0.5 6 10.5 13l41 24q9 5 14 3.5t15 -11.5q79 -105 219 -105q118 0 189 66.5t71 181.5v174q0 108 -68 176t-186 68q-80 0 -151 -49q-29 -19 -47 -10l-45 26q-21 12 -21 35v520q0 15 16 15h547q15 0 15 -15v-49q0 -12 -15 -12l-473 2l-2 -440l6 -2q75 57 180 57 q156 0 243 -87t87 -229v-167q0 -159 -93.5 -247.5t-252.5 -88.5q-207 0 -295 137q-5 8 -4.5 14z" />
<glyph unicode="6" horiz-adv-x="911" d="M127 307v633q0 152 97.5 245t250.5 93q188 0 293 -129q12 -15 -2 -23l-39 -32q-17 -11 -27 6q-79 102 -221 102q-120 0 -193 -74.5t-73 -187.5v-287h4q43 64 111.5 95.5t148.5 31.5q154 0 244 -87t90 -224v-158q0 -151 -92 -238t-250 -87q-153 0 -247.5 84.5t-94.5 236.5 zM213 313q0 -113 70.5 -183.5t185.5 -70.5q121 0 187.5 70t68.5 188v146q0 112 -71.5 175.5t-186.5 63.5q-103 0 -178.5 -72.5t-75.5 -174.5v-142z" />
<glyph unicode="7" horiz-adv-x="911" d="M127 1059v190q0 15 16 15h633q23 0 23 -19v-33q0 -16 -11 -38q-497 -1133 -507 -1158q-7 -16 -25 -16h-61q-19 0 -13 18l516 1170h-491v-129q0 -15 -14 -15h-52q-14 0 -14 15z" />
<glyph unicode="8" horiz-adv-x="911" d="M94 344q0 116 56 207t137 121v4q-59 23 -99.5 71t-56.5 99.5t-16 105.5q0 146 95 237t249 91q157 0 250.5 -90t93.5 -236q0 -85 -48.5 -163.5t-129.5 -114.5l-2 -4q96 -40 146 -121.5t50 -198.5q0 -173 -105 -269.5t-265 -96.5t-257.5 92t-97.5 266zM184 340 q0 -131 75 -205t190 -74q74 0 135.5 28.5t103 94.5t41.5 160q0 135 -78.5 213t-195.5 78q-113 0 -192 -79t-79 -216zM203 950q0 -101 75 -170t179 -69q105 0 180.5 67.5t75.5 173.5q0 111 -68.5 181.5t-187.5 70.5q-113 0 -183.5 -71t-70.5 -183z" />
<glyph unicode="9" horiz-adv-x="911" d="M102 801v143q0 151 97 242.5t258 91.5q150 0 239.5 -90.5t89.5 -247.5v-592q0 -170 -100 -266t-258 -96q-95 0 -171 35.5t-122 101.5q-12 15 2 24l41 27q18 9 27 -6q83 -107 219 -107q122 0 199 77.5t77 213.5v258l-4 2q-48 -60 -115.5 -93.5t-144.5 -33.5 q-152 0 -243 89.5t-91 226.5zM188 805q0 -113 71 -178.5t190 -65.5q103 0 177 73t74 175v135q0 114 -67.5 187t-181.5 73q-120 0 -191.5 -74t-71.5 -186v-139z" />
<glyph unicode=":" horiz-adv-x="337" d="M98 55q0 29 20 49.5t48 20.5q32 0 53 -19.5t21 -48.5q0 -31 -21 -50t-53 -19q-28 0 -48 19.5t-20 47.5zM98 702q0 28 20 48t48 20q32 0 53 -20t21 -48q0 -30 -21 -50.5t-53 -20.5q-28 0 -48 21t-20 50z" />
<glyph unicode=";" horiz-adv-x="354" d="M96 -193l19 310q0 20 22 20h84q25 0 19 -26l-78 -308q-3 -18 -21 -18h-30q-15 0 -15 22zM111 702q0 28 20 49t47 21q32 0 53 -20t21 -50q0 -29 -21 -49t-53 -20q-28 0 -47.5 20t-19.5 49z" />
<glyph unicode="&#x3c;" horiz-adv-x="911" d="M51 502v35q0 19 23 30l755 404q6 3 12 3.5t10.5 -4t4.5 -12.5v-38q0 -20 -22 -31l-687 -369l687 -366q22 -11 22 -33v-43q0 -15 -12 -15l-15 5l-749 399q-29 15 -29 35z" />
<glyph unicode="=" horiz-adv-x="911" d="M70 303v35q0 18 16 18h737q17 0 17 -18v-33q0 -18 -17 -18h-737q-16 0 -16 16zM70 674v35q0 18 16 18h737q17 0 17 -18v-33q0 -19 -17 -19h-737q-16 0 -16 17z" />
<glyph unicode="&#x3e;" horiz-adv-x="911" d="M51 78v43q0 21 23 33l686 366l-686 369q-23 11 -23 31v38q0 8 4.5 12.5t10.5 4t12 -3.5l756 -404q22 -11 22 -30v-35q0 -20 -29 -35l-749 -399l-15 -5q-12 0 -12 15z" />
<glyph unicode="?" horiz-adv-x="905" d="M164 1145q45 65 123.5 101t173.5 36q141 0 231 -81.5t90 -223.5q0 -86 -51.5 -169t-152.5 -149q-101 -64 -145 -121.5t-44 -144.5v-96q0 -16 -12 -16h-55q-19 0 -19 18v107q0 77 39.5 148.5t112.5 121.5q58 39 92 65t72.5 64.5t56.5 80t18 89.5q0 30 -6.5 59.5 t-23.5 60.5t-43 55t-68.5 39t-95.5 15q-68 0 -128 -28.5t-96 -75.5q-11 -16 -26 -4l-41 26q-16 9 -2 23zM272 57q0 28 21.5 48t50.5 20q31 0 51.5 -19.5t20.5 -48.5t-21 -50t-51 -21q-29 0 -50.5 21t-21.5 50z" />
<glyph unicode="@" horiz-adv-x="1462" d="M117 596q0 185 80 334t229 236t340 87q170 0 306.5 -66.5t218 -196t81.5 -300.5q0 -217 -82 -324.5t-227 -107.5q-40 0 -85.5 21t-64.5 65h-4q-35 -47 -86 -70.5t-98 -23.5q-96 0 -164.5 64t-68.5 163q0 96 67 159.5t166 63.5q115 0 170 -79h4v65q0 168 -180 168 q-71 0 -150 -33q-18 -9 -22 8l-10 29q-2 4 -2 8q0 6 10 11q84 38 182 38q123 0 181.5 -63t58.5 -174v-244q0 -112 114 -112q101 0 161.5 101t60.5 263q0 96 -30.5 179.5t-82.5 142.5t-120.5 101t-144 62.5t-153.5 20.5q-258 0 -422 -167.5t-164 -428.5q0 -269 166.5 -433.5 t433.5 -164.5q174 0 334 63q15 5 17 5q8 0 14 -15l12 -31q5 -15 -20 -24q-180 -64 -348 -64q-305 0 -491.5 179.5t-186.5 484.5zM563 477q0 -70 43.5 -119t118.5 -49q74 0 118 49.5t44 118.5q0 68 -43.5 117t-118.5 49q-71 0 -116.5 -48.5t-45.5 -117.5z" />
<glyph unicode="A" horiz-adv-x="911" d="M27 16l358 1231q4 17 18 17h95q14 0 20 -15l361 -1229q4 -6 0.5 -13t-11.5 -7h-59q-17 0 -21 12l-92 307h-491l-88 -307q-3 -12 -19 -12h-57q-21 0 -14 16zM227 395h453q-40 133 -148 502l-79 277h-4q-44 -154 -78 -281z" />
<glyph unicode="B" horiz-adv-x="966" d="M125 16v1231q0 17 14 17h377q150 0 239 -81t89 -231q0 -53 -17 -104t-57.5 -97t-97.5 -67v-4q102 -32 154.5 -123.5t52.5 -200.5q0 -159 -92 -257.5t-248 -98.5h-400q-14 0 -14 16zM213 80h324q117 0 185.5 77t68.5 195q0 127 -74 207t-199 80h-305v-559zM213 717h305 q107 0 172.5 64.5t65.5 170.5t-63.5 170t-176.5 64h-303v-469z" />
<glyph unicode="C" horiz-adv-x="845" d="M119 322v626q0 141 100.5 235.5t259.5 94.5q203 0 309 -129q12 -13 -2 -27l-36 -30q-13 -13 -29 6q-37 48 -104.5 75t-137.5 27q-120 0 -196 -72.5t-76 -181.5v-620q0 -113 74 -188t204 -75q67 0 130.5 26t107.5 73q20 23 35 10l30 -27q17 -14 5 -26q-119 -131 -308 -131 q-168 0 -267 92t-99 242z" />
<glyph unicode="D" horiz-adv-x="968" d="M127 16v1231q0 17 14 17h383q167 0 253.5 -83.5t86.5 -246.5v-592q0 -164 -90 -253t-252 -89h-381q-14 0 -14 16zM215 78h307q119 0 185.5 65.5t66.5 190.5v596q0 122 -58.5 189t-197.5 67h-303v-1108z" />
<glyph unicode="E" horiz-adv-x="878" d="M125 16v1231q0 17 16 17h635q15 0 15 -17v-47q0 -14 -15 -14h-563v-494h492q14 0 14 -16v-47q0 -15 -14 -15h-492v-536h588q16 0 16 -15v-47q0 -16 -16 -16h-660q-16 0 -16 16z" />
<glyph unicode="F" horiz-adv-x="813" d="M125 14v1233q0 17 18 17h639q15 0 15 -15v-49q0 -14 -15 -14h-567v-496h481q15 0 15 -16v-49q0 -15 -15 -15h-481l-2 -596q0 -14 -14 -14h-58q-16 0 -16 14z" />
<glyph unicode="G" horiz-adv-x="944" d="M119 317v635q0 140 103.5 233t260.5 93q97 0 183.5 -34t130.5 -97q10 -16 -4 -27l-37 -28q-18 -14 -31 6q-36 50 -102.5 76t-137.5 26q-123 0 -200.5 -73.5t-77.5 -182.5v-622q0 -116 79.5 -187.5t198.5 -71.5q122 0 197.5 68.5t75.5 190.5v276h-193q-16 0 -16 14v50 q0 16 16 16h264q7 0 13 -5t6 -11v-343q0 -146 -100 -239.5t-263 -93.5q-161 0 -263.5 90t-102.5 241z" />
<glyph unicode="H" horiz-adv-x="1021" d="M125 14v1235q0 15 16 15h58q14 0 14 -15v-559h596v559q0 15 16 15h58q16 0 16 -15v-1235q0 -14 -14 -14h-60q-16 0 -16 14v598h-596v-598q0 -14 -14 -14h-58q-16 0 -16 14z" />
<glyph unicode="I" horiz-adv-x="411" d="M160 14v1235q0 15 16 15h57q17 0 17 -15v-1235q0 -14 -17 -14h-57q-16 0 -16 14z" />
<glyph unicode="J" horiz-adv-x="464" d="M-55 -168q-6 20 14 27q57 20 98 41.5t69.5 48t46 54t27 67t12.5 78.5t3 96v1001q0 17 16 17h54q18 0 18 -17v-993q0 -112 -12 -182t-47.5 -127.5t-96.5 -95t-163 -72.5q-23 -6 -27 12z" />
<glyph unicode="K" horiz-adv-x="962" d="M125 14v1231q0 19 16 19h60q12 0 12 -17v-614l6 -2l545 618q13 13 24 13h64q11 0 13 -6.5t-5 -12.5l-450 -516l6 -6q55 14 119 14q299 0 323 -329l29 -392q0 -14 -15 -14h-53q-13 0 -16 16l-27 365q-2 42 -7.5 74.5t-22.5 73.5t-45 68t-78.5 46t-118.5 19q-80 0 -139 -25 t-91 -67.5t-46.5 -90t-14.5 -100.5v-363q0 -16 -12 -16h-60q-16 0 -16 14z" />
<glyph unicode="L" horiz-adv-x="808" d="M117 16v1233q0 15 16 15h57q15 0 15 -15v-1169h569q14 0 14 -14v-50q0 -16 -14 -16h-639q-18 0 -18 16z" />
<glyph unicode="M" horiz-adv-x="1243" d="M115 14v1223q0 27 24 27h47q24 0 29 -19q65 -170 199.5 -533t206.5 -550h6q79 201 217 577t188 508q10 17 29 17h47q25 0 25 -27v-1223q0 -14 -15 -14h-55q-16 0 -16 14v1020h-7l-166 -438q-11 -30 -87 -227t-115 -301q-6 -19 -27 -19h-45q-20 0 -27 17l-200 522 q-3 9 -166 444h-6v-1018q0 -14 -15 -14h-57q-14 0 -14 14z" />
<glyph unicode="N" horiz-adv-x="1017" d="M117 14v1223q0 27 24 27h45q20 0 31 -19l592 -1073h4v1075q0 17 16 17h56q14 0 14 -17v-1224q0 -11 -6.5 -17t-15.5 -6h-48q-20 0 -28 16q-354 635 -592 1067h-4v-1069q0 -14 -17 -14h-57q-14 0 -14 14z" />
<glyph unicode="O" horiz-adv-x="974" d="M119 338v600q0 148 101 244t265 96q168 0 269.5 -94t101.5 -246v-610q0 -153 -99 -247.5t-270 -94.5q-176 0 -272 98.5t-96 253.5zM207 342q0 -119 70 -199t210 -80q132 0 206.5 73.5t74.5 195.5v602q0 113 -72.5 188.5t-208.5 75.5q-131 0 -205.5 -75.5t-74.5 -188.5 v-592z" />
<glyph unicode="P" horiz-adv-x="911" d="M131 12v1233q0 7 5.5 13t13.5 6h387q151 0 242 -94.5t91 -241.5q0 -169 -106 -252.5t-291 -83.5h-254v-578q0 -14 -14 -14h-58q-16 0 -16 12zM219 670h254q156 0 233.5 61t77.5 197q0 128 -81 193t-230 65h-254v-516z" />
<glyph unicode="Q" horiz-adv-x="974" d="M119 326v622q0 144 105.5 237t260.5 93q160 0 265.5 -91t105.5 -239v-629q0 -137 -87 -225.5t-243 -105.5q0 -37 4.5 -65t17 -54.5t38 -40.5t63.5 -14q60 0 125 22q18 11 25 -6l14 -37q2 -12 0 -16.5t-10 -9.5q-70 -33 -156 -33q-203 0 -203 244v10q-154 12 -239.5 106 t-85.5 232zM207 330q0 -117 75.5 -192t204.5 -75q123 0 202 71.5t79 189.5v620q0 108 -78 182t-203 74q-122 0 -201 -74t-79 -182v-614z" />
<glyph unicode="R" horiz-adv-x="952" d="M125 12v1231q0 8 5.5 13.5t14.5 5.5h371q168 0 258 -92t90 -248q0 -102 -48 -190.5t-132 -151.5q-14 -11 -16 -20t6 -28l237 -509q5 -9 1.5 -16t-15.5 -7h-51q-26 0 -33 20l-248 533h-352v-539q0 -14 -14 -14h-58q-16 0 -16 12zM213 629h373q29 0 55 20q69 52 102 121 t33 141q0 40 -7 76t-26 73.5t-49.5 64.5t-81.5 44t-118 17h-281v-557z" />
<glyph unicode="S" horiz-adv-x="874" d="M63 117q-11 11 5 26l26 27q13 13 29 0q53 -44 129.5 -75.5t144.5 -31.5q141 0 228.5 67t87.5 192q0 61 -19 107.5t-59.5 80t-81.5 55t-107 47.5q-146 57 -201 89q-165 96 -165 251q0 102 50.5 178t128.5 112t169 36q191 0 315 -94q13 -9 2 -27l-24 -37q-11 -16 -29 -2 q-51 37 -121 58.5t-135 21.5q-50 0 -96 -13.5t-85.5 -41.5t-63 -77t-23.5 -114q0 -34 11.5 -64t36 -54.5t48 -42.5t63 -37t64 -29.5t66.5 -26.5q63 -25 104.5 -44.5t91.5 -52.5t79 -68.5t49 -87.5t20 -115q0 -163 -113 -251.5t-289 -88.5q-98 0 -189.5 34t-146.5 93z" />
<glyph unicode="T" horiz-adv-x="819" d="M25 1200v47q0 17 14 17h741q15 0 15 -15v-49q0 -14 -15 -14h-329v-1172q0 -14 -15 -14h-55q-19 0 -19 14v1172h-323q-8 0 -11 2.5t-3 11.5z" />
<glyph unicode="U" horiz-adv-x="980" d="M121 326v923q0 15 16 15h58q14 0 14 -15v-919q0 -115 75.5 -191t209.5 -76q130 0 204 75.5t74 189.5v921q0 15 16 15h58q14 0 14 -15v-923q0 -153 -103 -246.5t-265 -93.5q-170 0 -270.5 95t-100.5 245z" />
<glyph unicode="V" horiz-adv-x="858" d="M20 1243q-9 21 15 21h59q15 0 21 -15l198 -727l117 -422h4q3 14 57 208.5t58 213.5l196 727q5 15 21 15h59q22 0 15 -25l-351 -1227q-2 -12 -18 -12h-84q-13 0 -16 14z" />
<glyph unicode="W" horiz-adv-x="1304" d="M6 1245q-5 19 14 19h62q13 0 16 -17l170 -780l72 -340h8l72 336l174 788q4 13 20 13h64q15 0 18 -19q1 -6 92 -385t99 -422l69 -311h9l65 319l166 803q2 15 18 15h62q19 0 12 -23l-268 -1229q-6 -12 -19 -12h-86q-11 0 -14 12l-188 803l-66 291h-4q-57 -256 -63 -297 l-179 -797q-2 -12 -18 -12h-84q-9 0 -16 10z" />
<glyph unicode="X" horiz-adv-x="845" d="M20 18l353 639l-322 586q-8 21 12 21h64q17 0 23 -11q41 -75 132 -245.5t140 -259.5h6l272 505q8 11 25 11h59q9 0 12.5 -7t-1.5 -14l-322 -584q64 -117 188 -340.5t166 -300.5q4 -6 1 -12t-11 -6h-59q-19 0 -25 8l-307 563h-4l-307 -563q-6 -8 -25 -8h-59q-20 0 -11 18z " />
<glyph unicode="Y" horiz-adv-x="825" d="M29 1243q-11 21 12 21h57q15 0 25 -17l287 -653h6q9 23 141 321t145 332q11 17 27 17h57q24 0 11 -23l-330 -725q-10 -23 -10 -49v-453q0 -14 -15 -14h-57q-16 0 -16 14v443q0 31 -9 51z" />
<glyph unicode="Z" horiz-adv-x="804" d="M37 18v33q0 19 8 39l617 1096h-578q-18 0 -18 16v45q0 17 16 17h657q23 0 23 -21v-31q0 -23 -12 -43l-611 -1089h615q16 0 16 -17v-47q0 -16 -14 -16h-699q-20 0 -20 18z" />
<glyph unicode="[" horiz-adv-x="622" d="M193 -276v1646q0 16 14 16h254q14 0 14 -16v-45q0 -12 -12 -12h-184v-1532h182q14 0 14 -12v-45q0 -15 -12 -15h-256q-14 0 -14 15z" />
<glyph unicode="\" horiz-adv-x="581" d="M12 1364q-6 16 13 16h28q18 0 23 -16l497 -1485q1 -7 -3 -11.5t-11 -4.5h-31q-15 0 -18 16z" />
<glyph unicode="]" horiz-adv-x="624" d="M109 -231q0 12 14 12h182v1532h-184q-12 0 -12 12v45q0 16 14 16h256q12 0 12 -16v-1646q0 -15 -12 -15h-258q-12 0 -12 15v45z" />
<glyph unicode="^" horiz-adv-x="1019" d="M143 821l312 445q9 12 28 12h43q14 0 23 -12l319 -449q11 -14 -8 -29l-22 -16q-9 -6 -29 14l-309 394l-297 -394q-17 -20 -31 -12l-27 19q-17 10 -2 28z" />
<glyph unicode="_" horiz-adv-x="1024" d="M-8 -178q0 14 16 14h1010q12 0 12 -14v-41q0 -12 -12 -12h-1010q-14 0 -14 12z" />
<glyph unicode="`" horiz-adv-x="823" d="M266 1245q-18 22 10 35l46 25q24 12 36 -9l140 -254l1 -2q6 -15 -7 -24l-23 -12q-15 -8 -27 8z" />
<glyph unicode="a" horiz-adv-x="782" d="M57 283q0 132 82.5 218.5t229.5 86.5q156 0 229 -103h4v119q0 223 -223 223q-49 0 -113.5 -12.5t-103.5 -30.5q-14 -10 -21 7l-18 43q-3 12 10 18q105 51 252 51q158 0 230.5 -77t72.5 -228v-584q0 -14 -14 -14h-53q-13 0 -13 12v92h-2q-38 -52 -107.5 -83t-146.5 -31 q-139 0 -217 80t-78 213zM137 287q0 -102 56.5 -165t171.5 -63q101 0 167 67.5t66 164.5t-62 163t-165 66q-109 0 -171.5 -67t-62.5 -166z" />
<glyph unicode="b" horiz-adv-x="841" d="M104 12v1278q0 15 17 15h57q12 0 12 -13v-504l5 -2q42 53 110.5 84t147.5 31q69 0 124 -19.5t90.5 -52t59 -77t33.5 -91.5t10 -98v-254q0 -141 -85 -230t-239 -89q-81 0 -149 29.5t-107 84.5h-4v-90q0 -14 -14 -14h-51q-17 0 -17 12zM188 309q0 -106 71 -177t177 -71 q120 0 184 68t64 184v254q0 111 -62 185.5t-184 74.5q-107 0 -178.5 -75t-71.5 -181v-262z" />
<glyph unicode="c" horiz-adv-x="759" d="M92 313v262q0 146 94.5 236t241.5 90q177 0 274 -129q10 -16 -4 -24l-36 -31q-12 -9 -27 6q-35 49 -90.5 76.5t-118.5 27.5q-108 0 -179 -70.5t-71 -178.5v-265q0 -114 70.5 -182t181.5 -68q135 0 211 103q9 15 23 4l36 -23q16 -12 9 -26q-92 -131 -281 -131 q-155 0 -244.5 87.5t-89.5 235.5z" />
<glyph unicode="d" horiz-adv-x="856" d="M98 309v258q0 63 20 121.5t58 106.5t102.5 77t145.5 29q79 0 143.5 -28.5t102.5 -81.5l6 4v495q0 15 14 15h58q14 0 14 -13v-1280q0 -12 -14 -12h-54q-12 0 -12 14v92l-6 3q-41 -58 -110.5 -88.5t-147.5 -30.5q-150 0 -235 87t-85 232zM182 313q0 -112 65 -182t181 -70 q108 0 179 71t71 177v262q0 107 -68.5 180.5t-179.5 73.5q-121 0 -184.5 -74t-63.5 -184v-254z" />
<glyph unicode="e" horiz-adv-x="835" d="M98 311v258q0 151 94 241.5t236 90.5q149 0 241.5 -88t92.5 -252v-88q0 -17 -8.5 -26t-20.5 -9h-551v-125q0 -111 64 -181.5t186 -70.5q129 0 213 101q12 15 27 6l33 -23q15 -8 8 -22q-91 -133 -283 -133q-154 0 -243 87t-89 234zM182 510h494v70q0 109 -67 178t-181 69 q-105 0 -175.5 -68.5t-70.5 -176.5v-72z" />
<glyph unicode="f" horiz-adv-x="526" d="M35 831v46q0 14 12 14h115v164q0 129 68.5 196.5t187.5 67.5q79 0 135 -19q19 -6 14 -20l-12 -43q-4 -15 -20 -12q-56 18 -105 18q-99 0 -141.5 -53t-42.5 -152v-147h258q12 0 12 -14v-48q0 -12 -12 -12h-258v-805q0 -12 -15 -12h-57q-14 0 -14 12v805h-113q-12 0 -12 14 z" />
<glyph unicode="g" horiz-adv-x="882" d="M55 -154q0 22 7 49t18 27q13 0 39 -8t26 -14q0 -8 -1 -18t-1 -13q0 -76 72.5 -128t202.5 -52q122 0 199 49t77 137q0 174 -223 174h-113q-196 0 -196 125q0 79 69 143q-153 89 -153 277q0 127 93 217t232 90t228 -82q36 31 90 55.5t100 24.5q17 0 17 -20v-62 q0 -16 -15 -16h-4q-30 0 -76 -10.5t-67 -20.5q57 -72 57 -176q0 -131 -88 -223t-239 -92q-44 0 -99 10q-20 -10 -36.5 -37t-16.5 -59q0 -70 113 -70h143q123 0 198.5 -64.5t75.5 -175.5q0 -129 -102 -198.5t-264 -69.5q-166 0 -264.5 65.5t-98.5 165.5zM164 588 q0 -99 62.5 -169.5t172.5 -70.5q116 0 181 71t65 173q0 98 -66 165.5t-173 67.5q-106 0 -174 -69.5t-68 -167.5z" />
<glyph unicode="h" horiz-adv-x="876" d="M111 12v1278q0 15 14 15h57q13 0 13 -15v-508l6 -2q98 121 258 121q83 0 146 -28t99 -76t54 -106.5t18 -125.5v-551q0 -14 -14 -14h-57q-15 0 -15 12v555q0 111 -64 185.5t-184 74.5q-107 0 -176 -74t-69 -182v-557q0 -14 -15 -14h-57q-14 0 -14 12z" />
<glyph unicode="i" horiz-adv-x="352" d="M111 1151q0 26 18 43.5t43 17.5q26 0 43.5 -17.5t17.5 -43.5t-18 -45t-43 -19t-43 18.5t-18 45.5zM127 12v865q0 14 14 14h58q14 0 14 -14v-865q0 -12 -14 -12h-58q-14 0 -14 12z" />
<glyph unicode="j" horiz-adv-x="335" d="M-100 -336l10 45q3 13 20 10q27 -8 74 -8q73 0 100 39t27 125v1002q0 14 14 14h58q14 0 14 -14v-1008q0 -118 -50.5 -177t-156.5 -59q-61 0 -98 13q-15 3 -12 18zM113 1151q0 26 18 43.5t43 17.5q26 0 44 -17.5t18 -43.5t-18 -45t-42 -19q-26 0 -44.5 18.5t-18.5 45.5z " />
<glyph unicode="k" horiz-adv-x="831" d="M106 12v1278q0 15 15 15h57q15 0 15 -15v-841q1 0 2 -1.5t2 -1.5q76 75 438 433q13 10 27 10h73q10 0 10 -10q0 -7 -4 -11l-340 -333q39 4 82 4q123 -3 196 -88.5t81 -227.5l10 -207q0 -16 -18 -16h-52q-16 0 -16 14l-10 209q-12 246 -240 246q-103 0 -172 -70t-69 -161 v-226q0 -12 -15 -12h-57q-15 0 -15 12z" />
<glyph unicode="l" horiz-adv-x="399" d="M143 166v1124q0 15 13 15h57q14 0 14 -15v-1095q0 -66 20.5 -95.5t78.5 -29.5h20q16 0 16 -19v-47q0 -14 -16 -14h-39q-97 0 -130.5 46t-33.5 130z" />
<glyph unicode="m" horiz-adv-x="1359" d="M104 12v580q0 140 87.5 224.5t228.5 84.5q51 0 97.5 -14.5t91.5 -50.5t73 -91h2q43 76 115.5 116t156.5 40q151 0 226 -81t75 -228v-578q0 -14 -12 -14h-59q-15 0 -15 12v580q0 106 -54 170.5t-165 64.5q-91 0 -159 -69.5t-68 -165.5v-578q0 -14 -14 -14h-58 q-14 0 -14 12v580q0 100 -61 167.5t-158 67.5q-102 0 -166 -67t-64 -168v-578q0 -14 -12 -14h-59q-15 0 -15 12z" />
<glyph unicode="n" horiz-adv-x="874" d="M109 12v865q0 14 14 14h55q12 0 12 -14v-95h9q102 119 262 119q83 0 145 -27.5t98 -75.5t53 -106.5t17 -126.5v-551q0 -14 -12 -14h-60q-14 0 -14 12v555q0 114 -60 187t-188 73q-107 0 -176 -74t-69 -182v-557q0 -14 -15 -14h-57q-14 0 -14 12z" />
<glyph unicode="o" horiz-adv-x="862" d="M100 315v263q0 146 90 234.5t244 88.5q153 0 241.5 -87.5t88.5 -238.5v-256q0 -156 -87 -242.5t-243 -86.5q-159 0 -246.5 87t-87.5 238zM184 317q0 -119 64.5 -187.5t185.5 -68.5t183.5 68.5t62.5 189.5v254q0 113 -63.5 183.5t-182.5 70.5q-109 0 -179.5 -71.5 t-70.5 -180.5v-258z" />
<glyph unicode="p" horiz-adv-x="870" d="M113 -356v1233q0 14 14 14h53q13 0 13 -14v-97l6 -2q42 59 111.5 91t146.5 32q150 0 234.5 -87t84.5 -234v-256q0 -64 -18.5 -122t-56 -106.5t-102 -77t-148.5 -28.5q-79 0 -144.5 29t-101.5 81l-6 -2v-454q0 -13 -15 -13h-57q-14 0 -14 13zM197 322q0 -108 68 -183.5 t179 -75.5q125 0 186.5 74t61.5 185v253q0 112 -65 182t-181 70q-109 0 -179 -70t-70 -177v-258z" />
<glyph unicode="q" horiz-adv-x="856" d="M86 326v254q0 143 85 232t239 89q80 0 148.5 -31t107.5 -88l4 2v93q0 14 14 14h51q15 0 15 -12v-1241q0 -15 -15 -15h-57q-12 0 -12 15v464l-7 2q-40 -53 -107 -83.5t-146 -30.5q-69 0 -124.5 19.5t-91.5 52t-60 76.5t-34 90.5t-10 97.5zM170 330q0 -52 14.5 -98.5 t43 -85t77.5 -61t113 -22.5q107 0 177.5 75t70.5 181v261q0 107 -70 178t-176 71q-120 0 -185 -72t-65 -188v-239z" />
<glyph unicode="r" horiz-adv-x="522" d="M115 12v865q0 14 14 14h53q13 0 13 -14v-115h4q39 64 104 103.5t137 39.5q37 0 58 -6q16 -5 14 -20l-14 -60q-3 -16 -23 -12q-28 4 -51 4q-105 0 -164 -72t-59 -188v-537q0 -14 -13 -14h-57q-16 0 -16 12z" />
<glyph unicode="s" horiz-adv-x="696" d="M49 152q-8 12 6 18l45 23q11 6 21 -9q31 -56 94 -90.5t133 -34.5q94 0 152.5 44.5t58.5 117.5q0 40 -15.5 70.5t-47 53.5t-57 35.5t-68.5 29.5q-7 3 -37.5 14t-41 15t-39 16t-41 19t-36 21t-35 25.5t-27.5 29t-23.5 35t-13 39.5t-5.5 46q0 73 41.5 127t103 78.5 t133.5 25.5q82 0 152.5 -26.5t115.5 -75.5q10 -13 -2 -25l-28 -33q-12 -13 -27 2q-40 38 -97 61t-114 23q-43 0 -84.5 -13.5t-75.5 -49.5t-34 -88q0 -26 8.5 -47.5t28.5 -40t35.5 -30.5t48 -26t46 -19.5t48.5 -18.5q36 -14 58 -23t54 -24.5t52 -29t43 -34.5t35.5 -43.5 t21 -52.5t8.5 -64q0 -96 -76.5 -165.5t-220.5 -69.5q-96 0 -177.5 42t-119.5 122z" />
<glyph unicode="t" horiz-adv-x="569" d="M37 831v46q0 14 12 14h129v225q0 14 15 17l55 14q16 3 16 -14v-242h240q14 0 14 -14v-46q0 -14 -14 -14h-240v-569q0 -96 32 -138t105 -42q79 0 129 16q19 2 23 -14l8 -41q2 -14 -10 -19q-51 -20 -162 -20q-62 0 -104.5 18t-65 52.5t-32 76t-9.5 96.5v584h-129 q-12 0 -12 14z" />
<glyph unicode="u" horiz-adv-x="876" d="M104 326v551q0 14 13 14h57q14 0 14 -14v-555q0 -109 64.5 -182.5t183.5 -73.5q108 0 177 73.5t69 179.5v558q0 14 14 14h58q16 0 16 -14v-863q0 -14 -14 -14h-58q-12 0 -12 14v99h-8q-42 -61 -112 -92t-146 -31q-83 0 -145.5 28t-99 76t-54 106.5t-17.5 125.5z" />
<glyph unicode="v" horiz-adv-x="757" d="M25 872q-6 19 12 19h51q18 0 27 -21l170 -491l92 -273h6l90 269l168 493q4 9 6 12.5t7 7t14 3.5h53q18 0 12 -19l-305 -854q-5 -18 -22 -18h-50q-14 0 -18.5 3t-7.5 13z" />
<glyph unicode="w" horiz-adv-x="1155" d="M20 872q-6 19 13 19h53q20 0 25 -21l116 -462l72 -291h4l84 280l141 471q3 13 7.5 18t17.5 5h45q11 0 16 -4t9 -17l151 -495l78 -254h4l64 248l122 501q6 21 27 21h49q15 0 12 -17l-227 -856q-5 -18 -20 -18h-49h-11.5t-7 2t-5 5t-3.5 9l-156 502l-76 254h-4l-73 -262 l-152 -494q-5 -16 -22 -16h-50q-13 0 -18 3t-8 13z" />
<glyph unicode="x" horiz-adv-x="706" d="M18 16l283 451q-63 105 -252 403q-9 19 10 19h56q14 0 19.5 -2.5t12.5 -14.5q40 -69 107.5 -176t95.5 -157h6l201 333q6 11 12 14t21 3h55q8 0 11 -5.5t-1 -13.5l-252 -401l285 -453q8 -16 -10 -16h-57q-22 0 -33 16l-234 381h-4l-231 -381q-11 -16 -35 -16h-55 q-19 0 -11 16z" />
<glyph unicode="y" horiz-adv-x="739" d="M16 872q-4 19 15 19h51q16 0 24 -17q22 -71 73 -242.5t92 -303.5t81 -256h6q44 129 134.5 400t134.5 400q5 19 22 19h49q20 0 17 -19l-412 -1224q-4 -23 -31 -23h-41q-21 0 -14 25l115 350h-23q-19 0 -24 18z" />
<glyph unicode="z" horiz-adv-x="692" d="M49 18v29q0 22 8 33l471 737h-446q-16 0 -16 14v43q0 17 14 17h530q21 0 21 -21v-30q0 -24 -6 -33l-471 -733h487q16 0 16 -15v-45q0 -14 -14 -14h-575q-19 0 -19 18z" />
<glyph unicode="{" horiz-adv-x="616" d="M88 535v45q0 5 1 9t4 6.5t4.5 3.5t7 4t6.5 3q82 35 114.5 95.5t32.5 152.5v276q0 145 60 208t194 63h35q12 0 12 -15v-45q0 -14 -12 -14h-39q-94 0 -131 -39.5t-37 -140.5v-334q0 -78 -38 -148.5t-109 -99.5v-6q71 -27 109 -98.5t38 -165.5v-330q0 -114 35.5 -155 t132.5 -41h39q12 0 12 -15v-43q0 -14 -12 -14h-35q-136 0 -195 61.5t-59 208.5v338q-10 154 -143 207q-27 9 -27 23z" />
<glyph unicode="|" horiz-adv-x="403" d="M164 -217v1585q0 14 14 14h43q12 0 12 -12v-1587q0 -12 -12 -12h-43q-14 0 -14 12z" />
<glyph unicode="}" horiz-adv-x="616" d="M72 -246q0 15 12 15h39q94 0 131 39.5t37 140.5v346q0 94 38 165.5t109 98.5v6q-67 27 -104.5 93t-42.5 139v350q0 101 -37 140.5t-131 39.5h-39q-12 0 -12 14v45q0 15 12 15h35q141 0 197.5 -69t56.5 -234v-279q6 -153 145 -213q2 -1 4.5 -2t4 -1.5t4 -1.5t3.5 -2 t3 -2.5t3 -3t1.5 -3.5t1 -4.5t0.5 -5.5v-45q0 -14 -29 -23q-83 -33 -113 -96t-30 -166v-305q-6 -133 -64.5 -190.5t-187.5 -57.5h-35q-12 0 -12 14v43z" />
<glyph unicode="~" horiz-adv-x="911" d="M33 586q43 61 100.5 92t118.5 31q74 0 180 -56q3 -2 21 -11.5t22.5 -12t21 -11t22.5 -11.5t21 -9.5t23 -9t21.5 -7t23 -6t21 -3t22.5 -1.5q44 0 85 27.5t71 67.5q13 19 24 8l39 -31q11 -9 4 -22q-41 -63 -100 -98.5t-121 -35.5q-37 0 -80.5 12t-72.5 24.5t-74 35.5 q-1 1 -17.5 10t-20 10.5t-18.5 9.5t-21 10.5t-19 8.5t-21 8t-19.5 5.5t-21 4.5t-18.5 1q-84 0 -162 -95q-7 -7 -18 0l-35 31q-9 9 -2 23z" />
<glyph unicode="&#xa1;" horiz-adv-x="503" d="M188 819q0 30 20 50t50 20q29 0 50.5 -20.5t21.5 -49.5q0 -28 -21.5 -48.5t-50.5 -20.5q-30 0 -50 20t-20 49zM213 -369q4 317 16 947q0 14 13 14h30q15 0 15 -12l24 -949q0 -16 -16 -16h-66q-16 0 -16 16z" />
<glyph unicode="&#xa2;" horiz-adv-x="911" d="M150 313v262q0 130 78.5 219.5t209.5 106.5v143q0 15 15 15h36q15 0 15 -15v-143q171 -9 254 -129q12 -15 -2 -24l-41 -31q-12 -9 -27 6q-72 102 -217 102q-104 0 -171 -72.5t-67 -174.5v-265q0 -109 64.5 -179.5t171.5 -70.5q74 0 126 25.5t97 77.5q11 13 23 4l41 -23 q17 -12 6 -26q-86 -125 -258 -131v-154q0 -12 -12 -12h-39q-15 0 -15 12v154q-142 12 -215 100t-73 223z" />
<glyph unicode="&#xa3;" horiz-adv-x="911" d="M68 618v48q0 14 14 14h111v291q6 133 102 220t242 87q209 -6 297 -133q4 -4 4 -12q0 -6 -7 -13l-40 -26q-7 -7 -15 -7q-7 0 -14 11q-35 49 -93.5 76.5t-129.5 27.5q-112 0 -186 -67.5t-74 -173.5v-281h272q12 0 12 -14v-48q0 -14 -12 -14h-272v-225q0 -111 -11.5 -179 t-54.5 -118q0 -1 1 -3t1 -3h555q14 0 14 -15v-47q0 -14 -12 -14h-688q-14 0 -14 12v47q0 5 1 8t3.5 5.5t4.5 3.5t6.5 3t6.5 3q54 35 77.5 94t23.5 160v266h-111q-14 0 -14 16z" />
<glyph unicode="&#xa4;" horiz-adv-x="997" d="M152 197q-8 8 0 20l106 109q-63 81 -63 182t65 182l-104 111q-9 9 0 18l37 37q8 8 16 0l106 -111q75 60 179 60q100 0 182 -66l112 113q9 13 19 0l35 -37q8 -8 2 -18l-113 -111q62 -74 62 -178q0 -102 -60 -180l107 -105q9 -9 2 -18l-37 -35q-11 -10 -19 -2l-108 104 q-83 -67 -184 -67q-104 0 -181 65l-106 -106q-8 -13 -21 0zM268 506q0 -93 66.5 -159t159.5 -66q95 0 161 65.5t66 159.5q0 95 -66 161t-161 66q-93 0 -159.5 -66t-66.5 -161z" />
<glyph unicode="&#xa5;" horiz-adv-x="911" d="M72 1243q-10 21 12 21h57q15 0 25 -17l287 -653h6q9 23 141 321t145 332q11 17 27 17h57q24 0 11 -23l-285 -623h256q12 0 12 -12v-37q0 -14 -12 -14h-285l-16 -39q-10 -23 -10 -49v-27h311q12 0 12 -12v-37q0 -14 -12 -14h-311v-363q0 -14 -15 -14h-57q-16 0 -16 14v363 h-295q-13 0 -13 14v37q0 12 13 12h295v17q0 31 -9 51l-22 47h-264q-13 0 -13 14v37q0 12 13 12h235z" />
<glyph unicode="&#xa6;" horiz-adv-x="403" d="M164 -217v743q0 15 14 15h43q15 0 15 -13l-3 -745q0 -12 -12 -12h-43q-14 0 -14 12zM164 623v745q0 14 14 14h43q12 0 12 -12v-747q0 -13 -12 -13h-43q-14 0 -14 13z" />
<glyph unicode="&#xa7;" horiz-adv-x="835" d="M125 -33q-11 11 2 23l23 20l6.5 6.5t6.5 5t8 3.5t7.5 -1t9.5 -6q40 -38 104.5 -64t131.5 -26q57 0 108.5 17t89 56.5t37.5 94.5q0 32 -14 59.5t-34 46.5t-57.5 38.5t-68 31.5t-82.5 31q-129 46 -199.5 105t-70.5 145q0 74 45.5 128.5t126.5 82.5q20 2 25 -10l10 -25 q9 -23 -12 -31q-53 -20 -85 -57.5t-32 -79.5q0 -55 51.5 -100t163.5 -86q61 -21 99.5 -36.5t84 -40.5t71 -51t43 -64t17.5 -83q0 -112 -92 -176.5t-231 -64.5q-89 0 -168 29t-125 79zM143 1098q0 102 79.5 165.5t219.5 63.5q164 0 260 -104q6 -3 6 -11t-6 -12l-30 -33 q-4 -5 -13.5 -4.5t-15.5 6.5q-39 40 -94 64t-111 24q-97 0 -156 -43.5t-59 -107.5q0 -59 49.5 -102.5t159.5 -83.5q58 -20 96.5 -36.5t81 -40.5t67 -50.5t40.5 -63.5t16 -82q0 -76 -40 -131.5t-107 -81.5q-17 -4 -23 8l-14 33q-4 7 -2 13t14 14q47 32 69.5 61.5t22.5 79.5 q0 40 -17 71t-55.5 56t-75 41t-99.5 39q-128 46 -195.5 103t-67.5 145z" />
<glyph unicode="&#xa8;" horiz-adv-x="833" d="M211 1149q0 26 17 43.5t42 17.5t42.5 -17.5t17.5 -43.5t-18 -44t-42 -18t-41.5 18.5t-17.5 43.5zM524 1149q0 26 17.5 43.5t42.5 17.5t43 -17.5t18 -43.5q0 -25 -17.5 -43.5t-41.5 -18.5q-26 0 -44 18.5t-18 43.5z" />
<glyph unicode="&#xa9;" horiz-adv-x="1433" d="M131 487v289q0 222 162.5 355t427.5 133q267 0 430.5 -130t163.5 -358v-289q0 -228 -163.5 -357.5t-430.5 -129.5q-265 0 -427.5 132.5t-162.5 354.5zM184 481q0 -88 35 -166t100.5 -138t169 -95t230.5 -35q168 0 293.5 59t188.5 156.5t63 218.5v301q0 190 -146 312.5 t-399 122.5q-128 0 -231 -34.5t-168.5 -94t-100.5 -138t-35 -168.5v-301zM473 506v219q0 108 72.5 177t187.5 69q147 0 219 -101q6 -13 -4 -18l-26 -18q-15 -11 -23 2q-56 79 -168 79q-86 0 -141 -53.5t-55 -138.5v-213q0 -84 57 -139.5t141 -55.5q50 0 94 20.5t72 57.5 q12 16 23 8l28 -20q11 -7 4 -21q-78 -100 -221 -100q-117 0 -188.5 67t-71.5 179z" />
<glyph unicode="&#xaa;" horiz-adv-x="532" d="M35 684q0 88 60.5 145.5t156.5 57.5q91 0 145 -66h4v56q0 30 -5 51.5t-19 43.5t-44.5 34t-76.5 12q-79 0 -141 -27q-17 -9 -23 8l-12 25q-7 18 12 27q72 32 164 32q221 0 221 -209v-362q0 -18 -14 -18h-41q-16 0 -16 18v47h-3q-25 -31 -67.5 -51.5t-85.5 -20.5 q-99 0 -157 54t-58 143zM106 686q0 -57 41 -97t107 -40q61 0 102 40.5t41 96.5q0 57 -41.5 98t-101.5 41q-61 0 -104.5 -41t-43.5 -98z" />
<glyph unicode="&#xab;" horiz-adv-x="915" d="M147 426l259 317q14 17 36 17h52q12 0 15 -7t-3 -14l-275 -336l273 -340q7 -11 3.5 -17.5t-13.5 -6.5h-52q-23 0 -36 18l-256 322q-19 25 -3 47zM446 379q-17 25 0 47l259 317q14 17 36 17h52q12 0 15 -7t-5 -14l-273 -336l271 -340q8 -11 5 -17.5t-13 -6.5h-52 q-23 0 -39 18z" />
<glyph unicode="&#xac;" horiz-adv-x="911" d="M66 465v41q0 18 16 18h745q17 0 17 -18v-404q0 -16 -17 -16h-47q-16 0 -16 16v347h-682q-16 0 -16 16z" />
<glyph unicode="&#xad;" horiz-adv-x="610" d="M121 461v55q0 14 14 14h338q12 0 12 -14v-55q0 -15 -12 -15h-338q-14 0 -14 15z" />
<glyph unicode="&#xae;" horiz-adv-x="823" d="M88 893v162q0 118 86.5 192t233.5 74q146 0 234.5 -73t88.5 -193v-162q0 -122 -83.5 -194t-239.5 -72q-146 0 -233 75t-87 191zM127 895q0 -102 75 -166.5t206 -64.5q132 0 207 63.5t75 167.5v158q0 105 -75 167t-207 62q-131 0 -206 -63.5t-75 -165.5v-158zM301 795v354 q0 5 4.5 9.5t11.5 4.5h111q55 0 84 -28t29 -74q0 -32 -19 -60t-49 -40q-9 -5 -2 -19l74 -147q4 -11 -10 -11h-23q-3 0 -5 0.5t-4 2.5t-2.5 3t-2 3.5t-2.5 3.5l-76 153h-76v-155q0 -11 -10 -11h-23q-7 0 -8.5 2t-1.5 9zM344 985h82q25 0 48.5 22.5t23.5 51.5t-18.5 47 t-47.5 18h-88v-139z" />
<glyph unicode="&#xaf;" horiz-adv-x="782" d="M205 1102v41q0 14 12 14h371q14 0 14 -14v-41q0 -15 -12 -15h-373q-12 0 -12 15z" />
<glyph unicode="&#xb0;" horiz-adv-x="618" d="M96 1081q0 86 60 144.5t147 58.5q104 0 160.5 -56.5t56.5 -146.5q0 -83 -63.5 -140.5t-151.5 -57.5q-89 0 -149 56t-60 142zM160 1081q0 -61 40.5 -104t102.5 -43q63 0 108.5 42.5t45.5 104.5q0 64 -42.5 107t-111.5 43q-59 0 -101 -43t-42 -107z" />
<glyph unicode="&#xb1;" horiz-adv-x="911" d="M55 111v39q0 18 17 18h768q16 0 16 -18v-39q0 -17 -16 -17h-768q-17 0 -17 17zM68 670v39q0 18 18 18h328v348q0 17 18 17h41q16 0 16 -17v-348h340q8 0 13.5 -5.5t5.5 -12.5v-39q0 -17 -19 -17h-340v-348q0 -16 -16 -16h-41q-18 0 -18 16v348h-328q-18 0 -18 17z" />
<glyph unicode="&#xb2;" horiz-adv-x="593" d="M37 692v25q0 15 8 28q26 31 90 105t104.5 123t88.5 111t72 108t24 74q0 55 -38.5 87.5t-109.5 32.5q-81 0 -149 -59q-22 -16 -28 -12q-3 1 -5 4l-26 31q-10 8 4 22q37 36 92.5 57t114.5 21q99 0 159 -47t60 -131q0 -82 -92 -197l-275 -334v-2h352q19 0 19 -16v-31 q0 -16 -19 -16h-428q-18 0 -18 16z" />
<glyph unicode="&#xb3;" horiz-adv-x="593" d="M66 752q-10 17 2 24l26 21q8 5 14.5 4.5t14.5 -8.5q23 -30 59.5 -47t75.5 -17q73 0 114.5 39t41.5 104v64q0 57 -37 93t-101 36h-86q-10 0 -13 2t-3 10v35q0 8 2 11t12 3h88q58 0 98 37t40 94t-40.5 95.5t-109.5 38.5q-87 0 -135 -58q-17 -20 -31 -8l-26 18q-19 10 0 29 q31 38 81.5 60t110.5 22q101 0 162 -53t61 -141q0 -52 -26.5 -96.5t-65.5 -69.5v-2q46 -17 69 -60.5t23 -91.5v-59q0 -100 -61 -157.5t-168 -57.5q-130 0 -192 86z" />
<glyph unicode="&#xb4;" horiz-adv-x="823" d="M365 1044l139 254q14 24 37 11l43 -27q14 -8 14 -18q0 -3 -6 -15l-178 -237q-11 -15 -27 -6l-18 12q-13 8 -4 26z" />
<glyph unicode="&#xb5;" horiz-adv-x="882" d="M106 -356v1233q0 12 15 12h57q15 0 15 -12v-555q0 -111 63.5 -185t183.5 -74q107 0 176.5 74t69.5 180v560q0 12 14 12h58q14 0 14 -12v-865q0 -12 -14 -12h-56q-12 0 -12 12v107h-4q-46 -61 -117.5 -95t-144.5 -34q-75 0 -133 29t-92 77q-2 -2 -6 -2q0 -75 1 -223.5 t1 -224.5q0 -15 -15 -15h-57q-14 0 -17 13z" />
<glyph unicode="&#xb6;" horiz-adv-x="825" d="M76 977q0 132 90.5 224.5t224.5 92.5h160q12 0 12 -14v-604q0 -12 -12 -12h-160q-137 0 -226 90t-89 223zM379 -156q-1 4 2 9.5t8 7.5q56 7 98 19t69 30.5t44 39t25.5 50.5t11 57t2.5 66v1157q0 14 14 14h43q15 0 15 -14v-1147q0 -81 -12.5 -135.5t-46 -99t-96 -69.5 t-159.5 -36q-11 0 -14 12z" />
<glyph unicode="&#xb7;" horiz-adv-x="337" d="M98 479q0 28 21 49t49 21q30 0 51 -21t21 -49q0 -30 -20 -50.5t-52 -20.5q-28 0 -49 21t-21 50z" />
<glyph unicode="&#xb8;" horiz-adv-x="761" d="M289 -338l16 23q7 11 17 4q58 -35 110 -35q59 0 89 23.5t30 64.5q0 88 -102 88h-68q-37 0 -37 29q0 8 2 12l37 135q6 17 14 17h37q3 0 5 -2.5t2 -4.5t-0.5 -5.5t-0.5 -4.5l-32 -123h45q73 0 117 -37t44 -102q0 -60 -49 -100.5t-129 -40.5q-40 0 -81.5 11.5t-65.5 29.5 q-8 8 0 18z" />
<glyph unicode="&#xb9;" horiz-adv-x="468" d="M80 1294v39q0 11 3 16t15 11l144 80q9 6 22 6h23q18 0 18 -19v-735q0 -16 -18 -16h-39q-19 0 -19 16v662l-2 2l-127 -72q-10 -5 -15 -3t-5 13z" />
<glyph unicode="&#xba;" horiz-adv-x="587" d="M63 702v166q0 95 64 154t168 59q106 0 168.5 -57.5t62.5 -155.5v-163q0 -103 -61 -160.5t-170 -57.5t-170.5 58.5t-61.5 156.5zM137 705q0 -69 43.5 -111.5t114.5 -42.5q73 0 115.5 42t42.5 112v163q0 66 -41.5 107t-116.5 41q-72 0 -115 -42t-43 -106v-163z" />
<glyph unicode="&#xbb;" horiz-adv-x="915" d="M124 753q3 7 15 7h51q23 0 37 -17l258 -317q17 -22 0 -47l-256 -322q-16 -18 -39 -18h-51q-10 0 -13.5 6.5t3.5 17.5l272 340l-272 336q-8 7 -5 14zM423 753q3 7 15 7h51q21 0 35 -17l258 -317q19 -22 0 -47l-256 -322q-16 -18 -39 -18h-49q-10 0 -13.5 6.5t3.5 17.5 l272 340l-274 336q-6 7 -3 14z" />
<glyph unicode="&#xbc;" horiz-adv-x="1320" d="M117 1110v39q0 11 3 16t15 11l144 79q11 7 22 7h23q18 0 18 -19v-735q0 -16 -18 -16h-39q-19 0 -19 16v661l-2 2l-127 -71q-11 -5 -15.5 -3t-4.5 13zM268 -49l580 1362q7 12 18 12h31q15 0 12 -14l-579 -1360q-5 -12 -19 -12h-35q-14 0 -8 12zM662 199v22q0 17 8 33 l299 510q8 8 18 8h47q10 0 10 -8q0 -4 -2 -6q-232 -394 -299 -512h269v254q0 14 12 14h43q12 0 12 -14v-254h115q10 0 10 -8v-43q0 -9 -6 -9h-119v-176q0 -12 -12 -12h-43q-12 0 -12 12v176h-332q-18 0 -18 13z" />
<glyph unicode="&#xbd;" horiz-adv-x="1320" d="M104 1110v39q0 11 3.5 16t15.5 11l143 79q10 7 23 7h22q19 0 19 -19v-735q0 -16 -19 -16h-39q-18 0 -18 16v661l-2 2l-127 -71q-21 -9 -21 10zM256 -49l580 1362q7 12 18 12h31q15 0 12 -14l-580 -1360q-5 -12 -18 -12h-35q-14 0 -8 12zM733 16v25q0 16 8 29 q26 31 90 104.5t104.5 123t88.5 111t72 107.5t24 74q0 55 -38.5 88t-108.5 33q-80 0 -150 -60q-2 -1 -4.5 -3t-4 -3.5t-4 -3t-4 -2t-3.5 -1.5t-3.5 -0.5t-3 0.5t-3 1.5t-2.5 3.5l-27 31q-10 8 4 22q37 36 92.5 57t114.5 21q99 0 159 -47t60 -131q0 -82 -92 -197l-275 -333 v-3h353q18 0 18 -16v-31q0 -16 -18 -16h-428q-19 0 -19 16z" />
<glyph unicode="&#xbe;" horiz-adv-x="1320" d="M86 567q-10 18 2 25l27 20q8 5 14 4.5t14 -8.5q23 -30 60 -46.5t76 -16.5q73 0 114 39t41 104v64q0 57 -36.5 93t-100.5 36h-86q-10 0 -13 2t-3 10v35q0 8 2 11t12 3h88q58 0 97.5 36.5t39.5 94.5q0 57 -40 95t-109 38q-88 0 -135 -57q-17 -20 -31 -8l-27 18q-19 10 0 29 q31 38 82 60t111 22q101 0 162 -53.5t61 -141.5q0 -52 -26.5 -96.5t-65.5 -69.5v-2q46 -17 69 -60t23 -91v-60q0 -100 -61 -157.5t-168 -57.5q-131 0 -193 86zM334 -49l579 1362q7 12 19 12h31q15 0 12 -14l-580 -1360q-5 -12 -18 -12h-35q-14 0 -8 12zM715 199v22 q0 17 8 33l299 510q8 8 18 8h47q11 0 11 -8q0 -4 -2 -6q-232 -394 -299 -512h268v254q0 14 12 14h43q13 0 13 -14v-254h114q10 0 10 -8v-43q0 -9 -6 -9h-118v-176q0 -12 -13 -12h-43q-12 0 -12 12v176h-332q-18 0 -18 13z" />
<glyph unicode="&#xbf;" horiz-adv-x="905" d="M158 -96q0 83 53 165t154 148q101 64 144.5 122t43.5 146v95q0 16 12 16h58q16 0 16 -16v-125q-5 -75 -43.5 -141.5t-108.5 -110.5q-47 -32 -73 -51t-62.5 -51t-55.5 -58t-34 -62t-16 -75q0 -37 12 -74.5t37 -74.5t74 -60t114 -23q99 0 170 58q27 14 56 47q7 10 16 10 q4 0 12 -4l41 -29q8 -8 8 -12t-6 -10q-45 -65 -122.5 -100t-172.5 -35q-143 0 -235 80.5t-92 224.5zM528 821q0 30 20 50t52 20q29 0 49.5 -20.5t20.5 -49.5t-20.5 -49t-49.5 -20q-32 0 -52 19t-20 50z" />
<glyph unicode="&#xc0;" horiz-adv-x="911" d="M27 16l358 1231q4 17 18 17h95q14 0 20 -15l361 -1229q4 -6 0.5 -13t-11.5 -7h-59q-17 0 -21 12l-92 307h-491l-88 -307q-3 -12 -19 -12h-57q-21 0 -14 16zM201 1509l35 41q17 17 38 2l215 -192l2 -2q14 -13 3 -25l-19 -18q-9 -13 -26 -2l-244 162q-24 14 -4 34zM227 395 h453q-40 133 -148 502l-79 277h-4q-44 -154 -78 -281z" />
<glyph unicode="&#xc1;" horiz-adv-x="911" d="M27 16l358 1231q4 17 18 17h95q14 0 20 -15l361 -1229q4 -6 0.5 -13t-11.5 -7h-59q-17 0 -21 12l-92 307h-491l-88 -307q-3 -12 -19 -12h-57q-21 0 -14 16zM227 395h453q-40 133 -148 502l-79 277h-4q-44 -154 -78 -281zM412 1343q-9 16 2 25l223 191q17 14 31 -3l39 -47 q17 -17 -5 -30l-251 -156q-15 -8 -27 4z" />
<glyph unicode="&#xc2;" horiz-adv-x="911" d="M27 16l358 1231q4 17 18 17h95q14 0 20 -15l361 -1229q4 -6 0.5 -13t-11.5 -7h-59q-17 0 -21 12l-92 307h-491l-88 -307q-3 -12 -19 -12h-57q-21 0 -14 16zM195 1346q0 6 6 12l190 192q15 15 33 15h51q18 0 31 -15q98 -94 192 -192q8 -8 8 -12t-8 -11q-21 -16 -28 -16 q-9 0 -15 6l-211 162l-200 -162q-6 -6 -15 -6q-7 0 -28 16q-6 6 -6 11zM227 395h453q-40 133 -148 502l-79 277h-4q-44 -154 -78 -281z" />
<glyph unicode="&#xc3;" horiz-adv-x="911" d="M27 16l358 1231q4 17 18 17h95q14 0 20 -15l361 -1229q4 -6 0.5 -13t-11.5 -7h-59q-17 0 -21 12l-92 307h-491l-88 -307q-3 -12 -19 -12h-57q-21 0 -14 16zM201 1413q51 92 143 92q40 0 112 -31.5t105 -31.5q56 0 96 59q9 12 19 6l35 -16q13 -3 6 -23q-27 -50 -68 -72 t-84 -22q-45 0 -119 32t-110 32q-23 0 -45.5 -15.5t-34.5 -38.5q-9 -16 -25 -8l-28 15q-10 6 -2 22zM227 395h453q-40 133 -148 502l-79 277h-4q-44 -154 -78 -281z" />
<glyph unicode="&#xc4;" horiz-adv-x="911" d="M27 16l358 1231q4 17 18 17h95q14 0 20 -15l361 -1229q4 -6 0.5 -13t-11.5 -7h-59q-17 0 -21 12l-92 307h-491l-88 -307q-3 -12 -19 -12h-57q-21 0 -14 16zM227 395h453q-40 133 -148 502l-79 277h-4q-44 -154 -78 -281zM236 1442q0 26 17 43.5t42 17.5t42 -17.5 t17 -43.5t-17 -44t-42 -18t-42 18t-17 44zM551 1442q0 26 17 43.5t42 17.5t42.5 -17.5t17.5 -43.5t-17.5 -44t-42.5 -18t-42 18t-17 44z" />
<glyph unicode="&#xc5;" horiz-adv-x="911" d="M27 16l358 1231q4 17 18 17h95q14 0 20 -15l361 -1229q4 -6 0.5 -13t-11.5 -7h-59q-17 0 -21 12l-92 307h-491l-88 -307q-3 -12 -19 -12h-57q-21 0 -14 16zM227 395h453q-40 133 -148 502l-79 277h-4q-44 -154 -78 -281zM309 1479q0 62 40.5 104.5t101.5 42.5 q60 0 101.5 -42t41.5 -103q0 -60 -41.5 -103t-101.5 -43q-61 0 -101.5 41.5t-40.5 102.5zM365 1481q0 -38 24.5 -65t61.5 -27q36 0 62 27t26 65q0 37 -26.5 63.5t-61.5 26.5q-36 0 -61 -26.5t-25 -63.5z" />
<glyph unicode="&#xc6;" horiz-adv-x="1345" d="M36.5 5.5q-1.5 5.5 2.5 14.5l432 1227q2 5 9.5 11t17.5 6h764q7 0 11.5 -5.5t4.5 -11.5v-47q0 -14 -14 -14h-553v-498h463q14 0 14 -16v-47q0 -15 -14 -15h-463v-532h559q14 0 14 -15v-49q0 -14 -14 -14h-633q-14 0 -14 14v312h-387l-109 -310q-5 -16 -21 -16h-57 q-11 0 -12.5 5.5zM262 403h361v783h-91z" />
<glyph unicode="&#xc7;" horiz-adv-x="845" d="M119 322v626q0 141 100.5 235.5t259.5 94.5q203 0 309 -129q12 -13 -2 -27l-36 -30q-13 -13 -29 6q-37 48 -104.5 75t-137.5 27q-120 0 -196 -72.5t-76 -181.5v-620q0 -113 74 -188t204 -75q67 0 130.5 26t107.5 73q20 23 35 10l30 -27q17 -14 5 -26q-119 -131 -308 -131 h-6l-26 -105h45q73 0 117 -37t44 -102q0 -60 -49 -100.5t-129 -40.5q-40 0 -81.5 11.5t-65.5 29.5q-8 8 0 18l16 23q7 11 17 4q58 -35 110 -35q59 0 89 23.5t30 64.5q0 88 -102 88h-68q-37 0 -37 29q0 8 2 12l33 121q-141 15 -223 105t-82 225z" />
<glyph unicode="&#xc8;" horiz-adv-x="878" d="M125 16v1231q0 17 16 17h635q15 0 15 -17v-47q0 -14 -15 -14h-563v-494h492q14 0 14 -16v-47q0 -15 -14 -15h-492v-536h588q16 0 16 -15v-47q0 -16 -16 -16h-660q-16 0 -16 16zM238 1509l34 41q17 17 39 2l215 -192q15 -15 4 -27l-18 -18q-10 -14 -27 -2l-243 162 q-24 14 -4 34z" />
<glyph unicode="&#xc9;" horiz-adv-x="878" d="M125 16v1231q0 17 16 17h635q15 0 15 -17v-47q0 -14 -15 -14h-563v-494h492q14 0 14 -16v-47q0 -15 -14 -15h-492v-536h588q16 0 16 -15v-47q0 -16 -16 -16h-660q-16 0 -16 16zM352 1343q-9 16 2 25l224 191q16 13 30 -3l39 -47q18 -18 -4 -30l-252 -156q-15 -7 -26 4z " />
<glyph unicode="&#xca;" horiz-adv-x="878" d="M125 16v1231q0 17 16 17h635q15 0 15 -17v-47q0 -14 -15 -14h-563v-494h492q14 0 14 -16v-47q0 -15 -14 -15h-492v-536h588q16 0 16 -15v-47q0 -16 -16 -16h-660q-16 0 -16 16zM195 1346q0 6 6 12l190 192q15 15 33 15h51q18 0 31 -15q98 -94 192 -192q8 -8 8 -12t-8 -11 q-21 -16 -28 -16q-9 0 -15 6l-211 162l-200 -162q-6 -6 -15 -6q-7 0 -28 16q-6 6 -6 11z" />
<glyph unicode="&#xcb;" horiz-adv-x="878" d="M125 16v1231q0 17 16 17h635q15 0 15 -17v-47q0 -14 -15 -14h-563v-494h492q14 0 14 -16v-47q0 -15 -14 -15h-492v-536h588q16 0 16 -15v-47q0 -16 -16 -16h-660q-16 0 -16 16zM238 1442q0 26 17 43.5t42 17.5t42 -17.5t17 -43.5t-17 -44t-42 -18t-42 18t-17 44z M553 1442q0 26 17 43.5t42 17.5t42.5 -17.5t17.5 -43.5t-17.5 -44t-42.5 -18t-42 18t-17 44z" />
<glyph unicode="&#xcc;" horiz-adv-x="411" d="M-63 1509l34 41q17 17 39 2l215 -192q15 -15 4 -27l-18 -18q-10 -14 -27 -2l-243 162q-24 14 -4 34zM160 14v1235q0 15 16 15h57q17 0 17 -15v-1235q0 -14 -17 -14h-57q-16 0 -16 14z" />
<glyph unicode="&#xcd;" horiz-adv-x="411" d="M160 14v1235q0 15 16 15h57q17 0 17 -15v-1235q0 -14 -17 -14h-57q-16 0 -16 14zM178 1343q-9 16 2 25l223 191q17 14 31 -3l39 -47q18 -18 -4 -30l-252 -156q-15 -8 -27 4z" />
<glyph unicode="&#xce;" horiz-adv-x="411" d="M-51 1350q0 6 6 12l190 192q15 15 33 15h51q19 0 31 -15q109 -105 193 -192q7 -8 7 -12t-7 -11q-21 -16 -29 -16t-14 6l-211 162l-201 -162q-6 -6 -14 -6t-29 16q-6 6 -6 11zM160 14v1235q0 15 16 15h57q17 0 17 -15v-1235q0 -14 -17 -14h-57q-16 0 -16 14z" />
<glyph unicode="&#xcf;" horiz-adv-x="411" d="M-16 1442q0 26 17 43.5t42 17.5t42 -17.5t17 -43.5t-17 -44t-42 -18t-42 18t-17 44zM160 14v1235q0 15 16 15h57q17 0 17 -15v-1235q0 -14 -17 -14h-57q-16 0 -16 14zM299 1442q0 26 17 43.5t42 17.5t42.5 -17.5t17.5 -43.5t-17.5 -44t-42.5 -18t-42 18t-17 44z" />
<glyph unicode="&#xd0;" horiz-adv-x="968" d="M8 633v35q0 16 15 16h104v563q0 17 14 17h383q167 0 253.5 -83.5t86.5 -246.5v-592q0 -164 -90 -253t-252 -89h-381q-14 0 -14 16v602h-104q-15 0 -15 15zM215 78h307q119 0 185.5 65.5t66.5 190.5v596q0 122 -58.5 189t-197.5 67h-303v-502h295q14 0 14 -16v-35 q0 -15 -14 -15h-295v-540z" />
<glyph unicode="&#xd1;" horiz-adv-x="1017" d="M117 14v1223q0 27 24 27h45q20 0 31 -19l592 -1073h4v1075q0 17 16 17h56q14 0 14 -17v-1224q0 -11 -6.5 -17t-15.5 -6h-48q-20 0 -28 16q-354 635 -592 1067h-4v-1069q0 -14 -17 -14h-57q-14 0 -14 14zM252 1401q51 92 143 92q40 0 112 -31.5t105 -31.5q57 0 97 59 q9 12 18 6l35 -16q13 -3 6 -23q-27 -50 -68 -72t-84 -22q-44 0 -119 31.5t-110 31.5q-23 0 -45.5 -15t-34.5 -38q-9 -15 -24 -8l-29 14q-10 6 -2 23z" />
<glyph unicode="&#xd2;" horiz-adv-x="974" d="M119 338v600q0 148 101 244t265 96q168 0 269.5 -94t101.5 -246v-610q0 -153 -99 -247.5t-270 -94.5q-176 0 -272 98.5t-96 253.5zM207 342q0 -119 70 -199t210 -80q132 0 206.5 73.5t74.5 195.5v602q0 113 -72.5 188.5t-208.5 75.5q-131 0 -205.5 -75.5t-74.5 -188.5 v-592zM260 1524l35 41q17 17 39 2l215 -193q1 -1 3 -2.5t2.5 -2.5t2 -3t2 -3.5t0 -4t-2 -5t-3.5 -5.5l-18 -19q-10 -14 -27 -2l-244 162q-25 14 -4 35z" />
<glyph unicode="&#xd3;" horiz-adv-x="974" d="M119 338v600q0 148 101 244t265 96q168 0 269.5 -94t101.5 -246v-610q0 -153 -99 -247.5t-270 -94.5q-176 0 -272 98.5t-96 253.5zM207 342q0 -119 70 -199t210 -80q132 0 206.5 73.5t74.5 195.5v602q0 113 -72.5 188.5t-208.5 75.5q-131 0 -205.5 -75.5t-74.5 -188.5 v-592zM422 1343q-9 16 2 25l223 191q17 14 31 -3l39 -47q18 -18 -4 -30l-252 -156q-15 -8 -27 4z" />
<glyph unicode="&#xd4;" horiz-adv-x="974" d="M119 338v600q0 148 101 244t265 96q168 0 269.5 -94t101.5 -246v-610q0 -153 -99 -247.5t-270 -94.5q-176 0 -272 98.5t-96 253.5zM207 342q0 -119 70 -199t210 -80q132 0 206.5 73.5t74.5 195.5v602q0 113 -72.5 188.5t-208.5 75.5q-131 0 -205.5 -75.5t-74.5 -188.5 v-592zM236 1346q0 6 6 12l190 192q15 15 33 15h51q18 0 31 -15q98 -94 192 -192q7 -8 7 -12t-7 -11q-21 -16 -28 -16q-9 0 -15 6l-211 162l-200 -162q-6 -6 -15 -6q-7 0 -28 16q-6 6 -6 11z" />
<glyph unicode="&#xd5;" horiz-adv-x="974" d="M119 338v600q0 148 101 244t265 96q168 0 269.5 -94t101.5 -246v-610q0 -153 -99 -247.5t-270 -94.5q-176 0 -272 98.5t-96 253.5zM207 342q0 -119 70 -199t210 -80q132 0 206.5 73.5t74.5 195.5v602q0 113 -72.5 188.5t-208.5 75.5q-131 0 -205.5 -75.5t-74.5 -188.5 v-592zM240 1421q51 92 143 92q40 0 112 -31.5t105 -31.5q56 0 96 59q10 13 19 7l35 -17q12 -3 6 -22q-27 -50 -68.5 -72.5t-83.5 -22.5q-44 0 -119 32t-110 32q-23 0 -45.5 -15t-34.5 -38q-10 -17 -25 -9l-28 15q-10 6 -2 22z" />
<glyph unicode="&#xd6;" horiz-adv-x="974" d="M119 338v600q0 148 101 244t265 96q168 0 269.5 -94t101.5 -246v-610q0 -153 -99 -247.5t-270 -94.5q-176 0 -272 98.5t-96 253.5zM207 342q0 -119 70 -199t210 -80q132 0 206.5 73.5t74.5 195.5v602q0 113 -72.5 188.5t-208.5 75.5q-131 0 -205.5 -75.5t-74.5 -188.5 v-592zM276 1442q0 26 17.5 43.5t42.5 17.5t42 -17.5t17 -43.5t-17 -44t-42 -18t-42.5 18t-17.5 44zM592 1442q0 26 17 43.5t42 17.5t42.5 -17.5t17.5 -43.5t-17.5 -44t-42.5 -18t-42 18t-17 44z" />
<glyph unicode="&#xd7;" horiz-adv-x="911" d="M156 762l30 26q4 6 11 6t12 -6l248 -243l241 239q6 6 14 5.5t13 -5.5l29 -28q11 -14 -2 -27l-242 -240l248 -247q11 -14 0 -25l-27 -27q-14 -14 -26 -2l-248 250l-238 -241q-13 -13 -22 0l-31 28q-11 14 0 25l237 242l-245 245q-12 12 -2 25z" />
<glyph unicode="&#xd8;" horiz-adv-x="974" d="M119 338v600q0 148 101 244t265 96q160 0 267 -92q28 58 47 86q6 11 20 4l33 -16q12 -6 6 -19l-59 -111q57 -82 57 -192v-610q0 -153 -99 -247.5t-270 -94.5q-158 0 -256 82l-38 -74q-6 -10 -15 -6l-37 20q-9 6 -4 17l49 92q-67 88 -67 221zM207 342q0 -76 26 -135 l476 901q-76 90 -222 90q-131 0 -205.5 -75.5t-74.5 -188.5v-592zM274 145q75 -82 213 -82q132 0 206.5 73.5t74.5 195.5v602q0 54 -18 104z" />
<glyph unicode="&#xd9;" horiz-adv-x="980" d="M121 326v923q0 15 16 15h58q14 0 14 -15v-919q0 -115 75.5 -191t209.5 -76q130 0 204 75.5t74 189.5v921q0 15 16 15h58q14 0 14 -15v-923q0 -153 -103 -246.5t-265 -93.5q-170 0 -270.5 95t-100.5 245zM268 1509l35 41q17 17 39 2l215 -192q15 -15 4 -27l-18 -18 q-10 -14 -27 -2l-244 162q-24 14 -4 34z" />
<glyph unicode="&#xda;" horiz-adv-x="980" d="M121 326v923q0 15 16 15h58q14 0 14 -15v-919q0 -115 75.5 -191t209.5 -76q130 0 204 75.5t74 189.5v921q0 15 16 15h58q14 0 14 -15v-923q0 -153 -103 -246.5t-265 -93.5q-170 0 -270.5 95t-100.5 245zM430 1343q-9 16 2 25l223 191q17 14 31 -3l39 -47q18 -18 -4 -30 l-252 -156q-15 -8 -27 4z" />
<glyph unicode="&#xdb;" horiz-adv-x="980" d="M121 326v923q0 15 16 15h58q14 0 14 -15v-919q0 -115 75.5 -191t209.5 -76q130 0 204 75.5t74 189.5v921q0 15 16 15h58q14 0 14 -15v-923q0 -153 -103 -246.5t-265 -93.5q-170 0 -270.5 95t-100.5 245zM246 1346q0 6 6 12l190 192q15 15 33 15h51q18 0 31 -15 q109 -105 193 -192q8 -8 8 -12t-8 -11q-21 -16 -29 -16t-14 6l-211 162l-201 -162q-6 -6 -14 -6t-29 16q-6 6 -6 11z" />
<glyph unicode="&#xdc;" horiz-adv-x="980" d="M121 326v923q0 15 16 15h58q14 0 14 -15v-919q0 -115 75.5 -191t209.5 -76q130 0 204 75.5t74 189.5v921q0 15 16 15h58q14 0 14 -15v-923q0 -153 -103 -246.5t-265 -93.5q-170 0 -270.5 95t-100.5 245zM262 1442q0 26 17.5 43.5t42.5 17.5t42 -17.5t17 -43.5t-17 -44 t-42 -18t-42.5 18t-17.5 44zM578 1442q0 26 17 43.5t42 17.5t42 -17.5t17 -43.5t-17 -44t-42 -18t-42 18t-17 44z" />
<glyph unicode="&#xdd;" horiz-adv-x="825" d="M29 1243q-11 21 12 21h57q15 0 25 -17l287 -653h6q9 23 141 321t145 332q11 17 27 17h57q24 0 11 -23l-330 -725q-10 -23 -10 -49v-453q0 -14 -15 -14h-57q-16 0 -16 14v443q0 31 -9 51zM338 1343q-9 16 2 25l223 191q17 14 31 -3l39 -47q18 -18 -4 -30l-252 -156 q-15 -8 -27 4z" />
<glyph unicode="&#xde;" horiz-adv-x="874" d="M131 12v1237q0 15 16 15h58q14 0 14 -15v-282h240q185 0 288 -84.5t103 -251.5q0 -147 -93 -241.5t-241 -94.5h-297v-281q0 -14 -14 -14h-58q-14 0 -16 12zM219 373h297q114 0 181 71.5t67 186.5q0 109 -68 183.5t-180 74.5h-297v-516z" />
<glyph unicode="&#xdf;" horiz-adv-x="913" d="M137 12v955q0 140 84 232.5t232 92.5q149 0 233 -76t84 -206q0 -70 -35 -134.5t-108 -95.5v-6q86 -29 131 -107t45 -161v-217q0 -130 -84 -219.5t-215 -89.5h-119q-14 0 -14 12v39q0 9 2.5 12.5t4.5 3.5h11h86q112 0 178 71.5t66 176.5v207q0 104 -64 168.5t-147 64.5 h-31q-14 0 -14 13v47q0 12 14 12h31q25 0 54 12t57 35.5t46.5 65t18.5 92.5q0 89 -60.5 147t-168.5 58q-104 0 -168 -71t-64 -177v-957q0 -12 -12 -12h-59q-15 0 -15 12z" />
<glyph unicode="&#xe0;" horiz-adv-x="782" d="M57 283q0 132 82.5 218.5t229.5 86.5q156 0 229 -103h4v119q0 223 -223 223q-49 0 -113.5 -12.5t-103.5 -30.5q-14 -10 -21 7l-18 43q-3 12 10 18q105 51 252 51q158 0 230.5 -77t72.5 -228v-584q0 -14 -14 -14h-53q-13 0 -13 12v92h-2q-38 -52 -107.5 -83t-146.5 -31 q-139 0 -217 80t-78 213zM137 287q0 -102 56.5 -165t171.5 -63q101 0 167 67.5t66 164.5t-62 163t-165 66q-109 0 -171.5 -67t-62.5 -166zM254 1245q-18 22 10 35l45 25q25 12 37 -9l139 -254l1 -2q6 -15 -7 -24l-22 -12q-15 -8 -27 8z" />
<glyph unicode="&#xe1;" horiz-adv-x="782" d="M57 283q0 132 82.5 218.5t229.5 86.5q156 0 229 -103h4v119q0 223 -223 223q-49 0 -113.5 -12.5t-103.5 -30.5q-14 -10 -21 7l-18 43q-3 12 10 18q105 51 252 51q158 0 230.5 -77t72.5 -228v-584q0 -14 -14 -14h-53q-13 0 -13 12v92h-2q-38 -52 -107.5 -83t-146.5 -31 q-139 0 -217 80t-78 213zM137 287q0 -102 56.5 -165t171.5 -63q101 0 167 67.5t66 164.5t-62 163t-165 66q-109 0 -171.5 -67t-62.5 -166zM362 1044l140 254q14 24 37 11l43 -27q14 -8 14 -18q0 -3 -6 -15l-178 -237q-11 -15 -27 -6l-18 12q-13 9 -5 26z" />
<glyph unicode="&#xe2;" horiz-adv-x="782" d="M57 283q0 132 82.5 218.5t229.5 86.5q156 0 229 -103h4v119q0 223 -223 223q-49 0 -113.5 -12.5t-103.5 -30.5q-14 -10 -21 7l-18 43q-3 12 10 18q105 51 252 51q158 0 230.5 -77t72.5 -228v-584q0 -14 -14 -14h-53q-13 0 -13 12v92h-2q-38 -52 -107.5 -83t-146.5 -31 q-139 0 -217 80t-78 213zM137 287q0 -102 56.5 -165t171.5 -63q101 0 167 67.5t66 164.5t-62 163t-165 66q-109 0 -171.5 -67t-62.5 -166zM164 1055l192 239q17 17 33 17h51q17 0 31 -17l193 -235q13 -16 0 -27l-17 -14q-10 -10 -26 2l-207 207l-205 -207q-12 -16 -27 -4 l-16 14q-12 12 -2 25z" />
<glyph unicode="&#xe3;" horiz-adv-x="782" d="M57 283q0 132 82.5 218.5t229.5 86.5q156 0 229 -103h4v119q0 223 -223 223q-49 0 -113.5 -12.5t-103.5 -30.5q-14 -10 -21 7l-18 43q-3 12 10 18q105 51 252 51q158 0 230.5 -77t72.5 -228v-584q0 -14 -14 -14h-53q-13 0 -13 12v92h-2q-38 -52 -107.5 -83t-146.5 -31 q-139 0 -217 80t-78 213zM137 287q0 -102 56.5 -165t171.5 -63q101 0 167 67.5t66 164.5t-62 163t-165 66q-109 0 -171.5 -67t-62.5 -166zM143 1114q51 92 144 92q40 0 112 -31.5t105 -31.5q56 0 96 59q9 12 18 6l35 -16q13 -3 6 -23q-51 -94 -151 -94q-44 0 -119 32 t-110 32q-23 0 -45.5 -15.5t-34.5 -38.5q-9 -16 -25 -8l-29 15q-10 6 -2 22z" />
<glyph unicode="&#xe4;" horiz-adv-x="782" d="M57 283q0 132 82.5 218.5t229.5 86.5q156 0 229 -103h4v119q0 223 -223 223q-49 0 -113.5 -12.5t-103.5 -30.5q-14 -10 -21 7l-18 43q-3 12 10 18q105 51 252 51q158 0 230.5 -77t72.5 -228v-584q0 -14 -14 -14h-53q-13 0 -13 12v92h-2q-38 -52 -107.5 -83t-146.5 -31 q-139 0 -217 80t-78 213zM137 287q0 -102 56.5 -165t171.5 -63q101 0 167 67.5t66 164.5t-62 163t-165 66q-109 0 -171.5 -67t-62.5 -166zM184 1149q0 26 17.5 43.5t42.5 17.5t42 -17.5t17 -43.5t-17.5 -44t-41.5 -18q-25 0 -42.5 18.5t-17.5 43.5zM498 1149q0 26 17 43.5 t42 17.5t43 -17.5t18 -43.5q0 -25 -17.5 -43.5t-41.5 -18.5q-26 0 -43.5 18.5t-17.5 43.5z" />
<glyph unicode="&#xe5;" horiz-adv-x="782" d="M57 283q0 132 82.5 218.5t229.5 86.5q156 0 229 -103h4v119q0 223 -223 223q-49 0 -113.5 -12.5t-103.5 -30.5q-14 -10 -21 7l-18 43q-3 12 10 18q105 51 252 51q158 0 230.5 -77t72.5 -228v-584q0 -14 -14 -14h-53q-13 0 -13 12v92h-2q-38 -52 -107.5 -83t-146.5 -31 q-139 0 -217 80t-78 213zM137 287q0 -102 56.5 -165t171.5 -63q101 0 167 67.5t66 164.5t-62 163t-165 66q-109 0 -171.5 -67t-62.5 -166zM285 1151q0 62 40 104.5t101 42.5q60 0 101.5 -42t41.5 -103q0 -60 -41.5 -102.5t-101.5 -42.5q-61 0 -101 41t-40 102zM340 1153 q0 -38 24.5 -65t61.5 -27q36 0 62 27t26 65q0 37 -26.5 63.5t-61.5 26.5q-36 0 -61 -26.5t-25 -63.5z" />
<glyph unicode="&#xe6;" horiz-adv-x="1343" d="M55 287q0 129 87 215t220 86q66 0 127.5 -28.5t102.5 -80.5q4 0 6 2v121q0 97 -62.5 161t-181.5 64q-117 0 -194 -45q-13 -8 -21 9l-16 40q-4 17 8 21q101 49 229 49q105 0 179 -39.5t108 -113.5l2 4q41 65 120.5 107t160.5 42q148 0 241 -88.5t93 -251.5v-88 q0 -18 -8.5 -27.5t-20.5 -9.5h-551v-123q0 -109 69 -180.5t181 -71.5q70 0 126 26.5t89 72.5q13 19 29 8l32 -23q14 -11 9 -24q-42 -65 -116.5 -98t-168.5 -33q-103 0 -181.5 45t-115.5 125h-4q-38 -82 -111 -126t-164 -44q-140 0 -221.5 80.5t-81.5 216.5zM133 289 q0 -101 58.5 -166.5t168.5 -65.5q97 0 164.5 69t67.5 163q0 96 -67 163.5t-163 67.5q-95 0 -162 -68t-67 -163zM686 508h494v70q0 110 -69 179.5t-181 69.5q-104 0 -174 -70.5t-70 -174.5v-74z" />
<glyph unicode="&#xe7;" horiz-adv-x="759" d="M92 313v262q0 146 94.5 236t241.5 90q177 0 274 -129q10 -16 -4 -24l-36 -31q-12 -9 -27 6q-35 49 -90.5 76.5t-118.5 27.5q-108 0 -179 -70.5t-71 -178.5v-265q0 -114 70.5 -182t181.5 -68q135 0 211 103q9 15 23 4l36 -23q16 -12 9 -26q-89 -128 -271 -131l-28 -107h45 q73 0 117 -37t44 -102q0 -60 -49 -100.5t-129 -40.5q-40 0 -81.5 11.5t-65.5 29.5q-8 8 0 18l16 23q7 11 17 4q58 -35 110 -35q59 0 89 23.5t30 64.5q0 88 -102 88h-68q-37 0 -37 29q0 8 2 12l33 121q-134 13 -210.5 99t-76.5 222z" />
<glyph unicode="&#xe8;" horiz-adv-x="835" d="M98 311v258q0 151 94 241.5t236 90.5q149 0 241.5 -88t92.5 -252v-88q0 -17 -8.5 -26t-20.5 -9h-551v-125q0 -111 64 -181.5t186 -70.5q129 0 213 101q12 15 27 6l33 -23q15 -8 8 -22q-91 -133 -283 -133q-154 0 -243 87t-89 234zM182 510h494v70q0 109 -67 178t-181 69 q-105 0 -175.5 -68.5t-70.5 -176.5v-72zM254 1245q-18 22 10 35l45 25q25 12 37 -9l139 -254l1 -2q6 -15 -7 -24l-22 -12q-15 -8 -27 8z" />
<glyph unicode="&#xe9;" horiz-adv-x="835" d="M98 311v258q0 151 94 241.5t236 90.5q149 0 241.5 -88t92.5 -252v-88q0 -17 -8.5 -26t-20.5 -9h-551v-125q0 -111 64 -181.5t186 -70.5q129 0 213 101q12 15 27 6l33 -23q15 -8 8 -22q-91 -133 -283 -133q-154 0 -243 87t-89 234zM182 510h494v70q0 109 -67 178t-181 69 q-105 0 -175.5 -68.5t-70.5 -176.5v-72zM371 1044l139 254q14 24 37 11l43 -27q14 -8 14 -18q0 -3 -6 -15l-178 -237q-11 -15 -27 -6l-18 12q-13 8 -4 26z" />
<glyph unicode="&#xea;" horiz-adv-x="835" d="M98 311v258q0 151 94 241.5t236 90.5q149 0 241.5 -88t92.5 -252v-88q0 -17 -8.5 -26t-20.5 -9h-551v-125q0 -111 64 -181.5t186 -70.5q129 0 213 101q12 15 27 6l33 -23q15 -8 8 -22q-91 -133 -283 -133q-154 0 -243 87t-89 234zM182 510h494v70q0 109 -67 178t-181 69 q-105 0 -175.5 -68.5t-70.5 -176.5v-72zM188 1055l193 239q17 17 33 17h51q17 0 31 -17l192 -235q13 -16 0 -27l-16 -14q-10 -10 -27 2l-207 207l-205 -207q-12 -15 -26 -4l-17 14q-12 12 -2 25z" />
<glyph unicode="&#xeb;" horiz-adv-x="835" d="M98 311v258q0 151 94 241.5t236 90.5q149 0 241.5 -88t92.5 -252v-88q0 -17 -8.5 -26t-20.5 -9h-551v-125q0 -111 64 -181.5t186 -70.5q129 0 213 101q12 15 27 6l33 -23q15 -8 8 -22q-91 -133 -283 -133q-154 0 -243 87t-89 234zM182 510h494v70q0 109 -67 178t-181 69 q-105 0 -175.5 -68.5t-70.5 -176.5v-72zM219 1149q0 26 17.5 43.5t42.5 17.5t42 -17.5t17 -43.5t-17.5 -44t-41.5 -18q-25 0 -42.5 18.5t-17.5 43.5zM532 1149q0 26 17.5 43.5t42.5 17.5t43 -17.5t18 -43.5q0 -25 -17.5 -43.5t-41.5 -18.5q-26 0 -44 18.5t-18 43.5z" />
<glyph unicode="&#xec;" horiz-adv-x="352" d="M-23 1245q-18 21 11 35l45 25q25 12 37 -9l139 -254q7 -14 0 -22q-2 -2 -6 -4l-23 -12q-14 -8 -26 8zM127 12v865q0 14 14 14h58q14 0 14 -14v-865q0 -12 -14 -12h-58q-14 0 -14 12z" />
<glyph unicode="&#xed;" horiz-adv-x="352" d="M127 12v865q0 14 14 14h58q14 0 14 -14v-865q0 -12 -14 -12h-58q-14 0 -14 12zM135 1044l139 254q14 24 37 11l43 -27q15 -9 15 -18q0 -1 -7 -15l-178 -237q-11 -15 -26 -6l-19 12q-13 8 -4 26z" />
<glyph unicode="&#xee;" horiz-adv-x="352" d="M-80 1055l193 239q17 17 32 17h52q16 0 30 -17l193 -235q13 -16 0 -27l-17 -14q-10 -10 -26 2l-207 207l-205 -207q-12 -15 -26 -4l-17 14q-12 12 -2 25zM127 12v865q0 14 14 14h58q14 0 14 -14v-865q0 -12 -14 -12h-58q-14 0 -14 12z" />
<glyph unicode="&#xef;" horiz-adv-x="352" d="M-45 1149q0 26 17 43.5t42 17.5t42.5 -17.5t17.5 -43.5t-18 -44t-42 -18t-41.5 18.5t-17.5 43.5zM127 12v865q0 14 14 14h58q14 0 14 -14v-865q0 -12 -14 -12h-58q-14 0 -14 12zM268 1149q0 26 17.5 43.5t42.5 17.5t43 -17.5t18 -43.5q0 -25 -17.5 -43.5t-41.5 -18.5 q-26 0 -44 18.5t-18 43.5z" />
<glyph unicode="&#xf0;" horiz-adv-x="862" d="M100 295v252q0 144 90.5 233.5t235.5 89.5q84 0 153.5 -32.5t98.5 -87.5h4q0 238 -72 342l-104 -101q-10 -11 -19 -2l-24 23q-9 11 0 20l108 105q-77 104 -278 104q-17 0 -17 16v46q0 16 19 16q218 0 338 -123l98 90q11 8 19 0l22 -22q8 -8 0 -19l-98 -96 q45 -72 67.5 -164.5t22.5 -236.5v-431q0 -157 -88 -242t-246 -85q-153 0 -238.5 81.5t-91.5 223.5zM182 315q0 -117 67.5 -185.5t182.5 -68.5q118 0 183 68.5t65 187.5v213q0 114 -64.5 190.5t-181.5 76.5q-112 0 -182 -71.5t-70 -180.5v-230z" />
<glyph unicode="&#xf1;" horiz-adv-x="874" d="M109 12v865q0 14 14 14h55q12 0 12 -14v-95h9q102 119 262 119q83 0 145 -27.5t98 -75.5t53 -106.5t17 -126.5v-551q0 -14 -12 -14h-60q-14 0 -14 12v555q0 114 -60 187t-188 73q-107 0 -176 -74t-69 -182v-557q0 -14 -15 -14h-57q-14 0 -14 12zM152 1114q51 92 143 92 q40 0 112 -31.5t105 -31.5q56 0 96 59q9 12 19 6l35 -16q13 -3 6 -23q-27 -50 -68 -72t-84 -22q-44 0 -119 32t-110 32q-23 0 -45.5 -15.5t-34.5 -38.5q-9 -16 -25 -8l-28 15q-10 6 -2 22z" />
<glyph unicode="&#xf2;" horiz-adv-x="862" d="M100 315v263q0 146 90 234.5t244 88.5q153 0 241.5 -87.5t88.5 -238.5v-256q0 -156 -87 -242.5t-243 -86.5q-159 0 -246.5 87t-87.5 238zM184 317q0 -119 64.5 -187.5t185.5 -68.5t183.5 68.5t62.5 189.5v254q0 113 -63.5 183.5t-182.5 70.5q-109 0 -179.5 -71.5 t-70.5 -180.5v-258zM270 1245q-18 21 11 35l45 25q24 12 36 -9l140 -254l1 -2q6 -15 -7 -24l-23 -12q-15 -8 -27 8z" />
<glyph unicode="&#xf3;" horiz-adv-x="862" d="M100 315v263q0 146 90 234.5t244 88.5q153 0 241.5 -87.5t88.5 -238.5v-256q0 -156 -87 -242.5t-243 -86.5q-159 0 -246.5 87t-87.5 238zM184 317q0 -119 64.5 -187.5t185.5 -68.5t183.5 68.5t62.5 189.5v254q0 113 -63.5 183.5t-182.5 70.5q-109 0 -179.5 -71.5 t-70.5 -180.5v-258zM360 1044l140 254q14 24 37 11l43 -27q14 -8 14 -18q0 -3 -6 -15l-178 -237q-11 -15 -27 -6l-18 12q-13 9 -5 26z" />
<glyph unicode="&#xf4;" horiz-adv-x="862" d="M100 315v263q0 146 90 234.5t244 88.5q153 0 241.5 -87.5t88.5 -238.5v-256q0 -156 -87 -242.5t-243 -86.5q-159 0 -246.5 87t-87.5 238zM184 317q0 -119 64.5 -187.5t185.5 -68.5t183.5 68.5t62.5 189.5v254q0 113 -63.5 183.5t-182.5 70.5q-109 0 -179.5 -71.5 t-70.5 -180.5v-258zM190 1055l193 239q17 17 33 17h51q17 0 31 -17l192 -235q13 -16 0 -27l-16 -14q-10 -10 -27 2l-207 207l-204 -207q-12 -16 -27 -4l-16 14q-13 13 -3 25z" />
<glyph unicode="&#xf5;" horiz-adv-x="862" d="M100 315v263q0 146 90 234.5t244 88.5q153 0 241.5 -87.5t88.5 -238.5v-256q0 -156 -87 -242.5t-243 -86.5q-159 0 -246.5 87t-87.5 238zM180 1114q51 92 144 92q40 0 112 -31.5t105 -31.5q56 0 96 59q9 12 18 6l35 -16q13 -3 6 -23q-51 -94 -151 -94q-45 0 -120 32 t-110 32q-23 0 -45 -15t-34 -39q-9 -16 -25 -8l-29 15q-10 6 -2 22zM184 317q0 -119 64.5 -187.5t185.5 -68.5t183.5 68.5t62.5 189.5v254q0 113 -63.5 183.5t-182.5 70.5q-109 0 -179.5 -71.5t-70.5 -180.5v-258z" />
<glyph unicode="&#xf6;" horiz-adv-x="862" d="M100 315v263q0 146 90 234.5t244 88.5q153 0 241.5 -87.5t88.5 -238.5v-256q0 -156 -87 -242.5t-243 -86.5q-159 0 -246.5 87t-87.5 238zM184 317q0 -119 64.5 -187.5t185.5 -68.5t183.5 68.5t62.5 189.5v254q0 113 -63.5 183.5t-182.5 70.5q-109 0 -179.5 -71.5 t-70.5 -180.5v-258zM219 1149q0 26 17.5 43.5t42.5 17.5t42 -17.5t17 -43.5t-17.5 -44t-41.5 -18q-25 0 -42.5 18.5t-17.5 43.5zM532 1149q0 26 17.5 43.5t42.5 17.5t43 -17.5t18 -43.5q0 -25 -17.5 -43.5t-41.5 -18.5q-26 0 -44 18.5t-18 43.5z" />
<glyph unicode="&#xf7;" horiz-adv-x="911" d="M66 463v35q0 13 5 17.5t19 4.5h731q13 0 18 -4.5t5 -17.5v-33q0 -21 -23 -21h-731q-24 0 -24 19zM383 127q0 26 20 46t46 20q29 0 47 -19t18 -47q0 -29 -18 -47.5t-47 -18.5q-27 0 -46.5 19.5t-19.5 46.5zM385 821q0 26 19 45t45 19q29 0 48 -18t19 -46q0 -29 -19 -48 t-48 -19q-26 0 -45 19.5t-19 47.5z" />
<glyph unicode="&#xf8;" horiz-adv-x="847" d="M100 315v263q0 146 90 234.5t244 88.5q135 0 221 -70l45 64q2 5 8.5 6.5t12.5 -2.5l35 -22q10 -10 2 -21l-53 -78q59 -85 59 -203v-256q0 -156 -87 -242.5t-243 -86.5q-143 0 -227 69l-39 -55q-6 -12 -18 -6l-39 25q-10 6 -2 18l49 70q-58 79 -58 204zM184 317 q0 -73 25 -131l401 578q-66 63 -176 63q-109 0 -179.5 -71.5t-70.5 -180.5v-258zM252 125q67 -64 182 -64q121 0 183.5 68.5t62.5 189.5v254q0 73 -27 132z" />
<glyph unicode="&#xf9;" horiz-adv-x="872" d="M104 326v551q0 14 13 14h57q14 0 14 -14v-555q0 -109 64.5 -182.5t183.5 -73.5q108 0 177 73.5t69 179.5v558q0 14 14 14h58q16 0 16 -14v-863q0 -14 -14 -14h-58q-12 0 -12 14v99h-8q-42 -61 -112 -92t-146 -31q-83 0 -145.5 28t-99 76t-54 106.5t-17.5 125.5zM270 1245 q-18 21 11 35l45 25q24 12 36 -9l140 -254l1 -2q6 -15 -7 -24l-23 -12q-15 -8 -27 8z" />
<glyph unicode="&#xfa;" horiz-adv-x="872" d="M104 326v551q0 14 13 14h57q14 0 14 -14v-555q0 -109 64.5 -182.5t183.5 -73.5q108 0 177 73.5t69 179.5v558q0 14 14 14h58q16 0 16 -14v-863q0 -14 -14 -14h-58q-12 0 -12 14v99h-8q-42 -61 -112 -92t-146 -31q-83 0 -145.5 28t-99 76t-54 106.5t-17.5 125.5zM387 1044 l139 254q14 24 37 11l43 -27q15 -9 15 -18q0 -1 -7 -15l-178 -237q-11 -15 -26 -6l-19 12q-13 8 -4 26z" />
<glyph unicode="&#xfb;" horiz-adv-x="872" d="M104 326v551q0 14 13 14h57q14 0 14 -14v-555q0 -109 64.5 -182.5t183.5 -73.5q108 0 177 73.5t69 179.5v558q0 14 14 14h58q16 0 16 -14v-863q0 -14 -14 -14h-58q-12 0 -12 14v99h-8q-42 -61 -112 -92t-146 -31q-83 0 -145.5 28t-99 76t-54 106.5t-17.5 125.5zM176 1055 l193 239q17 17 32 17h52q16 0 30 -17l193 -235q13 -16 0 -27l-17 -14q-10 -10 -26 2l-207 207l-205 -207q-12 -15 -26 -4l-17 14q-12 12 -2 25z" />
<glyph unicode="&#xfc;" horiz-adv-x="872" d="M104 326v551q0 14 13 14h57q14 0 14 -14v-555q0 -109 64.5 -182.5t183.5 -73.5q108 0 177 73.5t69 179.5v558q0 14 14 14h58q16 0 16 -14v-863q0 -14 -14 -14h-58q-12 0 -12 14v99h-8q-42 -61 -112 -92t-146 -31q-83 0 -145.5 28t-99 76t-54 106.5t-17.5 125.5zM227 1149 q0 26 17.5 43.5t42.5 17.5t42 -17.5t17 -43.5t-17.5 -44t-41.5 -18q-25 0 -42.5 18.5t-17.5 43.5zM541 1149q0 26 17 43.5t42 17.5t43.5 -17.5t18.5 -43.5q0 -25 -17.5 -43.5t-42.5 -18.5q-26 0 -43.5 18.5t-17.5 43.5z" />
<glyph unicode="&#xfd;" horiz-adv-x="739" d="M16 872q-4 19 15 19h51q16 0 24 -17q22 -71 73 -242.5t92 -303.5t81 -256h6q44 129 134.5 400t134.5 400q5 19 22 19h49q20 0 17 -19l-412 -1224q-4 -23 -31 -23h-41q-21 0 -14 25l115 350h-23q-19 0 -24 18zM305 1044l139 254q14 24 37 11l43 -27q15 -9 15 -18 q0 -1 -7 -15l-178 -237q-11 -15 -26 -6l-19 12q-13 8 -4 26z" />
<glyph unicode="&#xfe;" horiz-adv-x="870" d="M113 -356v1646q0 15 14 15h53q13 0 13 -15v-510l6 -2q42 59 111.5 91t146.5 32q150 0 234.5 -87t84.5 -234v-256q0 -64 -18.5 -122t-56 -106.5t-102 -77t-148.5 -28.5q-79 0 -144.5 29t-101.5 81l-6 -2v-454q0 -13 -15 -13h-57q-14 0 -14 13zM197 322q0 -108 68 -183.5 t179 -75.5q125 0 186.5 74t61.5 185v253q0 112 -65 182t-181 70q-109 0 -179 -70t-70 -177v-258z" />
<glyph unicode="&#xff;" horiz-adv-x="739" d="M16 872q-4 19 15 19h51q16 0 24 -17q22 -71 73 -242.5t92 -303.5t81 -256h6q44 129 134.5 400t134.5 400q5 19 22 19h49q20 0 17 -19l-412 -1224q-4 -23 -31 -23h-41q-21 0 -14 25l115 350h-23q-19 0 -24 18zM154 1149q0 26 17 43.5t42 17.5t42 -17.5t17 -43.5t-17.5 -44 t-41.5 -18t-41.5 18.5t-17.5 43.5zM467 1149q0 26 17 43.5t42 17.5t43.5 -17.5t18.5 -43.5q0 -25 -17.5 -43.5t-42.5 -18.5q-26 0 -43.5 18.5t-17.5 43.5z" />
<glyph unicode="&#x100;" horiz-adv-x="911" d="M27 16l358 1231q4 17 18 17h95q14 0 20 -15l361 -1229q4 -6 0.5 -13t-11.5 -7h-59q-17 0 -21 12l-92 307h-491l-88 -307q-3 -12 -19 -12h-57q-21 0 -14 16zM217 1409v43q0 14 12 14h371q14 0 14 -14v-43q0 -12 -12 -12h-373q-12 0 -12 12zM227 395h453q-40 133 -148 502 l-79 277h-4q-44 -154 -78 -281z" />
<glyph unicode="&#x101;" horiz-adv-x="782" d="M57 283q0 132 82.5 218.5t229.5 86.5q156 0 229 -103h4v119q0 223 -223 223q-49 0 -113.5 -12.5t-103.5 -30.5q-14 -10 -21 7l-18 43q-3 12 10 18q105 51 252 51q158 0 230.5 -77t72.5 -228v-584q0 -14 -14 -14h-53q-13 0 -13 12v92h-2q-38 -52 -107.5 -83t-146.5 -31 q-139 0 -217 80t-78 213zM137 287q0 -102 56.5 -165t171.5 -63q101 0 167 67.5t66 164.5t-62 163t-165 66q-109 0 -171.5 -67t-62.5 -166zM205 1102v41q0 14 12 14h371q14 0 14 -14v-41q0 -15 -12 -15h-373q-12 0 -12 15z" />
<glyph unicode="&#x102;" horiz-adv-x="911" d="M27 16l358 1231q4 17 18 17h95q14 0 20 -15l361 -1229q4 -6 0.5 -13t-11.5 -7h-59q-17 0 -21 12l-92 307h-491l-88 -307q-3 -12 -19 -12h-57q-21 0 -14 16zM225 1544q0 15 13 15h26q6 0 9.5 -3t5.5 -7.5t4 -12.5q12 -66 59 -103.5t109 -37.5q60 0 109 38.5t61 102.5 q1 2 1.5 5.5t1 5t1.5 4t2 4t3 2.5t4 1.5t5 0.5h25q14 0 14 -15q-1 -97 -69.5 -160t-159.5 -63q-88 0 -155.5 63t-68.5 160zM227 395h453q-40 133 -148 502l-79 277h-4q-44 -154 -78 -281z" />
<glyph unicode="&#x103;" horiz-adv-x="782" d="M57 283q0 132 82.5 218.5t229.5 86.5q156 0 229 -103h4v119q0 223 -223 223q-49 0 -113.5 -12.5t-103.5 -30.5q-14 -10 -21 7l-18 43q-3 12 10 18q105 51 252 51q158 0 230.5 -77t72.5 -228v-584q0 -14 -14 -14h-53q-13 0 -13 12v92h-2q-38 -52 -107.5 -83t-146.5 -31 q-139 0 -217 80t-78 213zM137 287q0 -102 56.5 -165t171.5 -63q101 0 167 67.5t66 164.5t-62 163t-165 66q-109 0 -171.5 -67t-62.5 -166zM180 1257q0 13 13 13h24q7 0 11 -3t5.5 -6.5t4.5 -11.5q12 -66 59 -103.5t109 -37.5q60 0 108.5 38t60.5 103q0 1 1.5 4.5t2 5t1.5 4 t2 3t3 2t4 2t5 0.5h24q15 0 15 -13q-1 -98 -70.5 -160.5t-159.5 -62.5q-88 0 -155 63t-68 160z" />
<glyph unicode="&#x104;" horiz-adv-x="911" d="M27 16l358 1231q4 17 18 17h95q14 0 20 -15l361 -1229q4 -6 0.5 -13t-11.5 -7h-28q-113 -120 -113 -231q0 -76 88 -76q61 0 123 47q7 7 16 -2l19 -23q6 -6 -4 -16q-32 -29 -80.5 -48.5t-91.5 -19.5q-71 0 -107.5 37t-36.5 105q0 57 35.5 124.5t83.5 108.5l14 12l-90 301 h-491l-88 -307q-3 -12 -19 -12h-57q-21 0 -14 16zM227 395h453q-40 133 -148 502l-79 277h-4q-44 -154 -78 -281z" />
<glyph unicode="&#x105;" horiz-adv-x="782" d="M57 283q0 132 82.5 218.5t229.5 86.5q156 0 229 -103h4v119q0 223 -223 223q-49 0 -113.5 -12.5t-103.5 -30.5q-14 -10 -21 7l-18 43q-3 12 10 18q105 51 252 51q158 0 230.5 -77t72.5 -228v-584q0 -14 -14 -14h-23q-112 -119 -112 -231q0 -76 88 -76q61 0 123 47 q7 7 16 -2l18 -23q6 -6 -4 -16q-32 -29 -80.5 -48.5t-91.5 -19.5q-71 0 -107 36.5t-36 105.5q0 57 35.5 124.5t83.5 108.5q16 16 24 19v79h-2q-38 -52 -107.5 -83t-146.5 -31q-139 0 -217 80t-78 213zM137 287q0 -102 56.5 -165t171.5 -63q101 0 167 67.5t66 164.5t-62 163 t-165 66q-109 0 -171.5 -67t-62.5 -166z" />
<glyph unicode="&#x106;" horiz-adv-x="845" d="M119 322v626q0 141 100.5 235.5t259.5 94.5q203 0 309 -129q12 -13 -2 -27l-36 -30q-13 -13 -29 6q-37 48 -104.5 75t-137.5 27q-120 0 -196 -72.5t-76 -181.5v-620q0 -113 74 -188t204 -75q67 0 130.5 26t107.5 73q20 23 35 10l30 -27q17 -14 5 -26q-119 -131 -308 -131 q-168 0 -267 92t-99 242zM418 1343q-9 16 2 25l223 191q17 14 31 -3l39 -47q18 -18 -4 -30l-252 -156q-15 -8 -27 4z" />
<glyph unicode="&#x107;" horiz-adv-x="759" d="M92 313v262q0 146 94.5 236t241.5 90q177 0 274 -129q10 -16 -4 -24l-36 -31q-12 -9 -27 6q-35 49 -90.5 76.5t-118.5 27.5q-108 0 -179 -70.5t-71 -178.5v-265q0 -114 70.5 -182t181.5 -68q135 0 211 103q9 15 23 4l36 -23q16 -12 9 -26q-92 -131 -281 -131 q-155 0 -244.5 87.5t-89.5 235.5zM371 1044l139 254q14 24 37 11l43 -27q14 -8 14 -18q0 -3 -6 -15l-178 -237q-11 -15 -27 -6l-18 12q-13 8 -4 26z" />
<glyph unicode="&#x108;" horiz-adv-x="845" d="M119 322v626q0 141 100.5 235.5t259.5 94.5q203 0 309 -129q12 -13 -2 -27l-36 -30q-13 -13 -29 6q-37 48 -104.5 75t-137.5 27q-120 0 -196 -72.5t-76 -181.5v-620q0 -113 74 -188t204 -75q67 0 130.5 26t107.5 73q20 23 35 10l30 -27q17 -14 5 -26q-119 -131 -308 -131 q-168 0 -267 92t-99 242zM229 1346q0 5 7 12l190 192q15 15 33 15h51q18 0 31 -15q98 -94 192 -192q7 -8 7 -12t-7 -11q-21 -16 -28 -16q-9 0 -15 6l-211 162l-200 -162q-6 -6 -15 -6q-7 0 -28 16q-7 7 -7 11z" />
<glyph unicode="&#x109;" horiz-adv-x="759" d="M92 313v262q0 146 94.5 236t241.5 90q177 0 274 -129q10 -16 -4 -24l-36 -31q-12 -9 -27 6q-35 49 -90.5 76.5t-118.5 27.5q-108 0 -179 -70.5t-71 -178.5v-265q0 -114 70.5 -182t181.5 -68q135 0 211 103q9 15 23 4l36 -23q16 -12 9 -26q-92 -131 -281 -131 q-155 0 -244.5 87.5t-89.5 235.5zM174 1055l193 239q17 17 32 17h52q16 0 30 -17l193 -235q13 -16 0 -27l-17 -14q-10 -10 -26 2l-207 207l-205 -207q-12 -15 -26 -4l-17 14q-12 12 -2 25z" />
<glyph unicode="&#x10a;" horiz-adv-x="845" d="M119 322v626q0 141 100.5 235.5t259.5 94.5q203 0 309 -129q12 -13 -2 -27l-36 -30q-13 -13 -29 6q-37 48 -104.5 75t-137.5 27q-120 0 -196 -72.5t-76 -181.5v-620q0 -113 74 -188t204 -75q67 0 130.5 26t107.5 73q20 23 35 10l30 -27q17 -14 5 -26q-119 -131 -308 -131 q-168 0 -267 92t-99 242zM418 1473q0 26 17 43.5t42 17.5t42.5 -16.5t17.5 -42.5t-18 -44t-42 -18q-25 0 -42 17.5t-17 42.5z" />
<glyph unicode="&#x10b;" horiz-adv-x="759" d="M92 313v262q0 146 94.5 236t241.5 90q177 0 274 -129q10 -16 -4 -24l-36 -31q-12 -9 -27 6q-35 49 -90.5 76.5t-118.5 27.5q-108 0 -179 -70.5t-71 -178.5v-265q0 -114 70.5 -182t181.5 -68q135 0 211 103q9 15 23 4l36 -23q16 -12 9 -26q-92 -131 -281 -131 q-155 0 -244.5 87.5t-89.5 235.5zM373 1153q0 26 17 43.5t42 17.5t42.5 -16.5t17.5 -42.5t-18 -43.5t-42 -17.5q-25 0 -42 17t-17 42z" />
<glyph unicode="&#x10c;" horiz-adv-x="845" d="M119 322v626q0 141 100.5 235.5t259.5 94.5q203 0 309 -129q12 -13 -2 -27l-36 -30q-13 -13 -29 6q-37 48 -104.5 75t-137.5 27q-120 0 -196 -72.5t-76 -181.5v-620q0 -113 74 -188t204 -75q67 0 130.5 26t107.5 73q20 23 35 10l30 -27q17 -14 5 -26q-119 -131 -308 -131 q-168 0 -267 92t-99 242zM217 1538q0 4 6 10q23 17 29 17q8 0 14 -6l205 -162l207 162q6 6 14 6q4 0 8.5 -2t7.5 -4t7 -6t6 -5q7 -8 7 -11t-7 -11q-94 -99 -193 -193q-12 -14 -30 -14h-52q-18 0 -32 14l-191 193q-6 6 -6 12z" />
<glyph unicode="&#x10d;" horiz-adv-x="759" d="M92 313v262q0 146 94.5 236t241.5 90q177 0 274 -129q10 -16 -4 -24l-36 -31q-12 -9 -27 6q-35 49 -90.5 76.5t-118.5 27.5q-108 0 -179 -70.5t-71 -178.5v-265q0 -114 70.5 -182t181.5 -68q135 0 211 103q9 15 23 4l36 -23q16 -12 9 -26q-92 -131 -281 -131 q-155 0 -244.5 87.5t-89.5 235.5zM166 1273.5q0 2.5 8 10.5l19 16q10 10 20 0l205 -210l211 204q8 8 10.5 9t13.5 -5l21 -16q10 -10 -2 -25l-193 -235q-13 -16 -30 -16h-52q-16 0 -32 16l-193 240q-6 9 -6 11.5z" />
<glyph unicode="&#x10e;" horiz-adv-x="968" d="M127 16v1231q0 17 14 17h383q167 0 253.5 -83.5t86.5 -246.5v-592q0 -164 -90 -253t-252 -89h-381q-14 0 -14 16zM166 1538q0 4 6 10q23 17 29 17q8 0 14 -6l205 -162l207 162q6 6 14 6q4 0 8.5 -2t7.5 -4t7 -6t6 -5q8 -8 8 -11t-8 -11q-94 -99 -193 -193 q-12 -14 -31 -14h-51q-19 0 -33 14l-190 193q-6 6 -6 12zM215 78h307q119 0 185.5 65.5t66.5 190.5v596q0 122 -58.5 189t-197.5 67h-303v-1108z" />
<glyph unicode="&#x10f;" horiz-adv-x="997" d="M98 309v258q0 63 20 121.5t58 106.5t102.5 77t145.5 29q79 0 143.5 -28.5t102.5 -81.5l6 4v495q0 15 14 15h58q14 0 14 -13v-1280q0 -12 -14 -12h-54q-12 0 -12 14v92l-6 3q-41 -58 -110.5 -88.5t-147.5 -30.5q-150 0 -235 87t-85 232zM182 313q0 -112 65 -182t181 -70 q108 0 179 71t71 177v262q0 107 -68.5 180.5t-179.5 73.5q-121 0 -184.5 -74t-63.5 -184v-254zM895 1001l16 285q0 19 19 19h78q24 0 16 -25l-70 -283q-3 -18 -18 -18h-27q-17 0 -14 22z" />
<glyph unicode="&#x110;" horiz-adv-x="968" d="M8 633v35q0 16 15 16h104v563q0 17 14 17h383q167 0 253.5 -83.5t86.5 -246.5v-592q0 -164 -90 -253t-252 -89h-381q-14 0 -14 16v602h-104q-15 0 -15 15zM215 78h307q119 0 185.5 65.5t66.5 190.5v596q0 122 -58.5 189t-197.5 67h-303v-502h295q14 0 14 -16v-35 q0 -15 -14 -15h-295v-540z" />
<glyph unicode="&#x111;" horiz-adv-x="894" d="M98 309v258q0 63 20 121.5t58 106.5t102.5 77t145.5 29q79 0 143.5 -28.5t102.5 -81.5l6 4v243h-162q-12 0 -12 15v34q0 15 14 15h160v188q0 15 14 15h58q14 0 14 -13v-190h92q12 0 12 -15v-34q0 -15 -12 -15h-92v-1026q0 -12 -14 -12h-54q-12 0 -12 14v92l-6 3 q-41 -58 -110.5 -88.5t-147.5 -30.5q-150 0 -235 87t-85 232zM182 313q0 -112 65 -182t181 -70q108 0 179 71t71 177v262q0 107 -68.5 180.5t-179.5 73.5q-121 0 -184.5 -74t-63.5 -184v-254z" />
<glyph unicode="&#x112;" horiz-adv-x="878" d="M125 16v1231q0 17 16 17h635q15 0 15 -17v-47q0 -14 -15 -14h-563v-494h492q14 0 14 -16v-47q0 -15 -14 -15h-492v-536h588q16 0 16 -15v-47q0 -16 -16 -16h-660q-16 0 -16 16zM246 1409v43q0 14 12 14h371q14 0 14 -14v-43q0 -12 -12 -12h-373q-12 0 -12 12z" />
<glyph unicode="&#x113;" horiz-adv-x="835" d="M98 311v258q0 151 94 241.5t236 90.5q149 0 241.5 -88t92.5 -252v-88q0 -17 -8.5 -26t-20.5 -9h-551v-125q0 -111 64 -181.5t186 -70.5q129 0 213 101q12 15 27 6l33 -23q15 -8 8 -22q-91 -133 -283 -133q-154 0 -243 87t-89 234zM182 510h494v70q0 109 -67 178t-181 69 q-105 0 -175.5 -68.5t-70.5 -176.5v-72zM225 1102v41q0 14 13 14h370q15 0 15 -14v-41q0 -15 -13 -15h-372q-13 0 -13 15z" />
<glyph unicode="&#x114;" horiz-adv-x="878" d="M125 16v1231q0 17 16 17h635q15 0 15 -17v-47q0 -14 -15 -14h-563v-494h492q14 0 14 -16v-47q0 -15 -14 -15h-492v-536h588q16 0 16 -15v-47q0 -16 -16 -16h-660q-16 0 -16 16zM225 1544q0 15 13 15h26q6 0 9.5 -3t5.5 -7.5t4 -12.5q12 -66 59 -103.5t109 -37.5 q60 0 109 38.5t61 102.5q1 2 1.5 5.5t1 5t1.5 4t2 4t3 2.5t4 1.5t5 0.5h25q14 0 14 -15q-1 -97 -69.5 -160t-159.5 -63q-88 0 -155.5 63t-68.5 160z" />
<glyph unicode="&#x115;" horiz-adv-x="835" d="M98 311v258q0 151 94 241.5t236 90.5q149 0 241.5 -88t92.5 -252v-88q0 -17 -8.5 -26t-20.5 -9h-551v-125q0 -111 64 -181.5t186 -70.5q129 0 213 101q12 15 27 6l33 -23q15 -8 8 -22q-91 -133 -283 -133q-154 0 -243 87t-89 234zM182 510h494v70q0 109 -67 178t-181 69 q-105 0 -175.5 -68.5t-70.5 -176.5v-72zM195 1257q0 13 12 13h24q7 0 11 -3t5.5 -6.5t4.5 -11.5q12 -66 59 -103.5t109 -37.5q60 0 109 38t61 103q1 2 1.5 5t1 4.5t1.5 3.5t2 3.5t3 2.5t4 1.5t5 0.5h25q14 0 14 -13q-1 -98 -70 -160.5t-159 -62.5q-88 0 -155 63t-68 160z " />
<glyph unicode="&#x116;" horiz-adv-x="878" d="M125 16v1231q0 17 16 17h635q15 0 15 -17v-47q0 -14 -15 -14h-563v-494h492q14 0 14 -16v-47q0 -15 -14 -15h-492v-536h588q16 0 16 -15v-47q0 -16 -16 -16h-660q-16 0 -16 16zM401 1460q0 26 17.5 44t42.5 18t42 -17t17 -43t-17.5 -43.5t-41.5 -17.5q-25 0 -42.5 17 t-17.5 42z" />
<glyph unicode="&#x117;" horiz-adv-x="835" d="M98 311v258q0 151 94 241.5t236 90.5q149 0 241.5 -88t92.5 -252v-88q0 -17 -8.5 -26t-20.5 -9h-551v-125q0 -111 64 -181.5t186 -70.5q129 0 213 101q12 15 27 6l33 -23q15 -8 8 -22q-91 -133 -283 -133q-154 0 -243 87t-89 234zM182 510h494v70q0 109 -67 178t-181 69 q-105 0 -175.5 -68.5t-70.5 -176.5v-72zM377 1153q0 26 17 43.5t42 17.5t42.5 -16.5t17.5 -42.5t-18 -43.5t-42 -17.5q-25 0 -42 17t-17 42z" />
<glyph unicode="&#x118;" horiz-adv-x="878" d="M125 16v1231q0 17 16 17h635q15 0 15 -17v-47q0 -14 -15 -14h-563v-494h492q14 0 14 -16v-47q0 -15 -14 -15h-492v-536h588q16 0 16 -15v-47q0 -16 -16 -16h-84q-113 -120 -113 -231q0 -76 88 -76q61 0 123 47q7 7 16 -2l19 -23q6 -6 -4 -16q-32 -29 -80.5 -48.5 t-91.5 -19.5q-71 0 -107.5 37t-36.5 105q0 56 32.5 121t78.5 106h-500q-16 0 -16 16z" />
<glyph unicode="&#x119;" horiz-adv-x="835" d="M98 311v258q0 151 94 241.5t236 90.5q149 0 241.5 -88t92.5 -252v-88q0 -17 -8.5 -26t-20.5 -9h-551v-125q0 -111 64 -181.5t186 -70.5q129 0 213 101q12 15 27 6l33 -23q15 -8 8 -22q-41 -58 -99 -92q-52 -53 -81 -113t-29 -115q0 -75 88 -75q61 0 123 47q7 7 16 -2 l19 -23q6 -6 -5 -16q-32 -29 -80.5 -48.5t-91.5 -19.5q-143 0 -143 141q0 44 20.5 95.5t53.5 93.5q-35 -6 -74 -6q-154 0 -243 87t-89 234zM182 510h494v70q0 109 -67 178t-181 69q-105 0 -175.5 -68.5t-70.5 -176.5v-72z" />
<glyph unicode="&#x11a;" horiz-adv-x="878" d="M125 16v1231q0 17 16 17h635q15 0 15 -17v-47q0 -14 -15 -14h-563v-494h492q14 0 14 -16v-47q0 -15 -14 -15h-492v-536h588q16 0 16 -15v-47q0 -16 -16 -16h-660q-16 0 -16 16zM193 1538q0 4 6 10q23 17 28 17q9 0 15 -6l204 -162l207 162q6 6 15 6q5 0 10 -2.5t11 -8 t7 -6.5q8 -8 8 -11t-8 -11q-105 -109 -192 -193q-12 -14 -31 -14h-51q-19 0 -33 14l-190 193q-6 6 -6 12z" />
<glyph unicode="&#x11b;" horiz-adv-x="835" d="M98 311v258q0 151 94 241.5t236 90.5q149 0 241.5 -88t92.5 -252v-88q0 -17 -8.5 -26t-20.5 -9h-551v-125q0 -111 64 -181.5t186 -70.5q129 0 213 101q12 15 27 6l33 -23q15 -8 8 -22q-91 -133 -283 -133q-154 0 -243 87t-89 234zM166 1273.5q0 2.5 8 10.5l19 16 q10 10 20 0l205 -210l211 204q8 8 10.5 9t13.5 -5l21 -16q10 -10 -2 -25l-193 -235q-13 -16 -30 -16h-52q-16 0 -32 16l-193 240q-6 9 -6 11.5zM182 510h494v70q0 109 -67 178t-181 69q-105 0 -175.5 -68.5t-70.5 -176.5v-72z" />
<glyph unicode="&#x11c;" horiz-adv-x="944" d="M119 317v635q0 140 103.5 233t260.5 93q97 0 183.5 -34t130.5 -97q10 -16 -4 -27l-37 -28q-18 -14 -31 6q-36 50 -102.5 76t-137.5 26q-123 0 -200.5 -73.5t-77.5 -182.5v-622q0 -116 79.5 -187.5t198.5 -71.5q122 0 197.5 68.5t75.5 190.5v276h-193q-16 0 -16 14v50 q0 16 16 16h264q7 0 13 -5t6 -11v-343q0 -146 -100 -239.5t-263 -93.5q-161 0 -263.5 90t-102.5 241zM207 1346q0 6 6 12l190 192q15 15 33 15h51q19 0 31 -15q109 -105 193 -192q7 -8 7 -12t-7 -11q-21 -16 -29 -16t-14 6l-211 162l-201 -162q-6 -6 -14 -6t-29 16 q-6 6 -6 11z" />
<glyph unicode="&#x11d;" horiz-adv-x="862" d="M55 -154q0 22 7 49t18 27q13 0 39 -8t26 -14q0 -8 -1 -18t-1 -13q0 -76 72.5 -128t202.5 -52q122 0 199 49t77 137q0 174 -223 174h-113q-196 0 -196 125q0 79 69 143q-153 89 -153 277q0 127 93 217t232 90t228 -82q36 31 90 55.5t100 24.5q17 0 17 -20v-62 q0 -16 -15 -16h-4q-30 0 -76 -10.5t-67 -20.5q57 -72 57 -176q0 -131 -88 -223t-239 -92q-44 0 -99 10q-20 -10 -36.5 -37t-16.5 -59q0 -70 113 -70h143q123 0 198.5 -64.5t75.5 -175.5q0 -129 -102 -198.5t-264 -69.5q-166 0 -264.5 65.5t-98.5 165.5zM164 588 q0 -99 62.5 -169.5t172.5 -70.5q116 0 181 71t65 173q0 98 -66 165.5t-173 67.5q-106 0 -174 -69.5t-68 -167.5zM168 1040q0 7 6 13l193 239q14 17 32 17h52q16 0 30 -17l193 -235q6 -9 6 -15q0 -7 -6 -10l-17 -14q-6 -6 -12 -6t-14 8l-209 205l-203 -207q-8 -8 -16 -8 t-10 4l-17 14q-8 8 -8 12z" />
<glyph unicode="&#x11e;" horiz-adv-x="944" d="M119 317v635q0 140 103.5 233t260.5 93q97 0 183.5 -34t130.5 -97q10 -16 -4 -27l-37 -28q-18 -14 -31 6q-36 50 -102.5 76t-137.5 26q-123 0 -200.5 -73.5t-77.5 -182.5v-622q0 -116 79.5 -187.5t198.5 -71.5q122 0 197.5 68.5t75.5 190.5v276h-193q-16 0 -16 14v50 q0 16 16 16h264q7 0 13 -5t6 -11v-343q0 -146 -100 -239.5t-263 -93.5q-161 0 -263.5 90t-102.5 241zM242 1544q0 15 12 15h27q6 0 9.5 -3.5t4.5 -7t4 -12.5q12 -66 59 -103.5t109 -37.5q60 0 109 38.5t61 102.5q1 2 1.5 5.5t1 5t1.5 4t2 4t3 2.5t4 1.5t5 0.5h25 q14 0 14 -15q-1 -97 -69.5 -160t-159.5 -63q-88 0 -155 63t-68 160z" />
<glyph unicode="&#x11f;" horiz-adv-x="862" d="M55 -154q0 22 7 49t18 27q13 0 39 -8t26 -14q0 -8 -1 -18t-1 -13q0 -76 72.5 -128t202.5 -52q122 0 199 49t77 137q0 174 -223 174h-113q-196 0 -196 125q0 79 69 143q-153 89 -153 277q0 127 93 217t232 90t228 -82q36 31 90 55.5t100 24.5q17 0 17 -20v-62 q0 -16 -15 -16h-4q-30 0 -76 -10.5t-67 -20.5q57 -72 57 -176q0 -131 -88 -223t-239 -92q-44 0 -99 10q-20 -10 -36.5 -37t-16.5 -59q0 -70 113 -70h143q123 0 198.5 -64.5t75.5 -175.5q0 -129 -102 -198.5t-264 -69.5q-166 0 -264.5 65.5t-98.5 165.5zM164 588 q0 -99 62.5 -169.5t172.5 -70.5q116 0 181 71t65 173q0 98 -66 165.5t-173 67.5q-106 0 -174 -69.5t-68 -167.5zM193 1257q0 13 14 13h24q16 0 19 -23q13 -66 59.5 -103.5t108.5 -37.5q60 0 110 38.5t62 102.5q3 23 18 23h25q12 0 12 -13q-1 -98 -69 -161.5t-158 -63.5 q-88 0 -156 64t-69 161z" />
<glyph unicode="&#x120;" horiz-adv-x="944" d="M119 317v635q0 140 103.5 233t260.5 93q97 0 183.5 -34t130.5 -97q10 -16 -4 -27l-37 -28q-18 -14 -31 6q-36 50 -102.5 76t-137.5 26q-123 0 -200.5 -73.5t-77.5 -182.5v-622q0 -116 79.5 -187.5t198.5 -71.5q122 0 197.5 68.5t75.5 190.5v276h-193q-16 0 -16 14v50 q0 16 16 16h264q7 0 13 -5t6 -11v-343q0 -146 -100 -239.5t-263 -93.5q-161 0 -263.5 90t-102.5 241zM401 1460q0 26 17.5 44t42.5 18t42 -17t17 -43t-17.5 -43.5t-41.5 -17.5q-25 0 -42.5 17t-17.5 42z" />
<glyph unicode="&#x121;" horiz-adv-x="862" d="M55 -154q0 22 7 49t18 27q13 0 39 -8t26 -14q0 -8 -1 -18t-1 -13q0 -76 72.5 -128t202.5 -52q122 0 199 49t77 137q0 174 -223 174h-113q-196 0 -196 125q0 79 69 143q-153 89 -153 277q0 127 93 217t232 90t228 -82q36 31 90 55.5t100 24.5q17 0 17 -20v-62 q0 -16 -15 -16h-4q-30 0 -76 -10.5t-67 -20.5q57 -72 57 -176q0 -131 -88 -223t-239 -92q-44 0 -99 10q-20 -10 -36.5 -37t-16.5 -59q0 -70 113 -70h143q123 0 198.5 -64.5t75.5 -175.5q0 -129 -102 -198.5t-264 -69.5q-166 0 -264.5 65.5t-98.5 165.5zM164 588 q0 -99 62.5 -169.5t172.5 -70.5q116 0 181 71t65 173q0 98 -66 165.5t-173 67.5q-106 0 -174 -69.5t-68 -167.5zM375 1153q0 26 17 42.5t42 16.5q24 0 41 -16.5t17 -42.5q0 -25 -17 -42t-41 -17q-25 0 -42 17t-17 42z" />
<glyph unicode="&#x122;" horiz-adv-x="944" d="M119 317v635q0 140 103.5 233t260.5 93q97 0 183.5 -34t130.5 -97q10 -16 -4 -27l-37 -28q-18 -14 -31 6q-36 50 -102.5 76t-137.5 26q-123 0 -200.5 -73.5t-77.5 -182.5v-622q0 -116 79.5 -187.5t198.5 -71.5q122 0 197.5 68.5t75.5 190.5v276h-193q-16 0 -16 14v50 q0 16 16 16h264q7 0 13 -5t6 -11v-343q0 -146 -100 -239.5t-263 -93.5q-161 0 -263.5 90t-102.5 241zM379 -397l16 284q0 19 19 19h78q24 0 16 -25l-70 -282q-3 -19 -18 -19h-27q-17 0 -14 23z" />
<glyph unicode="&#x123;" horiz-adv-x="862" d="M55 -154q0 22 7 49t18 27q13 0 39 -8t26 -14q0 -8 -1 -18t-1 -13q0 -76 72.5 -128t202.5 -52q122 0 199 49t77 137q0 174 -223 174h-113q-196 0 -196 125q0 79 69 143q-153 89 -153 277q0 127 93 217t232 90t228 -82q36 31 90 55.5t100 24.5q17 0 17 -20v-62 q0 -16 -15 -16h-4q-30 0 -76 -10.5t-67 -20.5q57 -72 57 -176q0 -131 -88 -223t-239 -92q-44 0 -99 10q-20 -10 -36.5 -37t-16.5 -59q0 -70 113 -70h143q123 0 198.5 -64.5t75.5 -175.5q0 -129 -102 -198.5t-264 -69.5q-166 0 -264.5 65.5t-98.5 165.5zM164 588 q0 -99 62.5 -169.5t172.5 -70.5q116 0 181 71t65 173q0 98 -66 165.5t-173 67.5q-106 0 -174 -69.5t-68 -167.5zM369 999q0 9 2 13q63 301 88 301h28q15 0 15 -23q-15 -231 -17 -284q-3 -19 -20 -19h-78q-18 0 -18 12z" />
<glyph unicode="&#x124;" horiz-adv-x="1021" d="M125 14v1235q0 15 16 15h58q14 0 14 -15v-559h596v559q0 15 16 15h58q16 0 16 -15v-1235q0 -14 -14 -14h-60q-16 0 -16 14v598h-596v-598q0 -14 -14 -14h-58q-16 0 -16 14zM256 1346q0 6 6 12l191 192q15 15 32 15h52q17 0 30 -15q109 -105 193 -192q8 -8 8 -12t-8 -11 q-21 -16 -29 -16t-14 6l-211 162l-201 -162q-6 -6 -14 -6t-29 16q-6 6 -6 11z" />
<glyph unicode="&#x125;" horiz-adv-x="876" d="M-100 1346q0 6 6 12l190 192q15 15 33 15h51q18 0 31 -15q98 -94 192 -192q7 -8 7 -12t-7 -11q-21 -16 -28 -16q-9 0 -15 6l-210 162l-201 -162q-6 -6 -15 -6q-7 0 -28 16q-6 6 -6 11zM111 12v1278q0 15 14 15h57q13 0 13 -15v-508l6 -2q98 121 258 121q83 0 146 -28 t99 -76t54 -106.5t18 -125.5v-551q0 -14 -14 -14h-57q-15 0 -15 12v555q0 111 -64 185.5t-184 74.5q-107 0 -176 -74t-69 -182v-557q0 -14 -15 -14h-57q-14 0 -14 12z" />
<glyph unicode="&#x126;" horiz-adv-x="1036" d="M27 1065v31q0 16 14 16h88v137q0 15 16 15h58q14 0 14 -15v-137h596v137q0 15 16 15h58q16 0 16 -15v-137h92q15 0 15 -16v-31q0 -14 -15 -14h-92v-1037q0 -14 -14 -14h-60q-16 0 -16 14v598h-596v-598q0 -14 -14 -14h-58q-16 0 -16 14v1037h-88q-14 0 -14 14zM217 690 h596v361h-596v-361z" />
<glyph unicode="&#x127;" horiz-adv-x="897" d="M25 1069v31q0 14 12 14h94v176q0 15 14 15h58q12 0 12 -15v-176h412q14 0 14 -14v-31q0 -14 -14 -14h-412v-273l6 -2q98 121 258 121q83 0 146 -28t99.5 -76t54.5 -106.5t18 -125.5v-551q0 -14 -15 -14h-57q-14 0 -14 12v555q0 111 -64 185.5t-184 74.5 q-107 0 -176.5 -74t-69.5 -182v-557q0 -14 -14 -14h-58q-14 0 -14 12v1043h-94q-12 0 -12 14z" />
<glyph unicode="&#x128;" horiz-adv-x="411" d="M-49 1462q51 92 143 92q40 0 112 -31.5t105 -31.5q57 0 97 59q9 12 18 6l35 -16q12 -3 6 -22q-27 -50 -68.5 -72.5t-83.5 -22.5q-45 0 -119.5 32t-109.5 32q-23 0 -45.5 -15t-34.5 -38q-10 -16 -24 -9l-29 15q-10 6 -2 22zM160 14v1235q0 15 16 15h57q17 0 17 -15v-1235 q0 -14 -17 -14h-57q-16 0 -16 14z" />
<glyph unicode="&#x129;" horiz-adv-x="452" d="M-23 1114q51 92 144 92q40 0 112 -31.5t105 -31.5q56 0 96 59q9 12 19 6l34 -16q14 -3 7 -23q-27 -50 -68 -72t-84 -22q-44 0 -119 32t-110 32q-23 0 -45.5 -15.5t-34.5 -38.5q-9 -16 -25 -8l-28 15q-11 6 -3 22zM190 12v865q0 14 15 14h57q14 0 14 -14v-865 q0 -12 -14 -12h-57q-15 0 -15 12z" />
<glyph unicode="&#x12a;" horiz-adv-x="411" d="M2 1409v43q0 14 12 14h371q14 0 14 -14v-43q0 -12 -12 -12h-373q-12 0 -12 12zM160 14v1235q0 15 16 15h57q17 0 17 -15v-1235q0 -14 -17 -14h-57q-16 0 -16 14z" />
<glyph unicode="&#x12b;" horiz-adv-x="352" d="M-27 1102v41q0 14 13 14h370q15 0 15 -14v-41q0 -15 -13 -15h-372q-13 0 -13 15zM127 12v865q0 14 14 14h58q14 0 14 -14v-865q0 -12 -14 -12h-58q-14 0 -14 12z" />
<glyph unicode="&#x12c;" horiz-adv-x="411" d="M-23 1546q0 13 13 13h24q7 0 11 -3t5.5 -6.5t4.5 -11.5q12 -66 59 -103.5t109 -37.5q60 0 109 38t61 103q1 2 1.5 5t1 4.5t1.5 3.5t2 3.5t3 2.5t4 1.5t5 0.5h25q14 0 14 -13q-1 -98 -70 -160.5t-159 -62.5q-88 0 -155.5 63t-68.5 160zM160 14v1235q0 15 16 15h57 q17 0 17 -15v-1235q0 -14 -17 -14h-57q-16 0 -16 14z" />
<glyph unicode="&#x12d;" horiz-adv-x="413" d="M-10 1270q0 12 12 12h25q7 0 11 -3t5 -6t4 -11q12 -66 59 -104t109 -38q60 0 109 38.5t61 103.5q1 2 1.5 5t1 4.5t1.5 3.5t2 3t3 2t4 1.5t5 0.5h25q14 0 14 -12q-1 -98 -70 -160.5t-159 -62.5q-88 0 -155 63t-68 160zM166 12v865q0 14 14 14h58q14 0 14 -14v-865 q0 -12 -14 -12h-58q-14 0 -14 12z" />
<glyph unicode="&#x12e;" horiz-adv-x="411" d="M14 -227q0 57 35.5 124.5t83.5 108.5q12 12 27 21v1222q0 15 16 15h57q17 0 17 -15v-1235q0 -14 -17 -14h-32q-113 -120 -113 -231q0 -76 88 -76q61 0 123 47q7 7 16 -2l19 -23q6 -6 -4 -16q-32 -29 -80.5 -48.5t-91.5 -19.5q-71 0 -107.5 37t-36.5 105z" />
<glyph unicode="&#x12f;" horiz-adv-x="352" d="M-8 -227q0 57 35.5 124.5t83.5 108.5l16 14v857q0 14 14 14h58q14 0 14 -14v-865q0 -12 -14 -12h-21q-112 -119 -112 -231q0 -76 88 -76q60 0 122 47q8 8 17 -2l18 -23q6 -6 -4 -16q-32 -29 -80.5 -48.5t-91.5 -19.5q-71 0 -107 36.5t-36 105.5zM111 1151q0 26 18 43.5 t43 17.5q26 0 43.5 -17.5t17.5 -43.5t-18 -45t-43 -19t-43 18.5t-18 45.5z" />
<glyph unicode="&#x130;" horiz-adv-x="411" d="M143 1473q0 26 17.5 43.5t42.5 17.5t42 -16.5t17 -42.5t-17.5 -44t-41.5 -18q-25 0 -42.5 17.5t-17.5 42.5zM160 14v1235q0 15 16 15h57q17 0 17 -15v-1235q0 -14 -17 -14h-57q-16 0 -16 14z" />
<glyph unicode="&#x131;" horiz-adv-x="352" d="M127 12v865q0 14 14 14h58q14 0 14 -14v-865q0 -12 -14 -12h-58q-14 0 -14 12z" />
<glyph unicode="&#x132;" horiz-adv-x="759" d="M133 14v1235q0 15 17 15h57q16 0 16 -15v-1235q0 -14 -16 -14h-57q-17 0 -17 14zM268 -168q-6 19 15 27q57 20 98 41.5t69.5 48t46 54t27 67t12.5 78.5t3 96v1001q0 17 16 17h53q19 0 19 -17v-993q0 -112 -12 -182t-48 -127.5t-97 -95t-163 -72.5q-22 -5 -26 12z" />
<glyph unicode="&#x133;" horiz-adv-x="636" d="M111 1151q0 26 18 43.5t43 17.5q26 0 43.5 -17.5t17.5 -43.5t-18 -45t-43 -19t-43 18.5t-18 45.5zM127 12v865q0 14 14 14h58q14 0 14 -14v-865q0 -12 -14 -12h-58q-14 0 -14 12zM190 -336l11 45q3 13 20 10q27 -8 74 -8q73 0 100 39t27 125v1002q0 14 14 14h58 q14 0 14 -14v-1008q0 -118 -50.5 -177t-156.5 -59q-61 0 -98 13q-15 3 -13 18zM403 1151q0 26 18.5 43.5t43.5 17.5q26 0 43.5 -17.5t17.5 -43.5t-18 -45t-41 -19q-27 0 -45.5 18.5t-18.5 45.5z" />
<glyph unicode="&#x134;" horiz-adv-x="464" d="M-55 -166q-6 20 14 27q57 20 98 41.5t69.5 48t46 54t27 67t12.5 78.5t3 96v1001q0 17 16 17h54q18 0 18 -17v-993q0 -112 -12 -182t-47.5 -127.5t-96.5 -95t-163 -72.5q-23 -6 -27 12zM4 1350q0 6 6 12l191 192q15 15 32 15h52q17 0 30 -15q109 -105 193 -192q8 -8 8 -12 t-8 -11q-21 -16 -29 -16t-14 6l-211 162l-201 -162q-6 -6 -14 -6t-29 16q-6 6 -6 11z" />
<glyph unicode="&#x135;" horiz-adv-x="440" d="M-55 -336l10 49q3 14 20 11q43 -13 74 -13q68 1 97.5 41t29.5 123v1002q0 14 14 14h58q14 0 14 -14v-1008q0 -118 -50.5 -177t-156.5 -59q-61 0 -98 13q-15 3 -12 18zM-35 1055l193 239q17 17 32 17h52q16 0 30 -17l193 -235q13 -16 0 -27l-16 -14q-10 -10 -27 2 l-207 207l-205 -207q-12 -15 -26 -4l-17 14q-12 12 -2 25z" />
<glyph unicode="&#x136;" horiz-adv-x="962" d="M125 14v1231q0 19 16 19h60q12 0 12 -17v-614l6 -2l545 618q13 13 24 13h64q11 0 13 -6.5t-5 -12.5l-450 -516l6 -6q55 14 119 14q299 0 323 -329l29 -392q0 -14 -15 -14h-53q-13 0 -16 16l-27 365q-2 42 -7.5 74.5t-22.5 73.5t-45 68t-78.5 46t-118.5 19q-80 0 -139 -25 t-91 -67.5t-46.5 -90t-14.5 -100.5v-363q0 -16 -12 -16h-60q-16 0 -16 14zM420 -356l16 284q0 19 19 19h77q25 0 17 -25l-70 -282q-3 -19 -18 -19h-27q-17 0 -14 23z" />
<glyph unicode="&#x137;" horiz-adv-x="831" d="M106 12v1278q0 15 15 15h57q15 0 15 -15v-841q1 0 2 -1.5t2 -1.5q76 75 438 433q13 10 27 10h73q10 0 10 -10q0 -7 -4 -11l-340 -333q39 4 82 4q123 -3 196 -88.5t81 -227.5l10 -207q0 -16 -18 -16h-52q-16 0 -16 14l-10 209q-12 246 -240 246q-103 0 -172 -70t-69 -161 v-226q0 -12 -15 -12h-57q-15 0 -15 12zM356 -397l17 284q0 19 18 19h78q24 0 16 -25l-69 -282q-3 -19 -19 -19h-26q-18 0 -15 23z" />
<glyph unicode="&#x138;" horiz-adv-x="831" d="M106 12v862q0 15 15 15h57q15 0 15 -15v-425q1 0 2 -1.5t2 -1.5q76 75 438 433q13 10 27 10h73q10 0 10 -10q0 -7 -4 -11l-340 -333q39 4 82 4q123 -3 196 -88.5t81 -227.5l10 -207q0 -16 -18 -16h-52q-16 0 -16 14l-10 209q-12 246 -240 246q-103 0 -172 -70t-69 -161 v-226q0 -12 -15 -12h-57q-15 0 -15 12z" />
<glyph unicode="&#x139;" horiz-adv-x="808" d="M117 16v1233q0 15 16 15h57q15 0 15 -15v-1169h569q14 0 14 -14v-50q0 -16 -14 -16h-639q-18 0 -18 16zM133 1343q-9 16 2 25l223 191q17 14 31 -3l39 -47q18 -18 -4 -30l-252 -156q-15 -8 -27 4z" />
<glyph unicode="&#x13a;" horiz-adv-x="399" d="M143 166v1124q0 15 13 15h57q14 0 14 -15v-1095q0 -66 20.5 -95.5t78.5 -29.5h20q16 0 16 -19v-47q0 -14 -16 -14h-39q-97 0 -130.5 46t-33.5 130zM143 1403q-9 15 2 24l224 191q17 14 30 -2l39 -47q18 -18 -4 -31l-252 -156q-15 -7 -26 4z" />
<glyph unicode="&#x13b;" horiz-adv-x="808" d="M117 16v1233q0 15 16 15h57q15 0 15 -15v-1169h569q14 0 14 -14v-50q0 -16 -14 -16h-639q-18 0 -18 16zM328 -397l16 284q0 19 18 19h78q25 0 17 -25l-70 -282q-3 -19 -18 -19h-27q-17 0 -14 23z" />
<glyph unicode="&#x13c;" horiz-adv-x="399" d="M137 -397l17 284q0 19 18 19h78q24 0 16 -25l-69 -282q-3 -19 -19 -19h-26q-18 0 -15 23zM143 166v1124q0 15 13 15h57q14 0 14 -15v-1095q0 -66 20.5 -95.5t78.5 -29.5h20q16 0 16 -19v-47q0 -14 -16 -14h-39q-97 0 -130.5 46t-33.5 130z" />
<glyph unicode="&#x13d;" horiz-adv-x="808" d="M117 16v1233q0 15 16 15h57q15 0 15 -15v-1169h569q14 0 14 -14v-50q0 -16 -14 -16h-639q-18 0 -18 16zM487 963l17 284q0 19 18 19h78q24 0 16 -25l-69 -283q-3 -18 -19 -18h-26q-18 0 -15 23z" />
<glyph unicode="&#x13e;" horiz-adv-x="530" d="M143 166v1124q0 15 13 15h57q14 0 14 -15v-1095q0 -66 20.5 -95.5t78.5 -29.5h20q16 0 16 -19v-47q0 -14 -16 -14h-39q-97 0 -130.5 46t-33.5 130zM379 995l16 285q0 18 19 18h78q24 0 16 -24l-70 -283q-3 -18 -18 -18h-27q-17 0 -14 22z" />
<glyph unicode="&#x13f;" horiz-adv-x="808" d="M117 16v1233q0 15 16 15h57q15 0 15 -15v-1169h569q14 0 14 -14v-50q0 -16 -14 -16h-639q-18 0 -18 16zM459 641q0 26 17 43.5t42 17.5t42.5 -16.5t17.5 -42.5t-18 -43.5t-42 -17.5q-25 0 -42 17t-17 42z" />
<glyph unicode="&#x140;" horiz-adv-x="503" d="M143 166v1124q0 15 13 15h57q14 0 14 -15v-1095q0 -66 20.5 -95.5t78.5 -29.5h20q16 0 16 -19v-47q0 -14 -16 -14h-39q-97 0 -130.5 46t-33.5 130zM352 723q0 26 17.5 43.5t42.5 17.5t42 -16.5t17 -42.5t-17.5 -43.5t-41.5 -17.5q-25 0 -42.5 17t-17.5 42z" />
<glyph unicode="&#x141;" horiz-adv-x="854" d="M6 426q-6 15 4 20l168 99v704q0 15 17 15h57q14 0 14 -15v-655l201 117q9 9 18 -4l19 -35q7 -12 -4 -19l-234 -137v-436h568q16 0 16 -14v-50q0 -16 -14 -16h-639q-19 0 -19 16v449l-133 -76q-12 -9 -18 4z" />
<glyph unicode="&#x142;" horiz-adv-x="503" d="M0 524q0 5 6 11l189 106v649q0 15 10 15h59q15 0 15 -15v-598l184 107q2 2 6 2q1 0 9 -8.5t16 -20.5t8 -20q0 -6 -6 -9l-217 -127v-421q0 -66 20 -95.5t78 -29.5h20q17 0 17 -19v-47q0 -11 -17 -14h-41q-27 0 -48.5 4.5t-37.5 10.5t-28 19.5t-20 23t-13.5 31t-8 33 t-4 39.5t-1.5 40v44v21v311q-33 -18 -156 -90q-2 -2 -6 -2q-7 0 -10 8l-19 33z" />
<glyph unicode="&#x143;" horiz-adv-x="1017" d="M117 14v1223q0 27 24 27h45q20 0 31 -19l592 -1073h4v1075q0 17 16 17h56q14 0 14 -17v-1224q0 -11 -6.5 -17t-15.5 -6h-48q-20 0 -28 16q-354 635 -592 1067h-4v-1069q0 -14 -17 -14h-57q-14 0 -14 14zM442 1343q-9 16 2 25l224 191q16 13 30 -3l39 -47q18 -18 -4 -30 l-252 -156q-15 -7 -26 4z" />
<glyph unicode="&#x144;" horiz-adv-x="874" d="M109 12v865q0 14 14 14h55q12 0 12 -14v-95h9q102 119 262 119q83 0 145 -27.5t98 -75.5t53 -106.5t17 -126.5v-551q0 -14 -12 -14h-60q-14 0 -14 12v555q0 114 -60 187t-188 73q-107 0 -176 -74t-69 -182v-557q0 -14 -15 -14h-57q-14 0 -14 12zM365 1044l139 254 q14 24 37 11l43 -27q14 -8 14 -18q0 -3 -6 -15l-178 -237q-11 -15 -27 -6l-18 12q-13 8 -4 26z" />
<glyph unicode="&#x145;" horiz-adv-x="1017" d="M117 14v1223q0 27 24 27h45q20 0 31 -19l592 -1073h4v1075q0 17 16 17h56q14 0 14 -17v-1224q0 -11 -6.5 -17t-15.5 -6h-48q-20 0 -28 16q-354 635 -592 1067h-4v-1069q0 -14 -17 -14h-57q-14 0 -14 14zM412 -356l16 284q0 19 18 19h78q25 0 17 -25l-70 -282 q-3 -19 -18 -19h-27q-17 0 -14 23z" />
<glyph unicode="&#x146;" horiz-adv-x="874" d="M109 12v865q0 14 14 14h55q12 0 12 -14v-95h9q102 119 262 119q83 0 145 -27.5t98 -75.5t53 -106.5t17 -126.5v-551q0 -14 -12 -14h-60q-14 0 -14 12v555q0 114 -60 187t-188 73q-107 0 -176 -74t-69 -182v-557q0 -14 -15 -14h-57q-14 0 -14 12zM362 -397l17 284 q0 19 18 19h78q25 0 17 -25l-70 -282q-3 -19 -19 -19h-26q-18 0 -15 23z" />
<glyph unicode="&#x147;" horiz-adv-x="1017" d="M117 14v1223q0 27 24 27h45q20 0 31 -19l592 -1073h4v1075q0 17 16 17h56q14 0 14 -17v-1224q0 -11 -6.5 -17t-15.5 -6h-48q-20 0 -28 16q-354 635 -592 1067h-4v-1069q0 -14 -17 -14h-57q-14 0 -14 14zM246 1538q0 4 6 10q23 17 29 17q8 0 14 -6l205 -162l207 162 q6 6 14 6q4 0 8.5 -2t7.5 -4t7 -6t6 -5q8 -8 8 -11t-8 -11q-94 -99 -193 -193q-12 -14 -31 -14h-51q-19 0 -33 14l-190 193q-6 6 -6 12z" />
<glyph unicode="&#x148;" horiz-adv-x="874" d="M109 12v865q0 14 14 14h55q12 0 12 -14v-95h9q102 119 262 119q83 0 145 -27.5t98 -75.5t53 -106.5t17 -126.5v-551q0 -14 -12 -14h-60q-14 0 -14 12v555q0 114 -60 187t-188 73q-107 0 -176 -74t-69 -182v-557q0 -14 -15 -14h-57q-14 0 -14 12zM164 1273.5q0 2.5 8 10.5 l18 16q10 10 21 0l205 -210l211 204q8 8 10.5 9t13.5 -5l21 -16q10 -10 -2 -25l-193 -235q-13 -16 -31 -16h-51q-17 0 -33 16l-192 240q-6 9 -6 11.5z" />
<glyph unicode="&#x149;" horiz-adv-x="944" d="M14 952l17 285q0 18 18 18h78q13 0 17 -5t1 -19l-71 -283q-3 -18 -19 -18h-26q-18 0 -15 22zM178 12v865q0 14 15 14h55q12 0 12 -14v-95h8q102 119 262 119q83 0 145.5 -27.5t98 -75.5t53 -106.5t17.5 -126.5v-551q0 -14 -13 -14h-59q-14 0 -14 12v555q0 114 -60 187 t-188 73q-107 0 -176.5 -74t-69.5 -182v-557q0 -14 -14 -14h-57q-15 0 -15 12z" />
<glyph unicode="&#x14a;" horiz-adv-x="1017" d="M117 14v1235q0 15 14 15h55q20 0 31 -19l594 -1067h2v1069q0 17 16 17h56q14 0 14 -17v-1444q0 -76 -46.5 -119.5t-129.5 -43.5q-21 0 -31 2q-86 14 -86 32q0 7 2 11l6 30q3 17 15 17q19 0 51 -8.5t43 -8.5q94 0 94 101v155q0 26 -12 47l-33 60q-94 166 -280.5 498.5 t-280.5 498.5h-6v-1061q0 -14 -17 -14h-57q-14 0 -14 14z" />
<glyph unicode="&#x14b;" horiz-adv-x="874" d="M109 12v865q0 14 14 14h55q15 0 15 -14v-97l6 -2q44 60 114 91.5t146 31.5q82 0 144.5 -28t98.5 -76t54 -106.5t18 -125.5v-766q0 -73 -45 -117t-131 -44q-61 0 -104 22q-16 7 -11 23l9 30q6 20 22 15q46 -15 80 -15q94 0 94 99v755q0 111 -64 184.5t-184 73.5 q-107 0 -176 -73.5t-69 -180.5v-557q0 -14 -15 -14h-57q-14 0 -14 12z" />
<glyph unicode="&#x14c;" horiz-adv-x="974" d="M119 338v600q0 148 101 244t265 96q168 0 269.5 -94t101.5 -246v-610q0 -153 -99 -247.5t-270 -94.5q-176 0 -272 98.5t-96 253.5zM207 342q0 -119 70 -199t210 -80q132 0 206.5 73.5t74.5 195.5v602q0 113 -72.5 188.5t-208.5 75.5q-131 0 -205.5 -75.5t-74.5 -188.5 v-592zM268 1409v43q0 14 13 14h370q15 0 15 -14v-43q0 -12 -13 -12h-372q-13 0 -13 12z" />
<glyph unicode="&#x14d;" horiz-adv-x="862" d="M100 315v263q0 146 90 234.5t244 88.5q153 0 241.5 -87.5t88.5 -238.5v-256q0 -156 -87 -242.5t-243 -86.5q-159 0 -246.5 87t-87.5 238zM184 317q0 -119 64.5 -187.5t185.5 -68.5t183.5 68.5t62.5 189.5v254q0 113 -63.5 183.5t-182.5 70.5q-109 0 -179.5 -71.5 t-70.5 -180.5v-258zM246 1071v41q0 14 12 14h371q14 0 14 -14v-41q0 -14 -12 -14h-373q-12 0 -12 14z" />
<glyph unicode="&#x14e;" horiz-adv-x="974" d="M119 338v600q0 148 101 244t265 96q168 0 269.5 -94t101.5 -246v-610q0 -153 -99 -247.5t-270 -94.5q-176 0 -272 98.5t-96 253.5zM207 342q0 -119 70 -199t210 -80q132 0 206.5 73.5t74.5 195.5v602q0 113 -72.5 188.5t-208.5 75.5q-131 0 -205.5 -75.5t-74.5 -188.5 v-592zM246 1544q0 15 12 15h27q6 0 9.5 -3.5t4.5 -7t4 -12.5q12 -66 59 -103.5t109 -37.5q60 0 109 38.5t61 102.5q1 2 1.5 5.5t1 5t1.5 4t2 4t3 2.5t4 1.5t5 0.5h25q14 0 14 -15q-1 -97 -69.5 -160t-159.5 -63q-88 0 -155 63t-68 160z" />
<glyph unicode="&#x14f;" horiz-adv-x="862" d="M100 315v263q0 146 90 234.5t244 88.5q153 0 241.5 -87.5t88.5 -238.5v-256q0 -156 -87 -242.5t-243 -86.5q-159 0 -246.5 87t-87.5 238zM184 317q0 -119 64.5 -187.5t185.5 -68.5t183.5 68.5t62.5 189.5v254q0 113 -63.5 183.5t-182.5 70.5q-109 0 -179.5 -71.5 t-70.5 -180.5v-258zM203 1257q0 13 12 13h25q5 0 8.5 -1t5.5 -5.5t3 -6t3 -8.5q12 -66 59 -103.5t109 -37.5q60 0 109 38t61 103q1 2 1.5 5t1 4.5t1.5 3.5t2 3.5t3 2.5t4 1.5t5 0.5h25q14 0 14 -13q-1 -98 -70 -160.5t-159 -62.5q-88 0 -155 63t-68 160z" />
<glyph unicode="&#x150;" horiz-adv-x="974" d="M119 338v600q0 148 101 244t265 96q168 0 269.5 -94t101.5 -246v-610q0 -153 -99 -247.5t-270 -94.5q-176 0 -272 98.5t-96 253.5zM207 342q0 -119 70 -199t210 -80q132 0 206.5 73.5t74.5 195.5v602q0 113 -72.5 188.5t-208.5 75.5q-131 0 -205.5 -75.5t-74.5 -188.5 v-592zM264 1333q-11 12 4 27l215 192q22 15 39 -2l35 -41q20 -20 -4 -34l-244 -162q-17 -11 -26 2zM528 1333q-11 12 4 27l216 192q21 15 38 -2l35 -41q20 -20 -4 -34l-244 -162q-17 -11 -26 2z" />
<glyph unicode="&#x151;" horiz-adv-x="862" d="M100 315v263q0 146 90 234.5t244 88.5q153 0 241.5 -87.5t88.5 -238.5v-256q0 -156 -87 -242.5t-243 -86.5q-159 0 -246.5 87t-87.5 238zM184 317q0 -119 64.5 -187.5t185.5 -68.5t183.5 68.5t62.5 189.5v254q0 113 -63.5 183.5t-182.5 70.5q-109 0 -179.5 -71.5 t-70.5 -180.5v-258zM301 1042l139 254q12 21 37 9l45 -25q28 -13 13 -35l-179 -233q-12 -16 -26 -8l-23 12q-14 11 -6 26zM500 1042l139 254q12 21 37 9l45 -25q27 -13 12 -35l-178 -233q-12 -16 -27 -8l-22 12q-14 11 -6 26z" />
<glyph unicode="&#x152;" horiz-adv-x="1292" d="M117 307v651q0 145 99 232.5t255 87.5q52 0 117 -14h626q15 0 15 -17v-47q0 -14 -15 -14h-557v-498h463q15 0 15 -16v-47q0 -15 -15 -15h-463v-532h560q14 0 14 -15v-47q0 -16 -14 -16h-631q-58 -14 -113 -14q-160 0 -258 86.5t-98 234.5zM205 311q0 -109 74.5 -178.5 t191.5 -69.5q49 0 98 15v1108q-43 14 -98 14q-116 0 -191 -69.5t-75 -176.5v-643z" />
<glyph unicode="&#x153;" horiz-adv-x="1429" d="M98 313v262q0 148 90.5 237t241.5 89q97 0 173.5 -43t111.5 -119h6q43 75 120.5 118.5t166.5 43.5q147 0 240 -88.5t93 -251.5v-88q0 -18 -8.5 -27.5t-19.5 -9.5h-551v-129q0 -106 70 -176t182 -70q131 0 200 95q11 18 23 18q2 0 10 -4l39 -25q8 -8 8 -16q0 -6 -2 -8 q-97 -131 -280 -131q-98 0 -176 40.5t-115 116.5q-1 0 -2 1.5t-2 1.5q-41 -77 -115 -118.5t-172 -41.5q-158 0 -245 86t-87 237zM182 315q0 -116 68.5 -185t179.5 -69q114 0 180 68.5t66 187.5v256q0 110 -67.5 181t-178.5 71q-108 0 -178 -71t-70 -179v-260zM764 508h491 v70q0 110 -68 179.5t-179 69.5q-104 0 -174 -70.5t-70 -174.5v-74z" />
<glyph unicode="&#x154;" horiz-adv-x="952" d="M125 12v1231q0 8 5.5 13.5t14.5 5.5h371q168 0 258 -92t90 -248q0 -102 -48 -190.5t-132 -151.5q-14 -11 -16 -20t6 -28l237 -509q5 -9 1.5 -16t-15.5 -7h-51q-26 0 -33 20l-248 533h-352v-539q0 -14 -14 -14h-58q-16 0 -16 12zM213 629h373q29 0 55 20q69 52 102 121 t33 141q0 40 -7 76t-26 73.5t-49.5 64.5t-81.5 44t-118 17h-281v-557zM362 1343q-9 15 3 25l223 191q16 13 30 -3l39 -47q18 -18 -4 -30l-252 -156q-15 -7 -26 4z" />
<glyph unicode="&#x155;" horiz-adv-x="520" d="M115 12v865q0 14 14 14h53q13 0 13 -14v-115h4q39 64 104 103.5t137 39.5q37 0 58 -6q16 -5 14 -20l-14 -60q-3 -16 -23 -12q-28 4 -51 4q-105 0 -164 -72t-59 -188v-537q0 -14 -13 -14h-57q-16 0 -16 12zM225 1044l140 254q13 24 36 11l43 -27q15 -9 15 -18q0 -3 -6 -15 l-179 -237q-11 -15 -26 -6l-19 12q-13 8 -4 26z" />
<glyph unicode="&#x156;" horiz-adv-x="952" d="M125 12v1231q0 8 5.5 13.5t14.5 5.5h371q168 0 258 -92t90 -248q0 -102 -48 -190.5t-132 -151.5q-14 -11 -16 -20t6 -28l237 -509q5 -9 1.5 -16t-15.5 -7h-51q-26 0 -33 20l-248 533h-352v-539q0 -14 -14 -14h-58q-16 0 -16 12zM213 629h373q29 0 55 20q69 52 102 121 t33 141q0 40 -7 76t-26 73.5t-49.5 64.5t-81.5 44t-118 17h-281v-557zM375 -397l16 284q0 19 19 19h77q25 0 17 -25l-70 -282q-3 -19 -18 -19h-27q-17 0 -14 23z" />
<glyph unicode="&#x157;" horiz-adv-x="520" d="M98 -397l17 284q0 19 18 19h78q24 0 16 -25l-69 -282q-3 -19 -19 -19h-26q-18 0 -15 23zM115 12v865q0 14 14 14h53q13 0 13 -14v-115h4q39 64 104 103.5t137 39.5q37 0 58 -6q16 -5 14 -20l-14 -60q-3 -16 -23 -12q-28 4 -51 4q-105 0 -164 -72t-59 -188v-537 q0 -14 -13 -14h-57q-16 0 -16 12z" />
<glyph unicode="&#x158;" horiz-adv-x="952" d="M125 12v1231q0 8 5.5 13.5t14.5 5.5h371q168 0 258 -92t90 -248q0 -102 -48 -190.5t-132 -151.5q-14 -11 -16 -20t6 -28l237 -509q5 -9 1.5 -16t-15.5 -7h-51q-26 0 -33 20l-248 533h-352v-539q0 -14 -14 -14h-58q-16 0 -16 12zM166 1538q0 4 6 10q23 17 29 17q8 0 14 -6 l205 -162l207 162q6 6 14 6q4 0 8.5 -2t7.5 -4t7 -6t6 -5q8 -8 8 -11t-8 -11q-94 -99 -193 -193q-12 -14 -31 -14h-51q-19 0 -33 14l-190 193q-6 6 -6 12zM213 629h373q29 0 55 20q69 52 102 121t33 141q0 40 -7 76t-26 73.5t-49.5 64.5t-81.5 44t-118 17h-281v-557z" />
<glyph unicode="&#x159;" horiz-adv-x="520" d="M12 1273.5q0 2.5 8 10.5l19 16q10 10 20 0l205 -210l211 204q14 14 25 4l20 -16q10 -10 -2 -25l-192 -235q-13 -16 -31 -16h-51q-17 0 -33 16l-193 240q-6 9 -6 11.5zM115 12v865q0 14 14 14h53q13 0 13 -14v-115h4q39 64 104 103.5t137 39.5q37 0 58 -6q16 -5 14 -20 l-14 -60q-3 -16 -23 -12q-28 4 -51 4q-105 0 -164 -72t-59 -188v-537q0 -14 -13 -14h-57q-16 0 -16 12z" />
<glyph unicode="&#x15a;" horiz-adv-x="874" d="M63 117q-11 11 5 26l26 27q13 13 29 0q53 -44 129.5 -75.5t144.5 -31.5q141 0 228.5 67t87.5 192q0 61 -19 107.5t-59.5 80t-81.5 55t-107 47.5q-146 57 -201 89q-165 96 -165 251q0 102 50.5 178t128.5 112t169 36q191 0 315 -94q13 -9 2 -27l-24 -37q-11 -16 -29 -2 q-51 37 -121 58.5t-135 21.5q-50 0 -96 -13.5t-85.5 -41.5t-63 -77t-23.5 -114q0 -34 11.5 -64t36 -54.5t48 -42.5t63 -37t64 -29.5t66.5 -26.5q63 -25 104.5 -44.5t91.5 -52.5t79 -68.5t49 -87.5t20 -115q0 -163 -113 -251.5t-289 -88.5q-98 0 -189.5 34t-146.5 93z M317 1343q-9 16 2 25l224 191q17 13 30 -3l39 -47q18 -18 -4 -30l-252 -156q-15 -7 -26 4z" />
<glyph unicode="&#x15b;" horiz-adv-x="696" d="M49 152q-8 12 6 18l45 23q11 6 21 -9q31 -56 94 -90.5t133 -34.5q94 0 152.5 44.5t58.5 117.5q0 40 -15.5 70.5t-47 53.5t-57 35.5t-68.5 29.5q-7 3 -37.5 14t-41 15t-39 16t-41 19t-36 21t-35 25.5t-27.5 29t-23.5 35t-13 39.5t-5.5 46q0 73 41.5 127t103 78.5 t133.5 25.5q82 0 152.5 -26.5t115.5 -75.5q10 -13 -2 -25l-28 -33q-12 -13 -27 2q-40 38 -97 61t-114 23q-43 0 -84.5 -13.5t-75.5 -49.5t-34 -88q0 -26 8.5 -47.5t28.5 -40t35.5 -30.5t48 -26t46 -19.5t48.5 -18.5q36 -14 58 -23t54 -24.5t52 -29t43 -34.5t35.5 -43.5 t21 -52.5t8.5 -64q0 -96 -76.5 -165.5t-220.5 -69.5q-96 0 -177.5 42t-119.5 122zM279 1044l139 254q14 24 37 11l43 -27q14 -8 14 -18q0 -3 -6 -15l-178 -237q-11 -15 -27 -6l-18 12q-13 8 -4 26z" />
<glyph unicode="&#x15c;" horiz-adv-x="874" d="M63 117q-11 11 5 26l26 27q13 13 29 0q53 -44 129.5 -75.5t144.5 -31.5q141 0 228.5 67t87.5 192q0 61 -19 107.5t-59.5 80t-81.5 55t-107 47.5q-146 57 -201 89q-165 96 -165 251q0 102 50.5 178t128.5 112t169 36q191 0 315 -94q13 -9 2 -27l-24 -37q-11 -16 -29 -2 q-51 37 -121 58.5t-135 21.5q-50 0 -96 -13.5t-85.5 -41.5t-63 -77t-23.5 -114q0 -34 11.5 -64t36 -54.5t48 -42.5t63 -37t64 -29.5t66.5 -26.5q63 -25 104.5 -44.5t91.5 -52.5t79 -68.5t49 -87.5t20 -115q0 -163 -113 -251.5t-289 -88.5q-98 0 -189.5 34t-146.5 93z M178 1346q0 6 6 12l191 192q15 15 33 15h51q17 0 30 -15q109 -105 193 -192q8 -8 8 -12t-8 -11q-21 -16 -29 -16t-14 6l-211 162l-201 -162q-6 -6 -14 -6t-29 16q-6 6 -6 11z" />
<glyph unicode="&#x15d;" horiz-adv-x="696" d="M49 152q-8 12 6 18l45 23q11 6 21 -9q31 -56 94 -90.5t133 -34.5q94 0 152.5 44.5t58.5 117.5q0 40 -15.5 70.5t-47 53.5t-57 35.5t-68.5 29.5q-7 3 -37.5 14t-41 15t-39 16t-41 19t-36 21t-35 25.5t-27.5 29t-23.5 35t-13 39.5t-5.5 46q0 73 41.5 127t103 78.5 t133.5 25.5q82 0 152.5 -26.5t115.5 -75.5q10 -13 -2 -25l-28 -33q-12 -13 -27 2q-40 38 -97 61t-114 23q-43 0 -84.5 -13.5t-75.5 -49.5t-34 -88q0 -26 8.5 -47.5t28.5 -40t35.5 -30.5t48 -26t46 -19.5t48.5 -18.5q36 -14 58 -23t54 -24.5t52 -29t43 -34.5t35.5 -43.5 t21 -52.5t8.5 -64q0 -96 -76.5 -165.5t-220.5 -69.5q-96 0 -177.5 42t-119.5 122zM115 1055l192 239q17 17 33 17h51q17 0 31 -17l192 -235q13 -16 0 -27l-16 -14q-10 -10 -27 2l-206 207l-205 -207q-12 -16 -27 -4l-16 14q-12 12 -2 25z" />
<glyph unicode="&#x15e;" horiz-adv-x="874" d="M63 117q-11 11 5 26l26 27q13 13 29 0q53 -44 129.5 -75.5t144.5 -31.5q141 0 228.5 67t87.5 192q0 61 -19 107.5t-59.5 80t-81.5 55t-107 47.5q-146 57 -201 89q-165 96 -165 251q0 102 50.5 178t128.5 112t169 36q191 0 315 -94q13 -9 2 -27l-24 -37q-11 -16 -29 -2 q-51 37 -121 58.5t-135 21.5q-50 0 -96 -13.5t-85.5 -41.5t-63 -77t-23.5 -114q0 -34 11.5 -64t36 -54.5t48 -42.5t63 -37t64 -29.5t66.5 -26.5q63 -25 104.5 -44.5t91.5 -52.5t79 -68.5t49 -87.5t20 -115q0 -147 -92.5 -234.5t-243.5 -101.5l-29 -111h45q73 0 117.5 -37 t44.5 -102q0 -60 -49 -100.5t-129 -40.5q-41 0 -82.5 11.5t-65.5 29.5q-8 8 0 18l17 23q7 10 16 4q58 -35 111 -35q59 0 89 23.5t30 64.5q0 35 -22 61.5t-81 26.5h-67q-37 0 -37 29q0 8 2 12l33 119h-9q-98 0 -189.5 34t-146.5 93z" />
<glyph unicode="&#x15f;" horiz-adv-x="696" d="M49 152q-8 12 6 18l45 23q11 6 21 -9q31 -56 94 -90.5t133 -34.5q94 0 152.5 44.5t58.5 117.5q0 40 -15.5 70.5t-47 53.5t-57 35.5t-68.5 29.5q-7 3 -37.5 14t-41 15t-39 16t-41 19t-36 21t-35 25.5t-27.5 29t-23.5 35t-13 39.5t-5.5 46q0 73 41.5 127t103 78.5 t133.5 25.5q82 0 152.5 -26.5t115.5 -75.5q10 -13 -2 -25l-28 -33q-12 -13 -27 2q-40 38 -97 61t-114 23q-43 0 -84.5 -13.5t-75.5 -49.5t-34 -88q0 -26 8.5 -47.5t28.5 -40t35.5 -30.5t48 -26t46 -19.5t48.5 -18.5q36 -14 58 -23t54 -24.5t52 -29t43 -34.5t35.5 -43.5 t21 -52.5t8.5 -64q0 -90 -67 -157.5t-193 -75.5l-29 -107h45q73 0 117.5 -37t44.5 -102q0 -60 -49 -100.5t-129 -40.5q-40 0 -81.5 11.5t-65.5 29.5q-8 8 0 18l16 23q7 10 16 4q58 -35 111 -35q59 0 89 23.5t30 64.5q0 35 -22 61.5t-81 26.5h-67q-37 0 -37 29q0 8 2 12 l31 117q-89 5 -164.5 47t-110.5 117z" />
<glyph unicode="&#x160;" horiz-adv-x="874" d="M63 117q-11 11 5 26l26 27q13 13 29 0q53 -44 129.5 -75.5t144.5 -31.5q141 0 228.5 67t87.5 192q0 61 -19 107.5t-59.5 80t-81.5 55t-107 47.5q-146 57 -201 89q-165 96 -165 251q0 102 50.5 178t128.5 112t169 36q191 0 315 -94q13 -9 2 -27l-24 -37q-11 -16 -29 -2 q-51 37 -121 58.5t-135 21.5q-50 0 -96 -13.5t-85.5 -41.5t-63 -77t-23.5 -114q0 -34 11.5 -64t36 -54.5t48 -42.5t63 -37t64 -29.5t66.5 -26.5q63 -25 104.5 -44.5t91.5 -52.5t79 -68.5t49 -87.5t20 -115q0 -163 -113 -251.5t-289 -88.5q-98 0 -189.5 34t-146.5 93z M168 1538q0 4 6 10q23 17 29 17q8 0 14 -6l205 -162l207 162q6 6 14 6q4 0 8.5 -2t7.5 -4t7 -6t6 -5q8 -8 8 -11t-8 -11q-94 -99 -193 -193q-12 -14 -30 -14h-52q-18 0 -32 14l-191 193q-6 6 -6 12z" />
<glyph unicode="&#x161;" horiz-adv-x="696" d="M49 152q-8 12 6 18l45 23q11 6 21 -9q31 -56 94 -90.5t133 -34.5q94 0 152.5 44.5t58.5 117.5q0 40 -15.5 70.5t-47 53.5t-57 35.5t-68.5 29.5q-7 3 -37.5 14t-41 15t-39 16t-41 19t-36 21t-35 25.5t-27.5 29t-23.5 35t-13 39.5t-5.5 46q0 73 41.5 127t103 78.5 t133.5 25.5q82 0 152.5 -26.5t115.5 -75.5q10 -13 -2 -25l-28 -33q-12 -13 -27 2q-40 38 -97 61t-114 23q-43 0 -84.5 -13.5t-75.5 -49.5t-34 -88q0 -26 8.5 -47.5t28.5 -40t35.5 -30.5t48 -26t46 -19.5t48.5 -18.5q36 -14 58 -23t54 -24.5t52 -29t43 -34.5t35.5 -43.5 t21 -52.5t8.5 -64q0 -96 -76.5 -165.5t-220.5 -69.5q-96 0 -177.5 42t-119.5 122zM92 1273.5q0 2.5 8 10.5l19 16q10 10 20 0l205 -210l211 204q14 14 25 4l20 -16q10 -10 -2 -25l-192 -235q-13 -16 -31 -16h-51q-17 0 -33 16l-193 240q-6 9 -6 11.5z" />
<glyph unicode="&#x162;" horiz-adv-x="819" d="M25 1200v47q0 17 14 17h741q15 0 15 -15v-49q0 -14 -15 -14h-329v-1172q0 -14 -13 -14l-30 -117h45q73 0 117 -37t44 -102q0 -60 -49 -100.5t-129 -40.5q-40 0 -81.5 11.5t-65.5 29.5q-8 8 0 18l16 23q7 11 17 4q58 -35 110 -35q59 0 89 23.5t30 64.5q0 88 -102 88h-68 q-37 0 -37 29q0 8 2 12l35 129q-19 0 -19 14v1172h-323q-8 0 -11 2.5t-3 11.5z" />
<glyph unicode="&#x163;" horiz-adv-x="569" d="M37 831v46q0 14 12 14h129v225q0 14 15 17l55 14q16 3 16 -14v-242h240q14 0 14 -14v-46q0 -14 -14 -14h-240v-569q0 -96 32 -138t105 -42q79 0 129 16q19 2 23 -14l8 -41q2 -14 -10 -19q-51 -20 -162 -20q-44 0 -82 10l-26 -100h45q73 0 117 -37.5t44 -102.5 q0 -60 -49 -100.5t-129 -40.5q-40 0 -81.5 11.5t-65.5 29.5q-8 8 0 18l16 23q7 11 17 4q58 -35 110 -35q59 0 89 23.5t30 64.5q0 88 -102 88h-68q-37 0 -37 29q0 8 2 12l37 136q-78 55 -78 210v584h-129q-12 0 -12 14z" />
<glyph unicode="&#x164;" horiz-adv-x="819" d="M25 1200v47q0 17 14 17h741q15 0 15 -15v-49q0 -14 -15 -14h-329v-1172q0 -14 -15 -14h-55q-19 0 -19 14v1172h-323q-8 0 -11 2.5t-3 11.5zM154 1538q0 4 6 10q23 17 28 17q9 0 15 -6l205 -162l206 162q6 6 15 6q5 0 10 -2.5t11 -8t7 -6.5q7 -8 7 -11t-7 -11 q-105 -109 -192 -193q-12 -14 -31 -14h-51q-19 0 -33 14l-190 193q-6 6 -6 12z" />
<glyph unicode="&#x165;" horiz-adv-x="645" d="M49 831v46q0 14 12 14h129v225q0 14 15 17l55 14q16 3 16 -14v-242h240q14 0 14 -14v-46q0 -14 -14 -14h-240v-569q0 -95 32.5 -137.5t105.5 -42.5q79 0 129 16q18 2 22 -14l8 -41q2 -14 -10 -19q-51 -20 -162 -20q-62 0 -104.5 18t-65 52.5t-32 76t-9.5 96.5v584h-129 q-12 0 -12 14zM500 1040l16 285q0 18 19 18h77q25 0 17 -24l-70 -283q-3 -18 -18 -18h-27q-17 0 -14 22z" />
<glyph unicode="&#x166;" horiz-adv-x="808" d="M20 1200v47q0 17 15 17h741q15 0 15 -15v-49q0 -14 -15 -14h-330v-412h234q14 0 14 -16v-29q0 -14 -14 -14h-234v-701q0 -14 -14 -14h-55q-19 0 -19 14v701h-229q-14 0 -14 14v29q0 16 14 16h229v412h-323q-15 0 -15 14z" />
<glyph unicode="&#x167;" horiz-adv-x="575" d="M43 616v31q0 17 12 17h138v153h-130q-14 0 -14 14v46q0 14 12 14h132v225q0 14 14 17l55 14q7 1 10.5 -3t3.5 -11v-242h242q12 0 12 -14v-46q0 -14 -12 -14h-242v-153h242q12 0 12 -15v-33q0 -14 -12 -14h-242v-354q0 -96 32.5 -138t107.5 -42q79 0 129 16q18 3 22 -14 l6 -41q2 -9 0 -12.5t-10 -6.5q-49 -20 -162 -20q-117 0 -162.5 64t-45.5 179v369h-136q-14 0 -14 14z" />
<glyph unicode="&#x168;" horiz-adv-x="980" d="M121 326v923q0 15 16 15h58q14 0 14 -15v-919q0 -115 75.5 -191t209.5 -76q130 0 204 75.5t74 189.5v921q0 15 16 15h58q14 0 14 -15v-923q0 -153 -103 -246.5t-265 -93.5q-170 0 -270.5 95t-100.5 245zM246 1421q51 92 143 92q40 0 112 -31.5t105 -31.5q56 0 96 59 q10 13 19 7l35 -17q12 -3 6 -22q-27 -50 -68.5 -72.5t-83.5 -22.5q-44 0 -119 32t-110 32q-23 0 -45.5 -15t-34.5 -38q-10 -17 -25 -9l-28 15q-10 6 -2 22z" />
<glyph unicode="&#x169;" horiz-adv-x="872" d="M104 326v551q0 14 13 14h57q14 0 14 -14v-555q0 -109 64.5 -182.5t183.5 -73.5q108 0 177 73.5t69 179.5v558q0 14 14 14h58q16 0 16 -14v-863q0 -14 -14 -14h-58q-12 0 -12 14v99h-8q-42 -61 -112 -92t-146 -31q-83 0 -145.5 28t-99 76t-54 106.5t-17.5 125.5zM190 1114 q51 92 144 92q40 0 112 -31.5t105 -31.5q56 0 96 59q9 12 19 6l34 -16q14 -3 7 -23q-27 -50 -68 -72t-84 -22q-45 0 -119 32t-110 32q-23 0 -45.5 -15.5t-34.5 -38.5q-9 -16 -25 -8l-28 15q-11 6 -3 22z" />
<glyph unicode="&#x16a;" horiz-adv-x="980" d="M121 326v923q0 15 16 15h58q14 0 14 -15v-919q0 -115 75.5 -191t209.5 -76q130 0 204 75.5t74 189.5v921q0 15 16 15h58q14 0 14 -15v-923q0 -153 -103 -246.5t-265 -93.5q-170 0 -270.5 95t-100.5 245zM293 1409v43q0 14 12 14h371q14 0 14 -14v-43q0 -12 -12 -12h-373 q-12 0 -12 12z" />
<glyph unicode="&#x16b;" horiz-adv-x="872" d="M104 326v551q0 14 13 14h57q14 0 14 -14v-555q0 -109 64.5 -182.5t183.5 -73.5q108 0 177 73.5t69 179.5v558q0 14 14 14h58q16 0 16 -14v-863q0 -14 -14 -14h-58q-12 0 -12 14v99h-8q-42 -61 -112 -92t-146 -31q-83 0 -145.5 28t-99 76t-54 106.5t-17.5 125.5zM248 1102 v41q0 14 12 14h371q14 0 14 -14v-41q0 -15 -12 -15h-373q-12 0 -12 15z" />
<glyph unicode="&#x16c;" horiz-adv-x="980" d="M121 326v923q0 15 16 15h58q14 0 14 -15v-919q0 -115 75.5 -191t209.5 -76q130 0 204 75.5t74 189.5v921q0 15 16 15h58q14 0 14 -15v-923q0 -153 -103 -246.5t-265 -93.5q-170 0 -270.5 95t-100.5 245zM246 1565q0 12 12 12h25q5 0 8.5 -1t5.5 -5.5t3 -6t3 -8.5 q12 -66 59 -103.5t109 -37.5q60 0 109 38t61 103q1 2 1.5 5t1 4.5t1.5 3.5t2 3.5t3 2.5t4 1.5t5 0.5h25q14 0 14 -12q-1 -98 -70 -161t-159 -63q-88 0 -155 63.5t-68 160.5z" />
<glyph unicode="&#x16d;" horiz-adv-x="872" d="M104 326v551q0 14 13 14h57q14 0 14 -14v-555q0 -109 64.5 -182.5t183.5 -73.5q108 0 177 73.5t69 179.5v558q0 14 14 14h58q16 0 16 -14v-863q0 -14 -14 -14h-58q-12 0 -12 14v99h-8q-42 -61 -112 -92t-146 -31q-83 0 -145.5 28t-99 76t-54 106.5t-17.5 125.5zM190 1257 q0 13 13 13h24q7 0 11 -3t5.5 -6.5t4.5 -11.5q12 -66 59 -103.5t109 -37.5q60 0 109 38t61 103q1 2 1.5 5t1 4.5t1.5 3.5t2 3.5t3 2.5t4 1.5t5 0.5h25q14 0 14 -13q-1 -98 -70 -160.5t-159 -62.5q-88 0 -155.5 63t-68.5 160z" />
<glyph unicode="&#x16e;" horiz-adv-x="980" d="M121 326v923q0 15 16 15h58q14 0 14 -15v-919q0 -115 75.5 -191t209.5 -76q130 0 204 75.5t74 189.5v921q0 15 16 15h58q14 0 14 -15v-923q0 -153 -103 -246.5t-265 -93.5q-170 0 -270.5 95t-100.5 245zM340 1483q0 62 40 104.5t101 42.5q60 0 102 -42t42 -103 q0 -60 -42 -103t-102 -43q-61 0 -101 41.5t-40 102.5zM395 1485q0 -38 24.5 -65t61.5 -27q36 0 62 27t26 65q0 37 -26.5 63.5t-61.5 26.5q-36 0 -61 -26.5t-25 -63.5z" />
<glyph unicode="&#x16f;" horiz-adv-x="872" d="M104 326v551q0 14 13 14h57q14 0 14 -14v-555q0 -109 64.5 -182.5t183.5 -73.5q108 0 177 73.5t69 179.5v558q0 14 14 14h58q16 0 16 -14v-863q0 -14 -14 -14h-58q-12 0 -12 14v99h-8q-42 -61 -112 -92t-146 -31q-83 0 -145.5 28t-99 76t-54 106.5t-17.5 125.5zM291 1151 q0 62 40 104.5t101 42.5q60 0 101.5 -42t41.5 -103q0 -60 -41.5 -102.5t-101.5 -42.5q-61 0 -101 41t-40 102zM346 1153q0 -38 24.5 -65t61.5 -27q36 0 62 27t26 65q0 37 -26.5 63.5t-61.5 26.5q-36 0 -61 -26.5t-25 -63.5z" />
<glyph unicode="&#x170;" horiz-adv-x="980" d="M121 326v923q0 15 16 15h58q14 0 14 -15v-919q0 -115 75.5 -191t209.5 -76q130 0 204 75.5t74 189.5v921q0 15 16 15h58q14 0 14 -15v-923q0 -153 -103 -246.5t-265 -93.5q-170 0 -270.5 95t-100.5 245zM272 1333q-11 12 4 27l216 192q21 15 38 -2l35 -41q20 -20 -4 -34 l-244 -162q-17 -11 -26 2zM537 1333q-11 12 4 27l215 192q22 15 39 -2l34 -41q20 -20 -4 -34l-243 -162q-17 -12 -27 2z" />
<glyph unicode="&#x171;" horiz-adv-x="872" d="M104 326v551q0 14 13 14h57q14 0 14 -14v-555q0 -109 64.5 -182.5t183.5 -73.5q108 0 177 73.5t69 179.5v558q0 14 14 14h58q16 0 16 -14v-863q0 -14 -14 -14h-58q-12 0 -12 14v99h-8q-42 -61 -112 -92t-146 -31q-83 0 -145.5 28t-99 76t-54 106.5t-17.5 125.5zM303 1042 l139 254q12 21 37 9l45 -25q28 -13 13 -35l-179 -233q-12 -16 -26 -8l-23 12q-14 11 -6 26zM502 1042l139 254q12 21 37 9l45 -25q27 -13 12 -35l-178 -233q-12 -16 -27 -8l-22 12q-14 11 -6 26z" />
<glyph unicode="&#x172;" horiz-adv-x="980" d="M121 326v923q0 15 16 15h58q14 0 14 -15v-919q0 -115 75.5 -191t209.5 -76q130 0 204 75.5t74 189.5v921q0 15 16 15h58q14 0 14 -15v-923q0 -148 -96 -240t-250 -100q-108 -115 -108 -226q0 -75 88 -75q60 0 122 47q8 8 17 -2l18 -23q6 -6 -4 -16q-32 -29 -80.5 -48.5 t-91.5 -19.5q-143 0 -143 141q0 54 31 117.5t75 106.5q-147 15 -232 107.5t-85 230.5z" />
<glyph unicode="&#x173;" horiz-adv-x="872" d="M104 326v551q0 14 13 14h57q14 0 14 -14v-555q0 -109 64.5 -182.5t183.5 -73.5q108 0 177 73.5t69 179.5v558q0 14 14 14h58q16 0 16 -14v-863q0 -14 -14 -14h-25q-113 -120 -113 -231q0 -76 89 -76q60 0 122 47q7 8 17 -2l18 -23q6 -6 -4 -16q-32 -29 -80.5 -48.5 t-91.5 -19.5q-71 0 -107 36.5t-36 105.5q0 57 35.5 124.5t83.5 108.5l22 19v88h-8q-42 -61 -112 -92t-146 -31q-83 0 -145.5 28t-99 76t-54 106.5t-17.5 125.5z" />
<glyph unicode="&#x174;" horiz-adv-x="1304" d="M6 1245q-5 19 14 19h62q13 0 16 -17l170 -780l72 -340h8l72 336l174 788q4 13 20 13h64q15 0 18 -19q1 -6 92 -385t99 -422l69 -311h9l65 319l166 803q2 15 18 15h62q19 0 12 -23l-268 -1229q-6 -12 -19 -12h-86q-11 0 -14 12l-188 803l-66 291h-4q-57 -256 -63 -297 l-179 -797q-2 -12 -18 -12h-84q-9 0 -16 10zM387 1346q0 6 6 12l191 192q15 15 32 15h52q18 0 30 -15q109 -105 193 -192q7 -8 7 -12t-7 -11q-21 -16 -29 -16t-14 6l-211 162l-201 -162q-6 -6 -14 -6t-29 16q-6 6 -6 11z" />
<glyph unicode="&#x175;" horiz-adv-x="1155" d="M20 872q-6 19 13 19h53q20 0 25 -21l116 -462l72 -291h4l84 280l141 471q3 13 7.5 18t17.5 5h45q11 0 16 -4t9 -17l151 -495l78 -254h4l64 248l122 501q6 21 27 21h49q15 0 12 -17l-227 -856q-5 -18 -20 -18h-49h-11.5t-7 2t-5 5t-3.5 9l-156 502l-76 254h-4l-73 -262 l-152 -494q-5 -16 -22 -16h-50q-13 0 -18 3t-8 13zM322 1055l192 239q17 17 33 17h51q17 0 31 -17l192 -235q13 -16 0 -27l-16 -14q-10 -10 -27 2l-207 207l-204 -207q-12 -16 -27 -4l-16 14q-12 12 -2 25z" />
<glyph unicode="&#x176;" horiz-adv-x="825" d="M29 1243q-11 21 12 21h57q15 0 25 -17l287 -653h6q9 23 141 321t145 332q11 17 27 17h57q24 0 11 -23l-330 -725q-10 -23 -10 -49v-453q0 -14 -15 -14h-57q-16 0 -16 14v443q0 31 -9 51zM160 1346q0 6 6 12l190 192q15 15 33 15h51q18 0 31 -15q109 -105 193 -192 q8 -8 8 -12t-8 -11q-21 -16 -29 -16t-14 6l-211 162l-201 -162q-6 -6 -14 -6t-29 16q-6 6 -6 11z" />
<glyph unicode="&#x177;" horiz-adv-x="739" d="M16 872q-4 19 15 19h51q16 0 24 -17q22 -71 73 -242.5t92 -303.5t81 -256h6q44 129 134.5 400t134.5 400q5 19 22 19h49q20 0 17 -19l-412 -1224q-4 -23 -31 -23h-41q-21 0 -14 25l115 350h-23q-19 0 -24 18zM113 1055l192 239q17 17 33 17h51q17 0 31 -17l192 -235 q13 -16 0 -27l-16 -14q-10 -10 -27 2l-207 207l-204 -207q-12 -16 -27 -4l-16 14q-12 12 -2 25z" />
<glyph unicode="&#x178;" horiz-adv-x="825" d="M29 1243q-11 21 12 21h57q15 0 25 -17l287 -653h6q9 23 141 321t145 332q11 17 27 17h57q24 0 11 -23l-330 -725q-10 -23 -10 -49v-453q0 -14 -15 -14h-57q-16 0 -16 14v443q0 31 -9 51zM180 1442q0 26 17.5 43.5t42.5 17.5t42 -17.5t17 -43.5t-17 -44t-42 -18t-42.5 18 t-17.5 44zM496 1442q0 26 17 43.5t42 17.5t42 -17.5t17 -43.5t-17 -44t-42 -18t-42 18t-17 44z" />
<glyph unicode="&#x179;" horiz-adv-x="804" d="M37 18v33q0 19 8 39l617 1096h-578q-18 0 -18 16v45q0 17 16 17h657q23 0 23 -21v-31q0 -23 -12 -43l-611 -1089h615q16 0 16 -17v-47q0 -16 -14 -16h-699q-20 0 -20 18zM287 1343q-9 16 2 25l223 191q17 14 31 -3l39 -47q18 -18 -4 -30l-252 -156q-15 -8 -27 4z" />
<glyph unicode="&#x17a;" horiz-adv-x="692" d="M49 18v29q0 22 8 33l471 737h-446q-16 0 -16 14v43q0 17 14 17h530q21 0 21 -21v-30q0 -24 -6 -33l-471 -733h487q16 0 16 -15v-45q0 -14 -14 -14h-575q-19 0 -19 18zM299 1044l139 254q14 24 37 11l43 -27q14 -8 14 -18q0 -3 -6 -15l-178 -237q-11 -15 -26 -6l-19 12 q-13 8 -4 26z" />
<glyph unicode="&#x17b;" horiz-adv-x="804" d="M37 18v33q0 19 8 39l617 1096h-578q-18 0 -18 16v45q0 17 16 17h657q23 0 23 -21v-31q0 -23 -12 -43l-611 -1089h615q16 0 16 -17v-47q0 -16 -14 -16h-699q-20 0 -20 18zM350 1462q0 26 17.5 44t42.5 18t42 -17t17 -43t-17.5 -43.5t-41.5 -17.5q-25 0 -42.5 17t-17.5 42z " />
<glyph unicode="&#x17c;" horiz-adv-x="692" d="M49 18v29q0 22 8 33l471 737h-446q-16 0 -16 14v43q0 17 14 17h530q21 0 21 -21v-30q0 -24 -6 -33l-471 -733h487q16 0 16 -15v-45q0 -14 -14 -14h-575q-19 0 -19 18zM307 1153q0 26 17.5 43.5t42.5 17.5t42 -16.5t17 -42.5t-17.5 -43.5t-41.5 -17.5q-25 0 -42.5 17 t-17.5 42z" />
<glyph unicode="&#x17d;" horiz-adv-x="804" d="M37 18v33q0 19 8 39l617 1096h-578q-18 0 -18 16v45q0 17 16 17h657q23 0 23 -21v-31q0 -23 -12 -43l-611 -1089h615q16 0 16 -17v-47q0 -16 -14 -16h-699q-20 0 -20 18zM152 1538q0 4 6 10q23 17 28 17q9 0 15 -6l205 -162l206 162q6 6 15 6q5 0 10 -2.5t11 -8t7 -6.5 q7 -8 7 -11t-7 -11q-105 -109 -192 -193q-12 -14 -31 -14h-51q-19 0 -33 14l-190 193q-6 6 -6 12z" />
<glyph unicode="&#x17e;" horiz-adv-x="692" d="M49 18v29q0 22 8 33l471 737h-446q-16 0 -16 14v43q0 17 14 17h530q21 0 21 -21v-30q0 -24 -6 -33l-471 -733h487q16 0 16 -15v-45q0 -14 -14 -14h-575q-19 0 -19 18zM92 1273.5q0 2.5 8 10.5l19 16q10 10 20 0l205 -210l211 204q14 14 25 4l20 -16q10 -10 -2 -25 l-192 -235q-13 -16 -31 -16h-51q-17 0 -33 16l-193 240q-6 9 -6 11.5z" />
<glyph unicode="&#x192;" horiz-adv-x="911" d="M25 -168l18 51q6 16 25 8q40 -16 86 -16q87 0 127 57t59 177l90 557h-174q-18 0 -18 14v43q3 16 18 16h184l37 226q50 311 281 311q77 0 133 -19q22 -6 14 -20l-18 -51q-6 -15 -23 -8q-40 18 -98 18q-166 0 -205 -254l-33 -203h201q19 0 19 -16v-43q0 -14 -17 -14h-215 l-82 -547q-50 -330 -270 -330q-62 0 -125 23q-19 6 -14 20z" />
<glyph unicode="&#x1fc;" horiz-adv-x="1339" d="M36.5 5.5q-1.5 5.5 2.5 14.5l432 1227q2 5 9.5 11t17.5 6h764q7 0 11.5 -5.5t4.5 -11.5v-47q0 -14 -14 -14h-553v-498h463q14 0 14 -16v-47q0 -15 -14 -15h-463v-532h559q14 0 14 -15v-49q0 -14 -14 -14h-633q-14 0 -14 14v312h-387l-109 -310q-5 -16 -21 -16h-57 q-11 0 -12.5 5.5zM262 403h361v783h-91zM799 1343q-9 16 2 25l223 191q17 14 31 -3l39 -47q18 -18 -4 -30l-252 -156q-15 -8 -27 4z" />
<glyph unicode="&#x1fd;" horiz-adv-x="1343" d="M55 287q0 129 87 215t220 86q66 0 127.5 -28.5t102.5 -80.5q4 0 6 2v121q0 97 -62.5 161t-181.5 64q-117 0 -194 -45q-13 -8 -21 9l-16 40q-4 17 8 21q101 49 229 49q105 0 179 -39.5t108 -113.5l2 4q41 65 120.5 107t160.5 42q148 0 241 -88.5t93 -251.5v-88 q0 -18 -8.5 -27.5t-20.5 -9.5h-551v-123q0 -109 69 -180.5t181 -71.5q70 0 126 26.5t89 72.5q13 19 29 8l32 -23q14 -11 9 -24q-42 -65 -116.5 -98t-168.5 -33q-103 0 -181.5 45t-115.5 125h-4q-38 -82 -111 -126t-164 -44q-140 0 -221.5 80.5t-81.5 216.5zM133 289 q0 -101 58.5 -166.5t168.5 -65.5q97 0 164.5 69t67.5 163q0 96 -67 163.5t-163 67.5q-95 0 -162 -68t-67 -163zM657 1044l140 254q14 24 37 11l43 -27q14 -8 14 -18q0 -3 -6 -15l-178 -237q-11 -15 -27 -6l-18 12q-14 9 -5 26zM686 508h494v70q0 110 -69 179.5t-181 69.5 q-104 0 -174 -70.5t-70 -174.5v-74z" />
<glyph unicode="&#x1fe;" horiz-adv-x="974" d="M119 338v600q0 148 101 244t265 96q160 0 267 -92q28 58 47 86q6 11 20 4l33 -16q12 -6 6 -19l-59 -111q57 -82 57 -192v-610q0 -153 -99 -247.5t-270 -94.5q-158 0 -256 82l-38 -74q-6 -10 -15 -6l-37 20q-9 6 -4 17l49 92q-67 88 -67 221zM207 342q0 -76 26 -135 l476 901q-76 90 -222 90q-131 0 -205.5 -75.5t-74.5 -188.5v-592zM274 145q75 -82 213 -82q132 0 206.5 73.5t74.5 195.5v602q0 54 -18 104zM416 1343q-9 16 2 25l223 191q17 14 31 -3l39 -47q18 -18 -4 -30l-252 -156q-15 -8 -27 4z" />
<glyph unicode="&#x1ff;" horiz-adv-x="847" d="M100 315v263q0 146 90 234.5t244 88.5q135 0 221 -70l45 64q2 5 8.5 6.5t12.5 -2.5l35 -22q10 -10 2 -21l-53 -78q59 -85 59 -203v-256q0 -156 -87 -242.5t-243 -86.5q-143 0 -227 69l-39 -55q-6 -12 -18 -6l-39 25q-10 6 -2 18l49 70q-58 79 -58 204zM184 317 q0 -73 25 -131l401 578q-66 63 -176 63q-109 0 -179.5 -71.5t-70.5 -180.5v-258zM252 125q67 -64 182 -64q121 0 183.5 68.5t62.5 189.5v254q0 73 -27 132zM403 1044l140 254q14 24 37 11l43 -27q14 -8 14 -18q0 -3 -6 -15l-178 -237q-11 -15 -27 -6l-18 12q-14 9 -5 26z " />
<glyph unicode="&#x218;" horiz-adv-x="874" d="M63 117q-11 11 5 26l26 27q13 13 29 0q53 -44 129.5 -75.5t144.5 -31.5q141 0 228.5 67t87.5 192q0 61 -19 107.5t-59.5 80t-81.5 55t-107 47.5q-146 57 -201 89q-165 96 -165 251q0 102 50.5 178t128.5 112t169 36q191 0 315 -94q13 -9 2 -27l-24 -37q-11 -16 -29 -2 q-51 37 -121 58.5t-135 21.5q-50 0 -96 -13.5t-85.5 -41.5t-63 -77t-23.5 -114q0 -34 11.5 -64t36 -54.5t48 -42.5t63 -37t64 -29.5t66.5 -26.5q63 -25 104.5 -44.5t91.5 -52.5t79 -68.5t49 -87.5t20 -115q0 -163 -113 -251.5t-289 -88.5q-98 0 -189.5 34t-146.5 93z M369 -397l16 284q0 19 18 19h78q25 0 17 -25l-70 -282q-3 -19 -18 -19h-27q-17 0 -14 23z" />
<glyph unicode="&#x219;" horiz-adv-x="696" d="M49 152q-8 12 6 18l45 23q11 6 21 -9q31 -56 94 -90.5t133 -34.5q94 0 152.5 44.5t58.5 117.5q0 40 -15.5 70.5t-47 53.5t-57 35.5t-68.5 29.5q-7 3 -37.5 14t-41 15t-39 16t-41 19t-36 21t-35 25.5t-27.5 29t-23.5 35t-13 39.5t-5.5 46q0 73 41.5 127t103 78.5 t133.5 25.5q82 0 152.5 -26.5t115.5 -75.5q10 -13 -2 -25l-28 -33q-12 -13 -27 2q-40 38 -97 61t-114 23q-43 0 -84.5 -13.5t-75.5 -49.5t-34 -88q0 -26 8.5 -47.5t28.5 -40t35.5 -30.5t48 -26t46 -19.5t48.5 -18.5q36 -14 58 -23t54 -24.5t52 -29t43 -34.5t35.5 -43.5 t21 -52.5t8.5 -64q0 -96 -76.5 -165.5t-220.5 -69.5q-96 0 -177.5 42t-119.5 122zM291 -397l16 284q0 19 19 19h77q25 0 17 -25l-70 -282q-3 -19 -18 -19h-27q-17 0 -14 23z" />
<glyph unicode="&#x21a;" horiz-adv-x="819" d="M25 1200v47q0 17 14 17h741q15 0 15 -15v-49q0 -14 -15 -14h-329v-1172q0 -14 -15 -14h-55q-19 0 -19 14v1172h-323q-8 0 -11 2.5t-3 11.5zM330 -397l16 284q0 19 19 19h77q25 0 17 -25l-70 -282q-3 -19 -18 -19h-27q-17 0 -14 23z" />
<glyph unicode="&#x21b;" horiz-adv-x="569" d="M37 831v46q0 14 12 14h129v225q0 14 15 17l55 14q16 3 16 -14v-242h240q14 0 14 -14v-46q0 -14 -14 -14h-240v-569q0 -96 32 -138t105 -42q79 0 129 16q19 2 23 -14l8 -41q2 -14 -10 -19q-51 -20 -162 -20q-62 0 -104.5 18t-65 52.5t-32 76t-9.5 96.5v584h-129 q-12 0 -12 14zM201 -397l16 284q0 19 19 19h77q25 0 17 -25l-70 -282q-3 -19 -18 -19h-27q-17 0 -14 23z" />
<glyph unicode="&#x259;" horiz-adv-x="835" d="M86 330v88q0 17 8.5 26t20.5 9h551v125q0 111 -64 181t-186 70q-130 0 -213 -100q-12 -15 -27 -6l-33 22q-16 8 -8 23q91 133 283 133q154 0 243 -87t89 -234v-258q0 -151 -94 -241.5t-236 -90.5q-149 0 -241.5 88t-92.5 252zM172 311q0 -109 67 -178.5t181 -69.5 q105 0 175.5 69t70.5 177v72h-494v-70z" />
<glyph unicode="&#x2b9;" horiz-adv-x="387" d="M61 856l203 426q5 12 15.5 17t21.5 -1q23 -10 55 -28q28 -14 13 -41l-246 -410q-13 -18 -29 -10l-28 14q-15 9 -5 33z" />
<glyph unicode="&#x2c6;" horiz-adv-x="860" d="M190 1055l193 239q17 17 33 17h51q17 0 31 -17l192 -235q13 -16 0 -27l-16 -14q-10 -10 -27 2l-207 207l-204 -207q-12 -16 -27 -4l-16 14q-13 13 -3 25z" />
<glyph unicode="&#x2c7;" horiz-adv-x="782" d="M164 1273.5q0 2.5 8 10.5l18 16q10 10 21 0l205 -210l211 204q8 8 10.5 9t13.5 -5l21 -16q10 -10 -2 -25l-193 -235q-13 -16 -31 -16h-51q-17 0 -33 16l-192 240q-6 9 -6 11.5z" />
<glyph unicode="&#x2d8;" horiz-adv-x="782" d="M180 1257q0 13 13 13h24q7 0 11 -3t5.5 -6.5t4.5 -11.5q12 -66 59 -103.5t109 -37.5q60 0 108.5 38t60.5 103q0 1 1.5 4.5t2 5t1.5 4t2 3t3 2t4 2t5 0.5h24q15 0 15 -13q-1 -98 -70.5 -160.5t-159.5 -62.5q-88 0 -155 63t-68 160z" />
<glyph unicode="&#x2d9;" horiz-adv-x="782" d="M358 1153q0 26 17.5 43.5t42.5 17.5t42 -16.5t17 -42.5t-17.5 -43.5t-41.5 -17.5q-25 0 -42.5 17t-17.5 42z" />
<glyph unicode="&#x2da;" horiz-adv-x="782" d="M272 1151q0 62 40.5 104.5t101.5 42.5q60 0 101.5 -42t41.5 -103q0 -60 -41.5 -102.5t-101.5 -42.5q-61 0 -101.5 41.5t-40.5 101.5zM328 1153q0 -38 24.5 -65t61.5 -27q36 0 62 27t26 65q0 37 -26.5 63.5t-61.5 26.5q-36 0 -61 -26.5t-25 -63.5z" />
<glyph unicode="&#x2db;" horiz-adv-x="872" d="M279 -227q0 57 35 124.5t83 108.5q27 27 49 27h35q11 0 11 -6q-1 -2 -3 -4q-63 -58 -100 -126t-37 -128q0 -76 88 -76q61 0 123 47q7 8 17 -2l18 -23q6 -6 -4 -16q-32 -29 -80.5 -48.5t-91.5 -19.5q-71 0 -107 36.5t-36 105.5z" />
<glyph unicode="&#x2dc;" horiz-adv-x="786" d="M152 1114q51 92 143 92q40 0 112 -31.5t105 -31.5q56 0 96 59q9 12 19 6l35 -16q13 -3 6 -23q-27 -50 -68 -72t-84 -22q-44 0 -119 32t-110 32q-23 0 -45.5 -15.5t-34.5 -38.5q-9 -16 -25 -8l-28 15q-10 6 -2 22z" />
<glyph unicode="&#x2dd;" horiz-adv-x="862" d="M301 1042l139 254q12 21 37 9l45 -25q28 -13 13 -35l-179 -233q-12 -16 -26 -8l-23 12q-14 11 -6 26zM500 1042l139 254q12 21 37 9l45 -25q27 -13 12 -35l-178 -233q-12 -16 -27 -8l-22 12q-14 11 -6 26z" />
<glyph unicode="&#x384;" horiz-adv-x="823" d="M408 1044l139 254q12 21 37 9l45 -25q27 -13 12 -35l-178 -233q-12 -16 -27 -8l-22 12q-14 11 -6 26z" />
<glyph unicode="&#x385;" horiz-adv-x="868" d="M233 1147q0 26 17.5 43.5t42.5 17.5t42 -17.5t17 -43.5q0 -25 -17.5 -43.5t-41.5 -18.5q-25 0 -42.5 18.5t-17.5 43.5zM352 1042l140 254q12 21 36 9l45 -25q28 -13 13 -35l-178 -233q-12 -16 -27 -8l-23 12q-14 11 -6 26zM580 1147q0 26 17 43.5t42 17.5t42 -17.5 t17 -43.5q0 -25 -17.5 -43.5t-41.5 -18.5t-41.5 18.5t-17.5 43.5z" />
<glyph unicode="&#x386;" horiz-adv-x="911" d="M-64 993q1 1 1 2l139 254q12 21 37 8l45 -24q27 -13 12 -35l-178 -233q-13 -17 -27 -9l-22 13q-15 9 -7 24zM27 16l358 1231q4 17 18 17h95q14 0 20 -15l361 -1229q4 -6 0.5 -13t-11.5 -7h-59q-17 0 -21 12l-92 307h-491l-88 -307q-3 -12 -19 -12h-57q-21 0 -14 16z M227 395h453q-40 133 -148 502l-79 277h-4q-44 -154 -78 -281z" />
<glyph unicode="&#x387;" horiz-adv-x="337" d="M98 702q0 28 20 48t48 20q32 0 53 -20t21 -48q0 -30 -21 -50.5t-53 -20.5q-28 0 -48 21t-20 50z" />
<glyph unicode="&#x388;" horiz-adv-x="878" d="M-218 995q1 1 1 2l139 254q12 21 37 9l45 -25q27 -13 12 -35l-178 -233q-13 -17 -26 -9l-23 13q-15 9 -7 24zM125 16v1231q0 17 16 17h635q15 0 15 -17v-47q0 -14 -15 -14h-563v-494h492q14 0 14 -16v-47q0 -15 -14 -15h-492v-536h588q16 0 16 -15v-47q0 -16 -16 -16 h-660q-16 0 -16 16z" />
<glyph unicode="&#x389;" horiz-adv-x="1021" d="M-185 993q1 1 1 2l139 254q12 21 37 8l45 -24q27 -13 12 -35l-178 -233q-13 -17 -27 -9l-22 13q-15 9 -7 24zM125 14v1235q0 15 16 15h58q14 0 14 -15v-559h596v559q0 15 16 15h58q16 0 16 -15v-1235q0 -14 -14 -14h-60q-16 0 -16 14v598h-596v-598q0 -14 -14 -14h-58 q-16 0 -16 14z" />
<glyph unicode="&#x38a;" horiz-adv-x="411" d="M-193 995l140 254q12 21 37 8l45 -24q27 -13 12 -35l-178 -233q-13 -17 -27 -9l-22 13q-15 10 -7 26zM160 14v1235q0 15 16 15h57q17 0 17 -15v-1235q0 -14 -17 -14h-57q-16 0 -16 14z" />
<glyph unicode="&#x38c;" horiz-adv-x="974" d="M-189 993q1 1 1 2l139 254q12 21 37 8l45 -24q27 -13 12 -35l-178 -233q-13 -17 -27 -9l-22 13q-15 9 -7 24zM119 338v600q0 148 101 244t265 96q168 0 269.5 -94t101.5 -246v-610q0 -153 -99 -247.5t-270 -94.5q-176 0 -272 98.5t-96 253.5zM207 342q0 -119 70 -199 t210 -80q132 0 206.5 73.5t74.5 195.5v602q0 113 -72.5 188.5t-208.5 75.5q-131 0 -205.5 -75.5t-74.5 -188.5v-592z" />
<glyph unicode="&#x38e;" horiz-adv-x="825" d="M-294 993q1 1 1 2l139 254q12 21 37 8l45 -24q28 -13 13 -35l-179 -233q-13 -17 -26 -9l-23 13q-15 9 -7 24zM29 1243q-11 21 12 21h57q15 0 25 -17l287 -653h6q9 23 141 321t145 332q11 17 27 17h57q24 0 11 -23l-330 -725q-10 -23 -10 -49v-453q0 -14 -15 -14h-57 q-16 0 -16 14v443q0 31 -9 51z" />
<glyph unicode="&#x38f;" horiz-adv-x="1021" d="M-169 993q1 1 1 2l139 254q12 21 37 8l45 -24q28 -13 13 -35l-179 -233q-13 -17 -26 -9l-23 13q-15 9 -7 24zM100 14v47q0 17 17 17h137q0 1 1 3t1 3q-122 64 -125 231v621q0 149 105 245.5t274 96.5q174 0 276.5 -94t102.5 -246v-545q0 -116 -27.5 -189t-99.5 -120l4 -6 h135q17 0 17 -15v-49q0 -14 -15 -14h-268q-17 0 -17 14v60q0 11 4 16.5t17 9.5q162 54 162 236v600q0 110 -76 187t-215 77q-138 0 -214.5 -74.5t-76.5 -189.5v-600q0 -179 160 -236q13 -4 16.5 -9t3.5 -17v-60q0 -9 -3 -11.5t-13 -2.5h-268q-15 0 -15 14z" />
<glyph unicode="&#x390;" horiz-adv-x="370" d="M-35 1147q0 26 17.5 43.5t42.5 17.5t42 -17.5t17 -43.5q0 -25 -17.5 -43.5t-41.5 -18.5q-25 0 -42.5 18.5t-17.5 43.5zM84 1042l139 254q12 21 37 9l45 -25q27 -13 12 -35l-178 -233q-12 -16 -26 -8l-23 12q-14 11 -6 26zM141 12v865q0 14 15 14h59q14 0 14 -14v-863 q0 -14 -14 -14h-57q-17 0 -17 12zM311 1147q0 26 17.5 43.5t42.5 17.5t42 -17.5t17 -43.5q0 -25 -17.5 -43.5t-41.5 -18.5q-25 0 -42.5 18.5t-17.5 43.5z" />
<glyph unicode="&#x391;" horiz-adv-x="911" d="M27 16l358 1231q4 17 18 17h95q14 0 20 -15l361 -1229q4 -6 0.5 -13t-11.5 -7h-59q-17 0 -21 12l-92 307h-491l-88 -307q-3 -12 -19 -12h-57q-21 0 -14 16zM227 395h453q-40 133 -148 502l-79 277h-4q-44 -154 -78 -281z" />
<glyph unicode="&#x392;" horiz-adv-x="966" d="M125 16v1231q0 17 14 17h377q150 0 239 -81t89 -231q0 -53 -17 -104t-57.5 -97t-97.5 -67v-4q102 -32 154.5 -123.5t52.5 -200.5q0 -159 -92 -257.5t-248 -98.5h-400q-14 0 -14 16zM213 80h324q117 0 185.5 77t68.5 195q0 127 -74 207t-199 80h-305v-559zM213 717h305 q107 0 172.5 64.5t65.5 170.5t-63.5 170t-176.5 64h-303v-469z" />
<glyph unicode="&#x393;" horiz-adv-x="825" d="M141 14v1233q0 17 17 17h639q16 0 16 -15v-49q0 -14 -16 -14h-568v-1172q0 -14 -14 -14h-57q-17 0 -17 14z" />
<glyph unicode="&#x395;" horiz-adv-x="878" d="M125 16v1231q0 17 16 17h635q15 0 15 -17v-47q0 -14 -15 -14h-563v-494h492q14 0 14 -16v-47q0 -15 -14 -15h-492v-536h588q16 0 16 -15v-47q0 -16 -16 -16h-660q-16 0 -16 16z" />
<glyph unicode="&#x396;" horiz-adv-x="804" d="M37 18v33q0 19 8 39l617 1096h-578q-18 0 -18 16v45q0 17 16 17h657q23 0 23 -21v-31q0 -23 -12 -43l-611 -1089h615q16 0 16 -17v-47q0 -16 -14 -16h-699q-20 0 -20 18z" />
<glyph unicode="&#x397;" horiz-adv-x="1021" d="M125 14v1235q0 15 16 15h58q14 0 14 -15v-559h596v559q0 15 16 15h58q16 0 16 -15v-1235q0 -14 -14 -14h-60q-16 0 -16 14v598h-596v-598q0 -14 -14 -14h-58q-16 0 -16 14z" />
<glyph unicode="&#x398;" horiz-adv-x="983" d="M109 317v627q0 148 104 241t276 93q179 0 282 -91t103 -243v-627q0 -151 -102.5 -240t-279.5 -89q-175 0 -279 90t-104 239zM199 322q0 -112 79.5 -186.5t213.5 -74.5q133 0 213.5 70.5t80.5 190.5v618q0 111 -78.5 185.5t-215.5 74.5q-131 0 -212 -69.5t-81 -190.5v-618 zM272 618v50q0 14 11 14h422q12 0 12 -14v-50q0 -12 -10 -12h-424q-11 0 -11 12z" />
<glyph unicode="&#x399;" horiz-adv-x="411" d="M160 14v1235q0 15 16 15h57q17 0 17 -15v-1235q0 -14 -17 -14h-57q-16 0 -16 14z" />
<glyph unicode="&#x39a;" horiz-adv-x="962" d="M125 14v1231q0 19 16 19h60q12 0 12 -17v-614l6 -2l545 618q13 13 24 13h64q11 0 13 -6.5t-5 -12.5l-450 -516l6 -6q55 14 119 14q299 0 323 -329l29 -392q0 -14 -15 -14h-53q-13 0 -16 16l-27 365q-2 42 -7.5 74.5t-22.5 73.5t-45 68t-78.5 46t-118.5 19q-80 0 -139 -25 t-91 -67.5t-46.5 -90t-14.5 -100.5v-363q0 -16 -12 -16h-60q-16 0 -16 14z" />
<glyph unicode="&#x39b;" horiz-adv-x="913" d="M25 20q289 963 370 1229q4 15 17 15h82q14 0 20 -13l371 -1228q8 -23 -15 -23h-59q-10 0 -13.5 2t-6.5 12q-239 812 -252 854q-77 263 -86 291h-2l-91 -321l-239 -824q-3 -14 -19 -14h-63q-20 0 -14 20z" />
<glyph unicode="&#x39c;" horiz-adv-x="1234" d="M115 14v1223q0 27 24 27h47q24 0 29 -19q65 -170 199.5 -533t206.5 -550h6q79 201 217 577t188 508q10 17 29 17h47q25 0 25 -27v-1223q0 -14 -15 -14h-55q-16 0 -16 14v1020h-7l-166 -438q-11 -30 -87 -227t-115 -301q-6 -19 -27 -19h-45q-20 0 -27 17l-200 522 q-3 9 -166 444h-6v-1018q0 -14 -15 -14h-57q-14 0 -14 14z" />
<glyph unicode="&#x39d;" horiz-adv-x="1017" d="M117 14v1223q0 27 24 27h45q20 0 31 -19l592 -1073h4v1075q0 17 16 17h56q14 0 14 -17v-1224q0 -11 -6.5 -17t-15.5 -6h-48q-20 0 -28 16q-354 635 -592 1067h-4v-1069q0 -14 -17 -14h-57q-14 0 -14 14z" />
<glyph unicode="&#x39e;" horiz-adv-x="905" d="M66 16v47q0 15 16 15h326v532h-240q-14 0 -14 15v47q0 16 14 16h240v498h-318q-16 0 -16 14v47q0 17 16 17h725q16 0 16 -17v-47q0 -14 -16 -14h-323v-498h245q15 0 15 -16v-47q0 -15 -15 -15h-245v-532h331q17 0 17 -15v-47q0 -16 -17 -16h-741q-16 0 -16 16z" />
<glyph unicode="&#x39f;" horiz-adv-x="974" d="M119 338v600q0 148 101 244t265 96q168 0 269.5 -94t101.5 -246v-610q0 -153 -99 -247.5t-270 -94.5q-176 0 -272 98.5t-96 253.5zM207 342q0 -119 70 -199t210 -80q132 0 206.5 73.5t74.5 195.5v602q0 113 -72.5 188.5t-208.5 75.5q-131 0 -205.5 -75.5t-74.5 -188.5 v-592z" />
<glyph unicode="&#x3a0;" horiz-adv-x="1044" d="M133 14v1235q0 15 17 15h747q14 0 14 -15v-1235q0 -14 -14 -14h-57q-17 0 -17 14v1172h-602v-1172q0 -14 -14 -14h-57q-17 0 -17 14z" />
<glyph unicode="&#x3a1;" horiz-adv-x="911" d="M131 12v1233q0 7 5.5 13t13.5 6h387q151 0 242 -94.5t91 -241.5q0 -169 -106 -252.5t-291 -83.5h-254v-578q0 -14 -14 -14h-58q-16 0 -16 12zM219 670h254q156 0 233.5 61t77.5 197q0 128 -81 193t-230 65h-254v-516z" />
<glyph unicode="&#x3a3;" horiz-adv-x="798" d="M43 18v35q0 22 10 39l293 561l-293 523q-8 12 -8 32v35q0 21 23 21h651q16 0 16 -15v-47q0 -16 -16 -16h-576l289 -502q16 -27 2 -55l-291 -549h609q16 0 16 -17v-47q0 -16 -16 -16h-689q-20 0 -20 18z" />
<glyph unicode="&#x3a4;" horiz-adv-x="819" d="M25 1200v47q0 17 14 17h741q15 0 15 -15v-49q0 -14 -15 -14h-329v-1172q0 -14 -15 -14h-55q-19 0 -19 14v1172h-323q-8 0 -11 2.5t-3 11.5z" />
<glyph unicode="&#x3a5;" horiz-adv-x="825" d="M29 1243q-11 21 12 21h57q15 0 25 -17l287 -653h6q9 23 141 321t145 332q11 17 27 17h57q24 0 11 -23l-330 -725q-10 -23 -10 -49v-453q0 -14 -15 -14h-57q-16 0 -16 14v443q0 31 -9 51z" />
<glyph unicode="&#x3a6;" horiz-adv-x="1128" d="M115 455v391q0 153 109.5 249t293.5 103v51q0 15 17 15h57q14 0 14 -15v-51q187 -6 296.5 -101.5t109.5 -248.5v-389q0 -143 -114 -240.5t-292 -103.5v-103q0 -12 -14 -12h-57q-15 0 -15 12v103q-183 6 -294 103t-111 237zM199 455q0 -104 85 -181.5t236 -83.5v932 q-154 -4 -237.5 -80t-83.5 -194v-393zM606 193q146 5 234 77t88 187v399q0 117 -82 189.5t-240 76.5v-929z" />
<glyph unicode="&#x3a7;" horiz-adv-x="845" d="M20 18l353 639l-322 586q-8 21 12 21h64q17 0 23 -11q41 -75 132 -245.5t140 -259.5h6l272 505q8 11 25 11h59q9 0 12.5 -7t-1.5 -14l-322 -584q64 -117 188 -340.5t166 -300.5q4 -6 1 -12t-11 -6h-59q-19 0 -25 8l-307 563h-4l-307 -563q-6 -8 -25 -8h-59q-20 0 -11 18z " />
<glyph unicode="&#x3a8;" horiz-adv-x="1122" d="M113 635v625q0 14 16 14h55q15 0 15 -12v-631q0 -103 86 -186t231 -87v908q0 16 16 16h58q14 0 14 -16v-908q148 6 234 84.5t86 192.5v625q0 14 16 14h57q15 0 15 -12v-621q0 -148 -114 -252t-294 -110v-265q0 -14 -14 -14h-58q-16 0 -16 14v262q-183 6 -294 110.5 t-109 248.5z" />
<glyph unicode="&#x3a9;" horiz-adv-x="1021" d="M100 14v47q0 17 17 17h137q0 1 1 3t1 3q-122 64 -125 231v621q0 149 105 245.5t274 96.5q174 0 276.5 -94t102.5 -246v-545q0 -116 -27.5 -189t-99.5 -120l4 -6h135q17 0 17 -15v-49q0 -14 -15 -14h-268q-17 0 -17 14v60q0 11 4 16.5t17 9.5q162 54 162 236v600 q0 110 -76 187t-215 77q-138 0 -214.5 -74.5t-76.5 -189.5v-600q0 -179 160 -236q13 -4 16.5 -9t3.5 -17v-60q0 -9 -3 -11.5t-13 -2.5h-268q-15 0 -15 14z" />
<glyph unicode="&#x3aa;" horiz-adv-x="411" d="M-23 1442q0 26 17.5 43.5t42.5 17.5t42 -17.5t17 -43.5t-17 -44t-42 -18t-42.5 18t-17.5 44zM160 14v1235q0 15 16 15h57q17 0 17 -15v-1235q0 -14 -17 -14h-57q-16 0 -16 14zM293 1442q0 26 17 43.5t42 17.5t42.5 -17.5t17.5 -43.5t-17.5 -44t-42.5 -18t-42 18t-17 44z " />
<glyph unicode="&#x3ab;" horiz-adv-x="825" d="M29 1243q-11 21 12 21h57q15 0 25 -17l287 -653h6q9 23 141 321t145 332q11 17 27 17h57q24 0 11 -23l-330 -725q-10 -23 -10 -49v-453q0 -14 -15 -14h-57q-16 0 -16 14v443q0 31 -9 51zM186 1442q0 26 17.5 43.5t42.5 17.5t42 -17.5t17 -43.5t-17 -44t-42 -18t-42.5 18 t-17.5 44zM502 1442q0 26 17 43.5t42 17.5t42.5 -17.5t17.5 -43.5t-17.5 -44t-42.5 -18t-42 18t-17 44z" />
<glyph unicode="&#x3ac;" horiz-adv-x="878" d="M98 326v254q0 143 85 232t239 89q80 0 148.5 -31t107.5 -88l4 2v93q0 14 14 14h52q14 0 14 -12v-865q0 -14 -14 -14h-58q-12 0 -12 14v88l-6 2q-40 -53 -107.5 -83.5t-146.5 -30.5q-69 0 -124.5 19.5t-91.5 52t-60 76.5t-34 90.5t-10 97.5zM182 330q0 -52 14.5 -98.5 t43 -85t77.5 -61t113 -22.5q107 0 177.5 75t70.5 181v261q0 107 -70 178t-176 71q-120 0 -185 -72t-65 -188v-239zM399 1044l140 254q12 21 36 9l46 -25q27 -13 12 -35l-178 -233q-12 -16 -27 -8l-22 12q-15 10 -7 26z" />
<glyph unicode="&#x3ad;" horiz-adv-x="737" d="M98 262q0 30 10 65.5t42 77t81 62.5v6q-65 20 -95 68.5t-30 99.5q0 116 84.5 188t217.5 72q187 0 276 -125q9 -17 0 -24l-43 -31q-17 -11 -27 6q-36 48 -91.5 74t-114.5 26q-84 0 -146.5 -45.5t-62.5 -132.5q0 -41 18 -70t46.5 -43t55 -20t52.5 -6h118q15 0 15 -14v-47 q0 -15 -15 -15h-133q-66 0 -117 -46t-51 -124q0 -57 21.5 -99.5t56.5 -63.5t70.5 -30.5t73.5 -9.5q63 0 119 28.5t85 70.5q17 21 31 10l37 -29q17 -12 8 -26q-94 -129 -287 -129q-142 0 -223.5 74t-81.5 202zM362 1044l140 254q12 21 37 9l45 -25q27 -13 12 -35l-178 -233 q-12 -16 -27 -8l-22 12q-15 10 -7 26z" />
<glyph unicode="&#x3ae;" horiz-adv-x="874" d="M109 12v865q0 14 14 14h55q12 0 12 -14v-95h9q102 119 262 119q83 0 145 -27.5t98 -75.5t53 -106.5t17 -126.5v-551q0 -14 -12 -14h-60q-14 0 -14 12v555q0 114 -60 187t-188 73q-107 0 -176 -74t-69 -182v-557q0 -14 -15 -14h-57q-14 0 -14 12zM367 1044l139 254 q12 21 37 9l45 -25q27 -13 12 -35l-178 -233q-12 -16 -27 -8l-22 12q-14 11 -6 26z" />
<glyph unicode="&#x3af;" horiz-adv-x="370" d="M141 12v865q0 14 15 14h59q14 0 14 -14v-863q0 -14 -14 -14h-57q-17 0 -17 12zM152 1034l139 254q12 21 37 8l45 -24q27 -13 12 -35l-178 -233q-13 -17 -27 -9l-22 13q-14 11 -6 26z" />
<glyph unicode="&#x3b0;" horiz-adv-x="868" d="M104 311v566q0 14 15 14h57q14 0 14 -14v-566q0 -114 68.5 -183t179.5 -69q115 0 179.5 69t64.5 187q0 62 -1 280t-1 282q0 14 16 14h58q14 0 14 -14v-564q0 -153 -87.5 -240t-242.5 -87q-158 0 -246 88t-88 237zM217 1147q0 26 17 43.5t42 17.5t42.5 -17.5t17.5 -43.5 q0 -25 -17.5 -43.5t-42.5 -18.5q-24 0 -41.5 18.5t-17.5 43.5zM336 1042l139 254q12 21 37 9l45 -25q27 -13 12 -35l-178 -233q-12 -16 -26 -8l-23 12q-14 11 -6 26zM563 1147q0 26 17.5 43.5t42.5 17.5t42 -17.5t17 -43.5q0 -25 -17.5 -43.5t-41.5 -18.5q-25 0 -42.5 18.5 t-17.5 43.5z" />
<glyph unicode="&#x3b1;" horiz-adv-x="878" d="M98 326v254q0 143 85 232t239 89q80 0 148.5 -31t107.5 -88l4 2v93q0 14 14 14h52q14 0 14 -12v-865q0 -14 -14 -14h-58q-12 0 -12 14v88l-6 2q-40 -53 -107.5 -83.5t-146.5 -30.5q-69 0 -124.5 19.5t-91.5 52t-60 76.5t-34 90.5t-10 97.5zM182 330q0 -52 14.5 -98.5 t43 -85t77.5 -61t113 -22.5q107 0 177.5 75t70.5 181v261q0 107 -70 178t-176 71q-120 0 -185 -72t-65 -188v-239z" />
<glyph unicode="&#x3b2;" horiz-adv-x="878" d="M113 -281v1262q0 141 87 235.5t238 94.5q150 0 236 -84t86 -221q0 -78 -39.5 -145.5t-122.5 -96.5v-6q86 -29 133 -103.5t47 -152.5v-189q0 -137 -85.5 -229t-229.5 -92q-175 0 -258 119h-6v-390q0 -14 -13 -14h-57q-16 0 -16 12zM201 317q0 -106 71 -180t177 -74 q110 0 176.5 69.5t66.5 184.5v154q0 116 -70.5 186t-189.5 70h-78q-12 0 -12 14v43q0 15 14 15h90q93 0 160.5 55t67.5 150q0 100 -63 165.5t-169 65.5q-107 0 -174 -70t-67 -176v-672z" />
<glyph unicode="&#x3b3;" horiz-adv-x="765" d="M6 866q0 11 4 13q2 2 6 4q24 12 62 12t62 -32.5t48 -119.5l191 -596h6q33 89 129.5 364.5t130.5 365.5q5 12 21 12h55q17 0 12 -19l-301 -823q-12 -32 -12 -78v-323q0 -15 -14 -15h-58q-14 0 -14 13v350q0 26 -12 63l-226 695q-13 39 -22.5 51t-34.5 12h-14q-11 0 -13 10 z" />
<glyph unicode="&#x3b4;" horiz-adv-x="866" d="M102 311v244q0 109 61.5 195.5t162.5 117.5v4q-75 31 -115.5 88t-40.5 119q-1 116 82 174t197 58q137 0 233 -47q11 -4 8 -17l-16 -41q-5 -13 -21 -8q-116 44 -217 41q-70 -4 -124 -40.5t-54 -111.5q0 -112 223 -198q76 -28 123.5 -53.5t87.5 -64.5t58 -94t18 -132v-232 q0 -152 -88.5 -239.5t-243.5 -87.5q-158 0 -246 88t-88 237zM186 311q0 -116 66 -184t186 -68t182 68t62 188v228q0 40 -5.5 71t-22 65.5t-44.5 60.5t-76.5 50t-115.5 39q-113 -27 -172.5 -102t-59.5 -180v-236z" />
<glyph unicode="&#x3b5;" horiz-adv-x="737" d="M98 262q0 30 10 65.5t42 77t81 62.5v6q-65 20 -95 68.5t-30 99.5q0 116 84.5 188t217.5 72q187 0 276 -125q9 -17 0 -24l-43 -31q-17 -11 -27 6q-36 48 -91.5 74t-114.5 26q-84 0 -146.5 -45.5t-62.5 -132.5q0 -41 18 -70t46.5 -43t55 -20t52.5 -6h118q15 0 15 -14v-47 q0 -15 -15 -15h-133q-66 0 -117 -46t-51 -124q0 -57 21.5 -99.5t56.5 -63.5t70.5 -30.5t73.5 -9.5q63 0 119 28.5t85 70.5q17 21 31 10l37 -29q17 -12 8 -26q-94 -129 -287 -129q-142 0 -223.5 74t-81.5 202z" />
<glyph unicode="&#x3b6;" horiz-adv-x="735" d="M90 346q0 97 59.5 220.5t152 238.5t194 214.5t194.5 166.5v2h-502q-20 0 -20 22v37q0 17 20 17h613q24 0 24 -19v-33q0 -20 -16 -30q-56 -35 -132.5 -98.5t-164.5 -154t-162 -186t-123 -202t-49 -193.5q0 -39 10.5 -72t26 -57.5t44.5 -46.5t54 -36.5t67 -31t72 -26.5 t80 -26t80 -27q80 -27 112 -55.5t32 -67.5q0 -64 -109 -240q-5 -8 -12.5 -10t-13.5 4l-35 16q-20 5 0 41q76 135 76 168q0 45 -91 74q-35 13 -90 31t-89 29t-80 30t-74 36t-59.5 44t-48.5 57t-28.5 72t-11.5 92z" />
<glyph unicode="&#x3b7;" horiz-adv-x="874" d="M109 12v865q0 14 14 14h55q12 0 12 -14v-95h9q102 119 262 119q83 0 145 -27.5t98 -75.5t53 -106.5t17 -126.5v-551q0 -14 -12 -14h-60q-14 0 -14 12v555q0 114 -60 187t-188 73q-107 0 -176 -74t-69 -182v-557q0 -14 -15 -14h-57q-14 0 -14 12z" />
<glyph unicode="&#x3b8;" horiz-adv-x="872" d="M106 311v672q0 142 91.5 232t242.5 90t240.5 -88.5t89.5 -235.5v-666q0 -152 -87.5 -238.5t-242.5 -86.5q-158 0 -246 87t-88 234zM190 647q0 -214 3 -334q0 -107 68 -179.5t179 -72.5q112 0 179 69t67 185v332h-496zM190 721h496v258q0 107 -69.5 179.5t-176.5 72.5 q-108 0 -179 -72t-71 -178v-260z" />
<glyph unicode="&#x3b9;" horiz-adv-x="370" d="M141 12v865q0 14 15 14h59q14 0 14 -14v-863q0 -14 -14 -14h-57q-17 0 -17 12z" />
<glyph unicode="&#x3ba;" horiz-adv-x="831" d="M106 12v862q0 15 15 15h57q15 0 15 -15v-425q1 0 2 -1.5t2 -1.5q76 75 438 433q13 10 27 10h73q10 0 10 -10q0 -7 -4 -11l-340 -333q39 4 82 4q123 -3 196 -88.5t81 -227.5l10 -207q0 -16 -18 -16h-52q-16 0 -16 14l-10 209q-12 246 -240 246q-103 0 -172 -70t-69 -161 v-226q0 -12 -15 -12h-57q-15 0 -15 12z" />
<glyph unicode="&#x3bb;" horiz-adv-x="897" d="M109 12v563q0 67 19 125.5t57 106t101.5 75t145.5 27.5q75 0 141.5 -28t108.5 -86l6 2v192q0 114 -66 179t-186 65q-80 0 -180 -49q-18 -6 -25 6l-18 39q-5 15 12 24q42 26 104.5 42t116.5 16q153 0 240.5 -84.5t87.5 -233.5v-979q0 -14 -14 -14h-58q-14 0 -14 12v572 q0 104 -70 178t-176 74q-116 0 -181.5 -74.5t-65.5 -181.5v-566q0 -14 -15 -14h-57q-14 0 -14 12z" />
<glyph unicode="&#x3bd;" horiz-adv-x="759" d="M25 872q-6 19 12 19h51q18 0 27 -21l170 -491l92 -273h6l90 269l168 493q4 9 6 12.5t7 7t14 3.5h53q18 0 12 -19l-305 -854q-5 -18 -22 -18h-50q-14 0 -18.5 3t-7.5 13z" />
<glyph unicode="&#x3be;" horiz-adv-x="696" d="M51 305q0 42 13.5 88t41.5 94.5t81 89t124 62.5v6q-49 11 -88 31.5t-61.5 44.5t-37.5 52.5t-20.5 52.5t-5.5 48q0 38 15 73.5t36.5 63t57 54.5t66 45t73.5 38t69 30t64 24v6h-393q-23 0 -23 21v37q0 18 21 18h616q25 0 25 -18v-37q0 -22 -16 -27q-94 -22 -177 -49.5 t-166.5 -68t-132.5 -95t-49 -115.5q0 -50 29 -88.5t74 -58.5t89.5 -29.5t84.5 -9.5h174q22 0 22 -18v-33q0 -23 -20 -23h-162q-46 0 -103.5 -21.5t-109.5 -57.5t-87.5 -91.5t-35.5 -115.5q0 -94 62 -153.5t221 -102.5q147 -39 202.5 -74t55.5 -82q0 -74 -105 -242 q-10 -13 -20 -8l-41 21q-17 6 -10 18q50 91 66 126.5t16 57.5q0 40 -37.5 58t-165.5 53q-175 49 -250.5 123t-81.5 182z" />
<glyph unicode="&#x3bf;" horiz-adv-x="862" d="M100 315v263q0 146 90 234.5t244 88.5q153 0 241.5 -87.5t88.5 -238.5v-256q0 -156 -87 -242.5t-243 -86.5q-159 0 -246.5 87t-87.5 238zM184 317q0 -119 64.5 -187.5t185.5 -68.5t183.5 68.5t62.5 189.5v254q0 113 -63.5 183.5t-182.5 70.5q-109 0 -179.5 -71.5 t-70.5 -180.5v-258z" />
<glyph unicode="&#x3c0;" horiz-adv-x="874" d="M104 12v865q0 14 15 14h637q14 0 14 -14v-863q0 -14 -14 -14h-58q-14 0 -14 12v803h-494v-801q0 -14 -14 -14h-57q-15 0 -15 12z" />
<glyph unicode="&#x3c1;" horiz-adv-x="864" d="M106 -356v929q0 147 93 237.5t243 90.5q154 0 241 -86.5t87 -234.5v-250q0 -69 -16.5 -127.5t-52.5 -107.5t-99.5 -77t-150.5 -28q-76 0 -143 28t-109 86l-6 -4v-454q0 -15 -13 -15h-57q-14 0 -17 13zM190 317q0 -106 70.5 -181t177.5 -75q123 0 185.5 72t62.5 186v254 q0 112 -65 182t-181 70q-110 0 -180 -71.5t-70 -180.5v-256z" />
<glyph unicode="&#x3c2;" horiz-adv-x="700" d="M74 147q-8 13 4 19l47 24q11 6 18 -8q32 -58 85.5 -91.5t121.5 -33.5q85 0 146 45t61 119q0 111 -147 172q-18 8 -52 20.5t-56.5 21t-53.5 23t-52 27.5t-44 32.5t-36.5 41t-22.5 50t-9 61.5q0 112 83 171.5t195 59.5q122 0 228 -45q19 -8 14 -20l-16 -48q-5 -17 -27 -6 q-109 45 -203 45q-26 0 -56.5 -8t-63 -24t-53.5 -47.5t-21 -71.5q0 -31 16 -58.5t33.5 -44.5t56 -36.5t56 -26.5t61.5 -23q11 -4 16 -6q55 -20 92.5 -39.5t73.5 -49.5t54 -72.5t18 -98.5q0 -95 -78 -163t-213 -68q-97 0 -160.5 37t-115.5 120z" />
<glyph unicode="&#x3c3;" horiz-adv-x="864" d="M98 315v250q0 144 89 235t237 91h389q14 0 14 -14v-46q0 -14 -12 -14h-168v-6q115 -67 115 -244v-250q0 -153 -88 -240t-242 -87q-158 0 -246 87.5t-88 237.5zM182 315q0 -114 69 -184t181 -70q116 0 181 69t65 189v244q0 109 -67.5 180.5t-178.5 71.5q-108 0 -179 -72 t-71 -178v-250z" />
<glyph unicode="&#x3c4;" horiz-adv-x="618" d="M25 831v46q0 14 12 14h520q12 0 12 -14v-46q0 -14 -12 -14h-254v-575q0 -179 156 -179q42 0 104 17q17 6 21 -10l10 -43q3 -16 -12 -19q-50 -18 -138 -18q-114 0 -169.5 65.5t-55.5 173.5v588h-182q-12 0 -12 14z" />
<glyph unicode="&#x3c5;" horiz-adv-x="868" d="M104 311v566q0 14 15 14h57q14 0 14 -14v-566q0 -114 68.5 -183t179.5 -69q115 0 179.5 69t64.5 187q0 62 -1 280t-1 282q0 14 16 14h58q14 0 14 -14v-564q0 -153 -87.5 -240t-242.5 -87q-158 0 -246 88t-88 237z" />
<glyph unicode="&#x3c6;" horiz-adv-x="1044" d="M96 334v254q0 93 45 168.5t123 113.5q18 11 29 -4l22 -41q6 -12 -10 -22q-60 -33 -91.5 -90.5t-31.5 -128.5v-250q0 -122 76.5 -194t220.5 -79v818q0 26 27 26h88q150 0 252 -91t102 -232v-242q0 -162 -104 -253t-279 -99v-342q0 -15 -12 -15h-57q-15 0 -15 13v344 q-181 6 -283 95t-102 251zM563 61q140 6 220.5 78.5t80.5 200.5v235q0 121 -86.5 186.5t-214.5 65.5v-766z" />
<glyph unicode="&#x3c7;" horiz-adv-x="702" d="M18 16l283 451q-63 105 -252 403q-9 19 10 19h56q14 0 19.5 -2.5t12.5 -14.5q40 -69 107.5 -176t95.5 -157h6l201 333q6 11 12 14t21 3h55q8 0 11 -5.5t-1 -13.5l-252 -401l285 -453q8 -16 -10 -16h-57q-22 0 -33 16l-234 381h-4l-231 -381q-11 -16 -35 -16h-55 q-19 0 -11 16z" />
<glyph unicode="&#x3c8;" horiz-adv-x="1048" d="M100 336v541q0 14 15 14h57q12 0 12 -14v-539q0 -127 77.5 -198t219.5 -79v867q0 14 17 14h57q12 0 12 -14v-867q130 3 213.5 77.5t83.5 201.5v537q0 14 15 14h57q14 0 14 -14v-541q0 -162 -103 -252t-278 -98v-342q0 -13 -14 -13h-57q-15 0 -15 13v342q-181 6 -282 96 t-101 254z" />
<glyph unicode="&#x3c9;" horiz-adv-x="1224" d="M96 309v269q0 139 82 228t201 95q20 0 20 -14v-47q0 -15 -16 -15q-85 -8 -144 -78t-59 -172v-256q0 -120 53 -190t142 -70q64 0 109.5 39t64 90t18.5 105v305q0 14 15 14h57q14 0 14 -12v-307q0 -39 12 -78.5t35 -74.5t62.5 -57t89.5 -22q97 0 143.5 71.5t46.5 197.5v245 q0 102 -59 172t-143 78q-10 0 -13.5 2.5t-3.5 12.5v47q0 10 4 12t15 2q116 0 200 -93t84 -230v-263q0 -156 -73 -240.5t-199 -84.5q-178 0 -242 155h-4q-40 -80 -97.5 -117.5t-143.5 -37.5q-126 0 -198.5 83.5t-72.5 235.5z" />
<glyph unicode="&#x3ca;" horiz-adv-x="370" d="M-29 1149q0 26 17.5 43.5t42.5 17.5t42 -17.5t17 -43.5t-17.5 -44t-41.5 -18q-25 0 -42.5 18.5t-17.5 43.5zM141 12v865q0 14 15 14h59q14 0 14 -14v-863q0 -14 -14 -14h-57q-17 0 -17 12zM285 1149q0 26 17 43.5t42 17.5t43.5 -17.5t18.5 -43.5q0 -25 -17.5 -43.5 t-42.5 -18.5q-26 0 -43.5 18.5t-17.5 43.5z" />
<glyph unicode="&#x3cb;" horiz-adv-x="868" d="M104 311v566q0 14 15 14h57q14 0 14 -14v-566q0 -114 68.5 -183t179.5 -69q115 0 179.5 69t64.5 187q0 62 -1 280t-1 282q0 14 16 14h58q14 0 14 -14v-564q0 -153 -87.5 -240t-242.5 -87q-158 0 -246 88t-88 237zM217 1149q0 26 17 43.5t42 17.5t42.5 -17.5t17.5 -43.5 t-18 -44t-42 -18t-41.5 18.5t-17.5 43.5zM530 1149q0 26 17.5 43.5t42.5 17.5t43 -17.5t18 -43.5q0 -25 -17.5 -43.5t-41.5 -18.5q-26 0 -44 18.5t-18 43.5z" />
<glyph unicode="&#x3cc;" horiz-adv-x="862" d="M100 315v263q0 146 90 234.5t244 88.5q153 0 241.5 -87.5t88.5 -238.5v-256q0 -156 -87 -242.5t-243 -86.5q-159 0 -246.5 87t-87.5 238zM184 317q0 -119 64.5 -187.5t185.5 -68.5t183.5 68.5t62.5 189.5v254q0 113 -63.5 183.5t-182.5 70.5q-109 0 -179.5 -71.5 t-70.5 -180.5v-258zM393 1044l139 254q12 21 37 9l45 -25q28 -13 13 -35l-178 -233q-12 -16 -27 -8l-23 12q-14 11 -6 26z" />
<glyph unicode="&#x3cd;" horiz-adv-x="868" d="M104 311v566q0 14 15 14h57q14 0 14 -14v-566q0 -114 68.5 -183t179.5 -69q115 0 179.5 69t64.5 187q0 62 -1 280t-1 282q0 14 16 14h58q14 0 14 -14v-564q0 -153 -87.5 -240t-242.5 -87q-158 0 -246 88t-88 237zM373 1044l139 254q12 21 37 9l45 -25q27 -13 12 -35 l-178 -233q-12 -16 -27 -8l-22 12q-14 11 -6 26z" />
<glyph unicode="&#x3ce;" horiz-adv-x="1224" d="M96 309v269q0 139 82 228t201 95q20 0 20 -14v-47q0 -15 -16 -15q-85 -8 -144 -78t-59 -172v-256q0 -120 53 -190t142 -70q64 0 109.5 39t64 90t18.5 105v305q0 14 15 14h57q14 0 14 -12v-307q0 -39 12 -78.5t35 -74.5t62.5 -57t89.5 -22q97 0 143.5 71.5t46.5 197.5v245 q0 102 -59 172t-143 78q-10 0 -13.5 2.5t-3.5 12.5v47q0 10 4 12t15 2q116 0 200 -93t84 -230v-263q0 -156 -73 -240.5t-199 -84.5q-178 0 -242 155h-4q-40 -80 -97.5 -117.5t-143.5 -37.5q-126 0 -198.5 83.5t-72.5 235.5zM557 1044l139 254q12 21 37 9l45 -25 q28 -13 13 -35l-179 -233q-12 -16 -26 -8l-23 12q-14 11 -6 26z" />
<glyph unicode="&#x401;" horiz-adv-x="878" d="M125 16v1231q0 17 16 17h635q15 0 15 -17v-47q0 -14 -15 -14h-563v-494h492q14 0 14 -16v-47q0 -15 -14 -15h-492v-536h588q16 0 16 -15v-47q0 -16 -16 -16h-660q-16 0 -16 16zM233 1442q0 26 17.5 43.5t42.5 17.5t42 -17.5t17 -43.5t-17 -44t-42 -18t-42.5 18t-17.5 44z M549 1442q0 26 17 43.5t42 17.5t42.5 -17.5t17.5 -43.5t-17.5 -44t-42.5 -18t-42 18t-17 44z" />
<glyph unicode="&#x402;" horiz-adv-x="1228" d="M41 1200v47q0 17 16 17h885q14 0 14 -17v-47q0 -14 -14 -14h-506v-459h4q48 50 139.5 83.5t170.5 33.5q175 0 265.5 -99t90.5 -256v-184q0 -46 -9 -91t-32 -92t-58.5 -82.5t-94 -58t-132.5 -22.5h-30q-23 0 -23 14v45q0 10 3 13.5t13 3.5h29q67 0 117 24.5t77 65.5 t39.5 86.5t12.5 95.5v166q0 291 -283 291q-86 0 -164 -39t-135 -102v-609q0 -14 -14 -14h-57q-17 0 -17 14v1172h-291q-16 0 -16 14z" />
<glyph unicode="&#x403;" horiz-adv-x="811" d="M141 14v1233q0 17 17 17h639q16 0 16 -15v-49q0 -14 -16 -14h-568v-1172q0 -14 -14 -14h-57q-17 0 -17 14zM340 1343q-9 16 2 25l223 191q17 14 31 -3l39 -47q18 -18 -4 -30l-252 -156q-15 -8 -27 4z" />
<glyph unicode="&#x404;" horiz-adv-x="858" d="M119 322v626q0 141 100.5 235.5t259.5 94.5q203 0 309 -129q12 -13 -2 -27l-36 -30q-13 -13 -29 6q-37 48 -104.5 75t-137.5 27q-120 0 -196 -72.5t-76 -181.5v-256h426q16 0 16 -16v-47q0 -15 -14 -15h-428v-286q0 -113 74 -188t204 -75q67 0 130.5 26t107.5 73 q20 23 35 10l30 -27q17 -14 5 -26q-119 -131 -308 -131q-168 0 -267 92t-99 242z" />
<glyph unicode="&#x405;" horiz-adv-x="874" d="M63 117q-11 11 5 26l26 27q13 13 29 0q53 -44 129.5 -75.5t144.5 -31.5q141 0 228.5 67t87.5 192q0 61 -19 107.5t-59.5 80t-81.5 55t-107 47.5q-146 57 -201 89q-165 96 -165 251q0 102 50.5 178t128.5 112t169 36q191 0 315 -94q13 -9 2 -27l-24 -37q-11 -16 -29 -2 q-51 37 -121 58.5t-135 21.5q-50 0 -96 -13.5t-85.5 -41.5t-63 -77t-23.5 -114q0 -34 11.5 -64t36 -54.5t48 -42.5t63 -37t64 -29.5t66.5 -26.5q63 -25 104.5 -44.5t91.5 -52.5t79 -68.5t49 -87.5t20 -115q0 -163 -113 -251.5t-289 -88.5q-98 0 -189.5 34t-146.5 93z" />
<glyph unicode="&#x406;" horiz-adv-x="411" d="M160 14v1235q0 15 16 15h57q17 0 17 -15v-1235q0 -14 -17 -14h-57q-16 0 -16 14z" />
<glyph unicode="&#x407;" horiz-adv-x="411" d="M-14 1442q0 26 17 43.5t42 17.5t42 -17.5t17 -43.5t-17 -44t-42 -18t-42 18t-17 44zM160 14v1235q0 15 16 15h57q17 0 17 -15v-1235q0 -14 -17 -14h-57q-16 0 -16 14zM301 1442q0 26 17 43.5t42 17.5t42.5 -17.5t17.5 -43.5t-17.5 -44t-42.5 -18t-42 18t-17 44z" />
<glyph unicode="&#x408;" horiz-adv-x="464" d="M-55 -168q-6 20 14 27q57 20 98 41.5t69.5 48t46 54t27 67t12.5 78.5t3 96v1001q0 17 16 17h54q18 0 18 -17v-993q0 -112 -12 -182t-47.5 -127.5t-96.5 -95t-163 -72.5q-23 -6 -27 12z" />
<glyph unicode="&#x409;" horiz-adv-x="1550" d="M16 29q-4 14 15 22q68 29 106.5 75t66 150t37 267.5t9.5 435.5v270q0 15 16 15h559q14 0 17 -15v-551h332q155 0 245 -98.5t90 -251.5q0 -150 -93 -249t-245 -99h-399q-18 0 -18 16v1170h-420v-205q0 -231 -8.5 -387.5t-26.5 -269t-52.5 -180t-79.5 -106t-114 -61.5 q-18 -6 -22 11zM842 78h329q112 0 182 79t70 189q0 121 -68.5 198t-183.5 77h-329v-543z" />
<glyph unicode="&#x40a;" horiz-adv-x="1521" d="M125 12v1237q0 15 14 15h58q16 0 16 -15v-553h510v553q0 15 16 15h58q14 0 14 -15v-553h313q156 0 255.5 -88.5t99.5 -261.5q0 -146 -90.5 -246t-245.5 -100h-400q-20 0 -20 16v602h-510v-604q0 -14 -14 -14h-58q-16 0 -16 12zM811 78h332q112 0 181 78.5t69 189.5 q0 119 -68 195.5t-182 76.5h-332v-540z" />
<glyph unicode="&#x40b;" horiz-adv-x="1224" d="M43 1200v47q0 17 14 17h879q14 0 14 -17v-47q0 -14 -14 -14h-502v-463h8q143 111 306 111q91 0 160.5 -28.5t111 -78.5t62 -113.5t20.5 -138.5v-461q0 -14 -15 -14h-59q-14 0 -14 14v445q0 295 -285 295q-168 0 -295 -133v-609q0 -12 -14 -12h-53q-19 0 -19 12v1174h-291 q-8 0 -11 2.5t-3 11.5z" />
<glyph unicode="&#x40c;" horiz-adv-x="962" d="M125 14v1231q0 19 16 19h60q12 0 12 -17v-614l6 -2l545 618q13 13 24 13h64q11 0 13 -6.5t-5 -12.5l-450 -516l6 -6q55 14 119 14q299 0 323 -329l29 -392q0 -14 -15 -14h-53q-13 0 -16 16l-27 365q-2 42 -7.5 74.5t-22.5 73.5t-45 68t-78.5 46t-118.5 19q-80 0 -139 -25 t-91 -67.5t-46.5 -90t-14.5 -100.5v-363q0 -16 -12 -16h-60q-16 0 -16 14zM367 1350q-9 15 2 24l223 191q18 14 31 -2l39 -47q18 -18 -5 -31l-251 -156q-15 -8 -27 4z" />
<glyph unicode="&#x40e;" horiz-adv-x="839" d="M18 1243v6q0 15 13 15h57q20 0 25 -17l315 -841h6q43 129 139 410t146 431q5 10 10 13.5t16 3.5h54q14 0 14 -13q0 -6 -2 -10l-315 -905l-60 -166q-38 -108 -83.5 -147t-133.5 -39h-49q-10 0 -13 3.5t-3 12.5v45q0 12 2.5 16.5t11.5 4.5h49q85 0 123 96l45 121 q-121 322 -367 960zM197 1513q0 15 12 15h27q6 0 9.5 -3.5t4.5 -7t4 -12.5q12 -66 59 -103.5t109 -37.5q60 0 109 38.5t61 102.5q1 2 1.5 5.5t1 5t1.5 4t2 4t3 2.5t4 1.5t5 0.5h25q14 0 14 -15q-1 -97 -69.5 -160t-159.5 -63q-88 0 -155 63t-68 160z" />
<glyph unicode="&#x40f;" horiz-adv-x="1044" d="M133 14v1235q0 15 17 15h57q14 0 14 -15v-1171h602v1171q0 15 17 15h57q14 0 14 -15v-1235q0 -14 -14 -14h-330v-283q-2 -24 -18 -24h-55q-17 0 -17 24v283h-327q-17 0 -17 14z" />
<glyph unicode="&#x410;" horiz-adv-x="911" d="M27 16l358 1231q4 17 18 17h95q14 0 20 -15l361 -1229q4 -6 0.5 -13t-11.5 -7h-59q-17 0 -21 12l-92 307h-491l-88 -307q-3 -12 -19 -12h-57q-21 0 -14 16zM227 395h453q-40 133 -148 502l-79 277h-4q-44 -154 -78 -281z" />
<glyph unicode="&#x411;" horiz-adv-x="909" d="M113 16v1229q0 19 20 19h627q16 0 16 -15v-49q0 -14 -16 -14h-559v-490h315q157 0 254.5 -87t97.5 -263q0 -149 -93 -247.5t-245 -98.5h-399q-18 0 -18 16zM201 78h329q112 0 182 78.5t70 189.5q0 119 -68.5 195.5t-183.5 76.5h-329v-540z" />
<glyph unicode="&#x412;" horiz-adv-x="966" d="M125 16v1231q0 17 14 17h377q150 0 239 -81t89 -231q0 -53 -17 -104t-57.5 -97t-97.5 -67v-4q102 -32 154.5 -123.5t52.5 -200.5q0 -159 -92 -257.5t-248 -98.5h-400q-14 0 -14 16zM213 80h324q117 0 185.5 77t68.5 195q0 127 -74 207t-199 80h-305v-559zM213 717h305 q107 0 172.5 64.5t65.5 170.5t-63.5 170t-176.5 64h-303v-469z" />
<glyph unicode="&#x413;" horiz-adv-x="811" d="M141 14v1233q0 17 17 17h639q16 0 16 -15v-49q0 -14 -16 -14h-568v-1172q0 -14 -14 -14h-57q-17 0 -17 14z" />
<glyph unicode="&#x414;" horiz-adv-x="1085" d="M12 47q0 24 19 29q32 4 51 4q122 81 141 332q27 405 49 829q0 21 21 21h606q21 0 21 -21v-1161h69q19 -2 19 -25v-311q0 -14 -3.5 -18.5t-13.5 -4.5h-47q-9 0 -13 5t-5 18v256h-832v-256q0 -14 -3.5 -18.5t-12.5 -4.5h-49q-17 0 -17 21v305zM201 84q0 -1 1 -2t1 -2h628 v1104h-479q-23 -423 -47 -787q-13 -203 -104 -313z" />
<glyph unicode="&#x415;" horiz-adv-x="878" d="M125 16v1231q0 17 16 17h635q15 0 15 -17v-47q0 -14 -15 -14h-563v-494h492q14 0 14 -16v-47q0 -15 -14 -15h-492v-536h588q16 0 16 -15v-47q0 -16 -16 -16h-660q-16 0 -16 16z" />
<glyph unicode="&#x416;" horiz-adv-x="1546" d="M90 10l29 377q5 56 13.5 99t31 91t56.5 79.5t91.5 52t134.5 20.5q44 0 109 -12l6 6l-440 520q-6 3 -6 10q0 9 16 9h59q15 0 25 -13l512 -596h6v592q0 19 15 19h59q14 0 14 -19v-592q1 0 3 -1t3 -1l510 598q13 13 25 13h61q15 0 15 -9q0 -6 -4 -10l-443 -520q0 -2 4 -6 q59 12 105 12q76 0 134 -19.5t93 -50t58 -75.5t33 -89t14 -98l26 -383v-4q0 -10 -14 -10h-53q-15 0 -15 14l-28 373q-2 29 -4.5 51.5t-9.5 52.5t-18.5 52t-31 45t-45.5 37.5t-65 24t-87 9.5q-76 0 -130.5 -22.5t-83 -62.5t-40.5 -84t-12 -97v-379q0 -14 -14 -14h-59 q-15 0 -15 14v365q0 57 -9.5 101t-35.5 87.5t-82 67.5t-139 24q-67 0 -116.5 -18t-76.5 -43.5t-44 -66t-22.5 -71.5t-8.5 -73l-27 -373q0 -9 -3 -11.5t-11 -2.5h-54q-14 0 -14 10z" />
<glyph unicode="&#x417;" horiz-adv-x="911" d="M53 121q-9 18 6 31l39 24q8 7 14 6t17 -14q35 -48 111 -76.5t151 -28.5q135 0 226.5 84t91.5 226q0 128 -81 201t-196 73h-166q-16 0 -16 15v51q0 14 14 14h180q96 0 167 65t71 166q0 103 -76.5 172.5t-202.5 69.5q-71 0 -140 -26t-107 -74q-14 -17 -31 -6l-37 24 q-15 12 -2 29q46 62 134.5 96.5t189.5 34.5q159 0 259.5 -86.5t100.5 -226.5q0 -96 -58.5 -175t-125.5 -100v-4q89 -22 150 -109t61 -198q0 -182 -114.5 -287.5t-293.5 -105.5q-107 0 -200.5 34t-135.5 101z" />
<glyph unicode="&#x418;" horiz-adv-x="1017" d="M117 14v1233q0 17 16 17h55q17 0 17 -17v-1081q2 0 2 2l594 1077q11 19 30 19h56q14 0 14 -15v-1235q0 -14 -16 -14h-56q-16 0 -16 14v1082h-4l-592 -1080q-4 -10 -9.5 -13t-19.5 -3h-55q-16 0 -16 14z" />
<glyph unicode="&#x419;" horiz-adv-x="1017" d="M117 14v1233q0 17 16 17h55q17 0 17 -17v-1081q2 0 2 2l594 1077q11 19 30 19h56q14 0 14 -15v-1235q0 -14 -16 -14h-56q-16 0 -16 14v1082h-4l-592 -1080q-4 -10 -9.5 -13t-19.5 -3h-55q-16 0 -16 14zM276 1513q0 15 13 15h26q6 0 9.5 -3t5.5 -7.5t4 -12.5 q12 -66 59 -103.5t109 -37.5q60 0 109 38.5t61 102.5q1 2 1.5 5.5t1 5t1.5 4t2 4t3 2.5t4 1.5t5 0.5h25q14 0 14 -15q-1 -97 -69.5 -160t-159.5 -63q-88 0 -155.5 63t-68.5 160z" />
<glyph unicode="&#x41a;" horiz-adv-x="962" d="M125 14v1231q0 19 16 19h60q12 0 12 -17v-614l6 -2l545 618q13 13 24 13h64q11 0 13 -6.5t-5 -12.5l-450 -516l6 -6q55 14 119 14q299 0 323 -329l29 -392q0 -14 -15 -14h-53q-13 0 -16 16l-27 365q-2 42 -7.5 74.5t-22.5 73.5t-45 68t-78.5 46t-118.5 19q-80 0 -139 -25 t-91 -67.5t-46.5 -90t-14.5 -100.5v-363q0 -16 -12 -16h-60q-16 0 -16 14z" />
<glyph unicode="&#x41b;" horiz-adv-x="1013" d="M16 29q-3 6 2 12.5t13 9.5q68 29 106.5 75t66 150t37 267.5t9.5 435.5v270q0 15 16 15h611q14 0 14 -15v-1235q0 -14 -14 -14h-58q-16 0 -16 12v1174h-469v-205q0 -231 -8.5 -387.5t-26.5 -269t-52.5 -180t-79.5 -106t-114 -61.5q-14 -5 -22 11z" />
<glyph unicode="&#x41c;" horiz-adv-x="1234" d="M115 14v1223q0 27 24 27h47q24 0 29 -19q65 -170 199.5 -533t206.5 -550h6q79 201 217 577t188 508q10 17 29 17h47q25 0 25 -27v-1223q0 -14 -15 -14h-55q-16 0 -16 14v1020h-7l-166 -438q-11 -30 -87 -227t-115 -301q-6 -19 -27 -19h-45q-20 0 -27 17l-200 522 q-3 9 -166 444h-6v-1018q0 -14 -15 -14h-57q-14 0 -14 14z" />
<glyph unicode="&#x41d;" horiz-adv-x="1021" d="M125 14v1235q0 15 16 15h58q14 0 14 -15v-559h596v559q0 15 16 15h58q16 0 16 -15v-1235q0 -14 -14 -14h-60q-16 0 -16 14v598h-596v-598q0 -14 -14 -14h-58q-16 0 -16 14z" />
<glyph unicode="&#x41e;" horiz-adv-x="974" d="M119 338v600q0 148 101 244t265 96q168 0 269.5 -94t101.5 -246v-610q0 -153 -99 -247.5t-270 -94.5q-176 0 -272 98.5t-96 253.5zM207 342q0 -119 70 -199t210 -80q132 0 206.5 73.5t74.5 195.5v602q0 113 -72.5 188.5t-208.5 75.5q-131 0 -205.5 -75.5t-74.5 -188.5 v-592z" />
<glyph unicode="&#x41f;" horiz-adv-x="1028" d="M133 14v1235q0 15 17 15h747q14 0 14 -15v-1235q0 -14 -14 -14h-57q-17 0 -17 14v1172h-602v-1172q0 -14 -14 -14h-57q-17 0 -17 14z" />
<glyph unicode="&#x420;" horiz-adv-x="911" d="M131 12v1233q0 7 5.5 13t13.5 6h387q151 0 242 -94.5t91 -241.5q0 -169 -106 -252.5t-291 -83.5h-254v-578q0 -14 -14 -14h-58q-16 0 -16 12zM219 670h254q156 0 233.5 61t77.5 197q0 128 -81 193t-230 65h-254v-516z" />
<glyph unicode="&#x421;" horiz-adv-x="845" d="M119 322v626q0 141 100.5 235.5t259.5 94.5q203 0 309 -129q12 -13 -2 -27l-36 -30q-13 -13 -29 6q-37 48 -104.5 75t-137.5 27q-120 0 -196 -72.5t-76 -181.5v-620q0 -113 74 -188t204 -75q67 0 130.5 26t107.5 73q20 23 35 10l30 -27q17 -14 5 -26q-119 -131 -308 -131 q-168 0 -267 92t-99 242z" />
<glyph unicode="&#x422;" horiz-adv-x="819" d="M25 1200v47q0 17 14 17h741q15 0 15 -15v-49q0 -14 -15 -14h-329v-1172q0 -14 -15 -14h-55q-19 0 -19 14v1172h-323q-8 0 -11 2.5t-3 11.5z" />
<glyph unicode="&#x423;" horiz-adv-x="839" d="M18 1243v6q0 15 13 15h57q20 0 25 -17l315 -841h6q43 129 139 410t146 431q5 10 10 13.5t16 3.5h54q14 0 14 -13q0 -6 -2 -10l-315 -905l-60 -166q-38 -108 -83.5 -147t-133.5 -39h-49q-10 0 -13 3.5t-3 12.5v45q0 12 2.5 16.5t11.5 4.5h49q85 0 123 96l45 121 q-121 322 -367 960z" />
<glyph unicode="&#x424;" horiz-adv-x="1093" d="M115 455v391q0 153 109.5 249t293.5 103v51q0 15 17 15h57q14 0 14 -15v-51q187 -6 296.5 -101.5t109.5 -248.5v-389q0 -143 -114 -240.5t-292 -103.5v-103q0 -12 -14 -12h-57q-15 0 -15 12v103q-183 6 -294 103t-111 237zM199 455q0 -104 85 -181.5t236 -83.5v932 q-154 -4 -237.5 -80t-83.5 -194v-393zM606 193q146 5 234 77t88 187v399q0 117 -82 189.5t-240 76.5v-929z" />
<glyph unicode="&#x425;" horiz-adv-x="845" d="M20 18l353 639l-322 586q-8 21 12 21h64q17 0 23 -11q41 -75 132 -245.5t140 -259.5h6l272 505q8 11 25 11h59q9 0 12.5 -7t-1.5 -14l-322 -584q64 -117 188 -340.5t166 -300.5q4 -6 1 -12t-11 -6h-59q-19 0 -25 8l-307 563h-4l-307 -563q-6 -8 -25 -8h-59q-20 0 -11 18z " />
<glyph unicode="&#x426;" horiz-adv-x="1054" d="M131 14v1235q0 15 16 15h60q14 0 14 -15v-1173h602v1173q0 15 17 15h57q14 0 14 -15v-1173h76q21 0 21 -25v-307q-1 -13 -5.5 -18t-13.5 -5h-47q-18 0 -18 23v256h-777q-16 0 -16 14z" />
<glyph unicode="&#x427;" horiz-adv-x="991" d="M100 877v374q0 15 15 15h57q16 0 16 -15v-336q0 -313 291 -313q84 0 165.5 39.5t135.5 106.5v503q0 15 15 15h53q18 0 18 -15v-1239q0 -12 -16 -12h-55q-17 0 -17 14v629l-4 4q-52 -55 -139.5 -91t-169.5 -36q-89 0 -159.5 28t-115 77t-67.5 113t-23 139z" />
<glyph unicode="&#x428;" horiz-adv-x="1529" d="M133 14v1235q0 15 17 15h57q14 0 14 -15v-1173h492v1173q0 15 14 15h57q17 0 17 -15v-1173h508v1173q0 15 14 15h57q15 0 15 -15v-1237q0 -12 -15 -12h-1230q-17 0 -17 14z" />
<glyph unicode="&#x429;" horiz-adv-x="1542" d="M133 14v1235q0 15 17 15h57q14 0 14 -15v-1173h492v1173q0 15 14 15h57q17 0 17 -15v-1173h508v1173q0 15 14 15h57q15 0 15 -15q0 -195 1 -586t1 -587h76q20 0 20 -25v-307q0 -23 -18 -23h-48q-18 0 -18 23v256h-1259q-17 0 -17 14z" />
<glyph unicode="&#x42a;" horiz-adv-x="1230" d="M23 1198v49q0 15 14 15h467q16 0 16 -15v-551h309q163 0 261 -89t98 -261q0 -81 -30 -148.5t-78 -109.5t-105 -65t-113 -23h-409q-21 0 -21 16v1168h-395q-14 0 -14 14zM520 78h330q112 0 182 78.5t70 189.5q0 119 -68.5 195.5t-183.5 76.5h-330v-540z" />
<glyph unicode="&#x42b;" horiz-adv-x="1241" d="M125 16v1233q0 15 16 15h56q16 0 16 -15v-553h340q153 0 240.5 -98t87.5 -252q0 -149 -93 -247.5t-245 -98.5h-400q-18 0 -18 16zM213 78h330q112 0 182 78.5t70 189.5q0 119 -68.5 195.5t-183.5 76.5h-330v-540zM1028 12v1237q0 15 16 15h60q14 0 14 -15v-1235 q0 -14 -14 -14h-60q-16 0 -16 12z" />
<glyph unicode="&#x42c;" horiz-adv-x="921" d="M125 16v1233q0 15 16 15h56q16 0 16 -15v-553h340q153 0 240.5 -98t87.5 -252q0 -149 -93 -247.5t-245 -98.5h-400q-18 0 -18 16zM213 78h330q112 0 182 78.5t70 189.5q0 119 -68.5 195.5t-183.5 76.5h-330v-540z" />
<glyph unicode="&#x42d;" horiz-adv-x="862" d="M68 119q-12 15 4 28l32 27q9 6 15 4t18 -16q38 -44 104.5 -71.5t133.5 -27.5q134 0 208 75t74 188v303h-428q-14 0 -14 14v47q0 17 16 17h426v239q0 114 -67.5 184t-198.5 70q-71 0 -140.5 -27t-107.5 -75q-11 -13 -26 -4l-35 30q-17 12 -2 27q51 64 137 95.5t180 31.5 q173 0 260.5 -90.5t87.5 -237.5v-626q0 -152 -99 -245t-271 -93q-196 0 -307 133z" />
<glyph unicode="&#x42e;" horiz-adv-x="1302" d="M125 14v1235q0 15 16 15h58q14 0 14 -15v-559h258v268q0 144 99 232t253 88q156 0 256.5 -86.5t100.5 -233.5v-651q0 -149 -97.5 -235t-257.5 -86q-159 0 -256.5 86.5t-97.5 234.5v305h-258v-598q0 -14 -14 -14h-58q-16 0 -16 14zM559 311q0 -109 74.5 -178.5 t191.5 -69.5q115 0 192 64.5t77 183.5v643q0 106 -75.5 176t-193.5 70q-116 0 -191 -69.5t-75 -176.5v-643z" />
<glyph unicode="&#x42f;" horiz-adv-x="968" d="M57 10q0 5 4 13l244 522q8 17 -4 24q-92 55 -140 146.5t-48 206.5q0 154 94.5 247t257.5 93h360q9 0 15 -5.5t6 -13.5v-1231q0 -12 -17 -12h-55q-16 0 -16 14v539h-352l-246 -533q-4 -12 -11 -16t-22 -4h-53q-17 0 -17 10zM203 911q0 -105 58.5 -193.5t141.5 -88.5h357 v557h-266q-82 0 -142 -25t-91 -67t-44.5 -87t-13.5 -96z" />
<glyph unicode="&#x430;" horiz-adv-x="782" d="M57 283q0 132 82.5 218.5t229.5 86.5q156 0 229 -103h4v119q0 223 -223 223q-49 0 -113.5 -12.5t-103.5 -30.5q-14 -10 -21 7l-18 43q-3 12 10 18q105 51 252 51q158 0 230.5 -77t72.5 -228v-584q0 -14 -14 -14h-53q-13 0 -13 12v92h-2q-38 -52 -107.5 -83t-146.5 -31 q-139 0 -217 80t-78 213zM137 287q0 -102 56.5 -165t171.5 -63q101 0 167 67.5t66 164.5t-62 163t-165 66q-109 0 -171.5 -67t-62.5 -166z" />
<glyph unicode="&#x431;" horiz-adv-x="862" d="M100 317v385q0 455 394 562q76 18 194 55q23 6 25 -10l14 -45q2 -14 -18 -21q-26 -10 -60 -19.5t-79.5 -20t-69.5 -17.5q-107 -31 -179 -102.5t-101.5 -153.5t-31.5 -176h5q42 53 111 84.5t149 31.5q147 0 229 -88t82 -235v-232q0 -151 -87.5 -238t-246.5 -87 q-158 0 -244 85t-86 242zM184 319q0 -121 64.5 -189.5t179.5 -68.5t183.5 69.5t68.5 186.5v228q0 111 -64.5 181.5t-179.5 70.5q-111 0 -181.5 -72t-70.5 -180v-226z" />
<glyph unicode="&#x432;" horiz-adv-x="849" d="M111 18v854q0 19 16 19h350q113 0 185.5 -61.5t72.5 -167.5q0 -55 -32.5 -109t-92.5 -80v-4q69 -27 108.5 -89.5t39.5 -133.5q0 -113 -73.5 -179.5t-201.5 -66.5h-354q-18 0 -18 18zM190 74h287q96 0 146.5 47.5t50.5 124.5q0 80 -56 133t-147 53h-281v-358zM190 502h277 q80 0 130 43.5t50 113.5q0 69 -49 113.5t-135 44.5h-273v-315z" />
<glyph unicode="&#x433;" horiz-adv-x="669" d="M96 18v854q0 19 21 19h522q16 0 16 -19v-36q0 -19 -16 -19h-459v-799q0 -18 -16 -18h-49q-19 0 -19 18z" />
<glyph unicode="&#x434;" horiz-adv-x="878" d="M16 43q0 21 17 25l41 10q90 55 108 250l6 61q9 87 17.5 239t15.5 238q0 21 23 21h493q11 0 15 -3.5t4 -13.5v-798h51q16 0 16 -21v-256q0 -14 -3.5 -18t-12.5 -4h-41q-10 0 -13.5 4t-4.5 18v205h-656v-205q0 -14 -4 -18t-14 -4h-41q-10 0 -13.5 4t-3.5 18v248zM176 76 q2 -2 2 -4h496v741h-379q-25 -324 -31 -432q-6 -100 -24 -177t-64 -128z" />
<glyph unicode="&#x435;" horiz-adv-x="835" d="M98 311v258q0 151 94 241.5t236 90.5q149 0 241.5 -88t92.5 -252v-88q0 -17 -8.5 -26t-20.5 -9h-551v-125q0 -111 64 -181.5t186 -70.5q129 0 213 101q12 15 27 6l33 -23q15 -8 8 -22q-91 -133 -283 -133q-154 0 -243 87t-89 234zM182 510h494v70q0 109 -67 178t-181 69 q-105 0 -175.5 -68.5t-70.5 -176.5v-72z" />
<glyph unicode="&#x436;" horiz-adv-x="1366" d="M78 16l10 207q2 62 18 115.5t48 102t89.5 77t135.5 29.5q40 0 63 -4v4l-331 319q-4 3 -3.5 13t11.5 10h67q16 0 29 -10q300 -296 416 -414q1 0 3 1t3 1v412q0 12 12 12h60q14 0 14 -14v-414h6l416 416q13 10 29 10h71q12 0 12 -8q0 -7 -12 -19l-327 -315l4 -4q20 4 59 4 q78 -1 135 -29.5t88.5 -77t47.5 -101.5t20 -116l8 -207q0 -16 -16 -16h-54q-16 0 -16 14l-10 209q-2 50 -14.5 92t-38 79.5t-73.5 59t-114 21.5q-111 0 -166 -71.5t-55 -176.5v-215q0 -12 -16 -12h-58q-12 0 -12 12v256q-3 87 -66 147t-157 60q-65 0 -112.5 -21.5t-73 -59 t-38 -79.5t-14.5 -92l-10 -209q0 -14 -16 -14h-54q-18 0 -18 16z" />
<glyph unicode="&#x437;" horiz-adv-x="741" d="M37 121q-8 16 8 26l41 27q15 7 23 -6q81 -107 208 -107q42 0 80.5 9.5t76 31t60.5 63t23 99.5q0 77 -51.5 123.5t-116.5 46.5h-143q-15 0 -15 15v45q0 14 15 14h135q65 0 114.5 35.5t49.5 113.5q0 86 -60.5 126t-148.5 40q-58 0 -114 -27t-93 -73q-15 -15 -27 -6l-41 31 q-13 10 -2 24q112 129 283 129q140 0 216.5 -64t76.5 -180q0 -54 -32.5 -109t-90.5 -75l-2 -6q43 -16 72.5 -43t42.5 -59t17.5 -55.5t4.5 -47.5q0 -127 -86.5 -201.5t-236.5 -74.5q-192 0 -287 135z" />
<glyph unicode="&#x438;" horiz-adv-x="860" d="M104 16v856q0 17 17 17h51q16 0 16 -17v-727h7q81 123 460 727q11 17 33 17h47q19 0 19 -17v-856q0 -16 -19 -16h-49q-18 0 -18 16v729q-1 0 -2 1.5t-2 1.5q-100 -156 -465 -734q-6 -10 -10.5 -12t-16.5 -2h-51q-17 0 -17 16z" />
<glyph unicode="&#x439;" horiz-adv-x="854" d="M104 16v856q0 17 17 17h51q16 0 16 -17v-727h7q81 123 460 727q11 17 33 17h47q19 0 19 -17v-856q0 -16 -19 -16h-49q-18 0 -18 16v729q-1 0 -2 1.5t-2 1.5q-100 -156 -465 -734q-6 -10 -10.5 -12t-16.5 -2h-51q-17 0 -17 16zM199 1253q0 13 12 13h27q4 0 7 -1t5 -5.5 t3 -6t3 -8.5q13 -66 59.5 -103.5t108.5 -37.5q60 0 109 38t61 103q1 2 1.5 5t1 4.5t1.5 3.5t2 3.5t3 2.5t4 1.5t5 0.5h25q14 0 14 -13q-1 -97 -69.5 -160t-159.5 -63q-88 0 -155 63t-68 160z" />
<glyph unicode="&#x43a;" horiz-adv-x="831" d="M106 12v862q0 15 15 15h57q15 0 15 -15v-425q1 0 2 -1.5t2 -1.5q76 75 438 433q13 10 27 10h73q10 0 10 -10q0 -7 -4 -11l-340 -333q39 4 82 4q123 -3 196 -88.5t81 -227.5l10 -207q0 -16 -18 -16h-52q-16 0 -16 14l-10 209q-12 246 -240 246q-103 0 -172 -70t-69 -161 v-226q0 -12 -15 -12h-57q-15 0 -15 12z" />
<glyph unicode="&#x43b;" horiz-adv-x="833" d="M8 23q-5 12 15 22q59 30 81 52q66 67 83 273q8 92 8 218v286q0 17 20 17h496q14 0 14 -17v-860q0 -16 -14 -16h-56q-16 0 -16 16v801h-360v-225q0 -108 -6.5 -194t-17 -145.5t-29 -105.5t-35.5 -73t-44.5 -47.5t-48.5 -30.5t-53 -21q-13 -2 -20 11z" />
<glyph unicode="&#x43c;" horiz-adv-x="1054" d="M104 16v854q0 19 19 19h47q22 0 29 -17q117 -253 196 -428l129 -282h4l99 219l223 489q14 19 29 19h51q18 0 18 -19v-852q0 -18 -18 -18h-47q-21 0 -21 16v686h-6l-90 -204l-197 -416l-2.5 -5t-2.5 -4.5t-3 -3.5t-4 -3t-5 -2t-7 -1h-39q-18 0 -29 19l-217 469 q-13 26 -34.5 78.5t-30.5 72.5q-1 0 -3.5 -1t-3.5 -1v-682q0 -18 -18 -18h-45q-21 0 -21 16z" />
<glyph unicode="&#x43d;" horiz-adv-x="856" d="M106 16v858q0 7 5.5 12t13.5 5h49q19 0 19 -17v-378h471v378q0 17 18 17h47q21 0 21 -17v-856q0 -18 -21 -18h-45q-20 0 -20 16v410h-471v-408q0 -18 -21 -18h-45q-21 0 -21 16z" />
<glyph unicode="&#x43e;" horiz-adv-x="862" d="M100 315v263q0 146 90 234.5t244 88.5q153 0 241.5 -87.5t88.5 -238.5v-256q0 -156 -87 -242.5t-243 -86.5q-159 0 -246.5 87t-87.5 238zM184 317q0 -119 64.5 -187.5t185.5 -68.5t183.5 68.5t62.5 189.5v254q0 113 -63.5 183.5t-182.5 70.5q-109 0 -179.5 -71.5 t-70.5 -180.5v-258z" />
<glyph unicode="&#x43f;" horiz-adv-x="874" d="M104 12v865q0 14 15 14h637q14 0 14 -14v-863q0 -14 -14 -14h-58q-14 0 -14 12v803h-494v-801q0 -14 -14 -14h-57q-15 0 -15 12z" />
<glyph unicode="&#x440;" horiz-adv-x="870" d="M113 -356v1233q0 14 14 14h53q13 0 13 -14v-97l6 -2q42 59 111.5 91t146.5 32q150 0 234.5 -87t84.5 -234v-256q0 -64 -18.5 -122t-56 -106.5t-102 -77t-148.5 -28.5q-79 0 -144.5 29t-101.5 81l-6 -2v-454q0 -13 -15 -13h-57q-14 0 -14 13zM197 322q0 -108 68 -183.5 t179 -75.5q125 0 186.5 74t61.5 185v253q0 112 -65 182t-181 70q-109 0 -179 -70t-70 -177v-258z" />
<glyph unicode="&#x441;" horiz-adv-x="759" d="M92 313v262q0 146 94.5 236t241.5 90q177 0 274 -129q10 -16 -4 -24l-36 -31q-12 -9 -27 6q-35 49 -90.5 76.5t-118.5 27.5q-108 0 -179 -70.5t-71 -178.5v-265q0 -114 70.5 -182t181.5 -68q135 0 211 103q9 15 23 4l36 -23q16 -12 9 -26q-92 -131 -281 -131 q-155 0 -244.5 87.5t-89.5 235.5z" />
<glyph unicode="&#x442;" horiz-adv-x="710" d="M27 836v36q0 19 22 19h615q20 0 20 -19v-36q0 -19 -20 -19h-267v-799q0 -10 -3.5 -14t-14.5 -4h-47q-8 0 -15.5 5t-7.5 13v799h-260q-22 0 -22 19z" />
<glyph unicode="&#x443;" horiz-adv-x="739" d="M16 872q-4 19 15 19h51q16 0 24 -17q22 -71 73 -242.5t92 -303.5t81 -256h6q44 129 134.5 400t134.5 400q5 19 22 19h49q20 0 17 -19l-412 -1224q-4 -23 -31 -23h-41q-21 0 -14 25l115 350h-23q-19 0 -24 18z" />
<glyph unicode="&#x444;" horiz-adv-x="1036" d="M98 342v211q0 161 99 253t278 101v383q0 15 14 15h52q14 0 14 -15v-383q177 -9 279 -102.5t102 -257.5v-199q0 -163 -102.5 -256.5t-278.5 -101.5v-344q0 -15 -14 -15h-52q-14 0 -14 13v346q-180 9 -278.5 99t-98.5 253zM184 340q0 -126 75 -197t214 -80v766 q-140 -11 -214.5 -80t-74.5 -194v-215zM553 63q142 9 220.5 80.5t78.5 202.5v203q0 260 -299 282v-768z" />
<glyph unicode="&#x445;" horiz-adv-x="702" d="M18 16l283 451q-63 105 -252 403q-9 19 10 19h56q14 0 19.5 -2.5t12.5 -14.5q40 -69 107.5 -176t95.5 -157h6l201 333q6 11 12 14t21 3h55q8 0 11 -5.5t-1 -13.5l-252 -401l285 -453q8 -16 -10 -16h-57q-22 0 -33 16l-234 381h-4l-231 -381q-11 -16 -35 -16h-55 q-19 0 -11 16z" />
<glyph unicode="&#x446;" horiz-adv-x="876" d="M104 18v854q0 17 21 17h47q18 0 18 -17v-800h474v798q0 19 16 19h49q19 0 19 -17v-800h65q16 0 16 -23v-252q0 -24 -14 -24h-45q-9 0 -12.5 4.5t-3.5 19.5v203h-631q-19 0 -19 18z" />
<glyph unicode="&#x447;" horiz-adv-x="837" d="M68 684v195q0 12 12 12h59q15 0 15 -12v-197q0 -62 10.5 -109t35.5 -87.5t73 -61.5t118 -21q89 0 170.5 52t81.5 129v295q0 12 14 12h58q14 0 14 -12v-867q0 -12 -14 -12h-58q-12 0 -12 12v422h-6q-52 -51 -124 -77.5t-144 -26.5t-126.5 20t-87.5 52t-53.5 79t-28 95.5 t-7.5 107.5z" />
<glyph unicode="&#x448;" horiz-adv-x="1308" d="M104 16v856q0 17 21 17h47q18 0 18 -17v-800h414v800q0 17 19 17h49q18 0 18 -17v-800h426v800q0 17 21 17h45q12 0 15 -3.5t3 -13.5v-854q0 -18 -22 -18h-1053q-21 0 -21 16z" />
<glyph unicode="&#x449;" horiz-adv-x="1337" d="M106 16v856q0 19 19 19h47q18 0 18 -19v-798h414v798q0 19 19 19h49q20 0 20 -19v-798h428v798q0 19 19 19h49q11 0 14.5 -4.5t3.5 -14.5v-798h66q18 -2 18 -23v-254q0 -26 -16 -26h-45q-17 0 -17 26v203h-1085q-21 0 -21 16z" />
<glyph unicode="&#x44a;" horiz-adv-x="1046" d="M18 836v36q0 17 21 17h360q21 0 21 -17v-325h293q131 0 204.5 -73.5t73.5 -201.5q0 -111 -72 -191.5t-200 -80.5h-363q-22 0 -22 18v799h-295q-21 0 -21 19zM420 72h299q90 0 139 60.5t49 139.5q0 82 -51 141.5t-137 59.5h-299v-401z" />
<glyph unicode="&#x44b;" horiz-adv-x="1060" d="M104 18v854q0 7 6.5 12t14.5 5h45q23 0 23 -17v-325h299q122 0 196 -81t74 -194q0 -109 -74 -190.5t-196 -81.5h-365q-23 0 -23 18zM193 72h299q84 0 136 62t52 138q0 81 -51.5 141t-136.5 60h-299v-401zM866 16v856q0 7 7 12t16 5h45q20 0 20 -17v-854q0 -11 -4 -14.5 t-16 -3.5h-45q-23 0 -23 16z" />
<glyph unicode="&#x44c;" horiz-adv-x="817" d="M104 18v854q0 7 6.5 12t14.5 5h45q23 0 23 -17v-325h299q122 0 196 -81t74 -194q0 -109 -74 -190.5t-196 -81.5h-365q-23 0 -23 18zM193 72h299q84 0 136 62t52 138q0 81 -51.5 141t-136.5 60h-299v-401z" />
<glyph unicode="&#x44d;" horiz-adv-x="747" d="M29 121q-7 15 8 26l41 23q14 10 22 -4q76 -103 207 -103q111 0 181.5 68t70.5 182v111h-381q-10 0 -10 12v49q0 13 12 13h379v80q0 113 -59.5 181t-177.5 68q-131 0 -205 -104q-15 -15 -27 -6l-41 31q-14 8 -4 24q47 62 121.5 95.5t163.5 33.5q151 0 232 -87.5t81 -238.5 v-262q0 -148 -89.5 -235.5t-244.5 -87.5q-188 0 -280 131z" />
<glyph unicode="&#x44e;" horiz-adv-x="1097" d="M106 18v854q0 19 19 19h47q18 0 18 -17v-378h189v82q0 147 82.5 235t230.5 88q149 0 229 -86.5t80 -239.5v-256q0 -159 -78 -244t-231 -85q-156 0 -234.5 86t-78.5 239v109h-189v-406q0 -10 -4 -14t-14 -4h-47q-19 0 -19 18zM465 317q0 -119 59 -187.5t168 -68.5 q112 0 169 68.5t57 189.5v254q0 113 -58.5 183.5t-167.5 70.5q-106 0 -166.5 -70t-60.5 -182v-258z" />
<glyph unicode="&#x44f;" horiz-adv-x="825" d="M51 10q0 9 4 15l168 346q4 8 4 10q0 1 -1 2t-1 2q-61 44 -100 113t-39 141q0 113 66 182.5t184 69.5h356q12 0 19.5 -7.5t7.5 -15.5v-848q0 -20 -19 -20h-49q-11 0 -14.5 4t-3.5 16v353h-318l-168 -353q-5 -9 -7 -12t-7.5 -5.5t-15.5 -2.5h-49q-17 0 -17 10zM172 633 q0 -25 14 -66t47 -79.5t74 -38.5h326v368h-289q-41 0 -72 -11.5t-49.5 -29.5t-30.5 -43t-16 -49t-4 -51z" />
<glyph unicode="&#x451;" horiz-adv-x="835" d="M98 311v258q0 151 94 241.5t236 90.5q149 0 241.5 -88t92.5 -252v-88q0 -17 -8.5 -26t-20.5 -9h-551v-125q0 -111 64 -181.5t186 -70.5q129 0 213 101q12 15 27 6l33 -23q15 -8 8 -22q-91 -133 -283 -133q-154 0 -243 87t-89 234zM182 510h494v70q0 109 -67 178t-181 69 q-105 0 -175.5 -68.5t-70.5 -176.5v-72zM207 1153q0 26 17 43.5t42 17.5t42.5 -17.5t17.5 -43.5t-18 -43.5t-42 -17.5q-25 0 -42 18t-17 43zM520 1153q0 26 17.5 43.5t42.5 17.5t43 -17.5t18 -43.5q0 -25 -17 -43t-42 -18q-26 0 -44 18t-18 43z" />
<glyph unicode="&#x452;" horiz-adv-x="927" d="M55 1069v31q0 14 13 14h94v176q0 15 14 15h57q13 0 13 -15v-176h411q15 0 15 -14v-31q0 -14 -15 -14h-411v-273l6 -2q98 121 258 121q83 0 146 -28t99 -76t54 -106.5t18 -125.5v-260q0 -48 -9.5 -93.5t-33 -90t-59 -78.5t-92 -56t-127.5 -24h-33q-24 0 -24 19v36 q0 17 20 17h25q67 2 116.5 26t77 63t40.5 84.5t13 98.5v260q0 111 -63.5 185.5t-183.5 74.5q-107 0 -176.5 -74t-69.5 -182v-557q0 -14 -15 -14h-57q-14 0 -14 12v1043h-94q-13 0 -13 14z" />
<glyph unicode="&#x453;" horiz-adv-x="657" d="M96 18v854q0 19 21 19h522q16 0 16 -19v-36q0 -19 -16 -19h-459v-799q0 -18 -16 -18h-49q-19 0 -19 18zM299 1044l139 254q14 24 37 11l43 -27q14 -8 14 -18q0 -3 -6 -15l-178 -237q-11 -15 -26 -6l-19 12q-13 8 -4 26z" />
<glyph unicode="&#x454;" horiz-adv-x="751" d="M82 311v262q0 144 94.5 235t237.5 91q180 0 278 -127q12 -15 -4 -27l-31 -22q-14 -10 -20 -8.5t-19 14.5q-48 48 -94 72t-108 24q-105 0 -177.5 -71t-72.5 -176v-82h381q12 0 12 -13v-49q0 -12 -10 -12h-383v-111q0 -110 71 -180t181 -70q135 0 209 103q8 14 22 4l39 -23 q11 -7 12 -12t-4 -14q-90 -129 -280 -129q-156 0 -245 87t-89 234z" />
<glyph unicode="&#x455;" horiz-adv-x="696" d="M49 152q-8 12 6 18l45 23q11 6 21 -9q31 -56 94 -90.5t133 -34.5q94 0 152.5 44.5t58.5 117.5q0 40 -15.5 70.5t-47 53.5t-57 35.5t-68.5 29.5q-7 3 -37.5 14t-41 15t-39 16t-41 19t-36 21t-35 25.5t-27.5 29t-23.5 35t-13 39.5t-5.5 46q0 73 41.5 127t103 78.5 t133.5 25.5q82 0 152.5 -26.5t115.5 -75.5q10 -13 -2 -25l-28 -33q-12 -13 -27 2q-40 38 -97 61t-114 23q-43 0 -84.5 -13.5t-75.5 -49.5t-34 -88q0 -26 8.5 -47.5t28.5 -40t35.5 -30.5t48 -26t46 -19.5t48.5 -18.5q36 -14 58 -23t54 -24.5t52 -29t43 -34.5t35.5 -43.5 t21 -52.5t8.5 -64q0 -96 -76.5 -165.5t-220.5 -69.5q-96 0 -177.5 42t-119.5 122z" />
<glyph unicode="&#x456;" horiz-adv-x="352" d="M111 1151q0 26 18 43.5t43 17.5q26 0 43.5 -17.5t17.5 -43.5t-18 -45t-43 -19t-43 18.5t-18 45.5zM127 12v865q0 14 14 14h58q14 0 14 -14v-865q0 -12 -14 -12h-58q-14 0 -14 12z" />
<glyph unicode="&#x457;" horiz-adv-x="352" d="M-45 1149q0 26 17 43.5t42 17.5t42.5 -17.5t17.5 -43.5t-17.5 -44t-42.5 -18q-24 0 -41.5 18.5t-17.5 43.5zM127 12v865q0 14 14 14h58q14 0 14 -14v-865q0 -12 -14 -12h-58q-14 0 -14 12zM270 1149q0 26 17.5 43.5t42.5 17.5t42 -17.5t17 -43.5q0 -25 -17.5 -43.5 t-41.5 -18.5q-25 0 -42.5 18.5t-17.5 43.5z" />
<glyph unicode="&#x458;" horiz-adv-x="335" d="M-100 -336l10 45q3 13 20 10q27 -8 74 -8q73 0 100 39t27 125v1002q0 14 14 14h58q14 0 14 -14v-1008q0 -118 -50.5 -177t-156.5 -59q-61 0 -98 13q-15 3 -12 18zM113 1151q0 26 18 43.5t43 17.5q26 0 44 -17.5t18 -43.5t-18 -45t-42 -19q-26 0 -44.5 18.5t-18.5 45.5z " />
<glyph unicode="&#x459;" horiz-adv-x="1275" d="M8 23q-5 12 15 22l6 3q26 13 38.5 20.5t33.5 26t31.5 40.5t24.5 62t20 91.5t11 127.5t5 172v286q0 17 18 17h418q20 0 20 -19v-323h303q124 0 196.5 -81t72.5 -194q0 -110 -73.5 -192t-195.5 -82h-366q-9 0 -16 5.5t-7 14.5v797h-289v-227q0 -108 -6.5 -194t-16.5 -146 t-27.5 -105.5t-34.5 -72.5t-43.5 -47.5t-47.5 -30.5t-53 -21q-13 -2 -20 11zM649 74h303q83 0 135 62t52 138q0 81 -50 140t-137 59h-303v-399z" />
<glyph unicode="&#x45a;" horiz-adv-x="1286" d="M104 16v856q0 9 6.5 14t14.5 5h47q21 0 21 -19v-340h382v340q0 17 23 17h43q21 0 21 -19v-338h301q120 0 194 -78t74 -188q0 -103 -65 -180t-173 -84q-27 -2 -80 -2h-313q-25 0 -25 18v439h-382v-439q0 -18 -19 -18h-49q-21 0 -21 16zM662 80q16 -8 28 -8h271 q84 0 136 59t52 133q0 82 -50.5 137.5t-137.5 55.5h-299v-377z" />
<glyph unicode="&#x45b;" horiz-adv-x="897" d="M25 1069v31q0 14 12 14h94v176q0 15 14 15h58q12 0 12 -15v-176h412q14 0 14 -14v-31q0 -14 -14 -14h-412v-273l6 -2q98 121 258 121q83 0 146 -28t99.5 -76t54.5 -106.5t18 -125.5v-551q0 -14 -15 -14h-57q-14 0 -14 12v555q0 111 -64 185.5t-184 74.5 q-107 0 -176.5 -74t-69.5 -182v-557q0 -14 -14 -14h-58q-14 0 -14 12v1043h-94q-12 0 -12 14z" />
<glyph unicode="&#x45c;" horiz-adv-x="831" d="M106 12v862q0 15 15 15h57q15 0 15 -15v-425q1 0 2 -1.5t2 -1.5q76 75 438 433q13 10 27 10h73q10 0 10 -10q0 -7 -4 -11l-340 -333q39 4 82 4q123 -3 196 -88.5t81 -227.5l10 -207q0 -16 -18 -16h-52q-16 0 -16 14l-10 209q-12 246 -240 246q-103 0 -172 -70t-69 -161 v-226q0 -12 -15 -12h-57q-15 0 -15 12zM326 1044l139 254q14 24 37 11l43 -27q14 -8 14 -18q0 -3 -6 -15l-178 -237q-11 -15 -27 -6l-18 12q-13 8 -4 26z" />
<glyph unicode="&#x45e;" horiz-adv-x="739" d="M16 872q-4 19 15 19h51q16 0 24 -17q22 -71 73 -242.5t92 -303.5t81 -256h6q44 129 134.5 400t134.5 400q5 19 22 19h49q20 0 17 -19l-412 -1224q-4 -23 -31 -23h-41q-21 0 -14 25l115 350h-23q-19 0 -24 18zM133 1257q0 13 12 13h25q5 0 8.5 -1t5.5 -5.5t3 -6t3 -8.5 q12 -66 59 -103.5t109 -37.5q60 0 109 38t61 103q0 1 1.5 4.5t2 5t1.5 4t2 3t3 2t4 2t5 0.5h24q15 0 15 -13q-1 -98 -70.5 -160.5t-159.5 -62.5q-88 0 -155 63t-68 160z" />
<glyph unicode="&#x45f;" horiz-adv-x="876" d="M106 18v854q0 17 21 17h45q21 0 21 -19v-796h493v798q0 17 19 17h47q20 0 20 -19v-852q0 -18 -20 -18h-273v-221q0 -23 -18 -23h-45q-17 0 -17 23v221h-272q-21 0 -21 18z" />
<glyph unicode="&#x462;" horiz-adv-x="921" d="M10 965v45q0 14 15 14h100v225q0 15 16 15h56q16 0 16 -15v-225h336q14 0 14 -14v-45q0 -15 -14 -15h-336v-254h340q153 0 240.5 -98t87.5 -252q0 -149 -93 -247.5t-245 -98.5h-400q-18 0 -18 16v934h-100q-15 0 -15 15zM213 78h330q112 0 182 78.5t70 189.5 q0 119 -68.5 195.5t-183.5 76.5h-330v-540z" />
<glyph unicode="&#x463;" horiz-adv-x="817" d="M2 909v41q0 17 16 17h86v319q0 9 6.5 14t14.5 5h45q23 0 23 -19v-319h315q14 0 14 -15v-43q0 -14 -14 -14h-315v-348h299q122 0 196 -81t74 -194q0 -109 -74 -190.5t-196 -81.5h-365q-23 0 -23 18v877h-86q-16 0 -16 14zM193 72h299q84 0 136 62t52 138q0 81 -51.5 141 t-136.5 60h-299v-401z" />
<glyph unicode="&#x472;" horiz-adv-x="983" d="M109 317v627q0 148 104 241t276 93q179 0 282 -91t103 -243v-627q0 -151 -102.5 -240t-279.5 -89q-175 0 -279 90t-104 239zM199 322q0 -112 79.5 -186.5t213.5 -74.5q133 0 213.5 70.5t80.5 190.5v618q0 111 -78.5 185.5t-215.5 74.5q-131 0 -212 -69.5t-81 -190.5v-618 zM272 618v50q0 14 11 14h422q12 0 12 -14v-50q0 -12 -10 -12h-424q-11 0 -11 12z" />
<glyph unicode="&#x473;" horiz-adv-x="862" d="M100 315v263q0 146 90 234.5t244 88.5q153 0 241.5 -87.5t88.5 -238.5v-256q0 -156 -87 -242.5t-243 -86.5q-159 0 -246.5 87t-87.5 238zM150 422v72h571v-72h-571zM184 317q0 -119 64.5 -187.5t185.5 -68.5t183.5 68.5t62.5 189.5v254q0 113 -63.5 183.5t-182.5 70.5 q-109 0 -179.5 -71.5t-70.5 -180.5v-258z" />
<glyph unicode="&#x48c;" horiz-adv-x="921" d="M10 965v45q0 14 15 14h100v225q0 15 16 15h56q16 0 16 -15v-225h336q14 0 14 -14v-45q0 -15 -14 -15h-336v-254h340q153 0 240.5 -98t87.5 -252q0 -149 -93 -247.5t-245 -98.5h-400q-18 0 -18 16v934h-100q-15 0 -15 15zM213 78h330q112 0 182 78.5t70 189.5 q0 119 -68.5 195.5t-183.5 76.5h-330v-540z" />
<glyph unicode="&#x48d;" horiz-adv-x="817" d="M2 909v41q0 17 16 17h86v319q0 9 6.5 14t14.5 5h45q23 0 23 -19v-319h315q14 0 14 -15v-43q0 -14 -14 -14h-315v-348h299q122 0 196 -81t74 -194q0 -109 -74 -190.5t-196 -81.5h-365q-23 0 -23 18v877h-86q-16 0 -16 14zM193 72h299q84 0 136 62t52 138q0 81 -51.5 141 t-136.5 60h-299v-401z" />
<glyph unicode="&#x490;" horiz-adv-x="817" d="M141 12v1237q0 15 17 15h555l28 233q3 23 19 23h24q15 0 15 -23v-297q0 -12 -13 -12h-559q2 -547 2 -1174q0 -14 -14 -14h-59q-15 0 -15 12z" />
<glyph unicode="&#x491;" horiz-adv-x="669" d="M94 16v854q0 19 21 19h456l19 192q5 21 28 21h15q13 0 16.5 -4.5t3.5 -20.5v-241q0 -19 -18 -19h-451v-799q0 -18 -18 -18h-53q-19 0 -19 16z" />
<glyph unicode="&#x492;" horiz-adv-x="813" d="M2 625v49q0 16 14 16h109v557q0 17 18 17h639q15 0 15 -15v-49q0 -14 -15 -14h-567v-496h481q15 0 15 -16v-49q0 -15 -15 -15h-481v-596q0 -14 -14 -14h-60q-16 0 -16 14v596h-109q-14 0 -14 15z" />
<glyph unicode="&#x493;" horiz-adv-x="669" d="M0 438v43q0 15 14 15h80v374q0 19 21 19h522q18 0 18 -17v-36q0 -19 -18 -19h-457v-321h328q14 0 14 -15v-43q0 -14 -14 -14h-328v-406q0 -18 -18 -18h-49q-19 0 -19 16v408h-80q-14 0 -14 14z" />
<glyph unicode="&#x496;" horiz-adv-x="1562" d="M90 10l29 377q4 56 13 99.5t31 91t56 79t92 52t135 20.5q44 0 109 -12l6 6l-440 520q-6 3 -6 10q0 9 16 9h59q15 0 25 -13l512 -596h6v592q0 19 15 19h59q14 0 14 -19v-592q1 0 3 -1t3 -1l510 598q13 13 25 13h61q15 0 15 -9q0 -6 -4 -10l-443 -520q0 -2 4 -6 q59 12 105 12q76 0 134 -19.5t93 -50t58 -75.5t33 -89t14 -98l22 -319h41q18 0 18 -27v-307q-1 -15 -5 -20t-13 -5h-45q-11 0 -14.5 5t-3.5 20v256h-41q-15 0 -15 14l-28 373q-2 35 -6 60.5t-13.5 60.5t-27.5 59t-45 46.5t-70 34t-99 11.5q-76 0 -130.5 -22.5t-83 -62.5 t-40.5 -84t-12 -97v-379q0 -14 -14 -14h-59q-15 0 -15 14v365q0 57 -9.5 101t-35.5 87.5t-82 67.5t-139 24q-67 0 -116.5 -18t-76.5 -43.5t-44 -66t-22.5 -71.5t-8.5 -73l-27 -373q0 -9 -3 -11.5t-11 -2.5h-54q-14 0 -14 10z" />
<glyph unicode="&#x497;" horiz-adv-x="1368" d="M78 16l10 207q2 62 18 115.5t48 102t89.5 77t135.5 29.5q40 0 63 -4v4l-331 319q-4 3 -3.5 13t11.5 10h67q16 0 29 -10q300 -296 416 -414q1 0 3 1t3 1v412q0 12 12 12h60q14 0 14 -14v-414h6l416 416q13 10 29 10h71q12 0 12 -8q0 -7 -12 -19l-327 -315l4 -4q20 4 59 4 q78 -1 135.5 -29.5t89.5 -77t48 -102t18 -115.5l6 -149h31q16 0 16 -23v-254q0 -26 -16 -26h-43q-17 0 -17 26v203h-39q-16 0 -16 14l-10 209q-2 50 -14.5 92t-38 79.5t-73.5 59t-114 21.5q-111 0 -166 -71.5t-55 -176.5v-215q0 -12 -16 -12h-58q-12 0 -12 12v256 q-3 87 -66 147t-157 60q-65 0 -112.5 -21.5t-73 -59t-38 -79.5t-14.5 -92l-10 -209q0 -14 -16 -14h-54q-18 0 -18 16z" />
<glyph unicode="&#x49a;" horiz-adv-x="974" d="M125 14v1231q0 19 16 19h60q12 0 12 -17v-614l6 -2l545 618q13 13 24 13h64q11 0 13 -6.5t-5 -12.5l-450 -516l6 -6q55 14 119 14q299 0 323 -329l23 -328h39q18 0 18 -27v-307q0 -25 -16 -25h-48q-18 0 -18 25v256h-37q-13 0 -16 16l-27 365q-2 35 -6.5 61.5t-14.5 62 t-29 61t-47 49t-73 35.5t-102 12q-80 0 -139 -25t-91 -67.5t-46.5 -90t-14.5 -100.5v-363q0 -16 -12 -16h-60q-16 0 -16 14z" />
<glyph unicode="&#x49b;" horiz-adv-x="854" d="M106 12v862q0 15 15 15h57q15 0 15 -15v-425q1 0 2 -1.5t2 -1.5q76 75 438 433q13 10 27 10h73q10 0 10 -10q0 -7 -4 -11l-340 -333q39 4 82 4q123 -3 197 -89t80 -227l6 -149h31q16 0 16 -23v-254q0 -26 -14 -26h-45q-17 0 -17 26v203h-37q-16 0 -16 14l-10 209 q-12 246 -240 246q-103 0 -172 -70t-69 -161v-226q0 -12 -15 -12h-57q-15 0 -15 12z" />
<glyph unicode="&#x49c;" horiz-adv-x="993" d="M123 12v1233q0 19 16 19h62q12 0 12 -19v-543h88v216q0 14 14 14h43q15 0 15 -14v-216h8l446 547q11 13 25 13h57q15 0 15 -9q0 -6 -4 -10l-474 -575l523 -648q6 -8 6 -12q0 -8 -10 -8h-66q-20 0 -43 29l-475 598h-8v-234q0 -14 -15 -14h-41q-16 0 -16 14v234h-88v-613 q0 -14 -12 -14h-62q-16 0 -16 12z" />
<glyph unicode="&#x49d;" horiz-adv-x="880" d="M106 12v867q0 12 15 12h59q13 0 13 -12v-381h96v190q0 14 14 14h41q14 0 14 -14v-190h9l358 381q10 10 27 10h65q10 0 10 -8q0 -7 -6 -13l-383 -401l422 -442q8 -10 8 -17q0 -8 -12 -8h-70q-18 0 -28 10l-391 420h-9v-184q0 -15 -14 -15h-39q-16 0 -16 15v184h-96v-418 q0 -12 -15 -12h-57q-15 0 -15 12z" />
<glyph unicode="&#x4a0;" horiz-adv-x="1173" d="M23 1198v49q0 15 14 15h375q14 0 14 -17v-614q1 0 2 -1t2 -1l547 620q10 13 24 13h64q14 0 14 -9q0 -4 -6 -10l-452 -518l6 -6q63 16 118 16q303 -3 326 -332l29 -389q0 -14 -15 -14h-53q-14 0 -16 14l-29 387q-4 57 -18 100.5t-43.5 81.5t-82.5 58.5t-128 20.5 q-79 0 -137.5 -25t-90.5 -68t-46.5 -90t-14.5 -100v-365q0 -14 -14 -14h-60q-16 0 -16 12v1172h-299q-14 0 -14 14z" />
<glyph unicode="&#x4a1;" horiz-adv-x="1011" d="M18 836v36q0 17 21 17h307q16 0 16 -17v-423q1 0 3.5 -1.5t3.5 -1.5l438 433q10 10 27 10h73q11 0 11 -10q0 -6 -5 -11l-340 -333q36 4 76 4q124 0 199.5 -87t83.5 -229l10 -207q0 -16 -18 -16h-52q-16 0 -16 14l-10 209q-12 246 -240 246q-103 0 -172 -70.5t-69 -160.5 v-226q0 -12 -15 -12h-57q-14 0 -14 12v805h-240q-21 0 -21 19z" />
<glyph unicode="&#x4a2;" horiz-adv-x="1024" d="M125 14v1235q0 15 16 15h58q14 0 14 -15v-559h596v559q0 15 16 15h58q16 0 16 -15v-1171h35q18 0 18 -27v-307q0 -25 -16 -25h-47q-19 0 -19 25v256h-45q-16 0 -16 14v598h-596v-598q0 -14 -14 -14h-58q-16 0 -16 14z" />
<glyph unicode="&#x4a3;" horiz-adv-x="856" d="M106 16v858q0 7 5.5 12t13.5 5h49q19 0 19 -17v-378h471v378q0 17 18 17h47q21 0 21 -17v-800h28q17 0 17 -23v-254q0 -26 -17 -26h-43q-16 0 -16 26v203h-35q-20 0 -20 16v410h-471v-408q0 -18 -21 -18h-45q-21 0 -21 16z" />
<glyph unicode="&#x4b0;" horiz-adv-x="825" d="M29 1243q-11 21 12 21h57q15 0 25 -17l287 -653h6q9 23 141 321t145 332q11 17 27 17h57q24 0 11 -23l-330 -725q-10 -23 -10 -49v-453q0 -14 -15 -14h-57q-16 0 -16 14v443q0 31 -9 51zM106 455v45q0 14 15 14h581q17 0 17 -14v-45q0 -15 -17 -15h-581q-15 0 -15 15z " />
<glyph unicode="&#x4b1;" horiz-adv-x="757" d="M25 872q-6 19 12 19h51q21 0 27 -21l170 -497l92 -273h6l90 269l168 499q8 23 27 23h53q18 0 12 -19l-309 -872h235q15 0 15 -14v-43q0 -15 -15 -15h-237v-284q0 -13 -14 -13h-58q-14 0 -14 13v284h-238q-14 0 -14 15v41q0 16 14 16h234z" />
<glyph unicode="&#x4b2;" horiz-adv-x="878" d="M20 18l353 639l-322 586q-8 21 12 21h64q17 0 23 -11q41 -75 132 -245.5t140 -259.5h6l272 505q8 11 25 11h59q9 0 12.5 -7t-1.5 -14l-322 -584q76 -139 322 -581h41q18 0 18 -27v-307q0 -25 -16 -25h-47q-19 0 -19 25v256h-14q-19 0 -25 8l-307 563h-4l-307 -563 q-6 -8 -25 -8h-59q-20 0 -11 18z" />
<glyph unicode="&#x4b3;" horiz-adv-x="720" d="M18 16l283 451q-63 105 -252 403q-9 19 10 19h56q14 0 19.5 -2.5t12.5 -14.5q40 -69 107.5 -176t95.5 -157h6l201 333q6 11 12 14t21 3h55q8 0 11 -5.5t-1 -13.5l-252 -401l248 -395h35q19 0 19 -23v-254q0 -26 -17 -26h-45q-16 0 -16 26v203h-9q-19 0 -30 16l-234 381 h-4l-231 -381q-11 -16 -35 -16h-55q-19 0 -11 16z" />
<glyph unicode="&#x4b6;" horiz-adv-x="993" d="M100 877v374q0 15 15 15h57q16 0 16 -15v-336q0 -313 291 -313q84 0 165.5 39.5t135.5 106.5v503q0 15 15 15h53q18 0 18 -15v-1173h39q19 0 19 -27v-307q0 -25 -19 -25h-45q-11 0 -14.5 5t-3.5 20v256h-47q-17 0 -17 14v629l-4 4q-52 -55 -139.5 -91t-169.5 -36 q-89 0 -159.5 28t-115 77t-67.5 113t-23 139z" />
<glyph unicode="&#x4b7;" horiz-adv-x="837" d="M68 684v195q0 12 12 12h59q15 0 15 -12v-197q0 -62 10.5 -109t35.5 -87.5t73 -61.5t118 -21q89 0 170.5 52t81.5 129v295q0 12 14 12h58q14 0 14 -12v-805h31q16 0 16 -23v-254q0 -26 -14 -26h-45q-17 0 -17 26v203h-43q-12 0 -12 12v422h-6q-52 -51 -124 -77.5 t-144 -26.5t-126.5 20t-87.5 52t-53.5 79t-28 95.5t-7.5 107.5z" />
<glyph unicode="&#x4b8;" horiz-adv-x="991" d="M100 877v374q0 15 15 15h57q16 0 16 -15v-336q0 -313 291 -313q84 0 165.5 39.5t135.5 106.5v503q0 15 15 15h53q18 0 18 -15v-1239q0 -12 -16 -12h-55q-17 0 -17 14v629l-4 4q-52 -55 -139.5 -91t-169.5 -36q-89 0 -159.5 28t-115 77t-67.5 113t-23 139zM440 307v537 q0 16 15 16h43q14 0 14 -16v-537q0 -14 -14 -14h-41q-17 0 -17 14z" />
<glyph unicode="&#x4b9;" horiz-adv-x="837" d="M68 684v195q0 12 12 12h59q15 0 15 -12v-197q0 -62 10.5 -109t35.5 -87.5t73 -61.5t118 -21q89 0 170.5 52t81.5 129v295q0 12 14 12h58q14 0 14 -12v-867q0 -12 -14 -12h-58q-12 0 -12 12v422h-6q-52 -51 -124 -77.5t-144 -26.5t-126.5 20t-87.5 52t-53.5 79t-28 95.5 t-7.5 107.5zM358 152v454q0 17 15 17h41q14 0 14 -17v-454q0 -15 -14 -15h-41q-15 0 -15 15z" />
<glyph unicode="&#x4d8;" horiz-adv-x="966" d="M119 319v308q0 16 18 16h621v301q0 109 -77 182.5t-200 73.5q-71 0 -137 -26t-104 -76q-13 -19 -29 -6l-37 26q-13 8 -2 27q38 55 121.5 94t189.5 39q159 0 262 -92.5t103 -233.5v-635q0 -151 -104 -241t-265 -90t-260.5 93.5t-99.5 239.5zM209 322q0 -122 75 -190.5 t195 -68.5q121 0 200 71t79 188v243h-549v-243z" />
<glyph unicode="&#x4d9;" horiz-adv-x="835" d="M86 330v88q0 17 8.5 26t20.5 9h551v125q0 111 -64 181t-186 70q-130 0 -213 -100q-12 -15 -27 -6l-33 22q-16 8 -8 23q91 133 283 133q154 0 243 -87t89 -234v-258q0 -151 -94 -241.5t-236 -90.5q-149 0 -241.5 88t-92.5 252zM172 311q0 -109 67 -178.5t181 -69.5 q105 0 175.5 69t70.5 177v72h-494v-70z" />
<glyph unicode="&#x1e80;" horiz-adv-x="1304" d="M6 1245q-5 19 14 19h62q13 0 16 -17l170 -780l72 -340h8l72 336l174 788q4 13 20 13h64q15 0 18 -19q1 -6 92 -385t99 -422l69 -311h9l65 319l166 803q2 15 18 15h62q19 0 12 -23l-268 -1229q-6 -12 -19 -12h-86q-11 0 -14 12l-188 803l-66 291h-4q-57 -256 -63 -297 l-179 -797q-2 -12 -18 -12h-84q-9 0 -16 10zM430 1542l35 41q17 17 39 2l215 -192q15 -15 4 -27l-18 -18q-10 -14 -27 -2l-244 161q-25 14 -4 35z" />
<glyph unicode="&#x1e81;" horiz-adv-x="1155" d="M20 872q-6 19 13 19h53q20 0 25 -21l116 -462l72 -291h4l84 280l141 471q3 13 7.5 18t17.5 5h45q11 0 16 -4t9 -17l151 -495l78 -254h4l64 248l122 501q6 21 27 21h49q15 0 12 -17l-227 -856q-5 -18 -20 -18h-49h-11.5t-7 2t-5 5t-3.5 9l-156 502l-76 254h-4l-73 -262 l-152 -494q-5 -16 -22 -16h-50q-13 0 -18 3t-8 13zM395 1245q-18 21 11 35l45 25q24 12 36 -9l140 -254q7 -14 0 -22q-2 -2 -6 -4l-23 -12q-15 -8 -27 8z" />
<glyph unicode="&#x1e82;" horiz-adv-x="1304" d="M6 1245q-5 19 14 19h62q13 0 16 -17l170 -780l72 -340h8l72 336l174 788q4 13 20 13h64q15 0 18 -19q1 -6 92 -385t99 -422l69 -311h9l65 319l166 803q2 15 18 15h62q19 0 12 -23l-268 -1229q-6 -12 -19 -12h-86q-11 0 -14 12l-188 803l-66 291h-4q-57 -256 -63 -297 l-179 -797q-2 -12 -18 -12h-84q-9 0 -16 10zM575 1360q-9 15 3 24l223 191q17 14 30 -2l39 -47q18 -18 -4 -31l-252 -156q-15 -7 -26 4z" />
<glyph unicode="&#x1e83;" horiz-adv-x="1155" d="M20 872q-6 19 13 19h53q20 0 25 -21l116 -462l72 -291h4l84 280l141 471q3 13 7.5 18t17.5 5h45q11 0 16 -4t9 -17l151 -495l78 -254h4l64 248l122 501q6 21 27 21h49q15 0 12 -17l-227 -856q-5 -18 -20 -18h-49h-11.5t-7 2t-5 5t-3.5 9l-156 502l-76 254h-4l-73 -262 l-152 -494q-5 -16 -22 -16h-50q-13 0 -18 3t-8 13zM530 1044l140 254q14 24 37 11l43 -27q14 -8 14 -18q0 -3 -6 -15l-178 -237q-11 -15 -27 -6l-18 12q-13 9 -5 26z" />
<glyph unicode="&#x1e84;" horiz-adv-x="1304" d="M6 1245q-5 19 14 19h62q13 0 16 -17l170 -780l72 -340h8l72 336l174 788q4 13 20 13h64q15 0 18 -19q1 -6 92 -385t99 -422l69 -311h9l65 319l166 803q2 15 18 15h62q19 0 12 -23l-268 -1229q-6 -12 -19 -12h-86q-11 0 -14 12l-188 803l-66 291h-4q-57 -256 -63 -297 l-179 -797q-2 -12 -18 -12h-84q-9 0 -16 10zM426 1442q0 26 17 43.5t42 17.5t42.5 -17.5t17.5 -43.5t-17.5 -44t-42.5 -18t-42 18t-17 44zM741 1442q0 26 17.5 43.5t42.5 17.5t42 -17.5t17 -43.5t-17 -44t-42 -18t-42.5 18t-17.5 44z" />
<glyph unicode="&#x1e85;" horiz-adv-x="1155" d="M20 872q-6 19 13 19h53q20 0 25 -21l116 -462l72 -291h4l84 280l141 471q3 13 7.5 18t17.5 5h45q11 0 16 -4t9 -17l151 -495l78 -254h4l64 248l122 501q6 21 27 21h49q15 0 12 -17l-227 -856q-5 -18 -20 -18h-49h-11.5t-7 2t-5 5t-3.5 9l-156 502l-76 254h-4l-73 -262 l-152 -494q-5 -16 -22 -16h-50q-13 0 -18 3t-8 13zM356 1149q0 26 17.5 43.5t42.5 17.5t42 -17.5t17 -43.5t-17.5 -44t-41.5 -18q-25 0 -42.5 18.5t-17.5 43.5zM670 1149q0 26 17 43.5t42 17.5t43.5 -17.5t18.5 -43.5q0 -25 -17.5 -43.5t-42.5 -18.5q-26 0 -43.5 18.5 t-17.5 43.5z" />
<glyph unicode="&#x1e9e;" horiz-adv-x="927" d="M123 14v920q0 150 101 247t263 97q174 0 281 -102q14 -14 14 -25q0 -9 -6 -18l-270 -418q77 0 143.5 -21t120 -63t84.5 -113t31 -164q0 -172 -103 -269t-264 -97q-105 0 -162 22q-16 6 -10 23l12 37q7 21 25 14q58 -21 131 -21q135 0 209 80.5t74 208.5q0 134 -77 210.5 t-202 76.5h-78q-20 0 -20 18v33q0 27 12 45l256 398q-71 65 -201 65q-134 0 -205 -77.5t-71 -186.5v-920q0 -14 -14 -14h-58q-16 0 -16 14z" />
</font>
</defs>
</svg>
