<?xml version="1.0" standalone="no"?>
<!DOCTYPE svg PUBLIC "-//W3C//DTD SVG 1.1//EN" "http://www.w3.org/Graphics/SVG/1.1/DTD/svg11.dtd" >
<svg xmlns="http://www.w3.org/2000/svg" xmlns:xlink="http://www.w3.org/1999/xlink" version="1.1">
<metadata></metadata>
<defs>
<font id="pf_encore_sans_prohairlineIt" horiz-adv-x="3723" >
<font-face units-per-em="2048" ascent="1536" descent="-512" />
<missing-glyph horiz-adv-x="501" />
<glyph unicode="fj" horiz-adv-x="837" d="M125 967v12h188l39 221q26 148 107 213.5t231 65.5q63 0 144 -11l-3 -12q-74 10 -143 10q-142 0 -219.5 -62.5t-103.5 -203.5l-41 -221h464l-184 -1085q-20 -110 -56.5 -153.5t-123.5 -43.5h-12l2 12q88 0 122.5 38t53.5 147l182 1073h-450l-168 -965h-15l172 965h-186z " />
<glyph unicode="ffj" horiz-adv-x="1306" d="M123 967l2 12h172l37 211q27 159 97 224t206 65q57 0 111 -15l-5 -10q-53 12 -108 12q-133 0 -197 -61t-92 -215l-37 -211h473l45 262q26 146 109 212.5t229 66.5q63 0 144 -11l-2 -10q-74 10 -144 10q-139 0 -219 -65t-104 -205l-45 -260h460l-182 -1085 q-18 -109 -55.5 -153t-124.5 -44h-12l2 12q88 0 122.5 38t53.5 147l182 1073h-448l-205 -1149h-13l205 1149h-473l-170 -967h-12l170 967h-172z" />
<glyph unicode="fb" horiz-adv-x="1589" d="M88 -287l223 1254h-188l2 12h188l41 221q27 145 114 212t232 67q107 0 181 -9l-152 -868q62 186 174 286.5t262 100.5q167 0 254.5 -95.5t87.5 -262.5q0 -133 -32.5 -248t-94.5 -202.5t-158 -138t-216 -50.5q-152 0 -241.5 89t-80.5 255l-55 -336h-13l250 1458 q-59 8 -168 8q-139 0 -222 -63.5t-109 -202.5l-41 -221h307l-2 -12h-307l-224 -1254h-12zM694 319q0 -142 77.5 -228.5t236.5 -86.5q119 0 213.5 51t153.5 138.5t89.5 199.5t30.5 240q0 161 -83.5 252.5t-248.5 91.5q-93 0 -172 -42t-132.5 -110t-91.5 -155t-55.5 -176.5 t-17.5 -174.5z" />
<glyph unicode="ffb" horiz-adv-x="2037" d="M74 -287l221 1254h-172l2 12h172l37 211q27 159 97 224t206 65q57 0 111 -15l-5 -10q-53 12 -108 12q-133 0 -197 -61t-92 -215l-37 -211h453l41 221q27 145 114 212t232 67q106 0 180 -9l-151 -870q62 186 174.5 287.5t261.5 101.5q167 0 254.5 -95.5t87.5 -262.5 q0 -178 -56 -321t-171.5 -230.5t-274.5 -87.5q-152 0 -241 89t-80 255l-58 -336h-12l252 1458q-59 8 -168 8q-139 0 -222.5 -63.5t-109.5 -202.5l-41 -221h307l-2 -12h-307l-203 -1149h-12l203 1149h-453l-221 -1254h-12zM1143 319q0 -143 77 -229t236 -86q119 0 214 51 t153.5 138.5t89.5 200t31 239.5q0 161 -83.5 252.5t-248.5 91.5q-93 0 -172 -42t-132.5 -110t-91.5 -155t-55.5 -176.5t-17.5 -174.5z" />
<glyph unicode="fh" horiz-adv-x="1556" d="M88 -287l223 1254h-188l2 12h188l41 221q27 145 114 212t232 67q101 0 183 -13l-138 -800q33 92 88.5 159.5t116.5 100.5t113.5 48t99.5 15q87 0 148 -21.5t94.5 -58t49 -91t14 -112.5t-14.5 -131l-98 -575h-13l99 575q13 70 14 126t-13 109.5t-46.5 88.5t-92 56.5 t-143.5 21.5q-39 0 -82.5 -9.5t-100.5 -40t-105 -77.5t-89.5 -130.5t-60.5 -191.5l-92 -528h-13l250 1454q-73 12 -170 12q-139 0 -222 -63.5t-109 -202.5l-41 -221h307l-2 -12h-307l-224 -1254h-12z" />
<glyph unicode="ffh" horiz-adv-x="2002" d="M76 -287l219 1254h-172l2 12h172l37 211q27 159 97 224t206 65q57 0 111 -15l-5 -10q-53 12 -108 12q-133 0 -197 -61t-92 -215l-37 -211h453l45 262q49 279 348 279q100 0 182 -13l-145 -841q33 92 88.5 159.5t116.5 100.5t113.5 48t99.5 15q87 0 148 -21.5t94.5 -58 t49 -91t14 -112.5t-14.5 -131l-99 -575h-12l98 575q13 70 14 126t-13 109.5t-46 88.5t-91.5 56.5t-143.5 21.5q-39 0 -82.5 -9.5t-100.5 -40t-105 -77.5t-90 -130.5t-61 -191.5l-92 -528h-12l258 1495q-73 12 -170 12q-288 0 -334 -266l-45 -262h307l-2 -12h-307l-203 -1149 h-12l203 1149h-453l-219 -1254h-12z" />
<glyph unicode="fk" horiz-adv-x="1406" d="M82 -287l229 1254h-188l2 12h188l41 221q27 145 114 212t232 67q101 0 183 -13l-158 -919h305l426 432h14l-432 -438l273 -541h-15l-266 535h-307l-90 -535h-12l247 1454q-73 12 -170 12q-139 0 -222 -63.5t-109 -202.5l-41 -221h307l-2 -12h-307l-230 -1254h-12z" />
<glyph unicode="ffk" horiz-adv-x="1855" d="M72 -287l223 1254h-172l2 12h172l37 211q27 159 97 224t206 65q57 0 111 -15l-5 -10q-53 12 -108 12q-133 0 -197 -61t-92 -215l-37 -211h453l45 262q49 279 348 279q100 0 182 -13l-163 -960h305l426 432h14l-432 -438l272 -541h-14l-266 535h-308l-90 -535h-12 l254 1495q-73 12 -170 12q-288 0 -334 -266l-45 -262h307l-2 -12h-307l-201 -1149h-14l203 1149h-453l-223 -1254h-12z" />
<glyph unicode="ry" horiz-adv-x="1335" d="M72 0l170 979h10l-53 -313q52 136 158 226t245 97l258 -987h41l275 541q67 133 95 222t42 212h12q-13 -123 -43 -216.5t-96 -221.5l-484 -959h-14l207 410h-45l-256 985q-38 -1 -82.5 -13.5t-98 -44.5t-99.5 -80.5t-84.5 -128.5t-55.5 -180l-90 -528h-12z" />
<glyph unicode="ff" horiz-adv-x="1044" d="M86 -287l219 1254h-182l2 12h182l37 211q27 159 97 224t206 65q57 0 111 -15l-4 -10q-52 12 -109 12q-133 0 -197 -61t-92 -215l-37 -211h472l40 227q30 165 99.5 239.5t202.5 74.5q68 0 122 -13l-4 -12q-53 12 -118 12q-132 0 -198 -74t-93 -231l-39 -223h327v-12h-329 l-199 -1149h-12l198 1149h-471l-219 -1254h-12z" />
<glyph unicode="fi" horiz-adv-x="837" d="M92 -287l219 1254h-186v12h188l39 221q26 148 107 213.5t231 65.5q63 0 144 -11l-3 -12q-74 10 -143 10q-142 0 -219.5 -62.5t-103.5 -203.5l-41 -221h467l-166 -979h-13l164 967h-454l-218 -1254h-12z" />
<glyph unicode="fl" horiz-adv-x="847" d="M86 -287l225 1254h-188l2 12h188l41 221q27 145 114 212t232 67q103 0 185 -13l-258 -1462h-13l256 1450q-73 12 -172 12q-139 0 -222 -63.5t-109 -202.5l-41 -221h307l-2 -12h-307l-226 -1254h-12z" />
<glyph unicode="ffi" horiz-adv-x="1325" d="M76 -287l219 1254h-172l2 12h172l37 211q27 159 97 224t206 65q57 0 111 -15l-5 -10q-53 12 -108 12q-133 0 -197 -61t-92 -215l-37 -211h467l47 264q26 148 107 213.5t231 65.5q63 0 144 -11l-2 -12q-74 10 -144 10q-143 0 -220 -62.5t-103 -203.5l-50 -264h467 l-166 -979h-12l164 967h-455l-198 -1149h-13l201 1149h-467l-219 -1254h-12z" />
<glyph unicode="ffl" horiz-adv-x="1296" d="M72 -287l223 1254h-172l2 12h172l37 211q27 159 97 224t206 65q57 0 111 -15l-5 -10q-53 12 -108 12q-133 0 -197 -61t-92 -215l-37 -211h453l45 262q49 279 348 279q97 0 176 -15l-250 -1501h-12l248 1491q-73 12 -164 12q-288 0 -334 -266l-45 -262h307l-2 -12h-307 l-201 -1149h-14l203 1149h-453l-223 -1254h-12z" />
<glyph unicode="ft" horiz-adv-x="1028" d="M72 -287l225 1254h-186v12h188l37 197q29 158 92.5 226t200.5 68q73 0 119 -12l-3 -12q-50 12 -116 12q-134 0 -195.5 -66.5t-89.5 -230.5l-33 -182h449l47 268h12l-47 -268h303l-2 -12h-303l-123 -691q-27 -155 22 -213.5t183 -58.5q38 0 94 6l-2 -12q-56 -6 -94 -6 q-139 0 -191 61.5t-24 222.5l123 691h-449l-223 -1254h-14z" />
<glyph unicode=" "  horiz-adv-x="501" />
<glyph unicode="&#x09;" horiz-adv-x="501" />
<glyph unicode="&#xa0;" horiz-adv-x="501" />
<glyph unicode="!" horiz-adv-x="440" d="M115 12q0 10 6.5 17.5t15.5 7.5q17 0 17 -17q0 -9 -7.5 -15.5t-17.5 -6.5q-14 0 -14 14zM168 223l209 1200h18l-215 -1200h-12z" />
<glyph unicode="&#x22;" horiz-adv-x="479" d="M250 967l67 413h17l-76 -413h-8zM391 967l68 413h16l-74 -413h-10z" />
<glyph unicode="#" horiz-adv-x="1093" d="M29 473l2 12h260l139 406h-268l2 12h270l150 438h12l-150 -438h408l152 438h12l-152 -438h273l-2 -12h-275l-137 -406h268l-2 -12h-270l-160 -473h-10l158 473h-410l-158 -473h-12l158 473h-258zM303 485h410l139 406h-410z" />
<glyph unicode="$" horiz-adv-x="1116" d="M51 297q0 53 19 111h12q-19 -48 -19 -107q0 -135 101.5 -216t304.5 -81h8l129 737q-77 12 -128.5 24t-101.5 30.5t-79 43t-46.5 60.5t-17.5 84q0 72 30.5 139t88.5 121.5t152.5 88t212.5 34.5l22 129h13l-23 -129q98 -1 172.5 -23t117.5 -60.5t64 -85t21 -99.5 q0 -37 -12 -82h-13q13 40 13 80q0 52 -20.5 96.5t-62.5 81t-114 58t-168 22.5l-106 -602q415 -49 415 -312q0 -62 -18.5 -122.5t-61 -119t-104.5 -103t-156 -73t-209 -30.5l-28 -166h-13l29 166h-8q-209 0 -312.5 83t-103.5 222zM246 987q0 -47 18 -82.5t45.5 -58 t78.5 -40.5t97.5 -28.5t122.5 -23.5l107 600q-64 -2 -128 -16t-126 -43.5t-109.5 -71t-76.5 -102.5t-29 -134zM489 4q111 2 202.5 29t152 70t102 99.5t60 115.5t18.5 120q0 256 -406 301z" />
<glyph unicode="%" horiz-adv-x="1525" d="M115 864q0 152 46 271.5t139.5 191.5t221.5 72q264 0 264 -277q0 -72 -14 -143.5t-45.5 -140.5t-77 -122t-115 -85.5t-153.5 -32.5q-266 0 -266 266zM127 866q0 -256 256 -256q102 0 180.5 48t122.5 125t66 163t22 174q0 266 -254 266q-123 0 -213.5 -70t-135 -186.5 t-44.5 -263.5zM233 -57l1065 1499l11 -4l-1065 -1501zM776 258q0 152 46 271.5t140 191.5t222 72q264 0 264 -277q0 -72 -14 -143.5t-45.5 -140.5t-77.5 -122t-115.5 -85.5t-153.5 -32.5q-266 0 -266 266zM788 260q0 -256 256 -256q82 0 149.5 32t111.5 83.5t74.5 119.5 t43.5 137t13 138q0 266 -254 266q-123 0 -214 -70t-135.5 -186.5t-44.5 -263.5z" />
<glyph unicode="&#x26;" horiz-adv-x="1470" d="M70 264q0 58 14.5 111t44.5 99.5t62.5 84t83 78t90 68t98.5 65.5q-80 170 -80 299q0 21 4.5 51.5t22.5 80.5t47 90t87 70t134 30q97 0 148 -49t51 -130q0 -54 -21.5 -105t-52.5 -90t-84 -82.5t-97.5 -74t-111.5 -73.5q-7 -4 -11 -7t-10.5 -7t-11.5 -7q77 -154 210 -315.5 t292 -300.5q172 113 272.5 283.5t100.5 352.5q0 95 -36 167t-122 126l8 11q162 -97 162 -299q0 -184 -102 -359t-275 -289q123 -111 238 -186l-8 -10q-127 86 -240 188q-223 -141 -492 -141q-91 0 -164 14.5t-130.5 45t-89 84t-31.5 126.5zM82 268q0 -72 31 -124t88 -81.5 t127.5 -43t158.5 -13.5q267 0 482 137q-157 139 -290 301t-210 316q-70 -45 -117 -78t-103 -82t-89 -95.5t-55.5 -108t-22.5 -128.5zM395 1069q0 -131 78 -293q9 6 28 18q54 34 80.5 52t72.5 50.5t70 54.5t55 55.5t46.5 62t27 65t11.5 74.5q0 78 -48 124t-140 46 q-62 0 -111 -19.5t-78 -52t-49 -67t-28.5 -72.5t-11.5 -60.5t-3 -37.5z" />
<glyph unicode="'" horiz-adv-x="337" d="M250 967l67 413h17l-76 -413h-8z" />
<glyph unicode="(" horiz-adv-x="530" d="M117 387q0 133 26.5 260.5t71.5 235t111.5 213.5t138 193.5t160.5 176.5l6 -6q-500 -507 -500 -1067q0 -341 182 -649l-8 -8q-188 307 -188 651z" />
<glyph unicode=")" horiz-adv-x="530" d="M-53 -258q213 225 346 501.5t133 565.5q0 339 -201 651l11 6q202 -317 202 -655q0 -292 -133.5 -568.5t-349.5 -506.5z" />
<glyph unicode="*" horiz-adv-x="798" d="M262 1161l8 17l232 -91l47 275h18l-55 -275l258 89l6 -17l-264 -84l129 -217l-18 -10l-121 221l-197 -221l-14 12l205 217z" />
<glyph unicode="+" horiz-adv-x="1093" d="M207 559l2 14h348l66 371h14l-66 -371h349l-2 -14h-349l-59 -348h-14l59 348h-348z" />
<glyph unicode="," horiz-adv-x="274" d="M-43 -193l102 183q-24 0 -24 22q0 12 9.5 21.5t21.5 9.5q8 0 14 -7t6 -16q0 -12 -8 -24l-113 -193z" />
<glyph unicode="-" horiz-adv-x="899" d="M213 506l4 18h485l-4 -18h-485z" />
<glyph unicode="." horiz-adv-x="280" d="M35 12q0 12 9.5 21.5t21.5 9.5q8 0 14 -7t6 -16q0 -12 -8.5 -21t-20.5 -9q-22 0 -22 22z" />
<glyph unicode="/" horiz-adv-x="940" d="M-94 -94l1188 1577h14l-1188 -1577h-14z" />
<glyph unicode="0" horiz-adv-x="1093" d="M74 436q0 94 13.5 191.5t42 201t78.5 194t116.5 162.5t163 114t210.5 42q198 0 292.5 -120t94.5 -334q0 -205 -49.5 -375.5t-134.5 -283t-197.5 -174.5t-238.5 -62q-391 0 -391 444zM86 440q0 -71 10.5 -132t37.5 -118.5t69 -97.5t109.5 -64t154.5 -24q122 0 231.5 60.5 t193 170.5t132.5 277.5t49 368.5q0 211 -92 329.5t-285 118.5q-107 0 -198.5 -39t-156.5 -106.5t-115.5 -155t-80 -188.5t-44.5 -201t-15 -199z" />
<glyph unicode="1" horiz-adv-x="1093" d="M96 0l2 12h375l223 1299l-342 -54l2 13l342 53h13l-226 -1311h353l-2 -12h-740z" />
<glyph unicode="2" horiz-adv-x="1093" d="M18 0l2 14q10 66 31 122t58.5 106.5t80 92.5t110 89.5t132.5 87t162 94.5q81 45 142 84t123.5 88.5t102 96.5t64.5 103t25 114q0 110 -82.5 173.5t-245.5 63.5q-113 0 -204.5 -30.5t-148.5 -81.5t-90 -109.5t-42 -122.5h-13q9 65 42.5 125.5t92 113.5t153 85t212.5 32 q165 0 251.5 -66t86.5 -181q0 -61 -26 -119.5t-66 -105.5t-104 -98t-123.5 -88.5t-141.5 -84.5q-65 -37 -100 -57.5t-90.5 -55t-86 -56.5t-74 -55.5t-68 -60.5t-54 -63.5t-46 -71.5t-30.5 -77.5t-20 -88.5h885l-3 -12h-897z" />
<glyph unicode="3" horiz-adv-x="1093" d="M70 281q0 50 16 112h12q-16 -59 -16 -108q0 -126 93.5 -203.5t275.5 -77.5q231 0 378.5 134.5t147.5 334.5q0 79 -30.5 140t-84 98t-120.5 56t-144 19q-51 0 -88 -6l-4 11l606 520h-780l2 12h796l-2 -12l-600 -516q25 4 72 4q61 0 117.5 -12t106 -38t86.5 -63.5t58 -91.5 t21 -119q0 -206 -151 -344.5t-389 -138.5q-186 0 -282.5 79.5t-96.5 209.5z" />
<glyph unicode="4" horiz-adv-x="1093" d="M25 379l2 12q136 138 452.5 453.5t476.5 478.5h13l-160 -932h231l-2 -12h-231l-64 -379h-12l64 379h-770zM43 391h754l157 914z" />
<glyph unicode="5" horiz-adv-x="1093" d="M72 279q0 55 18 120h12q-18 -61 -18 -116q0 -126 90 -202.5t275 -76.5q121 0 221.5 40t167.5 108t104 158.5t37 191.5q0 74 -21.5 132t-57.5 95.5t-88 62t-109.5 34.5t-124.5 10q-144 0 -308 -48l-8 5l168 530h633l-2 -12h-621l-161 -508q158 45 301 45q87 0 159 -18.5 t129.5 -57.5t90 -107t32.5 -159q0 -107 -38 -200.5t-107 -163t-172.5 -110t-227.5 -40.5q-187 0 -280.5 78.5t-93.5 208.5z" />
<glyph unicode="6" horiz-adv-x="1093" d="M123 365q0 78 9 163t31.5 181.5t55 185t83.5 171t114.5 143t150.5 96.5t187 36q161 0 252 -86t59 -245h-12q30 153 -55 236t-246 83q-105 0 -195 -40.5t-154.5 -111.5t-115 -161.5t-82 -197t-49 -210t-21.5 -207.5q16 99 66 182t119 136.5t150.5 82.5t164.5 29 q173 0 263.5 -84t90.5 -243q0 -144 -57 -259t-171.5 -184t-268.5 -69q-178 0 -273.5 91.5t-95.5 281.5zM141 322q0 -143 89 -230.5t264 -87.5q115 0 208.5 40t152.5 109t90.5 158.5t31.5 190.5q0 154 -88 235.5t-256 81.5q-130 0 -243 -65.5t-181 -180.5t-68 -251z" />
<glyph unicode="7" horiz-adv-x="1093" d="M238 0l864 1311h-836l2 12h850l-2 -12l-862 -1311h-16z" />
<glyph unicode="8" horiz-adv-x="1093" d="M72 266q0 20 2 41.5t13 61.5t29 76t54 79t84.5 78t124.5 65.5t170 47.5q-299 59 -299 268q0 50 17.5 100t54.5 96.5t88.5 82.5t125.5 57.5t160 21.5q91 0 160 -21t109 -58t59.5 -81.5t19.5 -95.5q0 -15 -1 -28t-8.5 -46t-21.5 -61t-44.5 -65.5t-72 -67t-108.5 -57.5 t-151 -45q82 -12 144.5 -39.5t98 -59.5t57.5 -72.5t29 -74.5t7 -70q0 -81 -33.5 -153.5t-95.5 -129.5t-161 -90.5t-220 -33.5q-186 0 -288.5 74.5t-102.5 199.5zM84 268q0 -69 30.5 -121t84.5 -82.5t120.5 -45.5t145.5 -15q216 0 356 107t140 292q0 125 -91.5 206.5 t-279.5 99.5q-227 -26 -366.5 -147t-139.5 -294zM262 983q0 -210 326 -264q218 29 331 131.5t113 234.5q0 118 -91 181t-247 63q-185 0 -308.5 -100t-123.5 -246z" />
<glyph unicode="9" horiz-adv-x="1093" d="M109 324h12q-30 -153 55 -236.5t246 -83.5q105 0 195.5 40.5t156 111.5t117 162t84 196.5t50.5 209.5t22 208q-16 -99 -67 -178.5t-122 -128t-153 -74t-166 -25.5q-365 0 -365 303q0 143 60 258.5t177 184.5t271 69q179 0 278 -91.5t99 -280.5q0 -78 -9.5 -163.5 t-32.5 -181.5t-56.5 -185t-85.5 -171t-116 -143t-151.5 -97t-187.5 -36q-161 0 -252 86.5t-59 245.5zM186 831q0 -292 355 -292q136 0 249.5 59.5t181.5 168.5t68 245q0 142 -92 229.5t-268 87.5q-116 0 -210.5 -40.5t-156 -109t-94.5 -158t-33 -190.5z" />
<glyph unicode=":" horiz-adv-x="280" d="M35 12q0 12 9.5 21.5t21.5 9.5q8 0 14 -7t6 -16q0 -11 -9.5 -20.5t-19.5 -9.5q-22 0 -22 22zM162 737q0 12 10.5 22.5t22.5 10.5q8 0 14 -6.5t6 -15.5q0 -11 -10.5 -21t-20.5 -10q-9 0 -15.5 5.5t-6.5 14.5z" />
<glyph unicode=";" horiz-adv-x="280" d="M-43 -193l102 183q-24 0 -24 22q0 12 9 21.5t22 9.5q9 0 14.5 -6t5.5 -14q0 -15 -8 -27l-113 -193zM162 737q0 12 10.5 22.5t22.5 10.5q8 0 14 -6.5t6 -15.5q0 -11 -10.5 -21t-20.5 -10q-9 0 -15.5 5.5t-6.5 14.5z" />
<glyph unicode="&#x3c;" horiz-adv-x="1093" d="M201 551l2 12l780 361l-2 -15l-764 -352l641 -352l-2 -15z" />
<glyph unicode="=" horiz-adv-x="1093" d="M176 393l4 15h711l-4 -15h-711zM231 700l2 15h711l-2 -15h-711z" />
<glyph unicode="&#x3e;" horiz-adv-x="1093" d="M139 190l2 15l762 352l-641 352l2 15l658 -361l-2 -12z" />
<glyph unicode="?" horiz-adv-x="1091" d="M283 1081q4 52 21.5 101t52.5 95t84.5 80t123 54.5t162.5 20.5q162 0 238.5 -63t76.5 -169q0 -70 -26 -129.5t-69.5 -105t-96.5 -88.5t-109.5 -92t-106 -103.5t-89 -134.5t-56.5 -174l-26 -154h-12l24 143q17 98 56.5 180.5t89.5 139t106.5 106t110 93t96.5 88.5 t69.5 103.5t26.5 127.5q0 101 -72.5 160t-232.5 59q-86 0 -157 -19.5t-119 -52t-82.5 -77t-51.5 -91.5t-22 -98h-10zM406 12q0 10 6.5 17.5t15.5 7.5q16 0 16 -17q0 -9 -7 -15.5t-17 -6.5q-14 0 -14 14z" />
<glyph unicode="@" horiz-adv-x="1665" d="M174 492q0 148 44.5 284t124.5 242t184 185t229 121t254 42q113 0 212.5 -31.5t176.5 -91t121.5 -154t44.5 -212.5q0 -64 -12.5 -137.5t-41 -152t-69.5 -141.5t-104.5 -104t-139.5 -41q-133 0 -133 139q0 30 18 123q-50 -147 -139.5 -220t-193.5 -73q-134 0 -204.5 76 t-70.5 209q0 142 44 255t136 182t219 69q105 0 175.5 -61.5t74.5 -190.5l41 242h13l-72 -428l-3 -16q-3 -16 -7 -39t-8.5 -47.5t-7.5 -46t-3 -30.5q0 -66 30 -98.5t95 -32.5q70 0 130.5 39t100 100t68 137t41 148t12.5 135q0 116 -43 208.5t-117.5 151.5t-173 90.5 t-212.5 31.5q-159 0 -308.5 -65.5t-263 -178.5t-182 -275t-68.5 -343q0 -259 154 -400t428 -141q228 0 426 74l2 -13q-198 -73 -430 -73q-279 0 -435.5 144t-156.5 409zM487 555q0 -127 67.5 -199.5t195.5 -72.5q89 0 161 50.5t114.5 129.5t64.5 165t22 167q0 130 -68 192 t-170 62q-123 0 -212 -68t-132 -178t-43 -248z" />
<glyph unicode="A" horiz-adv-x="1120" d="M-51 0l760 1378h14l285 -1378h-13l-82 389h-737l-213 -389h-14zM184 401h727l-196 965z" />
<glyph unicode="B" horiz-adv-x="1210" d="M61 0l242 1378h514q171 0 261.5 -69t90.5 -191q0 -53 -20.5 -111.5t-59.5 -114.5t-107 -97.5t-153 -53.5q69 -9 122 -39t82.5 -73t44 -91t14.5 -100q0 -62 -15.5 -121.5t-53.5 -117.5t-93.5 -101.5t-142.5 -70.5t-195 -27h-531zM76 12h518q216 0 350.5 114t134.5 312 q0 58 -17 109t-53.5 95t-101.5 69.5t-153 25.5h-551zM205 748h565q115 0 205.5 56t136 139t45.5 173q0 117 -84.5 183.5t-257.5 66.5h-502z" />
<glyph unicode="C" horiz-adv-x="1206" d="M141 446q0 205 44.5 376.5t130 298.5t219 198.5t303.5 71.5q96 0 175 -27.5t131 -89.5t52 -150q0 -45 -16 -104h-13q17 63 17 100q0 85 -51 145t-127.5 86.5t-169.5 26.5q-167 0 -298 -70.5t-214.5 -196.5t-126.5 -294.5t-43 -370.5q0 -216 97 -329t327 -113 q121 0 216.5 31t156 85t94.5 123t40 150h13q-14 -175 -148 -288t-375 -113q-121 0 -206.5 31t-134.5 92t-71 141.5t-22 189.5z" />
<glyph unicode="D" horiz-adv-x="1226" d="M61 0l242 1378h309q82 0 158.5 -18t150.5 -60.5t128 -106t87 -163t33 -223.5q0 -235 -99 -419.5t-275 -286t-398 -101.5h-336zM78 12h319q163 0 304 58.5t241.5 162.5t157.5 252.5t57 321.5q0 122 -32 219t-85 159.5t-125 104t-147 59t-156 17.5h-297z" />
<glyph unicode="E" horiz-adv-x="1064" d="M61 0l242 1378h791l-2 -12h-779l-106 -610h743l-2 -13h-743l-129 -731h852l-2 -12h-865z" />
<glyph unicode="F" horiz-adv-x="1017" d="M61 0l242 1378h811l-2 -12h-799l-110 -631h749l-2 -12h-749l-127 -723h-13z" />
<glyph unicode="G" horiz-adv-x="1259" d="M141 455q0 274 79 484t234 331t367 121q102 0 179 -23t120.5 -63t64.5 -88.5t21 -104.5q0 -33 -10 -78h-12q10 42 10 76q0 115 -92 191.5t-283 76.5q-209 0 -361 -121t-228 -326.5t-76 -471.5q0 -235 102 -345t319 -110q86 0 160 17t126.5 45t96 68t71 80.5t49 89 t32.5 88t18 81.5l33 186h-407l2 11h420l-35 -197q-88 -481 -568 -481q-221 0 -326.5 112.5t-105.5 350.5z" />
<glyph unicode="H" horiz-adv-x="1253" d="M61 0l242 1378h12l-112 -643h942l112 643h13l-242 -1378h-12l127 723h-942l-127 -723h-13z" />
<glyph unicode="I" horiz-adv-x="380" d="M102 0l242 1378h12l-241 -1378h-13z" />
<glyph unicode="J" horiz-adv-x="1067" d="M10 260q-1 7 -1 14q0 34 11 68h13q-11 -35 -11 -69v-11q2 -40 12.5 -76.5t39.5 -68.5t69.5 -55t102.5 -36.5t139 -13.5q112 0 201 34t149 96.5t97.5 142.5t54.5 178l164 915h12l-164 -915q-17 -102 -55 -183.5t-99.5 -145.5t-153.5 -99t-208 -35q-79 0 -143 14 t-105.5 38.5t-71.5 57.5t-40.5 71t-12.5 79z" />
<glyph unicode="K" horiz-adv-x="1042" d="M61 0l242 1378h12l-112 -645h358l586 645h14l-592 -651l371 -727h-14l-367 721h-358l-127 -721h-13z" />
<glyph unicode="L" horiz-adv-x="1054" d="M61 0l242 1378h12l-239 -1366h868l-2 -12h-881z" />
<glyph unicode="M" horiz-adv-x="1583" d="M61 0l285 1378h10l387 -1145l805 1145h11l-201 -1378h-12l200 1360l-801 -1143h-8l-385 1135l-278 -1352h-13z" />
<glyph unicode="N" horiz-adv-x="1265" d="M61 0l242 1378h12l717 -1353l238 1353h12l-242 -1378h-10l-719 1360l-237 -1360h-13z" />
<glyph unicode="O" horiz-adv-x="1341" d="M137 446q0 151 27 289t84 258t138.5 208.5t196.5 139t251 50.5q438 0 438 -476q0 -103 -17 -207t-50.5 -209t-90.5 -195.5t-130.5 -160.5t-177 -110.5t-224.5 -40.5q-222 0 -333.5 115.5t-111.5 338.5zM150 451q0 -226 108 -336.5t326 -110.5q117 0 217 38.5t172.5 106 t128.5 156t90 191t51 207.5t17 210q0 108 -22.5 191t-72 146.5t-133.5 96.5t-201 33q-132 0 -244 -49.5t-191.5 -136t-135.5 -204t-83 -254t-27 -285.5z" />
<glyph unicode="P" horiz-adv-x="1093" d="M61 0l242 1378h459q186 0 281.5 -95t95.5 -259q0 -59 -14.5 -118.5t-51.5 -122.5t-92.5 -110.5t-146.5 -78.5t-205 -31h-457l-98 -563h-13zM174 575h457q112 0 200.5 30t142.5 76.5t89.5 107.5t49 118.5t13.5 114.5q0 159 -91 251.5t-275 92.5h-447z" />
<glyph unicode="Q" horiz-adv-x="1341" d="M137 446q0 151 27 289t84 258t138.5 208.5t196.5 139t251 50.5q438 0 438 -476q0 -87 -11.5 -175t-37.5 -178.5t-63.5 -172.5t-93 -154t-123 -125t-157 -84.5t-190.5 -33.5q161 -91 389 -168l-8 -14q-252 87 -406 182q-434 6 -434 454zM150 451q0 -226 108 -336.5 t326 -110.5q117 0 217 38.5t172.5 106t128.5 156t90 191t51 207.5t17 210q0 108 -22.5 191t-72 146.5t-133.5 96.5t-201 33q-132 0 -244 -49.5t-191.5 -136t-135.5 -204t-83 -254t-27 -285.5z" />
<glyph unicode="R" horiz-adv-x="1122" d="M61 0l242 1378h434q184 0 281.5 -84t97.5 -235q0 -57 -14 -115t-51 -120.5t-92.5 -110t-148.5 -78.5t-210 -31h-47l342 -604h-14l-342 604h-359l-106 -604h-13zM182 616h422q111 0 200 29t143.5 74t91 105t51 117.5t14.5 115.5q0 145 -94 227t-275 82h-422z" />
<glyph unicode="S" horiz-adv-x="1189" d="M88 225q-8 33 -9 71q0 55 17 120h13q-19 -63 -19 -117q0 -33 6 -61q18 -78 74.5 -130t142 -79t191.5 -27q148 0 261.5 37t178.5 99t97 135.5t32 154.5q0 125 -96.5 198.5t-290.5 114.5q-94 20 -150.5 35t-116.5 38.5t-91.5 49.5t-51.5 65.5t-20 90.5q0 76 32 142 t94 117.5t161 81.5t223 30q65 0 125.5 -13t115.5 -40t91 -70q36 -42 50 -100q6 -24 6 -51q0 -39 -13 -83h-11q11 43 11 81q1 39 -11 73q-22 68 -78.5 109t-129.5 62t-156 21q-239 0 -368.5 -102t-129.5 -256q0 -29 7 -54t16.5 -44.5t30.5 -37.5t38.5 -31t50.5 -26t57 -21.5 t68 -19.5t72.5 -17.5t81.5 -18.5q93 -20 162 -46.5t123 -64.5t82 -91.5t28 -121.5q0 -65 -20 -126t-65 -118t-111 -99t-165.5 -67.5t-221.5 -25.5q-101 0 -185 25t-146.5 76.5t-82.5 131.5z" />
<glyph unicode="T" horiz-adv-x="1060" d="M178 1366l2 12h1020l-2 -12h-500l-239 -1366h-13l240 1366h-508z" />
<glyph unicode="U" horiz-adv-x="1292" d="M145 333q-3 29 -3 60q0 83 20 180l141 805h12l-141 -805q-17 -104 -18 -192v-7q0 -84 24 -151q25 -70 74 -118.5t132 -74.5t198 -26q108 0 195 28.5t148.5 78t107.5 123t74 156.5t46 185l141 803h13l-142 -803q-23 -132 -64.5 -233t-109.5 -182.5t-171.5 -124.5 t-239.5 -43q-146 0 -242 41t-140.5 117t-54.5 183z" />
<glyph unicode="V" horiz-adv-x="1130" d="M180 1378h13l288 -1360l774 1360h15l-787 -1378h-10z" />
<glyph unicode="W" horiz-adv-x="1705" d="M180 1378h15l145 -1360l643 1360h12l183 -1360l624 1360h15l-635 -1378h-11l-184 1360l-645 -1360h-10z" />
<glyph unicode="X" horiz-adv-x="1124" d="M-37 0l625 713l-346 665h12l340 -657l575 657h15l-584 -667l371 -711h-13l-366 702l-615 -702h-14z" />
<glyph unicode="Y" horiz-adv-x="950" d="M174 1378h14l295 -798l596 798h15l-607 -813l-96 -565h-12l96 565z" />
<glyph unicode="Z" horiz-adv-x="1019" d="M-61 0l2 12l1169 1354h-885l2 12h899l-2 -12l-1167 -1354h963l-2 -12h-979z" />
<glyph unicode="[" horiz-adv-x="520" d="M55 -254l295 1708h240l-2 -12h-228l-290 -1684h227l-2 -12h-240z" />
<glyph unicode="\" horiz-adv-x="940" d="M176 1483h14l646 -1577h-17z" />
<glyph unicode="]" horiz-adv-x="520" d="M-29 -254l2 12h228l291 1684h-228l2 12h240l-295 -1708h-240z" />
<glyph unicode="^" horiz-adv-x="1148" d="M193 571l538 801h14l261 -801h-15l-254 789l-528 -789h-16z" />
<glyph unicode="_" horiz-adv-x="1003" d="M-111 -178l2 14h1002l-2 -14h-1002z" />
<glyph unicode="`" horiz-adv-x="942" d="M635 1366l14 12l203 -225l-8 -8z" />
<glyph unicode="a" horiz-adv-x="1011" d="M88 350q0 133 32.5 248t94 202.5t158.5 138t217 50.5q152 0 241 -89q81 -81 81 -225q0 -15 -1 -30l56 336h12l-168 -981h-10l65 383q-60 -186 -174 -288.5t-262 -102.5q-167 0 -254.5 95.5t-87.5 262.5zM100 348q0 -161 83.5 -252.5t248.5 -91.5q92 0 171 42t132.5 110 t92 155t56 176.5t17.5 174.5q0 143 -77 229t-236 86q-96 0 -177 -33.5t-137.5 -92t-96 -138t-58.5 -172t-19 -193.5z" />
<glyph unicode="b" horiz-adv-x="1013" d="M41 0l252 1470h10l-147 -866q62 186 173 285.5t261 99.5q167 0 254.5 -95.5t87.5 -262.5q0 -178 -56 -321t-171.5 -230.5t-274.5 -87.5q-152 0 -241 88q-81 80 -81 224q0 15 1 30l-56 -334h-12zM119 319q0 -143 77 -229t236 -86q119 0 214 51t153.5 138.5t89.5 200 t31 239.5q0 161 -83.5 252.5t-248.5 91.5q-93 0 -172 -42t-132.5 -110t-91.5 -155t-55.5 -176.5t-17.5 -174.5z" />
<glyph unicode="c" horiz-adv-x="899" d="M86 326q0 137 30 254.5t88.5 210.5t155.5 146.5t222 53.5q132 0 213.5 -60.5t81.5 -168.5q0 -14 -3 -29h-12q2 10 2 29q0 102 -77.5 159.5t-204.5 57.5q-122 0 -216.5 -52.5t-152 -144t-86.5 -207t-29 -249.5q0 -326 326 -326q132 0 240.5 67t136.5 189q6 24 6 43h12 q0 -23 -6 -47q-19 -84 -81.5 -145.5t-142 -90t-165.5 -28.5q-338 0 -338 338z" />
<glyph unicode="d" horiz-adv-x="1024" d="M82 315q0 187 54.5 337.5t167.5 243.5t269 93q165 1 253 -103q78 -91 78 -245q0 -21 -1 -43l150 872h10l-252 -1470h-12l59 342q-57 -174 -173.5 -262t-270.5 -88q-164 0 -248 89t-84 234zM94 317q0 -141 80.5 -227t241.5 -86q99 0 184 39.5t151 116t104 200.5t38 283 q0 152 -83.5 243t-238.5 91q-113 0 -204.5 -53t-150.5 -144t-90.5 -209.5t-31.5 -253.5z" />
<glyph unicode="e" horiz-adv-x="948" d="M86 338q0 96 19 187.5t60.5 174.5t100.5 145.5t144 99t186 36.5q78 0 136.5 -20t90 -53t46 -70.5t14.5 -79.5q0 -43 -13.5 -83.5t-53.5 -85.5t-104.5 -77.5t-177.5 -54t-260 -21.5q-80 0 -170 8q-6 -52 -6 -106q0 -53 7 -97t27 -89.5t53.5 -76.5t90 -51t132.5 -20 q69 0 135 17t124 50.5t94 93t38 136.5h12q0 -15 -4 -43q-19 -125 -133 -195.5t-266 -70.5q-79 0 -138.5 21t-93.5 53t-55 79.5t-28 93t-7 99.5zM106 457q90 -8 168 -8q144 0 254 20t173.5 51t103 74t52.5 82t13 82q0 40 -13.5 75.5t-43.5 67t-85.5 50t-131.5 18.5 q-108 0 -196.5 -41.5t-147.5 -114.5t-95.5 -162.5t-50.5 -193.5z" />
<glyph unicode="f" horiz-adv-x="577" d="M80 -287l223 1254h-186v12h188l37 197q29 158 92.5 226t200.5 68q73 0 119 -12l-2 -12q-50 12 -117 12q-134 0 -195.5 -66.5t-89.5 -230.5l-33 -182h316v-12h-318l-223 -1254h-12z" />
<glyph unicode="g" horiz-adv-x="1011" d="M23 -160h12q-4 -23 -4 -44q0 -39 13 -72q21 -50 67 -78.5t103 -42.5t126 -15q208 0 316.5 101t144.5 311l65 383q-60 -186 -174 -288.5t-262 -102.5q-167 0 -254.5 95.5t-87.5 262.5q0 133 32.5 248t94 202.5t158.5 138t217 50.5q152 0 241 -89q81 -81 81 -225 q0 -15 -1 -30l56 336h12l-166 -985q-36 -214 -148 -317t-325 -103q-71 1 -130.5 15.5t-107.5 44.5t-70 82q-13 33 -13 74q0 23 4 48zM100 348q0 -161 83.5 -252.5t248.5 -91.5q92 0 171 42t132.5 110t92 155t56 176.5t17.5 174.5q0 143 -77 229t-236 86q-96 0 -177 -33.5 t-137.5 -92t-96 -138t-58.5 -172t-19 -193.5z" />
<glyph unicode="h" horiz-adv-x="976" d="M41 0l252 1470h12l-139 -804q33 92 88.5 159.5t116.5 100.5t113.5 48t99.5 15q87 0 148 -22t94 -58q34 -37 49 -91q14 -50 14 -101q-1 -5 -1 -11q-2 -58 -14 -131l-98 -575h-12l98 575q13 70 14 126v7q0 52 -13 102q-14 54 -46 89t-91.5 56.5t-143.5 21.5 q-39 0 -82.5 -9.5t-100.5 -40t-105 -77.5t-90 -130.5t-61 -191.5l-92 -528h-10z" />
<glyph unicode="i" horiz-adv-x="335" d="M82 0l168 979h12l-168 -979h-12zM291 1268q0 8 5.5 15t16.5 7q15 0 15 -14q0 -10 -8 -16.5t-15 -6.5q-14 0 -14 15z" />
<glyph unicode="j" horiz-adv-x="362" d="M-119 -420l2 12q88 0 122.5 38t53.5 147l209 1202h15l-209 -1202q-20 -110 -56.5 -153.5t-123.5 -43.5h-13zM305 1268q0 7 6 14.5t17 7.5q14 0 14 -14q0 -10 -8 -16.5t-15 -6.5q-14 0 -14 15z" />
<glyph unicode="k" horiz-adv-x="827" d="M41 0l252 1470h12l-158 -923h304l426 432h14l-432 -438l272 -541h-14l-266 535h-306l-94 -535h-10z" />
<glyph unicode="l" horiz-adv-x="311" d="M78 111l235 1359h13l-236 -1359q-3 -17 -4 -31q0 -30 16 -46q22 -22 95 -22l-2 -12q-81 0 -105 24q-16 17 -16 51q0 16 4 36z" />
<glyph unicode="m" horiz-adv-x="1660" d="M41 0l168 979h12l-55 -313q33 93 86.5 160.5t112.5 100.5t110 47.5t98 14.5q296 0 296 -264q0 -40 -7 -86q25 80 66 143.5t85.5 101.5t95 62.5t91 33.5t76.5 9q87 0 147.5 -22t92.5 -58t46 -91q12 -48 12 -98v-14q-2 -58 -15 -131l-99 -575h-10l98 575q12 72 14 127v15 q0 47 -11 93q-13 54 -43.5 89t-89 56.5t-142.5 21.5q-39 0 -81.5 -9.5t-98 -40t-102 -77.5t-87 -130.5t-59.5 -191.5l-92 -528h-11l99 580q12 70 14 124v14q0 47 -11 93q-13 53 -44 88t-89.5 56.5t-142.5 21.5q-40 0 -83.5 -9.5t-98.5 -40t-101 -77.5t-86 -130.5t-59 -191.5 l-92 -528h-10z" />
<glyph unicode="n" horiz-adv-x="976" d="M41 0l168 979h12l-55 -313q33 92 88.5 159.5t116.5 100.5t113.5 48t99.5 15q87 0 148 -22t94 -58q34 -37 49 -91q14 -50 14 -101q-1 -5 -1 -11q-2 -58 -14 -131l-98 -575h-12l98 575q13 70 14 126v7q0 52 -13 102q-14 54 -46 89t-91.5 56.5t-143.5 21.5q-39 0 -82.5 -9.5 t-100.5 -40t-105 -77.5t-90 -130.5t-61 -191.5l-92 -528h-10z" />
<glyph unicode="o" horiz-adv-x="993" d="M86 311q0 139 32.5 261t94.5 215.5t159 147.5t218 54q165 0 242 -91.5t77 -252.5t-40.5 -288.5t-110 -205.5t-156.5 -118.5t-184 -40.5q-169 0 -250.5 79t-81.5 240zM98 313q0 -156 77.5 -232.5t244.5 -76.5q94 0 178.5 39.5t152 115.5t107 201t39.5 283q0 157 -74 245.5 t-235 88.5q-118 0 -212.5 -53.5t-154.5 -145.5t-91.5 -211t-31.5 -254z" />
<glyph unicode="p" horiz-adv-x="1011" d="M-33 -420l242 1401h12l-61 -342q53 169 172.5 259.5t273.5 90.5q160 0 246 -87t86 -236q0 -112 -17.5 -211t-56 -184.5t-95 -147t-137.5 -96.5t-181 -35q-164 0 -257 106q-79 92 -79 237q0 23 2 48l-137 -803h-13zM127 338q0 -151 86 -242.5t240 -91.5q119 0 211.5 52.5 t148.5 144.5t84.5 209t28.5 254q0 143 -81.5 228t-240.5 85q-99 0 -184 -39.5t-151 -116t-104 -200.5t-38 -283z" />
<glyph unicode="q" horiz-adv-x="1011" d="M88 350q0 133 32.5 248t94 202.5t158.5 138t217 50.5q152 0 241 -89q81 -81 81 -225q0 -15 -1 -30l56 336h12l-240 -1401h-12l139 803q-60 -186 -174 -288.5t-262 -102.5q-167 0 -254.5 95.5t-87.5 262.5zM100 348q0 -161 83.5 -252.5t248.5 -91.5q92 0 171 42t132.5 110 t92 155t56 176.5t17.5 174.5q0 143 -77 229t-236 86q-96 0 -177 -33.5t-137.5 -92t-96 -138t-58.5 -172t-19 -193.5z" />
<glyph unicode="r" horiz-adv-x="548" d="M72 0l170 979h10l-53 -313q27 74 69 133t86.5 93.5t94.5 57.5t90.5 31t76.5 8l-4 -14q-40 0 -83.5 -9.5t-100.5 -39.5t-104 -76.5t-89 -130t-61 -191.5l-90 -528h-12z" />
<glyph unicode="s" horiz-adv-x="886" d="M51 225q0 45 6 70h11q-6 -34 -6 -65q0 -96 60 -151q79 -73 226 -73q96 0 171 21t119 52.5t72 73.5t38 79t10 73q0 26 -6 48.5t-13.5 39.5t-24 32t-29.5 25t-37.5 19.5t-40 14.5t-46 12t-46 9.5t-48.5 8.5q-37 6 -54.5 9.5t-51 11t-50.5 14.5t-42 18.5t-38.5 25.5 t-27 32.5t-19.5 42.5t-6 53q0 121 94.5 196.5t243.5 75.5q84 0 147.5 -18t105.5 -64.5t42 -119.5q0 -30 -6 -60h-12q6 31 6 57q-1 32 -9 60q-16 50 -56 78t-94.5 41.5t-123.5 13.5q-142 0 -234 -72.5t-92 -187.5q0 -110 113 -155q48 -20 176 -42q34 -6 54.5 -10t51.5 -11.5 t50 -15.5t43 -19.5t38.5 -27t28 -35t19.5 -45t6 -55.5q0 -37 -10.5 -76t-40.5 -82t-75 -76t-122 -55t-174 -22q-133 0 -215 59t-82 172z" />
<glyph unicode="t" horiz-adv-x="579" d="M117 967l2 12h186l45 268h12l-45 -268h308l-2 -12h-308l-120 -691q-9 -54 -9 -96q0 -80 32 -118q50 -58 185 -58q38 0 97 6l-2 -12q-58 -6 -97 -6q-140 0 -193 62q-35 41 -35 125q0 43 9 97l121 691h-186z" />
<glyph unicode="u" horiz-adv-x="966" d="M94 275q2 57 15 131l100 573h12l-100 -573q-10 -60 -13 -106q-1 -19 -1 -38q1 -28 3 -57q4 -48 22.5 -82.5t50.5 -62.5t85 -42t125 -14q39 0 82.5 9.5t100.5 40t105 77.5t89.5 130.5t60.5 191.5l93 526h12l-170 -977h-12l55 313q-27 -74 -70 -133t-87.5 -93.5 t-94.5 -57.5t-90 -31t-76 -8q-88 0 -148.5 22t-92.5 58q-32 34 -45 90q-11 48 -11 98v15z" />
<glyph unicode="v" horiz-adv-x="837" d="M90 979h12l209 -965l338 527q80 127 116.5 221.5t51.5 216.5h12q-20 -140 -52.5 -225t-114.5 -215l-347 -539h-12z" />
<glyph unicode="w" horiz-adv-x="1314" d="M96 979h13l135 -956l432 829h10l174 -827l291 520q44 79 71.5 154t38.5 126t29 154h13q-19 -105 -29.5 -153.5t-38.5 -125.5t-74 -159l-301 -541h-8l-174 834l-432 -834h-13z" />
<glyph unicode="x" horiz-adv-x="784" d="M-68 0l449 502l-260 477h14l254 -467l418 467h14l-426 -477l279 -502h-15l-272 492l-438 -492h-17z" />
<glyph unicode="y" horiz-adv-x="811" d="M66 979h12l258 -977h41l274 541q67 133 95 222t42 212h13q-13 -123 -43 -216.5t-96 -221.5l-484 -959h-14l207 410h-45z" />
<glyph unicode="z" horiz-adv-x="757" d="M-63 0l2 12l858 955h-639l2 12h655l-2 -12l-858 -955h696l-2 -12h-712z" />
<glyph unicode="{" horiz-adv-x="622" d="M224.5 -150q-1.5 33 1.5 57.5t10 61.5l67 400q7 41 10 64.5t4 58.5t-5.5 55.5t-22.5 40t-43 28.5v9q36 11 62 34.5t41.5 60t22.5 65.5t15 73l64 371q7 38 12.5 61.5t18.5 57t29.5 52.5t44.5 33.5t65 14.5h69l-2 -12h-70q-33 0 -58.5 -13.5t-41 -31.5t-27.5 -49t-17 -54.5 t-11 -58.5l-64 -371q-16 -94 -45.5 -153.5t-89.5 -83.5q30 -15 46 -40t18.5 -62t-1 -69t-12.5 -81l-67 -400q-4 -26 -6.5 -41.5t-4.5 -40t0 -40t7.5 -33.5t16 -28t28 -17t41.5 -7h69l-2 -12h-69q-37 0 -60 14t-32.5 33.5t-11 52.5z" />
<glyph unicode="|" horiz-adv-x="477" d="M233 -254v1722h13v-1722h-13z" />
<glyph unicode="}" horiz-adv-x="622" d="M-8 -250l2 12h69q33 0 59 13.5t41 31.5t27 49t17.5 54.5t11.5 58.5l68 400q10 52 17 81.5t22.5 68t40 63t59.5 39.5q-36 17 -51.5 55t-14.5 80t11 102l65 371q5 32 7 49t3 46t-4 45t-14 33.5t-28.5 25.5t-47.5 8h-69l2 12h69q31 0 52.5 -9t32 -27t16.5 -36t5 -47 t-3.5 -49t-7.5 -51l-66 -371q-6 -34 -8.5 -58t-2.5 -55t7 -52t23.5 -40t43.5 -28v-9q-37 -11 -63.5 -35t-42.5 -61.5t-24.5 -70t-16.5 -80.5l-68 -400q-7 -38 -12.5 -61.5t-18.5 -57t-29.5 -52.5t-44.5 -33.5t-65 -14.5h-69z" />
<glyph unicode="~" horiz-adv-x="1093" d="M137 516q55 72 104 97.5t111 25.5q29 0 65 -11t59 -22t65 -33q124 -69 202 -69q148 0 238 139l12 -4q-97 -147 -250 -147q-36 0 -76.5 11.5t-66 24t-65.5 33.5q-59 33 -100.5 49.5t-84.5 16.5q-60 0 -105 -24.5t-98 -94.5z" />
<glyph unicode="&#xa1;" horiz-adv-x="440" d="M47 -442l215 1200h12l-208 -1200h-19zM281 958q0 10 6 17.5t16 7.5q19 0 19 -18q-7 -21 -25 -21q-6 0 -11 4t-5 10z" />
<glyph unicode="&#xa2;" horiz-adv-x="1083" d="M193 504q0 136 29.5 253.5t87.5 210.5t154 146.5t220 54.5l41 226h12l-41 -226q130 -3 208.5 -63t78.5 -166q0 -19 -2 -29h-12q2 10 2 29q0 101 -76.5 158t-200.5 59l-172 -979h8q132 0 240.5 67t136.5 189q6 24 6 43h13q0 -23 -6 -47q-19 -84 -81.5 -145.5t-142.5 -90 t-166 -28.5h-10l-47 -268h-12l47 268q-315 9 -315 338zM205 504q0 -161 75.5 -241t229.5 -85l172 979q-121 -1 -214 -54.5t-149.5 -144.5t-85 -206t-28.5 -248z" />
<glyph unicode="&#xa3;" horiz-adv-x="1083" d="M18 0l2 12h80q105 127 163.5 281t58.5 280q0 41 -13 138h-164l2 12h160q-10 72 -10 139q0 103 24 187.5t75 151t138 103.5t205 37q167 0 251.5 -62.5t84.5 -156.5q0 -35 -4 -53h-12q10 60 -4.5 106.5t-46 75t-77.5 46.5t-93.5 25t-100.5 7q-117 0 -202 -36t-133.5 -102.5 t-70.5 -149.5t-22 -187q0 -63 10 -131h404l-2 -12h-399q12 -90 12 -140q0 -125 -57.5 -277.5t-161.5 -281.5h755l-2 -12h-850z" />
<glyph unicode="&#xa4;" horiz-adv-x="1116" d="M207 229l115 115q-89 89 -89 217q0 129 84 219l-110 115l8 8l111 -115q95 95 227 95q139 0 233 -101l119 121l8 -8l-120 -123q77 -86 77 -211q0 -122 -79 -211l122 -121l-8 -8l-123 121q-91 -94 -229 -94q-132 0 -223 88l-115 -115zM246 561q0 -125 90 -213t217 -88 q128 0 216.5 88t88.5 213q0 129 -88 219t-217 90q-128 0 -217.5 -90t-89.5 -219z" />
<glyph unicode="&#xa5;" horiz-adv-x="1116" d="M117 397l2 13h422l28 161h-422l3 13h421v4l-307 741h15l301 -727l571 727h14l-581 -741v-4h430l-2 -13h-430l-29 -161h430l-2 -13h-430l-70 -397h-12l70 397h-422z" />
<glyph unicode="&#xa6;" horiz-adv-x="477" d="M231 -254v780h13v-780h-13zM231 739v729h13v-729h-13z" />
<glyph unicode="&#xa7;" horiz-adv-x="997" d="M37 -35q0 24 6 51h10q-6 -24 -6 -49q0 -89 78.5 -150t224.5 -61q184 0 297 91.5t113 220.5q0 77 -52 129.5t-135 72.5q-169 37 -241 68q-182 77 -182 221q0 60 28.5 120.5t96 118.5t163.5 89q-162 54 -162 194q0 38 13 78t43.5 82t74.5 75t112.5 54t150.5 21 q128 0 213.5 -60t85.5 -162q0 -29 -4 -45h-13q4 28 4 43q0 87 -72.5 149t-215.5 62q-169 0 -274 -88t-105 -211q0 -47 19 -83t56 -60.5t77.5 -39.5t95.5 -28q178 -41 266 -106.5t88 -179.5q0 -40 -16.5 -83.5t-49.5 -88t-92.5 -81.5t-136.5 -55q90 -28 133 -84.5t43 -126.5 q0 -37 -13 -77.5t-45.5 -84t-79 -77.5t-121 -56t-165.5 -22q-81 0 -149.5 22t-115 73.5t-46.5 123.5zM160 561q0 -50 23.5 -91.5t60 -69.5t93.5 -52t111.5 -38.5t126.5 -28.5q127 22 215.5 107.5t88.5 193.5q0 116 -97 181.5t-333 115.5q-132 -38 -210.5 -132t-78.5 -186z " />
<glyph unicode="&#xa8;" horiz-adv-x="929" d="M449 1200q0 8 7 15.5t17 7.5q12 0 12 -15q0 -10 -5.5 -16t-12.5 -6q-18 0 -18 14zM743 1200q0 7 7 15t18 8q10 0 10 -13q0 -24 -16 -24q-19 0 -19 14z" />
<glyph unicode="&#xa9;" horiz-adv-x="1656" d="M111 731q0 154 55 291t150.5 236t230 157t287.5 58q147 0 280.5 -58t229.5 -156.5t153 -236.5t57 -291q0 -154 -57 -292.5t-153 -237.5t-229.5 -157t-280.5 -58q-211 0 -375.5 92t-256 262t-91.5 391zM123 731q0 -328 198 -530.5t513 -202.5q193 0 355.5 97t257.5 266 t95 370q0 200 -95 368t-257.5 264.5t-355.5 96.5q-199 0 -362.5 -96.5t-256 -263.5t-92.5 -369zM399 688q0 85 13 158.5t45 141.5t80.5 116.5t124 77t172.5 28.5q171 0 265 -73t81 -201h-13q13 122 -78 192t-255 70q-94 0 -168 -28t-121 -75.5t-77.5 -114t-43 -138.5 t-12.5 -154q0 -252 96.5 -370.5t318.5 -118.5q53 0 104 10t99 32.5t83.5 55.5t55.5 83t17 112h12q3 -64 -17.5 -116.5t-57.5 -87t-87 -58t-102.5 -34t-106.5 -10.5q-228 0 -328 122t-100 380z" />
<glyph unicode="&#xaa;" horiz-adv-x="700" d="M141 836q0 88 22.5 163.5t66 132.5t111 90t151.5 33q83 0 143 -52t63 -165l37 211h15l-113 -635h-14l34 197q-25 -61 -62 -104t-79.5 -64t-80.5 -30t-77 -9q-112 0 -164.5 62.5t-52.5 169.5zM154 834q0 -218 208 -218q81 0 145 35.5t102 94.5t57.5 130.5t19.5 149.5 q0 57 -17.5 104t-63.5 80t-116 33q-158 0 -246.5 -113t-88.5 -296z" />
<glyph unicode="&#xab;" horiz-adv-x="761" d="M119 449l2 12l368 387l7 -6l-359 -387l240 -383l-10 -6zM332 449l2 12l366 387l9 -6l-359 -387l240 -383l-10 -6z" />
<glyph unicode="&#xac;" horiz-adv-x="1083" d="M205 559l2 14h704l-63 -362h-14l61 348h-690z" />
<glyph unicode="&#xad;" horiz-adv-x="890" d="M211 506l4 18h481l-4 -18h-481z" />
<glyph unicode="&#xae;" horiz-adv-x="1153" d="M96 934q0 133 61.5 244.5t172 177t245.5 65.5q216 0 349 -140.5t133 -346.5q0 -131 -64 -241t-175 -174t-243 -64q-216 0 -347.5 137t-131.5 342zM109 934q0 -199 128 -333t338 -134q128 0 236 62.5t170.5 170t62.5 234.5q0 130 -56.5 238t-164.5 172.5t-248 64.5 q-131 0 -238.5 -64.5t-167.5 -173t-60 -237.5zM424 662v565h186q76 0 125 -41t49 -119q0 -53 -35.5 -100.5t-97.5 -55.5l129 -249h-14l-129 249h-10h-191v-249h-12zM436 924h191q67 0 106 44t39 99q0 72 -46 109.5t-116 37.5h-174v-290z" />
<glyph unicode="&#xaf;" horiz-adv-x="929" d="M344 1212l2 17h543l-2 -17h-543z" />
<glyph unicode="&#xb0;" horiz-adv-x="825" d="M188 1116q0 97 64 159t156 62q98 0 163.5 -62.5t65.5 -158.5q0 -91 -66 -153t-163 -62q-99 0 -159.5 61t-60.5 154zM201 1116q0 -87 57 -145t150 -58q91 0 154 59t63 144q0 90 -62.5 149.5t-154.5 59.5q-86 0 -146.5 -59t-60.5 -150z" />
<glyph unicode="&#xb1;" horiz-adv-x="1083" d="M111 0l2 14h702l-2 -14h-702zM205 535l2 14h346l65 371h15l-66 -371h342l-2 -14h-342l-61 -349h-15l62 349h-346z" />
<glyph unicode="&#xb2;" horiz-adv-x="761" d="M123 793l4 26q16 103 98 173t271 167q135 70 208.5 134.5t73.5 142.5q0 135 -211 135q-136 0 -208 -52.5t-83 -134.5h-12q13 89 88.5 144t216.5 55q110 0 166 -37.5t56 -105.5q0 -46 -23 -87t-68 -78t-90.5 -64.5t-111.5 -61.5q-92 -47 -145 -79t-105.5 -74t-78 -88 t-32.5 -103h580l-2 -12h-592z" />
<glyph unicode="&#xb3;" horiz-adv-x="761" d="M119 938q0 21 10 59h12q-10 -33 -10 -57q0 -42 23 -72t61 -45t76.5 -21.5t79.5 -6.5q147 0 245.5 77.5t98.5 198.5q0 86 -65.5 137.5t-180.5 51.5q-19 0 -49 -3l-4 11l362 288v5h-506l2 12h529l-2 -12l-363 -289h33q117 0 186.5 -54t69.5 -143q0 -128 -101.5 -210.5 t-256.5 -82.5q-40 0 -79.5 7t-80 23.5t-65.5 49t-25 76.5z" />
<glyph unicode="&#xb4;" horiz-adv-x="929" d="M555 1147l254 252l10 -13l-256 -247z" />
<glyph unicode="&#xb5;" horiz-adv-x="958" d="M-39 -420l248 1399h12l-102 -573q-12 -73 -14.5 -127t9 -108.5t41.5 -89t88.5 -56t143.5 -21.5q38 0 81 9.5t100 40t105 77.5t89.5 130.5t60.5 191.5l95 526h10l-172 -977h-11l56 313q-28 -74 -71 -133t-87.5 -93.5t-94 -57.5t-89 -31t-74.5 -8q-83 0 -141 18.5t-90.5 54 t-46.5 80.5t-15 105l-119 -670h-12z" />
<glyph unicode="&#xb6;" horiz-adv-x="792" d="M205 1032q0 185 115 300.5t315 115.5h92l-123 -703h-92q-151 0 -229 75t-78 212zM229 -289l2 13q141 -6 208.5 56.5t95.5 223.5l253 1444h13l-254 -1444q-29 -164 -94 -228.5t-191 -64.5h-33z" />
<glyph unicode="&#xb7;" horiz-adv-x="280" d="M131 561q0 12 9.5 21.5t21.5 9.5q8 0 14 -7t6 -16q0 -11 -9 -20.5t-19 -9.5t-16.5 6.5t-6.5 15.5z" />
<glyph unicode="&#xb8;" horiz-adv-x="937" d="M195 -369l6 11q67 -25 127 -25q88 0 140 44t52 103q0 50 -35 76.5t-86 26.5q-39 0 -77 -12l-7 8l99 133h14l-96 -127q27 8 69 8q55 0 93 -29.5t38 -83.5q0 -64 -56.5 -111.5t-145.5 -47.5q-65 0 -135 26z" />
<glyph unicode="&#xb9;" horiz-adv-x="761" d="M150 793l2 12h241l133 754l-219 -37v12l221 39h13l-135 -768h247l-2 -12h-501z" />
<glyph unicode="&#xba;" horiz-adv-x="712" d="M150 825q0 61 13 121t41 116t68.5 99t99.5 68.5t130 25.5q123 0 177 -65t54 -168q0 -55 -11 -110.5t-37 -111.5t-64.5 -99t-99 -70t-134.5 -27q-237 0 -237 221zM162 827q0 -211 227 -211q71 0 129 26t95 67.5t62 96t35.5 108.5t10.5 108q0 221 -221 221 q-83 0 -150 -38.5t-107 -100.5t-60.5 -133t-20.5 -144z" />
<glyph unicode="&#xbb;" horiz-adv-x="761" d="M31 72l377 383l-226 387l8 6l234 -387l-2 -12l-385 -383zM244 72l377 383l-226 387l8 6l232 -387l-2 -12l-383 -383z" />
<glyph unicode="&#xbc;" horiz-adv-x="1556" d="M135 608l2 13h242l133 753l-219 -37v13l221 39h12l-135 -768h248l-2 -13h-502zM307 -57l1065 1499l10 -4l-1065 -1501zM760 211l2 12l610 557h10l-98 -557h131l-2 -12h-131l-37 -211h-12l37 211h-510zM778 223h494l98 543z" />
<glyph unicode="&#xbd;" horiz-adv-x="1556" d="M96 608l2 13h242l133 753l-219 -37v13l221 39h12l-135 -768h248l-2 -13h-502zM254 -57l1065 1499l10 -4l-1065 -1501zM788 0l5 27q16 103 97.5 173t270.5 167q65 34 109 61t87.5 62t65 73.5t21.5 79.5q0 135 -211 135q-136 0 -208 -52t-83 -134h-12q13 89 88.5 144 t216.5 55q110 0 165.5 -38t55.5 -106q0 -46 -23 -87t-68 -78t-90.5 -64.5t-111.5 -61.5q-92 -47 -145 -79t-105 -74t-77.5 -88t-32.5 -103h579l-2 -12h-592z" />
<glyph unicode="&#xbe;" horiz-adv-x="1556" d="M117 754q0 21 10 59h12q-10 -33 -10 -57q0 -42 23 -72t61 -45.5t76.5 -22t79.5 -6.5q147 0 245.5 78t98.5 199q0 86 -65 137t-181 51q-29 0 -49 -2l-4 10l362 289v4h-506l2 13h529l-2 -13l-363 -289h33q117 0 186.5 -53.5t69.5 -142.5q0 -128 -101.5 -210.5t-256.5 -82.5 q-40 0 -79.5 7t-80 23.5t-65.5 49t-25 76.5zM336 -57l1065 1499l10 -4l-1065 -1501zM778 211l2 12l611 557h10l-98 -557h131l-2 -12h-132l-36 -211h-13l37 211h-510zM797 223h493l99 543z" />
<glyph unicode="&#xbf;" horiz-adv-x="1081" d="M57 -219q0 70 26 129.5t69.5 105t96.5 88.5t109.5 92t106 103.5t89 134.5t56.5 174l27 154h12l-24 -144q-17 -98 -56.5 -180.5t-89.5 -139t-106.5 -106t-110 -93t-96.5 -88t-69.5 -103t-26.5 -127.5q0 -101 72.5 -160t232.5 -59q86 0 157 19.5t119 52t82.5 77t51.5 91.5 t22 98h10q-4 -52 -21.5 -101t-52.5 -95t-84.5 -80t-123 -54.5t-162.5 -20.5q-162 0 -239 63t-77 169zM653 958q0 9 7.5 16t17.5 7q14 0 14 -14q0 -10 -6 -17.5t-14 -7.5q-19 0 -19 16z" />
<glyph unicode="&#xc0;" horiz-adv-x="1120" d="M-51 0l760 1378h14l285 -1378h-13l-82 389h-737l-213 -389h-14zM184 401h727l-196 965zM516 1716l12 13l205 -218l-10 -8z" />
<glyph unicode="&#xc1;" horiz-adv-x="1120" d="M-51 0l760 1378h14l285 -1378h-13l-82 389h-737l-213 -389h-14zM184 401h727l-196 965zM696 1511l277 218l10 -13l-281 -213z" />
<glyph unicode="&#xc2;" horiz-adv-x="1120" d="M-51 0l760 1378h14l285 -1378h-13l-82 389h-737l-213 -389h-14zM184 401h727l-196 965zM444 1475l308 219h10l227 -213l-8 -8l-227 206l-303 -213z" />
<glyph unicode="&#xc3;" horiz-adv-x="1120" d="M-51 0l760 1378h14l285 -1378h-13l-82 389h-737l-213 -389h-14zM184 401h727l-196 965zM442 1573q65 100 158 100q36 0 121 -45t123 -45q75 0 139 86l10 -6q-70 -92 -151 -92q-40 0 -124 45t-118 45q-85 0 -149 -94z" />
<glyph unicode="&#xc4;" horiz-adv-x="1120" d="M-51 0l760 1378h14l285 -1378h-13l-82 389h-737l-213 -389h-14zM184 401h727l-196 965zM573 1591q0 7 6.5 15t16.5 8q7 0 11.5 -5.5t4.5 -11.5q0 -20 -22 -20q-17 0 -17 14zM868 1591q0 8 6 15.5t17 7.5q6 0 10 -5.5t4 -11.5q0 -10 -6.5 -15t-13.5 -5q-17 0 -17 14z" />
<glyph unicode="&#xc5;" horiz-adv-x="1120" d="M-51 0l760 1378h14l285 -1378h-13l-82 389h-737l-213 -389h-14zM184 401h727l-196 965zM608 1538q0 70 46.5 121t113.5 51q55 0 84 -31.5t29 -79.5q0 -69 -45.5 -121.5t-116.5 -52.5q-51 0 -81 31t-30 82zM621 1540q0 -46 28 -74t72 -28q63 0 105 48.5t42 108.5 q0 45 -26 74t-76 29q-60 0 -102.5 -47.5t-42.5 -110.5z" />
<glyph unicode="&#xc6;" horiz-adv-x="1744" d="M-35 0l1047 1378h749v-12h-733l-74 -618h680l-2 -13h-680l-86 -723h807v-12h-819l64 557h-515l-421 -557h-17zM412 569h510l94 797z" />
<glyph unicode="&#xc7;" horiz-adv-x="1206" d="M141 446q0 205 44.5 376.5t130 298.5t219 198.5t303.5 71.5q96 0 175 -27.5t131 -89.5t52 -150q0 -45 -16 -104h-13q17 63 17 100q0 85 -51 145t-127.5 86.5t-169.5 26.5q-167 0 -298 -70.5t-214.5 -196.5t-126.5 -294.5t-43 -370.5q0 -216 97 -329t327 -113 q121 0 216.5 31t156 85t94.5 123t40 150h13q-14 -175 -148 -288t-375 -113q-121 0 -206.5 31t-134.5 92t-71 141.5t-22 189.5zM362 -369l7 11q67 -25 127 -25q88 0 140 44t52 103q0 50 -35 76.5t-86 26.5q-41 0 -78 -12l-6 8l99 133h14l-96 -127q27 8 69 8q55 0 93 -29.5 t38 -83.5q0 -64 -56.5 -111.5t-145.5 -47.5q-66 0 -136 26z" />
<glyph unicode="&#xc8;" horiz-adv-x="1064" d="M61 0l242 1378h791l-2 -12h-779l-106 -610h743l-2 -13h-743l-129 -731h852l-2 -12h-865zM580 1716l12 13l205 -218l-11 -8z" />
<glyph unicode="&#xc9;" horiz-adv-x="1064" d="M61 0l242 1378h791l-2 -12h-779l-106 -610h743l-2 -13h-743l-129 -731h852l-2 -12h-865zM670 1511l276 218l10 -13l-280 -213z" />
<glyph unicode="&#xca;" horiz-adv-x="1064" d="M61 0l242 1378h791l-2 -12h-779l-106 -610h743l-2 -13h-743l-129 -731h852l-2 -12h-865zM444 1501l308 219h10l227 -213l-8 -8l-227 207l-303 -213z" />
<glyph unicode="&#xcb;" horiz-adv-x="1064" d="M61 0l242 1378h791l-2 -12h-779l-106 -610h743l-2 -13h-743l-129 -731h852l-2 -12h-865zM567 1591q0 7 6.5 15t16.5 8q7 0 11.5 -5.5t4.5 -11.5q0 -20 -22 -20q-17 0 -17 14zM862 1591q0 8 6 15.5t17 7.5q6 0 10 -5.5t4 -11.5q0 -10 -6.5 -15t-13.5 -5q-17 0 -17 14z" />
<glyph unicode="&#xcc;" horiz-adv-x="380" d="M102 0l242 1378h12l-241 -1378h-13zM168 1716l12 13l205 -218l-10 -8z" />
<glyph unicode="&#xcd;" horiz-adv-x="380" d="M102 0l242 1378h12l-241 -1378h-13zM350 1511l277 218l10 -13l-281 -213z" />
<glyph unicode="&#xce;" horiz-adv-x="380" d="M102 0l242 1378h12l-241 -1378h-13zM109 1501l307 219h10l227 -213l-8 -8l-227 207l-303 -213z" />
<glyph unicode="&#xcf;" horiz-adv-x="380" d="M102 0l242 1378h12l-241 -1378h-13zM240 1591q0 7 6 15t16 8q7 0 12 -5.5t5 -11.5q0 -20 -23 -20q-16 0 -16 14zM535 1591q0 8 5.5 15.5t16.5 7.5q6 0 10 -5.5t4 -11.5q0 -10 -6.5 -15t-13.5 -5q-16 0 -16 14z" />
<glyph unicode="&#xd0;" horiz-adv-x="1226" d="M45 721l2 12h141l115 645h309q82 0 158.5 -18t150.5 -60.5t128 -106t87 -163t33 -223.5q0 -235 -99 -419.5t-275 -286t-398 -101.5h-336l125 721h-141zM78 12h319q163 0 304 58.5t241.5 162.5t157.5 252.5t57 321.5q0 122 -32 219t-85 159.5t-125 104t-147 59t-156 17.5 h-297l-110 -633h540l-2 -12h-540z" />
<glyph unicode="&#xd1;" horiz-adv-x="1265" d="M61 0l242 1378h12l717 -1353l238 1353h12l-242 -1378h-10l-719 1360l-237 -1360h-13zM522 1554q66 101 158 101q36 0 121 -45t123 -45q75 0 139 86l10 -6q-71 -93 -151 -93q-40 0 -124 45t-118 45q-86 0 -150 -94z" />
<glyph unicode="&#xd2;" horiz-adv-x="1341" d="M137 446q0 151 27 289t84 258t138.5 208.5t196.5 139t251 50.5q438 0 438 -476q0 -103 -17 -207t-50.5 -209t-90.5 -195.5t-130.5 -160.5t-177 -110.5t-224.5 -40.5q-222 0 -333.5 115.5t-111.5 338.5zM150 451q0 -226 108 -336.5t326 -110.5q117 0 217 38.5t172.5 106 t128.5 156t90 191t51 207.5t17 210q0 108 -22.5 191t-72 146.5t-133.5 96.5t-201 33q-132 0 -244 -49.5t-191.5 -136t-135.5 -204t-83 -254t-27 -285.5zM670 1716l12 13l205 -218l-10 -8z" />
<glyph unicode="&#xd3;" horiz-adv-x="1341" d="M137 446q0 151 27 289t84 258t138.5 208.5t196.5 139t251 50.5q438 0 438 -476q0 -103 -17 -207t-50.5 -209t-90.5 -195.5t-130.5 -160.5t-177 -110.5t-224.5 -40.5q-222 0 -333.5 115.5t-111.5 338.5zM150 451q0 -226 108 -336.5t326 -110.5q117 0 217 38.5t172.5 106 t128.5 156t90 191t51 207.5t17 210q0 108 -22.5 191t-72 146.5t-133.5 96.5t-201 33q-132 0 -244 -49.5t-191.5 -136t-135.5 -204t-83 -254t-27 -285.5zM815 1511l277 218l10 -13l-281 -213z" />
<glyph unicode="&#xd4;" horiz-adv-x="1341" d="M137 446q0 151 27 289t84 258t138.5 208.5t196.5 139t251 50.5q438 0 438 -476q0 -103 -17 -207t-50.5 -209t-90.5 -195.5t-130.5 -160.5t-177 -110.5t-224.5 -40.5q-222 0 -333.5 115.5t-111.5 338.5zM150 451q0 -226 108 -336.5t326 -110.5q117 0 217 38.5t172.5 106 t128.5 156t90 191t51 207.5t17 210q0 108 -22.5 191t-72 146.5t-133.5 96.5t-201 33q-132 0 -244 -49.5t-191.5 -136t-135.5 -204t-83 -254t-27 -285.5zM621 1501l307 219h10l227 -213l-8 -8l-227 207l-303 -213z" />
<glyph unicode="&#xd5;" horiz-adv-x="1341" d="M137 446q0 151 27 289t84 258t138.5 208.5t196.5 139t251 50.5q438 0 438 -476q0 -103 -17 -207t-50.5 -209t-90.5 -195.5t-130.5 -160.5t-177 -110.5t-224.5 -40.5q-222 0 -333.5 115.5t-111.5 338.5zM150 451q0 -226 108 -336.5t326 -110.5q117 0 217 38.5t172.5 106 t128.5 156t90 191t51 207.5t17 210q0 108 -22.5 191t-72 146.5t-133.5 96.5t-201 33q-132 0 -244 -49.5t-191.5 -136t-135.5 -204t-83 -254t-27 -285.5zM635 1589q66 101 158 101q35 0 119.5 -45.5t123.5 -45.5q75 0 140 87l10 -7q-70 -92 -152 -92q-40 0 -123.5 45 t-117.5 45q-86 0 -150 -94z" />
<glyph unicode="&#xd6;" horiz-adv-x="1341" d="M137 446q0 151 27 289t84 258t138.5 208.5t196.5 139t251 50.5q438 0 438 -476q0 -103 -17 -207t-50.5 -209t-90.5 -195.5t-130.5 -160.5t-177 -110.5t-224.5 -40.5q-222 0 -333.5 115.5t-111.5 338.5zM150 451q0 -226 108 -336.5t326 -110.5q117 0 217 38.5t172.5 106 t128.5 156t90 191t51 207.5t17 210q0 108 -22.5 191t-72 146.5t-133.5 96.5t-201 33q-132 0 -244 -49.5t-191.5 -136t-135.5 -204t-83 -254t-27 -285.5zM764 1591q0 7 6 15t16 8q7 0 12 -5.5t5 -11.5q0 -20 -23 -20q-16 0 -16 14zM1059 1591q0 8 5.5 15.5t16.5 7.5 q6 0 10.5 -5.5t4.5 -11.5q0 -10 -7 -15t-14 -5q-16 0 -16 14z" />
<glyph unicode="&#xd7;" horiz-adv-x="1083" d="M240 313l288 252l-198 252l12 10l199 -252l286 250l9 -10l-287 -250l199 -250l-13 -10l-198 250l-287 -252z" />
<glyph unicode="&#xd8;" horiz-adv-x="1341" d="M51 -35l164 180q-78 116 -78 301q0 151 27 289t84 258t138.5 208.5t196.5 139t251 50.5q253 0 362 -164l145 159l9 -8l-148 -161q70 -114 70 -302q0 -103 -17 -207t-50.5 -209t-90.5 -195.5t-130.5 -160.5t-177 -110.5t-224.5 -40.5q-250 0 -359 145l-164 -180zM150 451 q0 -188 73 -295l965 1063q-99 161 -357 161q-132 0 -244 -49.5t-191.5 -136t-135.5 -204t-83 -254t-27 -285.5zM231 145q105 -141 353 -141q117 0 217 38.5t172.5 106t128.5 156t90 191t51 207.5t17 210q0 181 -66 295z" />
<glyph unicode="&#xd9;" horiz-adv-x="1292" d="M145 333q-10 107 17 240l141 805h12l-141 -805q-17 -104 -18 -192t24 -158t74 -118.5t132 -74.5t198 -26q108 0 195 28.5t148.5 78t107.5 123t74 156.5t46 185l141 803h13l-142 -803q-23 -132 -64.5 -233t-109.5 -182.5t-171.5 -124.5t-239.5 -43q-146 0 -242 41 t-140.5 117t-54.5 183zM674 1716l12 13l205 -218l-10 -8z" />
<glyph unicode="&#xda;" horiz-adv-x="1292" d="M145 333q-10 107 17 240l141 805h12l-141 -805q-17 -104 -18 -192t24 -158t74 -118.5t132 -74.5t198 -26q108 0 195 28.5t148.5 78t107.5 123t74 156.5t46 185l141 803h13l-142 -803q-23 -132 -64.5 -233t-109.5 -182.5t-171.5 -124.5t-239.5 -43q-146 0 -242 41 t-140.5 117t-54.5 183zM750 1511l276 218l10 -13l-280 -213z" />
<glyph unicode="&#xdb;" horiz-adv-x="1292" d="M145 333q-10 107 17 240l141 805h12l-141 -805q-17 -104 -18 -192t24 -158t74 -118.5t132 -74.5t198 -26q108 0 195 28.5t148.5 78t107.5 123t74 156.5t46 185l141 803h13l-142 -803q-23 -132 -64.5 -233t-109.5 -182.5t-171.5 -124.5t-239.5 -43q-146 0 -242 41 t-140.5 117t-54.5 183zM549 1501l307 219h10l228 -213l-9 -8l-227 207l-303 -213z" />
<glyph unicode="&#xdc;" horiz-adv-x="1292" d="M145 333q-10 107 17 240l141 805h12l-141 -805q-17 -104 -18 -192t24 -158t74 -118.5t132 -74.5t198 -26q108 0 195 28.5t148.5 78t107.5 123t74 156.5t46 185l141 803h13l-142 -803q-23 -132 -64.5 -233t-109.5 -182.5t-171.5 -124.5t-239.5 -43q-146 0 -242 41 t-140.5 117t-54.5 183zM668 1591q0 7 6 15t16 8q7 0 12 -5.5t5 -11.5q0 -20 -23 -20q-16 0 -16 14zM963 1591q0 8 5.5 15.5t16.5 7.5q6 0 10 -5.5t4 -11.5q0 -10 -6.5 -15t-13.5 -5q-16 0 -16 14z" />
<glyph unicode="&#xdd;" horiz-adv-x="950" d="M174 1378h14l295 -798l596 798h15l-607 -813l-96 -565h-12l96 565zM582 1477l276 217l10 -13l-280 -213z" />
<glyph unicode="&#xde;" horiz-adv-x="1093" d="M61 0l242 1378h12l-47 -262h449q186 0 281.5 -95t95.5 -259q0 -59 -14.5 -118.5t-51.5 -122.5t-92.5 -110.5t-146.5 -78.5t-205 -31h-457l-53 -301h-13zM129 313h457q112 0 200.5 30t142.5 76.5t89.5 107.5t49 118.5t13.5 114.5q0 159 -91 251.5t-275 92.5h-449z" />
<glyph unicode="&#xdf;" horiz-adv-x="1017" d="M-379 -379l2 12q62 -8 107 -8q77 0 133 26t89.5 76t52 102t32.5 126l194 1044q44 239 150.5 360.5t286.5 121.5q139 0 219 -67.5t80 -160.5q0 -48 -15 -93.5t-33 -76.5t-53 -68.5t-55.5 -54.5t-60.5 -50q-7 -6 -11 -9q-54 -44 -83 -81t-29 -75t30 -77.5t95 -102.5 q182 -180 182 -291q0 -86 -31.5 -149t-88.5 -98.5t-127.5 -51.5t-158.5 -16q-62 0 -114 6l2 12q56 -6 119 -6q60 0 112.5 8t104 29.5t87.5 55t58.5 87t22.5 123.5q0 109 -168 273q-72 70 -106 115t-34 81q0 40 33.5 85.5t114.5 107.5q192 147 192 313q0 93 -77.5 155 t-217.5 62q-174 0 -273 -123.5t-144 -365.5l-191 -1028q-32 -170 -105.5 -253t-211.5 -83q-67 0 -111 8z" />
<glyph unicode="&#xe0;" horiz-adv-x="1011" d="M88 350q0 133 32.5 248t94 202.5t158.5 138t217 50.5q152 0 241 -89t80 -255l56 336h12l-168 -981h-10l65 383q-60 -186 -174 -288.5t-262 -102.5q-167 0 -254.5 95.5t-87.5 262.5zM100 348q0 -161 83.5 -252.5t248.5 -91.5q92 0 171 42t132.5 110t92 155t56 176.5 t17.5 174.5q0 143 -77 229t-236 86q-96 0 -177 -33.5t-137.5 -92t-96 -138t-58.5 -172t-19 -193.5zM471 1366l14 12l203 -225l-8 -8z" />
<glyph unicode="&#xe1;" horiz-adv-x="1011" d="M88 350q0 133 32.5 248t94 202.5t158.5 138t217 50.5q152 0 241 -89t80 -255l56 336h12l-168 -981h-10l65 383q-60 -186 -174 -288.5t-262 -102.5q-167 0 -254.5 95.5t-87.5 262.5zM100 348q0 -161 83.5 -252.5t248.5 -91.5q92 0 171 42t132.5 110t92 155t56 176.5 t17.5 174.5q0 143 -77 229t-236 86q-96 0 -177 -33.5t-137.5 -92t-96 -138t-58.5 -172t-19 -193.5zM565 1147l254 252l10 -13l-256 -247z" />
<glyph unicode="&#xe2;" horiz-adv-x="1011" d="M88 350q0 133 32.5 248t94 202.5t158.5 138t217 50.5q152 0 241 -89t80 -255l56 336h12l-168 -981h-10l65 383q-60 -186 -174 -288.5t-262 -102.5q-167 0 -254.5 95.5t-87.5 262.5zM100 348q0 -161 83.5 -252.5t248.5 -91.5q92 0 171 42t132.5 110t92 155t56 176.5 t17.5 174.5q0 143 -77 229t-236 86q-96 0 -177 -33.5t-137.5 -92t-96 -138t-58.5 -172t-19 -193.5zM342 1122l324 256h14l227 -250l-8 -8l-227 246l-324 -252z" />
<glyph unicode="&#xe3;" horiz-adv-x="1011" d="M88 350q0 133 32.5 248t94 202.5t158.5 138t217 50.5q152 0 241 -89t80 -255l56 336h12l-168 -981h-10l65 383q-60 -186 -174 -288.5t-262 -102.5q-167 0 -254.5 95.5t-87.5 262.5zM100 348q0 -161 83.5 -252.5t248.5 -91.5q92 0 171 42t132.5 110t92 155t56 176.5 t17.5 174.5q0 143 -77 229t-236 86q-96 0 -177 -33.5t-137.5 -92t-96 -138t-58.5 -172t-19 -193.5zM387 1221q65 100 158 100q36 0 120.5 -45t122.5 -45q76 0 140 86l10 -6q-70 -92 -152 -92q-40 0 -123.5 45t-117.5 45q-85 0 -150 -95z" />
<glyph unicode="&#xe4;" horiz-adv-x="1011" d="M88 350q0 133 32.5 248t94 202.5t158.5 138t217 50.5q152 0 241 -89t80 -255l56 336h12l-168 -981h-10l65 383q-60 -186 -174 -288.5t-262 -102.5q-167 0 -254.5 95.5t-87.5 262.5zM100 348q0 -161 83.5 -252.5t248.5 -91.5q92 0 171 42t132.5 110t92 155t56 176.5 t17.5 174.5q0 143 -77 229t-236 86q-96 0 -177 -33.5t-137.5 -92t-96 -138t-58.5 -172t-19 -193.5zM494 1200q0 8 7 15.5t17 7.5q12 0 12 -15q0 -10 -5.5 -16t-12.5 -6q-18 0 -18 14zM788 1200q0 7 7 15t18 8q10 0 10 -13q0 -24 -16 -24q-19 0 -19 14z" />
<glyph unicode="&#xe5;" horiz-adv-x="1011" d="M88 350q0 133 32.5 248t94 202.5t158.5 138t217 50.5q152 0 241 -89t80 -255l56 336h12l-168 -981h-10l65 383q-60 -186 -174 -288.5t-262 -102.5q-167 0 -254.5 95.5t-87.5 262.5zM100 348q0 -161 83.5 -252.5t248.5 -91.5q92 0 171 42t132.5 110t92 155t56 176.5 t17.5 174.5q0 143 -77 229t-236 86q-96 0 -177 -33.5t-137.5 -92t-96 -138t-58.5 -172t-19 -193.5zM545 1266q0 70 46.5 121t113.5 51q55 0 83.5 -31.5t28.5 -79.5q0 -69 -45.5 -121.5t-116.5 -52.5q-51 0 -80.5 31t-29.5 82zM557 1268q0 -46 28 -74.5t72 -28.5 q63 0 105.5 49t42.5 109q0 45 -26.5 73.5t-76.5 28.5q-60 0 -102.5 -47t-42.5 -110z" />
<glyph unicode="&#xe6;" horiz-adv-x="1642" d="M45 201q0 50 11 93.5t41.5 87.5t77.5 75.5t125.5 51t180.5 19.5q150 0 322 -36q5 28 18 80t20 93t7 78q0 103 -70.5 168.5t-230.5 65.5q-161 0 -252.5 -69t-93.5 -173h-15q0 107 95 180.5t268 73.5q160 0 235.5 -67.5t75.5 -163.5q0 -51 -10 -99q61 146 174.5 234 t275.5 88q78 0 136.5 -20t90 -53t46 -70.5t14.5 -79.5q0 -26 -5.5 -52t-20 -57.5t-37.5 -59.5t-61.5 -54.5t-88 -46t-120.5 -31t-156 -11.5q-116 0 -285 31q-10 -87 -10 -139q0 -53 6.5 -96.5t27 -89.5t53.5 -77t89.5 -51t132.5 -20q69 0 135 17t124 50.5t94 93t38 136.5h10 v-18q-9 -136 -125.5 -213.5t-275.5 -77.5q-81 0 -141 21.5t-95 59t-53.5 79.5t-25.5 92q-88 -123 -201.5 -187.5t-282.5 -64.5q-118 0 -193 52t-75 157zM57 201q0 -100 72 -148.5t186 -48.5q156 0 270 60t210 196q-4 54 -4 80q0 99 10 139q-185 37 -314 37 q-101 0 -178.5 -19t-124.5 -49t-76.5 -73t-40 -84.5t-10.5 -89.5zM815 489q176 -30 279 -30q112 0 199 20t139 50.5t85.5 71.5t45.5 79t12 78t-14 75.5t-44 67t-85.5 50t-131.5 18.5q-190 0 -317.5 -126.5t-167.5 -353.5z" />
<glyph unicode="&#xe7;" horiz-adv-x="899" d="M86 326q0 137 30 254.5t88.5 210.5t155.5 146.5t222 53.5q132 0 213.5 -60.5t81.5 -168.5q0 -14 -3 -29h-12q2 10 2 29q0 102 -77.5 159.5t-204.5 57.5q-122 0 -216.5 -52.5t-152 -144t-86.5 -207t-29 -249.5q0 -326 326 -326q132 0 240.5 67t136.5 189q6 24 6 43h12 q0 -23 -6 -47q-19 -84 -81.5 -145.5t-142 -90t-165.5 -28.5h-2l-90 -119q27 8 69 8q55 0 93 -29.5t38 -83.5q0 -64 -56.5 -111.5t-145.5 -47.5q-65 0 -135 26l6 11q67 -25 127 -25q88 0 140 44t52 103q0 50 -35 76.5t-86 26.5q-39 0 -77 -12l-7 8l93 125q-162 5 -242 88 t-80 250z" />
<glyph unicode="&#xe8;" horiz-adv-x="948" d="M86 338q0 96 19 187.5t60.5 174.5t100.5 145.5t144 99t186 36.5q78 0 136.5 -20t90 -53t46 -70.5t14.5 -79.5q0 -43 -13.5 -83.5t-53.5 -85.5t-104.5 -77.5t-177.5 -54t-260 -21.5q-80 0 -170 8q-6 -52 -6 -106q0 -53 7 -97t27 -89.5t53.5 -76.5t90 -51t132.5 -20 q69 0 135 17t124 50.5t94 93t38 136.5h12q0 -15 -4 -43q-19 -125 -133 -195.5t-266 -70.5q-79 0 -138.5 21t-93.5 53t-55 79.5t-28 93t-7 99.5zM106 457q90 -8 168 -8q144 0 254 20t173.5 51t103 74t52.5 82t13 82q0 40 -13.5 75.5t-43.5 67t-85.5 50t-131.5 18.5 q-108 0 -196.5 -41.5t-147.5 -114.5t-95.5 -162.5t-50.5 -193.5zM463 1366l14 12l203 -225l-8 -8z" />
<glyph unicode="&#xe9;" horiz-adv-x="948" d="M86 338q0 96 19 187.5t60.5 174.5t100.5 145.5t144 99t186 36.5q78 0 136.5 -20t90 -53t46 -70.5t14.5 -79.5q0 -43 -13.5 -83.5t-53.5 -85.5t-104.5 -77.5t-177.5 -54t-260 -21.5q-80 0 -170 8q-6 -52 -6 -106q0 -53 7 -97t27 -89.5t53.5 -76.5t90 -51t132.5 -20 q69 0 135 17t124 50.5t94 93t38 136.5h12q0 -15 -4 -43q-19 -125 -133 -195.5t-266 -70.5q-79 0 -138.5 21t-93.5 53t-55 79.5t-28 93t-7 99.5zM106 457q90 -8 168 -8q144 0 254 20t173.5 51t103 74t52.5 82t13 82q0 40 -13.5 75.5t-43.5 67t-85.5 50t-131.5 18.5 q-108 0 -196.5 -41.5t-147.5 -114.5t-95.5 -162.5t-50.5 -193.5zM600 1147l254 252l10 -13l-256 -247z" />
<glyph unicode="&#xea;" horiz-adv-x="948" d="M86 338q0 96 19 187.5t60.5 174.5t100.5 145.5t144 99t186 36.5q78 0 136.5 -20t90 -53t46 -70.5t14.5 -79.5q0 -43 -13.5 -83.5t-53.5 -85.5t-104.5 -77.5t-177.5 -54t-260 -21.5q-80 0 -170 8q-6 -52 -6 -106q0 -53 7 -97t27 -89.5t53.5 -76.5t90 -51t132.5 -20 q69 0 135 17t124 50.5t94 93t38 136.5h12q0 -15 -4 -43q-19 -125 -133 -195.5t-266 -70.5q-79 0 -138.5 21t-93.5 53t-55 79.5t-28 93t-7 99.5zM106 457q90 -8 168 -8q144 0 254 20t173.5 51t103 74t52.5 82t13 82q0 40 -13.5 75.5t-43.5 67t-85.5 50t-131.5 18.5 q-108 0 -196.5 -41.5t-147.5 -114.5t-95.5 -162.5t-50.5 -193.5zM326 1122l323 256h15l227 -250l-8 -8l-228 246l-323 -252z" />
<glyph unicode="&#xeb;" horiz-adv-x="948" d="M86 338q0 96 19 187.5t60.5 174.5t100.5 145.5t144 99t186 36.5q78 0 136.5 -20t90 -53t46 -70.5t14.5 -79.5q0 -43 -13.5 -83.5t-53.5 -85.5t-104.5 -77.5t-177.5 -54t-260 -21.5q-80 0 -170 8q-6 -52 -6 -106q0 -53 7 -97t27 -89.5t53.5 -76.5t90 -51t132.5 -20 q69 0 135 17t124 50.5t94 93t38 136.5h12q0 -15 -4 -43q-19 -125 -133 -195.5t-266 -70.5q-79 0 -138.5 21t-93.5 53t-55 79.5t-28 93t-7 99.5zM106 457q90 -8 168 -8q144 0 254 20t173.5 51t103 74t52.5 82t13 82q0 40 -13.5 75.5t-43.5 67t-85.5 50t-131.5 18.5 q-108 0 -196.5 -41.5t-147.5 -114.5t-95.5 -162.5t-50.5 -193.5zM465 1200q0 8 7 15.5t17 7.5q6 0 9.5 -5t3.5 -10q0 -10 -6 -16t-13 -6q-18 0 -18 14zM760 1200q0 7 6.5 15t17.5 8t11 -13q0 -24 -17 -24q-18 0 -18 14z" />
<glyph unicode="&#xec;" horiz-adv-x="331" d="M80 0l172 979h10l-172 -979h-10zM80 1366l14 12l203 -225l-8 -8z" />
<glyph unicode="&#xed;" horiz-adv-x="331" d="M80 0l172 979h10l-172 -979h-10zM266 1147l254 252l10 -13l-256 -247z" />
<glyph unicode="&#xee;" horiz-adv-x="331" d="M-6 1122l323 256h15l227 -250l-8 -8l-227 246l-324 -252zM80 0l172 979h10l-172 -979h-10z" />
<glyph unicode="&#xef;" horiz-adv-x="331" d="M80 0l172 979h10l-172 -979h-10zM123 1200q0 8 7 15.5t17 7.5q6 0 9.5 -5t3.5 -10q0 -10 -6 -16t-13 -6q-18 0 -18 14zM418 1200q0 7 6.5 15t17.5 8t11 -13q0 -24 -17 -24q-18 0 -18 14z" />
<glyph unicode="&#xf0;" horiz-adv-x="983" d="M86 311q0 139 32.5 261t94.5 215.5t159 147.5t218 54q158 0 238.5 -93t80.5 -251q0 -45 -2 -72h2q29 171 29 394q0 170 -61 295l-195 -125l-6 12l194 125q-82 158 -270 190l2 13q192 -32 281 -197l200 129l9 -10l-203 -131q61 -128 61 -305q0 -59 -1.5 -111.5t-8 -129.5 t-17 -142.5t-30.5 -142t-47 -138t-68 -120.5t-91 -99t-119 -64t-150 -24q-169 0 -250.5 79t-81.5 240zM98 313q0 -156 77.5 -232.5t244.5 -76.5q144 0 253.5 84.5t166.5 229t57 325.5q0 154 -77.5 244t-231.5 90q-118 0 -212.5 -53.5t-154.5 -145.5t-91.5 -211t-31.5 -254z " />
<glyph unicode="&#xf1;" horiz-adv-x="976" d="M41 0l168 979h12l-55 -313q33 92 88.5 159.5t116.5 100.5t113.5 48t99.5 15q87 0 148 -22t94.5 -58t48.5 -90.5t13.5 -112.5t-14.5 -131l-98 -575h-12l98 575q13 70 14 126t-13 109.5t-46 88.5t-91.5 56.5t-143.5 21.5q-39 0 -82.5 -9.5t-100.5 -40t-105 -77.5 t-90 -130.5t-61 -191.5l-92 -528h-10zM342 1221q65 100 158 100q36 0 120 -45t123 -45q76 0 140 86l10 -6q-70 -92 -152 -92q-40 0 -123.5 45t-117.5 45q-85 0 -150 -95z" />
<glyph unicode="&#xf2;" horiz-adv-x="993" d="M86 311q0 139 32.5 261t94.5 215.5t159 147.5t218 54q165 0 242 -91.5t77 -252.5t-40.5 -288.5t-110 -205.5t-156.5 -118.5t-184 -40.5q-169 0 -250.5 79t-81.5 240zM98 313q0 -156 77.5 -232.5t244.5 -76.5q94 0 178.5 39.5t152 115.5t107 201t39.5 283q0 157 -74 245.5 t-235 88.5q-118 0 -212.5 -53.5t-154.5 -145.5t-91.5 -211t-31.5 -254zM467 1366l14 12l203 -225l-8 -8z" />
<glyph unicode="&#xf3;" horiz-adv-x="993" d="M86 311q0 139 32.5 261t94.5 215.5t159 147.5t218 54q165 0 242 -91.5t77 -252.5t-40.5 -288.5t-110 -205.5t-156.5 -118.5t-184 -40.5q-169 0 -250.5 79t-81.5 240zM98 313q0 -156 77.5 -232.5t244.5 -76.5q94 0 178.5 39.5t152 115.5t107 201t39.5 283q0 157 -74 245.5 t-235 88.5q-118 0 -212.5 -53.5t-154.5 -145.5t-91.5 -211t-31.5 -254zM578 1147l253 252l11 -13l-256 -247z" />
<glyph unicode="&#xf4;" horiz-adv-x="993" d="M86 311q0 139 32.5 261t94.5 215.5t159 147.5t218 54q165 0 242 -91.5t77 -252.5t-40.5 -288.5t-110 -205.5t-156.5 -118.5t-184 -40.5q-169 0 -250.5 79t-81.5 240zM98 313q0 -156 77.5 -232.5t244.5 -76.5q94 0 178.5 39.5t152 115.5t107 201t39.5 283q0 157 -74 245.5 t-235 88.5q-118 0 -212.5 -53.5t-154.5 -145.5t-91.5 -211t-31.5 -254zM338 1122l324 256h14l227 -250l-8 -8l-227 246l-324 -252z" />
<glyph unicode="&#xf5;" horiz-adv-x="993" d="M86 311q0 139 32.5 261t94.5 215.5t159 147.5t218 54q165 0 242 -91.5t77 -252.5t-40.5 -288.5t-110 -205.5t-156.5 -118.5t-184 -40.5q-169 0 -250.5 79t-81.5 240zM98 313q0 -156 77.5 -232.5t244.5 -76.5q94 0 178.5 39.5t152 115.5t107 201t39.5 283q0 157 -74 245.5 t-235 88.5q-118 0 -212.5 -53.5t-154.5 -145.5t-91.5 -211t-31.5 -254zM381 1221q65 100 158 100q35 0 120 -45t123 -45q76 0 140 86l10 -6q-70 -92 -152 -92q-40 0 -123.5 45t-117.5 45q-85 0 -150 -95z" />
<glyph unicode="&#xf6;" horiz-adv-x="993" d="M86 311q0 139 32.5 261t94.5 215.5t159 147.5t218 54q165 0 242 -91.5t77 -252.5t-40.5 -288.5t-110 -205.5t-156.5 -118.5t-184 -40.5q-169 0 -250.5 79t-81.5 240zM98 313q0 -156 77.5 -232.5t244.5 -76.5q94 0 178.5 39.5t152 115.5t107 201t39.5 283q0 157 -74 245.5 t-235 88.5q-118 0 -212.5 -53.5t-154.5 -145.5t-91.5 -211t-31.5 -254zM494 1200q0 8 7 15.5t17 7.5q12 0 12 -15q0 -10 -5.5 -16t-12.5 -6q-18 0 -18 14zM788 1200q0 7 7 15t18 8q10 0 10 -13q0 -24 -16 -24q-19 0 -19 14z" />
<glyph unicode="&#xf7;" horiz-adv-x="1093" d="M201 557l4 16h721l-4 -16h-721zM496 285q0 10 6.5 19t19.5 9q6 0 11.5 -5.5t5.5 -12.5q0 -10 -8 -17.5t-15 -7.5q-20 0 -20 15zM592 831q0 11 7 18t19 7q15 0 15 -16q0 -9 -5.5 -18t-15.5 -9q-20 0 -20 18z" />
<glyph unicode="&#xf8;" horiz-adv-x="993" d="M8 -25l127 134q-49 76 -49 202q0 139 32.5 261t94.5 215.5t159 147.5t218 54q189 0 268 -129l119 123l8 -6l-121 -125q45 -83 45 -207q0 -161 -40.5 -288.5t-110 -205.5t-156.5 -118.5t-184 -40.5q-197 0 -275 106l-127 -131zM98 313q0 -126 47 -196l705 733 q-75 127 -262 127q-118 0 -212.5 -53.5t-154.5 -145.5t-91.5 -211t-31.5 -254zM152 106q74 -102 268 -102q94 0 178.5 39.5t152 115.5t107 201t39.5 283q0 117 -43 199z" />
<glyph unicode="&#xf9;" horiz-adv-x="966" d="M94 275q2 57 15 131l100 573h12l-100 -573q-10 -60 -13 -106.5t1.5 -94.5t23 -82.5t50.5 -62.5t85 -42t125 -14q39 0 82.5 9.5t100.5 40t105 77.5t89.5 130.5t60.5 191.5l93 526h12l-170 -977h-12l55 313q-27 -74 -70 -133t-87.5 -93.5t-94.5 -57.5t-90 -31t-76 -8 q-88 0 -148.5 22t-92.5 57.5t-45 91t-11 112.5zM449 1366l14 12l203 -225l-9 -8z" />
<glyph unicode="&#xfa;" horiz-adv-x="966" d="M94 275q2 57 15 131l100 573h12l-100 -573q-10 -60 -13 -106.5t1.5 -94.5t23 -82.5t50.5 -62.5t85 -42t125 -14q39 0 82.5 9.5t100.5 40t105 77.5t89.5 130.5t60.5 191.5l93 526h12l-170 -977h-12l55 313q-27 -74 -70 -133t-87.5 -93.5t-94.5 -57.5t-90 -31t-76 -8 q-88 0 -148.5 22t-92.5 57.5t-45 91t-11 112.5zM551 1147l254 252l10 -13l-256 -247z" />
<glyph unicode="&#xfb;" horiz-adv-x="966" d="M94 275q2 57 15 131l100 573h12l-100 -573q-10 -60 -13 -106.5t1.5 -94.5t23 -82.5t50.5 -62.5t85 -42t125 -14q39 0 82.5 9.5t100.5 40t105 77.5t89.5 130.5t60.5 191.5l93 526h12l-170 -977h-12l55 313q-27 -74 -70 -133t-87.5 -93.5t-94.5 -57.5t-90 -31t-76 -8 q-88 0 -148.5 22t-92.5 57.5t-45 91t-11 112.5zM311 1122l324 256h14l228 -250l-9 -8l-227 246l-324 -252z" />
<glyph unicode="&#xfc;" horiz-adv-x="966" d="M94 275q2 57 15 131l100 573h12l-100 -573q-10 -60 -13 -106.5t1.5 -94.5t23 -82.5t50.5 -62.5t85 -42t125 -14q39 0 82.5 9.5t100.5 40t105 77.5t89.5 130.5t60.5 191.5l93 526h12l-170 -977h-12l55 313q-27 -74 -70 -133t-87.5 -93.5t-94.5 -57.5t-90 -31t-76 -8 q-88 0 -148.5 22t-92.5 57.5t-45 91t-11 112.5zM455 1200q0 8 7 15.5t17 7.5q6 0 9.5 -5t3.5 -10q0 -10 -6 -16t-13 -6q-18 0 -18 14zM750 1200q0 7 6.5 15t17.5 8q10 0 10 -13q0 -24 -16 -24q-18 0 -18 14z" />
<glyph unicode="&#xfd;" horiz-adv-x="811" d="M66 979h12l258 -977h41l274 541q67 133 95 222t42 212h13q-13 -123 -43 -216.5t-96 -221.5l-484 -959h-14l207 410h-45zM406 1128l253 252l11 -12l-256 -248z" />
<glyph unicode="&#xfe;" horiz-adv-x="1011" d="M-33 -420l328 1895h12l-147 -836q53 169 172.5 259.5t273.5 90.5q160 0 246 -87t86 -236q0 -112 -17.5 -211t-56 -184.5t-95 -147t-137.5 -96.5t-181 -35q-164 0 -256.5 106.5t-77.5 284.5l-137 -803h-13zM127 338q0 -151 86 -242.5t240 -91.5q119 0 211.5 52.5 t148.5 144.5t84.5 209t28.5 254q0 143 -81.5 228t-240.5 85q-99 0 -184 -39.5t-151 -116t-104 -200.5t-38 -283z" />
<glyph unicode="&#xff;" horiz-adv-x="811" d="M66 979h12l258 -977h41l274 541q67 133 95 222t42 212h13q-13 -123 -43 -216.5t-96 -221.5l-484 -959h-14l207 410h-45zM303 1192q0 8 7.5 15t17.5 7q12 0 12 -14q0 -10 -5.5 -16t-12.5 -6q-19 0 -19 14zM598 1192q0 7 7 14.5t18 7.5q10 0 10 -12q0 -24 -17 -24 q-18 0 -18 14z" />
<glyph unicode="&#x100;" horiz-adv-x="1120" d="M-51 0l760 1378h14l285 -1378h-13l-82 389h-737l-213 -389h-14zM184 401h727l-196 965zM461 1585l2 17h543l-2 -17h-543z" />
<glyph unicode="&#x101;" horiz-adv-x="1011" d="M88 350q0 133 32.5 248t94 202.5t158.5 138t217 50.5q152 0 241 -89t80 -255l56 336h12l-168 -981h-10l65 383q-60 -186 -174 -288.5t-262 -102.5q-167 0 -254.5 95.5t-87.5 262.5zM100 348q0 -161 83.5 -252.5t248.5 -91.5q92 0 171 42t132.5 110t92 155t56 176.5 t17.5 174.5q0 143 -77 229t-236 86q-96 0 -177 -33.5t-137.5 -92t-96 -138t-58.5 -172t-19 -193.5zM365 1212l2 17h542l-2 -17h-542z" />
<glyph unicode="&#x102;" horiz-adv-x="1120" d="M-51 0l760 1378h14l285 -1378h-13l-82 389h-737l-213 -389h-14zM184 401h727l-196 965zM539 1677q0 30 2 56h12q-5 -33 0.5 -67.5t22.5 -68.5t54.5 -55.5t90.5 -21.5q52 0 97.5 22t75.5 56.5t49.5 68.5t29.5 66h12q-10 -35 -30.5 -71.5t-52.5 -72.5t-80 -59t-103 -23 q-45 0 -80.5 15.5t-54.5 40t-32 54.5t-13 60z" />
<glyph unicode="&#x103;" horiz-adv-x="1011" d="M88 350q0 133 32.5 248t94 202.5t158.5 138t217 50.5q152 0 241 -89t80 -255l56 336h12l-168 -981h-10l65 383q-60 -186 -174 -288.5t-262 -102.5q-167 0 -254.5 95.5t-87.5 262.5zM100 348q0 -161 83.5 -252.5t248.5 -91.5q92 0 171 42t132.5 110t92 155t56 176.5 t17.5 174.5q0 143 -77 229t-236 86q-96 0 -177 -33.5t-137.5 -92t-96 -138t-58.5 -172t-19 -193.5zM465 1376h10q-4 -33 2 -68t23 -69t54.5 -56t90.5 -22q52 0 97.5 22t75.5 56t49.5 69t29.5 68h10q-10 -35 -30 -71t-51.5 -72t-78.5 -59t-102 -23q-56 0 -96 23t-58 58.5 t-24.5 72.5t-1.5 71z" />
<glyph unicode="&#x104;" horiz-adv-x="1120" d="M-51 0l760 1378h14l285 -1378h-13q-80 -56 -132 -129.5t-52 -132.5q0 -84 121 -84q69 0 147 29l2 -13q-75 -28 -155 -28q-129 0 -129 96q0 63 55 140t141 132l-80 379h-737l-213 -389h-14zM184 401h727l-196 965z" />
<glyph unicode="&#x105;" horiz-adv-x="1011" d="M88 350q0 133 32.5 248t94 202.5t158.5 138t217 50.5q152 0 241 -89t80 -255l56 336h12l-168 -981h-10q-80 -57 -132.5 -130t-52.5 -132q0 -84 121 -84q70 0 148 29l2 -13q-75 -28 -156 -28q-129 0 -129 96q0 65 57 142.5t144 131.5l63 371q-60 -186 -174 -288.5 t-262 -102.5q-167 0 -254.5 95.5t-87.5 262.5zM100 348q0 -161 83.5 -252.5t248.5 -91.5q92 0 171 42t132.5 110t92 155t56 176.5t17.5 174.5q0 143 -77 229t-236 86q-96 0 -177 -33.5t-137.5 -92t-96 -138t-58.5 -172t-19 -193.5z" />
<glyph unicode="&#x106;" horiz-adv-x="1226" d="M141 446q0 205 44.5 376.5t130 298.5t219 198.5t303.5 71.5q96 0 175 -27.5t131 -89.5t52 -150q0 -45 -16 -104h-13q17 63 17 100q0 85 -51 145t-127.5 86.5t-169.5 26.5q-167 0 -298 -70.5t-214.5 -196.5t-126.5 -294.5t-43 -370.5q0 -216 97 -329t327 -113 q121 0 216.5 31t156 85t94.5 123t40 150h13q-14 -175 -148 -288t-375 -113q-121 0 -206.5 31t-134.5 92t-71 141.5t-22 189.5zM766 1511l276 218l11 -13l-281 -213z" />
<glyph unicode="&#x107;" horiz-adv-x="899" d="M86 326q0 137 30 254.5t88.5 210.5t155.5 146.5t222 53.5q132 0 213.5 -60.5t81.5 -168.5q0 -14 -3 -29h-12q2 10 2 29q0 102 -77.5 159.5t-204.5 57.5q-122 0 -216.5 -52.5t-152 -144t-86.5 -207t-29 -249.5q0 -326 326 -326q132 0 240.5 67t136.5 189q6 24 6 43h12 q0 -23 -6 -47q-19 -84 -81.5 -145.5t-142 -90t-165.5 -28.5q-338 0 -338 338zM571 1147l254 252l11 -13l-256 -247z" />
<glyph unicode="&#x108;" horiz-adv-x="1226" d="M141 446q0 205 44.5 376.5t130 298.5t219 198.5t303.5 71.5q96 0 175 -27.5t131 -89.5t52 -150q0 -45 -16 -104h-13q17 63 17 100q0 85 -51 145t-127.5 86.5t-169.5 26.5q-167 0 -298 -70.5t-214.5 -196.5t-126.5 -294.5t-43 -370.5q0 -216 97 -329t327 -113 q121 0 216.5 31t156 85t94.5 123t40 150h13q-14 -175 -148 -288t-375 -113q-121 0 -206.5 31t-134.5 92t-71 141.5t-22 189.5zM567 1501l307 219h11l227 -213l-8 -8l-227 207l-304 -213z" />
<glyph unicode="&#x109;" horiz-adv-x="899" d="M86 326q0 137 30 254.5t88.5 210.5t155.5 146.5t222 53.5q132 0 213.5 -60.5t81.5 -168.5q0 -14 -3 -29h-12q2 10 2 29q0 102 -77.5 159.5t-204.5 57.5q-122 0 -216.5 -52.5t-152 -144t-86.5 -207t-29 -249.5q0 -326 326 -326q132 0 240.5 67t136.5 189q6 24 6 43h12 q0 -23 -6 -47q-19 -84 -81.5 -145.5t-142 -90t-165.5 -28.5q-338 0 -338 338zM342 1122l324 256h14l227 -250l-8 -8l-227 246l-324 -252z" />
<glyph unicode="&#x10a;" horiz-adv-x="1226" d="M141 446q0 205 44.5 376.5t130 298.5t219 198.5t303.5 71.5q96 0 175 -27.5t131 -89.5t52 -150q0 -45 -16 -104h-13q17 63 17 100q0 85 -51 145t-127.5 86.5t-169.5 26.5q-167 0 -298 -70.5t-214.5 -196.5t-126.5 -294.5t-43 -370.5q0 -216 97 -329t327 -113 q121 0 216.5 31t156 85t94.5 123t40 150h13q-14 -175 -148 -288t-375 -113q-121 0 -206.5 31t-134.5 92t-71 141.5t-22 189.5zM872 1563q0 7 8 15.5t19 8.5q16 0 16 -16q0 -11 -7.5 -18t-14.5 -7q-21 0 -21 17z" />
<glyph unicode="&#x10b;" horiz-adv-x="899" d="M86 326q0 137 30 254.5t88.5 210.5t155.5 146.5t222 53.5q132 0 213.5 -60.5t81.5 -168.5q0 -14 -3 -29h-12q2 10 2 29q0 102 -77.5 159.5t-204.5 57.5q-122 0 -216.5 -52.5t-152 -144t-86.5 -207t-29 -249.5q0 -326 326 -326q132 0 240.5 67t136.5 189q6 24 6 43h12 q0 -23 -6 -47q-19 -84 -81.5 -145.5t-142 -90t-165.5 -28.5q-338 0 -338 338zM602 1214q0 7 8 16t19 9q16 0 16 -16q0 -11 -7.5 -18t-14.5 -7q-21 0 -21 16z" />
<glyph unicode="&#x10c;" horiz-adv-x="1226" d="M141 446q0 205 44.5 376.5t130 298.5t219 198.5t303.5 71.5q96 0 175 -27.5t131 -89.5t52 -150q0 -45 -16 -104h-13q17 63 17 100q0 85 -51 145t-127.5 86.5t-169.5 26.5q-167 0 -298 -70.5t-214.5 -196.5t-126.5 -294.5t-43 -370.5q0 -216 97 -329t327 -113 q121 0 216.5 31t156 85t94.5 123t40 150h13q-14 -175 -148 -288t-375 -113q-121 0 -206.5 31t-134.5 92t-71 141.5t-22 189.5zM588 1712l10 8l227 -215l299 209l6 -8l-299 -213h-14z" />
<glyph unicode="&#x10d;" horiz-adv-x="899" d="M86 326q0 137 30 254.5t88.5 210.5t155.5 146.5t222 53.5q132 0 213.5 -60.5t81.5 -168.5q0 -14 -3 -29h-12q2 10 2 29q0 102 -77.5 159.5t-204.5 57.5q-122 0 -216.5 -52.5t-152 -144t-86.5 -207t-29 -249.5q0 -326 326 -326q132 0 240.5 67t136.5 189q6 24 6 43h12 q0 -23 -6 -47q-19 -84 -81.5 -145.5t-142 -90t-165.5 -28.5q-338 0 -338 338zM377 1372l6 6l235 -250l314 244l4 -8l-315 -250h-9z" />
<glyph unicode="&#x10e;" horiz-adv-x="1226" d="M61 0l242 1378h309q82 0 158.5 -18t150.5 -60.5t128 -106t87 -163t33 -223.5q0 -235 -99 -419.5t-275 -286t-398 -101.5h-336zM78 12h319q163 0 304 58.5t241.5 162.5t157.5 252.5t57 321.5q0 122 -32 219t-85 159.5t-125 104t-147 59t-156 17.5h-297zM440 1712l11 8 l227 -215l299 209l6 -8l-299 -213h-14z" />
<glyph unicode="&#x10f;" horiz-adv-x="1112" d="M82 315q0 187 54.5 337.5t167.5 243.5t269 93q165 0 253.5 -103.5t76.5 -287.5l150 872h10l-252 -1470h-12l59 342q-57 -174 -173.5 -262t-270.5 -88q-164 0 -248 89t-84 234zM94 317q0 -141 80.5 -227t241.5 -86q99 0 184 39.5t151 116t104 200.5t38 283 q0 152 -83.5 243t-238.5 91q-113 0 -204.5 -53t-150.5 -144t-90.5 -209.5t-31.5 -253.5zM1147 1245l98 182q-22 0 -22 19q0 14 8.5 24.5t21.5 10.5q10 0 16.5 -6.5t6.5 -14.5q0 -10 -10 -26l-113 -193z" />
<glyph unicode="&#x110;" horiz-adv-x="1226" d="M45 721l2 12h141l115 645h309q82 0 158.5 -18t150.5 -60.5t128 -106t87 -163t33 -223.5q0 -235 -99 -419.5t-275 -286t-398 -101.5h-336l125 721h-141zM78 12h319q163 0 304 58.5t241.5 162.5t157.5 252.5t57 321.5q0 122 -32 219t-85 159.5t-125 104t-147 59t-156 17.5 h-297l-110 -633h540l-2 -12h-540z" />
<glyph unicode="&#x111;" horiz-adv-x="1024" d="M82 315q0 187 54.5 337.5t167.5 243.5t269 93q165 0 253.5 -103.5t76.5 -287.5l101 592h-390l2 12h390l47 268h10l-47 -268h133l-2 -12h-133l-203 -1190h-12l59 342q-57 -174 -173.5 -262t-270.5 -88q-164 0 -248 89t-84 234zM94 317q0 -141 80.5 -227t241.5 -86 q99 0 184 39.5t151 116t104 200.5t38 283q0 152 -83.5 243t-238.5 91q-113 0 -204.5 -53t-150.5 -144t-90.5 -209.5t-31.5 -253.5z" />
<glyph unicode="&#x112;" horiz-adv-x="1064" d="M61 0l242 1378h791l-2 -12h-779l-106 -610h743l-2 -13h-743l-129 -731h852l-2 -12h-865zM465 1585l2 17h543l-2 -17h-543z" />
<glyph unicode="&#x113;" horiz-adv-x="948" d="M86 338q0 96 19 187.5t60.5 174.5t100.5 145.5t144 99t186 36.5q78 0 136.5 -20t90 -53t46 -70.5t14.5 -79.5q0 -43 -13.5 -83.5t-53.5 -85.5t-104.5 -77.5t-177.5 -54t-260 -21.5q-80 0 -170 8q-6 -52 -6 -106q0 -53 7 -97t27 -89.5t53.5 -76.5t90 -51t132.5 -20 q69 0 135 17t124 50.5t94 93t38 136.5h12q0 -15 -4 -43q-19 -125 -133 -195.5t-266 -70.5q-79 0 -138.5 21t-93.5 53t-55 79.5t-28 93t-7 99.5zM106 457q90 -8 168 -8q144 0 254 20t173.5 51t103 74t52.5 82t13 82q0 40 -13.5 75.5t-43.5 67t-85.5 50t-131.5 18.5 q-108 0 -196.5 -41.5t-147.5 -114.5t-95.5 -162.5t-50.5 -193.5zM350 1212l2 17h543l-2 -17h-543z" />
<glyph unicode="&#x114;" horiz-adv-x="1064" d="M61 0l242 1378h791l-2 -12h-779l-106 -610h743l-2 -13h-743l-129 -731h852l-2 -12h-865zM549 1677q0 30 2 56h12q-5 -33 0.5 -67.5t22.5 -68.5t54.5 -55.5t90.5 -21.5q52 0 97.5 22t75.5 56.5t49.5 68.5t29.5 66h12q-10 -35 -30.5 -71.5t-52.5 -72.5t-80 -59t-103 -23 q-45 0 -80.5 15.5t-54.5 40t-32 54.5t-13 60z" />
<glyph unicode="&#x115;" horiz-adv-x="948" d="M86 338q0 96 19 187.5t60.5 174.5t100.5 145.5t144 99t186 36.5q78 0 136.5 -20t90 -53t46 -70.5t14.5 -79.5q0 -43 -13.5 -83.5t-53.5 -85.5t-104.5 -77.5t-177.5 -54t-260 -21.5q-80 0 -170 8q-6 -52 -6 -106q0 -53 7 -97t27 -89.5t53.5 -76.5t90 -51t132.5 -20 q69 0 135 17t124 50.5t94 93t38 136.5h12q0 -15 -4 -43q-19 -125 -133 -195.5t-266 -70.5q-79 0 -138.5 21t-93.5 53t-55 79.5t-28 93t-7 99.5zM106 457q90 -8 168 -8q144 0 254 20t173.5 51t103 74t52.5 82t13 82q0 40 -13.5 75.5t-43.5 67t-85.5 50t-131.5 18.5 q-108 0 -196.5 -41.5t-147.5 -114.5t-95.5 -162.5t-50.5 -193.5zM428 1370h10q-4 -33 2 -68t23 -69t54.5 -56t90.5 -22q52 0 97.5 22t75.5 56t49.5 69t29.5 68h10q-10 -35 -30 -71t-51.5 -72t-78.5 -59t-102 -23q-56 0 -96 23t-58 58.5t-24.5 72.5t-1.5 71z" />
<glyph unicode="&#x116;" horiz-adv-x="1064" d="M61 0l242 1378h791l-2 -12h-779l-106 -610h743l-2 -13h-743l-129 -731h852l-2 -12h-865zM666 1548q0 7 7.5 16t18.5 9q17 0 17 -17q0 -11 -8 -17.5t-15 -6.5q-20 0 -20 16z" />
<glyph unicode="&#x117;" horiz-adv-x="948" d="M86 338q0 96 19 187.5t60.5 174.5t100.5 145.5t144 99t186 36.5q78 0 136.5 -20t90 -53t46 -70.5t14.5 -79.5q0 -43 -13.5 -83.5t-53.5 -85.5t-104.5 -77.5t-177.5 -54t-260 -21.5q-80 0 -170 8q-6 -52 -6 -106q0 -53 7 -97t27 -89.5t53.5 -76.5t90 -51t132.5 -20 q69 0 135 17t124 50.5t94 93t38 136.5h12q0 -15 -4 -43q-19 -125 -133 -195.5t-266 -70.5q-79 0 -138.5 21t-93.5 53t-55 79.5t-28 93t-7 99.5zM106 457q90 -8 168 -8q144 0 254 20t173.5 51t103 74t52.5 82t13 82q0 40 -13.5 75.5t-43.5 67t-85.5 50t-131.5 18.5 q-108 0 -196.5 -41.5t-147.5 -114.5t-95.5 -162.5t-50.5 -193.5zM612 1214q0 7 8 16t19 9q16 0 16 -16q0 -11 -7.5 -18t-14.5 -7q-21 0 -21 16z" />
<glyph unicode="&#x118;" horiz-adv-x="1064" d="M61 0l242 1378h791l-2 -12h-779l-106 -610h743l-2 -13h-743l-129 -731h852l-2 -12h-164q-83 -56 -137 -130.5t-54 -135.5q0 -84 121 -84q73 0 148 28l2 -12q-75 -28 -156 -28q-129 0 -129 96q0 61 52 135.5t134 130.5h-682z" />
<glyph unicode="&#x119;" horiz-adv-x="948" d="M86 338q0 96 19 187.5t60.5 174.5t100.5 145.5t144 99t186 36.5q78 0 136.5 -20t90 -53t46 -70.5t14.5 -79.5q0 -43 -13.5 -83.5t-53.5 -85.5t-104.5 -77.5t-177.5 -54t-260 -21.5q-80 0 -170 8q-6 -52 -6 -106q0 -53 7 -97t27 -89.5t53.5 -76.5t90 -51t132.5 -20 q69 0 135 17t124 50.5t94 93t38 136.5h12q0 -15 -4 -43q-20 -131 -148 -205q-84 -56 -139 -131.5t-55 -136.5q0 -84 121 -84q69 0 147 29l2 -13q-75 -28 -155 -28q-129 0 -129 96q0 55 42.5 121.5t112.5 120.5q-93 -35 -198 -35q-79 0 -138.5 21t-93.5 53t-55 79.5t-28 93 t-7 99.5zM106 457q90 -8 168 -8q144 0 254 20t173.5 51t103 74t52.5 82t13 82q0 40 -13.5 75.5t-43.5 67t-85.5 50t-131.5 18.5q-108 0 -196.5 -41.5t-147.5 -114.5t-95.5 -162.5t-50.5 -193.5z" />
<glyph unicode="&#x11a;" horiz-adv-x="1064" d="M61 0l242 1378h791l-2 -12h-779l-106 -610h743l-2 -13h-743l-129 -731h852l-2 -12h-865zM475 1712l10 8l228 -215l299 209l6 -8l-299 -213h-14z" />
<glyph unicode="&#x11b;" horiz-adv-x="948" d="M86 338q0 96 19 187.5t60.5 174.5t100.5 145.5t144 99t186 36.5q78 0 136.5 -20t90 -53t46 -70.5t14.5 -79.5q0 -43 -13.5 -83.5t-53.5 -85.5t-104.5 -77.5t-177.5 -54t-260 -21.5q-80 0 -170 8q-6 -52 -6 -106q0 -53 7 -97t27 -89.5t53.5 -76.5t90 -51t132.5 -20 q69 0 135 17t124 50.5t94 93t38 136.5h12q0 -15 -4 -43q-19 -125 -133 -195.5t-266 -70.5q-79 0 -138.5 21t-93.5 53t-55 79.5t-28 93t-7 99.5zM106 457q90 -8 168 -8q144 0 254 20t173.5 51t103 74t52.5 82t13 82q0 40 -13.5 75.5t-43.5 67t-85.5 50t-131.5 18.5 q-108 0 -196.5 -41.5t-147.5 -114.5t-95.5 -162.5t-50.5 -193.5zM371 1372l6 6l235 -250l314 244l4 -8l-316 -250h-8z" />
<glyph unicode="&#x11c;" horiz-adv-x="1259" d="M141 455q0 274 79 484t234 331t367 121q102 0 179 -23t120.5 -63t64.5 -88.5t21 -104.5q0 -33 -10 -78h-12q10 42 10 76q0 115 -92 191.5t-283 76.5q-209 0 -361 -121t-228 -326.5t-76 -471.5q0 -235 102 -345t319 -110q86 0 160 17t126.5 45t96 68t71 80.5t49 89 t32.5 88t18 81.5l33 186h-407l2 11h420l-35 -197q-88 -481 -568 -481q-221 0 -326.5 112.5t-105.5 350.5zM539 1501l307 219h10l227 -213l-8 -8l-227 207l-303 -213z" />
<glyph unicode="&#x11d;" horiz-adv-x="1011" d="M23 -160h12q-11 -66 9.5 -116t66.5 -78.5t103 -42.5t126 -15q208 0 316.5 101t144.5 311l65 383q-60 -186 -174 -288.5t-262 -102.5q-167 0 -254.5 95.5t-87.5 262.5q0 133 32.5 248t94 202.5t158.5 138t217 50.5q152 0 241 -89t80 -255l56 336h12l-166 -985 q-36 -214 -148 -317t-325 -103q-71 1 -130.5 15.5t-107.5 44.5t-69.5 82t-9.5 122zM100 348q0 -161 83.5 -252.5t248.5 -91.5q92 0 171 42t132.5 110t92 155t56 176.5t17.5 174.5q0 143 -77 229t-236 86q-96 0 -177 -33.5t-137.5 -92t-96 -138t-58.5 -172t-19 -193.5z M319 1122l324 256h14l228 -250l-8 -8l-228 246l-323 -252z" />
<glyph unicode="&#x11e;" horiz-adv-x="1259" d="M141 455q0 274 79 484t234 331t367 121q102 0 179 -23t120.5 -63t64.5 -88.5t21 -104.5q0 -33 -10 -78h-12q10 42 10 76q0 115 -92 191.5t-283 76.5q-209 0 -361 -121t-228 -326.5t-76 -471.5q0 -235 102 -345t319 -110q86 0 160 17t126.5 45t96 68t71 80.5t49 89 t32.5 88t18 81.5l33 186h-407l2 11h420l-35 -197q-88 -481 -568 -481q-221 0 -326.5 112.5t-105.5 350.5zM643 1677q0 30 2 56h12q-5 -33 0.5 -67.5t22.5 -68.5t54.5 -55.5t90.5 -21.5q52 0 97.5 22t75.5 56.5t49.5 68.5t29.5 66h13q-10 -35 -31 -71.5t-53 -72.5t-80 -59 t-103 -23q-45 0 -80.5 15.5t-54.5 40t-32 54.5t-13 60z" />
<glyph unicode="&#x11f;" horiz-adv-x="1011" d="M23 -160h12q-11 -66 9.5 -116t66.5 -78.5t103 -42.5t126 -15q208 0 316.5 101t144.5 311l65 383q-60 -186 -174 -288.5t-262 -102.5q-167 0 -254.5 95.5t-87.5 262.5q0 133 32.5 248t94 202.5t158.5 138t217 50.5q152 0 241 -89t80 -255l56 336h12l-166 -985 q-36 -214 -148 -317t-325 -103q-71 1 -130.5 15.5t-107.5 44.5t-69.5 82t-9.5 122zM100 348q0 -161 83.5 -252.5t248.5 -91.5q92 0 171 42t132.5 110t92 155t56 176.5t17.5 174.5q0 143 -77 229t-236 86q-96 0 -177 -33.5t-137.5 -92t-96 -138t-58.5 -172t-19 -193.5z M416 1370h10q-4 -33 2 -68t23 -69t54.5 -56t90.5 -22q52 0 97.5 22t75.5 56t49.5 69t29.5 68h10q-10 -35 -30 -71t-51.5 -72t-78.5 -59t-102 -23q-56 0 -96 23t-58 58.5t-24.5 72.5t-1.5 71z" />
<glyph unicode="&#x120;" horiz-adv-x="1259" d="M141 455q0 274 79 484t234 331t367 121q102 0 179 -23t120.5 -63t64.5 -88.5t21 -104.5q0 -33 -10 -78h-12q10 42 10 76q0 115 -92 191.5t-283 76.5q-209 0 -361 -121t-228 -326.5t-76 -471.5q0 -235 102 -345t319 -110q86 0 160 17t126.5 45t96 68t71 80.5t49 89 t32.5 88t18 81.5l33 186h-407l2 11h420l-35 -197q-88 -481 -568 -481q-221 0 -326.5 112.5t-105.5 350.5zM846 1563q0 7 7.5 15.5t18.5 8.5q17 0 17 -16q0 -11 -8 -18t-15 -7q-20 0 -20 17z" />
<glyph unicode="&#x121;" horiz-adv-x="1011" d="M23 -160h12q-11 -66 9.5 -116t66.5 -78.5t103 -42.5t126 -15q208 0 316.5 101t144.5 311l65 383q-60 -186 -174 -288.5t-262 -102.5q-167 0 -254.5 95.5t-87.5 262.5q0 133 32.5 248t94 202.5t158.5 138t217 50.5q152 0 241 -89t80 -255l56 336h12l-166 -985 q-36 -214 -148 -317t-325 -103q-71 1 -130.5 15.5t-107.5 44.5t-69.5 82t-9.5 122zM100 348q0 -161 83.5 -252.5t248.5 -91.5q92 0 171 42t132.5 110t92 155t56 176.5t17.5 174.5q0 143 -77 229t-236 86q-96 0 -177 -33.5t-137.5 -92t-96 -138t-58.5 -172t-19 -193.5z M651 1214q0 7 8 16t19 9q16 0 16 -16q0 -11 -7.5 -18t-14.5 -7q-21 0 -21 16z" />
<glyph unicode="&#x122;" horiz-adv-x="1259" d="M141 455q0 274 79 484t234 331t367 121q102 0 179 -23t120.5 -63t64.5 -88.5t21 -104.5q0 -33 -10 -78h-12q10 42 10 76q0 115 -92 191.5t-283 76.5q-209 0 -361 -121t-228 -326.5t-76 -471.5q0 -235 102 -345t319 -110q86 0 160 17t126.5 45t96 68t71 80.5t49 89 t32.5 88t18 81.5l33 186h-407l2 11h420l-35 -197q-88 -481 -568 -481q-221 0 -326.5 112.5t-105.5 350.5zM424 -369l98 183q-22 0 -22 18q0 14 8.5 24.5t21.5 10.5q10 0 16.5 -6.5t6.5 -14.5q0 -10 -10 -26l-113 -193z" />
<glyph unicode="&#x123;" horiz-adv-x="1011" d="M23 -160h12q-11 -66 9.5 -116t66.5 -78.5t103 -42.5t126 -15q208 0 316.5 101t144.5 311l65 383q-60 -186 -174 -288.5t-262 -102.5q-167 0 -254.5 95.5t-87.5 262.5q0 133 32.5 248t94 202.5t158.5 138t217 50.5q152 0 241 -89t80 -255l56 336h12l-166 -985 q-36 -214 -148 -317t-325 -103q-71 1 -130.5 15.5t-107.5 44.5t-69.5 82t-9.5 122zM100 348q0 -161 83.5 -252.5t248.5 -91.5q92 0 171 42t132.5 110t92 155t56 176.5t17.5 174.5q0 143 -77 229t-236 86q-96 0 -177 -33.5t-137.5 -92t-96 -138t-58.5 -172t-19 -193.5z M606 1155q0 11 10 27l115 192l6 -4l-100 -182q9 0 15.5 -6t6.5 -15q0 -13 -8.5 -22.5t-21.5 -9.5q-10 0 -16.5 6t-6.5 14z" />
<glyph unicode="&#x124;" horiz-adv-x="1253" d="M61 0l242 1378h12l-112 -643h942l112 643h13l-242 -1378h-12l127 723h-942l-127 -723h-13zM537 1501l307 219h10l227 -213l-8 -8l-227 207l-303 -213z" />
<glyph unicode="&#x125;" horiz-adv-x="976" d="M20 1501l308 219h10l227 -213l-8 -8l-227 207l-303 -213zM41 0l252 1470h12l-139 -804q33 92 88.5 159.5t116.5 100.5t113.5 48t99.5 15q87 0 148 -22t94.5 -58t48.5 -90.5t13.5 -112.5t-14.5 -131l-98 -575h-12l98 575q13 70 14 126t-13 109.5t-46 88.5t-91.5 56.5 t-143.5 21.5q-39 0 -82.5 -9.5t-100.5 -40t-105 -77.5t-90 -130.5t-61 -191.5l-92 -528h-10z" />
<glyph unicode="&#x126;" horiz-adv-x="1253" d="M61 0l201 1149h-119l2 10h119l39 219h12l-39 -219h943l38 219h13l-39 -219h104l-2 -10h-104l-201 -1149h-12l127 723h-942l-127 -723h-13zM203 735h942l72 414h-943z" />
<glyph unicode="&#x127;" horiz-adv-x="976" d="M41 0l211 1233h-92l2 10h92l39 227h12l-39 -227h479l-2 -10h-479l-98 -567q33 92 88.5 159.5t116.5 100.5t113.5 48t99.5 15q87 0 148 -22t94.5 -58t48.5 -90.5t13.5 -112.5t-14.5 -131l-98 -575h-12l98 575q13 70 14 126t-13 109.5t-46 88.5t-91.5 56.5t-143.5 21.5 q-39 0 -82.5 -9.5t-100.5 -40t-105 -77.5t-90 -130.5t-61 -191.5l-92 -528h-10z" />
<glyph unicode="&#x128;" horiz-adv-x="380" d="M100 1569q65 100 158 100q36 0 121 -45t123 -45q75 0 139 86l10 -6q-70 -92 -151 -92q-40 0 -124 45t-118 45q-85 0 -149 -94zM102 0l242 1378h12l-241 -1378h-13z" />
<glyph unicode="&#x129;" horiz-adv-x="331" d="M23 1221q65 100 157 100q36 0 121 -45t123 -45q75 0 139 86l10 -6q-70 -92 -151 -92q-40 0 -124 45t-118 45q-84 0 -149 -95zM80 0l172 979h10l-172 -979h-10z" />
<glyph unicode="&#x12a;" horiz-adv-x="380" d="M94 1585l2 17h543l-2 -17h-543zM102 0l242 1378h12l-241 -1378h-13z" />
<glyph unicode="&#x12b;" horiz-adv-x="331" d="M18 1212l2 17h543l-2 -17h-543zM80 0l172 979h10l-172 -979h-10z" />
<glyph unicode="&#x12c;" horiz-adv-x="370" d="M86 0l242 1378h12l-242 -1378h-12zM170 1677q0 30 2 56h12q-5 -33 0.5 -67.5t22.5 -68.5t54.5 -55.5t90.5 -21.5q52 0 97.5 22t75.5 56.5t49.5 68.5t29.5 66h12q-10 -35 -30.5 -71.5t-52.5 -72.5t-80 -59t-103 -23q-45 0 -80.5 15.5t-54.5 40t-32 54.5t-13 60z" />
<glyph unicode="&#x12d;" horiz-adv-x="331" d="M80 0l172 979h10l-172 -979h-10zM94 1370h10q-4 -33 2 -68t23 -69t54.5 -56t90.5 -22q52 0 97.5 22t75.5 56t49.5 69t29.5 68h11q-10 -35 -30 -71.5t-51.5 -72t-79 -58.5t-102.5 -23q-56 0 -96 23t-58 58.5t-24.5 72.5t-1.5 71z" />
<glyph unicode="&#x12e;" horiz-adv-x="380" d="M-94 -262q0 64 56 141t142 133l240 1366h12l-241 -1378h-11q-79 -57 -131.5 -130t-52.5 -132q0 -84 121 -84q69 0 147 29l2 -13q-75 -28 -155 -28q-129 0 -129 96z" />
<glyph unicode="&#x12f;" horiz-adv-x="335" d="M-115 -262q0 64 56.5 141t142.5 131l166 969h12l-168 -979h-10q-79 -57 -131.5 -130t-52.5 -132q0 -84 120 -84q70 0 148 29l2 -13q-75 -28 -156 -28q-129 0 -129 96zM287 1272q2 6 9.5 12t14.5 6q6 0 11 -6t4 -12q-1 -8 -8.5 -13.5t-14.5 -5.5q-19 0 -16 19z" />
<glyph unicode="&#x130;" horiz-adv-x="380" d="M102 0l242 1378h12l-241 -1378h-13zM367 1563q0 7 7.5 15.5t18.5 8.5q17 0 17 -16q0 -11 -8 -18t-15 -7q-20 0 -20 17z" />
<glyph unicode="&#x131;" horiz-adv-x="331" d="M80 0l172 979h10l-172 -979h-10z" />
<glyph unicode="&#x132;" horiz-adv-x="1382" d="M102 0l242 1378h12l-241 -1378h-13zM325.5 260.5q-2.5 41.5 10.5 81.5h12q-13 -40 -11 -80t12.5 -76.5t39.5 -68.5t69.5 -55t102.5 -36.5t139 -13.5q112 0 201 34t149 96.5t97.5 142.5t54.5 178l164 915h12l-164 -915q-17 -102 -55 -183.5t-99.5 -145.5t-153.5 -99 t-208 -35q-79 0 -143 14t-105.5 38.5t-71 57.5t-40 71t-13 79.5z" />
<glyph unicode="&#x133;" horiz-adv-x="638" d="M82 0l168 979h12l-168 -979h-12zM158 -420l2 12q88 0 122.5 38t53.5 147l209 1202h14l-209 -1202q-20 -110 -56.5 -153.5t-123.5 -43.5h-12zM291 1268q0 8 5.5 15t16.5 7q15 0 15 -14q0 -10 -8 -16.5t-15 -6.5q-14 0 -14 15zM582 1268q0 8 5.5 15t16.5 7q14 0 14 -14 q0 -10 -7.5 -16.5t-14.5 -6.5q-14 0 -14 15z" />
<glyph unicode="&#x134;" horiz-adv-x="1067" d="M9.5 262.5q-2.5 41.5 10.5 81.5h13q-13 -40 -11 -80t12.5 -76.5t39.5 -68.5t69.5 -55t102.5 -36.5t139 -13.5q112 0 201 34t149 96.5t97.5 142.5t54.5 178l164 915h12l-164 -915q-17 -102 -55 -183.5t-99.5 -145.5t-153.5 -99t-208 -35q-79 0 -143 14t-105.5 38.5 t-71.5 57.5t-40.5 71t-13 79.5zM786 1505l308 219h10l227 -213l-8 -8l-227 207l-303 -213z" />
<glyph unicode="&#x135;" horiz-adv-x="362" d="M-119 -420l2 12q89 0 123.5 38.5t52.5 146.5l209 1202h15l-209 -1202q-18 -109 -55.5 -153t-124.5 -44h-13zM10 1122l324 256h14l227 -250l-8 -8l-227 246l-324 -252z" />
<glyph unicode="&#x136;" horiz-adv-x="1042" d="M61 0l242 1378h12l-112 -645h358l586 645h14l-592 -651l371 -727h-14l-367 721h-358l-127 -721h-13zM315 -313l99 182q-23 0 -23 18q0 14 9 24.5t22 10.5q10 0 16 -6t6 -14q0 -11 -10 -27l-112 -192z" />
<glyph unicode="&#x137;" horiz-adv-x="827" d="M41 0l252 1470h12l-158 -923h304l426 432h14l-432 -438l272 -541h-14l-266 535h-306l-94 -535h-10zM223 -340l99 182q-23 0 -23 19q0 14 9 24.5t22 10.5q10 0 16 -6.5t6 -14.5q0 -11 -10 -27l-113 -192z" />
<glyph unicode="&#x138;" horiz-adv-x="819" d="M37 0l172 979h12l-82 -465h316l417 465h13l-422 -471l258 -508h-12l-254 504h-318l-88 -504h-12z" />
<glyph unicode="&#x139;" horiz-adv-x="1054" d="M61 0l242 1378h12l-239 -1366h868l-2 -12h-881zM281 1511l276 218l10 -13l-280 -213z" />
<glyph unicode="&#x13a;" horiz-adv-x="311" d="M78 111l235 1359h13l-236 -1359q-10 -54 11.5 -76.5t95.5 -22.5l-2 -12q-81 0 -104.5 24.5t-12.5 86.5zM299 1552l276 217l11 -12l-281 -213z" />
<glyph unicode="&#x13b;" horiz-adv-x="1054" d="M61 0l242 1378h12l-239 -1366h868l-2 -12h-881zM350 -369l99 183q-23 0 -23 18q0 14 9 24.5t22 10.5q10 0 16 -6.5t6 -14.5q0 -10 -10 -26l-113 -193z" />
<glyph unicode="&#x13c;" horiz-adv-x="311" d="M-47 -369l98 183q-22 0 -22 18q0 14 8.5 24.5t21.5 10.5q10 0 16.5 -6.5t6.5 -14.5q0 -10 -10 -26l-113 -193zM78 111l235 1359h13l-236 -1359q-10 -54 11.5 -76.5t95.5 -22.5l-2 -12q-81 0 -104.5 24.5t-12.5 86.5z" />
<glyph unicode="&#x13d;" horiz-adv-x="1054" d="M61 0l242 1378h12l-239 -1366h868l-2 -12h-881zM680 1094l98 182q-22 0 -22 18q0 14 8.5 24.5t21.5 10.5q10 0 16.5 -6t6.5 -14q0 -11 -10 -27l-113 -192z" />
<glyph unicode="&#x13e;" horiz-adv-x="456" d="M143 111l236 1359h12l-235 -1359q-10 -54 11 -76.5t95 -22.5l-2 -12q-81 0 -104.5 24.5t-12.5 86.5zM479 1214l99 183q-23 0 -23 18q0 14 9 24.5t22 10.5q10 0 16 -6t6 -14q0 -11 -10 -27l-113 -193z" />
<glyph unicode="&#x13f;" horiz-adv-x="1054" d="M61 0l242 1378h12l-239 -1366h868l-2 -12h-881zM651 668q0 7 8 15.5t19 8.5q16 0 16 -16q0 -11 -7.5 -18t-14.5 -7q-21 0 -21 17z" />
<glyph unicode="&#x140;" horiz-adv-x="423" d="M98 111l236 1359h12l-235 -1359q-10 -54 11 -76.5t95 -22.5l-2 -12q-81 0 -104.5 24.5t-12.5 86.5zM397 705q0 7 8 15.5t19 8.5q16 0 16 -16q0 -11 -7.5 -18t-14.5 -7q-21 0 -21 17z" />
<glyph unicode="&#x141;" horiz-adv-x="1024" d="M-45 473l205 111l139 794h12l-139 -788l363 196l6 -12l-371 -201l-98 -561h841l-2 -12h-854l99 565l-195 -104z" />
<glyph unicode="&#x142;" horiz-adv-x="307" d="M-45 473l203 107l157 890h13l-156 -882l193 102l6 -12l-201 -107l-80 -452q-10 -54 13 -80.5t90 -26.5l-3 -12q-74 0 -98.5 28.5t-13.5 90.5l78 444l-195 -102z" />
<glyph unicode="&#x143;" horiz-adv-x="1265" d="M61 0l242 1378h12l717 -1353l238 1353h12l-242 -1378h-10l-719 1360l-237 -1360h-13zM770 1487l277 217l10 -12l-281 -213z" />
<glyph unicode="&#x144;" horiz-adv-x="976" d="M41 0l168 979h12l-55 -313q33 92 88.5 159.5t116.5 100.5t113.5 48t99.5 15q87 0 148 -22t94.5 -58t48.5 -90.5t13.5 -112.5t-14.5 -131l-98 -575h-12l98 575q13 70 14 126t-13 109.5t-46 88.5t-91.5 56.5t-143.5 21.5q-39 0 -82.5 -9.5t-100.5 -40t-105 -77.5 t-90 -130.5t-61 -191.5l-92 -528h-10zM506 1147l254 252l10 -13l-256 -247z" />
<glyph unicode="&#x145;" horiz-adv-x="1265" d="M61 0l242 1378h12l717 -1353l238 1353h12l-242 -1378h-10l-719 1360l-237 -1360h-13zM440 -317l99 182q-23 0 -23 18q0 14 9 24.5t22 10.5q10 0 16 -6t6 -14q0 -11 -10 -27l-113 -193z" />
<glyph unicode="&#x146;" horiz-adv-x="976" d="M41 0l168 979h12l-55 -313q33 92 88.5 159.5t116.5 100.5t113.5 48t99.5 15q87 0 148 -22t94.5 -58t48.5 -90.5t13.5 -112.5t-14.5 -131l-98 -575h-12l98 575q13 70 14 126t-13 109.5t-46 88.5t-91.5 56.5t-143.5 21.5q-39 0 -82.5 -9.5t-100.5 -40t-105 -77.5 t-90 -130.5t-61 -191.5l-92 -528h-10zM334 -324l98 183q-22 0 -22 18q0 14 8.5 24.5t21.5 10.5q10 0 16.5 -6.5t6.5 -14.5q0 -10 -10 -26l-113 -193z" />
<glyph unicode="&#x147;" horiz-adv-x="1265" d="M61 0l242 1378h12l717 -1353l238 1353h12l-242 -1378h-10l-719 1360l-237 -1360h-13zM596 1712l10 8l228 -215l299 209l6 -8l-299 -213h-15z" />
<glyph unicode="&#x148;" horiz-adv-x="976" d="M41 0l168 979h12l-55 -313q33 92 88.5 159.5t116.5 100.5t113.5 48t99.5 15q87 0 148 -22t94.5 -58t48.5 -90.5t13.5 -112.5t-14.5 -131l-98 -575h-12l98 575q13 70 14 126t-13 109.5t-46 88.5t-91.5 56.5t-143.5 21.5q-39 0 -82.5 -9.5t-100.5 -40t-105 -77.5 t-90 -130.5t-61 -191.5l-92 -528h-10zM338 1372l6 6l236 -250l313 244l4 -8l-315 -250h-9z" />
<glyph unicode="&#x149;" horiz-adv-x="1019" d="M84 0l168 979h12l-55 -313q33 92 88.5 159.5t116.5 100.5t113.5 48t99.5 15q87 0 148 -21.5t94.5 -58t49 -91t14 -112.5t-14.5 -131l-99 -575h-12l98 575q13 70 14 126t-13 109.5t-46 88.5t-91.5 56.5t-143.5 21.5q-39 0 -82.5 -9.5t-100.5 -40t-105 -77.5t-90 -130.5 t-61 -191.5l-92 -528h-10zM94 997l99 183q-23 0 -23 18q0 14 9 24.5t22 10.5q10 0 16 -6.5t6 -14.5q0 -10 -10 -26l-113 -193z" />
<glyph unicode="&#x14a;" horiz-adv-x="1263" d="M57 0l242 1378h12l721 -1358l240 1358h12l-283 -1609q-15 -86 -57 -124t-117 -38q-59 0 -106 12l4 12q47 -12 104 -12q70 0 107.5 34.5t52.5 115.5l41 231l-721 1360l-239 -1360h-13z" />
<glyph unicode="&#x14b;" horiz-adv-x="976" d="M37 0l172 979h12l-55 -313q27 74 69 133t86.5 93.5t94.5 57.5t90 31t76 8q86 0 147 -21.5t94.5 -58t49.5 -91t15 -113t-14 -130.5l-141 -806q-28 -162 -188 -162q-43 0 -92 12l6 12q46 -12 88 -12q146 0 174 150l141 806q18 82 12.5 155t-32 128t-93 87t-169.5 32 q-39 0 -82.5 -9.5t-100 -40t-104.5 -77.5t-90.5 -130.5t-61.5 -191.5l-92 -528h-12z" />
<glyph unicode="&#x14c;" horiz-adv-x="1341" d="M137 446q0 151 27 289t84 258t138.5 208.5t196.5 139t251 50.5q438 0 438 -476q0 -103 -17 -207t-50.5 -209t-90.5 -195.5t-130.5 -160.5t-177 -110.5t-224.5 -40.5q-222 0 -333.5 115.5t-111.5 338.5zM150 451q0 -226 108 -336.5t326 -110.5q117 0 217 38.5t172.5 106 t128.5 156t90 191t51 207.5t17 210q0 108 -22.5 191t-72 146.5t-133.5 96.5t-201 33q-132 0 -244 -49.5t-191.5 -136t-135.5 -204t-83 -254t-27 -285.5zM645 1585l2 17h543l-2 -17h-543z" />
<glyph unicode="&#x14d;" horiz-adv-x="993" d="M86 311q0 139 32.5 261t94.5 215.5t159 147.5t218 54q165 0 242 -91.5t77 -252.5t-40.5 -288.5t-110 -205.5t-156.5 -118.5t-184 -40.5q-169 0 -250.5 79t-81.5 240zM98 313q0 -156 77.5 -232.5t244.5 -76.5q94 0 178.5 39.5t152 115.5t107 201t39.5 283q0 157 -74 245.5 t-235 88.5q-118 0 -212.5 -53.5t-154.5 -145.5t-91.5 -211t-31.5 -254zM360 1212l2 17h543l-2 -17h-543z" />
<glyph unicode="&#x14e;" horiz-adv-x="1341" d="M137 446q0 151 27 289t84 258t138.5 208.5t196.5 139t251 50.5q438 0 438 -476q0 -103 -17 -207t-50.5 -209t-90.5 -195.5t-130.5 -160.5t-177 -110.5t-224.5 -40.5q-222 0 -333.5 115.5t-111.5 338.5zM150 451q0 -226 108 -336.5t326 -110.5q117 0 217 38.5t172.5 106 t128.5 156t90 191t51 207.5t17 210q0 108 -22.5 191t-72 146.5t-133.5 96.5t-201 33q-132 0 -244 -49.5t-191.5 -136t-135.5 -204t-83 -254t-27 -285.5zM727 1677q0 30 2 56h12q-5 -33 0.5 -67.5t22.5 -68.5t54.5 -55.5t90.5 -21.5q52 0 97.5 22t75.5 56.5t49.5 68.5 t29.5 66h13q-10 -35 -31 -71.5t-53 -72.5t-80 -59t-103 -23q-45 0 -80.5 15.5t-54.5 40t-32 54.5t-13 60z" />
<glyph unicode="&#x14f;" horiz-adv-x="993" d="M86 311q0 139 32.5 261t94.5 215.5t159 147.5t218 54q165 0 242 -91.5t77 -252.5t-40.5 -288.5t-110 -205.5t-156.5 -118.5t-184 -40.5q-169 0 -250.5 79t-81.5 240zM98 313q0 -156 77.5 -232.5t244.5 -76.5q94 0 178.5 39.5t152 115.5t107 201t39.5 283q0 157 -74 245.5 t-235 88.5q-118 0 -212.5 -53.5t-154.5 -145.5t-91.5 -211t-31.5 -254zM467 1370h10q-4 -33 2 -68t23 -69t54.5 -56t90.5 -22q52 0 97.5 22t75.5 56t49.5 69t29.5 68h10q-10 -35 -30 -71t-51.5 -72t-78.5 -59t-102 -23q-56 0 -96 23t-58 58.5t-24.5 72.5t-1.5 71z" />
<glyph unicode="&#x150;" horiz-adv-x="1341" d="M137 446q0 151 27 289t84 258t138.5 208.5t196.5 139t251 50.5q438 0 438 -476q0 -103 -17 -207t-50.5 -209t-90.5 -195.5t-130.5 -160.5t-177 -110.5t-224.5 -40.5q-222 0 -333.5 115.5t-111.5 338.5zM150 451q0 -226 108 -336.5t326 -110.5q117 0 217 38.5t172.5 106 t128.5 156t90 191t51 207.5t17 210q0 108 -22.5 191t-72 146.5t-133.5 96.5t-201 33q-132 0 -244 -49.5t-191.5 -136t-135.5 -204t-83 -254t-27 -285.5zM766 1511l278 218l9 -11l-281 -215zM946 1511l277 218l8 -11l-279 -215z" />
<glyph unicode="&#x151;" horiz-adv-x="993" d="M86 311q0 139 32.5 261t94.5 215.5t159 147.5t218 54q165 0 242 -91.5t77 -252.5t-40.5 -288.5t-110 -205.5t-156.5 -118.5t-184 -40.5q-169 0 -250.5 79t-81.5 240zM98 313q0 -156 77.5 -232.5t244.5 -76.5q94 0 178.5 39.5t152 115.5t107 201t39.5 283q0 157 -74 245.5 t-235 88.5q-118 0 -212.5 -53.5t-154.5 -145.5t-91.5 -211t-31.5 -254zM508 1145l254 252l10 -11l-258 -247zM668 1145l252 252l10 -11l-256 -247z" />
<glyph unicode="&#x152;" horiz-adv-x="1589" d="M137 446q0 151 27 289t84 258t138.5 208.5t196.5 139t251 50.5q66 0 129 -13h663l-2 -12h-717l-106 -610h682l-2 -13h-682l-129 -731h790l-2 -12h-766q-47 -8 -110 -8q-222 0 -333.5 115.5t-111.5 338.5zM150 451q0 -226 108 -336.5t326 -110.5q48 0 71 4l242 1370 q-20 2 -66 2q-132 0 -244 -49.5t-191.5 -136t-135.5 -204t-83 -254t-27 -285.5z" />
<glyph unicode="&#x153;" horiz-adv-x="1714" d="M86 311q0 139 32.5 261t94.5 215.5t159 147.5t218 54q165 0 242 -91.5t77 -252.5q0 -11 -1 -33t-1 -34q24 86 65.5 157.5t99.5 127.5t138 87t174 31q78 0 136.5 -20t90 -53t46 -70.5t14.5 -79.5q0 -43 -13 -83.5t-53.5 -85.5t-105 -77.5t-177 -54t-259.5 -21.5 q-80 0 -170 8q-6 -53 -6 -106t6.5 -96.5t27 -89.5t53.5 -77t89.5 -51t132.5 -20q69 0 135 17t124 50.5t94 93t38 136.5h12q0 -15 -4 -43q-19 -125 -133 -195.5t-266 -70.5q-79 0 -138.5 21t-93.5 53t-55 79.5t-28 93t-7 99.5v41q-53 -189 -177 -288t-279 -99 q-169 0 -250.5 79t-81.5 240zM98 313q0 -156 77.5 -232.5t244.5 -76.5q94 0 178.5 39.5t152 115.5t107 201t39.5 283q0 157 -74 245.5t-235 88.5q-118 0 -212.5 -53.5t-154.5 -145.5t-91.5 -211t-31.5 -254zM895 457q90 -8 168 -8q144 0 254 20t173.5 51t103 74t52.5 82 t13 82q0 40 -14 75.5t-44 67t-85.5 50t-131.5 18.5q-87 0 -162 -27.5t-129 -75t-95.5 -113.5t-66.5 -140t-36 -156z" />
<glyph unicode="&#x154;" horiz-adv-x="1122" d="M61 0l242 1378h434q184 0 281.5 -84t97.5 -235q0 -57 -14 -115t-51 -120.5t-92.5 -110t-148.5 -78.5t-210 -31h-47l342 -604h-14l-342 604h-359l-106 -604h-13zM182 616h422q111 0 200 29t143.5 74t91 105t51 117.5t14.5 115.5q0 145 -94 227t-275 82h-422zM614 1511 l277 218l10 -13l-280 -213z" />
<glyph unicode="&#x155;" horiz-adv-x="548" d="M72 0l170 979h10l-53 -313q27 74 69 133t86.5 93.5t94.5 57.5t90.5 31t76.5 8l-4 -14q-40 0 -83.5 -9.5t-100.5 -39.5t-104 -76.5t-89 -130t-61 -191.5l-90 -528h-12zM287 1147l254 252l10 -13l-256 -247z" />
<glyph unicode="&#x156;" horiz-adv-x="1122" d="M61 0l242 1378h434q184 0 281.5 -84t97.5 -235q0 -57 -14 -115t-51 -120.5t-92.5 -110t-148.5 -78.5t-210 -31h-47l342 -604h-14l-342 604h-359l-106 -604h-13zM182 616h422q111 0 200 29t143.5 74t91 105t51 117.5t14.5 115.5q0 145 -94 227t-275 82h-422zM309 -330 l99 183q-23 0 -23 18q0 14 9 24.5t22 10.5q10 0 16 -6.5t6 -14.5q0 -10 -10 -26l-113 -193z" />
<glyph unicode="&#x157;" horiz-adv-x="548" d="M-37 -354l98 182q-22 0 -22 18q0 14 9 24.5t22 10.5q10 0 16 -6t6 -14q0 -11 -10 -27l-113 -192zM72 0l170 979h10l-53 -313q27 74 69 133t86.5 93.5t94.5 57.5t90.5 31t76.5 8l-4 -14q-40 0 -83.5 -9.5t-100.5 -39.5t-104 -76.5t-89 -130t-61 -191.5l-90 -528h-12z" />
<glyph unicode="&#x158;" horiz-adv-x="1122" d="M61 0l242 1378h434q184 0 281.5 -84t97.5 -235q0 -57 -14 -115t-51 -120.5t-92.5 -110t-148.5 -78.5t-210 -31h-47l342 -604h-14l-342 604h-359l-106 -604h-13zM182 616h422q111 0 200 29t143.5 74t91 105t51 117.5t14.5 115.5q0 145 -94 227t-275 82h-422zM428 1712 l10 8l228 -215l299 209l6 -8l-299 -213h-15z" />
<glyph unicode="&#x159;" horiz-adv-x="548" d="M23 1372l6 6l235 -250l314 244l4 -8l-316 -250h-8zM72 0l170 979h10l-53 -313q27 74 69 133t86.5 93.5t94.5 57.5t90.5 31t76.5 8l-4 -14q-40 0 -83.5 -9.5t-100.5 -39.5t-104 -76.5t-89 -130t-61 -191.5l-90 -528h-12z" />
<glyph unicode="&#x15a;" horiz-adv-x="1189" d="M87.5 225q-19.5 80 8.5 191h13q-30 -100 -12.5 -177.5t74 -130t142 -79.5t191.5 -27q148 0 261.5 37t178.5 99t97 135.5t32 154.5q0 125 -96.5 198.5t-290.5 114.5q-94 20 -150.5 35t-116.5 38.5t-91.5 49.5t-51.5 65.5t-20 90.5q0 76 32 142t94 117.5t161 81.5t223 30 q65 0 125.5 -13t115.5 -40t90.5 -69.5t50 -101t-6.5 -133.5h-11q22 86 -0.5 154.5t-78.5 109t-129 61.5t-156 21q-239 0 -368.5 -102t-129.5 -256q0 -29 7 -54t16.5 -44.5t30.5 -37.5t38.5 -31t50.5 -26t57 -21.5t68 -19.5t72.5 -17.5t81.5 -18.5q93 -20 162 -46.5 t123 -64.5t82 -91.5t28 -121.5q0 -65 -20 -126t-65 -118t-111 -99t-165.5 -67.5t-221.5 -25.5q-101 0 -185 25t-147 76.5t-82.5 131.5zM705 1511l276 218l10 -13l-280 -213z" />
<glyph unicode="&#x15b;" horiz-adv-x="886" d="M51 225q0 45 6 70h11q-25 -143 54 -216t226 -73q96 0 171 21t119 52.5t72 73.5t38 79t10 73q0 26 -6 48.5t-13.5 39.5t-24 32t-29.5 25t-37.5 19.5t-40 14.5t-46 12t-46 9.5t-48.5 8.5q-37 6 -54.5 9.5t-51 11t-50.5 14.5t-42 18.5t-38.5 25.5t-27 32.5t-19.5 42.5t-6 53 q0 121 94.5 196.5t243.5 75.5q84 0 147.5 -18t105.5 -64.5t42 -119.5q0 -30 -6 -60h-12q13 67 -2.5 116.5t-56 78t-95 42t-123.5 13.5q-142 0 -234 -72.5t-92 -187.5q0 -110 113 -155q48 -20 176 -42q34 -6 54.5 -10t51.5 -11.5t50 -15.5t43 -19.5t38.5 -27t28 -35t19.5 -45 t6 -55.5q0 -37 -10.5 -76t-40.5 -82t-75 -76t-122 -55t-174 -22q-133 0 -215 59t-82 172zM522 1147l254 252l10 -13l-256 -247z" />
<glyph unicode="&#x15c;" horiz-adv-x="1189" d="M87.5 225q-19.5 80 8.5 191h13q-30 -100 -12.5 -177.5t74 -130t142 -79.5t191.5 -27q148 0 261.5 37t178.5 99t97 135.5t32 154.5q0 125 -96.5 198.5t-290.5 114.5q-94 20 -150.5 35t-116.5 38.5t-91.5 49.5t-51.5 65.5t-20 90.5q0 76 32 142t94 117.5t161 81.5t223 30 q65 0 125.5 -13t115.5 -40t90.5 -69.5t50 -101t-6.5 -133.5h-11q22 86 -0.5 154.5t-78.5 109t-129 61.5t-156 21q-239 0 -368.5 -102t-129.5 -256q0 -29 7 -54t16.5 -44.5t30.5 -37.5t38.5 -31t50.5 -26t57 -21.5t68 -19.5t72.5 -17.5t81.5 -18.5q93 -20 162 -46.5 t123 -64.5t82 -91.5t28 -121.5q0 -65 -20 -126t-65 -118t-111 -99t-165.5 -67.5t-221.5 -25.5q-101 0 -185 25t-147 76.5t-82.5 131.5zM498 1501l307 219h10l227 -213l-8 -8l-227 207l-303 -213z" />
<glyph unicode="&#x15d;" horiz-adv-x="886" d="M51 225q0 45 6 70h11q-25 -143 54 -216t226 -73q96 0 171 21t119 52.5t72 73.5t38 79t10 73q0 26 -6 48.5t-13.5 39.5t-24 32t-29.5 25t-37.5 19.5t-40 14.5t-46 12t-46 9.5t-48.5 8.5q-37 6 -54.5 9.5t-51 11t-50.5 14.5t-42 18.5t-38.5 25.5t-27 32.5t-19.5 42.5t-6 53 q0 121 94.5 196.5t243.5 75.5q84 0 147.5 -18t105.5 -64.5t42 -119.5q0 -30 -6 -60h-12q13 67 -2.5 116.5t-56 78t-95 42t-123.5 13.5q-142 0 -234 -72.5t-92 -187.5q0 -110 113 -155q48 -20 176 -42q34 -6 54.5 -10t51.5 -11.5t50 -15.5t43 -19.5t38.5 -27t28 -35t19.5 -45 t6 -55.5q0 -37 -10.5 -76t-40.5 -82t-75 -76t-122 -55t-174 -22q-133 0 -215 59t-82 172zM274 1122l324 256h14l228 -250l-9 -8l-227 246l-323 -252z" />
<glyph unicode="&#x15e;" horiz-adv-x="1189" d="M87.5 225q-19.5 80 8.5 191h13q-30 -100 -12.5 -177.5t74 -130t142 -79.5t191.5 -27q148 0 261.5 37t178.5 99t97 135.5t32 154.5q0 125 -96.5 198.5t-290.5 114.5q-94 20 -150.5 35t-116.5 38.5t-91.5 49.5t-51.5 65.5t-20 90.5q0 76 32 142t94 117.5t161 81.5t223 30 q65 0 125.5 -13t115.5 -40t90.5 -69.5t50 -101t-6.5 -133.5h-11q22 86 -0.5 154.5t-78.5 109t-129 61.5t-156 21q-239 0 -368.5 -102t-129.5 -256q0 -29 7 -54t16.5 -44.5t30.5 -37.5t38.5 -31t50.5 -26t57 -21.5t68 -19.5t72.5 -17.5t81.5 -18.5q93 -20 162 -46.5 t123 -64.5t82 -91.5t28 -121.5q0 -80 -31 -153t-93.5 -136t-171.5 -103t-250 -44l-93 -123q27 8 70 8q55 0 93 -29.5t38 -83.5q0 -64 -57 -111.5t-146 -47.5q-65 0 -135 26l6 11q67 -25 127 -25q88 0 140.5 44t52.5 103q0 50 -35 76.5t-86 26.5q-40 0 -78 -12l-6 8l94 129 h-22q-101 0 -185 25t-147 76.5t-82.5 131.5z" />
<glyph unicode="&#x15f;" horiz-adv-x="886" d="M47 225q0 37 8 70h13q-9 -37 -9 -70q0 -104 81.5 -161.5t207.5 -57.5q96 0 171 21t119 52.5t72 73.5t38 79t10 73q0 65 -32 106.5t-83 60.5t-113 31t-124 23t-113 30t-83 60t-32 105q0 121 94.5 196.5t243.5 75.5q84 0 147.5 -18t105.5 -64.5t42 -119.5q0 -30 -6 -60h-12 q6 30 6 60q0 52 -22.5 90t-63 59t-89.5 31t-108 10q-142 0 -234 -72.5t-92 -187.5q0 -61 32 -100t83 -57t113 -29t124 -23t113 -32.5t83 -64t32 -110.5q0 -37 -10.5 -75.5t-40 -81.5t-73.5 -76t-119 -55t-169 -23l-94 -125q27 8 70 8q55 0 93 -29.5t38 -83.5 q0 -64 -57 -111.5t-146 -47.5q-65 0 -135 26l6 11q67 -25 127 -25q88 0 140.5 44t52.5 103q0 50 -35 76.5t-86 26.5q-40 0 -78 -12l-6 8l96 131q-132 2 -214.5 61.5t-82.5 169.5z" />
<glyph unicode="&#x160;" horiz-adv-x="1189" d="M87.5 225q-19.5 80 8.5 191h13q-30 -100 -12.5 -177.5t74 -130t142 -79.5t191.5 -27q148 0 261.5 37t178.5 99t97 135.5t32 154.5q0 125 -96.5 198.5t-290.5 114.5q-94 20 -150.5 35t-116.5 38.5t-91.5 49.5t-51.5 65.5t-20 90.5q0 76 32 142t94 117.5t161 81.5t223 30 q65 0 125.5 -13t115.5 -40t90.5 -69.5t50 -101t-6.5 -133.5h-11q22 86 -0.5 154.5t-78.5 109t-129 61.5t-156 21q-239 0 -368.5 -102t-129.5 -256q0 -29 7 -54t16.5 -44.5t30.5 -37.5t38.5 -31t50.5 -26t57 -21.5t68 -19.5t72.5 -17.5t81.5 -18.5q93 -20 162 -46.5 t123 -64.5t82 -91.5t28 -121.5q0 -65 -20 -126t-65 -118t-111 -99t-165.5 -67.5t-221.5 -25.5q-101 0 -185 25t-147 76.5t-82.5 131.5zM526 1712l11 8l227 -215l299 209l6 -8l-299 -213h-14z" />
<glyph unicode="&#x161;" horiz-adv-x="886" d="M51 225q0 45 6 70h11q-25 -143 54 -216t226 -73q96 0 171 21t119 52.5t72 73.5t38 79t10 73q0 26 -6 48.5t-13.5 39.5t-24 32t-29.5 25t-37.5 19.5t-40 14.5t-46 12t-46 9.5t-48.5 8.5q-37 6 -54.5 9.5t-51 11t-50.5 14.5t-42 18.5t-38.5 25.5t-27 32.5t-19.5 42.5t-6 53 q0 121 94.5 196.5t243.5 75.5q84 0 147.5 -18t105.5 -64.5t42 -119.5q0 -30 -6 -60h-12q13 67 -2.5 116.5t-56 78t-95 42t-123.5 13.5q-142 0 -234 -72.5t-92 -187.5q0 -110 113 -155q48 -20 176 -42q34 -6 54.5 -10t51.5 -11.5t50 -15.5t43 -19.5t38.5 -27t28 -35t19.5 -45 t6 -55.5q0 -37 -10.5 -76t-40.5 -82t-75 -76t-122 -55t-174 -22q-133 0 -215 59t-82 172zM332 1372l6 6l235 -250l314 244l4 -8l-316 -250h-8z" />
<glyph unicode="&#x162;" horiz-adv-x="1060" d="M178 1366l2 12h1020l-2 -12h-500l-239 -1366l-99 -131q27 8 70 8q55 0 93 -29.5t38 -83.5q0 -64 -57 -111.5t-146 -47.5q-65 0 -135 26l6 11q67 -25 127 -25q88 0 140.5 44t52.5 103q0 50 -35 76.5t-86 26.5q-40 0 -78 -12l-6 8l102 137l240 1366h-508z" />
<glyph unicode="&#x163;" horiz-adv-x="579" d="M-20 -369l6 11q67 -25 127 -25q88 0 140 44t52 103q0 50 -35 76.5t-86 26.5q-40 0 -78 -12l-6 8l127 172q-74 59 -45 241l121 691h-186l2 12h186l45 268h12l-45 -268h308l-2 -12h-308l-120 -691q-27 -155 23.5 -213.5t184.5 -58.5q38 0 97 6l-2 -12q-58 -6 -97 -6 q-110 0 -165 35l-119 -158q27 8 69 8q55 0 93 -29.5t38 -83.5q0 -64 -56.5 -111.5t-145.5 -47.5q-65 0 -135 26z" />
<glyph unicode="&#x164;" horiz-adv-x="1060" d="M178 1366l2 12h1020l-2 -12h-500l-239 -1366h-13l240 1366h-508zM487 1712l11 8l227 -215l299 209l6 -8l-299 -213h-14z" />
<glyph unicode="&#x165;" horiz-adv-x="612" d="M117 967l2 12h186l45 268h12l-45 -268h308l-2 -12h-308l-120 -691q-27 -155 23.5 -213.5t184.5 -58.5q38 0 97 6l-2 -12q-58 -6 -97 -6q-140 0 -193 61.5t-26 222.5l121 691h-186zM573 1153l99 182q-23 0 -23 19q0 14 9 24.5t22 10.5q10 0 16 -6.5t6 -14.5q0 -11 -10 -27 l-112 -192z" />
<glyph unicode="&#x166;" horiz-adv-x="1028" d="M176 807l2 10h395l97 549h-492l2 12h989l-2 -12h-485l-96 -549h397l-2 -10h-397l-142 -807h-12l141 807h-395z" />
<glyph unicode="&#x167;" horiz-adv-x="573" d="M66 639v10h180l57 318h-184l2 12h184l47 268h13l-48 -268h304l-3 -12h-303l-57 -318h301v-10h-301l-65 -363q-11 -81 -7.5 -133.5t32 -83t70.5 -43t109 -12.5q39 0 95 6l-3 -12q-55 -6 -94 -6q-140 0 -191.5 61.5t-23.5 222.5l66 363h-180z" />
<glyph unicode="&#x168;" horiz-adv-x="1292" d="M145 333q-10 107 17 240l141 805h12l-141 -805q-17 -104 -18 -192t24 -158t74 -118.5t132 -74.5t198 -26q108 0 195 28.5t148.5 78t107.5 123t74 156.5t46 185l141 803h13l-142 -803q-23 -132 -64.5 -233t-109.5 -182.5t-171.5 -124.5t-239.5 -43q-146 0 -242 41 t-140.5 117t-54.5 183zM549 1552q66 101 158 101q35 0 120 -45t123 -45q76 0 140 86l10 -7q-70 -92 -152 -92q-40 0 -123.5 45t-117.5 45q-86 0 -150 -94z" />
<glyph unicode="&#x169;" horiz-adv-x="966" d="M94 275q2 57 15 131l100 573h12l-100 -573q-10 -60 -13 -106.5t1.5 -94.5t23 -82.5t50.5 -62.5t85 -42t125 -14q39 0 82.5 9.5t100.5 40t105 77.5t89.5 130.5t60.5 191.5l93 526h12l-170 -977h-12l55 313q-27 -74 -70 -133t-87.5 -93.5t-94.5 -57.5t-90 -31t-76 -8 q-88 0 -148.5 22t-92.5 57.5t-45 91t-11 112.5zM356 1221q65 100 158 100q36 0 121 -45t123 -45q75 0 139 86l10 -6q-70 -92 -151 -92q-40 0 -124 45t-118 45q-84 0 -149 -95z" />
<glyph unicode="&#x16a;" horiz-adv-x="1292" d="M145 333q-10 107 17 240l141 805h12l-141 -805q-17 -104 -18 -192t24 -158t74 -118.5t132 -74.5t198 -26q108 0 195 28.5t148.5 78t107.5 123t74 156.5t46 185l141 803h13l-142 -803q-23 -132 -64.5 -233t-109.5 -182.5t-171.5 -124.5t-239.5 -43q-146 0 -242 41 t-140.5 117t-54.5 183zM563 1567l2 16h543l-2 -16h-543z" />
<glyph unicode="&#x16b;" horiz-adv-x="966" d="M94 275q2 57 15 131l100 573h12l-100 -573q-10 -60 -13 -106.5t1.5 -94.5t23 -82.5t50.5 -62.5t85 -42t125 -14q39 0 82.5 9.5t100.5 40t105 77.5t89.5 130.5t60.5 191.5l93 526h12l-170 -977h-12l55 313q-27 -74 -70 -133t-87.5 -93.5t-94.5 -57.5t-90 -31t-76 -8 q-88 0 -148.5 22t-92.5 57.5t-45 91t-11 112.5zM344 1212l2 17h543l-2 -17h-543z" />
<glyph unicode="&#x16c;" horiz-adv-x="1292" d="M145 333q-10 107 17 240l141 805h12l-141 -805q-17 -104 -18 -192t24 -158t74 -118.5t132 -74.5t198 -26q108 0 195 28.5t148.5 78t107.5 123t74 156.5t46 185l141 803h13l-142 -803q-23 -132 -64.5 -233t-109.5 -182.5t-171.5 -124.5t-239.5 -43q-146 0 -242 41 t-140.5 117t-54.5 183zM616.5 1644.5q-0.5 29.5 1.5 55.5h13q-5 -33 0.5 -67.5t22.5 -68.5t54.5 -55.5t90.5 -21.5q52 0 97.5 22t75.5 56.5t49.5 68.5t29.5 66h12q-10 -35 -30.5 -71t-52.5 -72.5t-80 -59t-103 -22.5q-45 0 -80.5 15.5t-55 39.5t-32 54.5t-13 60z" />
<glyph unicode="&#x16d;" horiz-adv-x="966" d="M94 275q2 57 15 131l100 573h12l-100 -573q-10 -60 -13 -106.5t1.5 -94.5t23 -82.5t50.5 -62.5t85 -42t125 -14q39 0 82.5 9.5t100.5 40t105 77.5t89.5 130.5t60.5 191.5l93 526h12l-170 -977h-12l55 313q-27 -74 -70 -133t-87.5 -93.5t-94.5 -57.5t-90 -31t-76 -8 q-88 0 -148.5 22t-92.5 57.5t-45 91t-11 112.5zM414 1370h10q-4 -33 2 -68t23 -69t54.5 -56t90.5 -22q52 0 97.5 22t75.5 56t49.5 69t29.5 68h10q-10 -35 -30 -71t-51.5 -72t-78.5 -59t-102 -23q-56 0 -96 23t-58 58.5t-24.5 72.5t-1.5 71z" />
<glyph unicode="&#x16e;" horiz-adv-x="1292" d="M145 333q-10 107 17 240l141 805h12l-141 -805q-17 -104 -18 -192t24 -158t74 -118.5t132 -74.5t198 -26q108 0 195 28.5t148.5 78t107.5 123t74 156.5t46 185l141 803h13l-142 -803q-23 -132 -64.5 -233t-109.5 -182.5t-171.5 -124.5t-239.5 -43q-146 0 -242 41 t-140.5 117t-54.5 183zM680 1526q0 70 46.5 121t113.5 51q55 0 83.5 -31.5t28.5 -79.5q0 -69 -45 -121.5t-116 -52.5q-51 0 -81 31t-30 82zM692 1528q0 -46 28.5 -74.5t72.5 -28.5q63 0 105 49t42 109q0 45 -26 74t-76 29q-60 0 -103 -47.5t-43 -110.5z" />
<glyph unicode="&#x16f;" horiz-adv-x="966" d="M94 275q2 57 15 131l100 573h12l-100 -573q-10 -60 -13 -106.5t1.5 -94.5t23 -82.5t50.5 -62.5t85 -42t125 -14q39 0 82.5 9.5t100.5 40t105 77.5t89.5 130.5t60.5 191.5l93 526h12l-170 -977h-12l55 313q-27 -74 -70 -133t-87.5 -93.5t-94.5 -57.5t-90 -31t-76 -8 q-88 0 -148.5 22t-92.5 57.5t-45 91t-11 112.5zM477 1217q0 70 46.5 121t113.5 51q55 0 84 -31.5t29 -79.5q0 -69 -45.5 -121.5t-116.5 -52.5q-51 0 -81 31t-30 82zM489 1219q0 -46 28.5 -74.5t72.5 -28.5q63 0 105 49t42 109q0 45 -26 73.5t-76 28.5q-61 0 -103.5 -47 t-42.5 -110z" />
<glyph unicode="&#x170;" horiz-adv-x="1292" d="M145 333q-10 107 17 240l141 805h12l-141 -805q-17 -104 -18 -192t24 -158t74 -118.5t132 -74.5t198 -26q108 0 195 28.5t148.5 78t107.5 123t74 156.5t46 185l141 803h13l-142 -803q-23 -132 -64.5 -233t-109.5 -182.5t-171.5 -124.5t-239.5 -43q-146 0 -242 41 t-140.5 117t-54.5 183zM678 1511l278 218l9 -11l-281 -215zM858 1511l277 218l8 -11l-279 -215z" />
<glyph unicode="&#x171;" horiz-adv-x="966" d="M94 275q2 57 15 131l100 573h12l-100 -573q-10 -60 -13 -106.5t1.5 -94.5t23 -82.5t50.5 -62.5t85 -42t125 -14q39 0 82.5 9.5t100.5 40t105 77.5t89.5 130.5t60.5 191.5l93 526h12l-170 -977h-12l55 313q-27 -74 -70 -133t-87.5 -93.5t-94.5 -57.5t-90 -31t-76 -8 q-88 0 -148.5 22t-92.5 57.5t-45 91t-11 112.5zM455 1145l254 252l10 -11l-258 -247zM614 1145l252 252l11 -11l-256 -247z" />
<glyph unicode="&#x172;" horiz-adv-x="1292" d="M143.5 381q1.5 88 18.5 192l141 805h12l-141 -805q-17 -104 -18 -192t24 -158t74 -118.5t132 -74.5t198 -26q108 0 195 28.5t148.5 78t107.5 123t74 156.5t46 185l141 803h13l-142 -803q-23 -132 -64.5 -233t-109.5 -182.5t-171.5 -124.5t-239.5 -43h-13 q-83 -56 -136.5 -130.5t-53.5 -135.5q0 -84 121 -84q72 0 147 28l2 -12q-78 -29 -155 -29q-58 0 -93.5 23t-35.5 74q0 61 52 135.5t134 130.5q-110 3 -189.5 31t-126 78t-70 121t-22 159z" />
<glyph unicode="&#x173;" horiz-adv-x="966" d="M94 275q2 57 15 131l100 573h12l-100 -573q-10 -60 -13 -106.5t1.5 -94.5t23 -82.5t50.5 -62.5t85 -42t125 -14q39 0 82.5 9.5t100.5 40t105 77.5t89.5 130.5t60.5 191.5l93 526h12l-170 -977h-6q-82 -56 -135.5 -130t-53.5 -134q0 -84 121 -84q70 0 148 29l2 -13 q-75 -28 -156 -28q-129 0 -129 96q0 64 56.5 141t142.5 131l53 305q-27 -74 -70 -133t-87.5 -93.5t-94.5 -57.5t-90 -31t-76 -8q-88 0 -148.5 22t-92.5 57.5t-45 91t-11 112.5z" />
<glyph unicode="&#x174;" horiz-adv-x="1705" d="M180 1378h15l145 -1360l643 1360h12l183 -1360l624 1360h15l-635 -1378h-11l-184 1360l-645 -1360h-10zM731 1501l307 219h11l227 -213l-8 -8l-228 207l-303 -213z" />
<glyph unicode="&#x175;" horiz-adv-x="1314" d="M96 979h13l135 -956l432 829h10l174 -827l291 520q44 79 71.5 154t38.5 126t29 154h13q-19 -105 -29.5 -153.5t-38.5 -125.5t-74 -159l-301 -541h-8l-174 834l-432 -834h-13zM442 1122l324 256h14l228 -250l-9 -8l-227 246l-323 -252z" />
<glyph unicode="&#x176;" horiz-adv-x="950" d="M174 1378h14l295 -798l596 798h15l-607 -813l-96 -565h-12l96 565zM356 1495l308 219h10l227 -213l-8 -8l-227 207l-304 -213z" />
<glyph unicode="&#x177;" horiz-adv-x="811" d="M66 979h12l258 -977h41l274 541q67 133 95 222t42 212h13q-13 -123 -43 -216.5t-96 -221.5l-484 -959h-14l207 410h-45zM186 1128l324 256h14l228 -249l-9 -9l-227 246l-323 -252z" />
<glyph unicode="&#x178;" horiz-adv-x="950" d="M174 1378h14l295 -798l596 798h15l-607 -813l-96 -565h-12l96 565zM489 1563q0 7 6.5 14.5t16.5 7.5q16 0 16 -16q0 -10 -7 -15.5t-15 -5.5q-17 0 -17 15zM784 1563q0 7 6 14.5t17 7.5q6 0 10 -5t4 -11q0 -10 -6.5 -15.5t-13.5 -5.5q-17 0 -17 15z" />
<glyph unicode="&#x179;" horiz-adv-x="1019" d="M-61 0l2 12l1169 1354h-885l2 12h899l-2 -12l-1167 -1354h963l-2 -12h-979zM616 1511l277 218l10 -13l-280 -213z" />
<glyph unicode="&#x17a;" horiz-adv-x="757" d="M-63 0l2 12l858 955h-639l2 12h655l-2 -12l-858 -955h696l-2 -12h-712zM438 1147l254 252l10 -13l-256 -247z" />
<glyph unicode="&#x17b;" horiz-adv-x="1019" d="M-61 0l2 12l1169 1354h-885l2 12h899l-2 -12l-1167 -1354h963l-2 -12h-979zM690 1563q0 7 8 15.5t19 8.5q16 0 16 -16q0 -11 -7.5 -18t-14.5 -7q-21 0 -21 17z" />
<glyph unicode="&#x17c;" horiz-adv-x="757" d="M-63 0l2 12l858 955h-639l2 12h655l-2 -12l-858 -955h696l-2 -12h-712zM502 1190q0 7 7.5 15.5t18.5 8.5q17 0 17 -16q0 -11 -8 -17.5t-15 -6.5q-20 0 -20 16z" />
<glyph unicode="&#x17d;" horiz-adv-x="1019" d="M-61 0l2 12l1169 1354h-885l2 12h899l-2 -12l-1167 -1354h963l-2 -12h-979zM477 1712l10 8l228 -215l299 209l6 -8l-299 -213h-14z" />
<glyph unicode="&#x17e;" horiz-adv-x="757" d="M-63 0l2 12l858 955h-639l2 12h655l-2 -12l-858 -955h696l-2 -12h-712zM272 1372l7 6l235 -250l313 244l4 -8l-315 -250h-8z" />
<glyph unicode="&#x192;" horiz-adv-x="1093" d="M55 -162l4 10q67 -18 107 -18q55 0 98 23.5t68.5 51.5t50 88.5t34 96.5t28.5 113q9 38 14 57l121 508h-197l2 12h199l47 205q19 85 34 137t36.5 102t47.5 75.5t63.5 41t88.5 15.5q46 0 107 -15l-4 -12q-55 14 -105 14q-47 0 -82 -14.5t-59.5 -39.5t-45.5 -73t-35.5 -98 t-33.5 -133l-47 -205h219l-2 -12h-221l-121 -508q-4 -18 -13 -55q-13 -55 -20 -83.5t-22 -77t-28.5 -74.5t-36 -59.5t-47.5 -50.5t-60.5 -29.5t-77.5 -12.5q-49 0 -111 20z" />
<glyph unicode="&#x1a0;" horiz-adv-x="1341" d="M137 446q0 151 27 289t84 258t138.5 208.5t196.5 139t251 50.5q284 0 385 -203q109 4 156.5 54.5t68.5 168.5l20 117h13l-21 -117q-23 -123 -72 -176t-159 -59q47 -105 47 -261q0 -103 -17 -207t-50.5 -209t-90.5 -195.5t-130.5 -160.5t-177 -110.5t-224.5 -40.5 q-222 0 -333.5 115.5t-111.5 338.5zM150 451q0 -226 108 -336.5t326 -110.5q117 0 217 38.5t172.5 106t128.5 156t90 191t51 207.5t17 210q0 108 -22.5 191t-72 146.5t-133.5 96.5t-201 33q-132 0 -244 -49.5t-191.5 -136t-135.5 -204t-83 -254t-27 -285.5z" />
<glyph unicode="&#x1a1;" horiz-adv-x="993" d="M86 311q0 139 32.5 261t94.5 215.5t159 147.5t218 54q179 0 260 -115q112 3 163 54t72 170l21 116h12l-20 -116q-22 -121 -75 -175.5t-165 -60.5q51 -83 51 -217q0 -161 -40.5 -288.5t-110 -205.5t-156.5 -118.5t-184 -40.5q-169 0 -250.5 79t-81.5 240zM98 313 q0 -156 77.5 -232.5t244.5 -76.5q94 0 178.5 39.5t152 115.5t107 201t39.5 283q0 157 -74 245.5t-235 88.5q-118 0 -212.5 -53.5t-154.5 -145.5t-91.5 -211t-31.5 -254z" />
<glyph unicode="&#x1af;" horiz-adv-x="1339" d="M145 333q-10 107 17 240l141 805h12l-141 -805q-17 -104 -18 -192t24 -158t74 -118.5t132 -74.5t198 -26q108 0 195 28.5t148.5 78t107.5 123t74 156.5t46 185l141 803h13l-27 -153q115 4 170 56t76 167l20 117h13l-21 -117q-22 -123 -79.5 -177.5t-180.5 -58.5 l-113 -637q-23 -132 -64.5 -233t-109.5 -182.5t-171.5 -124.5t-239.5 -43q-146 0 -242 41t-140.5 117t-54.5 183z" />
<glyph unicode="&#x1b0;" horiz-adv-x="1024" d="M94 275q2 57 15 131l100 573h12l-100 -573q-10 -60 -13 -106.5t1.5 -94.5t23 -82.5t50.5 -62.5t85 -42t125 -14q39 0 82.5 9.5t100.5 40t105 77.5t89.5 130.5t60.5 191.5l93 526h12l-18 -100q117 4 165.5 54t69.5 169l21 117h12l-21 -117q-23 -127 -74 -179.5t-176 -56.5 l-149 -864h-12l55 313q-27 -74 -70 -133t-87.5 -93.5t-94.5 -57.5t-90 -31t-76 -8q-88 0 -148.5 22t-92.5 57.5t-45 91t-11 112.5z" />
<glyph unicode="&#x1fc;" horiz-adv-x="1744" d="M-35 0l1047 1378h749v-12h-733l-74 -618h680l-2 -13h-680l-86 -723h807v-12h-819l64 557h-515l-421 -557h-17zM412 569h510l94 797zM1231 1511l276 218l11 -13l-281 -213z" />
<glyph unicode="&#x1fd;" horiz-adv-x="1642" d="M45 201q0 -105 75 -157t193 -52q169 0 282.5 64.5t201.5 187.5q7 -50 25.5 -92t53.5 -79.5t95 -59t141 -21.5q159 0 275.5 77.5t125.5 213.5v18h-10q-2 -77 -38 -136.5t-94 -93t-124 -50.5t-135 -17q-76 0 -132.5 20t-89.5 51t-53.5 77t-27 89.5t-6.5 96.5q0 52 10 139 q169 -31 285 -31q85 0 156 11.5t120.5 31t88 46t61.5 54.5t37.5 59.5t20 57.5t5.5 52q0 42 -14.5 79.5t-46 70.5t-90 53t-136.5 20q-162 0 -275.5 -88t-174.5 -234q10 48 10 99q0 96 -75.5 163.5t-235.5 67.5q-173 0 -268 -73.5t-95 -180.5h15q2 104 93.5 173t252.5 69 q160 0 230.5 -65.5t70.5 -168.5q0 -37 -7 -78t-20 -93t-18 -80q-172 36 -322 36q-102 0 -180.5 -19.5t-125.5 -51t-77.5 -75.5t-41.5 -87.5t-11 -93.5zM57 201q0 48 10.5 89.5t40 84.5t76.5 73t124.5 49t178.5 19q129 0 314 -37q-10 -40 -10 -139q0 -26 4 -80 q-96 -136 -210 -196t-270 -60q-114 0 -186 48.5t-72 148.5zM815 489q40 227 167.5 353.5t317.5 126.5q76 0 131.5 -18.5t85.5 -50t44 -67t14 -75.5t-12 -78t-45.5 -79t-85.5 -71.5t-139 -50.5t-199 -20q-103 0 -279 30zM924 1147l254 252l10 -13l-256 -247z" />
<glyph unicode="&#x1fe;" horiz-adv-x="1341" d="M51 -35l164 180q-78 116 -78 301q0 151 27 289t84 258t138.5 208.5t196.5 139t251 50.5q253 0 362 -164l145 159l9 -8l-148 -161q70 -114 70 -302q0 -103 -17 -207t-50.5 -209t-90.5 -195.5t-130.5 -160.5t-177 -110.5t-224.5 -40.5q-250 0 -359 145l-164 -180zM150 451 q0 -188 73 -295l965 1063q-99 161 -357 161q-132 0 -244 -49.5t-191.5 -136t-135.5 -204t-83 -254t-27 -285.5zM231 145q105 -141 353 -141q117 0 217 38.5t172.5 106t128.5 156t90 191t51 207.5t17 210q0 181 -66 295zM805 1511l276 218l11 -13l-281 -213z" />
<glyph unicode="&#x1ff;" horiz-adv-x="993" d="M8 -25l127 134q-49 76 -49 202q0 139 32.5 261t94.5 215.5t159 147.5t218 54q189 0 268 -129l119 123l8 -6l-121 -125q45 -83 45 -207q0 -161 -40.5 -288.5t-110 -205.5t-156.5 -118.5t-184 -40.5q-197 0 -275 106l-127 -131zM98 313q0 -126 47 -196l705 733 q-75 127 -262 127q-118 0 -212.5 -53.5t-154.5 -145.5t-91.5 -211t-31.5 -254zM152 106q74 -102 268 -102q94 0 178.5 39.5t152 115.5t107 201t39.5 283q0 117 -43 199zM575 1147l254 252l11 -13l-256 -247z" />
<glyph unicode="&#x218;" horiz-adv-x="1189" d="M87.5 225q-19.5 80 8.5 191h13q-30 -100 -12.5 -177.5t74 -130t142 -79.5t191.5 -27q148 0 261.5 37t178.5 99t97 135.5t32 154.5q0 125 -96.5 198.5t-290.5 114.5q-94 20 -150.5 35t-116.5 38.5t-91.5 49.5t-51.5 65.5t-20 90.5q0 76 32 142t94 117.5t161 81.5t223 30 q65 0 125.5 -13t115.5 -40t90.5 -69.5t50 -101t-6.5 -133.5h-11q22 86 -0.5 154.5t-78.5 109t-129 61.5t-156 21q-239 0 -368.5 -102t-129.5 -256q0 -29 7 -54t16.5 -44.5t30.5 -37.5t38.5 -31t50.5 -26t57 -21.5t68 -19.5t72.5 -17.5t81.5 -18.5q93 -20 162 -46.5 t123 -64.5t82 -91.5t28 -121.5q0 -65 -20 -126t-65 -118t-111 -99t-165.5 -67.5t-221.5 -25.5q-101 0 -185 25t-147 76.5t-82.5 131.5zM362 -369l99 183q-23 0 -23 18q0 14 9 24.5t22 10.5q10 0 16.5 -6.5t6.5 -14.5t-11 -26l-112 -193z" />
<glyph unicode="&#x219;" horiz-adv-x="886" d="M51 225q0 45 6 70h11q-25 -143 54 -216t226 -73q96 0 171 21t119 52.5t72 73.5t38 79t10 73q0 26 -6 48.5t-13.5 39.5t-24 32t-29.5 25t-37.5 19.5t-40 14.5t-46 12t-46 9.5t-48.5 8.5q-37 6 -54.5 9.5t-51 11t-50.5 14.5t-42 18.5t-38.5 25.5t-27 32.5t-19.5 42.5t-6 53 q0 121 94.5 196.5t243.5 75.5q84 0 147.5 -18t105.5 -64.5t42 -119.5q0 -30 -6 -60h-12q13 67 -2.5 116.5t-56 78t-95 42t-123.5 13.5q-142 0 -234 -72.5t-92 -187.5q0 -110 113 -155q48 -20 176 -42q34 -6 54.5 -10t51.5 -11.5t50 -15.5t43 -19.5t38.5 -27t28 -35t19.5 -45 t6 -55.5q0 -37 -10.5 -76t-40.5 -82t-75 -76t-122 -55t-174 -22q-133 0 -215 59t-82 172zM244 -369l98 183q-23 0 -23 18q0 14 9 24.5t22 10.5q10 0 16.5 -6.5t6.5 -14.5t-11 -26l-112 -193z" />
<glyph unicode="&#x21a;" horiz-adv-x="1060" d="M178 1366l2 12h1020l-2 -12h-500l-239 -1366h-13l240 1366h-508zM311 -379l99 182q-23 0 -23 19q0 14 9 24.5t22 10.5q10 0 16 -6.5t6 -14.5q0 -10 -10 -26l-113 -193z" />
<glyph unicode="&#x21b;" horiz-adv-x="579" d="M53 -385l99 182q-23 0 -23 19q0 14 9 24t22 10q10 0 16 -6t6 -14q0 -11 -10 -27l-113 -192zM117 967l2 12h186l45 268h12l-45 -268h308l-2 -12h-308l-120 -691q-27 -155 23.5 -213.5t184.5 -58.5q38 0 97 6l-2 -12q-58 -6 -97 -6q-140 0 -193 61.5t-26 222.5l121 691 h-186z" />
<glyph unicode="&#x259;" horiz-adv-x="935" d="M57 215q0 43 13.5 83.5t53.5 85.5t104.5 77.5t177.5 54t260 21.5q69 0 170 -9q6 53 6 107q0 53 -7 97t-27 89.5t-53.5 76.5t-90 51t-132.5 20q-69 0 -135 -17t-124 -50.5t-94 -93t-38 -136.5h-12q0 15 4 43q19 125 133 195.5t266 70.5q79 0 138.5 -21t93.5 -53t55 -79.5 t28 -93t7 -99.5q0 -96 -19 -187.5t-60.5 -174.5t-100.5 -145.5t-144 -99t-186 -36.5q-78 0 -136.5 20t-90 53t-46 70.5t-14.5 79.5zM70 215q0 -40 13.5 -75.5t43.5 -67t85.5 -50t131.5 -18.5q108 0 196.5 41.5t147.5 114.5t95.5 162.5t50.5 193.5q-90 8 -168 8 q-144 0 -254 -20t-173.5 -51t-103 -74t-52.5 -82t-13 -82z" />
<glyph unicode="&#x2b9;" horiz-adv-x="272" d="M113 862l301 465l12 -8l-305 -461z" />
<glyph unicode="&#x2c6;" horiz-adv-x="931" d="M317 1122l324 256h14l228 -250l-9 -8l-227 246l-323 -252z" />
<glyph unicode="&#x2c7;" horiz-adv-x="931" d="M365 1372l6 6l235 -250l314 244l4 -8l-316 -250h-8z" />
<glyph unicode="&#x2d8;" horiz-adv-x="929" d="M420 1370h10q-4 -33 2 -68t23 -69t54.5 -56t90.5 -22q52 0 97.5 22t75.5 56t49.5 69t29.5 68h10q-10 -35 -30 -71t-51.5 -72t-78.5 -59t-102 -23q-56 0 -96 23t-58 58.5t-24.5 72.5t-1.5 71z" />
<glyph unicode="&#x2d9;" horiz-adv-x="940" d="M596 1214q0 7 8 16t19 9q16 0 16 -16q0 -11 -8 -18t-15 -7q-20 0 -20 16z" />
<glyph unicode="&#x2da;" horiz-adv-x="929" d="M479 1266q0 70 46.5 121t113.5 51q55 0 84 -31.5t29 -79.5q0 -69 -45.5 -121.5t-116.5 -52.5q-51 0 -81 31t-30 82zM492 1268q0 -46 28 -74.5t72 -28.5q63 0 105 49t42 109q0 45 -26 73.5t-76 28.5q-60 0 -102.5 -47t-42.5 -110z" />
<glyph unicode="&#x2db;" horiz-adv-x="929" d="M535 -262q0 64 57 142t145 134l6 -8q-84 -56 -139 -131.5t-55 -136.5q0 -84 121 -84q69 0 147 29l2 -13q-75 -28 -155 -28q-129 0 -129 96z" />
<glyph unicode="&#x2dc;" horiz-adv-x="931" d="M358 1221q65 100 158 100q36 0 121 -45t123 -45q75 0 139 86l10 -6q-70 -92 -151 -92q-40 0 -124 45t-118 45q-84 0 -149 -95z" />
<glyph unicode="&#x2dd;" horiz-adv-x="929" d="M451 1145l254 252l10 -11l-258 -247zM610 1145l252 252l10 -11l-256 -247z" />
<glyph unicode="&#x384;" horiz-adv-x="929" d="M569 1122l203 293l14 -8l-206 -289z" />
<glyph unicode="&#x385;" horiz-adv-x="940" d="M453 1200q0 8 7 15.5t17 7.5q12 0 12 -15q0 -10 -5.5 -16t-12.5 -6q-18 0 -18 14zM545 1122l203 293l18 -8l-211 -289zM748 1200q0 8 5.5 15.5t16.5 7.5q12 0 12 -13q0 -24 -16 -24q-18 0 -18 14z" />
<glyph unicode="&#x386;" horiz-adv-x="1120" d="M-51 0l760 1378h14l285 -1378h-13l-82 389h-737l-213 -389h-14zM137 1122l203 293l14 -8l-207 -289zM184 401h727l-196 965z" />
<glyph unicode="&#x387;" horiz-adv-x="280" d="M162 737q0 12 10.5 22.5t22.5 10.5q8 0 14 -6.5t6 -15.5q0 -11 -10.5 -21t-20.5 -10q-9 0 -15.5 5.5t-6.5 14.5z" />
<glyph unicode="&#x388;" horiz-adv-x="1064" d="M-102 1122l202 293l15 -8l-207 -289zM61 0l242 1378h791l-2 -12h-779l-106 -610h743l-2 -13h-743l-129 -731h852l-2 -12h-865z" />
<glyph unicode="&#x389;" horiz-adv-x="1253" d="M-104 1122l202 293l15 -8l-207 -289zM61 0l242 1378h12l-112 -643h942l112 643h13l-242 -1378h-12l127 723h-942l-127 -723h-13z" />
<glyph unicode="&#x38a;" horiz-adv-x="380" d="M-76 1122l203 293l14 -8l-207 -289zM102 0l242 1378h12l-241 -1378h-13z" />
<glyph unicode="&#x38c;" horiz-adv-x="1341" d="M-6 1122l203 293l14 -8l-207 -289zM137 446q0 151 27 289t84 258t138.5 208.5t196.5 139t251 50.5q438 0 438 -476q0 -103 -17 -207t-50.5 -209t-90.5 -195.5t-130.5 -160.5t-177 -110.5t-224.5 -40.5q-222 0 -333.5 115.5t-111.5 338.5zM150 451q0 -226 108 -336.5 t326 -110.5q117 0 217 38.5t172.5 106t128.5 156t90 191t51 207.5t17 210q0 108 -22.5 191t-72 146.5t-133.5 96.5t-201 33q-132 0 -244 -49.5t-191.5 -136t-135.5 -204t-83 -254t-27 -285.5z" />
<glyph unicode="&#x38e;" horiz-adv-x="950" d="M-137 1122l203 293l14 -8l-207 -289zM174 1378h14l295 -798l596 798h15l-607 -813l-96 -565h-12l96 565z" />
<glyph unicode="&#x38f;" horiz-adv-x="1335" d="M-39 1122l203 293l14 -8l-207 -289zM51 0l2 12h332q-68 28 -117.5 76.5t-78.5 112t-42.5 135t-13.5 153.5q0 129 25.5 255t81.5 244.5t136.5 208t200 144t261.5 54.5q122 0 211 -40.5t139.5 -114t74 -163.5t23.5 -200q0 -91 -16 -189.5t-53.5 -204t-91.5 -196 t-137.5 -164.5t-184.5 -111h346l-2 -12h-365l2 18q102 34 186.5 106t139.5 161.5t93 194.5t54.5 202.5t16.5 187.5q0 109 -22 197.5t-71 161t-136.5 113t-208.5 40.5q-141 0 -259 -54.5t-196 -143.5t-132.5 -205.5t-79 -237.5t-24.5 -243q0 -384 256 -482l-2 -16h-348z" />
<glyph unicode="&#x390;" horiz-adv-x="337" d="M96 111l154 868h10l-154 -868q-5 -34 -4 -59.5t27.5 -37.5t83.5 -6l-2 -8q-14 -2 -37 -2q-58 0 -73 27.5t-5 85.5zM139 1200q0 8 7.5 15.5t17.5 7.5q12 0 12 -15q0 -10 -5.5 -16t-12.5 -6q-19 0 -19 14zM231 1122l203 293l19 -8l-211 -289zM434 1200q0 8 6 15.5t17 7.5 q12 0 12 -13q0 -24 -16 -24q-19 0 -19 14z" />
<glyph unicode="&#x391;" horiz-adv-x="1120" d="M-51 0l760 1378h14l285 -1378h-13l-82 389h-737l-213 -389h-14zM184 401h727l-196 965z" />
<glyph unicode="&#x392;" horiz-adv-x="1210" d="M61 0l242 1378h514q171 0 261.5 -69t90.5 -191q0 -53 -20.5 -111.5t-59.5 -114.5t-107 -97.5t-153 -53.5q69 -9 122 -39t82.5 -73t44 -91t14.5 -100q0 -62 -15.5 -121.5t-53.5 -117.5t-93.5 -101.5t-142.5 -70.5t-195 -27h-531zM76 12h518q216 0 350.5 114t134.5 312 q0 58 -17 109t-53.5 95t-101.5 69.5t-153 25.5h-551zM205 748h565q115 0 205.5 56t136 139t45.5 173q0 117 -84.5 183.5t-257.5 66.5h-502z" />
<glyph unicode="&#x393;" horiz-adv-x="987" d="M57 0l242 1378h799l-2 -12h-787l-239 -1366h-13z" />
<glyph unicode="&#x395;" horiz-adv-x="1064" d="M61 0l242 1378h791l-2 -12h-779l-106 -610h743l-2 -13h-743l-129 -731h852l-2 -12h-865z" />
<glyph unicode="&#x396;" horiz-adv-x="1019" d="M-61 0l2 12l1169 1354h-885l2 12h899l-2 -12l-1167 -1354h963l-2 -12h-979z" />
<glyph unicode="&#x397;" horiz-adv-x="1253" d="M61 0l242 1378h12l-112 -643h942l112 643h13l-242 -1378h-12l127 723h-942l-127 -723h-13z" />
<glyph unicode="&#x398;" horiz-adv-x="1331" d="M131 446q0 125 20 242.5t58.5 223t98.5 193t136 151.5t176 99.5t214 35.5q117 0 203.5 -34t138.5 -97.5t77 -149t25 -195.5q0 -103 -17 -207.5t-51.5 -209t-92 -195t-132 -160.5t-178.5 -110.5t-225 -40.5q-223 0 -337 116t-114 338zM143 451q0 -447 441 -447 q139 0 255 55.5t193.5 146.5t131.5 210.5t78 244.5t24 252q0 467 -435 467q-132 0 -245 -49.5t-193.5 -136t-137.5 -204t-84.5 -254t-27.5 -285.5zM367 719l2 12h690l-2 -12h-690z" />
<glyph unicode="&#x399;" horiz-adv-x="380" d="M102 0l242 1378h12l-241 -1378h-13z" />
<glyph unicode="&#x39a;" horiz-adv-x="1042" d="M61 0l242 1378h12l-112 -645h358l586 645h14l-592 -651l371 -727h-14l-367 721h-358l-127 -721h-13z" />
<glyph unicode="&#x39b;" horiz-adv-x="1087" d="M-51 0l743 1378h17l268 -1378h-14l-265 1368l-735 -1368h-14z" />
<glyph unicode="&#x39c;" horiz-adv-x="1583" d="M61 0l285 1378h10l387 -1145l805 1145h11l-201 -1378h-12l200 1360l-801 -1143h-8l-385 1135l-278 -1352h-13z" />
<glyph unicode="&#x39d;" horiz-adv-x="1265" d="M61 0l242 1378h12l717 -1353l238 1353h12l-242 -1378h-10l-719 1360l-237 -1360h-13z" />
<glyph unicode="&#x39e;" horiz-adv-x="1087" d="M-12 0l2 12h977l-2 -12h-977zM209 743l2 13h764l-2 -13h-764zM252 1366l2 12h874l-2 -12h-874z" />
<glyph unicode="&#x39f;" horiz-adv-x="1341" d="M137 446q0 151 27 289t84 258t138.5 208.5t196.5 139t251 50.5q438 0 438 -476q0 -103 -17 -207t-50.5 -209t-90.5 -195.5t-130.5 -160.5t-177 -110.5t-224.5 -40.5q-222 0 -333.5 115.5t-111.5 338.5zM150 451q0 -226 108 -336.5t326 -110.5q117 0 217 38.5t172.5 106 t128.5 156t90 191t51 207.5t17 210q0 108 -22.5 191t-72 146.5t-133.5 96.5t-201 33q-132 0 -244 -49.5t-191.5 -136t-135.5 -204t-83 -254t-27 -285.5z" />
<glyph unicode="&#x3a0;" horiz-adv-x="1255" d="M57 0l242 1378h977l-242 -1378h-12l240 1366h-953l-239 -1366h-13z" />
<glyph unicode="&#x3a1;" horiz-adv-x="1093" d="M61 0l242 1378h459q186 0 281.5 -95t95.5 -259q0 -59 -14.5 -118.5t-51.5 -122.5t-92.5 -110.5t-146.5 -78.5t-205 -31h-457l-98 -563h-13zM174 575h457q112 0 200.5 30t142.5 76.5t89.5 107.5t49 118.5t13.5 114.5q0 159 -91 251.5t-275 92.5h-447z" />
<glyph unicode="&#x3a3;" horiz-adv-x="1054" d="M8 0l2 12l574 725l-334 625l2 16h872l-2 -12h-862l338 -629l-573 -725h960l-2 -12h-975z" />
<glyph unicode="&#x3a4;" horiz-adv-x="1060" d="M178 1366l2 12h1020l-2 -12h-500l-239 -1366h-13l240 1366h-508z" />
<glyph unicode="&#x3a5;" horiz-adv-x="950" d="M174 1378h14l295 -798l596 798h15l-607 -813l-96 -565h-12l96 565z" />
<glyph unicode="&#x3a6;" horiz-adv-x="1423" d="M145 559q0 152 48 288t137 241t227 166.5t307 62.5l10 61h13l-10 -61q107 -1 191 -26t138 -66t89.5 -99.5t50 -122.5t14.5 -139q0 -66 -10 -133.5t-34 -141t-60 -140t-92 -126.5t-125.5 -104t-165.5 -70.5t-207 -27.5l-21 -121h-12l20 121q-132 1 -230.5 33t-159 91 t-89.5 137.5t-29 176.5zM158 561q0 -96 28.5 -172.5t87 -134t155 -89t226.5 -32.5l207 1174q-166 -1 -301.5 -62t-222 -164t-133.5 -236.5t-47 -283.5zM668 133q108 0 201.5 25.5t162 68.5t123.5 102.5t90 124.5t59 137.5t34 138.5t10 130q0 74 -14 137.5t-48.5 121t-88 98 t-135.5 65t-188 25.5z" />
<glyph unicode="&#x3a7;" horiz-adv-x="1124" d="M-37 0l625 713l-346 665h12l340 -657l575 657h15l-584 -667l371 -711h-13l-366 702l-615 -702h-14z" />
<glyph unicode="&#x3a8;" horiz-adv-x="1398" d="M211 936l78 442h12l-78 -442q-95 -536 457 -541l172 983h10l-172 -983q264 0 436.5 143.5t216.5 399.5l78 440h13l-78 -440q-46 -263 -221 -409t-449 -146l-65 -383h-11l66 383q-559 5 -465 553z" />
<glyph unicode="&#x3a9;" horiz-adv-x="1335" d="M51 0l2 12h332q-68 28 -117.5 76.5t-78.5 112t-42.5 135t-13.5 153.5q0 129 25.5 255t81.5 244.5t136.5 208t200 144t261.5 54.5q122 0 211 -40.5t139.5 -114t74 -163.5t23.5 -200q0 -91 -16 -189.5t-53.5 -204t-91.5 -196t-137.5 -164.5t-184.5 -111h346l-2 -12h-365 l2 18q102 34 186.5 106t139.5 161.5t93 194.5t54.5 202.5t16.5 187.5q0 109 -22 197.5t-71 161t-136.5 113t-208.5 40.5q-141 0 -259 -54.5t-196 -143.5t-132.5 -205.5t-79 -237.5t-24.5 -243q0 -384 256 -482l-2 -16h-348z" />
<glyph unicode="&#x3aa;" horiz-adv-x="380" d="M102 0l242 1378h12l-241 -1378h-13zM215 1591q0 7 6.5 15t16.5 8q7 0 11.5 -5.5t4.5 -11.5q0 -20 -23 -20q-16 0 -16 14zM510 1591q0 8 5.5 15.5t16.5 7.5q6 0 10.5 -5.5t4.5 -11.5q0 -10 -7 -15t-14 -5q-16 0 -16 14z" />
<glyph unicode="&#x3ab;" horiz-adv-x="950" d="M174 1378h14l295 -798l596 798h15l-607 -813l-96 -565h-12l96 565zM504 1575q0 7 6 14.5t16 7.5q7 0 12 -5t5 -11q0 -20 -23 -20q-16 0 -16 14zM799 1575q0 8 5.5 15t16.5 7q6 0 10.5 -5t4.5 -11q0 -10 -7 -15t-14 -5q-16 0 -16 14z" />
<glyph unicode="&#x3ac;" horiz-adv-x="1011" d="M88 350q0 133 32.5 248t94 202.5t158.5 138t217 50.5q152 0 241 -89t80 -255l56 336h12l-168 -981h-10l65 383q-60 -186 -174 -288.5t-262 -102.5q-167 0 -254.5 95.5t-87.5 262.5zM100 348q0 -161 83.5 -252.5t248.5 -91.5q92 0 171 42t132.5 110t92 155t56 176.5 t17.5 174.5q0 143 -77 229t-236 86q-96 0 -177 -33.5t-137.5 -92t-96 -138t-58.5 -172t-19 -193.5zM612 1122l203 293l14 -8l-206 -289z" />
<glyph unicode="&#x3ad;" horiz-adv-x="858" d="M49 227q0 -107 76 -171t244 -64q71 0 136.5 17.5t122.5 52.5t95 95.5t47 139.5h-12q-8 -76 -44 -134.5t-91 -92.5t-118.5 -51t-133.5 -17q-164 0 -238 61t-74 164q0 126 85.5 215.5t217.5 89.5h183l2 13h-187q-40 0 -73 6.5t-62.5 22t-46 44.5t-16.5 70q0 120 99.5 204.5 t279.5 84.5q128 0 202 -51.5t74 -141.5q0 -38 -10 -69h12q10 31 10 71q0 95 -78.5 149t-207.5 54q-185 0 -289 -88t-104 -215q0 -122 151 -147q-62 -14 -109.5 -44t-73.5 -64t-42.5 -75t-21.5 -71t-5 -58zM504 1122l203 293l14 -8l-207 -289z" />
<glyph unicode="&#x3ae;" horiz-adv-x="976" d="M41 0l168 979h12l-55 -313q33 92 88.5 159.5t116.5 100.5t113.5 48t99.5 15q87 0 148 -22t94.5 -58t48.5 -90.5t13.5 -112.5t-14.5 -131l-145 -872h-12l145 872q13 70 14 126t-13 109.5t-46 88.5t-91.5 56.5t-143.5 21.5q-39 0 -82.5 -9.5t-100.5 -40t-105 -77.5 t-90 -130.5t-61 -191.5l-92 -528h-10zM535 1122l202 293l15 -8l-207 -289z" />
<glyph unicode="&#x3af;" horiz-adv-x="337" d="M96 111l154 868h10l-154 -868q-5 -34 -4 -59.5t27.5 -37.5t83.5 -6l-2 -8q-14 -2 -37 -2q-58 0 -73 27.5t-5 85.5zM268 1122l203 293l14 -8l-206 -289z" />
<glyph unicode="&#x3b0;" horiz-adv-x="1003" d="M104 393l105 586h12l-104 -586q-34 -186 45.5 -287.5t259.5 -101.5q365 0 434 385l107 590h12l-107 -590q-72 -397 -448 -397q-185 0 -267.5 104.5t-48.5 296.5zM475 1200q0 8 7.5 15.5t17.5 7.5q12 0 12 -15q0 -10 -5.5 -16t-12.5 -6q-19 0 -19 14zM567 1122l203 293 l18 -8l-210 -289zM770 1200q0 8 6 15.5t17 7.5q12 0 12 -13q0 -24 -17 -24q-18 0 -18 14z" />
<glyph unicode="&#x3b1;" horiz-adv-x="1011" d="M88 350q0 133 32.5 248t94 202.5t158.5 138t217 50.5q152 0 241 -89t80 -255l56 336h12l-168 -981h-10l65 383q-60 -186 -174 -288.5t-262 -102.5q-167 0 -254.5 95.5t-87.5 262.5zM100 348q0 -161 83.5 -252.5t248.5 -91.5q92 0 171 42t132.5 110t92 155t56 176.5 t17.5 174.5q0 143 -77 229t-236 86q-96 0 -177 -33.5t-137.5 -92t-96 -138t-58.5 -172t-19 -193.5z" />
<glyph unicode="&#x3b2;" horiz-adv-x="1009" d="M-18 -305l239 1362q34 193 139 303t291 110q149 0 223 -70t74 -190q0 -40 -15 -89.5t-44.5 -101t-82 -91t-118.5 -51.5q105 -18 166 -106t61 -212q0 -81 -18.5 -161t-58 -154t-95.5 -130.5t-137 -90t-176 -33.5q-152 0 -239 85t-89 234l-108 -614h-12zM115 319 q0 -149 80.5 -233t236.5 -84q92 0 171 34t133 89.5t92.5 128t56.5 148.5t18 151q0 136 -70.5 225.5t-195.5 89.5h-148l3 13h114q68 0 123 20.5t89 54t58.5 71t36 76.5t16.5 64.5t5 40.5q0 114 -69 182t-216 68q-179 0 -281 -107.5t-135 -293.5l-108 -625q-10 -65 -10 -113z " />
<glyph unicode="&#x3b3;" horiz-adv-x="804" d="M106 985q10 2 21 2q25 1 36 -13.5t17 -53.5l90 -480l72 -387h2l209 375l307 551h14l-528 -950l-80 -449h-12l80 449l-158 843q-13 74 -22 87.5t-45 13.5z" />
<glyph unicode="&#x3b4;" horiz-adv-x="983" d="M82 313q0 96 19 189.5t61 182t102.5 155t151.5 107t200 40.5q120 0 211 -39q-60 118 -179 236.5t-318 269.5l2 12h667l-2 -12h-649q151 -112 251 -203t172 -187t104 -194t32 -211q0 -108 -19.5 -206.5t-60.5 -182.5t-100 -145t-141 -96t-180 -35q-324 0 -324 319zM96 317 q0 -152 74.5 -231.5t237.5 -79.5q118 0 212 52t152.5 142t89.5 205.5t31 247.5q0 156 -55 277q-95 45 -224 45q-123 0 -223.5 -56t-163.5 -149.5t-97 -210t-34 -242.5z" />
<glyph unicode="&#x3b5;" horiz-adv-x="858" d="M49 227q0 28 5 58t21.5 71t42.5 75t73.5 64t109.5 44q-151 25 -151 147q0 127 104 215t289 88q129 0 207.5 -54t78.5 -149q0 -40 -10 -71h-12q10 31 10 69q0 90 -74 141.5t-202 51.5q-180 0 -279.5 -84.5t-99.5 -204.5q0 -41 16.5 -70t46 -44.5t62.5 -22t73 -6.5h187 l-2 -13h-183q-132 0 -217.5 -89.5t-85.5 -215.5q0 -103 74 -164t238 -61q70 0 133.5 17t118.5 51t91 92.5t44 134.5h12q-9 -79 -47 -139.5t-95 -95.5t-122.5 -52.5t-136.5 -17.5q-168 0 -244 64t-76 171z" />
<glyph unicode="&#x3b6;" horiz-adv-x="765" d="M86 367q0 385 909 1079h-661l2 12h680l-2 -12q-140 -107 -262.5 -210.5t-245.5 -223.5t-210 -228t-141.5 -217.5t-54.5 -197.5q0 -58 20.5 -106t60.5 -86t86 -66t110 -58q151 -69 208.5 -111t57.5 -83t-38 -94t-120 -140l-10 10q74 78 113 130.5t39 89.5q0 39 -47.5 74.5 t-208.5 111.5q-50 24 -84 42.5t-75.5 49t-66.5 62t-42 76.5t-17 96z" />
<glyph unicode="&#x3b7;" horiz-adv-x="976" d="M41 0l168 979h12l-55 -313q33 92 88.5 159.5t116.5 100.5t113.5 48t99.5 15q87 0 148 -22t94.5 -58t48.5 -90.5t13.5 -112.5t-14.5 -131l-145 -872h-12l145 872q13 70 14 126t-13 109.5t-46 88.5t-91.5 56.5t-143.5 21.5q-39 0 -82.5 -9.5t-100.5 -40t-105 -77.5 t-90 -130.5t-61 -191.5l-92 -528h-10z" />
<glyph unicode="&#x3b8;" horiz-adv-x="1019" d="M109 399q0 137 20.5 281t66.5 287.5t111.5 255.5t164.5 182t216 70q88 0 151 -29.5t98 -84.5t51 -124.5t16 -159.5q0 -85 -8 -178t-27.5 -199.5t-49 -205.5t-76 -191t-104 -160t-138 -108.5t-173.5 -40.5q-88 0 -151 29t-99 84t-52.5 126.5t-16.5 165.5zM121 401 q0 -91 16 -160.5t51 -123.5t96 -82.5t146 -28.5q95 0 177 46.5t140 121.5t103.5 177t72.5 206t42 215h-805q-39 -183 -39 -371zM162 784h805q22 138 22 287q0 89 -15 157t-48.5 122t-94 83t-145.5 29q-129 0 -236.5 -90t-178 -240t-109.5 -348z" />
<glyph unicode="&#x3b9;" horiz-adv-x="337" d="M96 111l154 868h10l-154 -868q-5 -34 -4 -59.5t27.5 -37.5t83.5 -6l-2 -8q-14 -2 -37 -2q-58 0 -73 27.5t-5 85.5z" />
<glyph unicode="&#x3ba;" horiz-adv-x="819" d="M37 0l172 979h12l-82 -465h316l417 465h13l-422 -471l258 -508h-12l-254 504h-318l-88 -504h-12z" />
<glyph unicode="&#x3bb;" horiz-adv-x="847" d="M-51 0l530 954h41l-57 340q-16 96 -43 129t-98 33h-76l2 12h76q78 0 106.5 -36.5t44.5 -133.5l209 -1212q8 -46 14.5 -60t24.5 -14q15 0 27 4v-12q-16 -4 -29 -4q-25 0 -33 15.5t-16 66.5l-90 516l-60 344h-37l-192 -348l-330 -594h-14z" />
<glyph unicode="&#x3bd;" horiz-adv-x="837" d="M90 979h12l209 -965l338 527q80 127 116.5 221.5t51.5 216.5h12q-20 -140 -52.5 -225t-114.5 -215l-347 -539h-12z" />
<glyph unicode="&#x3be;" horiz-adv-x="800" d="M86 371q0 44 12 96.5t42.5 114.5t75 115.5t118.5 96.5t164 60q-71 13 -121 39t-76 61t-37.5 71t-11.5 77q0 71 27 136t78 118t134 85t185 32q140 0 218.5 -53t78.5 -148q0 -30 -10 -72h-13q11 42 11 68q0 92 -72 142t-215 50q-99 0 -178.5 -30t-129 -80.5t-76 -114.5 t-26.5 -135q0 -54 19.5 -96.5t51 -69.5t75.5 -44.5t89 -24.5t95 -7h166l-2 -12h-197q-87 0 -164 -31t-131 -81t-93 -113t-58 -128.5t-19 -125.5q0 -121 99.5 -197.5t314.5 -149.5q97 -32 132.5 -57.5t35.5 -54.5q0 -21 -30.5 -75t-98.5 -136l-10 6q46 55 76.5 102.5 t40.5 69.5t10 31q0 27 -34.5 50t-127.5 54q-107 37 -177.5 69t-128.5 74.5t-85 96t-27 121.5z" />
<glyph unicode="&#x3bf;" horiz-adv-x="993" d="M86 311q0 139 32.5 261t94.5 215.5t159 147.5t218 54q165 0 242 -91.5t77 -252.5t-40.5 -288.5t-110 -205.5t-156.5 -118.5t-184 -40.5q-169 0 -250.5 79t-81.5 240zM98 313q0 -156 77.5 -232.5t244.5 -76.5q94 0 178.5 39.5t152 115.5t107 201t39.5 283q0 157 -74 245.5 t-235 88.5q-118 0 -212.5 -53.5t-154.5 -145.5t-91.5 -211t-31.5 -254z" />
<glyph unicode="&#x3c0;" horiz-adv-x="1009" d="M37 0l172 979h772l-172 -979h-12l170 967h-748l-170 -967h-12z" />
<glyph unicode="&#x3c1;" horiz-adv-x="1013" d="M-39 -420l168 946q17 99 55 181.5t96.5 146.5t143.5 99.5t190 35.5q154 0 236 -90t82 -248q0 -135 -30.5 -252t-90.5 -209t-157.5 -145t-221.5 -53q-151 0 -238 81t-88 234h-4l-129 -727h-12zM117 324q0 -162 87 -241t230 -79q122 0 217 53t152.5 143.5t87 203.5 t29.5 241q0 157 -78.5 244.5t-229.5 87.5q-84 0 -157 -25t-137.5 -78.5t-111.5 -147t-69 -220.5q-20 -120 -20 -182z" />
<glyph unicode="&#x3c2;" horiz-adv-x="866" d="M88 389q0 122 34 229.5t97.5 190t162 130.5t218.5 48q52 0 100.5 -9.5t94.5 -30t74 -60.5t28 -94q0 -33 -12 -76h-13q17 70 4.5 119t-54.5 80t-98 45t-126 14q-119 0 -216 -49t-157.5 -131.5t-92.5 -185t-32 -214.5q0 -65 16.5 -113t56 -88t89 -71.5t131.5 -71.5 q148 -75 179 -98q38 -28 38 -55q0 -15 -11 -37.5t-36 -56.5t-44 -58t-56 -68l-10 9q143 171 143 209q0 27 -40.5 53t-152.5 82q-11 5 -16 8q-165 79 -232 153t-67 197z" />
<glyph unicode="&#x3c3;" horiz-adv-x="1030" d="M86 313q0 186 58 335.5t175 240t275 90.5h448l-2 -12h-342q213 -61 213 -330q0 -159 -41 -285t-110.5 -203t-156 -117t-183.5 -40q-172 0 -253 79t-81 242zM98 313q0 -159 78.5 -234t245.5 -75q94 0 178 39.5t151.5 114.5t107.5 198t40 277q0 334 -307 334 q-153 0 -266.5 -88t-170.5 -235t-57 -331z" />
<glyph unicode="&#x3c4;" horiz-adv-x="679" d="M104 967l2 12h609l-2 -12h-328l-123 -691q-27 -155 22 -213.5t183 -58.5q39 0 94 6l-2 -12q-55 -6 -94 -6q-140 0 -191.5 61.5t-23.5 222.5l123 691h-269z" />
<glyph unicode="&#x3c5;" horiz-adv-x="1003" d="M104 393l105 586h12l-104 -586q-34 -186 45.5 -287.5t259.5 -101.5q365 0 434 385l107 590h12l-107 -590q-72 -397 -448 -397q-185 0 -267.5 104.5t-48.5 296.5z" />
<glyph unicode="&#x3c6;" horiz-adv-x="1191" d="M90 367q0 123 36.5 236.5t113 206t182.5 134.5l2 -12q-154 -62 -238 -220t-84 -343q0 -75 19.5 -137t63 -114.5t122.5 -83t189 -32.5l172 981h30q410 0 410 -356q0 -84 -16.5 -166.5t-59.5 -169t-108.5 -151.5t-173.5 -106.5t-244 -41.5l-74 -412h-12l74 412 q-110 2 -191 33t-126 84.5t-66 117t-21 140.5zM508 2q132 0 237 40.5t169.5 104.5t107.5 148.5t59.5 165t16.5 162.5q0 348 -398 348h-22z" />
<glyph unicode="&#x3c7;" horiz-adv-x="784" d="M-68 0l449 502l-260 477h14l254 -467l418 467h14l-426 -477l279 -502h-15l-272 492l-438 -492h-17z" />
<glyph unicode="&#x3c8;" horiz-adv-x="1103" d="M102 401l103 578h12l-102 -578q-37 -210 53.5 -303.5t290.5 -95.5l172 977h12l-172 -977q67 1 128.5 14t122 43t108 75t84 115t51.5 157l102 573h12l-102 -573q-15 -90 -52 -161.5t-86 -118t-111 -78t-126 -44.5t-133 -14l-74 -410h-12l74 410q-207 2 -300 98t-55 313z " />
<glyph unicode="&#x3c9;" horiz-adv-x="1511" d="M82 289q0 144 30 267.5t89 221.5t157 154.5t224 56.5l-2 -12q-98 0 -179 -35.5t-137.5 -98.5t-95 -150t-56.5 -188.5t-18 -215.5q0 -64 13 -112.5t42.5 -88t83.5 -60t132 -20.5q133 0 233.5 87.5t122.5 209.5l57 326h13l-62 -355q-4 -32 -4 -45q0 -101 75.5 -162 t188.5 -61q102 0 181 46t124 114t73.5 157.5t38 164.5t9.5 147q0 340 -303 340l2 12q313 -3 313 -352q0 -51 -4.5 -103t-17.5 -117t-33 -122.5t-55 -113t-79.5 -96t-109.5 -65t-143 -24.5q-116 0 -194 66.5t-78 166.5q-48 -105 -142 -169t-209 -64q-155 0 -217.5 76.5 t-62.5 216.5z" />
<glyph unicode="&#x3ca;" horiz-adv-x="337" d="M96 111l154 868h10l-154 -868q-5 -34 -4 -59.5t27.5 -37.5t83.5 -6l-2 -8q-14 -2 -37 -2q-58 0 -73 27.5t-5 85.5zM123 1200q0 8 7 15.5t17 7.5q6 0 9.5 -5t3.5 -10q0 -10 -6 -16t-13 -6q-18 0 -18 14zM418 1200q0 7 6.5 15t17.5 8t11 -13q0 -24 -17 -24q-18 0 -18 14z " />
<glyph unicode="&#x3cb;" horiz-adv-x="1003" d="M104 393l105 586h12l-104 -586q-34 -186 45.5 -287.5t259.5 -101.5q365 0 434 385l107 590h12l-107 -590q-72 -397 -448 -397q-185 0 -267.5 104.5t-48.5 296.5zM463 1200q0 8 7 15.5t17 7.5q6 0 9.5 -5t3.5 -10q0 -10 -6 -16t-13 -6q-18 0 -18 14zM758 1200q0 7 6.5 15 t17.5 8t11 -13q0 -24 -17 -24q-18 0 -18 14z" />
<glyph unicode="&#x3cc;" horiz-adv-x="993" d="M86 311q0 139 32.5 261t94.5 215.5t159 147.5t218 54q165 0 242 -91.5t77 -252.5t-40.5 -288.5t-110 -205.5t-156.5 -118.5t-184 -40.5q-169 0 -250.5 79t-81.5 240zM98 313q0 -156 77.5 -232.5t244.5 -76.5q94 0 178.5 39.5t152 115.5t107 201t39.5 283q0 157 -74 245.5 t-235 88.5q-118 0 -212.5 -53.5t-154.5 -145.5t-91.5 -211t-31.5 -254zM590 1122l203 293l14 -8l-207 -289z" />
<glyph unicode="&#x3cd;" horiz-adv-x="1003" d="M104 393l105 586h12l-104 -586q-34 -186 45.5 -287.5t259.5 -101.5q365 0 434 385l107 590h12l-107 -590q-72 -397 -448 -397q-185 0 -267.5 104.5t-48.5 296.5zM582 1122l202 293l15 -8l-207 -289z" />
<glyph unicode="&#x3ce;" horiz-adv-x="1511" d="M82 289q0 -140 62.5 -216.5t217.5 -76.5q115 0 209 64t142 169q0 -100 78 -166.5t194 -66.5q78 0 143 24.5t109.5 65t79.5 96t55 113t33 122.5t17.5 117t4.5 103q0 349 -313 352l-2 -12q303 0 303 -340q0 -72 -9.5 -147t-38 -164.5t-73.5 -157.5t-124 -114t-181 -46 q-113 0 -188.5 61t-75.5 162q0 13 4 45l62 355h-13l-57 -326q-22 -122 -122.5 -209.5t-233.5 -87.5q-78 0 -132 20.5t-83.5 60t-42.5 88t-13 112.5q0 114 18 215.5t56.5 188.5t95 150t137.5 98.5t179 35.5l2 12q-126 0 -224 -56.5t-157 -154.5t-89 -221.5t-30 -267.5z M836 1122l202 293l15 -8l-207 -289z" />
<glyph unicode="&#x3e0;" horiz-adv-x="1230" d="M215 612l727 377q-201 265 -629 328l2 12q392 -59 593.5 -282t201.5 -566q0 -292 -106 -561l-11 4q105 277 105 553q0 63 -11 156q-204 -109 -741 -385l-2 12q551 284 741 385q-30 185 -135 334l-733 -379z" />
<glyph unicode="&#x3e1;" horiz-adv-x="1050" d="M115 356l635 351q-172 252 -541 309l2 12q225 -34 379.5 -142.5t228.5 -270.5t74 -371q0 -274 -100 -539l-15 4q101 265 101 533q0 35 -9 127l-643 -357l-6 13l647 358q-21 179 -112 313l-635 -352z" />
<glyph unicode="&#x401;" horiz-adv-x="1064" d="M61 0l242 1378h791l-2 -12h-779l-106 -610h743l-2 -13h-743l-129 -731h852l-2 -12h-865zM571 1591q0 7 6.5 15t16.5 8q7 0 11.5 -5.5t4.5 -11.5q0 -20 -22 -20q-17 0 -17 14zM866 1591q0 8 6 15.5t17 7.5q6 0 10 -5.5t4 -11.5q0 -10 -6.5 -15t-13.5 -5q-17 0 -17 14z" />
<glyph unicode="&#x402;" horiz-adv-x="1476" d="M174 1366l2 12h1147l-2 -12h-680l-111 -627q83 89 211.5 143t243.5 54q87 0 154 -23t107.5 -59.5t66.5 -88.5t35.5 -104.5t9.5 -113.5q0 -81 -13.5 -162.5t-48.5 -169t-88.5 -154.5t-141.5 -110t-200 -43q-6 0 -16.5 1t-15.5 1l2 12q119 -7 212.5 34.5t148 108.5 t89.5 157t47.5 169.5t12.5 157.5q0 59 -9 110t-34 101t-64.5 85t-105 57t-150.5 22q-116 0 -239.5 -53.5t-215.5 -147.5l-127 -723h-12l240 1366h-455z" />
<glyph unicode="&#x403;" horiz-adv-x="987" d="M57 0l242 1378h799l-2 -12h-787l-239 -1366h-13zM629 1536l276 217l10 -12l-280 -213z" />
<glyph unicode="&#x404;" horiz-adv-x="1206" d="M141 446q0 205 44.5 376.5t130 298.5t219 198.5t303.5 71.5q96 0 175 -27.5t131 -89.5t52 -150q0 -45 -16 -104h-13q17 63 17 100q0 85 -51 145t-127.5 86.5t-169.5 26.5q-268 0 -435.5 -173.5t-222.5 -471.5h705l-2 -12h-705q-22 -118 -22 -275q0 -216 97 -329t327 -113 q121 0 216.5 31t156 85t94.5 123t40 150h13q-14 -175 -148 -288t-375 -113q-121 0 -206.5 31t-134.5 92t-71 141.5t-22 189.5z" />
<glyph unicode="&#x405;" horiz-adv-x="1189" d="M87.5 225q-19.5 80 8.5 191h13q-30 -100 -12.5 -177.5t74 -130t142 -79.5t191.5 -27q148 0 261.5 37t178.5 99t97 135.5t32 154.5q0 125 -96.5 198.5t-290.5 114.5q-94 20 -150.5 35t-116.5 38.5t-91.5 49.5t-51.5 65.5t-20 90.5q0 76 32 142t94 117.5t161 81.5t223 30 q65 0 125.5 -13t115.5 -40t90.5 -69.5t50 -101t-6.5 -133.5h-11q22 86 -0.5 154.5t-78.5 109t-129 61.5t-156 21q-239 0 -368.5 -102t-129.5 -256q0 -29 7 -54t16.5 -44.5t30.5 -37.5t38.5 -31t50.5 -26t57 -21.5t68 -19.5t72.5 -17.5t81.5 -18.5q93 -20 162 -46.5 t123 -64.5t82 -91.5t28 -121.5q0 -65 -20 -126t-65 -118t-111 -99t-165.5 -67.5t-221.5 -25.5q-101 0 -185 25t-147 76.5t-82.5 131.5z" />
<glyph unicode="&#x406;" horiz-adv-x="380" d="M102 0l242 1378h12l-241 -1378h-13z" />
<glyph unicode="&#x407;" horiz-adv-x="380" d="M102 0l242 1378h12l-241 -1378h-13zM213 1567q0 8 7.5 15t17.5 7q12 0 12 -14q0 -10 -6 -16.5t-13 -6.5q-18 0 -18 15zM508 1567q0 7 6.5 14.5t17.5 7.5t11 -12q0 -11 -5 -18t-12 -7q-18 0 -18 15z" />
<glyph unicode="&#x408;" horiz-adv-x="1067" d="M9.5 260.5q-2.5 41.5 10.5 81.5h13q-13 -40 -11 -80t12.5 -76.5t39.5 -68.5t69.5 -55t102.5 -36.5t139 -13.5q112 0 201 34t149 96.5t97.5 142.5t54.5 178l164 915h12l-164 -915q-17 -102 -55 -183.5t-99.5 -145.5t-153.5 -99t-208 -35q-79 0 -143 14t-105.5 38.5 t-71.5 57.5t-40.5 71t-13 79.5z" />
<glyph unicode="&#x409;" horiz-adv-x="1925" d="M-63 -8l2 10q82 0 144.5 33.5t105 96.5t69 129t49.5 157l244 960h569l-106 -602h444q104 0 179 -24t116 -67.5t59.5 -94.5t18.5 -113q0 -213 -139 -345t-379 -132h-447l240 1366h-545l-242 -948q-17 -68 -35.5 -122t-50 -113.5t-69 -99t-92.5 -65.5t-121 -26h-14zM881 12 h434q123 0 221 37.5t158.5 102t92.5 146.5t32 175q0 61 -17.5 110.5t-57 91.5t-113 65.5t-175.5 23.5h-444z" />
<glyph unicode="&#x40a;" horiz-adv-x="1863" d="M57 0l242 1378h12l-110 -633h743l111 633h12l-111 -633h449q189 0 281 -76.5t92 -207.5q0 -211 -138 -336t-372 -125h-455l129 733h-743l-129 -733h-13zM827 12h443q228 0 361.5 121t133.5 326q0 126 -89.5 200t-272.5 74h-449z" />
<glyph unicode="&#x40b;" horiz-adv-x="1466" d="M174 1366l2 12h1110l-2 -12h-655l-107 -604q95 84 242.5 134t279.5 50q88 0 152.5 -22.5t100 -61.5t55 -92t18 -114.5t-11.5 -127.5l-92 -528h-13l93 528q9 64 11 123t-17 111t-53 90t-96.5 60t-148.5 22q-134 0 -279.5 -52t-242.5 -137l-131 -745h-12l239 1366h-442z " />
<glyph unicode="&#x40c;" horiz-adv-x="1042" d="M61 0l242 1378h12l-112 -645h358l586 645h14l-592 -651l371 -727h-14l-367 721h-358l-127 -721h-13zM612 1518l277 217l10 -13l-281 -213z" />
<glyph unicode="&#x40e;" horiz-adv-x="978" d="M6 -12l4 12h56q63 0 112.5 16t90 52t70.5 75.5t69 104.5l92 151h-41l-260 979h12l258 -966h41l596 966h14l-700 -1134q-27 -43 -43 -67t-42.5 -59t-50.5 -54t-56.5 -39t-72 -28.5t-85.5 -8.5h-64zM481.5 1625.5q-0.5 29.5 1.5 55.5h13q-5 -33 0.5 -67.5t22.5 -68.5 t54.5 -55.5t90.5 -21.5q52 0 97.5 22t75.5 56.5t49 68.5t29 66h13q-10 -35 -30.5 -71t-52.5 -72.5t-80 -59t-103 -22.5q-45 0 -80.5 15.5t-55 39.5t-32 54.5t-13 60z" />
<glyph unicode="&#x40f;" horiz-adv-x="1249" d="M57 0l242 1378h12l-239 -1366h946l239 1366h13l-242 -1378h-471l-63 -356h-11l64 356h-490z" />
<glyph unicode="&#x410;" horiz-adv-x="1120" d="M-51 0l760 1378h14l285 -1378h-13l-82 389h-737l-213 -389h-14zM184 401h727l-196 965z" />
<glyph unicode="&#x411;" horiz-adv-x="1148" d="M57 0l242 1378h793l-2 -12h-781l-104 -590h469q104 0 179 -24t116 -67.5t59.5 -94.5t18.5 -113q0 -213 -139 -345t-380 -132h-471zM72 12h458q123 0 221 37.5t158.5 102t92.5 146.5t32 175q0 61 -17.5 110.5t-57 91.5t-112.5 65.5t-175 23.5h-469z" />
<glyph unicode="&#x412;" horiz-adv-x="1210" d="M61 0l242 1378h514q171 0 261.5 -69t90.5 -191q0 -53 -20.5 -111.5t-59.5 -114.5t-107 -97.5t-153 -53.5q69 -9 122 -39t82.5 -73t44 -91t14.5 -100q0 -62 -15.5 -121.5t-53.5 -117.5t-93.5 -101.5t-142.5 -70.5t-195 -27h-531zM76 12h518q216 0 350.5 114t134.5 312 q0 58 -17 109t-53.5 95t-101.5 69.5t-153 25.5h-551zM205 748h565q115 0 205.5 56t136 139t45.5 173q0 117 -84.5 183.5t-257.5 66.5h-502z" />
<glyph unicode="&#x413;" horiz-adv-x="987" d="M57 0l242 1378h799l-2 -12h-787l-239 -1366h-13z" />
<glyph unicode="&#x414;" horiz-adv-x="1310" d="M-117 -328l60 340h108q102 158 185 363.5t163 523.5l121 479h772l-239 -1366h118l-61 -340h-12l59 328h-1206l-57 -328h-11zM66 12h974l238 1354h-750l-116 -467q-79 -310 -163.5 -520t-182.5 -367z" />
<glyph unicode="&#x415;" horiz-adv-x="1064" d="M61 0l242 1378h791l-2 -12h-779l-106 -610h743l-2 -13h-743l-129 -731h852l-2 -12h-865z" />
<glyph unicode="&#x416;" horiz-adv-x="1642" d="M-59 0l630 727l-370 651h14l367 -645h282l113 645h10l-113 -645h281l594 645h14l-600 -651l377 -727h-14l-373 721h-281l-127 -721h-10l127 721h-280l-625 -721h-16z" />
<glyph unicode="&#x417;" horiz-adv-x="1138" d="M53 299q0 42 13 96h12q-12 -49 -12 -92q0 -133 105.5 -215t301.5 -82q131 0 234.5 38t166 101.5t95 140.5t32.5 160q0 39 -8.5 75.5t-29.5 73.5t-52.5 63.5t-83 43.5t-116.5 17h-197l2 12h178q176 0 286 97.5t110 261.5q0 121 -94.5 202.5t-272.5 81.5 q-65 0 -128.5 -11.5t-126 -39t-111 -68t-80 -102t-35.5 -137.5h-13q5 97 53 171t122 116t155.5 62.5t165.5 20.5q179 0 279 -83.5t100 -212.5q0 -148 -91 -245t-229 -118q111 -20 170.5 -96.5t59.5 -186.5q0 -85 -33.5 -164t-98 -143.5t-171 -103.5t-240.5 -39 q-200 0 -309 84.5t-109 220.5z" />
<glyph unicode="&#x418;" horiz-adv-x="1263" d="M57 0l242 1378h12l-239 -1358l1200 1358h12l-242 -1378h-12l240 1360l-1200 -1360h-13z" />
<glyph unicode="&#x419;" horiz-adv-x="1263" d="M57 0h13l1200 1360l-240 -1360h12l242 1378h-12l-1200 -1358l239 1358h-12zM621 1706h10q-4 -33 2 -68t23 -69t54.5 -56t90.5 -22q52 0 97.5 22t75.5 56t49.5 69t29.5 68h10q-10 -35 -30 -71t-51.5 -72t-78.5 -59t-102 -23q-56 0 -96 23t-58 58.5t-24.5 72.5t-1.5 71z " />
<glyph unicode="&#x41a;" horiz-adv-x="1042" d="M61 0l242 1378h12l-112 -645h358l586 645h14l-592 -651l371 -727h-14l-367 721h-358l-127 -721h-13z" />
<glyph unicode="&#x41b;" horiz-adv-x="1212" d="M-68 -8l2 12q65 0 119.5 23t92 60t68.5 93t51 111.5t38 126.5l244 960h686l-242 -1378h-12l240 1366h-662l-242 -948q-17 -69 -35.5 -122.5t-49.5 -113.5t-68.5 -99t-92.5 -65t-122 -26h-15z" />
<glyph unicode="&#x41c;" horiz-adv-x="1583" d="M61 0l285 1378h10l387 -1145l805 1145h11l-201 -1378h-12l200 1360l-801 -1143h-8l-385 1135l-278 -1352h-13z" />
<glyph unicode="&#x41d;" horiz-adv-x="1253" d="M61 0l242 1378h12l-112 -643h942l112 643h13l-242 -1378h-12l127 723h-942l-127 -723h-13z" />
<glyph unicode="&#x41e;" horiz-adv-x="1341" d="M137 446q0 151 27 289t84 258t138.5 208.5t196.5 139t251 50.5q438 0 438 -476q0 -103 -17 -207t-50.5 -209t-90.5 -195.5t-130.5 -160.5t-177 -110.5t-224.5 -40.5q-222 0 -333.5 115.5t-111.5 338.5zM150 451q0 -226 108 -336.5t326 -110.5q117 0 217 38.5t172.5 106 t128.5 156t90 191t51 207.5t17 210q0 108 -22.5 191t-72 146.5t-133.5 96.5t-201 33q-132 0 -244 -49.5t-191.5 -136t-135.5 -204t-83 -254t-27 -285.5z" />
<glyph unicode="&#x41f;" horiz-adv-x="1294" d="M57 0l242 1378h977l-242 -1378h-12l240 1366h-953l-239 -1366h-13z" />
<glyph unicode="&#x420;" horiz-adv-x="1093" d="M61 0l242 1378h459q186 0 281.5 -95t95.5 -259q0 -59 -14.5 -118.5t-51.5 -122.5t-92.5 -110.5t-146.5 -78.5t-205 -31h-457l-98 -563h-13zM174 575h457q112 0 200.5 30t142.5 76.5t89.5 107.5t49 118.5t13.5 114.5q0 159 -91 251.5t-275 92.5h-447z" />
<glyph unicode="&#x421;" horiz-adv-x="1206" d="M141 446q0 205 44.5 376.5t130 298.5t219 198.5t303.5 71.5q96 0 175 -27.5t131 -89.5t52 -150q0 -45 -16 -104h-13q17 63 17 100q0 85 -51 145t-127.5 86.5t-169.5 26.5q-167 0 -298 -70.5t-214.5 -196.5t-126.5 -294.5t-43 -370.5q0 -216 97 -329t327 -113 q121 0 216.5 31t156 85t94.5 123t40 150h13q-14 -175 -148 -288t-375 -113q-121 0 -206.5 31t-134.5 92t-71 141.5t-22 189.5z" />
<glyph unicode="&#x422;" horiz-adv-x="1060" d="M178 1366l2 12h1020l-2 -12h-500l-239 -1366h-13l240 1366h-508z" />
<glyph unicode="&#x423;" horiz-adv-x="978" d="M6 -12l4 12h56q63 0 112.5 16t90 52t70.5 75.5t69 104.5l92 151h-41l-260 979h12l258 -966h41l596 966h14l-700 -1134q-27 -43 -43 -67t-42.5 -59t-50.5 -54t-56.5 -39t-72 -28.5t-85.5 -8.5h-64z" />
<glyph unicode="&#x424;" horiz-adv-x="1423" d="M145 559q0 152 48 288t137 241t227 166.5t307 62.5l10 61h13l-10 -61q107 -1 191 -26t138 -66t89.5 -99.5t50 -122.5t14.5 -139q0 -66 -10 -133.5t-34 -141t-60 -140t-92 -126.5t-125.5 -104t-165.5 -70.5t-207 -27.5l-21 -121h-12l20 121q-132 1 -230.5 33t-159 91 t-89.5 137.5t-29 176.5zM158 561q0 -96 28.5 -172.5t87 -134t155 -89t226.5 -32.5l207 1174q-166 -1 -301.5 -62t-222 -164t-133.5 -236.5t-47 -283.5zM668 133q108 0 201.5 25.5t162 68.5t123.5 102.5t90 124.5t59 137.5t34 138.5t10 130q0 74 -14 137.5t-48.5 121t-88 98 t-135.5 65t-188 25.5z" />
<glyph unicode="&#x425;" horiz-adv-x="1124" d="M-37 0l625 713l-346 665h12l340 -657l575 657h15l-584 -667l371 -711h-13l-366 702l-615 -702h-14z" />
<glyph unicode="&#x426;" horiz-adv-x="1290" d="M57 0l242 1378h12l-239 -1366h942l239 1366h13l-240 -1366h117l-60 -334h-12l57 322h-1071z" />
<glyph unicode="&#x427;" horiz-adv-x="1150" d="M213 1006l66 374h12l-66 -374q-73 -414 377 -414q195 0 426 53l129 735h12l-241 -1380h-13l111 633q-228 -53 -426 -53q-463 0 -387 426z" />
<glyph unicode="&#x428;" horiz-adv-x="1867" d="M57 0l242 1378h12l-239 -1366h778l240 1366h12l-240 -1366h774l240 1366h12l-241 -1378h-1590z" />
<glyph unicode="&#x429;" horiz-adv-x="1900" d="M57 0l242 1378h12l-239 -1366h778l240 1366h12l-240 -1366h774l240 1366h12l-239 -1366h114l-59 -334h-12l57 322h-1692z" />
<glyph unicode="&#x42a;" horiz-adv-x="1572" d="M174 1366l2 12h565l-106 -602h469q104 0 179 -24t116 -67.5t59.5 -94.5t18.5 -113q0 -213 -139 -345t-380 -132h-471l240 1366h-553zM502 12h459q123 0 220.5 37.5t158.5 102t92.5 146.5t31.5 175q0 61 -17.5 110.5t-57 91.5t-112.5 65.5t-175 23.5h-469z" />
<glyph unicode="&#x42b;" horiz-adv-x="1400" d="M57 0l242 1378h12l-106 -602h469q104 0 179 -24t116 -67.5t59.5 -94.5t18.5 -113q0 -213 -139 -345t-380 -132h-471zM72 12h458q123 0 221 37.5t158.5 102t92.5 146.5t32 175q0 61 -17.5 110.5t-57 91.5t-112.5 65.5t-175 23.5h-469zM1167 0l242 1378h12l-241 -1378h-13z " />
<glyph unicode="&#x42c;" horiz-adv-x="1142" d="M57 0l242 1378h12l-106 -602h469q104 0 179 -24t116 -67.5t59.5 -94.5t18.5 -113q0 -213 -139 -345t-380 -132h-471zM72 12h458q123 0 221 37.5t158.5 102t92.5 146.5t32 175q0 61 -17.5 110.5t-57 91.5t-112.5 65.5t-175 23.5h-469z" />
<glyph unicode="&#x42d;" horiz-adv-x="1189" d="M43 287q0 59 14 114h13q-15 -59 -15 -110q0 -131 96 -209t298 -78q541 0 653 711h-715l2 12h715q12 83 12 158q0 230 -117 362.5t-333 132.5q-78 0 -152 -22t-139.5 -64.5t-111 -114t-58.5 -163.5h-12q13 95 60.5 169.5t115 118.5t143.5 66.5t156 22.5 q221 0 340.5 -136.5t119.5 -373.5q0 -77 -12 -162q-117 -729 -670 -729q-204 0 -303.5 80t-99.5 215z" />
<glyph unicode="&#x42e;" horiz-adv-x="1673" d="M57 0l242 1378h12l-114 -651h360q26 137 77.5 254t129 210t189.5 146.5t245 53.5q113 0 195.5 -35t129.5 -100t69 -147.5t22 -186.5q0 -81 -10 -165.5t-33.5 -176.5t-58.5 -175.5t-88.5 -159t-120 -131t-157.5 -88t-196 -32.5q-116 0 -199.5 31t-132 91t-70.5 139 t-22 183q0 116 29 277h-360l-125 -715h-13zM539 442q0 -81 13 -146t43 -120t77 -92t117.5 -57.5t162.5 -20.5q103 0 191.5 32t153.5 86t118 128.5t87 156.5t57 172.5t33 174.5t10 164q0 458 -406 458q-131 0 -240.5 -53t-186 -146t-127.5 -209t-75 -251q-28 -152 -28 -277z " />
<glyph unicode="&#x42f;" horiz-adv-x="1132" d="M66 0l561 604h-41q-87 0 -155.5 20t-110.5 52t-69.5 76t-38.5 89t-11 95q0 142 66 243.5t176.5 150t254.5 48.5h455l-242 -1378h-12l107 604h-365l-559 -604h-16zM213 940q0 -51 10.5 -95.5t37.5 -87.5t68.5 -73.5t107 -49t149.5 -18.5h422l131 750h-443 q-215 0 -349 -113.5t-134 -312.5z" />
<glyph unicode="&#x430;" horiz-adv-x="1011" d="M88 350q0 133 32.5 248t94 202.5t158.5 138t217 50.5q152 0 241 -89t80 -255l56 336h12l-168 -981h-10l65 383q-60 -186 -174 -288.5t-262 -102.5q-167 0 -254.5 95.5t-87.5 262.5zM100 348q0 -161 83.5 -252.5t248.5 -91.5q92 0 171 42t132.5 110t92 155t56 176.5 t17.5 174.5q0 143 -77 229t-236 86q-96 0 -177 -33.5t-137.5 -92t-96 -138t-58.5 -172t-19 -193.5z" />
<glyph unicode="&#x431;" horiz-adv-x="1003" d="M86 336q0 129 47 336q42 182 122 350t167 250q53 50 103 77.5t162 55.5t304 53l2 -14q-304 -38 -415 -84q-295 -121 -449 -750l4 -2q63 181 188 274t275 93q89 0 154 -29t101.5 -81t53.5 -114t17 -137q0 -42 -4 -88.5t-17.5 -110t-35 -120.5t-59.5 -115t-87.5 -99.5 t-123.5 -68t-163 -26.5q-346 0 -346 350zM100 326q0 -152 80 -240t254 -88q89 0 162 27.5t121 70t85 101.5t56.5 115.5t31.5 118.5t15.5 103.5t3.5 77.5q0 73 -15.5 133t-50.5 110.5t-98.5 79t-150.5 28.5q-99 -3 -181.5 -40.5t-139.5 -99t-96.5 -143t-58 -170.5t-18.5 -184 z" />
<glyph unicode="&#x432;" horiz-adv-x="944" d="M88 438l35 183q13 68 43 129t80 117t130.5 89t180.5 33q146 0 222.5 -66t76.5 -161q0 -68 -43 -128t-115 -79q78 -19 121 -77.5t43 -123.5q0 -87 -38.5 -157t-103 -113.5t-146 -66.5t-171.5 -23q-200 0 -277.5 117.5t-37.5 326.5zM100 434q-37 -195 35.5 -311.5 t267.5 -116.5q88 0 167.5 22.5t142.5 64.5t100 109.5t37 151.5q0 69 -54.5 132t-152.5 63h-272l2 12h264q94 0 150.5 61t56.5 140q0 90 -73 152.5t-214 62.5q-79 0 -146 -22t-112.5 -57.5t-80 -83.5t-54 -96t-29.5 -100z" />
<glyph unicode="&#x433;" horiz-adv-x="837" d="M51 199q0 52 12.5 95t33.5 73.5t53 55.5t66 41t77.5 29.5t82 22.5t85.5 19q26 5 39 8q57 12 94 22.5t80.5 30t69 42.5t42.5 60t17 84q0 82 -63 139.5t-197 57.5q-86 0 -153.5 -20t-109.5 -55.5t-66 -75.5t-34 -87h-10q4 23 10 41q39 110 135.5 159.5t227.5 49.5 q141 0 205.5 -61.5t64.5 -149.5q0 -52 -22 -93t-46 -64t-82.5 -45t-89 -29.5t-106.5 -24.5q-5 -1 -8 -2q-55 -12 -84.5 -18.5t-78.5 -21.5t-76.5 -29.5t-62 -39t-52.5 -53t-31 -69.5t-13 -90q0 -36 13.5 -68.5t44.5 -62.5t91 -48t142 -18q78 0 145 15.5t121.5 48t85 88.5 t27.5 131h10v-17q0 -92 -53.5 -156t-139 -93t-194.5 -29q-83 0 -144.5 18t-94.5 49t-48.5 66t-15.5 74z" />
<glyph unicode="&#x434;" horiz-adv-x="1050" d="M90 328q0 104 19.5 199t60.5 178.5t100.5 145t145 97t188.5 35.5q71 0 133.5 -26.5t111.5 -81t67 -139t-1 -201.5l7 6q41 189 41 411q0 86 -12.5 157.5t-43.5 135.5t-78.5 108t-121 69.5t-168.5 25.5q-70 0 -140 -21l-4 11q66 20 146 20q216 0 324 -129t108 -356 q0 -67 -3.5 -134t-16.5 -168.5t-35 -189.5t-64 -181t-98 -158.5t-141.5 -107.5t-190.5 -42q-170 0 -252 89.5t-82 246.5zM102 322q0 -146 80 -232t244 -86q95 0 176 37.5t137.5 100.5t96 146.5t58.5 175t19 187.5q0 137 -83.5 228.5t-229.5 91.5q-156 0 -270 -85 t-171 -230.5t-57 -333.5z" />
<glyph unicode="&#x435;" horiz-adv-x="948" d="M86 338q0 96 19 187.5t60.5 174.5t100.5 145.5t144 99t186 36.5q78 0 136.5 -20t90 -53t46 -70.5t14.5 -79.5q0 -43 -13.5 -83.5t-53.5 -85.5t-104.5 -77.5t-177.5 -54t-260 -21.5q-80 0 -170 8q-6 -52 -6 -106q0 -53 7 -97t27 -89.5t53.5 -76.5t90 -51t132.5 -20 q69 0 135 17t124 50.5t94 93t38 136.5h12q0 -15 -4 -43q-19 -125 -133 -195.5t-266 -70.5q-79 0 -138.5 21t-93.5 53t-55 79.5t-28 93t-7 99.5zM106 457q90 -8 168 -8q144 0 254 20t173.5 51t103 74t52.5 82t13 82q0 40 -13.5 75.5t-43.5 67t-85.5 50t-131.5 18.5 q-108 0 -196.5 -41.5t-147.5 -114.5t-95.5 -162.5t-50.5 -193.5z" />
<glyph unicode="&#x436;" horiz-adv-x="1288" d="M-61 0l438 516l-258 463h12l256 -457h258l82 457h12l-82 -457h258l420 457h15l-424 -463l260 -516h-15l-256 510h-260l-88 -510h-12l88 510h-258l-430 -510h-16z" />
<glyph unicode="&#x437;" horiz-adv-x="907" d="M41 248q0 37 4 55l12 -2q-4 -18 -4 -53q0 -109 82 -178.5t227 -69.5q184 0 292 92t108 221q0 82 -58 146.5t-172 64.5h-182v13h219q65 0 115 22.5t77.5 57.5t41.5 71.5t14 71.5q0 96 -76 157.5t-229 61.5q-87 0 -165.5 -30.5t-136.5 -97.5t-67 -159h-12q5 58 30 108 t63 84.5t86 59t99 36t103 11.5q159 0 238 -64.5t79 -166.5q0 -49 -21 -96.5t-74.5 -88.5t-131.5 -49q79 -13 125.5 -74.5t46.5 -138.5q0 -135 -111 -230t-301 -95q-151 0 -236 72t-85 188z" />
<glyph unicode="&#x438;" horiz-adv-x="966" d="M94 275q2 57 15 131l100 573h12l-100 -573q-10 -60 -13 -106.5t1.5 -94.5t23 -82.5t50.5 -62.5t85 -42t125 -14q39 0 82.5 9.5t100.5 40t105 77.5t89.5 130.5t60.5 191.5l93 526h12l-170 -977h-12l55 313q-27 -74 -70 -133t-87.5 -93.5t-94.5 -57.5t-90 -31t-76 -8 q-88 0 -148.5 22t-92.5 57.5t-45 91t-11 112.5z" />
<glyph unicode="&#x439;" horiz-adv-x="966" d="M94 275q2 57 15 131l100 573h12l-100 -573q-10 -60 -13 -106.5t1.5 -94.5t23 -82.5t50.5 -62.5t85 -42t125 -14q39 0 82.5 9.5t100.5 40t105 77.5t89.5 130.5t60.5 191.5l93 526h12l-170 -977h-12l55 313q-27 -74 -70 -133t-87.5 -93.5t-94.5 -57.5t-90 -31t-76 -8 q-88 0 -148.5 22t-92.5 57.5t-45 91t-11 112.5zM418 1364h10q-4 -33 2 -68t23 -69t54.5 -56t90.5 -22q52 0 97.5 22t75.5 56t49.5 69t29.5 68h10q-10 -35 -30 -71t-51.5 -72t-78.5 -59t-102 -23q-56 0 -96 23t-58 58.5t-24.5 72.5t-1.5 71z" />
<glyph unicode="&#x43a;" horiz-adv-x="819" d="M37 0l172 979h12l-82 -465h316l417 465h13l-422 -471l258 -508h-12l-254 504h-318l-88 -504h-12z" />
<glyph unicode="&#x43b;" horiz-adv-x="966" d="M-74 -8l2 12q113 1 182.5 128t141.5 450l88 397h598l-172 -979h-12l170 967h-574l-86 -385q-72 -324 -141.5 -453.5t-181.5 -136.5h-15z" />
<glyph unicode="&#x43c;" horiz-adv-x="1161" d="M33 0l229 979h10l265 -813l571 813h12l-141 -979h-12l139 958l-567 -808h-9l-262 804l-223 -954h-12z" />
<glyph unicode="&#x43d;" horiz-adv-x="978" d="M37 0l172 979h12l-80 -455h717l80 455h12l-172 -979h-12l90 512h-717l-90 -512h-12z" />
<glyph unicode="&#x43e;" horiz-adv-x="993" d="M86 311q0 139 32.5 261t94.5 215.5t159 147.5t218 54q165 0 242 -91.5t77 -252.5t-40.5 -288.5t-110 -205.5t-156.5 -118.5t-184 -40.5q-169 0 -250.5 79t-81.5 240zM98 313q0 -156 77.5 -232.5t244.5 -76.5q94 0 178.5 39.5t152 115.5t107 201t39.5 283q0 157 -74 245.5 t-235 88.5q-118 0 -212.5 -53.5t-154.5 -145.5t-91.5 -211t-31.5 -254z" />
<glyph unicode="&#x43f;" horiz-adv-x="976" d="M41 0l168 979h12l-55 -313q33 92 88.5 159.5t116.5 100.5t113.5 48t99.5 15q87 0 148 -22t94.5 -58t48.5 -90.5t13.5 -112.5t-14.5 -131l-98 -575h-12l98 575q13 70 14 126t-13 109.5t-46 88.5t-91.5 56.5t-143.5 21.5q-39 0 -82.5 -9.5t-100.5 -40t-105 -77.5 t-90 -130.5t-61 -191.5l-92 -528h-10z" />
<glyph unicode="&#x440;" horiz-adv-x="1011" d="M-33 -420l242 1401h12l-61 -342q53 169 172.5 259.5t273.5 90.5q160 0 246 -87t86 -236q0 -112 -17.5 -211t-56 -184.5t-95 -147t-137.5 -96.5t-181 -35q-164 0 -256.5 106.5t-77.5 284.5l-137 -803h-13zM127 338q0 -151 86 -242.5t240 -91.5q119 0 211.5 52.5 t148.5 144.5t84.5 209t28.5 254q0 143 -81.5 228t-240.5 85q-99 0 -184 -39.5t-151 -116t-104 -200.5t-38 -283z" />
<glyph unicode="&#x441;" horiz-adv-x="899" d="M86 326q0 137 30 254.5t88.5 210.5t155.5 146.5t222 53.5q132 0 213.5 -60.5t81.5 -168.5q0 -14 -3 -29h-12q2 10 2 29q0 102 -77.5 159.5t-204.5 57.5q-122 0 -216.5 -52.5t-152 -144t-86.5 -207t-29 -249.5q0 -326 326 -326q132 0 240.5 67t136.5 189q6 24 6 43h12 q0 -23 -6 -47q-19 -84 -81.5 -145.5t-142 -90t-165.5 -28.5q-338 0 -338 338z" />
<glyph unicode="&#x442;" horiz-adv-x="1660" d="M41 0l168 979h12l-55 -313q33 93 86.5 160.5t112.5 100.5t110 47.5t98 14.5q341 0 289 -350q25 80 66 143.5t85.5 101.5t95 62.5t91 33.5t76.5 9q87 0 147.5 -22t93 -58t46 -91t11.5 -112.5t-15 -130.5l-99 -575h-10l98 575q12 72 14 127t-11 108.5t-43.5 88.5t-89 56.5 t-142.5 21.5q-39 0 -81.5 -9.5t-98 -40t-102 -77.5t-87 -130.5t-59.5 -191.5l-92 -528h-11l99 580q12 70 14 124t-11 107t-44 88t-89.5 56.5t-142.5 21.5q-40 0 -83.5 -9.5t-98.5 -40t-101 -77.5t-86 -130.5t-59 -191.5l-92 -528h-10z" />
<glyph unicode="&#x443;" horiz-adv-x="811" d="M66 979h12l258 -977h41l274 541q67 133 95 222t42 212h13q-13 -123 -43 -216.5t-96 -221.5l-484 -959h-14l207 410h-45z" />
<glyph unicode="&#x444;" horiz-adv-x="1165" d="M88 344q0 82 17 165t59.5 170t106 153.5t167 109t232.5 43.5l86 483h12l-86 -483q109 -1 188.5 -31t124.5 -82t65.5 -115.5t20.5 -140.5q0 -84 -18.5 -167.5t-62 -166t-107.5 -145.5t-163.5 -103t-221.5 -42l-74 -412h-12l74 412q-408 3 -408 352zM98 346 q0 -74 19.5 -133t64 -108t124.5 -76t192 -27l170 973q-125 -1 -226 -42.5t-163.5 -106.5t-104.5 -150t-59 -167t-17 -163zM510 2q117 1 213.5 40t159 100.5t106 142t62 162.5t18.5 165q0 77 -19 138.5t-62 113t-121 81t-187 30.5z" />
<glyph unicode="&#x445;" horiz-adv-x="784" d="M-68 0l449 502l-260 477h14l254 -467l418 467h14l-426 -477l279 -502h-15l-272 492l-438 -492h-17z" />
<glyph unicode="&#x446;" horiz-adv-x="966" d="M94 275q2 57 15 131l100 573h12l-100 -573q-10 -60 -13 -106.5t1.5 -94.5t23 -82.5t50.5 -62.5t85 -42t125 -14q362 0 441 459l90 516h12l-121 -686q-8 -45 -10.5 -73.5t-0.5 -77t22.5 -87.5t58.5 -67l-58 -279h-12l55 275q-58 41 -75 126.5t8 176.5q-113 -295 -412 -295 q-88 0 -148.5 22t-92.5 57.5t-45 91t-11 112.5z" />
<glyph unicode="&#x447;" horiz-adv-x="882" d="M119 686l51 293h12l-51 -293q-54 -293 272 -293q147 0 347 62l92 524h10l-172 -979h-10l78 442q-194 -61 -347 -61q-336 0 -282 305z" />
<glyph unicode="&#x448;" horiz-adv-x="1665" d="M91.5 275q1.5 57 14.5 131l99 575h10l-98 -575q-12 -72 -14 -127t11 -108.5t43.5 -88.5t89 -56.5t142.5 -21.5q39 0 81.5 9.5t98 40t102 77.5t87 130.5t59.5 191.5l92 528h11l-99 -580q-12 -70 -14 -124t11 -107t44 -88t89.5 -56.5t142.5 -21.5q40 0 83.5 9.5t98.5 40 t101 77.5t86 130.5t59 191.5l92 528h10l-168 -979h-12l55 313q-33 -93 -86.5 -160.5t-112.5 -100.5t-110 -47.5t-98 -14.5q-341 0 -289 350q-25 -80 -66 -143.5t-85.5 -101.5t-95 -62.5t-91 -33.5t-76.5 -9q-87 0 -147 22t-92.5 58t-46 91t-12 112z" />
<glyph unicode="&#x449;" horiz-adv-x="1665" d="M91.5 275q1.5 57 14.5 131l99 575h10l-98 -575q-12 -72 -14 -127t11 -108.5t43.5 -88.5t89 -56.5t142.5 -21.5q39 0 81.5 9.5t98 40t102 77.5t87 130.5t59.5 191.5l92 528h11l-99 -580q-12 -70 -14 -124t11 -107t44 -88t89.5 -56.5t142.5 -21.5q349 0 428 459l90 516h12 l-121 -686q-8 -45 -10.5 -73.5t-0.5 -77t22.5 -87.5t58.5 -67l-57 -279h-13l56 275q-58 41 -75.5 126.5t7.5 176.5q-113 -295 -399 -295q-341 0 -289 350q-25 -80 -66 -143.5t-85.5 -101.5t-95 -62.5t-91 -33.5t-76.5 -9q-87 0 -147 22t-92.5 58t-46 91t-12 112z" />
<glyph unicode="&#x44a;" horiz-adv-x="1155" d="M2 967l2 12h424l-68 -389h416q131 0 209 -64t78 -176q0 -158 -119 -258t-303 -100q-180 0 -258 78t-78 219q0 45 12 127l97 551h-412zM317 289q0 -135 75 -210t249 -75q178 0 294 97t116 249q0 105 -75 166.5t-200 61.5h-418l-28 -166q-13 -73 -13 -123z" />
<glyph unicode="&#x44b;" horiz-adv-x="1165" d="M82 289q0 45 12 127l99 563h12l-68 -389h416q131 0 209 -64t78 -176q0 -158 -119 -258t-303 -100q-180 0 -258 78t-78 219zM94 289q0 -135 75 -210t249 -75q178 0 293.5 97t115.5 249q0 105 -74.5 166.5t-199.5 61.5h-418l-29 -166q-12 -68 -12 -123zM940 0l172 979h12 l-172 -979h-12z" />
<glyph unicode="&#x44c;" horiz-adv-x="921" d="M82 289q0 45 12 127l99 563h12l-68 -389h416q131 0 209 -64t78 -176q0 -158 -119 -258t-303 -100q-180 0 -258 78t-78 219zM94 289q0 -135 75 -210t249 -75q178 0 293.5 97t115.5 249q0 105 -74.5 166.5t-199.5 61.5h-418l-29 -166q-12 -68 -12 -123z" />
<glyph unicode="&#x44d;" horiz-adv-x="940" d="M49 229q0 51 10 78l13 -4q-11 -30 -11 -74q0 -107 81 -166t212 -59q208 0 333.5 135t152.5 369h-494v12h494q6 53 6 105q0 157 -83 255.5t-239 98.5q-139 0 -243.5 -72t-133.5 -211l-12 2q20 96 79 163.5t138 98.5t172 31q162 0 248 -101.5t86 -264.5q0 -291 -131 -462 t-373 -171q-138 0 -221.5 61.5t-83.5 175.5z" />
<glyph unicode="&#x44e;" horiz-adv-x="1284" d="M37 0l172 979h12l-82 -463h252q20 99 59.5 182t99 149t144.5 103t187 37q90 0 154 -27.5t99 -77.5t50.5 -108.5t15.5 -130.5q0 -85 -15 -171t-51.5 -174t-90.5 -154.5t-141 -109t-195 -42.5q-179 0 -257.5 79t-78.5 234q0 104 18 199h-252l-88 -504h-12zM383 311 q0 -155 74 -231t252 -76q105 0 189.5 41.5t137.5 107t88 152t49.5 170.5t14.5 168q0 70 -15.5 127t-49.5 105t-96 75t-148 27q-122 0 -218.5 -55.5t-156 -149.5t-90.5 -212t-31 -249z" />
<glyph unicode="&#x44f;" horiz-adv-x="907" d="M31 0l418 416h-23q-75 0 -133 14t-93.5 37.5t-58 56t-31 66t-8.5 72.5q0 145 103.5 231t273.5 86h398l-172 -979h-13l74 416h-303l-416 -416h-16zM115 662q0 -104 71.5 -169t227.5 -65h354l96 539h-387q-163 0 -262.5 -83.5t-99.5 -221.5z" />
<glyph unicode="&#x451;" horiz-adv-x="948" d="M86 338q0 96 19 187.5t60.5 174.5t100.5 145.5t144 99t186 36.5q78 0 136.5 -20t90 -53t46 -70.5t14.5 -79.5q0 -43 -13.5 -83.5t-53.5 -85.5t-104.5 -77.5t-177.5 -54t-260 -21.5q-80 0 -170 8q-6 -52 -6 -106q0 -53 7 -97t27 -89.5t53.5 -76.5t90 -51t132.5 -20 q69 0 135 17t124 50.5t94 93t38 136.5h12q0 -15 -4 -43q-19 -125 -133 -195.5t-266 -70.5q-79 0 -138.5 21t-93.5 53t-55 79.5t-28 93t-7 99.5zM106 457q90 -8 168 -8q144 0 254 20t173.5 51t103 74t52.5 82t13 82q0 40 -13.5 75.5t-43.5 67t-85.5 50t-131.5 18.5 q-108 0 -196.5 -41.5t-147.5 -114.5t-95.5 -162.5t-50.5 -193.5zM475 1214q0 8 7.5 15.5t17.5 7.5q12 0 12 -14q0 -10 -5.5 -16.5t-12.5 -6.5q-19 0 -19 14zM770 1214q0 7 7 15t18 8q10 0 10 -12q0 -11 -5 -18t-12 -7q-18 0 -18 14z" />
<glyph unicode="&#x452;" horiz-adv-x="980" d="M41 0l217 1233h-104l2 10h104l39 227h12l-39 -227h521l-2 -10h-521l-100 -567q27 74 69 133t86.5 93.5t94 57.5t89.5 31t75 8q88 0 152 -31t98 -85t49.5 -115t15.5 -133q0 -331 -140 -519.5t-368 -199.5l2 12q223 12 358.5 197.5t135.5 507.5q0 55 -8 103t-29.5 95.5 t-55 81t-88 54t-124.5 20.5q-38 0 -81.5 -9.5t-100 -40t-104.5 -77.5t-90 -130.5t-61 -191.5l-92 -528h-12z" />
<glyph unicode="&#x453;" horiz-adv-x="837" d="M51 199q0 -39 15.5 -74t48.5 -66t94.5 -49t144.5 -18q109 0 194.5 29t139 93t53.5 156v17h-10q3 -75 -27.5 -131t-85 -88.5t-121.5 -48t-145 -15.5q-82 0 -142 18t-91 48t-44.5 62.5t-13.5 68.5q0 49 13 90t31 69.5t52.5 53t62 39t76.5 29.5t78.5 21.5t84.5 18.5 q161 35 221 63q127 59 133 183v12q0 88 -64.5 149.5t-205.5 61.5q-131 0 -227.5 -49.5t-135.5 -159.5q-6 -18 -10 -41h10q10 47 34 87t66 75.5t109.5 55.5t153.5 20q134 0 197 -57.5t63 -139.5q0 -47 -17 -84t-42.5 -60t-69 -42.5t-80.5 -30t-94 -22.5q-166 -36 -215 -52 q-162 -53 -210 -165q-24 -55 -24 -127zM547 1174l254 251l10 -12l-256 -248z" />
<glyph unicode="&#x454;" horiz-adv-x="899" d="M86 326q0 137 30 254.5t88.5 210.5t155.5 146.5t222 53.5q132 0 213.5 -60.5t81.5 -168.5q0 -14 -3 -29h-12q2 10 2 29q0 102 -77.5 159.5t-204.5 57.5q-100 0 -182 -36t-139 -100t-94 -148t-54 -185h503l-2 -12h-503q-13 -89 -13 -172q0 -326 326 -326q132 0 240.5 67 t136.5 189q6 24 6 43h12q0 -23 -6 -47q-19 -84 -81.5 -145.5t-142 -90t-165.5 -28.5q-338 0 -338 338z" />
<glyph unicode="&#x455;" horiz-adv-x="886" d="M51 225q0 45 6 70h11q-25 -143 54 -216t226 -73q96 0 171 21t119 52.5t72 73.5t38 79t10 73q0 26 -6 48.5t-13.5 39.5t-24 32t-29.5 25t-37.5 19.5t-40 14.5t-46 12t-46 9.5t-48.5 8.5q-37 6 -54.5 9.5t-51 11t-50.5 14.5t-42 18.5t-38.5 25.5t-27 32.5t-19.5 42.5t-6 53 q0 121 94.5 196.5t243.5 75.5q84 0 147.5 -18t105.5 -64.5t42 -119.5q0 -30 -6 -60h-12q13 67 -2.5 116.5t-56 78t-95 42t-123.5 13.5q-142 0 -234 -72.5t-92 -187.5q0 -110 113 -155q48 -20 176 -42q34 -6 54.5 -10t51.5 -11.5t50 -15.5t43 -19.5t38.5 -27t28 -35t19.5 -45 t6 -55.5q0 -37 -10.5 -76t-40.5 -82t-75 -76t-122 -55t-174 -22q-133 0 -215 59t-82 172z" />
<glyph unicode="&#x456;" horiz-adv-x="335" d="M82 0l168 979h12l-168 -979h-12zM291 1268q0 8 5.5 15t16.5 7q15 0 15 -14q0 -10 -8 -16.5t-15 -6.5q-14 0 -14 15z" />
<glyph unicode="&#x457;" horiz-adv-x="342" d="M80 0l172 979h10l-172 -979h-10zM123 1200q0 8 7 15.5t17 7.5q6 0 9.5 -5t3.5 -10q0 -10 -6 -16t-13 -6q-18 0 -18 14zM418 1200q0 7 6.5 15t17.5 8t11 -13q0 -24 -17 -24q-18 0 -18 14z" />
<glyph unicode="&#x458;" horiz-adv-x="362" d="M-119 -420l2 12q88 0 122.5 38t53.5 147l209 1202h15l-209 -1202q-20 -110 -56.5 -153.5t-123.5 -43.5h-13zM305 1268q0 7 6 14.5t17 7.5q14 0 14 -14q0 -10 -8 -16.5t-15 -6.5q-14 0 -14 15z" />
<glyph unicode="&#x459;" horiz-adv-x="1513" d="M-74 -8l2 12q113 1 182.5 128t141.5 450l88 397h479l-67 -389h393q131 0 209 -64t78 -176q0 -159 -110 -258.5t-292 -99.5q-180 0 -257 78t-77 219q0 38 13 127l96 551h-455l-86 -385q-70 -314 -136.5 -443.5t-170.5 -144.5q-10 -2 -31 -2zM709 289q0 -135 73.5 -210 t247.5 -75q176 0 282.5 96.5t106.5 249.5q0 105 -74.5 166.5t-199.5 61.5h-395l-29 -166q-12 -68 -12 -123z" />
<glyph unicode="&#x45a;" horiz-adv-x="1505" d="M41 0l172 979h12l-75 -430h571l76 430h12l-76 -430h406q133 0 208.5 -56t75.5 -163q0 -157 -109.5 -247.5t-293.5 -90.5q-180 0 -257 78t-77 219q0 45 12 127l21 121h-572l-94 -537h-12zM698 289q0 -135 74 -210t248 -75q178 0 284.5 87.5t106.5 238.5q0 102 -72 154.5 t-200 52.5h-408l-20 -125q-13 -73 -13 -123z" />
<glyph unicode="&#x45b;" horiz-adv-x="966" d="M37 0l217 1233h-94l2 10h94l39 227h12l-39 -227h498l-2 -10h-498l-100 -567q27 74 69 133t86.5 93.5t94.5 57.5t90 31t76 8q85 0 145.5 -22t93 -58t47 -90.5t13 -112.5t-14.5 -131l-100 -575h-12l100 575q13 71 14.5 126.5t-12 109t-45 88.5t-90 56.5t-141.5 21.5 q-39 0 -82.5 -9.5t-100 -40t-104.5 -77.5t-90.5 -130.5t-61.5 -191.5l-92 -528h-12z" />
<glyph unicode="&#x45c;" horiz-adv-x="819" d="M37 0l172 979h12l-82 -465h316l417 465h13l-422 -471l258 -508h-12l-254 504h-318l-88 -504h-12zM446 1147l254 252l11 -13l-256 -247z" />
<glyph unicode="&#x45e;" horiz-adv-x="811" d="M66 979h12l258 -977h41l274 541q67 133 95 222t42 212h13q-13 -123 -43 -216.5t-96 -221.5l-484 -959h-14l207 410h-45zM277 1259.5q0 29.5 2 55.5h12q-5 -33 0.5 -67.5t22.5 -68.5t54.5 -55.5t90.5 -21.5q52 0 97.5 22t75.5 56.5t49.5 68.5t29.5 66h12 q-10 -35 -30.5 -71t-52.5 -72.5t-80 -59t-103 -22.5q-45 0 -80.5 15.5t-54.5 39.5t-32 54.5t-13 60z" />
<glyph unicode="&#x45f;" horiz-adv-x="966" d="M94 275q2 57 15 131l100 573h12l-100 -573q-10 -60 -13 -106.5t1.5 -94.5t23 -82.5t50.5 -62.5t85 -42t125 -14q39 0 82.5 9.5t100.5 40t105 77.5t89.5 130.5t60.5 191.5l93 526h12l-170 -977h-12l55 313q-27 -74 -70 -133t-87.5 -93.5t-94.5 -57.5t-90 -31t-76 -8 q-88 0 -148.5 22t-92.5 57.5t-45 91t-11 112.5zM428 -408l53 324l17 2l-58 -326h-12z" />
<glyph unicode="&#x490;" horiz-adv-x="985" d="M57 0l242 1378h799l43 244h12l-45 -256h-799l-239 -1366h-13z" />
<glyph unicode="&#x491;" horiz-adv-x="800" d="M37 0l172 979h635l41 240h10l-43 -252h-633l-170 -967h-12z" />
<glyph unicode="&#x4d9;" horiz-adv-x="935" d="M57 215q0 43 13.5 83.5t53.5 85.5t104.5 77.5t177.5 54t260 21.5q69 0 170 -9q6 53 6 107q0 53 -7 97t-27 89.5t-53.5 76.5t-90 51t-132.5 20q-69 0 -135 -17t-124 -50.5t-94 -93t-38 -136.5h-12q0 15 4 43q19 125 133 195.5t266 70.5q79 0 138.5 -21t93.5 -53t55 -79.5 t28 -93t7 -99.5q0 -96 -19 -187.5t-60.5 -174.5t-100.5 -145.5t-144 -99t-186 -36.5q-78 0 -136.5 20t-90 53t-46 70.5t-14.5 79.5zM70 215q0 -40 13.5 -75.5t43.5 -67t85.5 -50t131.5 -18.5q108 0 196.5 41.5t147.5 114.5t95.5 162.5t50.5 193.5q-90 8 -168 8 q-144 0 -254 -20t-173.5 -51t-103 -74t-52.5 -82t-13 -82z" />
<glyph unicode="&#x1e80;" horiz-adv-x="1705" d="M180 1378h15l145 -1360l643 1360h12l183 -1360l624 1360h15l-635 -1378h-11l-184 1360l-645 -1360h-10zM827 1716l13 13l204 -218l-10 -8z" />
<glyph unicode="&#x1e81;" horiz-adv-x="1314" d="M96 979h13l135 -956l432 829h10l174 -827l291 520q44 79 71.5 154t38.5 126t29 154h13q-19 -105 -29.5 -153.5t-38.5 -125.5t-74 -159l-301 -541h-8l-174 834l-432 -834h-13zM553 1366l14 12l203 -225l-8 -8z" />
<glyph unicode="&#x1e82;" horiz-adv-x="1705" d="M180 1378h15l145 -1360l643 1360h12l183 -1360l624 1360h15l-635 -1378h-11l-184 1360l-645 -1360h-10zM999 1511l277 218l10 -13l-280 -213z" />
<glyph unicode="&#x1e83;" horiz-adv-x="1314" d="M96 979h13l135 -956l432 829h10l174 -827l291 520q44 79 71.5 154t38.5 126t29 154h13q-19 -105 -29.5 -153.5t-38.5 -125.5t-74 -159l-301 -541h-8l-174 834l-432 -834h-13zM678 1147l254 252l10 -13l-256 -247z" />
<glyph unicode="&#x1e84;" horiz-adv-x="1705" d="M180 1378h15l145 -1360l643 1360h12l183 -1360l624 1360h15l-635 -1378h-11l-184 1360l-645 -1360h-10zM868 1595q0 7 6.5 15t16.5 8q16 0 16 -16q0 -10 -7 -15.5t-15 -5.5q-17 0 -17 14zM1163 1595q0 8 6 15.5t17 7.5q6 0 10 -5t4 -11q0 -10 -6.5 -15.5t-13.5 -5.5 q-17 0 -17 14z" />
<glyph unicode="&#x1e85;" horiz-adv-x="1314" d="M96 979h13l135 -956l432 829h10l174 -827l291 520q44 79 71.5 154t38.5 126t29 154h13q-19 -105 -29.5 -153.5t-38.5 -125.5t-74 -159l-301 -541h-8l-174 834l-432 -834h-13zM600 1200q0 8 7.5 15.5t17.5 7.5q12 0 12 -15q0 -10 -6 -16t-13 -6q-18 0 -18 14zM895 1200 q0 7 7 15t18 8q10 0 10 -13q0 -24 -17 -24q-18 0 -18 14z" />
<glyph unicode="&#x1ef2;" horiz-adv-x="950" d="M174 1378h14l295 -798l596 798h15l-607 -813l-96 -565h-12l96 565zM465 1688l12 12l205 -217l-10 -8z" />
<glyph unicode="&#x1ef3;" horiz-adv-x="811" d="M66 979h12l258 -977h41l274 541q67 133 95 222t42 212h13q-13 -123 -43 -216.5t-96 -221.5l-484 -959h-14l207 410h-45zM330 1315l14 12l203 -225l-8 -8z" />
<glyph unicode="&#x1f00;" horiz-adv-x="1011" d="M88 350q0 133 32.5 248t94 202.5t158.5 138t217 50.5q152 0 241 -89t80 -255l56 336h12l-168 -981h-10l65 383q-60 -186 -174 -288.5t-262 -102.5q-167 0 -254.5 95.5t-87.5 262.5zM100 348q0 -161 83.5 -252.5t248.5 -91.5q92 0 171 42t132.5 110t92 155t56 176.5 t17.5 174.5q0 143 -77 229t-236 86q-96 0 -177 -33.5t-137.5 -92t-96 -138t-58.5 -172t-19 -193.5zM598 1124q121 129 121 215q0 80 -105 115l4 14q115 -41 115 -122q0 -91 -125 -230z" />
<glyph unicode="&#x1f01;" horiz-adv-x="1011" d="M88 350q0 133 32.5 248t94 202.5t158.5 138t217 50.5q152 0 241 -89t80 -255l56 336h12l-168 -981h-10l65 383q-60 -186 -174 -288.5t-262 -102.5q-167 0 -254.5 95.5t-87.5 262.5zM100 348q0 -161 83.5 -252.5t248.5 -91.5q92 0 171 42t132.5 110t92 155t56 176.5 t17.5 174.5q0 143 -77 229t-236 86q-96 0 -177 -33.5t-137.5 -92t-96 -138t-58.5 -172t-19 -193.5zM598 1288q0 127 170 180l2 -14q-156 -47 -156 -164q0 -70 54 -166l-11 -8q-59 101 -59 172z" />
<glyph unicode="&#x1f02;" horiz-adv-x="1011" d="M88 350q0 133 32.5 248t94 202.5t158.5 138t217 50.5q152 0 241 -89t80 -255l56 336h12l-168 -981h-10l65 383q-60 -186 -174 -288.5t-262 -102.5q-167 0 -254.5 95.5t-87.5 262.5zM100 348q0 -161 83.5 -252.5t248.5 -91.5q92 0 171 42t132.5 110t92 155t56 176.5 t17.5 174.5q0 143 -77 229t-236 86q-96 0 -177 -33.5t-137.5 -92t-96 -138t-58.5 -172t-19 -193.5zM457 1124q121 132 121 217q0 78 -105 113l6 14q115 -41 115 -125q0 -86 -127 -227zM631 1460l16 10l117 -350l-12 -6z" />
<glyph unicode="&#x1f03;" horiz-adv-x="1011" d="M88 350q0 133 32.5 248t94 202.5t158.5 138t217 50.5q152 0 241 -89t80 -255l56 336h12l-168 -981h-10l65 383q-60 -186 -174 -288.5t-262 -102.5q-167 0 -254.5 95.5t-87.5 262.5zM100 348q0 -161 83.5 -252.5t248.5 -91.5q92 0 171 42t132.5 110t92 155t56 176.5 t17.5 174.5q0 143 -77 229t-236 86q-96 0 -177 -33.5t-137.5 -92t-96 -138t-58.5 -172t-19 -193.5zM459 1288q0 128 170 180l2 -14q-156 -46 -156 -164q0 -81 51 -168l-8 -6q-59 101 -59 172zM674 1460l16 8l115 -348l-12 -6z" />
<glyph unicode="&#x1f04;" horiz-adv-x="1011" d="M88 350q0 133 32.5 248t94 202.5t158.5 138t217 50.5q152 0 241 -89t80 -255l56 336h12l-168 -981h-10l65 383q-60 -186 -174 -288.5t-262 -102.5q-167 0 -254.5 95.5t-87.5 262.5zM100 348q0 -161 83.5 -252.5t248.5 -91.5q92 0 171 42t132.5 110t92 155t56 176.5 t17.5 174.5q0 143 -77 229t-236 86q-96 0 -177 -33.5t-137.5 -92t-96 -138t-58.5 -172t-19 -193.5zM504 1124q121 132 121 217q0 78 -105 113l6 14q115 -41 115 -125q0 -86 -127 -227zM633 1120l225 350l14 -10l-231 -346z" />
<glyph unicode="&#x1f05;" horiz-adv-x="1011" d="M88 350q0 133 32.5 248t94 202.5t158.5 138t217 50.5q152 0 241 -89t80 -255l56 336h12l-168 -981h-10l65 383q-60 -186 -174 -288.5t-262 -102.5q-167 0 -254.5 95.5t-87.5 262.5zM100 348q0 -161 83.5 -252.5t248.5 -91.5q92 0 171 42t132.5 110t92 155t56 176.5 t17.5 174.5q0 143 -77 229t-236 86q-96 0 -177 -33.5t-137.5 -92t-96 -138t-58.5 -172t-19 -193.5zM522 1286q0 134 168 184l2 -12q-153 -47 -153 -170q0 -75 51 -166l-10 -6q-58 101 -58 170zM643 1120l238 350l12 -8l-242 -348z" />
<glyph unicode="&#x1f06;" horiz-adv-x="1011" d="M88 350q0 133 32.5 248t94 202.5t158.5 138t217 50.5q152 0 241 -89t80 -255l56 336h12l-168 -981h-10l65 383q-60 -186 -174 -288.5t-262 -102.5q-167 0 -254.5 95.5t-87.5 262.5zM100 348q0 -161 83.5 -252.5t248.5 -91.5q92 0 171 42t132.5 110t92 155t56 176.5 t17.5 174.5q0 143 -77 229t-236 86q-96 0 -177 -33.5t-137.5 -92t-96 -138t-58.5 -172t-19 -193.5zM403 1516q68 104 160 104q33 0 119 -46t125 -46q78 0 139 90l10 -8q-69 -97 -151 -97q-41 0 -126.5 46.5t-115.5 46.5q-87 0 -147 -95zM573 1104q119 130 119 217 q0 78 -104 113l6 14q115 -42 115 -123q0 -88 -127 -229z" />
<glyph unicode="&#x1f07;" horiz-adv-x="1011" d="M88 350q0 133 32.5 248t94 202.5t158.5 138t217 50.5q152 0 241 -89t80 -255l56 336h12l-168 -981h-10l65 383q-60 -186 -174 -288.5t-262 -102.5q-167 0 -254.5 95.5t-87.5 262.5zM100 348q0 -161 83.5 -252.5t248.5 -91.5q92 0 171 42t132.5 110t92 155t56 176.5 t17.5 174.5q0 143 -77 229t-236 86q-96 0 -177 -33.5t-137.5 -92t-96 -138t-58.5 -172t-19 -193.5zM436 1516q68 104 160 104q33 0 119 -46t125 -46q78 0 139 90l10 -8q-69 -97 -151 -97q-41 0 -126.5 46.5t-115.5 46.5q-87 0 -147 -95zM596 1270q0 127 168 178l2 -14 q-154 -44 -154 -164q0 -75 54 -166l-13 -8q-57 100 -57 174z" />
<glyph unicode="&#x1f08;" horiz-adv-x="1120" d="M-51 0l760 1378h14l285 -1378h-13l-82 389h-737l-213 -389h-14zM150 1022q120 128 120 215q0 80 -104 115l4 14q115 -41 115 -123q0 -90 -125 -229zM184 401h727l-196 965z" />
<glyph unicode="&#x1f09;" horiz-adv-x="1120" d="M-51 0l760 1378h14l285 -1378h-13l-82 389h-737l-213 -389h-14zM150 1186q0 127 169 180l3 -14q-156 -47 -156 -164q0 -71 53 -166l-10 -8q-59 101 -59 172zM184 401h727l-196 965z" />
<glyph unicode="&#x1f0a;" horiz-adv-x="1120" d="M-51 0l760 1378h14l285 -1378h-13l-82 389h-737l-213 -389h-14zM-41 1022q121 132 121 217q0 78 -105 113l7 14q114 -41 114 -125q0 -86 -127 -227zM133 1358l17 10l116 -350l-12 -6zM184 401h727l-196 965z" />
<glyph unicode="&#x1f0b;" horiz-adv-x="1120" d="M-51 0l760 1378h14l285 -1378h-13l-82 389h-737l-213 -389h-14zM-43 1186q0 128 170 180l2 -14q-156 -46 -156 -164q0 -79 52 -168l-9 -6q-59 101 -59 172zM172 1358l16 8l115 -348l-12 -6zM184 401h727l-196 965z" />
<glyph unicode="&#x1f0c;" horiz-adv-x="1120" d="M-51 0l760 1378h14l285 -1378h-13l-82 389h-737l-213 -389h-14zM-8 1022q121 132 121 217q0 78 -105 113l6 14q115 -41 115 -125q0 -86 -127 -227zM121 1018l225 350l14 -10l-231 -346zM184 401h727l-196 965z" />
<glyph unicode="&#x1f0d;" horiz-adv-x="1120" d="M-51 0l760 1378h14l285 -1378h-13l-82 389h-737l-213 -389h-14zM12 1184q0 134 168 184l2 -12q-153 -47 -153 -170q0 -75 51 -166l-10 -6q-58 101 -58 170zM133 1018l238 350l12 -8l-242 -348zM184 401h727l-196 965z" />
<glyph unicode="&#x1f0e;" horiz-adv-x="1120" d="M-92 1313q68 104 160 104q33 0 118.5 -46t124.5 -46q79 0 140 90l10 -8q-68 -96 -152 -96q-41 0 -126 46t-115 46q-89 0 -148 -94zM-51 0l760 1378h14l285 -1378h-13l-82 389h-737l-213 -389h-14zM78 901q119 130 119 217q0 78 -105 113l6 14q115 -42 115 -123 q0 -88 -127 -229zM184 401h727l-196 965z" />
<glyph unicode="&#x1f0f;" horiz-adv-x="1120" d="M-96 1284q69 105 159 105q33 0 119 -46.5t125 -46.5q78 0 139 90l11 -8q-68 -96 -152 -96q-41 0 -126.5 46t-115.5 46q-88 0 -147 -94zM-51 0l760 1378h14l285 -1378h-13l-82 389h-737l-213 -389h-14zM63 1038q0 128 168 179l2 -15q-153 -44 -153 -164q0 -76 53 -166 l-12 -8q-58 102 -58 174zM184 401h727l-196 965z" />
<glyph unicode="&#x1f10;" horiz-adv-x="858" d="M49 227q0 -107 76 -171t244 -64q71 0 136.5 17.5t122.5 52.5t95 95.5t47 139.5h-12q-8 -76 -44 -134.5t-91 -92.5t-118.5 -51t-133.5 -17q-164 0 -238 61t-74 164q0 126 85.5 215.5t217.5 89.5h183l2 13h-187q-40 0 -73 6.5t-62.5 22t-46 44.5t-16.5 70q0 120 99.5 204.5 t279.5 84.5q128 0 202 -51.5t74 -141.5q0 -38 -10 -69h12q10 31 10 71q0 95 -78.5 149t-207.5 54q-185 0 -289 -88t-104 -215q0 -122 151 -147q-62 -14 -109.5 -44t-73.5 -64t-42.5 -75t-21.5 -71t-5 -58zM467 1124q121 129 121 215q0 80 -105 115l4 14q115 -41 115 -122 q0 -91 -125 -230z" />
<glyph unicode="&#x1f11;" horiz-adv-x="858" d="M49 227q0 -107 76 -171t244 -64q71 0 136.5 17.5t122.5 52.5t95 95.5t47 139.5h-12q-8 -76 -44 -134.5t-91 -92.5t-118.5 -51t-133.5 -17q-164 0 -238 61t-74 164q0 126 85.5 215.5t217.5 89.5h183l2 13h-187q-40 0 -73 6.5t-62.5 22t-46 44.5t-16.5 70q0 120 99.5 204.5 t279.5 84.5q128 0 202 -51.5t74 -141.5q0 -38 -10 -69h12q10 31 10 71q0 95 -78.5 149t-207.5 54q-185 0 -289 -88t-104 -215q0 -122 151 -147q-62 -14 -109.5 -44t-73.5 -64t-42.5 -75t-21.5 -71t-5 -58zM463 1288q0 127 170 180l2 -14q-156 -47 -156 -164q0 -71 53 -166 l-10 -8q-59 101 -59 172z" />
<glyph unicode="&#x1f12;" horiz-adv-x="858" d="M49 227q0 -107 76 -171t244 -64q71 0 136.5 17.5t122.5 52.5t95 95.5t47 139.5h-12q-8 -76 -44 -134.5t-91 -92.5t-118.5 -51t-133.5 -17q-164 0 -238 61t-74 164q0 126 85.5 215.5t217.5 89.5h183l2 13h-187q-40 0 -73 6.5t-62.5 22t-46 44.5t-16.5 70q0 120 99.5 204.5 t279.5 84.5q128 0 202 -51.5t74 -141.5q0 -38 -10 -69h12q10 31 10 71q0 95 -78.5 149t-207.5 54q-185 0 -289 -88t-104 -215q0 -122 151 -147q-62 -14 -109.5 -44t-73.5 -64t-42.5 -75t-21.5 -71t-5 -58zM367 1124q120 131 120 217q0 78 -104 113l6 14q115 -41 115 -125 q0 -86 -127 -227zM541 1460l16 10l117 -350l-12 -6z" />
<glyph unicode="&#x1f13;" horiz-adv-x="858" d="M49 227q0 -107 76 -171t244 -64q71 0 136.5 17.5t122.5 52.5t95 95.5t47 139.5h-12q-8 -76 -44 -134.5t-91 -92.5t-118.5 -51t-133.5 -17q-164 0 -238 61t-74 164q0 126 85.5 215.5t217.5 89.5h183l2 13h-187q-40 0 -73 6.5t-62.5 22t-46 44.5t-16.5 70q0 120 99.5 204.5 t279.5 84.5q128 0 202 -51.5t74 -141.5q0 -38 -10 -69h12q10 31 10 71q0 95 -78.5 149t-207.5 54q-185 0 -289 -88t-104 -215q0 -122 151 -147q-62 -14 -109.5 -44t-73.5 -64t-42.5 -75t-21.5 -71t-5 -58zM352 1288q0 128 170 180l2 -14q-155 -46 -155 -164q0 -81 51 -168 l-8 -6q-60 102 -60 172zM567 1460l17 8l114 -348l-12 -6z" />
<glyph unicode="&#x1f14;" horiz-adv-x="858" d="M49 227q0 -107 76 -171t244 -64q71 0 136.5 17.5t122.5 52.5t95 95.5t47 139.5h-12q-8 -76 -44 -134.5t-91 -92.5t-118.5 -51t-133.5 -17q-164 0 -238 61t-74 164q0 126 85.5 215.5t217.5 89.5h183l2 13h-187q-40 0 -73 6.5t-62.5 22t-46 44.5t-16.5 70q0 120 99.5 204.5 t279.5 84.5q128 0 202 -51.5t74 -141.5q0 -38 -10 -69h12q10 31 10 71q0 95 -78.5 149t-207.5 54q-185 0 -289 -88t-104 -215q0 -122 151 -147q-62 -14 -109.5 -44t-73.5 -64t-42.5 -75t-21.5 -71t-5 -58zM412 1124q120 131 120 217q0 78 -104 113l6 14q115 -41 115 -125 q0 -86 -127 -227zM541 1120l225 350l14 -10l-231 -346z" />
<glyph unicode="&#x1f15;" horiz-adv-x="858" d="M49 227q0 -107 76 -171t244 -64q71 0 136.5 17.5t122.5 52.5t95 95.5t47 139.5h-12q-8 -76 -44 -134.5t-91 -92.5t-118.5 -51t-133.5 -17q-164 0 -238 61t-74 164q0 126 85.5 215.5t217.5 89.5h183l2 13h-187q-40 0 -73 6.5t-62.5 22t-46 44.5t-16.5 70q0 120 99.5 204.5 t279.5 84.5q128 0 202 -51.5t74 -141.5q0 -38 -10 -69h12q10 31 10 71q0 95 -78.5 149t-207.5 54q-185 0 -289 -88t-104 -215q0 -122 151 -147q-62 -14 -109.5 -44t-73.5 -64t-42.5 -75t-21.5 -71t-5 -58zM406 1286q0 134 167 184l2 -12q-153 -47 -153 -170q0 -75 51 -166 l-10 -6q-57 99 -57 170zM526 1120l238 350l12 -8l-241 -348z" />
<glyph unicode="&#x1f18;" horiz-adv-x="1064" d="M-76 1022q121 129 121 215q0 80 -104 115l4 14q114 -41 114 -123q0 -90 -125 -229zM61 0l242 1378h791l-2 -12h-779l-106 -610h743l-2 -13h-743l-129 -731h852l-2 -12h-865z" />
<glyph unicode="&#x1f19;" horiz-adv-x="1064" d="M-70 1186q0 127 170 180l2 -14q-155 -47 -155 -164q0 -71 53 -166l-10 -8q-60 102 -60 172zM61 0l242 1378h791l-2 -12h-779l-106 -610h743l-2 -13h-743l-129 -731h852l-2 -12h-865z" />
<glyph unicode="&#x1f1a;" horiz-adv-x="1064" d="M-244 1022q121 132 121 217q0 78 -104 113l6 14q115 -41 115 -125q0 -86 -127 -227zM-70 1358l17 10l116 -350l-12 -6zM61 0l242 1378h791l-2 -12h-779l-106 -610h743l-2 -13h-743l-129 -731h852l-2 -12h-865z" />
<glyph unicode="&#x1f1b;" horiz-adv-x="1064" d="M-250 1186q0 128 170 180l2 -14q-155 -46 -155 -164q0 -81 51 -168l-8 -6q-60 102 -60 172zM-35 1358l17 8l114 -348l-12 -6zM61 0l242 1378h791l-2 -12h-779l-106 -610h743l-2 -13h-743l-129 -731h852l-2 -12h-865z" />
<glyph unicode="&#x1f1c;" horiz-adv-x="1064" d="M-242 1022q121 132 121 217q0 78 -104 113l6 14q115 -41 115 -125q0 -86 -127 -227zM-113 1018l226 350l14 -10l-231 -346zM61 0l242 1378h791l-2 -12h-779l-106 -610h743l-2 -13h-743l-129 -731h852l-2 -12h-865z" />
<glyph unicode="&#x1f1d;" horiz-adv-x="1064" d="M-227 1184q0 134 168 184l2 -12q-154 -47 -154 -170q0 -75 51 -166l-10 -6q-57 99 -57 170zM-106 1018l237 350l12 -8l-241 -348zM61 0l242 1378h791l-2 -12h-779l-106 -610h743l-2 -13h-743l-129 -731h852l-2 -12h-865z" />
<glyph unicode="&#x1f20;" horiz-adv-x="976" d="M41 0l168 979h12l-55 -313q33 92 88.5 159.5t116.5 100.5t113.5 48t99.5 15q87 0 148 -22t94.5 -58t48.5 -90.5t13.5 -112.5t-14.5 -131l-145 -872h-12l145 872q13 70 14 126t-13 109.5t-46 88.5t-91.5 56.5t-143.5 21.5q-39 0 -82.5 -9.5t-100.5 -40t-105 -77.5 t-90 -130.5t-61 -191.5l-92 -528h-10zM524 1124q121 129 121 215q0 80 -104 115l4 14q114 -41 114 -122q0 -92 -124 -230z" />
<glyph unicode="&#x1f21;" horiz-adv-x="976" d="M41 0l168 979h12l-55 -313q33 92 88.5 159.5t116.5 100.5t113.5 48t99.5 15q87 0 148 -22t94.5 -58t48.5 -90.5t13.5 -112.5t-14.5 -131l-145 -872h-12l145 872q13 70 14 126t-13 109.5t-46 88.5t-91.5 56.5t-143.5 21.5q-39 0 -82.5 -9.5t-100.5 -40t-105 -77.5 t-90 -130.5t-61 -191.5l-92 -528h-10zM518 1288q0 127 170 180l2 -14q-155 -47 -155 -164q0 -71 53 -166l-10 -8q-60 102 -60 172z" />
<glyph unicode="&#x1f22;" horiz-adv-x="976" d="M41 0l168 979h12l-55 -313q33 92 88.5 159.5t116.5 100.5t113.5 48t99.5 15q87 0 148 -22t94.5 -58t48.5 -90.5t13.5 -112.5t-14.5 -131l-145 -872h-12l145 872q13 70 14 126t-13 109.5t-46 88.5t-91.5 56.5t-143.5 21.5q-39 0 -82.5 -9.5t-100.5 -40t-105 -77.5 t-90 -130.5t-61 -191.5l-92 -528h-10zM408 1124q120 131 120 217q0 78 -104 113l6 14q115 -41 115 -125q0 -86 -127 -227zM582 1460l16 10l117 -350l-13 -6z" />
<glyph unicode="&#x1f23;" horiz-adv-x="976" d="M41 0l168 979h12l-55 -313q33 92 88.5 159.5t116.5 100.5t113.5 48t99.5 15q87 0 148 -22t94.5 -58t48.5 -90.5t13.5 -112.5t-14.5 -131l-145 -872h-12l145 872q13 70 14 126t-13 109.5t-46 88.5t-91.5 56.5t-143.5 21.5q-39 0 -82.5 -9.5t-100.5 -40t-105 -77.5 t-90 -130.5t-61 -191.5l-92 -528h-10zM406 1288q0 128 169 180l3 -14q-156 -46 -156 -164q0 -81 51 -168l-8 -6q-59 101 -59 172zM621 1460l16 8l115 -348l-13 -6z" />
<glyph unicode="&#x1f24;" horiz-adv-x="976" d="M41 0l168 979h12l-55 -313q33 92 88.5 159.5t116.5 100.5t113.5 48t99.5 15q87 0 148 -22t94.5 -58t48.5 -90.5t13.5 -112.5t-14.5 -131l-145 -872h-12l145 872q13 70 14 126t-13 109.5t-46 88.5t-91.5 56.5t-143.5 21.5q-39 0 -82.5 -9.5t-100.5 -40t-105 -77.5 t-90 -130.5t-61 -191.5l-92 -528h-10zM463 1124q121 132 121 217q0 78 -105 113l6 14q115 -41 115 -125q0 -86 -127 -227zM592 1120l225 350l14 -10l-231 -346z" />
<glyph unicode="&#x1f25;" horiz-adv-x="976" d="M41 0l168 979h12l-55 -313q33 92 88.5 159.5t116.5 100.5t113.5 48t99.5 15q87 0 148 -22t94.5 -58t48.5 -90.5t13.5 -112.5t-14.5 -131l-145 -872h-12l145 872q13 70 14 126t-13 109.5t-46 88.5t-91.5 56.5t-143.5 21.5q-39 0 -82.5 -9.5t-100.5 -40t-105 -77.5 t-90 -130.5t-61 -191.5l-92 -528h-10zM481 1286q0 134 168 184l2 -12q-153 -47 -153 -170q0 -75 51 -166l-10 -6q-58 101 -58 170zM602 1120l238 350l12 -8l-242 -348z" />
<glyph unicode="&#x1f26;" horiz-adv-x="976" d="M41 0l168 979h12l-55 -313q33 92 88.5 159.5t116.5 100.5t113.5 48t99.5 15q87 0 148 -22t94.5 -58t48.5 -90.5t13.5 -112.5t-14.5 -131l-145 -872h-12l145 872q13 70 14 126t-13 109.5t-46 88.5t-91.5 56.5t-143.5 21.5q-39 0 -82.5 -9.5t-100.5 -40t-105 -77.5 t-90 -130.5t-61 -191.5l-92 -528h-10zM377 1516q68 104 160 104q33 0 118.5 -46t124.5 -46q79 0 140 90l10 -8q-69 -97 -152 -97q-41 0 -126 46.5t-115 46.5q-88 0 -148 -95zM547 1104q119 130 119 217q0 78 -105 113l6 14q115 -42 115 -123q0 -88 -127 -229z" />
<glyph unicode="&#x1f27;" horiz-adv-x="976" d="M41 0l168 979h12l-55 -313q33 92 88.5 159.5t116.5 100.5t113.5 48t99.5 15q87 0 148 -22t94.5 -58t48.5 -90.5t13.5 -112.5t-14.5 -131l-145 -872h-12l145 872q13 70 14 126t-13 109.5t-46 88.5t-91.5 56.5t-143.5 21.5q-39 0 -82.5 -9.5t-100.5 -40t-105 -77.5 t-90 -130.5t-61 -191.5l-92 -528h-10zM379 1513q69 105 160 105q33 0 118.5 -46t124.5 -46q79 0 140 90l10 -8q-69 -97 -152 -97q-41 0 -126 46.5t-115 46.5q-88 0 -148 -95zM539 1268q0 127 168 178l2 -14q-154 -44 -154 -164q0 -76 53 -166l-12 -8q-57 100 -57 174z" />
<glyph unicode="&#x1f28;" horiz-adv-x="1253" d="M-80 1022q121 129 121 215q0 80 -104 115l4 14q114 -41 114 -123q0 -90 -125 -229zM61 0l242 1378h12l-112 -643h942l112 643h13l-242 -1378h-12l127 723h-942l-127 -723h-13z" />
<glyph unicode="&#x1f29;" horiz-adv-x="1253" d="M-72 1186q0 127 170 180l2 -14q-155 -47 -155 -164q0 -71 53 -166l-10 -8q-60 102 -60 172zM61 0l242 1378h12l-112 -643h942l112 643h13l-242 -1378h-12l127 723h-942l-127 -723h-13z" />
<glyph unicode="&#x1f2a;" horiz-adv-x="1253" d="M-246 1022q121 132 121 217q0 78 -104 113l6 14q114 -41 114 -125q0 -86 -127 -227zM-72 1358l17 10l116 -350l-12 -6zM61 0l242 1378h12l-112 -643h942l112 643h13l-242 -1378h-12l127 723h-942l-127 -723h-13z" />
<glyph unicode="&#x1f2b;" horiz-adv-x="1253" d="M-270 1186q0 128 170 180l2 -14q-156 -46 -156 -164q0 -81 51 -168l-8 -6q-59 101 -59 172zM-55 1358l16 8l115 -348l-13 -6zM61 0l242 1378h12l-112 -643h942l112 643h13l-242 -1378h-12l127 723h-942l-127 -723h-13z" />
<glyph unicode="&#x1f2c;" horiz-adv-x="1253" d="M-246 1022q121 132 121 217q0 78 -104 113l6 14q114 -41 114 -125q0 -86 -127 -227zM-117 1018l226 350l14 -10l-232 -346zM61 0l242 1378h12l-112 -643h942l112 643h13l-242 -1378h-12l127 723h-942l-127 -723h-13z" />
<glyph unicode="&#x1f2d;" horiz-adv-x="1253" d="M-250 1184q0 134 168 184l2 -12q-153 -47 -153 -170q0 -75 51 -166l-11 -6q-57 99 -57 170zM-129 1018l238 350l12 -8l-242 -348zM61 0l242 1378h12l-112 -643h942l112 643h13l-242 -1378h-12l127 723h-942l-127 -723h-13z" />
<glyph unicode="&#x1f2e;" horiz-adv-x="1253" d="M-344 1313q68 104 160 104q33 0 118.5 -46t124.5 -46q79 0 140 90l10 -8q-68 -96 -152 -96q-41 0 -126 46t-115 46q-89 0 -148 -94zM-174 901q119 130 119 217q0 78 -105 113l6 14q115 -42 115 -123q0 -88 -127 -229zM61 0l242 1378h12l-112 -643h942l112 643h13 l-242 -1378h-12l127 723h-942l-127 -723h-13z" />
<glyph unicode="&#x1f2f;" horiz-adv-x="1253" d="M-358 1296q69 105 159 105q33 0 119 -46t125 -46q78 0 139 90l11 -8q-69 -97 -152 -97q-41 0 -126.5 46t-115.5 46q-88 0 -147 -94zM-199 1051q0 127 168 178l2 -15q-153 -44 -153 -163q0 -76 53 -166l-12 -8q-58 102 -58 174zM61 0l242 1378h12l-112 -643h942l112 643 h13l-242 -1378h-12l127 723h-942l-127 -723h-13z" />
<glyph unicode="&#x1f30;" horiz-adv-x="337" d="M96 111l154 868h10l-154 -868q-5 -34 -4 -59.5t27.5 -37.5t83.5 -6l-2 -8q-14 -2 -37 -2q-58 0 -73 27.5t-5 85.5zM244 1124q121 129 121 215q0 80 -105 115l4 14q115 -41 115 -122q0 -91 -125 -230z" />
<glyph unicode="&#x1f31;" horiz-adv-x="337" d="M96 111l154 868h10l-154 -868q-5 -34 -4 -59.5t27.5 -37.5t83.5 -6l-2 -8q-14 -2 -37 -2q-58 0 -73 27.5t-5 85.5zM231 1288q0 127 170 180l2 -14q-155 -47 -155 -164q0 -71 53 -166l-10 -8q-60 102 -60 172z" />
<glyph unicode="&#x1f32;" horiz-adv-x="337" d="M96 111l154 868h10l-154 -868q-5 -34 -4 -59.5t27.5 -37.5t83.5 -6l-2 -8q-14 -2 -37 -2q-58 0 -73 27.5t-5 85.5zM104 1124q121 132 121 217q0 78 -104 113l6 14q115 -41 115 -125q0 -86 -127 -227zM279 1460l16 10l117 -350l-13 -6z" />
<glyph unicode="&#x1f33;" horiz-adv-x="337" d="M96 111l154 868h10l-154 -868q-5 -34 -4 -59.5t27.5 -37.5t83.5 -6l-2 -8q-14 -2 -37 -2q-58 0 -73 27.5t-5 85.5zM98 1292q0 129 170 181l2 -15q-155 -46 -155 -164q0 -81 51 -168l-8 -6q-60 102 -60 172zM313 1464l17 9l114 -349l-12 -6z" />
<glyph unicode="&#x1f34;" horiz-adv-x="337" d="M96 111l154 868h10l-154 -868q-5 -34 -4 -59.5t27.5 -37.5t83.5 -6l-2 -8q-14 -2 -37 -2q-58 0 -73 27.5t-5 85.5zM172 1124q121 132 121 217q0 78 -105 113l7 14q114 -41 114 -125q0 -86 -127 -227zM301 1120l225 350l15 -10l-232 -346z" />
<glyph unicode="&#x1f35;" horiz-adv-x="337" d="M96 111l154 868h10l-154 -868q-5 -34 -4 -59.5t27.5 -37.5t83.5 -6l-2 -8q-14 -2 -37 -2q-58 0 -73 27.5t-5 85.5zM182 1286q0 134 168 184l2 -12q-153 -47 -153 -170q0 -75 51 -166l-10 -6q-58 101 -58 170zM303 1120l238 350l12 -8l-242 -348z" />
<glyph unicode="&#x1f36;" horiz-adv-x="337" d="M45 1491q68 104 160 104q33 0 119 -46t125 -46q78 0 139 90l10 -8q-68 -96 -152 -96q-41 0 -126 46t-115 46q-89 0 -148 -94zM96 111l154 868h10l-154 -868q-5 -34 -4 -59.5t27.5 -37.5t83.5 -6l-2 -8q-14 -2 -37 -2q-58 0 -73 27.5t-5 85.5zM215 1079q119 130 119 217 q0 78 -105 113l7 14q114 -42 114 -123q0 -88 -127 -229z" />
<glyph unicode="&#x1f37;" horiz-adv-x="337" d="M63 1516q68 104 160 104q33 0 119 -46t125 -46q78 0 139 90l10 -8q-69 -97 -151 -97q-41 0 -126.5 46.5t-115.5 46.5q-87 0 -147 -95zM96 111l154 868h10l-154 -868q-5 -34 -4 -59.5t27.5 -37.5t83.5 -6l-2 -8q-14 -2 -37 -2q-58 0 -73 27.5t-5 85.5zM223 1270 q0 127 168 178l2 -14q-153 -44 -153 -164q0 -76 53 -166l-12 -8q-58 102 -58 174z" />
<glyph unicode="&#x1f38;" horiz-adv-x="380" d="M-59 1022q120 128 120 215q0 80 -104 115l4 14q115 -41 115 -123q0 -90 -125 -229zM102 0l242 1378h12l-241 -1378h-13z" />
<glyph unicode="&#x1f39;" horiz-adv-x="380" d="M-29 1186q0 127 170 180l2 -14q-155 -47 -155 -164q0 -71 53 -166l-10 -8q-60 102 -60 172zM102 0l242 1378h12l-241 -1378h-13z" />
<glyph unicode="&#x1f3a;" horiz-adv-x="380" d="M-197 1022q121 132 121 217q0 78 -104 113l6 14q115 -41 115 -125q0 -86 -127 -227zM-23 1358l17 10l117 -350l-13 -6zM102 0l242 1378h12l-241 -1378h-13z" />
<glyph unicode="&#x1f3b;" horiz-adv-x="380" d="M-221 1186q0 128 170 180l2 -14q-156 -46 -156 -164q0 -81 51 -168l-8 -6q-59 101 -59 172zM-6 1358l16 8l115 -348l-12 -6zM102 0l242 1378h12l-241 -1378h-13z" />
<glyph unicode="&#x1f3c;" horiz-adv-x="380" d="M-195 1022q121 132 121 217q0 78 -104 113l6 14q115 -41 115 -125q0 -86 -127 -227zM-66 1018l226 350l14 -10l-231 -346zM102 0l242 1378h12l-241 -1378h-13z" />
<glyph unicode="&#x1f3d;" horiz-adv-x="380" d="M-186 1184q0 134 168 184l2 -12q-154 -47 -154 -170q0 -75 51 -166l-10 -6q-57 99 -57 170zM-66 1018l238 350l12 -8l-241 -348zM102 0l242 1378h12l-241 -1378h-13z" />
<glyph unicode="&#x1f3e;" horiz-adv-x="380" d="M-313 1313q68 104 159 104q33 0 119 -46t125 -46q78 0 139 90l11 -8q-68 -96 -152 -96q-41 0 -126.5 46t-115.5 46q-88 0 -147 -94zM-143 901q118 129 118 217q0 78 -104 113l6 14q115 -42 115 -123q0 -88 -127 -229zM102 0l242 1378h12l-241 -1378h-13z" />
<glyph unicode="&#x1f3f;" horiz-adv-x="380" d="M-307 1294q69 105 160 105q33 0 118.5 -46t124.5 -46q79 0 140 90l10 -8q-69 -97 -152 -97q-41 0 -126 46t-115 46q-89 0 -148 -94zM-147 1049q0 128 167 178l3 -15q-154 -44 -154 -163q0 -76 53 -166l-12 -9q-57 100 -57 175zM102 0l242 1378h12l-241 -1378h-13z" />
<glyph unicode="&#x1f40;" horiz-adv-x="993" d="M86 311q0 139 32.5 261t94.5 215.5t159 147.5t218 54q165 0 242 -91.5t77 -252.5t-40.5 -288.5t-110 -205.5t-156.5 -118.5t-184 -40.5q-169 0 -250.5 79t-81.5 240zM98 313q0 -156 77.5 -232.5t244.5 -76.5q94 0 178.5 39.5t152 115.5t107 201t39.5 283q0 157 -74 245.5 t-235 88.5q-118 0 -212.5 -53.5t-154.5 -145.5t-91.5 -211t-31.5 -254zM582 1124q120 128 120 215q0 80 -104 115l4 14q115 -41 115 -122q0 -91 -125 -230z" />
<glyph unicode="&#x1f41;" horiz-adv-x="993" d="M86 311q0 139 32.5 261t94.5 215.5t159 147.5t218 54q165 0 242 -91.5t77 -252.5t-40.5 -288.5t-110 -205.5t-156.5 -118.5t-184 -40.5q-169 0 -250.5 79t-81.5 240zM98 313q0 -156 77.5 -232.5t244.5 -76.5q94 0 178.5 39.5t152 115.5t107 201t39.5 283q0 157 -74 245.5 t-235 88.5q-118 0 -212.5 -53.5t-154.5 -145.5t-91.5 -211t-31.5 -254zM584 1288q0 127 170 180l2 -14q-156 -47 -156 -164q0 -71 53 -166l-10 -8q-59 101 -59 172z" />
<glyph unicode="&#x1f42;" horiz-adv-x="993" d="M86 311q0 139 32.5 261t94.5 215.5t159 147.5t218 54q165 0 242 -91.5t77 -252.5t-40.5 -288.5t-110 -205.5t-156.5 -118.5t-184 -40.5q-169 0 -250.5 79t-81.5 240zM98 313q0 -156 77.5 -232.5t244.5 -76.5q94 0 178.5 39.5t152 115.5t107 201t39.5 283q0 157 -74 245.5 t-235 88.5q-118 0 -212.5 -53.5t-154.5 -145.5t-91.5 -211t-31.5 -254zM432 1124q121 132 121 217q0 78 -104 113l6 14q114 -41 114 -125q0 -86 -127 -227zM606 1460l17 10l116 -350l-12 -6z" />
<glyph unicode="&#x1f43;" horiz-adv-x="993" d="M86 311q0 139 32.5 261t94.5 215.5t159 147.5t218 54q165 0 242 -91.5t77 -252.5t-40.5 -288.5t-110 -205.5t-156.5 -118.5t-184 -40.5q-169 0 -250.5 79t-81.5 240zM98 313q0 -156 77.5 -232.5t244.5 -76.5q94 0 178.5 39.5t152 115.5t107 201t39.5 283q0 157 -74 245.5 t-235 88.5q-118 0 -212.5 -53.5t-154.5 -145.5t-91.5 -211t-31.5 -254zM438 1288q0 128 170 180l2 -14q-155 -46 -155 -164q0 -81 51 -168l-8 -6q-60 102 -60 172zM653 1460l17 8l114 -348l-12 -6z" />
<glyph unicode="&#x1f44;" horiz-adv-x="993" d="M86 311q0 139 32.5 261t94.5 215.5t159 147.5t218 54q165 0 242 -91.5t77 -252.5t-40.5 -288.5t-110 -205.5t-156.5 -118.5t-184 -40.5q-169 0 -250.5 79t-81.5 240zM98 313q0 -156 77.5 -232.5t244.5 -76.5q94 0 178.5 39.5t152 115.5t107 201t39.5 283q0 157 -74 245.5 t-235 88.5q-118 0 -212.5 -53.5t-154.5 -145.5t-91.5 -211t-31.5 -254zM489 1124q121 132 121 217q0 78 -104 113l6 14q115 -41 115 -125q0 -86 -127 -227zM618 1120l226 350l14 -10l-231 -346z" />
<glyph unicode="&#x1f45;" horiz-adv-x="993" d="M86 311q0 139 32.5 261t94.5 215.5t159 147.5t218 54q165 0 242 -91.5t77 -252.5t-40.5 -288.5t-110 -205.5t-156.5 -118.5t-184 -40.5q-169 0 -250.5 79t-81.5 240zM98 313q0 -156 77.5 -232.5t244.5 -76.5q94 0 178.5 39.5t152 115.5t107 201t39.5 283q0 157 -74 245.5 t-235 88.5q-118 0 -212.5 -53.5t-154.5 -145.5t-91.5 -211t-31.5 -254zM487 1286q0 134 168 184l2 -12q-153 -47 -153 -170q0 -75 51 -166l-10 -6q-58 101 -58 170zM608 1120l238 350l12 -8l-242 -348z" />
<glyph unicode="&#x1f48;" horiz-adv-x="1341" d="M-4 1022q121 129 121 215q0 80 -105 115l4 14q115 -41 115 -123q0 -90 -125 -229zM137 446q0 151 27 289t84 258t138.5 208.5t196.5 139t251 50.5q438 0 438 -476q0 -103 -17 -207t-50.5 -209t-90.5 -195.5t-130.5 -160.5t-177 -110.5t-224.5 -40.5q-222 0 -333.5 115.5 t-111.5 338.5zM150 451q0 -226 108 -336.5t326 -110.5q117 0 217 38.5t172.5 106t128.5 156t90 191t51 207.5t17 210q0 108 -22.5 191t-72 146.5t-133.5 96.5t-201 33q-132 0 -244 -49.5t-191.5 -136t-135.5 -204t-83 -254t-27 -285.5z" />
</font>
</defs>
</svg>
