<?xml version="1.0" standalone="no"?>
<!DOCTYPE svg PUBLIC "-//W3C//DTD SVG 1.1//EN" "http://www.w3.org/Graphics/SVG/1.1/DTD/svg11.dtd" >
<svg xmlns="http://www.w3.org/2000/svg" xmlns:xlink="http://www.w3.org/1999/xlink" version="1.1">
<metadata></metadata>
<defs>
<font id="pf_encore_sans_problack" horiz-adv-x="3723" >
<font-face units-per-em="2048" ascent="1536" descent="-512" />
<missing-glyph horiz-adv-x="665" />
<glyph unicode="fj" horiz-adv-x="1374" d="M39 768v197l162 39v83q0 99 27 174.5t71 122t107.5 76t128.5 40.5t141 11q142 0 354 -47v-266q-204 27 -262 27q-103 0 -149 -38.5t-46 -148.5v-34h668v-1113q0 -71 -15.5 -126t-51 -99.5t-100 -68t-156.5 -23.5h-199v276h29q77 0 98.5 27t21.5 98v793h-295v-768h-372 v768h-162z" />
<glyph unicode="ffj" horiz-adv-x="2033" d="M39 768v197l162 39v108q0 358 403 358q92 0 209 -20v-256q-62 4 -90 4q-80 0 -115 -26t-35 -103v-65h287v92q0 99 27 174.5t71 122t107.5 76t128.5 40.5t141 11q143 0 355 -47v-267q-156 27 -263 27q-103 0 -148.5 -38t-45.5 -148v-43h668v-1113q0 -71 -15.5 -126 t-51.5 -99.5t-100.5 -68t-156.5 -23.5h-199v276h29q77 0 99 27t22 98v793h-295v-768h-373v768h-287v-768h-372v768h-162z" />
<glyph unicode="fb" horiz-adv-x="2111" d="M39 768v197l162 39v61q0 99 27 174.5t71 122t107.5 76t128.5 40.5t141 11q116 0 289 -33l317 -2v-375q0 -142 -22 -209h12q126 152 334 152q110 0 190 -37t127 -107t69.5 -161.5t22.5 -208.5q0 -85 -12.5 -158.5t-43 -141.5t-78 -116t-122 -77t-170.5 -29 q-110 0 -198.5 44t-122.5 113h-11q-5 -94 -34 -143h-322v1190q-85 10 -133 10q-105 0 -150 -33t-45 -133v-30h246v-236h-246v-768h-372v768h-162zM1268 436q0 -94 44 -151.5t130 -57.5q186 0 186 273q0 135 -44 201.5t-140 66.5q-85 0 -130.5 -67.5t-45.5 -168.5v-96z" />
<glyph unicode="ffb" horiz-adv-x="2740" d="M39 768v197l162 39v88q0 358 403 358q92 0 209 -20v-256q-62 4 -90 4q-80 0 -115 -26t-35 -103v-45h289v61q0 99 27 174.5t71 122t107.5 76t128.5 40.5t141 11q25 0 49.5 -1.5t42.5 -3.5t44 -6t38 -6t42 -8l40 -8l318 -2v-375q0 -139 -23 -209h13q126 152 333 152 q110 0 190 -37t127.5 -107t70 -161.5t22.5 -208.5q0 -85 -12.5 -158.5t-43 -141.5t-78 -116t-122 -77t-170.5 -29q-110 0 -199 44t-123 113h-10q-4 -92 -35 -143h-321v1190q-78 8 -119 8q-81 0 -128.5 -35.5t-47.5 -128.5v-30h215v-236h-215v-768h-373v768h-289v-768h-372 v768h-162zM1896 436q0 -94 44.5 -151.5t130.5 -57.5q186 0 186 273q0 135 -44 201.5t-140 66.5q-85 0 -131 -67.5t-46 -168.5v-96z" />
<glyph unicode="fh" horiz-adv-x="2054" d="M37 768v197l162 39v61q0 99 27 174.5t71 122t107.5 76t128.5 40.5t141 11q126 0 289 -31h303v-391q0 -154 -29 -231h12q32 54 78.5 92.5t96.5 57t91.5 26.5t79.5 8q190 0 271.5 -95.5t81.5 -281.5v-643h-377v602q0 162 -133 162q-37 0 -66.5 -12.5t-46 -31t-27.5 -44 t-14.5 -47.5t-3.5 -45v-584h-381v1190q-85 10 -133 10q-105 0 -150 -33t-45 -133v-30h246v-236h-246v-768h-372v768h-162z" />
<glyph unicode="ffh" horiz-adv-x="2684" d="M39 768v197l162 39v88q0 358 403 358q92 0 209 -20v-256q-62 4 -90 4q-80 0 -115 -26t-35 -103v-45h289v61q0 99 27 174.5t71 122t107.5 76t128.5 40.5t141 11q25 0 49.5 -1.5t42.5 -3.5t44 -6t38 -6t42 -8l40 -8h303v-391q0 -157 -28 -231h12q32 54 78.5 92.5t96.5 57 t91.5 26.5t79.5 8q190 0 271 -95.5t81 -281.5v-641h-376v600q0 162 -134 162q-46 0 -79 -18t-49 -47.5t-22.5 -57.5t-6.5 -57v-582h-381v1188q-65 10 -119 10q-81 0 -128.5 -35.5t-47.5 -128.5v-30h215v-236h-215v-768h-373v768h-289v-768h-372v768h-162z" />
<glyph unicode="fk" horiz-adv-x="2035" d="M39 768v197l162 39v61q0 99 27 174.5t71 122t107.5 76t128.5 40.5t141 11q126 0 289 -31h313v-756h123l221 304h397l-362 -461l373 -545h-426l-256 416h-70v-416h-377v1190q-85 10 -133 10q-105 0 -150 -33t-45 -133v-30h246v-236h-246v-768h-372v768h-162z" />
<glyph unicode="ffk" horiz-adv-x="2664" d="M39 768v197l162 39v88q0 358 403 358q92 0 209 -20v-256q-62 4 -90 4q-80 0 -115 -26t-35 -103v-45h289v61q0 99 27 174.5t71 122t107.5 76t128.5 40.5t141 11q25 0 49.5 -1.5t42.5 -3.5t44 -6t38 -6t42 -8l40 -8h314v-756h123l221 304h397l-362 -461l372 -543h-426 l-256 414h-69v-414h-377v1188q-65 10 -119 10q-81 0 -128.5 -35.5t-47.5 -128.5v-30h215v-236h-215v-768h-373v768h-289v-768h-372v768h-162z" />
<glyph unicode="ry" horiz-adv-x="1853" d="M129 0v1006h326q43 -64 43 -205h10q34 68 85 114.5t105 70.5t124 34.5t131 9t137 -9.5l104 -422q59 -222 72 -315h12q21 125 78 323l112 400h375l-362 -1029q-21 -60 -35 -95t-38 -84t-47.5 -77.5t-61 -61t-81 -49.5t-103 -28.5t-132.5 -11.5h-174v283h125q73 0 112 21 t58 67l29 75h-89l-227 684q-168 0 -237.5 -80.5t-69.5 -242.5v-377h-381z" />
<glyph unicode="ff" horiz-adv-x="1585" d="M39 768v197l162 39v108q0 187 96.5 275t302.5 88q121 0 227 -27v-256q-76 8 -114 8q-72 0 -106 -28.5t-34 -102.5v-63h326v147q0 187 96.5 275t302.5 88q139 0 261 -31v-256q-114 12 -148 12q-72 0 -105.5 -28.5t-33.5 -102.5v-104h278v-238h-278v-768h-373v768h-326 v-768h-372v768h-162z" />
<glyph unicode="fi" horiz-adv-x="1374" d="M39 768v197l162 39v83q0 99 27 174.5t71 122t107.5 76t128.5 40.5t141 11q142 0 354 -47v-266q-204 27 -262 27q-103 0 -149 -38.5t-46 -148.5v-34h668v-1004h-375v768h-293v-768h-372v768h-162z" />
<glyph unicode="fl" horiz-adv-x="1406" d="M39 768v197l162 39v61q0 99 27 174.5t71 122t107.5 76t128.5 40.5t141 11q116 0 289 -33h309l-2 -1456h-371v1190q-85 10 -133 10q-105 0 -150 -33t-45 -133v-30h246v-236h-246v-768h-372v768h-162z" />
<glyph unicode="ffi" horiz-adv-x="2033" d="M39 768v197l162 39v108q0 358 403 358q92 0 209 -20v-256q-62 4 -90 4q-80 0 -115 -26t-35 -103v-65h287v92q0 99 27 174.5t71 122t107.5 76t128.5 40.5t141 11q143 0 355 -47v-267q-156 27 -263 27q-103 0 -148.5 -38t-45.5 -148v-43h668v-1004h-375v768h-293v-768h-373 v768h-287v-768h-372v768h-162z" />
<glyph unicode="ffl" horiz-adv-x="2068" d="M39 768v197l162 39v88q0 358 403 358q92 0 209 -20v-256q-62 4 -90 4q-80 0 -115 -26t-35 -103v-45h289v61q0 99 27 174.5t71 122t107.5 76t128.5 40.5t141 11q25 0 49.5 -1.5t42.5 -3.5t44 -6t38 -6t42 -8l40 -8h308v-1456h-371v1190q-78 8 -119 8q-81 0 -128.5 -35.5 t-47.5 -128.5v-30h215v-236h-215v-768h-373v768h-289v-768h-372v768h-162z" />
<glyph unicode="ft" horiz-adv-x="1632" d="M39 768v197l162 39v131q0 187 96.5 274.5t302.5 87.5q138 0 260 -31v-256q-123 13 -147 13q-72 0 -106 -28.5t-34 -102.5v-86h324l84 299h272v-299h279v-238h-279v-381q0 -76 30 -101.5t120 -25.5q97 0 164 12v-258q-102 -26 -283 -26q-192 0 -296.5 94.5t-104.5 279.5 v406h-310v-768h-372v768h-162z" />
<glyph unicode=" "  horiz-adv-x="665" />
<glyph unicode="&#x09;" horiz-adv-x="665" />
<glyph unicode="&#xa0;" horiz-adv-x="665" />
<glyph unicode="!" horiz-adv-x="716" d="M184 1389h361l-41 -967h-285zM186 158q0 75 50 125.5t124 50.5q75 0 126 -50.5t51 -125.5q0 -74 -51 -124t-126 -50q-74 0 -124 50t-50 124z" />
<glyph unicode="&#x22;" horiz-adv-x="849" d="M145 1417h248l-22 -497h-199zM467 1417h250l-29 -497h-199z" />
<glyph unicode="#" horiz-adv-x="1433" d="M137 387l31 191h213l31 186h-213l30 188h215l64 363h227l-65 -363h186l59 363h226l-60 -363h215l-32 -188h-215l-33 -186h219l-33 -191h-219l-65 -387h-230l70 387h-187l-63 -387h-227l65 387h-209zM606 578h185l34 186h-186z" />
<glyph unicode="$" horiz-adv-x="1433" d="M125 389q0 38 6 68h350q3 -167 166 -199v283q-119 17 -205 44.5t-153.5 73t-101 115t-33.5 164.5q0 50 14 99t49.5 101.5t89 94t141.5 70.5t199 36v148h117v-148q101 -5 189.5 -30.5t159 -71.5t111 -118t40.5 -161q0 -33 -7 -77h-352q-1 69 -38.5 114.5t-102.5 59.5v-234 q162 -29 270 -69t168 -95.5t84.5 -118.5t24.5 -149q0 -176 -139.5 -287t-407.5 -118v-131h-117v133q-153 9 -267.5 53.5t-184.5 134t-70 215.5zM530 942q0 -35 27 -58t90 -40v211q-60 -10 -88.5 -41t-28.5 -72zM764 252q87 7 126.5 45.5t39.5 95.5q0 49 -36.5 78.5 t-129.5 50.5v-270z" />
<glyph unicode="%" horiz-adv-x="1996" d="M35 969q0 96 24.5 173.5t74 136t131 90.5t188.5 32q114 0 197.5 -35.5t129.5 -98.5t67 -136.5t21 -161.5q0 -64 -12.5 -121.5t-43 -111t-77 -92.5t-119 -62t-163.5 -23q-116 0 -198.5 29t-130 84.5t-68.5 128t-21 168.5zM330 969q0 -104 30 -152.5t91 -48.5 q118 0 118 201q0 223 -118 223q-121 0 -121 -223zM455 -57l872 1503h213l-876 -1503h-209zM1120 399q0 96 24.5 173.5t74 136t131 90.5t188.5 32q92 0 164.5 -24t119 -64t77 -96.5t43 -117.5t12.5 -130q0 -81 -21.5 -151t-67.5 -129.5t-130 -94t-197 -34.5 q-116 0 -198.5 28.5t-130 84t-68.5 128t-21 168.5zM1415 399q0 -104 30 -152t91 -48q119 0 119 200q0 224 -119 224q-121 0 -121 -224z" />
<glyph unicode="&#x26;" horiz-adv-x="1673" d="M119 367q0 108 67 221.5t203 197.5q-121 137 -121 277q0 63 28.5 124t79.5 109t128 77.5t166 29.5q177 0 284 -91t107 -229q-12 -191 -238 -354q134 -184 342.5 -363.5t401.5 -281.5l-156 -211q-141 71 -255 148t-216.5 172.5t-177 178t-184.5 214.5q-41 -34 -72 -91.5 t-31 -107.5q0 -84 65 -131t171 -47q114 0 209.5 32t154.5 81.5t100.5 110t58.5 115.5t17 101q0 115 -155 193l80 188q173 -25 267.5 -124t94.5 -255q0 -57 -14 -120t-45.5 -131.5t-78.5 -132.5t-117.5 -122t-157 -100.5t-203.5 -68t-250 -25.5q-243 0 -398 120.5t-155 295.5 zM604 1067q0 -59 43 -131q70 74 70 151q0 68 -51 68q-32 0 -47 -29.5t-15 -58.5z" />
<glyph unicode="'" horiz-adv-x="591" d="M166 1417h248l-23 -497h-198z" />
<glyph unicode="(" horiz-adv-x="718" d="M76 616q0 227 115 463t303 432l190 -137q-126 -152 -197 -355t-71 -392q0 -207 68 -402t192 -346l-178 -147q-189 194 -305.5 427.5t-116.5 456.5z" />
<glyph unicode=")" horiz-adv-x="718" d="M78 1374l190 137q188 -196 303 -432t115 -463q0 -223 -116.5 -456.5t-305.5 -427.5l-178 147q124 151 192 346t68 402q0 189 -71 392t-197 355z" />
<glyph unicode="*" horiz-adv-x="1021" d="M78 1038l78 215l237 -98l-8 244h248l-15 -244q1 0 234 98l90 -215l-262 -77l168 -203l-207 -144l-133 209q-17 -31 -129 -209l-213 142l166 209q-26 7 -117.5 34.5t-136.5 38.5z" />
<glyph unicode="+" horiz-adv-x="1433" d="M254 442v250h319v307h289v-307h316v-250h-316v-297h-289v297h-319z" />
<glyph unicode="," horiz-adv-x="614" d="M109 -414l129 416q-54 20 -87.5 69.5t-33.5 110.5q0 83 56 140t138 57q84 0 139.5 -55.5t55.5 -137.5q0 -58 -27 -114l-264 -527z" />
<glyph unicode="-" horiz-adv-x="1073" d="M176 420v262h719v-262h-719z" />
<glyph unicode="." horiz-adv-x="604" d="M109 176q0 83 55 139t137 56q83 0 139 -56t56 -139q0 -82 -56 -137t-139 -55q-82 0 -137 55t-55 137z" />
<glyph unicode="/" horiz-adv-x="1218" d="M2 -90l907 1560h308l-908 -1560h-307z" />
<glyph unicode="0" horiz-adv-x="1433" d="M74 657q0 158 38 283.5t115.5 218.5t202.5 143t291 50q142 0 253 -37.5t182 -101t117.5 -154t65.5 -189t19 -213.5q0 -105 -19.5 -199t-66.5 -182t-118.5 -151t-183 -101t-251.5 -38q-143 0 -253.5 32t-184 89t-120.5 142t-67 184.5t-20 223.5zM451 657q0 -212 65 -308.5 t201 -96.5q262 0 262 405q0 205 -62 313.5t-200 108.5q-76 0 -128.5 -28.5t-82.5 -85t-42.5 -131t-12.5 -177.5z" />
<glyph unicode="1" horiz-adv-x="1433" d="M188 0v266h338v764l-284 -39v221l379 123h278v-1069h344v-266h-1055z" />
<glyph unicode="2" horiz-adv-x="1433" d="M139 0v141q0 84 23 156t62.5 129t105.5 112t139 100t176 99q135 70 190.5 116t55.5 110q0 120 -162 120q-32 0 -61.5 -10t-57.5 -31.5t-46 -62t-21 -94.5h-355q-4 36 -4 53q0 81 30 149.5t81 117t120 82t147.5 49.5t162.5 16q142 0 249 -29t170.5 -81.5t94.5 -119.5 t31 -149q0 -78 -27 -143t-85 -121.5t-129.5 -104t-180.5 -104.5q-256 -136 -324 -234h770v-266h-1155z" />
<glyph unicode="3" horiz-adv-x="1433" d="M143 350q0 30 11 90h352q3 -54 22.5 -93t50 -58.5t60.5 -28t63 -8.5q102 0 155.5 50.5t53.5 135.5q0 199 -301 199q-53 0 -80 -4l-102 180l307 244l-6 14h-508v264h1010v-239l-346 -246l6 -12q190 -15 293.5 -118t103.5 -267q0 -226 -154.5 -347.5t-443.5 -121.5 q-103 0 -194.5 18.5t-173.5 59t-130.5 114.5t-48.5 174z" />
<glyph unicode="4" horiz-adv-x="1433" d="M113 289v252l649 796h348v-784h209v-264h-209v-289h-362v289h-635zM494 553h254v309h-11l-243 -297v-12z" />
<glyph unicode="5" horiz-adv-x="1433" d="M152 350q0 35 10 90h350q3 -54 21.5 -93t47.5 -58.5t59 -28t62 -8.5q56 0 97.5 17t63 46t31 60t9.5 65q0 60 -19.5 105t-54.5 70.5t-77.5 38t-92.5 12.5q-66 0 -139.5 -18.5t-122.5 -47.5l-186 113l113 622h884v-262h-604l-35 -162q66 4 101 4q106 0 195.5 -15 t167.5 -49.5t132 -87t84.5 -131.5t30.5 -179q0 -220 -157 -344.5t-433 -124.5q-81 0 -154.5 11t-145 38t-123.5 67.5t-83.5 104.5t-31.5 145z" />
<glyph unicode="6" horiz-adv-x="1433" d="M135 627q0 115 17 215t60.5 196t110.5 164t174 109t244 41q244 0 379 -85.5t135 -246.5q0 -17 -4 -53h-354q-11 52 -52.5 85t-111.5 33q-107 0 -162.5 -72t-60.5 -200l14 -2q88 76 250 76q247 0 384.5 -116t137.5 -316q0 -217 -148.5 -343t-432.5 -126q-282 0 -431 162 t-149 479zM537 440q0 -78 45.5 -131t140.5 -53q104 0 150.5 54.5t46.5 135.5q0 84 -49.5 130.5t-147.5 46.5q-83 0 -134.5 -50.5t-51.5 -132.5z" />
<glyph unicode="7" horiz-adv-x="1433" d="M178 1073v262h1075v-227l-546 -1108h-400l535 1073h-664z" />
<glyph unicode="8" horiz-adv-x="1433" d="M139 397q0 37 12 79.5t37.5 89.5t74.5 87t114 62v12q-59 20 -99.5 53t-58.5 71t-24.5 67.5t-6.5 58.5q0 65 32 129.5t93.5 121.5t166 92.5t235.5 35.5q119 0 213.5 -24t152.5 -61.5t96 -88.5t53 -101.5t15 -103.5q0 -27 -8.5 -57t-28 -66.5t-59.5 -70.5t-96 -56l-2 -8 q241 -80 241 -322q0 -82 -40 -155.5t-112 -130t-182.5 -90t-242.5 -33.5q-262 0 -419 109.5t-157 299.5zM508 399q0 -75 65 -117t142 -42q89 0 151 45t62 114q0 168 -205 199q-103 -20 -159 -72t-56 -127zM557 963q0 -51 44.5 -87.5t123.5 -54.5q75 17 114.5 55.5t39.5 86.5 q0 62 -44.5 95.5t-119.5 33.5q-67 0 -112.5 -35.5t-45.5 -93.5z" />
<glyph unicode="9" horiz-adv-x="1433" d="M135 872q0 218 149.5 349t432.5 131q280 0 429.5 -162.5t149.5 -478.5q0 -131 -18 -237t-61 -199t-112 -155.5t-175.5 -98t-245.5 -35.5q-246 0 -385 85.5t-139 245.5q0 18 4 54h354q11 -51 57 -85t117 -34q111 0 170 68.5t60 203.5l-15 2q-87 -75 -250 -75 q-248 0 -385 111t-137 310zM512 891q0 -84 49.5 -130t147.5 -46q83 0 134.5 50t51.5 132q0 78 -45.5 131t-140.5 53q-104 0 -150.5 -54.5t-46.5 -135.5z" />
<glyph unicode=":" horiz-adv-x="604" d="M109 176q0 83 55 139t137 56q83 0 139 -56t56 -139q0 -82 -56 -137t-139 -55q-82 0 -137 55t-55 137zM109 709q0 83 55 138.5t137 55.5q83 0 139 -55.5t56 -138.5q0 -82 -56 -137.5t-139 -55.5q-82 0 -137 55.5t-55 137.5z" />
<glyph unicode=";" horiz-adv-x="604" d="M98 -414l129 416q-54 20 -87.5 69.5t-33.5 110.5q0 83 56.5 140t138.5 57q84 0 139.5 -55.5t55.5 -137.5q0 -58 -27 -114l-264 -527zM109 709q0 83 55 138.5t137 55.5q83 0 139 -55.5t56 -138.5q0 -82 -56 -137.5t-139 -55.5q-82 0 -137 55.5t-55 137.5z" />
<glyph unicode="&#x3c;" horiz-adv-x="1433" d="M254 457v229l924 412v-293l-584 -238l584 -237v-293z" />
<glyph unicode="=" horiz-adv-x="1433" d="M248 262v244h936v-244h-936zM248 625v245h936v-245h-936z" />
<glyph unicode="&#x3e;" horiz-adv-x="1433" d="M254 37v293l584 237l-584 238v293l924 -412v-229z" />
<glyph unicode="?" horiz-adv-x="1155" d="M35 1042q0 129 72 221.5t185 135.5t251 43q259 -2 394.5 -85t135.5 -263q0 -57 -21 -110t-55 -96t-75.5 -84t-82.5 -80t-75 -77t-55 -82.5t-21 -89.5v-53h-303v65q0 71 17 129.5t44 98.5t59.5 74.5t65.5 63t60 57t44 65t17 78.5q0 68 -41 99.5t-106 31.5t-112.5 -46 t-51.5 -147h-342q-4 36 -4 51zM356 158q0 75 50 125.5t124 50.5q75 0 126 -50.5t51 -125.5q0 -74 -51 -124t-126 -50q-74 0 -124 50t-50 124z" />
<glyph unicode="@" horiz-adv-x="1855" d="M119 643q0 167 62 316t171 257t266 171t338 63q229 0 410.5 -86t286 -248t104.5 -375q0 -257 -111 -390.5t-335 -133.5q-14 0 -30.5 1.5t-45.5 5.5t-55.5 14.5t-54 26t-48 42t-30.5 60.5l-13 -2q-40 -59 -106.5 -93t-141.5 -34q-264 0 -264 249q0 256 396 256 q34 0 108 -4v31q0 100 -92 100q-76 0 -90 -67h-260q-2 10 -2 37q0 61 32 107.5t85.5 72.5t114.5 38.5t128 12.5q373 0 373 -305v-234q0 -86 74 -86q44 0 79 26t45 83q13 90 12.5 177.5t-34 178.5t-98.5 158q-79 84 -194 128t-236 44q-171 0 -310 -76t-219 -213t-80 -309 q0 -174 80 -311.5t222 -214t321 -76.5q119 0 221 16t246 72l69 -203q-278 -94 -528 -94q-186 0 -345.5 57t-274.5 160.5t-180.5 256.5t-65.5 337zM811 510q0 -38 26 -57t60 -19q129 0 129 131v27q-62 4 -74 4q-141 0 -141 -86z" />
<glyph unicode="A" horiz-adv-x="1474" d="M-2 0l539 1391h438l504 -1391h-406l-90 299h-489l-105 -299h-391zM598 571h287l-54 187q-52 181 -73 295h-19q-42 -178 -80 -295z" />
<glyph unicode="B" horiz-adv-x="1449" d="M147 0v1386h707q93 0 169 -20t135 -60.5t91.5 -109t32.5 -158.5q0 -33 -9.5 -71t-31.5 -81t-66.5 -80.5t-105.5 -57.5v-11q64 -12 115.5 -40.5t82 -63t50.5 -76t27.5 -76.5t7.5 -67q0 -189 -115 -301.5t-332 -112.5h-758zM532 870h234q59 0 95 32.5t36 84.5 q0 53 -34.5 83t-92.5 30h-238v-230zM537 285h249q84 0 126 39t42 110t-47.5 111.5t-122.5 40.5h-247v-301z" />
<glyph unicode="C" horiz-adv-x="1490" d="M106 688q0 145 36 265t99.5 203t151 140.5t189 84t215.5 26.5q163 0 296.5 -50t217.5 -154.5t84 -246.5q0 -17 -4 -49h-375q-1 101 -62.5 154t-169.5 53q-144 0 -211 -108t-67 -318q0 -213 67 -314.5t220 -101.5q109 0 177.5 62t69.5 164h375q4 -25 4 -70 q0 -91 -36 -166.5t-96 -126t-139 -86t-164 -51.5t-173 -16q-705 0 -705 706z" />
<glyph unicode="D" horiz-adv-x="1501" d="M129 0v1386h555q111 0 210 -21t192 -72t160 -129t107 -200.5t40 -277.5q0 -321 -189.5 -503.5t-519.5 -182.5h-555zM516 283h92q56 0 105.5 9.5t103.5 37t92 71t63 118t25 171.5q0 77 -14 140t-36 105.5t-55 74t-66 49t-74 28.5t-73.5 14t-70.5 3h-92v-821z" />
<glyph unicode="E" horiz-adv-x="1318" d="M129 0v1386h1077v-286h-690v-238h629v-284h-629v-293h707v-285h-1094z" />
<glyph unicode="F" horiz-adv-x="1282" d="M145 0v1386h1100v-286h-713v-269h650v-284h-650v-547h-387z" />
<glyph unicode="G" horiz-adv-x="1515" d="M106 680q0 182 51 322t144.5 228t218 132.5t277.5 44.5q117 0 221 -25t190 -75t136.5 -135t50.5 -195q0 -15 -4 -39h-381q-7 84 -65.5 131t-149.5 47q-154 0 -221.5 -107t-67.5 -321q0 -224 67.5 -321t229.5 -97q117 0 181.5 60t64.5 143v27h-148v254h533v-222 q0 -122 -37 -218t-97.5 -157.5t-144.5 -101.5t-172 -56.5t-186 -16.5q-691 0 -691 698z" />
<glyph unicode="H" horiz-adv-x="1568" d="M129 0v1389h387v-527h535v527h389v-1389h-389v575h-535v-575h-387z" />
<glyph unicode="I" horiz-adv-x="667" d="M139 0v1386h389v-1386h-389z" />
<glyph unicode="J" horiz-adv-x="1310" d="M25 395q0 27 8 97h373q1 -52 9 -88.5t27.5 -67.5t56 -46.5t91.5 -15.5q198 0 198 230v885h388v-852q0 -57 -6 -109t-23.5 -109t-45 -104t-73.5 -91t-106 -74t-146 -48t-190 -18q-273 0 -417 101.5t-144 309.5z" />
<glyph unicode="K" horiz-adv-x="1470" d="M129 0v1391h385v-504h90l385 504h449l-529 -650l547 -741h-471l-397 588h-74v-588h-385z" />
<glyph unicode="L" horiz-adv-x="1255" d="M133 0v1386h387v-1099h709v-287h-1096z" />
<glyph unicode="M" horiz-adv-x="1880" d="M129 0l2 1386h434l172 -354q90 -182 193 -436h22q18 48 35 91t39.5 94t32 72t40 84.5t34.5 72.5l180 376h436l2 -1386h-381v750h-18q-50 -126 -121 -271l-137 -278h-308l-135 268q-60 121 -127 285h-14v-754h-381z" />
<glyph unicode="N" horiz-adv-x="1540" d="M123 0v1386h356l291 -393q153 -210 250 -377h18v770h379v-1386h-334l-342 467q-107 142 -223 330l-14 -2v-795h-381z" />
<glyph unicode="O" horiz-adv-x="1658" d="M106 676q0 122 25 228t81 199.5t139.5 160t207 105t277.5 38.5q161 0 287.5 -43t205 -113t130 -167t71.5 -196t20 -210q0 -70 -10.5 -137.5t-35 -137.5t-62 -130.5t-95 -114.5t-129.5 -92t-170.5 -60t-213.5 -22q-163 0 -289.5 36.5t-208 98.5t-134 151.5t-74.5 189 t-22 216.5zM506 682q0 -208 81 -316t244 -108q148 0 232 112.5t84 313.5q0 93 -17.5 170t-53.5 139.5t-98.5 97.5t-146.5 35q-96 0 -161.5 -33t-100.5 -96.5t-49 -138.5t-14 -176z" />
<glyph unicode="P" horiz-adv-x="1370" d="M129 0v1386h653q141 0 247.5 -35t170 -98.5t94.5 -145.5t31 -183q0 -62 -16.5 -122.5t-57 -121.5t-100.5 -107t-155.5 -75t-213.5 -29h-266v-469h-387zM516 754h229q27 0 52.5 4t53.5 16t48 30.5t33.5 50t13.5 71.5q0 94 -57 134t-144 40h-229v-346z" />
<glyph unicode="Q" horiz-adv-x="1658" d="M106 676q0 158 42.5 288t128.5 229.5t228.5 154.5t330.5 55q162 0 287.5 -41t205 -108t130.5 -162.5t71 -196.5t20 -217q0 -94 -17 -180t-53 -167.5t-100 -149.5t-151 -113q74 -36 303 -93l-100 -264q-326 81 -615 273q-159 2 -282 37t-203 95t-131.5 148t-73 188.5 t-21.5 223.5zM506 682q0 -206 83.5 -315t241.5 -109q143 0 229.5 114t86.5 312q0 92 -18.5 170t-56 140t-99.5 97t-142 35q-92 0 -157 -33.5t-100.5 -96t-51.5 -139t-16 -175.5z" />
<glyph unicode="R" horiz-adv-x="1411" d="M129 0v1386h643q272 0 401.5 -117t129.5 -325q0 -39 -9 -82t-32.5 -94t-59 -95t-93.5 -83t-130 -60l375 -530h-441l-338 508h-59v-508h-387zM514 791h231q76 0 127.5 39.5t51.5 113.5q0 82 -50.5 121t-128.5 39h-231v-313z" />
<glyph unicode="S" horiz-adv-x="1419" d="M90 410q0 36 6 71h365q6 -215 258 -215q111 0 161 41t50 107q0 64 -60.5 97.5t-226.5 57.5q-127 18 -218 46t-162.5 75.5t-107.5 120t-36 172.5q0 55 16 109.5t58 112.5t105.5 102t168 72t235.5 28q115 0 216.5 -24.5t183 -72.5t129 -126.5t47.5 -177.5q0 -44 -6 -82 h-369q-1 86 -57 137t-148 51q-94 0 -139 -36t-45 -89q0 -47 47.5 -74t165.5 -47q178 -30 296.5 -71.5t184.5 -100t92.5 -125.5t26.5 -159q0 -192 -154.5 -309t-453.5 -117q-134 0 -246.5 25.5t-199 76t-135 133.5t-48.5 191z" />
<glyph unicode="T" horiz-adv-x="1316" d="M31 1102v284h1255v-284h-430v-1102h-387v1102h-438z" />
<glyph unicode="U" horiz-adv-x="1562" d="M129 569v820h387v-824q0 -90 20.5 -151.5t60 -93.5t86 -45t108.5 -13q50 0 94.5 16t82.5 50t60.5 95.5t22.5 143.5v822h383v-807q0 -134 -34.5 -239t-108.5 -187t-201.5 -126t-301.5 -44q-183 0 -312.5 39.5t-204.5 117t-108.5 181.5t-33.5 245z" />
<glyph unicode="V" horiz-adv-x="1480" d="M16 1386h404l149 -444q5 -15 35 -103.5t40 -120.5t32 -102t37.5 -126.5t29.5 -116.5h11q69 292 166 569l147 444h397l-524 -1386h-387z" />
<glyph unicode="W" horiz-adv-x="2160" d="M16 1386h410l94 -442q8 -41 27.5 -130t30.5 -142t25.5 -133t23.5 -150h8q13 91 31 177.5t49 216t39 163.5l104 440h445l114 -464q77 -318 113 -521h10q23 153 96 517l99 468h409l-399 -1386h-430l-107 442q-8 31 -33.5 131.5t-37 149.5t-28.5 132.5t-26 156.5h-8 q-46 -243 -119 -543l-112 -469h-428z" />
<glyph unicode="X" horiz-adv-x="1454" d="M10 0l496 719l-453 667h428l246 -452l242 452h432l-453 -667l494 -719h-436l-281 479l-281 -479h-434z" />
<glyph unicode="Y" horiz-adv-x="1404" d="M10 1386h402l143 -286q20 -40 40.5 -85.5t32.5 -75.5t34 -85.5t32 -79.5h13q84 208 143 320l156 292h389l-502 -907v-479h-387v467z" />
<glyph unicode="Z" horiz-adv-x="1394" d="M90 0v264l713 836h-686v289h1157v-265l-711 -843h729v-281h-1202z" />
<glyph unicode="[" horiz-adv-x="698" d="M113 1452h499v-225h-172v-1217h172v-227h-497z" />
<glyph unicode="\" horiz-adv-x="1218" d="M-12 1470h307l907 -1560h-307z" />
<glyph unicode="]" horiz-adv-x="698" d="M82 10h172v1217h-172v225h500l-2 -1669h-498v227z" />
<glyph unicode="^" horiz-adv-x="1433" d="M186 473l420 924h230l411 -924h-293l-237 584l-238 -584h-293z" />
<glyph unicode="_" horiz-adv-x="1024" d="M0 -113h1024v-225h-1024v225z" />
<glyph unicode="`" horiz-adv-x="1206" d="M315 1409l199 211l348 -367l-147 -143z" />
<glyph unicode="a" horiz-adv-x="1202" d="M76 295q0 321 508 321q4 0 139 -6v39q0 68 -33 97.5t-84 29.5q-100 0 -119 -88h-331q-4 16 -4 49q0 61 27.5 111t73 82.5t106 54.5t124.5 31.5t131 9.5q480 0 480 -381v-645h-310q-31 47 -36 150h-13q-46 -76 -135 -121t-184 -45q-340 0 -340 311zM446 326 q0 -48 33.5 -72.5t77.5 -24.5q49 0 83.5 15t51 40.5t23 51t6.5 55.5v35q-53 6 -92 6q-183 0 -183 -106z" />
<glyph unicode="b" horiz-adv-x="1316" d="M106 0v1454h381v-375q0 -142 -22 -209h12q126 152 334 152q110 0 190 -37t127.5 -107t70 -161.5t22.5 -208.5q0 -85 -12.5 -158.5t-43 -141.5t-78 -116t-122 -77t-170.5 -29q-110 0 -199 44t-123 113h-10q-4 -92 -35 -143h-322zM473 436q0 -94 44 -151.5t130 -57.5 q187 0 187 273q0 135 -44.5 201.5t-140.5 66.5q-85 0 -130.5 -67.5t-45.5 -168.5v-96z" />
<glyph unicode="c" horiz-adv-x="1204" d="M90 498q0 261 139.5 391.5t374.5 130.5q229 0 358.5 -94.5t129.5 -259.5q0 -8 -5 -48h-346q-2 41 -16 71t-34.5 44.5t-40 20.5t-38.5 6q-46 0 -77.5 -22.5t-46 -63t-20 -82t-5.5 -94.5q0 -133 32 -192.5t126 -59.5q46 0 85.5 30.5t49.5 98.5h346q2 -14 2 -43 q0 -75 -26.5 -135t-71 -99t-105.5 -65.5t-126.5 -37.5t-137.5 -11q-280 0 -413.5 125.5t-133.5 388.5z" />
<glyph unicode="d" horiz-adv-x="1306" d="M96 483q0 120 24.5 215.5t77 169.5t141.5 114t210 40q178 0 270 -92h10v524h371v-1454h-307q-18 22 -28.5 66t-10.5 88h-10q-101 -168 -334 -168q-94 0 -166.5 25.5t-118.5 69.5t-75.5 108.5t-41.5 135.5t-12 158zM479 502q0 -139 47 -204t144 -65q77 0 122.5 59 t45.5 150v123q0 209 -170 209q-93 0 -141 -73.5t-48 -198.5z" />
<glyph unicode="e" horiz-adv-x="1216" d="M96 479q0 120 31 218t93 171.5t162.5 113.5t231.5 40t230.5 -38t159 -104.5t89 -150.5t29.5 -184q0 -33 -6 -74h-655q0 -46 2.5 -76.5t11.5 -64.5t25 -54t46 -33.5t72 -13.5q69 0 102.5 36.5t41.5 84.5h346q2 -14 2 -33q0 -92 -41.5 -159t-114 -103t-157 -52.5 t-185.5 -16.5q-516 0 -516 493zM471 639h268q-11 137 -135 137q-58 0 -94 -34.5t-39 -102.5z" />
<glyph unicode="f" horiz-adv-x="886" d="M39 768v197l162 39v108q0 187 96.5 275t302.5 88q138 0 260 -31v-256q-114 12 -147 12q-72 0 -106 -28.5t-34 -102.5v-65h279v-236h-279v-768h-372v768h-162z" />
<glyph unicode="g" horiz-adv-x="1343" d="M84 -156q0 54 38 105t111 82q-64 31 -96.5 86t-32.5 104q0 48 30 101t91 90q-92 85 -92 227q0 181 138.5 284t375.5 103q135 0 205 -22h424v-134q-52 -21 -150 -30l-4 -17q56 -82 56 -180q0 -171 -135 -271t-381 -100q-156 0 -224 21q-26 -13 -26 -33q0 -23 34.5 -40 t96.5 -25l303 -39q189 -25 286 -90.5t97 -192.5q0 -110 -82 -185.5t-214 -109t-304 -33.5q-277 0 -411 82.5t-134 216.5zM459 -129q0 -37 58 -60.5t147 -23.5q97 0 142.5 22.5t45.5 51.5q0 30 -31.5 48t-122.5 28l-186 16q-53 -39 -53 -82zM502 645q0 -57 36 -91t113 -34 q81 0 115.5 37t34.5 88q0 53 -34.5 89t-115.5 36q-74 0 -111.5 -33t-37.5 -92z" />
<glyph unicode="h" horiz-adv-x="1261" d="M106 0v1458h367v-391q0 -154 -29 -231h13q32 54 78.5 92.5t96.5 57t91.5 26.5t79.5 8q190 0 271 -95.5t81 -281.5v-643h-377v602q0 162 -133 162q-37 0 -66.5 -12.5t-46 -31t-27.5 -44t-14.5 -47.5t-3.5 -45v-584h-381z" />
<glyph unicode="i" horiz-adv-x="661" d="M133 1290q0 86 57.5 143.5t139.5 57.5q86 0 143 -57.5t57 -143.5q0 -82 -57 -139t-143 -57q-82 0 -139.5 57t-57.5 139zM141 0v1006h373v-1006h-373z" />
<glyph unicode="j" horiz-adv-x="661" d="M0 -152h29q77 0 99 27t22 98v1033h372v-1117q0 -71 -15.5 -126t-51 -99.5t-100 -68t-156.5 -23.5h-199v276zM141 1290q0 86 57.5 143.5t139.5 57.5q86 0 143.5 -57.5t57.5 -143.5q0 -82 -57.5 -139t-143.5 -57q-82 0 -139.5 57t-57.5 139z" />
<glyph unicode="k" horiz-adv-x="1241" d="M106 0v1456h377v-754h123l221 304h398l-363 -461l373 -545h-426l-256 416h-70v-416h-377z" />
<glyph unicode="l" horiz-adv-x="671" d="M127 301v1153h373v-1079q0 -68 22.5 -89t98.5 -24v-264q-102 -12 -162 -12q-185 0 -258.5 67.5t-73.5 247.5z" />
<glyph unicode="m" horiz-adv-x="1894" d="M106 0v1006h328q41 -51 41 -154h10q110 168 297 168q233 0 303 -156q59 74 146.5 115t189.5 41q197 0 282 -95.5t85 -281.5v-643h-377v606q0 81 -29 121.5t-102 40.5t-107 -50t-38 -114v-604h-375v598q0 81 -29 121.5t-102 40.5q-41 0 -71 -18t-44.5 -47t-20.5 -57.5 t-6 -57.5v-580h-381z" />
<glyph unicode="n" horiz-adv-x="1261" d="M106 0v1006h328q41 -51 41 -156h10q104 170 322 170q190 0 269 -95t79 -282v-643h-377v600q0 79 -30 120.5t-101 41.5q-50 0 -84 -20t-49.5 -53.5t-21 -62.5t-5.5 -61v-565h-381z" />
<glyph unicode="o" horiz-adv-x="1308" d="M55 500q0 111 32 203.5t97.5 165.5t175.5 114t256 41q127 0 225.5 -30t159.5 -78.5t100.5 -118t54.5 -141t15 -154.5q0 -78 -15.5 -148.5t-55.5 -139t-101 -118t-159 -80t-224 -30.5q-561 0 -561 514zM426 500q0 -269 186 -269q88 0 136.5 68t48.5 203q0 270 -185 270 q-186 0 -186 -272z" />
<glyph unicode="p" horiz-adv-x="1304" d="M106 -418v1424h316q18 -22 28.5 -66t10.5 -88h10q110 168 322 168q88 0 158 -24.5t117 -68.5t78 -107t45 -136.5t15 -161.5v-9q0 -113 -23 -205q-24 -95 -74.5 -169t-136 -114.5t-200.5 -40.5q-209 0 -285 92h-10v-494h-371zM471 426q0 -209 166 -209q93 0 140.5 73 t47.5 199q0 140 -44.5 204.5t-141.5 64.5q-77 0 -122.5 -59t-45.5 -150v-123z" />
<glyph unicode="q" horiz-adv-x="1306" d="M92 498q0 87 14 162.5t46.5 142.5t82 114.5t125.5 75t172 27.5q108 0 190.5 -43.5t117.5 -114.5h10q5 93 35 144h311v-1426h-371v336q0 139 23 209h-12q-41 -45 -85 -75t-89 -43.5t-80.5 -18t-79.5 -4.5q-410 0 -410 514zM473 489q0 -136 40 -202t144 -66q85 0 129.5 67 t44.5 169v96q0 93 -45 151t-127 58q-186 0 -186 -273z" />
<glyph unicode="r" horiz-adv-x="880" d="M129 0v1006h326q43 -64 43 -205h10q51 110 147 166.5t205 58.5l17 -315q-91 -4 -155.5 -17.5t-105.5 -36t-64.5 -57.5t-32.5 -75t-9 -95v-430h-381z" />
<glyph unicode="s" horiz-adv-x="1159" d="M84 301q0 15 4 39h332q3 -56 44.5 -86.5t110.5 -30.5q66 0 100 23.5t34 56.5q0 32 -41 50t-146 38q-112 20 -185 44t-128 61t-80 90.5t-25 128.5q0 40 13 80t47 82.5t84.5 74t133.5 52t187 20.5q85 0 162 -15t147 -47t112 -92t42 -141q0 -17 -4 -49h-334q-3 50 -33 75 t-81 25q-50 0 -76.5 -19.5t-26.5 -49.5q0 -31 22 -49t85 -29q144 -27 232.5 -53t150 -64.5t86 -89t24.5 -125.5q0 -141 -125 -228t-364 -87q-71 0 -136 7.5t-134 29t-119 55.5t-82.5 91.5t-32.5 131.5z" />
<glyph unicode="t" horiz-adv-x="942" d="M37 768v201l170 37l84 299h272v-299h279v-238h-279v-381q0 -76 30 -101.5t120 -25.5q97 0 164 12v-258q-102 -26 -283 -26q-192 0 -296.5 94.5t-104.5 279.5v406h-156z" />
<glyph unicode="u" horiz-adv-x="1230" d="M106 344v662h377v-596q0 -84 24.5 -123t100.5 -39q41 0 69.5 18t41.5 47.5t18.5 57t5.5 57.5v578h381v-1006h-327q-41 55 -41 156h-11q-30 -44 -66.5 -77t-69 -50.5t-68 -27.5t-57.5 -12.5t-44 -2.5q-83 0 -143 17t-96.5 46.5t-58 76.5t-29 97.5t-7.5 120.5z" />
<glyph unicode="v" horiz-adv-x="1241" d="M10 1004h398l104 -328q58 -181 104 -379h15q61 251 106 395l97 312h395l-410 -1008h-399z" />
<glyph unicode="w" horiz-adv-x="1800" d="M10 1008h412l70 -295q55 -237 75 -383h11q29 186 81 387l74 291h344l68 -281q16 -62 78 -393h14q17 132 78 397l63 277h412l-336 -1008h-397l-76 258q-51 179 -78 369h-12q-42 -260 -74 -375l-69 -252h-400z" />
<glyph unicode="x" horiz-adv-x="1228" d="M10 0l342 524l-319 482h426l145 -261h12l146 261h428l-324 -482l353 -524h-422l-174 313h-19l-172 -313h-422z" />
<glyph unicode="y" horiz-adv-x="1153" d="M14 1006h377l103 -408q53 -198 71 -315h13q22 134 77 323l113 400h375l-363 -1029q-21 -60 -34.5 -95t-38 -84t-48 -77.5t-60.5 -61t-80.5 -49.5t-103 -28.5t-132.5 -11.5h-174v283h124q73 0 112 21t58 67l29 75h-88z" />
<glyph unicode="z" horiz-adv-x="1083" d="M74 0v176l481 574h-442v254h905v-181l-477 -569h489v-254h-956z" />
<glyph unicode="{" horiz-adv-x="782" d="M94 489v181q74 20 104.5 66t30.5 132v306q0 59 10 104.5t35 85t73 61t118 21.5h221v-203h-65q-41 0 -62.5 -26t-21.5 -64v-295q0 -100 -31.5 -169t-110.5 -103l-4 -13q42 -20 71.5 -53t44.5 -71t21.5 -72t6.5 -68v-243q0 -35 21.5 -56.5t64.5 -21.5h65v-209h-201 q-118 0 -186 73t-68 185v252q0 88 -29 132.5t-108 67.5z" />
<glyph unicode="|" horiz-adv-x="696" d="M184 -217v1683h326v-1683h-326z" />
<glyph unicode="}" horiz-adv-x="782" d="M96 -12h66q43 0 64.5 21.5t21.5 56.5v243q0 34 6.5 68t21 72t44 71t71.5 53l-4 13q-79 34 -110 102.5t-31 169.5v295q0 38 -21.5 64t-62.5 26h-66v203h221q70 0 118 -21.5t73 -61t35 -85t10 -104.5v-306q0 -86 30.5 -132t104.5 -66v-181q-79 -23 -108 -67.5t-29 -132.5 v-252q0 -112 -68 -185t-186 -73h-201v209z" />
<glyph unicode="~" horiz-adv-x="1433" d="M205 485q51 120 129.5 190t163.5 70q73 0 204.5 -44t206.5 -44q39 0 73.5 22.5t76.5 78.5l168 -111q-44 -118 -127 -188t-176 -70q-63 0 -130.5 23.5t-133.5 47t-125 23.5q-38 0 -79 -25.5t-100 -86.5z" />
<glyph unicode="&#xa1;" horiz-adv-x="716" d="M184 -391l35 966h285l41 -966h-361zM186 840q0 74 50 124t124 50q75 0 126 -50t51 -124q0 -75 -51 -125.5t-126 -50.5q-74 0 -124 50.5t-50 125.5z" />
<glyph unicode="&#xa2;" horiz-adv-x="1433" d="M215 672q0 234 121.5 360t325.5 146v301h110v-299q66 -5 125.5 -19t116 -40.5t97.5 -63t66 -90.5t25 -119q0 -17 -4 -57h-332q-3 126 -94 133v-496q41 3 70.5 34t36.5 89h333q5 -50 5 -57q0 -79 -39 -141.5t-104 -100.5t-142 -58.5t-160 -23.5v-305h-110v309 q-225 22 -336 144.5t-111 353.5zM557 672q0 -108 23.5 -169.5t81.5 -74.5v494q-105 -50 -105 -250z" />
<glyph unicode="&#xa3;" horiz-adv-x="1433" d="M158 0v266h108q33 64 47.5 111.5t14.5 103.5q0 41 -15 105h-147v211h92q-22 73 -22 151q0 188 143 296t371 108q111 0 204 -22t165 -66.5t112.5 -118t40.5 -170.5q0 -29 -2 -43h-340q-5 65 -50.5 109t-125.5 44q-85 0 -123.5 -47.5t-38.5 -126.5q0 -49 10 -114h365v-211 h-301q8 -94 8 -111q0 -111 -56 -209h658v-266h-1118z" />
<glyph unicode="&#xa4;" horiz-adv-x="1433" d="M186 279l136 135q-52 96 -52 213q0 116 52 215l-136 139l176 174l134 -133q101 53 219 53q122 0 221 -57l133 139q30 -31 88 -88.5t88 -87.5l-135 -137q51 -97 51 -217q0 -94 -53 -215l137 -131q-22 -23 -88 -89.5t-88 -89.5l-135 134q-96 -54 -219 -54q-120 0 -219 54 l-134 -134q-26 26 -85 84t-91 93zM510 627q0 -85 59 -144t144 -59q87 0 147 58.5t60 144.5t-59.5 146.5t-147.5 60.5q-85 0 -144 -60.5t-59 -146.5z" />
<glyph unicode="&#xa5;" horiz-adv-x="1433" d="M45 1329h397l113 -229q20 -40 40.5 -85.5t32.5 -75.5t34 -85.5t32 -79.5h13q84 208 143 320l125 239h387l-354 -643h192v-129h-262l-45 -82h307v-129h-307v-350h-387v350h-301v129h295l-45 82h-250v129h182z" />
<glyph unicode="&#xa6;" horiz-adv-x="806" d="M225 -213v786h338v-786h-338zM225 682v758h338v-758h-338z" />
<glyph unicode="&#xa7;" horiz-adv-x="1208" d="M150 86q0 29 6 41h307q1 -36 18 -62.5t42 -38.5t46 -17t39 -5q77 0 115.5 36t38.5 91q0 84 -168 123q-444 100 -444 360q0 62 33 123t93 99q-110 68 -110 213q0 45 13.5 90t47.5 93t85.5 84t134.5 59.5t186 23.5q205 0 320.5 -84.5t115.5 -231.5q0 -29 -6 -41h-307 q-1 36 -15 62.5t-35 38.5t-39.5 17t-35.5 5q-70 0 -109 -30.5t-39 -83.5q0 -41 46 -69t114 -42q95 -18 174 -48t143.5 -74t101 -106t36.5 -137q0 -62 -32 -121.5t-97 -101.5q133 -95 133 -233q0 -45 -14 -90.5t-50 -93.5t-90 -84t-141.5 -59t-196.5 -23q-207 0 -333.5 86 t-126.5 231zM449 625q0 -37 22 -65.5t62 -47.5t83 -31t99 -22q78 53 78 106q0 62 -74.5 105.5t-183.5 64.5q-35 -20 -60.5 -49.5t-25.5 -60.5z" />
<glyph unicode="&#xa8;" horiz-adv-x="1206" d="M207 1327q0 67 47.5 114.5t114.5 47.5t114 -47t47 -115t-47 -115t-114 -47t-114.5 47.5t-47.5 114.5zM657 1327q0 67 47.5 114.5t114.5 47.5t114.5 -47.5t47.5 -114.5t-47.5 -114.5t-114.5 -47.5t-114.5 47.5t-47.5 114.5z" />
<glyph unicode="&#xa9;" horiz-adv-x="1689" d="M113 729q0 161 58.5 301.5t158 238t234.5 153t284 55.5q148 0 282 -55.5t233 -153t157.5 -238t58.5 -301.5t-58.5 -302t-157 -239.5t-233 -155.5t-282.5 -57q-222 0 -390 97t-256.5 267.5t-88.5 389.5zM285 729q0 -165 67.5 -300t197.5 -216.5t298 -81.5q165 0 293 81.5 t195 217t67 299.5q0 161 -68 295t-196 214.5t-291 80.5q-160 0 -290 -80t-201.5 -215t-71.5 -295zM408 723q0 -449 450 -449q71 0 138 17t124 50t92 89t35 127q0 31 -4 47h-239q0 -65 -44 -105t-114 -40q-97 0 -140.5 64.5t-43.5 199.5q0 272 178 272q69 0 107.5 -33 t39.5 -98h240q2 10 2 33q0 134 -110.5 210.5t-270.5 76.5q-92 0 -170.5 -28t-139.5 -83t-95.5 -145t-34.5 -205z" />
<glyph unicode="&#xaa;" horiz-adv-x="923" d="M84 760q0 62 29.5 104.5t84.5 63.5t113.5 29t134.5 8q41 0 103 -4v40q0 37 -20 55.5t-54 18.5q-65 0 -82 -59h-243q-3 15 -3 20q0 51 22.5 91.5t57 64.5t81.5 40t91 22t90 6q84 0 148 -17t103.5 -45t64 -67.5t34 -79t9.5 -84.5v-398h-254q-25 35 -27 105h-8 q-78 -117 -223 -117q-252 0 -252 203zM369 788q0 -34 22.5 -49.5t54.5 -15.5q33 0 55 9.5t32 27.5t13 34t3 37v23q-27 4 -70 4q-110 0 -110 -70z" />
<glyph unicode="&#xab;" horiz-adv-x="1269" d="M123 453v63l426 463l156 -113l-263 -383l271 -385l-164 -118zM612 453v63l426 463l156 -113l-262 -383l270 -385l-164 -118z" />
<glyph unicode="&#xac;" horiz-adv-x="1433" d="M254 442v250h924v-547h-289v297h-635z" />
<glyph unicode="&#xad;" horiz-adv-x="1073" d="M176 420v262h719v-262h-719z" />
<glyph unicode="&#xae;" horiz-adv-x="1187" d="M68 920q0 140 69 258t186 186t255 68q220 0 364.5 -148t144.5 -364q0 -139 -67.5 -256t-184.5 -184.5t-257 -67.5q-152 0 -269 68t-179 183t-62 257zM203 920q0 -159 106.5 -272t268.5 -113q164 0 270 113t106 272t-110.5 274t-265.5 115q-159 0 -267 -114.5t-108 -274.5 zM387 649v574h201q93 0 150 -46.5t57 -138.5q0 -43 -26.5 -84t-72.5 -67l109 -238h-141l-99 225h-49v-225h-129zM516 987h74q63 0 63 53q0 30 -18 46t-45 16h-74v-115z" />
<glyph unicode="&#xaf;" horiz-adv-x="1202" d="M250 1219v227h702v-227h-702z" />
<glyph unicode="&#xb0;" horiz-adv-x="894" d="M92 1016q0 144 103.5 241t253.5 97q142 0 245 -97.5t103 -240.5q0 -139 -104 -240.5t-244 -101.5q-165 0 -261 98.5t-96 243.5zM289 1016q0 -66 42 -111t113 -45q62 0 108 46.5t46 109.5q0 60 -46 103.5t-108 43.5q-63 0 -109 -43t-46 -104z" />
<glyph unicode="&#xb1;" horiz-adv-x="1433" d="M248 0v240h936v-240h-936zM256 571v248h322v266h284v-266h318v-248h-318v-258h-284v258h-322z" />
<glyph unicode="&#xb2;" horiz-adv-x="862" d="M63 754v86q1 120 75 200.5t235 165.5q64 33 93.5 61t29.5 58q0 24 -19.5 40.5t-56.5 16.5q-43 0 -75.5 -27.5t-35.5 -90.5h-237q-2 12 -2 39q0 73 30.5 129.5t82 90.5t115.5 51t136 17q97 0 169.5 -23t112 -61t58.5 -80.5t19 -89.5q0 -51 -24 -97t-68 -83.5t-84 -63 t-93 -53.5q-39 -20 -55 -29t-37 -24t-35 -31h402v-202h-736z" />
<glyph unicode="&#xb3;" horiz-adv-x="845" d="M35 971q0 29 6 53h233q1 -36 35.5 -57t75.5 -21q50 0 82.5 21.5t32.5 56.5q0 48 -31.5 71t-101.5 23q-29 0 -70 -6l-55 137l157 115l-4 8h-303v199h664v-182l-181 -117l5 -10q105 -19 160 -78.5t55 -151.5q0 -137 -104 -213t-294 -76q-68 0 -129 12t-115 37.5t-86 71.5 t-32 107z" />
<glyph unicode="&#xb4;" horiz-adv-x="1206" d="M403 1253l349 367l198 -211l-399 -299z" />
<glyph unicode="&#xb5;" horiz-adv-x="1216" d="M106 1006h377v-625q0 -133 111 -133q41 0 69.5 18t41.5 47.5t18.5 57t5.5 57.5v578h381v-1006h-328q-41 55 -41 156h-10q-48 -69 -113 -113q-62 -39 -135 -47v-416h-374q-3 958 -3 1426z" />
<glyph unicode="&#xb6;" horiz-adv-x="1212" d="M96 944q0 188 129.5 318.5t321.5 130.5h239v-897h-239q-196 0 -323.5 128.5t-127.5 319.5zM594 -393l2 184q167 9 227 59t60 168v1375h207v-1397q0 -63 -11 -117.5t-38.5 -107t-71 -90t-113.5 -60t-160 -22.5q-53 0 -102 8z" />
<glyph unicode="&#xb7;" horiz-adv-x="661" d="M123 575q0 91 61 152t150 61q91 0 152 -61t61 -152q0 -89 -61 -149.5t-152 -60.5q-89 0 -150 60.5t-61 149.5z" />
<glyph unicode="&#xb8;" horiz-adv-x="1204" d="M305 -457l39 119q78 -16 152 -16q145 0 145 73q0 33 -23.5 50.5t-58.5 17.5q-47 0 -90 -29l-84 58l150 250h153l-86 -140q71 -1 126.5 -15.5t87.5 -36.5t52.5 -51t27.5 -54t7 -50q0 -92 -83.5 -154.5t-248.5 -62.5q-136 0 -266 41z" />
<glyph unicode="&#xb9;" horiz-adv-x="815" d="M55 754v194h203v391q-29 -3 -87 -11t-83 -11v178l250 80h211v-627h207v-194h-701z" />
<glyph unicode="&#xba;" horiz-adv-x="915" d="M57 909q0 159 102.5 255t299.5 96q107 0 185.5 -28.5t123 -79t65.5 -111t21 -132.5q0 -70 -20.5 -129.5t-65 -109.5t-123.5 -78.5t-186 -28.5q-402 0 -402 346zM352 909q0 -153 101 -153q102 0 102 153q0 156 -102 156q-101 0 -101 -156z" />
<glyph unicode="&#xbb;" horiz-adv-x="1269" d="M125 98l270 385l-262 383l156 113l426 -463v-63l-426 -473zM614 98l271 385l-262 383l155 113l426 -463v-63l-426 -473z" />
<glyph unicode="&#xbc;" horiz-adv-x="1996" d="M86 569v195h203v391q-29 -3 -87 -11t-83 -11v178l250 80h211v-627h206v-195h-700zM475 -57l873 1503h213l-877 -1503h-209zM1102 166v182l407 471h263v-459h124v-194h-124v-166h-279v166h-391zM1348 360h145v160z" />
<glyph unicode="&#xbd;" horiz-adv-x="1996" d="M63 569v195h203v391q-29 -3 -87 -11t-83 -11v178l250 80h211v-627h207v-195h-701zM453 -57l872 1503h213l-876 -1503h-209zM1190 0v86q1 120 75 201.5t234 165.5q64 34 93.5 61t29.5 57q0 24 -19.5 41t-56.5 17q-42 0 -74.5 -28t-35.5 -91h-238q-2 12 -2 39 q0 73 30.5 129.5t82.5 90.5t116 51.5t136 17.5q78 0 140.5 -15.5t102.5 -40t66.5 -58.5t37.5 -68.5t11 -71.5q0 -51 -24 -97t-67.5 -83.5t-83.5 -63t-93 -53.5q-39 -20 -55 -29t-37 -24t-35 -31h401v-203h-735z" />
<glyph unicode="&#xbe;" horiz-adv-x="1996" d="M82 786q0 30 6 54h234q1 -36 35 -57t75 -21q50 0 82.5 21.5t32.5 56.5q0 48 -31.5 71t-101.5 23q-30 0 -70 -6l-55 137l157 115l-4 8h-303v198h664v-182l-180 -117l4 -10q105 -19 160 -78t55 -151q0 -137 -104 -213t-294 -76q-68 0 -129 12t-115 37.5t-86 71t-32 106.5z M489 -57l873 1503h213l-877 -1503h-209zM1092 166v182l407 471h262v-459h125v-194h-125v-166h-278v166h-391zM1337 360h146v160z" />
<glyph unicode="&#xbf;" horiz-adv-x="1099" d="M35 -98q0 57 21 110t55 96t75 84t82.5 79.5t75.5 76.5t55 82.5t21 89.5v53h303v-65q0 -71 -17 -129.5t-44 -98.5t-59.5 -74t-65.5 -63t-60 -57t-44 -64.5t-17 -78.5q0 -68 41 -99.5t106 -31.5t112.5 45.5t51.5 146.5h342q4 -36 4 -51q0 -97 -41.5 -174.5t-112.5 -126 t-161.5 -73.5t-192.5 -25q-259 2 -394.5 85t-135.5 263zM401 838q0 74 51 124t126 50q74 0 124 -50t50 -124q0 -75 -50 -125.5t-124 -50.5q-75 0 -126 50.5t-51 125.5z" />
<glyph unicode="&#xc0;" horiz-adv-x="1521" d="M8 0l539 1391h438l504 -1391h-406l-90 299h-489l-105 -299h-391zM317 1663l162 260l426 -295l-121 -170zM608 571h287l-53 187q-55 190 -74 295h-18q-42 -178 -80 -295z" />
<glyph unicode="&#xc1;" horiz-adv-x="1521" d="M8 0l539 1391h438l504 -1391h-406l-90 299h-489l-105 -299h-391zM602 1642l416 287l160 -260l-467 -205zM608 571h287l-53 187q-55 190 -74 295h-18q-42 -178 -80 -295z" />
<glyph unicode="&#xc2;" horiz-adv-x="1521" d="M8 0l539 1391h438l504 -1391h-406l-90 299h-489l-105 -299h-391zM346 1579l307 307h221l289 -307l-121 -115l-286 193l-293 -193zM608 571h287l-53 187q-55 190 -74 295h-18q-42 -178 -80 -295z" />
<glyph unicode="&#xc3;" horiz-adv-x="1521" d="M8 0l539 1391h438l504 -1391h-406l-90 299h-489l-105 -299h-391zM319 1673q44 114 107.5 167.5t155.5 53.5q48 0 157 -37.5t158 -37.5q44 0 80 15t78 62l139 -90q-28 -104 -98 -165.5t-160 -61.5q-55 0 -162 39t-149 39q-26 0 -45.5 -3t-53 -21.5t-61.5 -53.5zM608 571 h287l-53 187q-55 190 -74 295h-18q-42 -178 -80 -295z" />
<glyph unicode="&#xc4;" horiz-adv-x="1521" d="M8 0l539 1391h438l504 -1391h-406l-90 299h-489l-105 -299h-391zM362 1649q0 67 47 114t115 47t115 -47t47 -114t-47 -114.5t-115 -47.5t-115 47.5t-47 114.5zM608 571h287l-53 187q-55 190 -74 295h-18q-42 -178 -80 -295zM813 1649q0 67 47 114t115 47t115 -47t47 -114 t-47.5 -114.5t-114.5 -47.5t-114.5 47.5t-47.5 114.5z" />
<glyph unicode="&#xc5;" horiz-adv-x="1521" d="M8 0l539 1391h438l504 -1391h-406l-90 299h-489l-105 -299h-391zM510 1716q0 103 69.5 175.5t172.5 72.5q105 0 176 -73t71 -175t-71 -169.5t-176 -67.5q-104 0 -173 68.5t-69 168.5zM608 571h287l-53 187q-55 190 -74 295h-18q-42 -178 -80 -295zM682 1716 q0 -29 21 -51.5t49 -22.5q30 0 51.5 22t21.5 52q0 33 -21.5 56.5t-51.5 23.5q-28 0 -49 -24t-21 -56z" />
<glyph unicode="&#xc6;" horiz-adv-x="2121" d="M6 -2l846 1388h1214v-286h-661v-238h602v-280h-602v-295h678v-287h-1043v319h-487l-186 -321h-361zM731 588h309v510l-10 2q-68 -127 -199 -344z" />
<glyph unicode="&#xc7;" horiz-adv-x="1490" d="M106 688q0 145 36 265t99.5 203t151 140.5t189 84t215.5 26.5q163 0 296.5 -50t217.5 -154.5t84 -246.5q0 -17 -4 -49h-375q-1 101 -62.5 154t-169.5 53q-144 0 -211 -108t-67 -318q0 -213 67 -314.5t220 -101.5q109 0 177.5 62t69.5 164h375q4 -25 4 -70 q0 -91 -36 -166.5t-96 -126t-139 -86t-164 -51.5t-173 -16q-705 0 -705 706zM489 -477l39 119q83 -17 152 -17q145 0 145 74q0 33 -23.5 50.5t-58.5 17.5q-47 0 -90 -29l-84 57l150 250h153l-86 -139q71 -1 126.5 -15.5t87.5 -36.5t52.5 -51t27.5 -54t7 -50 q0 -92 -83 -154.5t-248 -62.5q-137 0 -267 41z" />
<glyph unicode="&#xc8;" horiz-adv-x="1318" d="M129 0v1386h1077v-286h-690v-238h629v-284h-629v-293h707v-285h-1094zM313 1663l162 260l426 -295l-121 -170z" />
<glyph unicode="&#xc9;" horiz-adv-x="1318" d="M129 0v1386h1077v-286h-690v-238h629v-284h-629v-293h707v-285h-1094zM426 1642l416 287l159 -260l-466 -205z" />
<glyph unicode="&#xca;" horiz-adv-x="1318" d="M129 0v1386h1077v-286h-690v-238h629v-284h-629v-293h707v-285h-1094zM223 1579l307 307h222l288 -307l-120 -115l-287 193l-293 -193z" />
<glyph unicode="&#xcb;" horiz-adv-x="1318" d="M129 0v1386h1077v-286h-690v-238h629v-284h-629v-293h707v-285h-1094zM242 1649q0 67 47 114t114 47q68 0 115 -47t47 -114t-47.5 -114.5t-114.5 -47.5t-114 47t-47 115zM692 1649q0 67 47 114t115 47t115 -47t47 -114t-47 -114.5t-115 -47.5t-115 47.5t-47 114.5z" />
<glyph unicode="&#xcc;" horiz-adv-x="667" d="M-94 1663l162 260l426 -295l-121 -170zM139 0v1386h389v-1386h-389z" />
<glyph unicode="&#xcd;" horiz-adv-x="667" d="M139 0v1386h389v-1386h-389zM182 1642l416 287l160 -260l-467 -205z" />
<glyph unicode="&#xce;" horiz-adv-x="667" d="M-70 1579l308 307h221l289 -307l-121 -115l-287 193l-293 -193zM139 0v1386h389v-1386h-389z" />
<glyph unicode="&#xcf;" horiz-adv-x="667" d="M-51 1649q0 67 47 114t115 47q67 0 114 -47t47 -114q0 -68 -47 -115t-114 -47t-114.5 47.5t-47.5 114.5zM139 0v1386h389v-1386h-389zM399 1649q0 67 47 114t115 47t115 -47t47 -114t-47.5 -114.5t-114.5 -47.5t-114.5 47.5t-47.5 114.5z" />
<glyph unicode="&#xd0;" horiz-adv-x="1501" d="M23 602v201h106v583h555q111 0 210 -21t192 -72t160 -129t107 -200.5t40 -277.5q0 -321 -189.5 -503.5t-519.5 -182.5h-555v602h-106zM516 283h92q56 0 105.5 9.5t103.5 37t92 71t63 118t25 171.5q0 77 -14 140t-36 105.5t-55 74t-66 49t-74 28.5t-73.5 14t-70.5 3h-92 v-301h219v-201h-219v-319z" />
<glyph unicode="&#xd1;" horiz-adv-x="1540" d="M123 0v1386h356l291 -393q153 -210 250 -377h18v770h379v-1386h-334l-342 467q-107 142 -223 330l-14 -2v-795h-381zM332 1636q44 115 107 168.5t155 53.5q48 0 157 -38t158 -38q44 0 80 15.5t78 62.5l139 -91q-28 -104 -98 -165.5t-160 -61.5q-55 0 -162 39t-149 39 q-26 0 -45.5 -3t-53 -21.5t-61.5 -53.5z" />
<glyph unicode="&#xd2;" horiz-adv-x="1658" d="M106 676q0 122 25 228t81 199.5t139.5 160t207 105t277.5 38.5q161 0 287.5 -43t205 -113t130 -167t71.5 -196t20 -210q0 -70 -10.5 -137.5t-35 -137.5t-62 -130.5t-95 -114.5t-129.5 -92t-170.5 -60t-213.5 -22q-163 0 -289.5 36.5t-208 98.5t-134 151.5t-74.5 189 t-22 216.5zM430 1663l162 260l426 -295l-121 -170zM506 682q0 -208 81 -316t244 -108q148 0 232 112.5t84 313.5q0 93 -17.5 170t-53.5 139.5t-98.5 97.5t-146.5 35q-96 0 -161.5 -33t-100.5 -96.5t-49 -138.5t-14 -176z" />
<glyph unicode="&#xd3;" horiz-adv-x="1658" d="M106 676q0 122 25 228t81 199.5t139.5 160t207 105t277.5 38.5q161 0 287.5 -43t205 -113t130 -167t71.5 -196t20 -210q0 -70 -10.5 -137.5t-35 -137.5t-62 -130.5t-95 -114.5t-129.5 -92t-170.5 -60t-213.5 -22q-163 0 -289.5 36.5t-208 98.5t-134 151.5t-74.5 189 t-22 216.5zM506 682q0 -208 81 -316t244 -108q148 0 232 112.5t84 313.5q0 93 -17.5 170t-53.5 139.5t-98.5 97.5t-146.5 35q-96 0 -161.5 -33t-100.5 -96.5t-49 -138.5t-14 -176zM649 1642l416 287l160 -260l-467 -205z" />
<glyph unicode="&#xd4;" horiz-adv-x="1658" d="M106 676q0 122 25 228t81 199.5t139.5 160t207 105t277.5 38.5q161 0 287.5 -43t205 -113t130 -167t71.5 -196t20 -210q0 -70 -10.5 -137.5t-35 -137.5t-62 -130.5t-95 -114.5t-129.5 -92t-170.5 -60t-213.5 -22q-163 0 -289.5 36.5t-208 98.5t-134 151.5t-74.5 189 t-22 216.5zM422 1579l307 307h221l289 -307l-121 -115l-287 193l-292 -193zM506 682q0 -208 81 -316t244 -108q148 0 232 112.5t84 313.5q0 93 -17.5 170t-53.5 139.5t-98.5 97.5t-146.5 35q-96 0 -161.5 -33t-100.5 -96.5t-49 -138.5t-14 -176z" />
<glyph unicode="&#xd5;" horiz-adv-x="1658" d="M106 676q0 122 25 228t81 199.5t139.5 160t207 105t277.5 38.5q161 0 287.5 -43t205 -113t130 -167t71.5 -196t20 -210q0 -70 -10.5 -137.5t-35 -137.5t-62 -130.5t-95 -114.5t-129.5 -92t-170.5 -60t-213.5 -22q-163 0 -289.5 36.5t-208 98.5t-134 151.5t-74.5 189 t-22 216.5zM397 1640q44 115 107 168.5t155 53.5q48 0 157.5 -38t158.5 -38q44 0 80 15.5t78 62.5l139 -90q-28 -104 -98.5 -166t-159.5 -62q-55 0 -162.5 39t-149.5 39q-26 0 -45 -3t-52.5 -21.5t-61.5 -53.5zM506 682q0 -208 81 -316t244 -108q148 0 232 112.5t84 313.5 q0 93 -17.5 170t-53.5 139.5t-98.5 97.5t-146.5 35q-96 0 -161.5 -33t-100.5 -96.5t-49 -138.5t-14 -176z" />
<glyph unicode="&#xd6;" horiz-adv-x="1658" d="M106 676q0 122 25 228t81 199.5t139.5 160t207 105t277.5 38.5q161 0 287.5 -43t205 -113t130 -167t71.5 -196t20 -210q0 -70 -10.5 -137.5t-35 -137.5t-62 -130.5t-95 -114.5t-129.5 -92t-170.5 -60t-213.5 -22q-163 0 -289.5 36.5t-208 98.5t-134 151.5t-74.5 189 t-22 216.5zM442 1661q0 67 47 114.5t115 47.5t115 -47.5t47 -114.5t-47 -114.5t-115 -47.5t-115 47.5t-47 114.5zM506 682q0 -208 81 -316t244 -108q148 0 232 112.5t84 313.5q0 93 -17.5 170t-53.5 139.5t-98.5 97.5t-146.5 35q-96 0 -161.5 -33t-100.5 -96.5t-49 -138.5 t-14 -176zM893 1661q0 67 47.5 114.5t114.5 47.5t114.5 -47.5t47.5 -114.5t-47.5 -114.5t-114.5 -47.5t-114.5 47.5t-47.5 114.5z" />
<glyph unicode="&#xd7;" horiz-adv-x="1433" d="M283 313l256 256l-256 258l174 177l258 -259l260 259l174 -175l-258 -260l256 -258l-174 -174l-258 258l-256 -256z" />
<glyph unicode="&#xd8;" horiz-adv-x="1658" d="M106 676q0 122 25 228t81 199.5t139.5 160t207 105t277.5 38.5q264 0 432 -113l110 119l117 -104l-109 -119q164 -191 164 -512q0 -70 -10.5 -137.5t-35 -137.5t-62 -130.5t-95 -114.5t-129.5 -92t-170.5 -60t-213.5 -22q-287 0 -461 110l-127 -139l-117 111l123 133 q-146 175 -146 477zM506 682q0 -110 20 -186l510 548q-79 82 -205 82q-96 0 -161.5 -33t-100.5 -96.5t-49 -138.5t-14 -176zM604 344q80 -86 227 -86q148 0 232 112.5t84 313.5q0 124 -29 215z" />
<glyph unicode="&#xd9;" horiz-adv-x="1562" d="M129 569v820h387v-824q0 -90 20.5 -151.5t60 -93.5t86 -45t108.5 -13q50 0 94.5 16t82.5 50t60.5 95.5t22.5 143.5v822h383v-807q0 -134 -34.5 -239t-108.5 -187t-201.5 -126t-301.5 -44q-183 0 -312.5 39.5t-204.5 117t-108.5 181.5t-33.5 245zM424 1663l162 260 l426 -295l-121 -170z" />
<glyph unicode="&#xda;" horiz-adv-x="1562" d="M129 569v820h387v-824q0 -90 20.5 -151.5t60 -93.5t86 -45t108.5 -13q50 0 94.5 16t82.5 50t60.5 95.5t22.5 143.5v822h383v-807q0 -134 -34.5 -239t-108.5 -187t-201.5 -126t-301.5 -44q-183 0 -312.5 39.5t-204.5 117t-108.5 181.5t-33.5 245zM582 1642l415 287 l160 -260l-467 -205z" />
<glyph unicode="&#xdb;" horiz-adv-x="1562" d="M129 569v820h387v-824q0 -90 20.5 -151.5t60 -93.5t86 -45t108.5 -13q50 0 94.5 16t82.5 50t60.5 95.5t22.5 143.5v822h383v-807q0 -134 -34.5 -239t-108.5 -187t-201.5 -126t-301.5 -44q-183 0 -312.5 39.5t-204.5 117t-108.5 181.5t-33.5 245zM379 1579l307 307h221 l289 -307l-121 -115l-287 193l-292 -193z" />
<glyph unicode="&#xdc;" horiz-adv-x="1562" d="M129 569v820h387v-824q0 -90 20.5 -151.5t60 -93.5t86 -45t108.5 -13q50 0 94.5 16t82.5 50t60.5 95.5t22.5 143.5v822h383v-807q0 -134 -34.5 -239t-108.5 -187t-201.5 -126t-301.5 -44q-183 0 -312.5 39.5t-204.5 117t-108.5 181.5t-33.5 245zM381 1651q0 67 47 114 t115 47t115 -47t47 -114t-47.5 -114.5t-114.5 -47.5t-114.5 47.5t-47.5 114.5zM831 1651q0 67 47 114t115 47t115 -47t47 -114t-47.5 -114.5t-114.5 -47.5t-114.5 47.5t-47.5 114.5z" />
<glyph unicode="&#xdd;" horiz-adv-x="1404" d="M10 1386h402l143 -286q20 -40 40.5 -85.5t32.5 -75.5t34 -85.5t32 -79.5h13q84 208 143 320l156 292h389l-502 -907v-479h-387v467zM518 1642l416 287l160 -260l-467 -205z" />
<glyph unicode="&#xde;" horiz-adv-x="1323" d="M139 1389h381v-211h215q139 0 245 -35t171 -98.5t97 -146.5t32 -183q0 -62 -17 -122.5t-58 -121.5t-101.5 -107t-155.5 -75t-213 -29h-215v-260h-379zM520 524h201q78 0 138.5 48t60.5 145t-56.5 147.5t-142.5 50.5h-201v-391z" />
<glyph unicode="&#xdf;" horiz-adv-x="1308" d="M111 0v969q0 103 30.5 189.5t91 154t161.5 105.5t233 38q238 0 369.5 -97t131.5 -259q0 -22 -5.5 -50t-19.5 -66.5t-47 -73.5t-79 -56l2 -10q118 -45 175.5 -142t57.5 -221q0 -79 -13.5 -149t-45.5 -135.5t-81.5 -112t-126 -74.5t-173.5 -28q-104 0 -168 20l12 252 q32 -4 46 -4q172 0 172 252q0 116 -64 166.5t-164 50.5v199q154 8 154 155q0 67 -37 99t-98 32q-75 0 -110.5 -53.5t-35.5 -126.5v-1024h-368z" />
<glyph unicode="&#xe0;" horiz-adv-x="1202" d="M76 295q0 321 508 321q4 0 139 -6v39q0 68 -33 97.5t-84 29.5q-100 0 -119 -88h-331q-4 16 -4 49q0 61 27.5 111t73 82.5t106 54.5t124.5 31.5t131 9.5q480 0 480 -381v-645h-310q-31 47 -36 150h-13q-46 -76 -135 -121t-184 -45q-340 0 -340 311zM283 1409l198 211 l348 -367l-147 -143zM446 326q0 -48 33.5 -72.5t77.5 -24.5q49 0 83.5 15t51 40.5t23 51t6.5 55.5v35q-53 6 -92 6q-183 0 -183 -106z" />
<glyph unicode="&#xe1;" horiz-adv-x="1202" d="M76 295q0 321 508 321q4 0 139 -6v39q0 68 -33 97.5t-84 29.5q-100 0 -119 -88h-331q-4 16 -4 49q0 61 27.5 111t73 82.5t106 54.5t124.5 31.5t131 9.5q480 0 480 -381v-645h-310q-31 47 -36 150h-13q-46 -76 -135 -121t-184 -45q-340 0 -340 311zM446 326 q0 -48 33.5 -72.5t77.5 -24.5q49 0 83.5 15t51 40.5t23 51t6.5 55.5v35q-53 6 -92 6q-183 0 -183 -106zM451 1253l348 367l198 -211l-399 -299z" />
<glyph unicode="&#xe2;" horiz-adv-x="1202" d="M76 295q0 321 508 321q4 0 139 -6v39q0 68 -33 97.5t-84 29.5q-100 0 -119 -88h-331q-4 16 -4 49q0 61 27.5 111t73 82.5t106 54.5t124.5 31.5t131 9.5q480 0 480 -381v-645h-310q-31 47 -36 150h-13q-46 -76 -135 -121t-184 -45q-340 0 -340 311zM227 1235l314 348h221 l307 -352l-141 -111l-283 217l-295 -217zM446 326q0 -48 33.5 -72.5t77.5 -24.5q49 0 83.5 15t51 40.5t23 51t6.5 55.5v35q-53 6 -92 6q-183 0 -183 -106z" />
<glyph unicode="&#xe3;" horiz-adv-x="1202" d="M76 295q0 321 508 321q4 0 139 -6v39q0 68 -33 97.5t-84 29.5q-100 0 -119 -88h-331q-4 16 -4 49q0 61 27.5 111t73 82.5t106 54.5t124.5 31.5t131 9.5q480 0 480 -381v-645h-310q-31 47 -36 150h-13q-46 -76 -135 -121t-184 -45q-340 0 -340 311zM190 1272 q44 114 107.5 167.5t155.5 53.5q48 0 157 -38t158 -38q44 0 80 15.5t78 62.5l139 -90q-28 -104 -98 -165.5t-160 -61.5q-55 0 -162 38.5t-149 38.5q-27 0 -46 -2.5t-52.5 -21t-61.5 -53.5zM446 326q0 -48 33.5 -72.5t77.5 -24.5q49 0 83.5 15t51 40.5t23 51t6.5 55.5v35 q-53 6 -92 6q-183 0 -183 -106z" />
<glyph unicode="&#xe4;" horiz-adv-x="1202" d="M76 295q0 321 508 321q4 0 139 -6v39q0 68 -33 97.5t-84 29.5q-100 0 -119 -88h-331q-4 16 -4 49q0 61 27.5 111t73 82.5t106 54.5t124.5 31.5t131 9.5q480 0 480 -381v-645h-310q-31 47 -36 150h-13q-46 -76 -135 -121t-184 -45q-340 0 -340 311zM207 1327 q0 67 47.5 114.5t114.5 47.5t114 -47t47 -115t-47 -115t-114 -47t-114.5 47.5t-47.5 114.5zM446 326q0 -48 33.5 -72.5t77.5 -24.5q49 0 83.5 15t51 40.5t23 51t6.5 55.5v35q-53 6 -92 6q-183 0 -183 -106zM657 1327q0 67 47.5 114.5t114.5 47.5t114.5 -47.5t47.5 -114.5 t-47.5 -114.5t-114.5 -47.5t-114.5 47.5t-47.5 114.5z" />
<glyph unicode="&#xe5;" horiz-adv-x="1202" d="M76 295q0 321 508 321q4 0 139 -6v39q0 68 -33 97.5t-84 29.5q-100 0 -119 -88h-331q-4 16 -4 49q0 61 27.5 111t73 82.5t106 54.5t124.5 31.5t131 9.5q480 0 480 -381v-645h-310q-31 47 -36 150h-13q-46 -76 -135 -121t-184 -45q-340 0 -340 311zM391 1358 q0 103 69.5 175.5t172.5 72.5q105 0 176.5 -73t71.5 -175t-71.5 -170t-176.5 -68q-104 0 -173 69t-69 169zM446 326q0 -48 33.5 -72.5t77.5 -24.5q49 0 83.5 15t51 40.5t23 51t6.5 55.5v35q-53 6 -92 6q-183 0 -183 -106zM563 1358q0 -29 21 -51.5t49 -22.5q30 0 52 22 t22 52q0 32 -21.5 56t-52.5 24q-28 0 -49 -24t-21 -56z" />
<glyph unicode="&#xe6;" horiz-adv-x="1847" d="M76 272q0 76 29 135.5t76 97t113.5 62t136 34t147.5 9.5h141v37q0 67 -34.5 96t-86.5 29q-98 0 -117 -86h-327q-4 16 -4 49q0 75 41 132.5t108.5 90t145.5 48.5t161 16q200 0 303 -90q59 42 150.5 66t177.5 24q125 0 223 -37t158 -101.5t90.5 -147.5t30.5 -179 q0 -47 -6 -94h-650q0 -8 -1 -20.5t-1 -16.5q0 -101 37 -149t121 -48q68 0 103 36.5t42 84.5h342q3 -21 3 -33q0 -92 -41 -159t-112.5 -103t-154 -52.5t-180.5 -16.5q-165 3 -261.5 34t-160.5 115q-72 -65 -153 -101t-135 -44t-119 -8q-336 0 -336 290zM440 332q0 -53 33 -77 t78 -24q108 0 182 78q-16 70 -16 150h-103q-92 0 -133 -37.5t-41 -89.5zM1094 610h264q-5 86 -34 126t-95 40q-56 0 -95.5 -46.5t-39.5 -119.5z" />
<glyph unicode="&#xe7;" horiz-adv-x="1204" d="M90 498q0 261 139.5 391.5t374.5 130.5q229 0 358.5 -94.5t129.5 -259.5q0 -8 -5 -48h-346q-2 40 -15.5 69.5t-33 44.5t-38.5 21.5t-38 6.5q-38 1 -66.5 -14.5t-45 -39.5t-26 -60.5t-12.5 -70.5t-3 -77q0 -133 32 -192.5t126 -59.5q46 0 85.5 30.5t49.5 98.5h346 q2 -14 2 -43q0 -73 -25.5 -132t-68.5 -98t-102 -66t-122.5 -39t-134.5 -13l-35 -58q71 -1 127 -15.5t88 -36.5t52.5 -51t27.5 -54t7 -50q0 -92 -83.5 -154.5t-248.5 -62.5q-137 0 -267 41l39 119q78 -16 152 -16q145 0 145 73q0 33 -23.5 50.5t-58.5 17.5q-47 0 -90 -29 l-84 58l105 176q-211 28 -312.5 152t-101.5 354z" />
<glyph unicode="&#xe8;" horiz-adv-x="1216" d="M96 479q0 120 31 218t93 171.5t162.5 113.5t231.5 40t230.5 -38t159 -104.5t89 -150.5t29.5 -184q0 -33 -6 -74h-655q0 -46 2.5 -76.5t11.5 -64.5t25 -54t46 -33.5t72 -13.5q69 0 102.5 36.5t41.5 84.5h346q2 -14 2 -33q0 -92 -41.5 -159t-114 -103t-157 -52.5 t-185.5 -16.5q-516 0 -516 493zM287 1409l198 211l349 -367l-148 -143zM471 639h268q-11 137 -135 137q-58 0 -94 -34.5t-39 -102.5z" />
<glyph unicode="&#xe9;" horiz-adv-x="1216" d="M96 479q0 120 31 218t93 171.5t162.5 113.5t231.5 40t230.5 -38t159 -104.5t89 -150.5t29.5 -184q0 -33 -6 -74h-655q0 -46 2.5 -76.5t11.5 -64.5t25 -54t46 -33.5t72 -13.5q69 0 102.5 36.5t41.5 84.5h346q2 -14 2 -33q0 -92 -41.5 -159t-114 -103t-157 -52.5 t-185.5 -16.5q-516 0 -516 493zM471 639h268q-11 137 -135 137q-58 0 -94 -34.5t-39 -102.5zM492 1253l348 367l198 -211l-399 -299z" />
<glyph unicode="&#xea;" horiz-adv-x="1216" d="M96 479q0 -493 516 -493q101 0 185.5 16.5t157 52.5t114 103t41.5 159q0 19 -2 33h-346q-8 -48 -41.5 -84.5t-102.5 -36.5q-42 0 -72 13.5t-46 33.5t-25 54t-11.5 64.5t-2.5 76.5h655q6 41 6 74q0 100 -29.5 184t-89 150.5t-159 104.5t-230.5 38t-231.5 -40 t-162.5 -113.5t-93 -171.5t-31 -218zM205 1235l313 348h221l308 -352l-142 -111l-282 217l-295 -217zM471 639q3 68 39 102.5t94 34.5q124 0 135 -137h-268z" />
<glyph unicode="&#xeb;" horiz-adv-x="1216" d="M96 479q0 -493 516 -493q101 0 185.5 16.5t157 52.5t114 103t41.5 159q0 19 -2 33h-346q-8 -48 -41.5 -84.5t-102.5 -36.5q-42 0 -72 13.5t-46 33.5t-25 54t-11.5 64.5t-2.5 76.5h655q6 41 6 74q0 100 -29.5 184t-89 150.5t-159 104.5t-230.5 38t-231.5 -40 t-162.5 -113.5t-93 -171.5t-31 -218zM236 1327q0 68 47 115t114 47t114.5 -47.5t47.5 -114.5t-47.5 -114.5t-114.5 -47.5t-114 47t-47 115zM471 639q3 68 39 102.5t94 34.5q124 0 135 -137h-268zM686 1327q0 67 47 114.5t115 47.5t115 -47.5t47 -114.5t-47 -114.5 t-115 -47.5t-115 47.5t-47 114.5z" />
<glyph unicode="&#xec;" horiz-adv-x="661" d="M-76 1409l199 211l348 -367l-147 -143zM141 0v1006h373v-1006h-373z" />
<glyph unicode="&#xed;" horiz-adv-x="661" d="M141 0v1006h373v-1006h-373zM188 1253l349 367l198 -211l-399 -299z" />
<glyph unicode="&#xee;" horiz-adv-x="661" d="M-90 1235l313 348h221l308 -352l-142 -111l-282 217l-295 -217zM141 0v1006h373v-1006h-373z" />
<glyph unicode="&#xef;" horiz-adv-x="661" d="M-47 1327q0 67 47.5 114.5t114.5 47.5t114 -47t47 -115t-47 -115t-114 -47t-114.5 47.5t-47.5 114.5zM141 0v1006h373v-1006h-373zM403 1327q0 67 47.5 114.5t114.5 47.5t114.5 -47.5t47.5 -114.5t-47.5 -114.5t-114.5 -47.5t-114.5 47.5t-47.5 114.5z" />
<glyph unicode="&#xf0;" horiz-adv-x="1308" d="M94 453q0 95 31 179t92 152.5t166 109t240 40.5q68 0 134 -19t107 -55l13 6q-6 120 -86 213l-113 -98l-96 102l100 91q-110 64 -264 75l39 275q278 -14 469 -140l135 119l102 -98l-129 -115q195 -213 195 -647q0 -108 -16.5 -200.5t-58.5 -179t-107 -146.5t-169 -96.5 t-239 -36.5q-146 0 -253.5 36.5t-170 102t-92 147.5t-29.5 183zM459 453q0 -108 46.5 -166t133.5 -58q86 0 133 56t47 170q0 102 -44.5 167.5t-133.5 65.5q-95 0 -138.5 -64.5t-43.5 -170.5z" />
<glyph unicode="&#xf1;" horiz-adv-x="1261" d="M106 0v1006h328q41 -51 41 -156h10q104 170 322 170q190 0 269 -95t79 -282v-643h-377v600q0 79 -30 120.5t-101 41.5q-50 0 -84 -20t-49.5 -53.5t-21 -62.5t-5.5 -61v-565h-381zM178 1272q44 114 107 167.5t155 53.5q48 0 157.5 -38t158.5 -38q44 0 79.5 15.5t77.5 62.5 l140 -90q-28 -104 -98 -165.5t-160 -61.5q-55 0 -162.5 38.5t-149.5 38.5q-27 0 -45.5 -2.5t-52 -21t-61.5 -53.5z" />
<glyph unicode="&#xf2;" horiz-adv-x="1308" d="M96 500q0 111 32 203.5t97.5 165.5t175.5 114t256 41q127 0 225.5 -30t159.5 -78.5t100.5 -118t54.5 -141t15 -154.5q0 -78 -15.5 -148.5t-55.5 -139t-101 -118t-159 -80t-224 -30.5q-561 0 -561 514zM240 1409l198 211l348 -367l-147 -143zM467 500q0 -269 186 -269 q88 0 136.5 68t48.5 203q0 270 -185 270q-186 0 -186 -272z" />
<glyph unicode="&#xf3;" horiz-adv-x="1308" d="M96 500q0 111 32 203.5t97.5 165.5t175.5 114t256 41q127 0 225.5 -30t159.5 -78.5t100.5 -118t54.5 -141t15 -154.5q0 -78 -15.5 -148.5t-55.5 -139t-101 -118t-159 -80t-224 -30.5q-561 0 -561 514zM467 500q0 -269 186 -269q88 0 136.5 68t48.5 203q0 270 -185 270 q-186 0 -186 -272zM487 1253l349 367l198 -211l-399 -299z" />
<glyph unicode="&#xf4;" horiz-adv-x="1308" d="M96 500q0 111 32 203.5t97.5 165.5t175.5 114t256 41q127 0 225.5 -30t159.5 -78.5t100.5 -118t54.5 -141t15 -154.5q0 -78 -15.5 -148.5t-55.5 -139t-101 -118t-159 -80t-224 -30.5q-561 0 -561 514zM233 1235l314 348h221l307 -352l-141 -111l-283 217l-295 -217z M467 500q0 -269 186 -269q88 0 136.5 68t48.5 203q0 270 -185 270q-186 0 -186 -272z" />
<glyph unicode="&#xf5;" horiz-adv-x="1308" d="M96 500q0 111 32 203.5t97.5 165.5t175.5 114t256 41q127 0 225.5 -30t159.5 -78.5t100.5 -118t54.5 -141t15 -154.5q0 -78 -15.5 -148.5t-55.5 -139t-101 -118t-159 -80t-224 -30.5q-561 0 -561 514zM233 1272q44 114 107.5 167.5t155.5 53.5q48 0 157 -38t158 -38 q44 0 80 15.5t78 62.5l139 -90q-28 -104 -98 -165.5t-160 -61.5q-55 0 -162 38.5t-149 38.5q-27 0 -46 -2.5t-52.5 -21t-61.5 -53.5zM467 500q0 -269 186 -269q88 0 136.5 68t48.5 203q0 270 -185 270q-186 0 -186 -272z" />
<glyph unicode="&#xf6;" horiz-adv-x="1308" d="M96 500q0 111 32 203.5t97.5 165.5t175.5 114t256 41q127 0 225.5 -30t159.5 -78.5t100.5 -118t54.5 -141t15 -154.5q0 -78 -15.5 -148.5t-55.5 -139t-101 -118t-159 -80t-224 -30.5q-561 0 -561 514zM238 1327q0 68 47 115t114 47t114.5 -47.5t47.5 -114.5t-47.5 -114.5 t-114.5 -47.5t-114 47t-47 115zM467 500q0 -269 186 -269q88 0 136.5 68t48.5 203q0 270 -185 270q-186 0 -186 -272zM688 1327q0 67 47 114.5t115 47.5t115 -47.5t47 -114.5t-47 -114.5t-115 -47.5t-115 47.5t-47 114.5z" />
<glyph unicode="&#xf7;" horiz-adv-x="1433" d="M254 430v250h924v-250h-924zM563 199q0 69 48.5 117.5t117.5 48.5t117.5 -48.5t48.5 -117.5t-48.5 -117.5t-117.5 -48.5t-117.5 48.5t-48.5 117.5zM563 905q0 69 48.5 117.5t117.5 48.5t117.5 -48.5t48.5 -117.5t-48.5 -117.5t-117.5 -48.5t-117.5 48.5t-48.5 117.5z" />
<glyph unicode="&#xf8;" horiz-adv-x="1308" d="M88 88l92 88q-84 125 -84 324q0 111 32 203.5t97.5 165.5t175.5 114t256 41q201 0 334 -76l96 92l107 -110l-86 -82q104 -128 104 -346q0 -78 -15.5 -148.5t-55.5 -139t-101 -118t-159 -80t-224 -30.5q-228 0 -364 84l-100 -95zM467 500q0 -33 2 -49l297 282 q-45 39 -113 39q-186 0 -186 -272zM520 287q47 -56 133 -56q88 0 136.5 68t48.5 203q0 38 -7 82z" />
<glyph unicode="&#xf9;" horiz-adv-x="1230" d="M106 344v662h377v-596q0 -84 24.5 -123t100.5 -39q41 0 69.5 18t41.5 47.5t18.5 57t5.5 57.5v578h381v-1006h-327q-41 55 -41 156h-11q-30 -44 -66.5 -77t-69 -50.5t-68 -27.5t-57.5 -12.5t-44 -2.5q-83 0 -143 17t-96.5 46.5t-58 76.5t-29 97.5t-7.5 120.5zM231 1409 l199 211l348 -367l-147 -143z" />
<glyph unicode="&#xfa;" horiz-adv-x="1230" d="M106 344v662h377v-596q0 -84 24.5 -123t100.5 -39q41 0 69.5 18t41.5 47.5t18.5 57t5.5 57.5v578h381v-1006h-327q-41 55 -41 156h-11q-30 -44 -66.5 -77t-69 -50.5t-68 -27.5t-57.5 -12.5t-44 -2.5q-83 0 -143 17t-96.5 46.5t-58 76.5t-29 97.5t-7.5 120.5zM455 1253 l348 367l198 -211l-399 -299z" />
<glyph unicode="&#xfb;" horiz-adv-x="1230" d="M106 344q0 -70 7.5 -120.5t29 -97.5t58 -76.5t96.5 -46.5t143 -17q22 0 44 2.5t57.5 12.5t68 27.5t69 50.5t66.5 77h11q0 -101 41 -156h327v1006h-381v-578q0 -30 -5.5 -57.5t-18.5 -57t-41.5 -47.5t-69.5 -18q-76 0 -100.5 39t-24.5 123v596h-377v-662zM201 1235 l313 348h221l307 -352l-141 -111l-283 217l-294 -217z" />
<glyph unicode="&#xfc;" horiz-adv-x="1230" d="M106 344q0 -70 7.5 -120.5t29 -97.5t58 -76.5t96.5 -46.5t143 -17q22 0 44 2.5t57.5 12.5t68 27.5t69 50.5t66.5 77h11q0 -101 41 -156h327v1006h-381v-578q0 -30 -5.5 -57.5t-18.5 -57t-41.5 -47.5t-69.5 -18q-76 0 -100.5 39t-24.5 123v596h-377v-662zM225 1327 q0 67 47.5 114.5t114.5 47.5t114.5 -47.5t47.5 -114.5t-47.5 -114.5t-114.5 -47.5t-114.5 47.5t-47.5 114.5zM676 1327q0 67 47 114.5t115 47.5q67 0 114 -47t47 -115t-47 -115t-114 -47q-68 0 -115 47.5t-47 114.5z" />
<glyph unicode="&#xfd;" horiz-adv-x="1153" d="M14 1006h377l103 -408q53 -198 71 -315h13q22 134 77 323l113 400h375l-363 -1029q-21 -60 -34.5 -95t-38 -84t-48 -77.5t-60.5 -61t-80.5 -49.5t-103 -28.5t-132.5 -11.5h-174v283h124q73 0 112 21t58 67l29 75h-88zM436 1253l348 367l199 -211l-399 -299z" />
<glyph unicode="&#xfe;" horiz-adv-x="1296" d="M106 -418v1872h381v-375q0 -142 -22 -209h12q74 89 151.5 119.5t164.5 30.5q417 0 417 -498q0 -538 -438 -538q-209 0 -285 92h-10v-494h-371zM471 426q0 -209 164 -209q92 0 136 72.5t44 199.5q0 141 -41 205t-137 64q-76 0 -121 -59t-45 -150v-123z" />
<glyph unicode="&#xff;" horiz-adv-x="1153" d="M14 1006h377l103 -408q53 -198 71 -315h13q22 134 77 323l113 400h375l-363 -1029q-21 -60 -34.5 -95t-38 -84t-48 -77.5t-60.5 -61t-80.5 -49.5t-103 -28.5t-132.5 -11.5h-174v283h124q73 0 112 21t58 67l29 75h-88zM184 1327q0 67 47 114.5t115 47.5t115 -47.5 t47 -114.5t-47 -114.5t-115 -47.5t-115 47.5t-47 114.5zM635 1327q0 67 47.5 114.5t114.5 47.5t114 -47t47 -115t-47 -115t-114 -47t-114.5 47.5t-47.5 114.5z" />
<glyph unicode="&#x100;" horiz-adv-x="1521" d="M8 0l539 1391h438l504 -1391h-406l-90 299h-489l-105 -299h-391zM418 1561v227h684v-227h-684zM608 571h287l-53 187q-55 190 -74 295h-18q-42 -178 -80 -295z" />
<glyph unicode="&#x101;" horiz-adv-x="1202" d="M76 295q0 321 508 321q4 0 139 -6v39q0 68 -33 97.5t-84 29.5q-100 0 -119 -88h-331q-4 16 -4 49q0 61 27.5 111t73 82.5t106 54.5t124.5 31.5t131 9.5q480 0 480 -381v-645h-310q-31 47 -36 150h-13q-46 -76 -135 -121t-184 -45q-340 0 -340 311zM270 1219v227h703v-227 h-703zM446 326q0 -48 33.5 -72.5t77.5 -24.5q49 0 83.5 15t51 40.5t23 51t6.5 55.5v35q-53 6 -92 6q-183 0 -183 -106z" />
<glyph unicode="&#x102;" horiz-adv-x="1521" d="M8 0l539 1391h438l504 -1391h-406l-90 299h-489l-105 -299h-391zM389 1880h213q9 -73 48 -124.5t110 -51.5q67 0 106 51.5t47 124.5h213q-5 -64 -27.5 -128.5t-64 -126.5t-113 -101t-161.5 -39q-75 0 -137 26.5t-102.5 67.5t-70 95t-43.5 105t-18 101zM608 571h287 l-53 187q-55 190 -74 295h-18q-42 -178 -80 -295z" />
<glyph unicode="&#x103;" horiz-adv-x="1202" d="M76 295q0 321 508 321q4 0 139 -6v39q0 68 -33 97.5t-84 29.5q-100 0 -119 -88h-331q-4 16 -4 49q0 61 27.5 111t73 82.5t106 54.5t124.5 31.5t131 9.5q480 0 480 -381v-645h-310q-31 47 -36 150h-13q-46 -76 -135 -121t-184 -45q-340 0 -340 311zM272 1518h213 q9 -74 48 -125.5t110 -51.5q67 0 106.5 52t47.5 125h213q-4 -50 -18 -101.5t-43.5 -105t-69.5 -95t-101.5 -68t-134.5 -26.5q-75 0 -137 26.5t-102.5 68t-70 95t-43.5 105t-18 101.5zM446 326q0 -48 33.5 -72.5t77.5 -24.5q49 0 83.5 15t51 40.5t23 51t6.5 55.5v35 q-53 6 -92 6q-183 0 -183 -106z" />
<glyph unicode="&#x104;" horiz-adv-x="1521" d="M8 0l539 1391h438l504 -1391h-272q-97 -108 -97 -199q0 -62 50 -98.5t137 -36.5q51 0 112 15l29 -103q-138 -63 -287 -63q-141 0 -212.5 53t-71.5 137q0 74 54 155t150 146l-88 293h-489l-105 -299h-391zM608 571h287l-53 187q-55 190 -74 295h-18q-42 -178 -80 -295z " />
<glyph unicode="&#x105;" horiz-adv-x="1202" d="M76 295q0 321 508 321q4 0 139 -6v39q0 68 -33 97.5t-84 29.5q-100 0 -119 -88h-331q-4 16 -4 49q0 61 27.5 111t73 82.5t106 54.5t124.5 31.5t131 9.5q480 0 480 -381v-645h-213q-95 -107 -95 -197q0 -62 50 -98.5t137 -36.5q51 0 112 15l29 -103q-138 -63 -287 -63 q-141 0 -212.5 53t-71.5 137q0 78 60.5 164t166.5 152q-19 47 -22 127h-13q-46 -76 -135 -121t-184 -45q-340 0 -340 311zM446 326q0 -48 33.5 -72.5t77.5 -24.5q49 0 83.5 15t51 40.5t23 51t6.5 55.5v35q-53 6 -92 6q-183 0 -183 -106z" />
<glyph unicode="&#x106;" horiz-adv-x="1490" d="M106 688q0 -706 705 -706q88 0 173 16t164 51.5t139 86t96 126t36 166.5q0 45 -4 70h-375q-1 -102 -69.5 -164t-177.5 -62q-153 0 -220 101.5t-67 314.5q0 210 67 318t211 108q108 0 169.5 -53t62.5 -154h375q4 32 4 49q0 142 -84 246.5t-217.5 154.5t-296.5 50 q-114 0 -215.5 -26.5t-189 -84t-151 -140.5t-99.5 -203t-36 -265zM625 1642l415 287l160 -260l-467 -205z" />
<glyph unicode="&#x107;" horiz-adv-x="1204" d="M90 498q0 261 139.5 391.5t374.5 130.5q229 0 358.5 -94.5t129.5 -259.5q0 -8 -5 -48h-346q-2 41 -16 71t-34.5 44.5t-40 20.5t-38.5 6q-46 0 -77.5 -22.5t-46 -63t-20 -82t-5.5 -94.5q0 -133 32 -192.5t126 -59.5q46 0 85.5 30.5t49.5 98.5h346q2 -14 2 -43 q0 -75 -26.5 -135t-71 -99t-105.5 -65.5t-126.5 -37.5t-137.5 -11q-280 0 -413.5 125.5t-133.5 388.5zM410 1253l348 367l198 -211l-399 -299z" />
<glyph unicode="&#x108;" horiz-adv-x="1490" d="M106 688q0 -706 705 -706q88 0 173 16t164 51.5t139 86t96 126t36 166.5q0 45 -4 70h-375q-1 -102 -69.5 -164t-177.5 -62q-153 0 -220 101.5t-67 314.5q0 210 67 318t211 108q108 0 169.5 -53t62.5 -154h375q4 32 4 49q0 142 -84 246.5t-217.5 154.5t-296.5 50 q-114 0 -215.5 -26.5t-189 -84t-151 -140.5t-99.5 -203t-36 -265zM373 1583l307 307h221l289 -307l-121 -115l-287 193l-293 -193z" />
<glyph unicode="&#x109;" horiz-adv-x="1204" d="M90 498q0 -263 133.5 -388.5t413.5 -125.5q72 0 137.5 11t126.5 37.5t105.5 65.5t71 99t26.5 135q0 29 -2 43h-346q-10 -68 -49.5 -98.5t-85.5 -30.5q-94 0 -126 59.5t-32 192.5q0 53 5.5 94.5t20 82t46 63t77.5 22.5q19 0 38.5 -6t40 -20.5t34.5 -44.5t16 -71h346 q5 40 5 48q0 165 -129.5 259.5t-358.5 94.5q-235 0 -374.5 -130.5t-139.5 -391.5zM184 1235l314 348h221l307 -352l-141 -111l-283 217l-295 -217z" />
<glyph unicode="&#x10a;" horiz-adv-x="1490" d="M106 688q0 -706 705 -706q88 0 173 16t164 51.5t139 86t96 126t36 166.5q0 45 -4 70h-375q-1 -102 -69.5 -164t-177.5 -62q-153 0 -220 101.5t-67 314.5q0 210 67 318t211 108q108 0 169.5 -53t62.5 -154h375q4 32 4 49q0 142 -84 246.5t-217.5 154.5t-296.5 50 q-114 0 -215.5 -26.5t-189 -84t-151 -140.5t-99.5 -203t-36 -265zM580 1690q0 69 48 118.5t117 49.5t118.5 -49.5t49.5 -118.5t-49.5 -117.5t-118.5 -48.5t-117 48.5t-48 117.5z" />
<glyph unicode="&#x10b;" horiz-adv-x="1204" d="M90 498q0 -263 133.5 -388.5t413.5 -125.5q72 0 137.5 11t126.5 37.5t105.5 65.5t71 99t26.5 135q0 29 -2 43h-346q-10 -68 -49.5 -98.5t-85.5 -30.5q-94 0 -126 59.5t-32 192.5q0 53 5.5 94.5t20 82t46 63t77.5 22.5q19 0 38.5 -6t40 -20.5t34.5 -44.5t16 -71h346 q5 40 5 48q0 165 -129.5 259.5t-358.5 94.5q-235 0 -374.5 -130.5t-139.5 -391.5zM438 1341q0 69 48.5 118.5t117.5 49.5t118.5 -49.5t49.5 -118.5t-49.5 -117t-118.5 -48t-117.5 48t-48.5 117z" />
<glyph unicode="&#x10c;" horiz-adv-x="1490" d="M106 688q0 145 36 265t99.5 203t151 140.5t189 84t215.5 26.5q163 0 296.5 -50t217.5 -154.5t84 -246.5q0 -17 -4 -49h-375q-1 101 -62.5 154t-169.5 53q-144 0 -211 -108t-67 -318q0 -213 67 -314.5t220 -101.5q109 0 177.5 62t69.5 164h375q4 -25 4 -70 q0 -91 -36 -166.5t-96 -126t-139 -86t-164 -51.5t-173 -16q-705 0 -705 706zM365 1790l122 115l295 -176l283 176l141 -111l-307 -311h-221z" />
<glyph unicode="&#x10d;" horiz-adv-x="1204" d="M90 498q0 261 139.5 391.5t374.5 130.5q229 0 358.5 -94.5t129.5 -259.5q0 -8 -5 -48h-346q-2 41 -16 71t-34.5 44.5t-40 20.5t-38.5 6q-46 0 -77.5 -22.5t-46 -63t-20 -82t-5.5 -94.5q0 -133 32 -192.5t126 -59.5q46 0 85.5 30.5t49.5 98.5h346q2 -14 2 -43 q0 -75 -26.5 -135t-71 -99t-105.5 -65.5t-126.5 -37.5t-137.5 -11q-280 0 -413.5 125.5t-133.5 388.5zM205 1458l123 115l295 -203l282 203l127 -105l-293 -344h-221z" />
<glyph unicode="&#x10e;" horiz-adv-x="1501" d="M129 0v1386h555q111 0 210 -21t192 -72t160 -129t107 -200.5t40 -277.5q0 -321 -189.5 -503.5t-519.5 -182.5h-555zM250 1784l123 114l295 -176l282 176l142 -110l-308 -311h-221zM516 283h92q56 0 105.5 9.5t103.5 37t92 71t63 118t25 171.5q0 77 -14 140t-36 105.5 t-55 74t-66 49t-74 28.5t-73.5 14t-70.5 3h-92v-821z" />
<glyph unicode="&#x10f;" horiz-adv-x="1710" d="M96 483q0 -87 12 -158t41.5 -135.5t75.5 -108.5t118.5 -69.5t166.5 -25.5q233 0 334 168h10q0 -44 10.5 -88t28.5 -66h307v1454h-371v-524h-10q-92 92 -270 92q-121 0 -210 -40t-141.5 -114t-77 -169.5t-24.5 -215.5zM479 502q0 125 48 198.5t141 73.5q170 0 170 -209 v-123q0 -91 -45.5 -150t-122.5 -59q-97 0 -144 65t-47 204zM1374 1325q0 66 46 113t112 47q68 0 114 -45.5t46 -112.5q0 -46 -23 -94l-184 -338l-94 37l84 246q-45 18 -73 57.5t-28 89.5z" />
<glyph unicode="&#x110;" horiz-adv-x="1501" d="M23 602v201h106v583h555q111 0 210 -21t192 -72t160 -129t107 -200.5t40 -277.5q0 -321 -189.5 -503.5t-519.5 -182.5h-555v602h-106zM516 283h92q56 0 105.5 9.5t103.5 37t92 71t63 118t25 171.5q0 77 -14 140t-36 105.5t-55 74t-66 49t-74 28.5t-73.5 14t-70.5 3h-92 v-301h219v-201h-219v-319z" />
<glyph unicode="&#x111;" horiz-adv-x="1306" d="M96 463q0 518 453 518q178 0 270 -92h10v233h-280v158h280v174h371v-174h78v-158h-78v-1122h-307q-18 22 -28.5 66t-10.5 88h-10q-101 -168 -334 -168q-94 0 -166.5 24t-118.5 65.5t-75.5 103t-41.5 130.5t-12 154zM492 481q0 -132 41 -190t137 -58q76 0 121 54t45 135 v123q0 88 -40.5 138t-123.5 50q-91 0 -135.5 -68.5t-44.5 -183.5z" />
<glyph unicode="&#x112;" horiz-adv-x="1318" d="M129 0v1386h1077v-286h-690v-238h629v-284h-629v-293h707v-285h-1094zM330 1561v227h684v-227h-684z" />
<glyph unicode="&#x113;" horiz-adv-x="1216" d="M96 479q0 -493 516 -493q101 0 185.5 16.5t157 52.5t114 103t41.5 159q0 19 -2 33h-346q-8 -48 -41.5 -84.5t-102.5 -36.5q-42 0 -72 13.5t-46 33.5t-25 54t-11.5 64.5t-2.5 76.5h655q6 41 6 74q0 100 -29.5 184t-89 150.5t-159 104.5t-230.5 38t-231.5 -40 t-162.5 -113.5t-93 -171.5t-31 -218zM264 1219v227h703v-227h-703zM471 639q3 68 39 102.5t94 34.5q124 0 135 -137h-268z" />
<glyph unicode="&#x114;" horiz-adv-x="1318" d="M129 0v1386h1077v-286h-690v-238h629v-284h-629v-293h707v-285h-1094zM317 1880h213q9 -73 48 -124.5t110 -51.5q67 0 106.5 52t47.5 124h213q-4 -50 -18 -101.5t-43.5 -105t-70 -94.5t-101.5 -67.5t-134 -26.5q-75 0 -137 26.5t-102.5 67.5t-70 95t-43.5 105t-18 101z " />
<glyph unicode="&#x115;" horiz-adv-x="1216" d="M96 479q0 -493 516 -493q101 0 185.5 16.5t157 52.5t114 103t41.5 159q0 19 -2 33h-346q-8 -48 -41.5 -84.5t-102.5 -36.5q-42 0 -72 13.5t-46 33.5t-25 54t-11.5 64.5t-2.5 76.5h655q6 41 6 74q0 100 -29.5 184t-89 150.5t-159 104.5t-230.5 38t-231.5 -40 t-162.5 -113.5t-93 -171.5t-31 -218zM258 1518h213q9 -74 48 -125.5t110 -51.5q67 0 106 52t47 125h213q-4 -50 -18 -101.5t-43 -105t-69.5 -95t-101.5 -68t-134 -26.5q-75 0 -137 26.5t-102.5 68t-70 95t-43.5 105t-18 101.5zM471 639q3 68 39 102.5t94 34.5 q124 0 135 -137h-268z" />
<glyph unicode="&#x116;" horiz-adv-x="1318" d="M129 0v1386h1077v-286h-690v-238h629v-284h-629v-293h707v-285h-1094zM520 1690q0 69 48.5 118.5t117.5 49.5t118.5 -49.5t49.5 -118.5t-49.5 -117.5t-118.5 -48.5t-117.5 48.5t-48.5 117.5z" />
<glyph unicode="&#x117;" horiz-adv-x="1216" d="M96 479q0 -493 516 -493q101 0 185.5 16.5t157 52.5t114 103t41.5 159q0 19 -2 33h-346q-8 -48 -41.5 -84.5t-102.5 -36.5q-42 0 -72 13.5t-46 33.5t-25 54t-11.5 64.5t-2.5 76.5h655q6 41 6 74q0 100 -29.5 184t-89 150.5t-159 104.5t-230.5 38t-231.5 -40 t-162.5 -113.5t-93 -171.5t-31 -218zM455 1341q0 69 48.5 118.5t117.5 49.5t118 -49.5t49 -118.5t-49 -117t-118 -48t-117.5 48t-48.5 117zM471 639q3 68 39 102.5t94 34.5q124 0 135 -137h-268z" />
<glyph unicode="&#x118;" horiz-adv-x="1318" d="M129 0v1386h1077v-286h-690v-238h629v-284h-629v-293h707v-285h-123q-99 -111 -99 -201q0 -62 50 -98.5t137 -36.5q55 0 112 14l29 -102q-138 -63 -287 -63q-141 0 -212.5 53t-71.5 137q0 73 52 152.5t146 144.5h-827z" />
<glyph unicode="&#x119;" horiz-adv-x="1216" d="M96 479q0 120 31 218t93 171.5t162.5 113.5t231.5 40t230.5 -38t159 -104.5t89 -150.5t29.5 -184q0 -33 -6 -74h-655q-1 -44 1.5 -76t12 -65.5t26 -54t46 -33.5t71.5 -13q69 0 102.5 36.5t41.5 84.5h346q2 -14 2 -33q0 -187 -174 -272q-88 -101 -88 -188q0 -62 49.5 -99 t136.5 -37q52 0 113 15l29 -103q-138 -63 -287 -63q-141 0 -213 53t-72 137q0 115 117 232q-53 -6 -109 -6q-275 4 -395.5 129.5t-120.5 363.5zM471 639h268q-11 137 -135 137q-58 0 -94 -34.5t-39 -102.5z" />
<glyph unicode="&#x11a;" horiz-adv-x="1318" d="M129 0v1386h1077v-286h-690v-238h629v-284h-629v-293h707v-285h-1094zM246 1784l123 114l295 -176l282 176l141 -110l-307 -311h-221z" />
<glyph unicode="&#x11b;" horiz-adv-x="1216" d="M96 479q0 120 31 218t93 171.5t162.5 113.5t231.5 40t230.5 -38t159 -104.5t89 -150.5t29.5 -184q0 -33 -6 -74h-655q0 -46 2.5 -76.5t11.5 -64.5t25 -54t46 -33.5t72 -13.5q69 0 102.5 36.5t41.5 84.5h346q2 -14 2 -33q0 -92 -41.5 -159t-114 -103t-157 -52.5 t-185.5 -16.5q-516 0 -516 493zM213 1458l123 115l295 -203l282 203l127 -105l-292 -344h-222zM471 639h268q-11 137 -135 137q-58 0 -94 -34.5t-39 -102.5z" />
<glyph unicode="&#x11c;" horiz-adv-x="1515" d="M106 680q0 -698 691 -698q98 0 186 16.5t172 56.5t144.5 101.5t97.5 157.5t37 218v222h-533v-254h148v-27q0 -83 -64.5 -143t-181.5 -60q-162 0 -229.5 97t-67.5 321q0 214 67.5 321t221.5 107q91 0 149.5 -47t65.5 -131h381q4 24 4 39q0 110 -50.5 195t-136.5 135 t-190 75t-221 25q-153 0 -277.5 -44.5t-218 -132.5t-144.5 -228t-51 -322zM373 1577l307 307h221l289 -307l-121 -115l-287 193l-293 -193z" />
<glyph unicode="&#x11d;" horiz-adv-x="1343" d="M84 -156q0 -134 134 -216.5t411 -82.5q172 0 304 33.5t214 109t82 185.5q0 127 -97 192.5t-286 90.5l-303 39q-62 8 -96.5 25t-34.5 40q0 20 26 33q67 -21 224 -21q246 0 381 100t135 271q0 98 -56 180l4 17q98 9 150 30v134h-424q-70 22 -205 22q-237 0 -375.5 -103 t-138.5 -284q0 -142 92 -227q-61 -37 -91 -90t-30 -101q0 -49 32.5 -104t96.5 -86q-73 -31 -111 -82t-38 -105zM213 1235l313 348h222l307 -352l-142 -111l-282 217l-295 -217zM459 -129q0 43 53 82l186 -16q91 -10 122.5 -28t31.5 -48q0 -29 -45.5 -51.5t-142.5 -22.5 q-89 0 -147 23.5t-58 60.5zM502 645q0 59 37.5 92t111.5 33q81 0 115.5 -36t34.5 -89q0 -51 -34.5 -88t-115.5 -37q-77 0 -113 34t-36 91z" />
<glyph unicode="&#x11e;" horiz-adv-x="1515" d="M106 680q0 -698 691 -698q98 0 186 16.5t172 56.5t144.5 101.5t97.5 157.5t37 218v222h-533v-254h148v-27q0 -83 -64.5 -143t-181.5 -60q-162 0 -229.5 97t-67.5 321q0 214 67.5 321t221.5 107q91 0 149.5 -47t65.5 -131h381q4 24 4 39q0 110 -50.5 195t-136.5 135 t-190 75t-221 25q-153 0 -277.5 -44.5t-218 -132.5t-144.5 -228t-51 -322zM432 1884h213q9 -73 48 -124.5t110 -51.5q67 0 106 51.5t47 124.5h213q-5 -64 -27.5 -128.5t-64 -126.5t-113 -101t-161.5 -39q-75 0 -137 26.5t-102.5 67.5t-70 95t-43.5 105t-18 101z" />
<glyph unicode="&#x11f;" horiz-adv-x="1343" d="M84 -156q0 -134 134 -216.5t411 -82.5q172 0 304 33.5t214 109t82 185.5q0 127 -97 192.5t-286 90.5l-303 39q-62 8 -96.5 25t-34.5 40q0 20 26 33q67 -21 224 -21q246 0 381 100t135 271q0 98 -56 180l4 17q98 9 150 30v134h-424q-70 22 -205 22q-237 0 -375.5 -103 t-138.5 -284q0 -142 92 -227q-61 -37 -91 -90t-30 -101q0 -49 32.5 -104t96.5 -86q-73 -31 -111 -82t-38 -105zM270 1518h213q9 -74 48 -125.5t110 -51.5q67 0 106.5 52t47.5 125h213q-4 -50 -18 -101.5t-43.5 -105t-69.5 -95t-101.5 -68t-134.5 -26.5q-75 0 -137 26.5 t-102.5 68t-70 95t-43.5 105t-18 101.5zM459 -129q0 43 53 82l186 -16q91 -10 122.5 -28t31.5 -48q0 -29 -45.5 -51.5t-142.5 -22.5q-89 0 -147 23.5t-58 60.5zM502 645q0 59 37.5 92t111.5 33q81 0 115.5 -36t34.5 -89q0 -51 -34.5 -88t-115.5 -37q-77 0 -113 34t-36 91z " />
<glyph unicode="&#x120;" horiz-adv-x="1515" d="M106 680q0 -698 691 -698q98 0 186 16.5t172 56.5t144.5 101.5t97.5 157.5t37 218v222h-533v-254h148v-27q0 -83 -64.5 -143t-181.5 -60q-162 0 -229.5 97t-67.5 321q0 214 67.5 321t221.5 107q91 0 149.5 -47t65.5 -131h381q4 24 4 39q0 110 -50.5 195t-136.5 135 t-190 75t-221 25q-153 0 -277.5 -44.5t-218 -132.5t-144.5 -228t-51 -322zM618 1700q0 69 48.5 118.5t117.5 49.5t118.5 -49.5t49.5 -118.5t-49.5 -117.5t-118.5 -48.5t-117.5 48.5t-48.5 117.5z" />
<glyph unicode="&#x121;" horiz-adv-x="1343" d="M84 -156q0 -134 134 -216.5t411 -82.5q172 0 304 33.5t214 109t82 185.5q0 127 -97 192.5t-286 90.5l-303 39q-62 8 -96.5 25t-34.5 40q0 20 26 33q67 -21 224 -21q246 0 381 100t135 271q0 98 -56 180l4 17q98 9 150 30v134h-424q-70 22 -205 22q-237 0 -375.5 -103 t-138.5 -284q0 -142 92 -227q-61 -37 -91 -90t-30 -101q0 -49 32.5 -104t96.5 -86q-73 -31 -111 -82t-38 -105zM459 -129q0 43 53 82l186 -16q91 -10 122.5 -28t31.5 -48q0 -29 -45.5 -51.5t-142.5 -22.5q-89 0 -147 23.5t-58 60.5zM461 1341q0 69 48.5 118.5t117.5 49.5 t118.5 -49.5t49.5 -118.5t-49.5 -117t-118.5 -48t-117.5 48t-48.5 117zM502 645q0 59 37.5 92t111.5 33q81 0 115.5 -36t34.5 -89q0 -51 -34.5 -88t-115.5 -37q-77 0 -113 34t-36 91z" />
<glyph unicode="&#x122;" horiz-adv-x="1515" d="M106 680q0 182 51 322t144.5 228t218 132.5t277.5 44.5q117 0 221 -25t190 -75t136.5 -135t50.5 -195q0 -15 -4 -39h-381q-7 84 -65.5 131t-149.5 47q-154 0 -221.5 -107t-67.5 -321q0 -224 67.5 -321t229.5 -97q117 0 181.5 60t64.5 143v27h-148v254h533v-222 q0 -122 -37 -218t-97.5 -157.5t-144.5 -101.5t-172 -56.5t-186 -16.5q-691 0 -691 698zM623 -238q0 66 45.5 113t111.5 47q68 0 114 -46t46 -112q0 -48 -22 -94l-185 -338l-94 37l84 246q-45 18 -72.5 57.5t-27.5 89.5z" />
<glyph unicode="&#x123;" horiz-adv-x="1343" d="M84 -156q0 -134 134 -216.5t411 -82.5q172 0 304 33.5t214 109t82 185.5q0 127 -97 192.5t-286 90.5l-303 39q-62 8 -96.5 25t-34.5 40q0 20 26 33q67 -21 224 -21q246 0 381 100t135 271q0 98 -56 180l4 17q98 9 150 30v134h-424q-70 22 -205 22q-237 0 -375.5 -103 t-138.5 -284q0 -142 92 -227q-61 -37 -91 -90t-30 -101q0 -49 32.5 -104t96.5 -86q-73 -31 -111 -82t-38 -105zM459 -129q0 43 53 82l186 -16q91 -10 122.5 -28t31.5 -48q0 -29 -45.5 -51.5t-142.5 -22.5q-89 0 -147 23.5t-58 60.5zM494 1278q0 54 22 94l174 307l94 -37 l-73 -215q45 -18 72.5 -57.5t27.5 -89.5q0 -66 -46 -113t-112 -47q-68 0 -113.5 45.5t-45.5 112.5zM502 645q0 59 37.5 92t111.5 33q81 0 115.5 -36t34.5 -89q0 -51 -34.5 -88t-115.5 -37q-77 0 -113 34t-36 91z" />
<glyph unicode="&#x124;" horiz-adv-x="1568" d="M129 0v1389h387v-527h535v527h389v-1389h-389v575h-535v-575h-387zM381 1585l307 307h221l289 -307l-121 -115l-286 193l-293 -193z" />
<glyph unicode="&#x125;" horiz-adv-x="1261" d="M-121 1616l307 307h222l288 -307l-121 -115l-286 193l-293 -193zM106 0h381v584q0 23 3.5 45t14.5 47.5t27.5 44t46 31t66.5 12.5q133 0 133 -162v-602h377v643q0 186 -81 281.5t-271 95.5q-38 0 -79.5 -8t-91.5 -26.5t-96.5 -57t-78.5 -92.5h-13q29 77 29 231v391h-367 v-1458z" />
<glyph unicode="&#x126;" horiz-adv-x="1568" d="M31 1057v174h98v158h385v-158h545v158h381v-158h106v-174h-106v-1057h-381v575h-545v-575h-385v1057h-98zM514 862h545v195h-545v-195z" />
<glyph unicode="&#x127;" horiz-adv-x="1261" d="M16 1108v172h90v178h367v-178h375v-172h-375v-41q0 -67 -7 -155t-22 -128h13q32 54 78.5 92.5t96.5 57.5t91.5 27t79.5 8q190 0 271 -95.5t81 -281.5v-592h-377v551q0 162 -133 162q-37 0 -66.5 -12.5t-46 -31.5t-27.5 -44t-14.5 -47.5t-3.5 -45.5v-532h-381v1108h-90z " />
<glyph unicode="&#x128;" horiz-adv-x="667" d="M-109 1620q44 114 107.5 167.5t155.5 53.5q48 0 157 -38t158 -38q44 0 80 15.5t78 62.5l139 -90q-28 -104 -98 -165.5t-160 -61.5q-55 0 -162 39t-149 39q-26 0 -45.5 -3t-53 -21.5t-61.5 -53.5zM139 0v1386h389v-1386h-389z" />
<glyph unicode="&#x129;" horiz-adv-x="661" d="M-123 1272q44 114 107 167.5t155 53.5q48 0 157.5 -38t158.5 -38q44 0 79.5 15.5t77.5 62.5l140 -90q-28 -104 -98 -165.5t-160 -61.5q-55 0 -162.5 38.5t-149.5 38.5q-27 0 -45.5 -2.5t-52 -21t-61.5 -53.5zM141 0v1006h373v-1006h-373z" />
<glyph unicode="&#x12a;" horiz-adv-x="667" d="M-8 1561v227h684v-227h-684zM139 0v1386h389v-1386h-389z" />
<glyph unicode="&#x12b;" horiz-adv-x="661" d="M-12 1219v227h702v-227h-702zM141 0v1006h373v-1006h-373z" />
<glyph unicode="&#x12c;" horiz-adv-x="630" d="M-37 1884h213q9 -73 48 -124.5t110 -51.5q67 0 106 51.5t47 124.5h213q-5 -64 -27.5 -128.5t-64 -126.5t-113 -101t-161.5 -39q-75 0 -137 26.5t-102.5 67.5t-70 95t-43.5 105t-18 101zM133 0v1386h389v-1386h-389z" />
<glyph unicode="&#x12d;" horiz-adv-x="661" d="M-35 1530h213q9 -73 48 -124.5t110 -51.5q67 0 106 51.5t47 124.5h213q-5 -64 -27.5 -128.5t-64 -126.5t-113 -101t-161.5 -39q-75 0 -137 26.5t-102.5 67.5t-70 95t-43.5 105t-18 101zM141 0v1006h373v-1006h-373z" />
<glyph unicode="&#x12e;" horiz-adv-x="667" d="M-57 -301q0 74 54 155t150 146h-8v1386h389v-1386h-239q-103 -112 -103 -205q0 -62 50 -98.5t137 -36.5q55 0 112 14l29 -102q-140 -64 -287 -64q-141 0 -212.5 53t-71.5 138z" />
<glyph unicode="&#x12f;" horiz-adv-x="661" d="M-51 -283q0 72 50 150t142 141v998h373v-1006h-235q-86 -102 -86 -186q0 -62 49.5 -99t136.5 -37q51 0 113 15l28 -103q-138 -63 -287 -63q-141 0 -212.5 53t-71.5 137zM129 1290q0 87 52.5 138t146.5 51q96 0 150 -51t54 -138q0 -96 -53 -146t-151 -50q-96 0 -147.5 50 t-51.5 146z" />
<glyph unicode="&#x130;" horiz-adv-x="667" d="M139 0v1386h389v-1386h-389zM164 1690q0 69 48.5 118.5t117.5 49.5t118.5 -49.5t49.5 -118.5t-49.5 -117.5t-118.5 -48.5t-117.5 48.5t-48.5 117.5z" />
<glyph unicode="&#x131;" horiz-adv-x="661" d="M141 0v1006h373v-1006h-373z" />
<glyph unicode="&#x132;" horiz-adv-x="1886" d="M133 0v1386h389v-1386h-389zM606 395q0 27 8 97h373q1 -52 9 -88.5t27.5 -67.5t56 -46.5t91.5 -15.5q106 0 152.5 62.5t46.5 167.5v885h387v-852q0 -57 -6 -109t-23.5 -109t-45 -104t-73.5 -91t-106 -74t-146 -48t-190 -18q-273 0 -417 101.5t-144 309.5z" />
<glyph unicode="&#x133;" horiz-adv-x="1339" d="M133 1290q0 86 57.5 143.5t139.5 57.5q86 0 143 -57.5t57 -143.5q0 -82 -57 -139t-143 -57q-82 0 -139.5 57t-57.5 139zM141 0v1006h373v-1006h-373zM678 -152h29q77 0 98.5 27t21.5 98v1033h373v-1117q0 -71 -15.5 -126t-51 -99.5t-100 -68t-156.5 -23.5h-199v276z M819 1290q0 86 57.5 143.5t139.5 57.5q86 0 143.5 -57.5t57.5 -143.5q0 -82 -57.5 -139t-143.5 -57q-82 0 -139.5 57t-57.5 139z" />
<glyph unicode="&#x134;" horiz-adv-x="1310" d="M25 395q0 27 8 97h373q1 -52 9 -88.5t27.5 -67.5t56 -46.5t91.5 -15.5q198 0 198 230v885h388v-852q0 -57 -6 -109t-23.5 -109t-45 -104t-73.5 -91t-106 -74t-146 -48t-190 -18q-273 0 -417 101.5t-144 309.5zM573 1583l308 307h221l289 -307l-121 -115l-287 193 l-293 -193z" />
<glyph unicode="&#x135;" horiz-adv-x="591" d="M-119 1235l314 348h221l307 -352l-141 -111l-283 217l-295 -217zM-10 -80h45q30 0 49.5 8t27 23t9.5 26t2 29v1000h354v-1053q0 -303 -309 -303h-178v270z" />
<glyph unicode="&#x136;" horiz-adv-x="1470" d="M129 0v1391h385v-504h90l385 504h449l-529 -650l547 -741h-471l-397 588h-74v-588h-385zM555 -195q0 66 46 113t112 47q68 0 113.5 -45.5t45.5 -112.5q0 -48 -22 -94l-184 -338l-95 37l84 246q-45 18 -72.5 57.5t-27.5 89.5z" />
<glyph unicode="&#x137;" horiz-adv-x="1241" d="M106 0v1456h377v-754h123l221 304h398l-363 -461l373 -545h-426l-256 416h-70v-416h-377zM465 -236q0 66 46 113t112 47q69 0 114 -45t45 -112q0 -49 -22 -95l-185 -338l-94 37l84 246q-45 18 -72.5 57.5t-27.5 89.5z" />
<glyph unicode="&#x138;" horiz-adv-x="1247" d="M106 0v1006h377v-304h111l221 304h410l-363 -461l373 -545h-426l-256 416h-70v-416h-377z" />
<glyph unicode="&#x139;" horiz-adv-x="1255" d="M133 0v1386h387v-1099h709v-287h-1096zM166 1642l416 287l159 -260l-467 -205z" />
<glyph unicode="&#x13a;" horiz-adv-x="671" d="M127 301v1153h373v-1079q0 -68 22.5 -89t98.5 -24v-264q-102 -12 -162 -12q-185 0 -258.5 67.5t-73.5 247.5zM195 1724l415 287l160 -260l-467 -205z" />
<glyph unicode="&#x13b;" horiz-adv-x="1255" d="M133 0v1386h387v-1099h709v-287h-1096zM449 -236q0 66 45.5 113t111.5 47q69 0 114.5 -45.5t45.5 -111.5q0 -47 -23 -95l-184 -338l-94 37l84 246q-45 18 -72.5 57.5t-27.5 89.5z" />
<glyph unicode="&#x13c;" horiz-adv-x="671" d="M127 301v1153h373v-1079q0 -68 22.5 -89t98.5 -24v-264q-102 -12 -162 -12q-185 0 -258.5 67.5t-73.5 247.5zM213 -236q0 66 46 113t112 47q69 0 114 -45t45 -112q0 -49 -22 -95l-184 -338l-95 37l84 246q-45 18 -72.5 57.5t-27.5 89.5z" />
<glyph unicode="&#x13d;" horiz-adv-x="1255" d="M133 0v1386h387v-1099h709v-287h-1096zM836 1229q0 66 45.5 113t111.5 47q69 0 114.5 -45.5t45.5 -112.5q0 -46 -23 -94l-184 -338l-94 37l84 245q-45 17 -72.5 57.5t-27.5 90.5z" />
<glyph unicode="&#x13e;" horiz-adv-x="950" d="M74 301v1153h372v-1079q0 -68 22.5 -89t98.5 -24v-264q-102 -12 -161 -12q-185 0 -258.5 67.5t-73.5 247.5zM631 1294q0 66 45.5 113t111.5 47q68 0 114 -46t46 -112q0 -48 -22 -94l-185 -338l-94 37l84 246q-45 18 -72.5 57.5t-27.5 89.5z" />
<glyph unicode="&#x13f;" horiz-adv-x="1255" d="M133 0v1386h387v-1099h709v-287h-1096zM770 838q0 69 48.5 118.5t117.5 49.5t118.5 -49.5t49.5 -118.5t-49.5 -117.5t-118.5 -48.5t-117.5 48.5t-48.5 117.5z" />
<glyph unicode="&#x140;" horiz-adv-x="968" d="M127 301v1153h373v-1079q0 -68 22.5 -89t98.5 -24v-264q-102 -12 -162 -12q-185 0 -258.5 67.5t-73.5 247.5zM645 817q0 69 48.5 118.5t117.5 49.5t118.5 -49.5t49.5 -118.5t-49.5 -117.5t-118.5 -48.5t-117.5 48.5t-48.5 117.5z" />
<glyph unicode="&#x141;" horiz-adv-x="1255" d="M-53 549l186 90v747h387v-565l256 125l70 -158l-326 -157v-344h709v-287h-1096v446l-121 -57z" />
<glyph unicode="&#x142;" horiz-adv-x="671" d="M-57 582l184 104v768h373v-555l118 68l80 -152l-198 -115v-325q0 -68 22.5 -89t98.5 -24v-264q-102 -12 -162 -12q-182 0 -257 77.5t-75 268.5v155l-107 -59z" />
<glyph unicode="&#x143;" horiz-adv-x="1540" d="M123 0v1386h356l291 -393q153 -210 250 -377h18v770h379v-1386h-334l-342 467q-107 142 -223 330l-14 -2v-795h-381zM618 1642l416 287l160 -260l-467 -205z" />
<glyph unicode="&#x144;" horiz-adv-x="1261" d="M106 0v1006h328q41 -51 41 -156h10q104 170 322 170q190 0 269 -95t79 -282v-643h-377v600q0 79 -30 120.5t-101 41.5q-50 0 -84 -20t-49.5 -53.5t-21 -62.5t-5.5 -61v-565h-381zM399 1253l349 367l198 -211l-399 -299z" />
<glyph unicode="&#x145;" horiz-adv-x="1540" d="M123 0v1386h356l291 -393q153 -210 250 -377h18v770h379v-1386h-334l-342 467q-107 142 -223 330l-14 -2v-795h-381zM655 -195q0 66 46 113t112 47q69 0 114.5 -45.5t45.5 -112.5q0 -46 -23 -94l-184 -338l-94 37l84 246q-45 18 -73 57.5t-28 89.5z" />
<glyph unicode="&#x146;" horiz-adv-x="1261" d="M106 0v1006h328q41 -51 41 -156h10q104 170 322 170q190 0 269 -95t79 -282v-643h-377v600q0 79 -30 120.5t-101 41.5q-50 0 -84 -20t-49.5 -53.5t-21 -62.5t-5.5 -61v-565h-381zM471 -236q0 66 46 113t112 47q69 0 114 -45t45 -112q0 -49 -22 -95l-184 -338l-95 37 l84 246q-45 18 -72.5 57.5t-27.5 89.5z" />
<glyph unicode="&#x147;" horiz-adv-x="1540" d="M123 0v1386h356l291 -393q153 -210 250 -377h18v770h379v-1386h-334l-342 467q-107 142 -223 330l-14 -2v-795h-381zM379 1784l123 114l295 -176l282 176l142 -110l-308 -311h-221z" />
<glyph unicode="&#x148;" horiz-adv-x="1261" d="M106 0v1006h328q41 -51 41 -156h10q104 170 322 170q190 0 269 -95t79 -282v-643h-377v600q0 79 -30 120.5t-101 41.5q-50 0 -84 -20t-49.5 -53.5t-21 -62.5t-5.5 -61v-565h-381zM154 1458l122 115l295 -203l283 203l127 -105l-293 -344h-221z" />
<glyph unicode="&#x149;" horiz-adv-x="1466" d="M-18 1331q0 66 45.5 113t111.5 47q69 0 114.5 -45.5t45.5 -112.5q0 -46 -23 -94l-184 -338l-94 37l84 246q-45 18 -72.5 57.5t-27.5 89.5zM311 0v1006h328q41 -51 41 -156h10q104 170 322 170q190 0 269 -95t79 -282v-643h-377v600q0 79 -30 120.5t-101 41.5 q-50 0 -84 -20t-49.5 -53.5t-21 -62.5t-5.5 -61v-565h-381z" />
<glyph unicode="&#x14a;" horiz-adv-x="1540" d="M123 0v1386h356l291 -393q153 -210 250 -377h18v770h379v-1452q0 -85 -23 -154.5t-70.5 -124.5t-128.5 -85.5t-191 -30.5q-155 0 -295 66l77 233q85 -20 134 -20q66 0 90 36.5t24 129.5v84l-293 399q-107 142 -223 330l-14 -2v-795h-381z" />
<glyph unicode="&#x14b;" horiz-adv-x="1261" d="M106 0v1006h328q41 -51 41 -156h10q104 170 322 170q190 0 269 -95t79 -282v-709q0 -85 -22 -154.5t-68 -124.5t-127 -85.5t-190 -30.5q-155 0 -295 66l77 233q85 -20 134 -20q66 0 90 36.5t24 129.5v616q0 79 -30 120.5t-101 41.5q-50 0 -84 -20t-49.5 -53.5t-21 -62.5 t-5.5 -61v-565h-381z" />
<glyph unicode="&#x14c;" horiz-adv-x="1658" d="M106 676q0 122 25 228t81 199.5t139.5 160t207 105t277.5 38.5q161 0 287.5 -43t205 -113t130 -167t71.5 -196t20 -210q0 -70 -10.5 -137.5t-35 -137.5t-62 -130.5t-95 -114.5t-129.5 -92t-170.5 -60t-213.5 -22q-163 0 -289.5 36.5t-208 98.5t-134 151.5t-74.5 189 t-22 216.5zM485 1563v227h684v-227h-684zM506 682q0 -208 81 -316t244 -108q148 0 232 112.5t84 313.5q0 93 -17.5 170t-53.5 139.5t-98.5 97.5t-146.5 35q-96 0 -161.5 -33t-100.5 -96.5t-49 -138.5t-14 -176z" />
<glyph unicode="&#x14d;" horiz-adv-x="1308" d="M96 500q0 111 32 203.5t97.5 165.5t175.5 114t256 41q127 0 225.5 -30t159.5 -78.5t100.5 -118t54.5 -141t15 -154.5q0 -78 -15.5 -148.5t-55.5 -139t-101 -118t-159 -80t-224 -30.5q-561 0 -561 514zM301 1219v227h703v-227h-703zM467 500q0 -269 186 -269 q88 0 136.5 68t48.5 203q0 270 -185 270q-186 0 -186 -272z" />
<glyph unicode="&#x14e;" horiz-adv-x="1658" d="M106 676q0 122 25 228t81 199.5t139.5 160t207 105t277.5 38.5q161 0 287.5 -43t205 -113t130 -167t71.5 -196t20 -210q0 -70 -10.5 -137.5t-35 -137.5t-62 -130.5t-95 -114.5t-129.5 -92t-170.5 -60t-213.5 -22q-163 0 -289.5 36.5t-208 98.5t-134 151.5t-74.5 189 t-22 216.5zM485 1880h213q9 -73 48 -124.5t110 -51.5q67 0 106.5 52t47.5 124h213q-4 -50 -18 -101.5t-43.5 -105t-70 -94.5t-101.5 -67.5t-134 -26.5q-75 0 -137 26.5t-102.5 67.5t-70 95t-43.5 105t-18 101zM506 682q0 -208 81 -316t244 -108q148 0 232 112.5t84 313.5 q0 93 -17.5 170t-53.5 139.5t-98.5 97.5t-146.5 35q-96 0 -161.5 -33t-100.5 -96.5t-49 -138.5t-14 -176z" />
<glyph unicode="&#x14f;" horiz-adv-x="1308" d="M96 500q0 111 32 203.5t97.5 165.5t175.5 114t256 41q127 0 225.5 -30t159.5 -78.5t100.5 -118t54.5 -141t15 -154.5q0 -78 -15.5 -148.5t-55.5 -139t-101 -118t-159 -80t-224 -30.5q-561 0 -561 514zM287 1518h213q9 -74 47.5 -125.5t109.5 -51.5q67 0 106.5 52 t47.5 125h213q-4 -50 -18 -101.5t-43.5 -105t-69.5 -95t-101.5 -68t-134.5 -26.5q-75 0 -137 26.5t-102.5 68t-69.5 95t-43 105t-18 101.5zM467 500q0 -269 186 -269q88 0 136.5 68t48.5 203q0 270 -185 270q-186 0 -186 -272z" />
<glyph unicode="&#x150;" horiz-adv-x="1658" d="M106 676q0 122 25 228t81 199.5t139.5 160t207 105t277.5 38.5q161 0 287.5 -43t205 -113t130 -167t71.5 -196t20 -210q0 -70 -10.5 -137.5t-35 -137.5t-62 -130.5t-95 -114.5t-129.5 -92t-170.5 -60t-213.5 -22q-163 0 -289.5 36.5t-208 98.5t-134 151.5t-74.5 189 t-22 216.5zM354 1620l373 334l205 -221l-436 -265zM506 682q0 -208 81 -316t244 -108q148 0 232 112.5t84 313.5q0 93 -17.5 170t-53.5 139.5t-98.5 97.5t-146.5 35q-96 0 -161.5 -33t-100.5 -96.5t-49 -138.5t-14 -176zM852 1620l373 334l205 -221l-437 -265z" />
<glyph unicode="&#x151;" horiz-adv-x="1308" d="M96 500q0 111 32 203.5t97.5 165.5t175.5 114t256 41q127 0 225.5 -30t159.5 -78.5t100.5 -118t54.5 -141t15 -154.5q0 -78 -15.5 -148.5t-55.5 -139t-101 -118t-159 -80t-224 -30.5q-561 0 -561 514zM213 1253l348 367l199 -211l-400 -299zM467 500q0 -269 186 -269 q88 0 136.5 68t48.5 203q0 270 -185 270q-186 0 -186 -272zM666 1253l348 367l198 -211l-399 -299z" />
<glyph unicode="&#x152;" horiz-adv-x="1976" d="M102 676q0 121 24.5 227t78.5 198t134 157.5t197 103t261 37.5q81 0 157 -13h969v-286h-666v-238h607v-284h-607v-293h682v-285h-964q-88 -16 -180 -16q-155 0 -275.5 36.5t-198 98.5t-127.5 151.5t-71 189t-21 216.5zM481 682q0 -207 78.5 -315.5t233.5 -108.5 q55 0 104 18v828q-46 18 -104 18q-74 0 -129 -22.5t-89.5 -60t-56 -95t-29.5 -120t-8 -142.5z" />
<glyph unicode="&#x153;" horiz-adv-x="1970" d="M96 500q0 111 32 203.5t97.5 165.5t175.5 114t256 41q122 0 218 -35t155 -94q115 127 338 127q133 0 234 -39t161 -107.5t89.5 -155t29.5 -188.5q0 -25 -4 -75h-666q0 -6 -1 -17.5t-1 -17.5q0 -99 40 -146t128 -47q69 0 103.5 36.5t42.5 84.5h346q2 -14 2 -33 q0 -74 -28 -132.5t-75 -95t-112.5 -60.5t-135 -33.5t-149.5 -9.5q-254 0 -354 123q-61 -58 -158 -90.5t-215 -32.5q-125 0 -221 26t-157.5 70.5t-100.5 111t-54.5 141t-15.5 165.5zM467 500q0 -269 186 -269q88 0 136.5 68t48.5 203q0 270 -185 270q-186 0 -186 -272z M1223 639h270q-11 137 -135 137q-58 0 -95 -34.5t-40 -102.5z" />
<glyph unicode="&#x154;" horiz-adv-x="1411" d="M129 0v1386h643q272 0 401.5 -117t129.5 -325q0 -39 -9 -82t-32.5 -94t-59 -95t-93.5 -83t-130 -60l375 -530h-441l-338 508h-59v-508h-387zM418 1642l416 287l159 -260l-467 -205zM514 791h231q76 0 127.5 39.5t51.5 113.5q0 82 -50.5 121t-128.5 39h-231v-313z" />
<glyph unicode="&#x155;" horiz-adv-x="880" d="M129 0v1006h326q43 -64 43 -205h10q51 110 147 166.5t205 58.5l17 -315q-91 -4 -155.5 -17.5t-105.5 -36t-64.5 -57.5t-32.5 -75t-9 -95v-430h-381zM201 1253l348 367l199 -211l-400 -299z" />
<glyph unicode="&#x156;" horiz-adv-x="1411" d="M129 0v1386h643q272 0 401.5 -117t129.5 -325q0 -39 -9 -82t-32.5 -94t-59 -95t-93.5 -83t-130 -60l375 -530h-441l-338 508h-59v-508h-387zM514 791h231q76 0 127.5 39.5t51.5 113.5q0 82 -50.5 121t-128.5 39h-231v-313zM543 -195q0 66 45.5 113t111.5 47 q68 0 114 -45.5t46 -112.5q0 -48 -22 -94l-185 -338l-94 37l84 246q-45 18 -72.5 57.5t-27.5 89.5z" />
<glyph unicode="&#x157;" horiz-adv-x="880" d="M129 0v1006h326q43 -64 43 -205h10q51 110 147 166.5t205 58.5l17 -315q-91 -4 -155.5 -17.5t-105.5 -36t-64.5 -57.5t-32.5 -75t-9 -95v-430h-381zM170 -236q0 66 46 113t112 47q68 0 113.5 -45t45.5 -112q0 -49 -22 -95l-184 -338l-95 37l84 246q-45 18 -72.5 57.5 t-27.5 89.5z" />
<glyph unicode="&#x158;" horiz-adv-x="1411" d="M129 0v1386h643q272 0 401.5 -117t129.5 -325q0 -39 -9 -82t-32.5 -94t-59 -95t-93.5 -83t-130 -60l375 -530h-441l-338 508h-59v-508h-387zM180 1784l123 114l295 -176l283 176l141 -110l-307 -311h-221zM514 791h231q76 0 127.5 39.5t51.5 113.5q0 82 -50.5 121 t-128.5 39h-231v-313z" />
<glyph unicode="&#x159;" horiz-adv-x="880" d="M14 1458l123 115l295 -203l283 203l127 -105l-293 -344h-221zM129 0v1006h326q43 -64 43 -205h10q51 110 147 166.5t205 58.5l17 -315q-91 -4 -155.5 -17.5t-105.5 -36t-64.5 -57.5t-32.5 -75t-9 -95v-430h-381z" />
<glyph unicode="&#x15a;" horiz-adv-x="1419" d="M90 410q0 36 6 71h365q6 -215 258 -215q111 0 161 41t50 107q0 64 -60.5 97.5t-226.5 57.5q-127 18 -218 46t-162.5 75.5t-107.5 120t-36 172.5q0 55 16 109.5t58 112.5t105.5 102t168 72t235.5 28q115 0 216.5 -24.5t183 -72.5t129 -126.5t47.5 -177.5q0 -44 -6 -82 h-369q-1 86 -57 137t-148 51q-94 0 -139 -36t-45 -89q0 -47 47.5 -74t165.5 -47q178 -30 296.5 -71.5t184.5 -100t92.5 -125.5t26.5 -159q0 -192 -154.5 -309t-453.5 -117q-134 0 -246.5 25.5t-199 76t-135 133.5t-48.5 191zM463 1642l416 287l159 -260l-467 -205z" />
<glyph unicode="&#x15b;" horiz-adv-x="1159" d="M84 301q0 15 4 39h332q3 -56 44.5 -86.5t110.5 -30.5q66 0 100 23.5t34 56.5q0 32 -41 50t-146 38q-112 20 -185 44t-128 61t-80 90.5t-25 128.5q0 40 13 80t47 82.5t84.5 74t133.5 52t187 20.5q85 0 162 -15t147 -47t112 -92t42 -141q0 -17 -4 -49h-334q-3 50 -33 75 t-81 25q-50 0 -76.5 -19.5t-26.5 -49.5q0 -31 22 -49t85 -29q144 -27 232.5 -53t150 -64.5t86 -89t24.5 -125.5q0 -141 -125 -228t-364 -87q-71 0 -136 7.5t-134 29t-119 55.5t-82.5 91.5t-32.5 131.5zM387 1253l348 367l199 -211l-399 -299z" />
<glyph unicode="&#x15c;" horiz-adv-x="1419" d="M90 410q0 36 6 71h365q6 -215 258 -215q111 0 161 41t50 107q0 64 -60.5 97.5t-226.5 57.5q-127 18 -218 46t-162.5 75.5t-107.5 120t-36 172.5q0 55 16 109.5t58 112.5t105.5 102t168 72t235.5 28q115 0 216.5 -24.5t183 -72.5t129 -126.5t47.5 -177.5q0 -44 -6 -82 h-369q-1 86 -57 137t-148 51q-94 0 -139 -36t-45 -89q0 -47 47.5 -74t165.5 -47q178 -30 296.5 -71.5t184.5 -100t92.5 -125.5t26.5 -159q0 -192 -154.5 -309t-453.5 -117q-134 0 -246.5 25.5t-199 76t-135 133.5t-48.5 191zM303 1579l307 307h221l289 -307l-121 -115 l-286 193l-293 -193z" />
<glyph unicode="&#x15d;" horiz-adv-x="1159" d="M84 301q0 15 4 39h332q3 -56 44.5 -86.5t110.5 -30.5q66 0 100 23.5t34 56.5q0 32 -41 50t-146 38q-112 20 -185 44t-128 61t-80 90.5t-25 128.5q0 40 13 80t47 82.5t84.5 74t133.5 52t187 20.5q85 0 162 -15t147 -47t112 -92t42 -141q0 -17 -4 -49h-334q-3 50 -33 75 t-81 25q-50 0 -76.5 -19.5t-26.5 -49.5q0 -31 22 -49t85 -29q144 -27 232.5 -53t150 -64.5t86 -89t24.5 -125.5q0 -141 -125 -228t-364 -87q-71 0 -136 7.5t-134 29t-119 55.5t-82.5 91.5t-32.5 131.5zM137 1235l314 348h221l307 -352l-141 -111l-283 217l-295 -217z" />
<glyph unicode="&#x15e;" horiz-adv-x="1419" d="M90 410q0 31 4 71h367q6 -215 258 -215q111 0 161 41t50 107q0 64 -60.5 97.5t-226.5 57.5q-127 18 -218 46t-162.5 75.5t-107.5 120t-36 172.5q0 55 16 109.5t58 112.5t105.5 102t168 72t235.5 28q115 0 216.5 -24.5t183 -72.5t129 -126.5t47.5 -177.5q0 -28 -4 -82 h-371q-1 86 -57 137t-148 51q-94 0 -139 -36t-45 -89q0 -47 47.5 -74t165.5 -47q178 -30 296.5 -71.5t184.5 -100t92.5 -125.5t26.5 -159q0 -185 -144 -301t-421 -125l-37 -60q71 -1 126.5 -15.5t87.5 -36.5t52.5 -51t27.5 -54t7 -50q0 -92 -83.5 -154.5t-248.5 -62.5 q-136 0 -266 41l39 119q78 -16 151 -16q146 0 146 73q0 33 -23.5 50.5t-58.5 17.5q-46 0 -90 -29l-84 58l104 174q-154 13 -268.5 60.5t-184 140t-69.5 221.5z" />
<glyph unicode="&#x15f;" horiz-adv-x="1159" d="M84 301q0 25 2 39h334q3 -56 44.5 -86.5t110.5 -30.5q66 0 100 23.5t34 56.5q0 32 -41 50t-146 38q-112 20 -185 44t-128 61t-80 90.5t-25 128.5q0 40 13 80t47 82.5t84.5 74t133.5 52t187 20.5q85 0 162 -15t147 -47t112 -92t42 -141q0 -17 -4 -49h-334q-3 50 -33 75 t-81 25q-50 0 -76.5 -19.5t-26.5 -49.5q0 -31 22 -49t85 -29q144 -27 232.5 -53t150 -64.5t86 -89t24.5 -125.5q0 -133 -111 -218.5t-323 -94.5l-39 -66q71 -1 126.5 -15.5t87.5 -36.5t52.5 -51t27.5 -54t7 -50q0 -92 -83.5 -154.5t-248.5 -62.5q-136 0 -266 41l39 119 q78 -16 152 -16q145 0 145 73q0 33 -23.5 50.5t-58.5 17.5q-47 0 -90 -29l-84 58l107 178q-63 5 -118.5 17t-110.5 36t-94 57.5t-63 85t-24 115.5z" />
<glyph unicode="&#x160;" horiz-adv-x="1419" d="M90 410q0 36 6 71h365q6 -215 258 -215q111 0 161 41t50 107q0 64 -60.5 97.5t-226.5 57.5q-127 18 -218 46t-162.5 75.5t-107.5 120t-36 172.5q0 55 16 109.5t58 112.5t105.5 102t168 72t235.5 28q115 0 216.5 -24.5t183 -72.5t129 -126.5t47.5 -177.5q0 -44 -6 -82 h-369q-1 86 -57 137t-148 51q-94 0 -139 -36t-45 -89q0 -47 47.5 -74t165.5 -47q178 -30 296.5 -71.5t184.5 -100t92.5 -125.5t26.5 -159q0 -192 -154.5 -309t-453.5 -117q-134 0 -246.5 25.5t-199 76t-135 133.5t-48.5 191zM272 1784l123 114l295 -176l283 176l141 -110 l-307 -311h-221z" />
<glyph unicode="&#x161;" horiz-adv-x="1159" d="M84 301q0 15 4 39h332q3 -56 44.5 -86.5t110.5 -30.5q66 0 100 23.5t34 56.5q0 32 -41 50t-146 38q-112 20 -185 44t-128 61t-80 90.5t-25 128.5q0 40 13 80t47 82.5t84.5 74t133.5 52t187 20.5q85 0 162 -15t147 -47t112 -92t42 -141q0 -17 -4 -49h-334q-3 50 -33 75 t-81 25q-50 0 -76.5 -19.5t-26.5 -49.5q0 -31 22 -49t85 -29q144 -27 232.5 -53t150 -64.5t86 -89t24.5 -125.5q0 -141 -125 -228t-364 -87q-71 0 -136 7.5t-134 29t-119 55.5t-82.5 91.5t-32.5 131.5zM137 1458l123 115l295 -203l283 203l127 -105l-293 -344h-221z" />
<glyph unicode="&#x162;" horiz-adv-x="1316" d="M31 1102v284h1255v-284h-430v-1102h-151l-46 -74q71 -1 127 -15.5t88 -36.5t52.5 -51t27.5 -54t7 -50q0 -92 -83.5 -154.5t-248.5 -62.5q-137 0 -267 41l39 119q78 -16 152 -16q145 0 145 73q0 33 -23.5 50.5t-58.5 17.5q-46 0 -90 -29l-84 58l111 184h-84v1102h-438z " />
<glyph unicode="&#x163;" horiz-adv-x="942" d="M37 768v201l170 37l84 299h272v-299h279v-238h-279v-381q0 -76 30 -101.5t120 -25.5q97 0 164 12v-258q-102 -26 -283 -26q-59 0 -100 8l-43 -70q71 -1 126.5 -15.5t87.5 -36.5t52.5 -51t27.5 -54t7 -50q0 -92 -83.5 -154.5t-248.5 -62.5q-136 0 -266 41l39 119 q78 -16 151 -16q145 0 145 73q0 33 -23 50.5t-58 17.5q-48 0 -91 -29l-84 58l132 219q-172 88 -172 327v406h-156z" />
<glyph unicode="&#x164;" horiz-adv-x="1316" d="M31 1102v284h1255v-284h-430v-1102h-387v1102h-438zM248 1784l123 114l295 -176l282 176l142 -110l-308 -311h-221z" />
<glyph unicode="&#x165;" horiz-adv-x="1048" d="M37 768h156v-406q0 -185 104.5 -279.5t296.5 -94.5q181 0 283 26v258q-67 -12 -164 -12q-90 0 -120 25.5t-30 101.5v381h279v238h-279v299h-272l-84 -299l-170 -37v-201zM774 1563q0 66 46 112.5t112 46.5q69 0 114.5 -45.5t45.5 -111.5q0 -47 -23 -95l-184 -337l-94 36 l83 246q-45 17 -72.5 57.5t-27.5 90.5z" />
<glyph unicode="&#x166;" horiz-adv-x="1316" d="M31 1102v284h1255v-284h-428v-297h291v-193h-291v-612h-391v612h-289v193h289v297h-436z" />
<glyph unicode="&#x167;" horiz-adv-x="942" d="M25 444v179h168v145h-156v201l170 37l84 299h272v-299h279v-238h-279v-145h205v-179h-205v-57q0 -76 30 -101.5t120 -25.5q97 0 164 12v-258q-102 -26 -283 -26q-192 0 -296.5 94.5t-104.5 279.5v82h-168z" />
<glyph unicode="&#x168;" horiz-adv-x="1562" d="M129 569v820h387v-824q0 -90 20.5 -151.5t60 -93.5t86 -45t108.5 -13q50 0 94.5 16t82.5 50t60.5 95.5t22.5 143.5v822h383v-807q0 -134 -34.5 -239t-108.5 -187t-201.5 -126t-301.5 -44q-183 0 -312.5 39.5t-204.5 117t-108.5 181.5t-33.5 245zM348 1620 q44 114 107 167.5t155 53.5q48 0 157.5 -38t158.5 -38q44 0 79.5 15.5t77.5 62.5l140 -90q-28 -104 -98 -165.5t-160 -61.5q-55 0 -162.5 39t-149.5 39q-26 0 -45 -3t-52.5 -21.5t-61.5 -53.5z" />
<glyph unicode="&#x169;" horiz-adv-x="1230" d="M106 344q0 -70 7.5 -120.5t29 -97.5t58 -76.5t96.5 -46.5t143 -17q22 0 44 2.5t57.5 12.5t68 27.5t69 50.5t66.5 77h11q0 -101 41 -156h327v1006h-381v-578q0 -30 -5.5 -57.5t-18.5 -57t-41.5 -47.5t-69.5 -18q-76 0 -100.5 39t-24.5 123v596h-377v-662zM184 1272 q44 114 107 167.5t155 53.5q48 0 157.5 -38t158.5 -38q44 0 80 15.5t78 62.5l139 -90q-28 -104 -98 -165.5t-160 -61.5q-55 0 -162.5 38.5t-149.5 38.5q-27 0 -45.5 -2.5t-52 -21t-61.5 -53.5z" />
<glyph unicode="&#x16a;" horiz-adv-x="1562" d="M129 569v820h387v-824q0 -90 20.5 -151.5t60 -93.5t86 -45t108.5 -13q50 0 94.5 16t82.5 50t60.5 95.5t22.5 143.5v822h383v-807q0 -134 -34.5 -239t-108.5 -187t-201.5 -126t-301.5 -44q-183 0 -312.5 39.5t-204.5 117t-108.5 181.5t-33.5 245zM432 1561v227h684v-227 h-684z" />
<glyph unicode="&#x16b;" horiz-adv-x="1230" d="M106 344q0 -70 7.5 -120.5t29 -97.5t58 -76.5t96.5 -46.5t143 -17q22 0 44 2.5t57.5 12.5t68 27.5t69 50.5t66.5 77h11q0 -101 41 -156h327v1006h-381v-578q0 -30 -5.5 -57.5t-18.5 -57t-41.5 -47.5t-69.5 -18q-76 0 -100.5 39t-24.5 123v596h-377v-662zM250 1219v227 h702v-227h-702z" />
<glyph unicode="&#x16c;" horiz-adv-x="1562" d="M129 569v820h387v-824q0 -90 20.5 -151.5t60 -93.5t86 -45t108.5 -13q50 0 94.5 16t82.5 50t60.5 95.5t22.5 143.5v822h383v-807q0 -134 -34.5 -239t-108.5 -187t-201.5 -126t-301.5 -44q-183 0 -312.5 39.5t-204.5 117t-108.5 181.5t-33.5 245zM424 1868h213 q9 -73 48 -124.5t110 -51.5q67 0 106 51.5t47 124.5h213q-5 -64 -27.5 -128.5t-64 -126.5t-113 -101t-161.5 -39q-75 0 -137 26.5t-102.5 67.5t-70 95t-43.5 105t-18 101z" />
<glyph unicode="&#x16d;" horiz-adv-x="1230" d="M106 344q0 -70 7.5 -120.5t29 -97.5t58 -76.5t96.5 -46.5t143 -17q22 0 44 2.5t57.5 12.5t68 27.5t69 50.5t66.5 77h11q0 -101 41 -156h327v1006h-381v-578q0 -30 -5.5 -57.5t-18.5 -57t-41.5 -47.5t-69.5 -18q-76 0 -100.5 39t-24.5 123v596h-377v-662zM246 1518h213 q9 -74 47.5 -125.5t109.5 -51.5q67 0 106.5 52t47.5 125h213q-4 -50 -18 -101.5t-43.5 -105t-69.5 -95t-101.5 -68t-134.5 -26.5q-75 0 -137 26.5t-102.5 68t-69.5 95t-43 105t-18 101.5z" />
<glyph unicode="&#x16e;" horiz-adv-x="1562" d="M129 569v820h387v-824q0 -90 20.5 -151.5t60 -93.5t86 -45t108.5 -13q50 0 94.5 16t82.5 50t60.5 95.5t22.5 143.5v822h383v-807q0 -134 -34.5 -239t-108.5 -187t-201.5 -126t-301.5 -44q-183 0 -312.5 39.5t-204.5 117t-108.5 181.5t-33.5 245zM541 1679q0 103 69 175.5 t172 72.5q105 0 176.5 -73t71.5 -175t-71.5 -169.5t-176.5 -67.5q-104 0 -172.5 68.5t-68.5 168.5zM713 1679q0 -29 20.5 -51t48.5 -22q30 0 52 22t22 51q0 32 -21.5 56t-52.5 24q-28 0 -48.5 -24t-20.5 -56z" />
<glyph unicode="&#x16f;" horiz-adv-x="1230" d="M106 344q0 -70 7.5 -120.5t29 -97.5t58 -76.5t96.5 -46.5t143 -17q22 0 44 2.5t57.5 12.5t68 27.5t69 50.5t66.5 77h11q0 -101 41 -156h327v1006h-381v-578q0 -30 -5.5 -57.5t-18.5 -57t-41.5 -47.5t-69.5 -18q-76 0 -100.5 39t-24.5 123v596h-377v-662zM383 1358 q0 103 69.5 175.5t172.5 72.5q105 0 176 -73t71 -175t-71 -170t-176 -68q-104 0 -173 69t-69 169zM555 1358q0 -29 21 -51.5t49 -22.5q30 0 51.5 22t21.5 52q0 33 -21.5 56.5t-51.5 23.5q-28 0 -49 -24t-21 -56z" />
<glyph unicode="&#x170;" horiz-adv-x="1562" d="M129 569v820h387v-824q0 -90 20.5 -151.5t60 -93.5t86 -45t108.5 -13q50 0 94.5 16t82.5 50t60.5 95.5t22.5 143.5v822h383v-807q0 -134 -34.5 -239t-108.5 -187t-201.5 -126t-301.5 -44q-183 0 -312.5 39.5t-204.5 117t-108.5 181.5t-33.5 245zM295 1620l373 334 l204 -221l-436 -265zM793 1620l372 334l205 -221l-436 -265z" />
<glyph unicode="&#x171;" horiz-adv-x="1230" d="M106 344v662h377v-596q0 -84 24.5 -123t100.5 -39q41 0 69.5 18t41.5 47.5t18.5 57t5.5 57.5v578h381v-1006h-327q-41 55 -41 156h-11q-30 -44 -66.5 -77t-69 -50.5t-68 -27.5t-57.5 -12.5t-44 -2.5q-83 0 -143 17t-96.5 46.5t-58 76.5t-29 97.5t-7.5 120.5zM170 1253 l348 367l199 -211l-400 -299zM623 1253l348 367l198 -211l-399 -299z" />
<glyph unicode="&#x172;" horiz-adv-x="1562" d="M129 569v820h387v-824q0 -90 20.5 -151.5t60 -93.5t86 -45t108.5 -13q50 0 94.5 16t82.5 50t60.5 95.5t22.5 143.5v822h383v-807q0 -127 -31 -228.5t-97 -181.5t-179 -127.5t-267 -56.5q-80 -99 -80 -178q0 -62 50 -99t137 -37q51 0 112 15l29 -103q-138 -63 -287 -63 q-141 0 -212.5 53t-71.5 137q0 67 43.5 140t124.5 137q-159 8 -271.5 51t-179 119.5t-96 176t-29.5 232.5z" />
<glyph unicode="&#x173;" horiz-adv-x="1230" d="M106 344v662h377v-596q0 -84 24.5 -123t100.5 -39q41 0 69.5 18t41.5 47.5t18.5 57t5.5 57.5v578h381v-1006h-215q-94 -105 -94 -195q0 -62 49.5 -98.5t136.5 -36.5q51 0 113 15l29 -103q-138 -63 -287 -63q-141 0 -213 53t-72 137q0 75 57 158t158 149q-30 52 -30 140 h-11q-30 -44 -66.5 -77t-69 -50.5t-68 -27.5t-57.5 -12.5t-44 -2.5q-83 0 -143 17t-96.5 46.5t-58 76.5t-29 97.5t-7.5 120.5z" />
<glyph unicode="&#x174;" horiz-adv-x="2160" d="M16 1386l400 -1386h428l112 469q73 300 119 543h8q9 -73 26 -156.5t28.5 -132.5t37 -149.5t33.5 -131.5l107 -442h430l399 1386h-409l-99 -468q-73 -364 -96 -517h-10q-36 203 -113 521l-114 464h-445l-104 -440q-8 -34 -39 -163.5t-49 -216t-31 -177.5h-8 q-9 70 -23.5 150t-25.5 133t-30.5 142t-27.5 130l-94 442h-410zM668 1579l307 307h221l289 -307l-121 -115l-287 193l-293 -193z" />
<glyph unicode="&#x175;" horiz-adv-x="1800" d="M10 1008h412l70 -295q55 -237 75 -383h11q29 186 81 387l74 291h344l68 -281q16 -62 78 -393h14q17 132 78 397l63 277h412l-336 -1008h-397l-76 258q-51 179 -78 369h-12q-42 -260 -74 -375l-69 -252h-400zM475 1235l313 348h222l307 -352l-141 -111l-283 217l-295 -217 z" />
<glyph unicode="&#x176;" horiz-adv-x="1404" d="M10 1386h402l143 -286q20 -40 40.5 -85.5t32.5 -75.5t34 -85.5t32 -79.5h13q84 208 143 320l156 292h389l-502 -907v-479h-387v467zM291 1579l307 307h221l289 -307l-121 -115l-287 193l-292 -193z" />
<glyph unicode="&#x177;" horiz-adv-x="1153" d="M14 1006h377l103 -408q53 -198 71 -315h13q22 134 77 323l113 400h375l-363 -1029q-21 -60 -34.5 -95t-38 -84t-48 -77.5t-60.5 -61t-80.5 -49.5t-103 -28.5t-132.5 -11.5h-174v283h124q73 0 112 21t58 67l29 75h-88zM152 1235l313 348h221l307 -352l-141 -111l-283 217 l-295 -217z" />
<glyph unicode="&#x178;" horiz-adv-x="1404" d="M10 1386h402l143 -286q20 -40 40.5 -85.5t32.5 -75.5t34 -85.5t32 -79.5h13q84 208 143 320l156 292h389l-502 -907v-479h-387v467zM305 1649q0 67 47 114t115 47t115 -47t47 -114t-47.5 -114.5t-114.5 -47.5t-114.5 47.5t-47.5 114.5zM756 1649q0 67 47 114t115 47 t114.5 -47t46.5 -114q0 -68 -47 -115t-114 -47q-68 0 -115 47.5t-47 114.5z" />
<glyph unicode="&#x179;" horiz-adv-x="1394" d="M90 0v264l713 836h-686v289h1157v-265l-711 -843h729v-281h-1202zM518 1642l416 287l160 -260l-467 -205z" />
<glyph unicode="&#x17a;" horiz-adv-x="1083" d="M74 0v176l481 574h-442v254h905v-181l-477 -569h489v-254h-956zM401 1253l349 367l198 -211l-399 -299z" />
<glyph unicode="&#x17b;" horiz-adv-x="1394" d="M90 0v264l713 836h-686v289h1157v-265l-711 -843h729v-281h-1202zM567 1690q0 69 48.5 118.5t117.5 49.5t118.5 -49.5t49.5 -118.5t-49.5 -117.5t-118.5 -48.5t-117.5 48.5t-48.5 117.5z" />
<glyph unicode="&#x17c;" horiz-adv-x="1083" d="M74 0v176l481 574h-442v254h905v-181l-477 -569h489v-254h-956zM432 1341q0 69 48.5 118.5t117.5 49.5t118.5 -49.5t49.5 -118.5t-49.5 -117t-118.5 -48t-117.5 48t-48.5 117z" />
<glyph unicode="&#x17d;" horiz-adv-x="1394" d="M90 0v264l713 836h-686v289h1157v-265l-711 -843h729v-281h-1202zM276 1784l123 114l295 -176l283 176l141 -110l-307 -311h-221z" />
<glyph unicode="&#x17e;" horiz-adv-x="1083" d="M74 0v176l481 574h-442v254h905v-181l-477 -569h489v-254h-956zM133 1458l123 115l295 -203l283 203l127 -105l-293 -344h-222z" />
<glyph unicode="&#x192;" horiz-adv-x="1433" d="M182 -201l54 256q68 -12 100 -12q29 0 49.5 5t38 14.5t29.5 31.5t21.5 46t18 69.5t15.5 91.5t16 121l19 143h-211v203h237l9 57q16 122 36 204t52 149t79.5 104t115 56.5t161.5 19.5q79 0 201 -37l-49 -240q-73 15 -99 15t-46 -6.5t-34 -15.5t-26 -30.5t-18.5 -38 t-14 -52t-11 -59.5t-10.5 -73l-6 -53h201v-203h-225l-17 -147q-18 -164 -50.5 -282t-72 -188.5t-94.5 -112t-109 -55t-126 -13.5q-125 0 -234 32z" />
<glyph unicode="&#x1a0;" horiz-adv-x="1658" d="M106 676q0 122 25 228t81 199.5t139.5 160t207 105t277.5 38.5q257 0 421 -104q76 2 112 38.5t36 126.5v172h252v-223q0 -101 -54 -182.5t-165 -114.5q112 -179 112 -442q0 -70 -10.5 -137.5t-35 -137.5t-62 -130.5t-95 -114.5t-129.5 -92t-170.5 -60t-213.5 -22 q-163 0 -289.5 36.5t-208 98.5t-134 151.5t-74.5 189t-22 216.5zM506 682q0 -208 81 -316t244 -108q148 0 232 112.5t84 313.5q0 93 -17.5 170t-53.5 139.5t-98.5 97.5t-146.5 35q-96 0 -161.5 -33t-100.5 -96.5t-49 -138.5t-14 -176z" />
<glyph unicode="&#x1a1;" horiz-adv-x="1423" d="M96 500q0 111 32 203.5t97.5 165.5t175.5 114t256 41q243 0 385 -109q69 2 98 39t29 127v172h252v-223q0 -56 -11.5 -103.5t-38 -91.5t-75 -74.5t-116.5 -41.5q32 -97 32 -217q0 -78 -15.5 -148.5t-55.5 -139t-101 -118t-159 -80t-224 -30.5q-561 0 -561 514zM467 500 q0 -269 186 -269q88 0 136.5 68t48.5 203q0 270 -185 270q-186 0 -186 -272z" />
<glyph unicode="&#x1af;" horiz-adv-x="1779" d="M129 569v820h387v-824q0 -90 20.5 -151.5t60 -93.5t86 -45t108.5 -13q50 0 94.5 16t82.5 50t60.5 95.5t22.5 143.5v822h383v-86h18q78 0 109.5 35.5t31.5 129.5v172h252v-223q0 -61 -20.5 -116t-61 -101t-111.5 -73t-163 -27h-55v-518q0 -134 -34.5 -239t-108.5 -187 t-201.5 -126t-301.5 -44q-183 0 -312.5 39.5t-204.5 117t-108.5 181.5t-33.5 245z" />
<glyph unicode="&#x1b0;" horiz-adv-x="1511" d="M106 344v662h377v-596q0 -84 24.5 -123t100.5 -39q41 0 69.5 18t41.5 47.5t18.5 57t5.5 57.5v578h381v-91h17q78 0 109.5 36t31.5 130v172h252v-223q0 -61 -20.5 -116t-61 -101t-111.5 -73t-163 -27h-54v-713h-327q-41 55 -41 156h-11q-30 -44 -66.5 -77t-69 -50.5 t-68 -27.5t-57.5 -12.5t-44 -2.5q-83 0 -143 17t-96.5 46.5t-58 76.5t-29 97.5t-7.5 120.5z" />
<glyph unicode="&#x1fc;" horiz-adv-x="2121" d="M6 -2l846 1388h1214v-286h-661v-238h602v-280h-602v-295h678v-287h-1043v319h-487l-186 -321h-361zM731 588h309v510l-10 2q-68 -127 -199 -344zM1178 1642l415 287l160 -260l-467 -205z" />
<glyph unicode="&#x1fd;" horiz-adv-x="1822" d="M76 272q0 76 29 135.5t76 97t113.5 62t136 34t147.5 9.5h141v37q0 67 -34.5 96t-86.5 29q-98 0 -117 -86h-327q-4 16 -4 49q0 75 41 132.5t108.5 90t145.5 48.5t161 16q200 0 303 -90q59 42 150.5 66t177.5 24q125 0 223 -37t158 -101.5t90.5 -147.5t30.5 -179 q0 -47 -6 -94h-650q0 -8 -1 -20.5t-1 -16.5q0 -101 37 -149t121 -48q68 0 103 36.5t42 84.5h342q3 -21 3 -33q0 -92 -41 -159t-112.5 -103t-154 -52.5t-180.5 -16.5q-165 3 -261.5 34t-160.5 115q-72 -65 -153 -101t-135 -44t-119 -8q-336 0 -336 290zM440 332q0 -53 33 -77 t78 -24q108 0 182 78q-16 70 -16 150h-103q-92 0 -133 -37.5t-41 -89.5zM778 1253l348 367l199 -211l-399 -299zM1094 610h264q-5 86 -34 126t-95 40q-56 0 -95.5 -46.5t-39.5 -119.5z" />
<glyph unicode="&#x1fe;" horiz-adv-x="1658" d="M106 676q0 122 25 228t81 199.5t139.5 160t207 105t277.5 38.5q264 0 432 -113l110 119l117 -104l-109 -119q164 -191 164 -512q0 -70 -10.5 -137.5t-35 -137.5t-62 -130.5t-95 -114.5t-129.5 -92t-170.5 -60t-213.5 -22q-287 0 -461 110l-127 -139l-117 111l123 133 q-146 175 -146 477zM506 682q0 -110 20 -186l510 548q-79 82 -205 82q-96 0 -161.5 -33t-100.5 -96.5t-49 -138.5t-14 -176zM604 344q80 -86 227 -86q148 0 232 112.5t84 313.5q0 124 -29 215zM639 1642l416 287l159 -260l-466 -205z" />
<glyph unicode="&#x1ff;" horiz-adv-x="1308" d="M88 88l92 88q-84 125 -84 324q0 111 32 203.5t97.5 165.5t175.5 114t256 41q201 0 334 -76l96 92l107 -110l-86 -82q104 -128 104 -346q0 -78 -15.5 -148.5t-55.5 -139t-101 -118t-159 -80t-224 -30.5q-228 0 -364 84l-100 -95zM467 500q0 -33 2 -49l297 282 q-45 39 -113 39q-186 0 -186 -272zM514 1253l348 367l199 -211l-399 -299zM520 287q47 -56 133 -56q88 0 136.5 68t48.5 203q0 38 -7 82z" />
<glyph unicode="&#x218;" horiz-adv-x="1419" d="M90 410q0 36 6 71h365q6 -215 258 -215q111 0 161 41t50 107q0 64 -60.5 97.5t-226.5 57.5q-127 18 -218 46t-162.5 75.5t-107.5 120t-36 172.5q0 55 16 109.5t58 112.5t105.5 102t168 72t235.5 28q115 0 216.5 -24.5t183 -72.5t129 -126.5t47.5 -177.5q0 -44 -6 -82 h-369q-1 86 -57 137t-148 51q-94 0 -139 -36t-45 -89q0 -47 47.5 -74t165.5 -47q178 -30 296.5 -71.5t184.5 -100t92.5 -125.5t26.5 -159q0 -192 -154.5 -309t-453.5 -117q-134 0 -246.5 25.5t-199 76t-135 133.5t-48.5 191zM573 -236q0 66 46 113t112 47q69 0 114.5 -45.5 t45.5 -111.5q0 -47 -23 -95l-184 -338l-94 37l84 246q-45 18 -73 57.5t-28 89.5z" />
<glyph unicode="&#x219;" horiz-adv-x="1159" d="M84 301q0 15 4 39h332q3 -56 44.5 -86.5t110.5 -30.5q66 0 100 23.5t34 56.5q0 32 -41 50t-146 38q-112 20 -185 44t-128 61t-80 90.5t-25 128.5q0 40 13 80t47 82.5t84.5 74t133.5 52t187 20.5q85 0 162 -15t147 -47t112 -92t42 -141q0 -17 -4 -49h-334q-3 50 -33 75 t-81 25q-50 0 -76.5 -19.5t-26.5 -49.5q0 -31 22 -49t85 -29q144 -27 232.5 -53t150 -64.5t86 -89t24.5 -125.5q0 -141 -125 -228t-364 -87q-71 0 -136 7.5t-134 29t-119 55.5t-82.5 91.5t-32.5 131.5zM449 -236q0 66 45.5 113t111.5 47q69 0 114.5 -45.5t45.5 -111.5 q0 -47 -23 -95l-184 -338l-94 37l84 246q-45 18 -72.5 57.5t-27.5 89.5z" />
<glyph unicode="&#x21a;" horiz-adv-x="1316" d="M31 1102v284h1255v-284h-430v-1102h-387v1102h-438zM500 -236q0 66 45.5 113t111.5 47q69 0 114.5 -45.5t45.5 -111.5q0 -49 -22 -95l-185 -338l-94 37l84 246q-45 18 -72.5 57.5t-27.5 89.5z" />
<glyph unicode="&#x21b;" horiz-adv-x="942" d="M37 768v201l170 37l84 299h272v-299h279v-238h-279v-381q0 -76 30 -101.5t120 -25.5q97 0 164 12v-258q-102 -26 -283 -26q-192 0 -296.5 94.5t-104.5 279.5v406h-156zM301 -238q0 66 46 113t112 47q68 0 113.5 -45.5t45.5 -112.5q0 -48 -22 -94l-184 -338l-95 37l84 246 q-45 18 -72.5 57.5t-27.5 89.5z" />
<glyph unicode="&#x259;" horiz-adv-x="1216" d="M96 455q0 41 6 88h664v39q0 188 -158 188q-64 0 -100 -35t-43 -80h-346q22 369 502 369q139 0 240 -39.5t158.5 -112t84 -164.5t26.5 -208q0 -111 -31 -203t-93 -163t-162.5 -110.5t-231.5 -39.5t-231.5 36.5t-162 101.5t-92 148.5t-30.5 184.5zM487 367 q11 -138 136 -138q58 0 94 35t39 103h-269z" />
<glyph unicode="&#x2b9;" horiz-adv-x="577" d="M94 868l236 666l317 -113l-338 -633z" />
<glyph unicode="&#x2c6;" horiz-adv-x="1206" d="M186 1235l314 348h221l307 -352l-141 -111l-283 217l-295 -217z" />
<glyph unicode="&#x2c7;" horiz-adv-x="1206" d="M207 1458l123 115l295 -203l282 203l127 -105l-293 -344h-221z" />
<glyph unicode="&#x2d8;" horiz-adv-x="1218" d="M274 1518h213q9 -74 48 -125.5t110 -51.5q67 0 106.5 52t47.5 125h213q-4 -50 -18 -101.5t-43.5 -105t-69.5 -95t-101.5 -68t-134.5 -26.5q-75 0 -137 26.5t-102.5 68t-70 95t-43.5 105t-18 101.5z" />
<glyph unicode="&#x2d9;" horiz-adv-x="1202" d="M471 1341q0 69 48.5 118.5t117.5 49.5t118.5 -49.5t49.5 -118.5t-49.5 -117t-118.5 -48t-117.5 48t-48.5 117z" />
<glyph unicode="&#x2da;" horiz-adv-x="1120" d="M381 1358q0 103 69.5 175.5t172.5 72.5q105 0 176 -73t71 -175t-71 -170t-176 -68q-104 0 -173 69t-69 169zM553 1358q0 -29 21 -51.5t49 -22.5q30 0 51.5 22t21.5 52q0 33 -21.5 56.5t-51.5 23.5q-28 0 -49 -24t-21 -56z" />
<glyph unicode="&#x2db;" horiz-adv-x="1136" d="M571 -295q0 91 80 189t217 165l60 -43q-113 -119 -113 -215q0 -62 49.5 -98.5t136.5 -36.5q51 0 113 15l29 -103q-138 -63 -287 -63q-141 0 -213 53t-72 137z" />
<glyph unicode="&#x2dc;" horiz-adv-x="1177" d="M174 1272q44 114 107 167.5t155 53.5q48 0 157.5 -38t158.5 -38q44 0 79.5 15.5t77.5 62.5l140 -90q-28 -104 -98 -165.5t-160 -61.5q-55 0 -162.5 38.5t-149.5 38.5q-27 0 -46 -2.5t-52.5 -21t-61.5 -53.5z" />
<glyph unicode="&#x2dd;" horiz-adv-x="1290" d="M193 1253l348 367l198 -211l-399 -299zM645 1253l348 367l199 -211l-399 -299z" />
<glyph unicode="&#x384;" horiz-adv-x="1206" d="M377 1210l282 418l232 -174l-346 -360z" />
<glyph unicode="&#x385;" horiz-adv-x="1206" d="M33 1278q0 68 47.5 115t114.5 47t114 -47t47 -115t-47 -115t-114 -47t-114.5 47t-47.5 115zM383 1135l145 471l289 -86l-237 -451zM770 1278q0 68 47 115t115 47t115 -47t47 -115t-47 -115t-115 -47t-115 47t-47 115z" />
<glyph unicode="&#x386;" horiz-adv-x="1521" d="M-154 1108l283 418l231 -174l-346 -361zM8 0l539 1391h438l504 -1391h-406l-90 299h-489l-105 -299h-391zM608 571h287l-53 187q-55 190 -74 295h-18q-42 -178 -80 -295z" />
<glyph unicode="&#x387;" horiz-adv-x="604" d="M109 709q0 83 55 138.5t137 55.5q83 0 139 -55.5t56 -138.5q0 -82 -56 -137.5t-139 -55.5q-82 0 -137 55.5t-55 137.5z" />
<glyph unicode="&#x388;" horiz-adv-x="1318" d="M-473 1108l283 418l231 -174l-346 -361zM129 0v1386h1077v-286h-690v-238h629v-284h-629v-293h707v-285h-1094z" />
<glyph unicode="&#x389;" horiz-adv-x="1568" d="M-451 1108l283 418l231 -174l-346 -361zM129 0v1389h387v-527h535v527h389v-1389h-389v575h-535v-575h-387z" />
<glyph unicode="&#x38a;" horiz-adv-x="667" d="M-457 1108l283 418l231 -174l-346 -361zM139 0v1386h389v-1386h-389z" />
<glyph unicode="&#x38c;" horiz-adv-x="1658" d="M-344 1108l283 418l231 -174l-346 -361zM106 676q0 122 25 228t81 199.5t139.5 160t207 105t277.5 38.5q161 0 287.5 -43t205 -113t130 -167t71.5 -196t20 -210q0 -70 -10.5 -137.5t-35 -137.5t-62 -130.5t-95 -114.5t-129.5 -92t-170.5 -60t-213.5 -22 q-163 0 -289.5 36.5t-208 98.5t-134 151.5t-74.5 189t-22 216.5zM506 682q0 -208 81 -316t244 -108q148 0 232 112.5t84 313.5q0 93 -17.5 170t-53.5 139.5t-98.5 97.5t-146.5 35q-96 0 -161.5 -33t-100.5 -96.5t-49 -138.5t-14 -176z" />
<glyph unicode="&#x38e;" horiz-adv-x="1404" d="M-553 1108l283 418l231 -174l-346 -361zM10 1386h402l143 -286q20 -40 40.5 -85.5t32.5 -75.5t34 -85.5t32 -79.5h13q84 208 143 320l156 292h389l-502 -907v-479h-387v467z" />
<glyph unicode="&#x38f;" horiz-adv-x="1748" d="M-301 1108l283 418l231 -174l-346 -361zM92 0v283h197l6 8q-91 68 -128.5 184t-37.5 238q0 115 28.5 218.5t89 192t148 152.5t212 100.5t274.5 36.5q161 0 290 -41.5t212.5 -109t139.5 -159.5t79.5 -188.5t23.5 -199.5q0 -66 -13 -135.5t-53.5 -152t-103.5 -134.5l8 -10 h193v-283h-656v279q108 52 163 163.5t55 272.5q0 192 -95.5 302.5t-253.5 110.5q-172 0 -256 -110.5t-84 -304.5q0 -325 205 -430v-283h-643z" />
<glyph unicode="&#x390;" horiz-adv-x="661" d="M-193 1278q0 68 47.5 115t114.5 47t114.5 -47t47.5 -115t-47.5 -115t-114.5 -47t-114.5 47t-47.5 115zM141 0v1006h373v-1006h-373zM158 1135l145 471l289 -86l-238 -451zM545 1278q0 68 47.5 115t114.5 47t114 -47t47 -115t-47 -115t-114 -47t-114.5 47t-47.5 115z" />
<glyph unicode="&#x391;" horiz-adv-x="1521" d="M8 0l539 1391h438l504 -1391h-406l-90 299h-489l-105 -299h-391zM608 571h287l-53 187q-55 190 -74 295h-18q-42 -178 -80 -295z" />
<glyph unicode="&#x392;" horiz-adv-x="1449" d="M147 0v1386h707q93 0 169 -20t135 -60.5t91.5 -109t32.5 -158.5q0 -33 -9.5 -71t-31.5 -81t-66.5 -80.5t-105.5 -57.5v-11q64 -12 115.5 -40.5t82 -63t50.5 -76t27.5 -76.5t7.5 -67q0 -189 -115 -301.5t-332 -112.5h-758zM532 870h234q59 0 95 32.5t36 84.5 q0 53 -34.5 83t-92.5 30h-238v-230zM537 285h249q84 0 126 39t42 110t-47.5 111.5t-122.5 40.5h-247v-301z" />
<glyph unicode="&#x393;" horiz-adv-x="1191" d="M127 0v1386h1053v-286h-664v-1100h-389z" />
<glyph unicode="&#x395;" horiz-adv-x="1318" d="M129 0v1386h1077v-286h-690v-238h629v-284h-629v-293h707v-285h-1094z" />
<glyph unicode="&#x396;" horiz-adv-x="1394" d="M90 0v264l713 836h-686v289h1157v-265l-711 -843h729v-281h-1202z" />
<glyph unicode="&#x397;" horiz-adv-x="1568" d="M129 0v1389h387v-527h535v527h389v-1389h-389v575h-535v-575h-387z" />
<glyph unicode="&#x398;" horiz-adv-x="1699" d="M106 676q0 122 26 228t83.5 199.5t143.5 160t212.5 105t284.5 38.5q164 0 293.5 -43t211 -113t134.5 -166.5t74.5 -196.5t21.5 -210q0 -100 -22 -193.5t-76.5 -186t-136 -161t-211 -111t-291.5 -42.5q-165 0 -294.5 36.5t-213.5 99t-139 151.5t-78 188.5t-23 216.5z M506 682q0 -424 346 -424q158 0 247 112.5t89 313.5q0 93 -18 170t-56.5 139.5t-105 97.5t-156.5 35q-80 0 -141 -22.5t-99.5 -61.5t-62.5 -96.5t-33.5 -121t-9.5 -142.5zM631 571v256h432v-256h-432z" />
<glyph unicode="&#x399;" horiz-adv-x="667" d="M139 0v1386h389v-1386h-389z" />
<glyph unicode="&#x39a;" horiz-adv-x="1470" d="M129 0v1391h385v-504h90l385 504h449l-529 -650l547 -741h-471l-397 588h-74v-588h-385z" />
<glyph unicode="&#x39b;" horiz-adv-x="1521" d="M20 0l517 1391h438l526 -1391h-405l-240 735q-60 177 -92 342h-19q-34 -182 -90 -350l-243 -727h-392z" />
<glyph unicode="&#x39c;" horiz-adv-x="1880" d="M129 0l2 1386h434l172 -354q90 -182 193 -436h22q18 48 35 91t39.5 94t32 72t40 84.5t34.5 72.5l180 376h436l2 -1386h-381v750h-18q-50 -126 -121 -271l-137 -278h-308l-135 268q-60 121 -127 285h-14v-754h-381z" />
<glyph unicode="&#x39d;" horiz-adv-x="1540" d="M123 0v1386h356l291 -393q153 -210 250 -377h18v770h379v-1386h-334l-342 467q-107 142 -223 330l-14 -2v-795h-381z" />
<glyph unicode="&#x39e;" horiz-adv-x="1355" d="M102 0v287h1151v-287h-1151zM127 1100v286h1104v-286h-1104zM199 575v287h956v-287h-956z" />
<glyph unicode="&#x39f;" horiz-adv-x="1658" d="M106 676q0 122 25 228t81 199.5t139.5 160t207 105t277.5 38.5q161 0 287.5 -43t205 -113t130 -167t71.5 -196t20 -210q0 -70 -10.5 -137.5t-35 -137.5t-62 -130.5t-95 -114.5t-129.5 -92t-170.5 -60t-213.5 -22q-163 0 -289.5 36.5t-208 98.5t-134 151.5t-74.5 189 t-22 216.5zM506 682q0 -208 81 -316t244 -108q148 0 232 112.5t84 313.5q0 93 -17.5 170t-53.5 139.5t-98.5 97.5t-146.5 35q-96 0 -161.5 -33t-100.5 -96.5t-49 -138.5t-14 -176z" />
<glyph unicode="&#x3a0;" horiz-adv-x="1507" d="M129 0v1389h1249v-1389h-385v1100h-477v-1100h-387z" />
<glyph unicode="&#x3a1;" horiz-adv-x="1370" d="M129 0v1386h653q141 0 247.5 -35t170 -98.5t94.5 -145.5t31 -183q0 -62 -16.5 -122.5t-57 -121.5t-100.5 -107t-155.5 -75t-213.5 -29h-266v-469h-387zM516 754h229q27 0 52.5 4t53.5 16t48 30.5t33.5 50t13.5 71.5q0 94 -57 134t-144 40h-229v-346z" />
<glyph unicode="&#x3a3;" horiz-adv-x="1271" d="M78 0v258l393 481l-391 396v254h1110v-289h-627l355 -361l-369 -458h674v-281h-1145z" />
<glyph unicode="&#x3a4;" horiz-adv-x="1316" d="M31 1102v284h1255v-284h-430v-1102h-387v1102h-438z" />
<glyph unicode="&#x3a5;" horiz-adv-x="1404" d="M10 1386h402l143 -286q20 -40 40.5 -85.5t32.5 -75.5t34 -85.5t32 -79.5h13q84 208 143 320l156 292h389l-502 -907v-479h-387v467z" />
<glyph unicode="&#x3a6;" horiz-adv-x="1802" d="M102 702q0 239 164 402.5t453 195.5v89h348v-86q138 -11 247.5 -48.5t181 -92.5t118 -128.5t66.5 -152.5t20 -168q0 -102 -39 -199t-114.5 -181.5t-199.5 -144.5t-280 -79v-109h-348v106q-158 16 -278 67t-193 131t-109.5 179.5t-36.5 218.5zM481 705q0 -136 53.5 -220 t184.5 -112v659q-118 -21 -178 -107.5t-60 -219.5zM1067 375q119 27 180.5 116t61.5 218q0 137 -54.5 218.5t-187.5 102.5v-655z" />
<glyph unicode="&#x3a7;" horiz-adv-x="1454" d="M10 0l496 719l-453 667h428l246 -452l242 452h432l-453 -667l494 -719h-436l-281 479l-281 -479h-434z" />
<glyph unicode="&#x3a8;" horiz-adv-x="1769" d="M104 915v474h383v-490q0 -266 205 -285v779h387v-779q86 9 145.5 77t59.5 210v488h381v-461q0 -258 -151 -422t-435 -182v-324h-387v324q-291 19 -439.5 172t-148.5 419z" />
<glyph unicode="&#x3a9;" horiz-adv-x="1748" d="M92 0v283h197l6 8q-91 68 -128.5 184t-37.5 238q0 115 28.5 218.5t89 192t148 152.5t212 100.5t274.5 36.5q161 0 290 -41.5t212.5 -109t139.5 -159.5t79.5 -188.5t23.5 -199.5q0 -66 -13 -135.5t-53.5 -152t-103.5 -134.5l8 -10h193v-283h-656v279q108 52 163 163.5 t55 272.5q0 192 -95.5 302.5t-253.5 110.5q-172 0 -256 -110.5t-84 -304.5q0 -325 205 -430v-283h-643z" />
<glyph unicode="&#x3aa;" horiz-adv-x="667" d="M-49 1649q0 67 47 114t115 47q67 0 114 -47t47 -114q0 -68 -47 -115t-114 -47t-114.5 47.5t-47.5 114.5zM139 0v1386h389v-1386h-389zM401 1649q0 67 47 114t115 47t115 -47t47 -114t-47.5 -114.5t-114.5 -47.5t-114.5 47.5t-47.5 114.5z" />
<glyph unicode="&#x3ab;" horiz-adv-x="1404" d="M10 1386h402l143 -286q20 -40 40.5 -85.5t32.5 -75.5t34 -85.5t32 -79.5h13q84 208 143 320l156 292h389l-502 -907v-479h-387v467zM313 1649q0 67 47 114t115 47t115 -47t47 -114t-47.5 -114.5t-114.5 -47.5t-114.5 47.5t-47.5 114.5zM764 1649q0 67 47 114t115 47 t114.5 -47t46.5 -114q0 -68 -47 -115t-114 -47q-68 0 -115 47.5t-47 114.5z" />
<glyph unicode="&#x3ac;" horiz-adv-x="1284" d="M92 496q0 88 13.5 163.5t45 143.5t79.5 116.5t122 76.5t168 28q211 0 299 -150h10q3 84 39 134h306v-1008h-318q-35 47 -35 141h-12q-36 -50 -77 -83t-85 -47.5t-79 -19.5t-79 -5q-110 0 -188 36t-123 105t-65.5 159t-20.5 210zM446 1210l283 418l232 -174l-347 -360z M471 502q0 -51 3.5 -88.5t14 -74.5t28.5 -60t48 -37.5t72 -14.5q87 0 129.5 69t42.5 173v96q0 92 -42.5 146.5t-123.5 54.5q-172 0 -172 -264z" />
<glyph unicode="&#x3ad;" horiz-adv-x="1089" d="M82 289q0 36 10 71t46.5 77.5t97.5 66.5v12q-142 55 -142 195q0 61 27.5 116t82 101t147 73t210.5 27q66 0 127 -10.5t117.5 -33.5t98.5 -57t68.5 -84.5t28.5 -111.5q0 -45 -4 -74h-319q-6 67 -35.5 91t-81.5 24q-42 0 -71 -24.5t-29 -63.5q0 -74 96 -74h88v-196h-90 q-57 0 -84 -25.5t-27 -62.5q0 -38 28.5 -62t88.5 -24q134 0 144 131h335q4 -40 4 -58q0 -162 -122 -245.5t-359 -83.5q-246 0 -363.5 83t-117.5 222zM371 1210l282 418l232 -174l-346 -360z" />
<glyph unicode="&#x3ae;" horiz-adv-x="1261" d="M106 0v1006h328q41 -51 41 -156h10q104 170 322 170q190 0 269 -95t79 -282v-643h-377v600q0 79 -30 120.5t-101 41.5q-50 0 -84 -20t-49.5 -53.5t-21 -62.5t-5.5 -61v-565h-381zM403 1210l283 418l232 -174l-347 -360z" />
<glyph unicode="&#x3af;" horiz-adv-x="661" d="M141 0v1006h373v-1006h-373zM172 1210l283 418l231 -174l-346 -360z" />
<glyph unicode="&#x3b0;" horiz-adv-x="1234" d="M86 1278q0 68 47 115t115 47t115 -47t47 -115t-47 -115t-115 -47t-115 47t-47 115zM102 401v605h381v-600q0 -173 133 -173q71 0 107.5 39.5t36.5 133.5v600h373v-605q0 -203 -142.5 -308t-378.5 -105q-238 0 -374 104.5t-136 308.5zM436 1135l146 471l288 -86l-237 -451 zM823 1278q0 68 47.5 115t114.5 47t114.5 -47t47.5 -115t-47.5 -115t-114.5 -47t-114.5 47t-47.5 115z" />
<glyph unicode="&#x3b1;" horiz-adv-x="1284" d="M92 496q0 88 13.5 163.5t45 143.5t79.5 116.5t122 76.5t168 28q211 0 299 -150h10q3 84 39 134h306v-1008h-318q-35 47 -35 141h-12q-36 -50 -77 -83t-85 -47.5t-79 -19.5t-79 -5q-110 0 -188 36t-123 105t-65.5 159t-20.5 210zM471 502q0 -51 3.5 -88.5t14 -74.5 t28.5 -60t48 -37.5t72 -14.5q87 0 129.5 69t42.5 173v96q0 92 -42.5 146.5t-123.5 54.5q-172 0 -172 -264z" />
<glyph unicode="&#x3b2;" horiz-adv-x="1304" d="M106 -328v1323q0 209 131 340t373 131q238 0 371 -98.5t133 -273.5q0 -21 -7.5 -50.5t-24 -67t-50.5 -70t-80 -46.5l6 -10q68 -24 118 -65t78 -92.5t41 -107.5t13 -118q0 -75 -14.5 -143t-49 -131t-85.5 -109t-129 -73t-176 -27q-38 0 -64 2t-65.5 10t-74.5 28t-65 52 h-12v-404h-367zM467 434q0 -100 45 -161.5t131 -61.5q84 0 133 70.5t49 169.5q0 61 -20.5 109t-54.5 75.5t-71.5 41t-76.5 13.5h-59v240h45q72 0 110.5 41t38.5 106q0 62 -35 101t-90 39q-54 0 -88 -30.5t-45.5 -70.5t-11.5 -88v-594z" />
<glyph unicode="&#x3b3;" horiz-adv-x="1183" d="M14 971q58 26 140 41.5t129 15.5t82 -11.5t56.5 -30t37 -46.5t24.5 -56t19 -64q1 -6 2 -9l47 -176q30 -109 59 -260h11q22 152 75 342l82 287h396l-371 -959v-465h-379v344l-264 731q-17 47 -39 64.5t-82 17.5z" />
<glyph unicode="&#x3b4;" horiz-adv-x="1308" d="M94 481q0 71 15.5 138.5t49.5 131t83.5 111.5t123 76.5t162.5 28.5h29q-113 118 -399 266v207h979v-252h-379q454 -273 454 -686q0 -252 -151 -384t-412 -132q-269 0 -412 127t-143 368zM469 494q0 -134 46 -199.5t142 -65.5q85 0 133 68.5t48 191.5q0 176 -101 295 q-36 4 -53 4q-117 0 -166 -76t-49 -218z" />
<glyph unicode="&#x3b5;" horiz-adv-x="1089" d="M82 289q0 36 10 71t46.5 77.5t97.5 66.5v12q-142 55 -142 195q0 61 27.5 116t82 101t147 73t210.5 27q66 0 127 -10.5t117.5 -33.5t98.5 -57t68.5 -84.5t28.5 -111.5q0 -45 -4 -74h-319q-6 67 -35.5 91t-81.5 24q-42 0 -71 -24.5t-29 -63.5q0 -74 96 -74h88v-196h-90 q-57 0 -84 -25.5t-27 -62.5q0 -38 28.5 -62t88.5 -24q134 0 144 131h335q4 -40 4 -58q0 -162 -122 -245.5t-359 -83.5q-246 0 -363.5 83t-117.5 222z" />
<glyph unicode="&#x3b6;" horiz-adv-x="1024" d="M80 477q0 158 141 345t369 354v10h-449v250h930v-232q-608 -478 -608 -698q0 -28 10.5 -49.5t26.5 -36t49.5 -30.5t63.5 -27t86.5 -31.5t101.5 -38.5q132 -54 182.5 -115t50.5 -145q0 -22 -7 -50t-30 -81.5t-81.5 -132t-145.5 -168.5l-217 145q111 161 111 207 q0 17 -23.5 35t-46.5 27.5t-64 25.5q-85 32 -141.5 56t-112 54t-88.5 60.5t-59.5 70t-37.5 87.5t-11 108z" />
<glyph unicode="&#x3b7;" horiz-adv-x="1261" d="M106 0v1006h328q41 -51 41 -156h10q104 170 322 170q190 0 269 -95t79 -282v-643h-377v600q0 79 -30 120.5t-101 41.5q-50 0 -84 -20t-49.5 -53.5t-21 -62.5t-5.5 -61v-565h-381z" />
<glyph unicode="&#x3b8;" horiz-adv-x="1310" d="M92 713q0 745 563 745q114 0 204 -28t150.5 -81t102.5 -119.5t65 -154t32.5 -173.5t9.5 -187q0 -729 -564 -729q-127 0 -225 36t-161 99t-103.5 156t-57 199t-16.5 237zM465 635q-2 -101 5.5 -171t28 -125.5t59 -82.5t97.5 -27q47 0 81.5 18.5t55.5 51t33.5 84.5 t17 111.5t3.5 140.5h-381zM469 870h373q-11 342 -187 342q-178 0 -186 -342z" />
<glyph unicode="&#x3b9;" horiz-adv-x="661" d="M141 0v1006h373v-1006h-373z" />
<glyph unicode="&#x3ba;" horiz-adv-x="1241" d="M106 0v1006h377v-304h111l221 304h410l-363 -461l373 -545h-426l-256 416h-70v-416h-377z" />
<glyph unicode="&#x3bb;" horiz-adv-x="1142" d="M10 0l334 991h96l-34 113q-14 45 -39 60.5t-95 15.5h-65v260h211q56 0 101 -8.5t79 -22.5t61.5 -40.5t47 -53.5t37.5 -70.5t30.5 -82.5t28.5 -99l201 -762q13 -50 31.5 -65t80.5 -15l12 -205q-98 -39 -233 -39q-88 0 -135.5 37t-73.5 146q-9 36 -31 127t-30 126.5 t-21.5 96.5t-20.5 102t-12 78h-12q-28 -150 -84 -360l-88 -330h-377z" />
<glyph unicode="&#x3bd;" horiz-adv-x="1241" d="M10 1004h398l104 -328q58 -181 104 -379h15q61 251 106 395l97 312h395l-410 -1008h-399z" />
<glyph unicode="&#x3be;" horiz-adv-x="1005" d="M80 418q0 262 231 350v10q-60 20 -103 52.5t-65 70.5t-31.5 75t-9.5 77q0 192 135.5 297.5t352.5 105.5q124 0 225.5 -34.5t167.5 -107t70 -173.5q0 -49 -2 -72h-346q-20 129 -113 129q-56 0 -87.5 -39.5t-31.5 -116.5t52.5 -111t136.5 -34h184v-264h-201 q-94 0 -145 -44.5t-51 -117.5q0 -26 9.5 -45.5t23 -32.5t45 -27t57.5 -23t79.5 -27t92.5 -33q148 -55 208 -124t60 -155q0 -161 -240 -410l-219 144q88 145 88 188q0 24 -27.5 41.5t-82.5 38.5q-70 27 -111 43.5t-97 42.5t-88 47.5t-68 52t-55 62.5t-31.5 74t-12.5 90z" />
<glyph unicode="&#x3bf;" horiz-adv-x="1308" d="M96 500q0 111 32 203.5t97.5 165.5t175.5 114t256 41q127 0 225.5 -30t159.5 -78.5t100.5 -118t54.5 -141t15 -154.5q0 -78 -15.5 -148.5t-55.5 -139t-101 -118t-159 -80t-224 -30.5q-561 0 -561 514zM467 500q0 -269 186 -269q88 0 136.5 68t48.5 203q0 270 -185 270 q-186 0 -186 -272z" />
<glyph unicode="&#x3c0;" horiz-adv-x="1257" d="M102 0v1006h1053v-1006h-377v739h-291v-739h-385z" />
<glyph unicode="&#x3c1;" horiz-adv-x="1296" d="M98 414q0 142 30 249.5t80.5 174.5t124 108.5t151 57.5t171.5 16q173 0 297.5 -68.5t185 -184.5t60.5 -267q0 -114 -25 -206.5t-76.5 -162.5t-136 -108.5t-196.5 -38.5q-94 0 -161.5 16.5t-123.5 58.5h-10v-477h-371v832zM463 426q0 -209 166 -209q93 0 140.5 73 t47.5 199q0 136 -43 206.5t-143 70.5q-59 0 -98.5 -34.5t-54.5 -83.5t-15 -109v-113z" />
<glyph unicode="&#x3c2;" horiz-adv-x="1091" d="M90 477q0 263 127 403t383 140q96 0 179 -18t153 -55.5t110.5 -104.5t40.5 -156q0 -30 -6 -68h-340q-2 40 -15.5 69.5t-33 44.5t-38.5 21.5t-38 6.5q-149 0 -149 -238q0 -56 10 -91.5t38 -62t59 -43t93 -43.5q24 -10 37 -16q163 -72 222 -123.5t59 -128.5 q0 -123 -178 -379l-262 123q65 122 65 166q0 51 -94 86q-122 46 -194 83.5t-127.5 91t-78 123t-22.5 169.5z" />
<glyph unicode="&#x3c3;" horiz-adv-x="1320" d="M98 489q0 229 147.5 374t409.5 145h602v-267h-73q-67 0 -113 17l-6 -8q131 -84 131 -299q0 -88 -33.5 -169t-97 -148t-170 -107.5t-240.5 -40.5q-278 0 -417.5 136t-139.5 367zM467 496q0 -136 45 -202.5t141 -66.5q86 0 134.5 69.5t48.5 201.5q0 56 -9.5 103.5t-30 86.5 t-57 61.5t-86.5 22.5q-67 0 -109.5 -39t-59.5 -98t-17 -139z" />
<glyph unicode="&#x3c4;" horiz-adv-x="954" d="M41 745v261h807v-261h-248v-348q0 -79 31.5 -108t116.5 -29q70 0 135 12v-258q-98 -26 -271 -26q-183 0 -282 94.5t-99 279.5v383h-190z" />
<glyph unicode="&#x3c5;" horiz-adv-x="1234" d="M102 401v605h381v-600q0 -173 133 -173q71 0 107.5 39.5t36.5 133.5v600h373v-605q0 -203 -142.5 -308t-378.5 -105q-238 0 -374 104.5t-136 308.5z" />
<glyph unicode="&#x3c6;" horiz-adv-x="1640" d="M96 489q0 221 110 359.5t320 159.5l39 -254q-58 -19 -89.5 -87.5t-31.5 -177.5q0 -239 187 -256v787h387q120 0 213.5 -30t151 -78.5t95 -117.5t52 -139.5t14.5 -150.5q0 -71 -18 -140.5t-59.5 -137t-102 -119.5t-153 -85t-205.5 -36v-406h-375v406q-535 19 -535 503z M1006 233q90 11 143 78t53 191q0 117 -50 186.5t-146 73.5v-529z" />
<glyph unicode="&#x3c7;" horiz-adv-x="1228" d="M10 0l342 524l-319 482h426l145 -261h12l146 261h428l-324 -482l353 -524h-422l-174 313h-19l-172 -313h-422z" />
<glyph unicode="&#x3c8;" horiz-adv-x="1634" d="M102 442v564h365v-564q0 -51 14 -87.5t39 -56t49 -29.5t56 -15v752h366v-754q77 6 126.5 55t49.5 135v564h365v-564q0 -202 -148 -323.5t-393 -130.5v-408h-366v410q-236 19 -379.5 137.5t-143.5 314.5z" />
<glyph unicode="&#x3c9;" horiz-adv-x="1695" d="M96 502q0 110 31 201.5t95 164t173.5 113.5t255.5 41v-252q-186 0 -186 -272q0 -133 31.5 -193.5t99.5 -60.5q40 0 64 29.5t24 86.5v273h326v-268q0 -117 86 -117q63 0 99 66t36 184q0 272 -187 272v252q146 0 255.5 -41t173.5 -113.5t95 -164t31 -201.5q0 -112 -26 -202 t-81 -162t-152 -112t-230 -40q-186 0 -266 145h-17q-41 -75 -119 -110t-161 -35q-451 0 -451 516z" />
<glyph unicode="&#x3ca;" horiz-adv-x="661" d="M-51 1327q0 67 47.5 114.5t114.5 47.5t114 -47t47 -115t-47 -115t-114 -47t-114.5 47.5t-47.5 114.5zM141 0v1006h373v-1006h-373zM399 1327q0 67 47.5 114.5t114.5 47.5t114.5 -47.5t47.5 -114.5t-47.5 -114.5t-114.5 -47.5t-114.5 47.5t-47.5 114.5z" />
<glyph unicode="&#x3cb;" horiz-adv-x="1234" d="M102 401v605h381v-600q0 -173 133 -173q71 0 107.5 39.5t36.5 133.5v600h373v-605q0 -203 -142.5 -308t-378.5 -105q-238 0 -374 104.5t-136 308.5zM221 1327q0 67 47.5 114.5t114.5 47.5t114.5 -47.5t47.5 -114.5t-47.5 -114.5t-114.5 -47.5t-114.5 47.5t-47.5 114.5z M672 1327q0 67 47 114.5t115 47.5q67 0 114 -47t47 -115t-47 -115t-114 -47q-68 0 -115 47.5t-47 114.5z" />
<glyph unicode="&#x3cc;" horiz-adv-x="1308" d="M96 500q0 111 32 203.5t97.5 165.5t175.5 114t256 41q127 0 225.5 -30t159.5 -78.5t100.5 -118t54.5 -141t15 -154.5q0 -78 -15.5 -148.5t-55.5 -139t-101 -118t-159 -80t-224 -30.5q-561 0 -561 514zM467 500q0 -269 186 -269q88 0 136.5 68t48.5 203q0 270 -185 270 q-186 0 -186 -272zM510 1210l283 418l231 -174l-346 -360z" />
<glyph unicode="&#x3cd;" horiz-adv-x="1234" d="M102 401v605h381v-600q0 -173 133 -173q71 0 107.5 39.5t36.5 133.5v600h373v-605q0 -203 -142.5 -308t-378.5 -105q-238 0 -374 104.5t-136 308.5zM455 1210l282 418l232 -174l-346 -360z" />
<glyph unicode="&#x3ce;" horiz-adv-x="1695" d="M96 502q0 110 31 201.5t95 164t173.5 113.5t255.5 41v-252q-186 0 -186 -272q0 -133 31.5 -193.5t99.5 -60.5q40 0 64 29.5t24 86.5v273h326v-268q0 -117 86 -117q63 0 99 66t36 184q0 272 -187 272v252q146 0 255.5 -41t173.5 -113.5t95 -164t31 -201.5q0 -112 -26 -202 t-81 -162t-152 -112t-230 -40q-186 0 -266 145h-17q-41 -75 -119 -110t-161 -35q-451 0 -451 516zM694 1210l283 418l231 -174l-346 -360z" />
<glyph unicode="&#x3e0;" horiz-adv-x="1417" d="M74 1192l35 192q238 -11 435 -71.5t337 -159t236 -231.5t142 -289t46 -332q0 -184 -70 -455l-238 37q33 199 33 338q0 123 -29 252q-69 -39 -254 -144t-276 -155l-109 176l578 314q-29 65 -74 131l-569 -314l-107 172l531 295q-205 194 -647 244z" />
<glyph unicode="&#x3e1;" horiz-adv-x="1228" d="M72 860l24 168q253 -12 451.5 -86t323 -195.5t189 -278.5t64.5 -341q0 -144 -61 -385l-225 33q28 155 28 288q0 99 -20 189q-78 -46 -236 -133t-200 -111l-97 156l480 264q-22 56 -58 100l-473 -256l-94 150l438 246q-178 152 -534 192z" />
<glyph unicode="&#x401;" horiz-adv-x="1318" d="M129 0v1386h1077v-286h-690v-238h629v-284h-629v-293h707v-285h-1094zM279 1669q0 68 47 115t114 47q68 0 115 -47.5t47 -114.5t-47 -114.5t-115 -47.5q-67 0 -114 47t-47 115zM729 1669q0 67 47.5 114.5t114.5 47.5t114.5 -47.5t47.5 -114.5t-47.5 -114.5t-114.5 -47.5 t-114.5 47.5t-47.5 114.5z" />
<glyph unicode="&#x402;" horiz-adv-x="1800" d="M20 1102v284h1315v-284h-526v-316l10 -6q166 142 406 142q220 0 346.5 -154.5t126.5 -407.5q0 -87 -13 -162.5t-45.5 -147.5t-84 -123t-134.5 -82t-190 -31q-60 0 -115 8v276q180 14 180 256q0 111 -58.5 171.5t-158.5 60.5q-150 0 -270 -123v-463h-387v1102h-402z" />
<glyph unicode="&#x403;" horiz-adv-x="1191" d="M127 0v1386h1053v-286h-664v-1100h-389zM463 1642l416 287l159 -260l-467 -205z" />
<glyph unicode="&#x404;" horiz-adv-x="1490" d="M106 688q0 145 36 265t99.5 203t151 140.5t189 84t215.5 26.5q269 0 430.5 -113.5t167.5 -312.5q0 -33 -2 -49h-377q-9 82 -69 132t-163 50q-114 0 -185.5 -67t-80.5 -195h436v-272h-444q1 -162 73 -235t210 -73q231 0 247 228h375q4 -25 4 -70q0 -94 -34.5 -170.5 t-93 -127.5t-137.5 -85.5t-164.5 -49.5t-178.5 -15q-705 0 -705 706z" />
<glyph unicode="&#x405;" horiz-adv-x="1419" d="M90 410q0 36 6 71h365q6 -215 258 -215q111 0 161 41t50 107q0 64 -60.5 97.5t-226.5 57.5q-127 18 -218 46t-162.5 75.5t-107.5 120t-36 172.5q0 55 16 109.5t58 112.5t105.5 102t168 72t235.5 28q115 0 216.5 -24.5t183 -72.5t129 -126.5t47.5 -177.5q0 -44 -6 -82 h-369q-1 86 -57 137t-148 51q-94 0 -139 -36t-45 -89q0 -47 47.5 -74t165.5 -47q178 -30 296.5 -71.5t184.5 -100t92.5 -125.5t26.5 -159q0 -192 -154.5 -309t-453.5 -117q-134 0 -246.5 25.5t-199 76t-135 133.5t-48.5 191z" />
<glyph unicode="&#x406;" horiz-adv-x="667" d="M139 0v1386h389v-1386h-389z" />
<glyph unicode="&#x407;" horiz-adv-x="667" d="M-43 1694q0 67 47 114t115 47t115 -47t47 -114q0 -68 -47.5 -115t-114.5 -47t-114.5 47t-47.5 115zM139 0v1386h389v-1386h-389zM408 1694q0 68 47 114.5t114 46.5q68 0 115 -47t47 -114q0 -68 -47.5 -115t-114.5 -47t-114 47t-47 115z" />
<glyph unicode="&#x408;" horiz-adv-x="1310" d="M25 395q0 27 8 97h373q1 -52 9 -88.5t27.5 -67.5t56 -46.5t91.5 -15.5q198 0 198 230v885h388v-852q0 -57 -6 -109t-23.5 -109t-45 -104t-73.5 -91t-106 -74t-146 -48t-190 -18q-273 0 -417 101.5t-144 309.5z" />
<glyph unicode="&#x409;" horiz-adv-x="2150" d="M20 -6l19 246q35 0 57 3t45 14t36 27.5t26.5 51t21 76.5t15.5 111t13 149t11 196l25 521h997v-527h307q116 0 206.5 -26t145.5 -67t91 -98t49.5 -113.5t13.5 -119.5q0 -205 -134.5 -320.5t-410.5 -115.5h-657v1098h-264l-31 -535q-10 -172 -34 -281.5t-72 -181 t-119.5 -100.5t-181.5 -29q-101 0 -175 21zM1284 281h254q67 0 116.5 38.5t49.5 116.5q0 81 -49.5 116.5t-116.5 35.5h-254v-307z" />
<glyph unicode="&#x40a;" horiz-adv-x="2191" d="M129 0v1389h387v-527h422v527h389v-527h307q116 0 206.5 -26t145.5 -67t91 -98t49.5 -113.5t13.5 -119.5q0 -205 -134.5 -320.5t-410.5 -115.5h-657v573h-422v-575h-387zM1325 281h254q67 0 116.5 38.5t49.5 116.5q0 40 -15 69.5t-40.5 44.5t-53 21.5t-57.5 6.5h-254 v-297z" />
<glyph unicode="&#x40b;" horiz-adv-x="1789" d="M20 1100v286h1297v-286h-506v-312l12 -4q181 140 404 140q76 0 141.5 -15t123 -49t98 -85t64 -127.5t23.5 -172.5v-475h-385v328q0 268 -211 268q-74 0 -147.5 -33.5t-122.5 -95.5v-467h-387v1100h-404z" />
<glyph unicode="&#x40c;" horiz-adv-x="1470" d="M129 0v1391h385v-504h90l385 504h449l-529 -650l547 -741h-471l-397 588h-74v-588h-385zM543 1649l415 286l160 -260l-467 -205z" />
<glyph unicode="&#x40e;" horiz-adv-x="1302" d="M8 1386h385l262 -706h21l250 706h385l-422 -1069q-45 -111 -91 -180t-102.5 -104t-112.5 -46.5t-141 -11.5h-168v281h84q74 0 111.5 20t67.5 80l22 45l-133 -4zM313 1829h213q9 -73 48 -124.5t110 -51.5q67 0 106.5 52t47.5 124h213q-4 -50 -18 -101.5t-43.5 -105 t-70 -94.5t-101.5 -67.5t-134 -26.5q-75 0 -137 26.5t-102.5 67.5t-70 95t-43.5 105t-18 101z" />
<glyph unicode="&#x40f;" horiz-adv-x="1568" d="M127 0v1389h389v-1102h535v1102h389v-1389h-475v-399h-351v399h-487z" />
<glyph unicode="&#x410;" horiz-adv-x="1521" d="M8 0l539 1391h438l504 -1391h-406l-90 299h-489l-105 -299h-391zM608 571h287l-53 187q-55 190 -74 295h-18q-42 -178 -80 -295z" />
<glyph unicode="&#x411;" horiz-adv-x="1386" d="M129 2v1384h1063v-286h-674v-238h307q116 0 206.5 -26t145.5 -67t91 -98t49.5 -113.5t13.5 -119.5q0 -205 -134.5 -320.5t-410.5 -115.5h-657zM516 281h254q67 0 116.5 38.5t49.5 116.5q0 81 -49.5 116.5t-116.5 35.5h-254v-307z" />
<glyph unicode="&#x412;" horiz-adv-x="1449" d="M147 0v1386h707q93 0 169 -20t135 -60.5t91.5 -109t32.5 -158.5q0 -33 -9.5 -71t-31.5 -81t-66.5 -80.5t-105.5 -57.5v-11q64 -12 115.5 -40.5t82 -63t50.5 -76t27.5 -76.5t7.5 -67q0 -189 -115 -301.5t-332 -112.5h-758zM532 870h234q59 0 95 32.5t36 84.5 q0 53 -34.5 83t-92.5 30h-238v-230zM537 285h249q84 0 126 39t42 110t-47.5 111.5t-122.5 40.5h-247v-301z" />
<glyph unicode="&#x413;" horiz-adv-x="1191" d="M127 0v1386h1053v-286h-664v-1100h-389z" />
<glyph unicode="&#x414;" horiz-adv-x="1613" d="M31 287h133q65 108 96.5 239.5t46.5 356.5l35 508h1063v-1104h151v-645h-311v358h-903v-358h-311v645zM541 287h475v813h-342l-19 -221q-20 -225 -43.5 -359t-70.5 -233z" />
<glyph unicode="&#x415;" horiz-adv-x="1318" d="M129 0v1386h1077v-286h-690v-238h629v-284h-629v-293h707v-285h-1094z" />
<glyph unicode="&#x416;" horiz-adv-x="2207" d="M10 0l527 741l-508 650h448l385 -504h49v504h385v-504h50l385 504h448l-508 -650l527 -741h-472l-397 588h-33v-588h-385v588h-32l-398 -588h-471z" />
<glyph unicode="&#x417;" horiz-adv-x="1396" d="M51 348q0 40 10 92h383q3 -52 27.5 -89.5t61.5 -55.5t72.5 -25.5t70.5 -7.5q108 0 166.5 47.5t58.5 120.5q0 71 -50.5 109.5t-127.5 38.5h-191v284h121q104 0 162.5 33.5t58.5 93.5q0 56 -52 93.5t-140 37.5q-28 0 -53.5 -3.5t-55.5 -15t-52 -30.5t-38 -52.5t-18 -78.5 h-385q-4 36 -4 55q0 85 36.5 156t97 119t140.5 81.5t164.5 48.5t171.5 15q284 0 435 -106.5t151 -294.5q0 -49 -19.5 -100t-70 -100t-123.5 -69v-10q60 -17 105.5 -47.5t71.5 -63.5t42.5 -73t21.5 -72.5t5 -66.5q0 -206 -168.5 -321.5t-472.5 -115.5q-71 0 -139.5 8 t-139 25.5t-129.5 47t-105.5 69.5t-73 97.5t-26.5 125.5z" />
<glyph unicode="&#x418;" horiz-adv-x="1540" d="M123 0v1386h379v-770h18q97 167 250 377l291 393h356v-1386h-381v815l-14 2q-146 -236 -215 -332l-350 -485h-334z" />
<glyph unicode="&#x419;" horiz-adv-x="1540" d="M123 0v1386h379v-770h18q97 167 250 377l291 393h356v-1386h-381v815l-14 2q-146 -236 -215 -332l-350 -485h-334zM420 1886h213q9 -73 48 -124.5t110 -51.5q67 0 106 51.5t47 124.5h213q-5 -64 -27.5 -128.5t-64 -126.5t-113 -101t-161.5 -39q-75 0 -137 26.5 t-102.5 67.5t-70 95t-43.5 105t-18 101z" />
<glyph unicode="&#x41a;" horiz-adv-x="1470" d="M129 0v1391h385v-504h90l385 504h449l-529 -650l547 -741h-471l-397 588h-74v-588h-385z" />
<glyph unicode="&#x41b;" horiz-adv-x="1492" d="M20 -6l19 246q35 0 57 3t45 14t36 27.5t26.5 51t21 76.5t15.5 111t13 149t11 196l25 523h1075v-1391h-387v1100h-340l-21 -379q-5 -99 -10.5 -168.5t-14 -143.5t-19.5 -123t-27.5 -99t-38.5 -81t-51.5 -59t-67.5 -42.5t-85.5 -23t-106.5 -8.5q-101 0 -175 21z" />
<glyph unicode="&#x41c;" horiz-adv-x="1880" d="M129 0l2 1386h434l172 -354q90 -182 193 -436h22q18 48 35 91t39.5 94t32 72t40 84.5t34.5 72.5l180 376h436l2 -1386h-381v750h-18q-50 -126 -121 -271l-137 -278h-308l-135 268q-60 121 -127 285h-14v-754h-381z" />
<glyph unicode="&#x41d;" horiz-adv-x="1568" d="M129 0v1389h387v-527h535v527h389v-1389h-389v575h-535v-575h-387z" />
<glyph unicode="&#x41e;" horiz-adv-x="1658" d="M106 676q0 122 25 228t81 199.5t139.5 160t207 105t277.5 38.5q161 0 287.5 -43t205 -113t130 -167t71.5 -196t20 -210q0 -70 -10.5 -137.5t-35 -137.5t-62 -130.5t-95 -114.5t-129.5 -92t-170.5 -60t-213.5 -22q-163 0 -289.5 36.5t-208 98.5t-134 151.5t-74.5 189 t-22 216.5zM506 682q0 -208 81 -316t244 -108q148 0 232 112.5t84 313.5q0 93 -17.5 170t-53.5 139.5t-98.5 97.5t-146.5 35q-96 0 -161.5 -33t-100.5 -96.5t-49 -138.5t-14 -176z" />
<glyph unicode="&#x41f;" horiz-adv-x="1507" d="M129 0v1389h1249v-1389h-385v1100h-477v-1100h-387z" />
<glyph unicode="&#x420;" horiz-adv-x="1370" d="M129 0v1386h653q141 0 247.5 -35t170 -98.5t94.5 -145.5t31 -183q0 -62 -16.5 -122.5t-57 -121.5t-100.5 -107t-155.5 -75t-213.5 -29h-266v-469h-387zM516 754h229q27 0 52.5 4t53.5 16t48 30.5t33.5 50t13.5 71.5q0 94 -57 134t-144 40h-229v-346z" />
<glyph unicode="&#x421;" horiz-adv-x="1490" d="M106 688q0 145 36 265t99.5 203t151 140.5t189 84t215.5 26.5q163 0 296.5 -50t217.5 -154.5t84 -246.5q0 -17 -4 -49h-375q-1 101 -62.5 154t-169.5 53q-144 0 -211 -108t-67 -318q0 -213 67 -314.5t220 -101.5q109 0 177.5 62t69.5 164h375q4 -25 4 -70 q0 -91 -36 -166.5t-96 -126t-139 -86t-164 -51.5t-173 -16q-705 0 -705 706z" />
<glyph unicode="&#x422;" horiz-adv-x="1316" d="M31 1102v284h1255v-284h-430v-1102h-387v1102h-438z" />
<glyph unicode="&#x423;" horiz-adv-x="1331" d="M16 1386h385l263 -706h20l250 706h385l-422 -1069q-36 -89 -74 -151t-75.5 -99.5t-86.5 -58t-96 -27t-114 -6.5h-168v281h84q74 0 111 20t67 80l22 45l-133 -4z" />
<glyph unicode="&#x424;" horiz-adv-x="1802" d="M102 702q0 239 164 402.5t453 195.5v89h348v-86q138 -11 247.5 -48.5t181 -92.5t118 -128.5t66.5 -152.5t20 -168q0 -102 -39 -199t-114.5 -181.5t-199.5 -144.5t-280 -79v-109h-348v106q-158 16 -278 67t-193 131t-109.5 179.5t-36.5 218.5zM481 705q0 -136 53.5 -220 t184.5 -112v659q-118 -21 -178 -107.5t-60 -219.5zM1067 375q119 27 180.5 116t61.5 218q0 137 -54.5 218.5t-187.5 102.5v-655z" />
<glyph unicode="&#x425;" horiz-adv-x="1454" d="M10 0l496 719l-453 667h428l246 -452l242 452h432l-453 -667l494 -719h-436l-281 479l-281 -479h-434z" />
<glyph unicode="&#x426;" horiz-adv-x="1667" d="M127 0v1389h389v-1102h535v1102h389v-1104h186v-643h-319v358h-1180z" />
<glyph unicode="&#x427;" horiz-adv-x="1439" d="M82 924v467h387v-383q0 -81 15 -133.5t48.5 -79.5t75 -37t105.5 -10q104 0 215 18v620h389v-1386h-391l-4 487q-172 -26 -312 -26q-127 0 -222 24t-152.5 63.5t-92.5 100.5t-48 126t-13 149z" />
<glyph unicode="&#x428;" horiz-adv-x="2111" d="M123 0v1389h389v-1102h356v1102h385v-1102h346v1102h390v-1389h-1866z" />
<glyph unicode="&#x429;" horiz-adv-x="2215" d="M123 0v1389h389v-1102h356v1102h385v-1102h346v1102h390v-1104h186v-643h-320v358h-1732z" />
<glyph unicode="&#x42a;" horiz-adv-x="1683" d="M20 1096v290l799 3v-527h307q116 0 206.5 -26t145.5 -67t91 -98t49.5 -113.5t13.5 -119.5q0 -205 -134.5 -320.5t-410.5 -115.5h-657v1094h-410zM817 281h254q67 0 116.5 38.5t49.5 116.5q0 81 -49.5 116.5t-116.5 35.5h-254v-307z" />
<glyph unicode="&#x42b;" horiz-adv-x="1959" d="M143 2v1387h389v-527h308q116 0 206.5 -26t145.5 -67t91 -98t49.5 -113.5t13.5 -119.5q0 -205 -134.5 -320.5t-410.5 -115.5h-658zM530 281h254q67 0 116.5 38.5t49.5 116.5q0 81 -49.5 116.5t-116.5 35.5h-254v-307zM1442 0v1386h389v-1386h-389z" />
<glyph unicode="&#x42c;" horiz-adv-x="1396" d="M143 2v1387h389v-527h308q116 0 206.5 -26t145.5 -67t91 -98t49.5 -113.5t13.5 -119.5q0 -205 -134.5 -320.5t-410.5 -115.5h-658zM530 281h254q67 0 116.5 38.5t49.5 116.5q0 81 -49.5 116.5t-116.5 35.5h-254v-307z" />
<glyph unicode="&#x42d;" horiz-adv-x="1470" d="M76 436q0 13 4 41h375q4 -101 68 -153t175 -52q130 0 198.5 78.5t70.5 229.5h-457v282h451q-14 252 -248 252q-103 0 -166 -54t-74 -140h-371q-1 8 -2 24.5t-2 24.5q0 107 49 192t134 138t193.5 80.5t232.5 27.5q162 0 282.5 -39t206.5 -122.5t129 -221t43 -328.5 q0 -714 -672 -714q-95 0 -181.5 14.5t-167.5 49t-140.5 85.5t-95 129.5t-35.5 175.5z" />
<glyph unicode="&#x42e;" horiz-adv-x="2215" d="M129 0v1389h389v-527h203q16 94 49.5 173.5t90.5 149.5t133.5 119t183 77t235.5 28q116 0 213.5 -23t168 -63t125.5 -97t89.5 -120t57 -137.5t31.5 -145t9 -145.5q0 -98 -18.5 -189.5t-68 -186t-125 -163.5t-200.5 -113t-284 -44q-148 0 -264.5 31.5t-194 85t-130.5 131 t-79 162.5t-34 186h-191v-578h-389zM1104 682q0 -426 305 -426q146 0 220.5 112t74.5 316q0 74 -9 137.5t-30.5 121t-54.5 98t-84 64t-117 23.5q-305 0 -305 -446z" />
<glyph unicode="&#x42f;" horiz-adv-x="1413" d="M57 0l375 530q-72 21 -130 60t-93 83t-58.5 95t-32.5 94t-9 82q0 208 129 325t401 117h643v-1386h-387v508h-59l-338 -508h-441zM487 944q0 -74 51.5 -113.5t127.5 -39.5h231v313h-231q-78 0 -128.5 -39t-50.5 -121z" />
<glyph unicode="&#x430;" horiz-adv-x="1202" d="M76 295q0 321 508 321q4 0 139 -6v39q0 68 -33 97.5t-84 29.5q-100 0 -119 -88h-331q-4 16 -4 49q0 61 27.5 111t73 82.5t106 54.5t124.5 31.5t131 9.5q480 0 480 -381v-645h-310q-31 47 -36 150h-13q-46 -76 -135 -121t-184 -45q-340 0 -340 311zM446 326 q0 -48 33.5 -72.5t77.5 -24.5q49 0 83.5 15t51 40.5t23 51t6.5 55.5v35q-53 6 -92 6q-183 0 -183 -106z" />
<glyph unicode="&#x431;" horiz-adv-x="1308" d="M92 539q0 492 273 692q57 42 155 83t181 66.5t211.5 62t185.5 54.5l78 -254q-44 -12 -125 -33q-119 -31 -172.5 -46t-133 -40.5t-113.5 -45.5t-74.5 -51t-59 -67t-27.5 -83h10q62 54 145 77t144 23q115 0 200.5 -35.5t138 -102t78 -155.5t25.5 -201q0 -68 -15.5 -134 t-56 -133.5t-101.5 -117.5t-161 -82t-225 -32q-121 0 -216 26.5t-159.5 74.5t-106.5 118t-60.5 153t-18.5 183zM467 483q0 -138 46.5 -195t135.5 -57q93 0 141 64t48 182q0 252 -187 252q-44 0 -78 -16.5t-53.5 -41.5t-32 -59.5t-16.5 -65t-4 -63.5z" />
<glyph unicode="&#x432;" horiz-adv-x="1204" d="M104 0v1008h644q151 0 239 -64.5t88 -191.5q0 -59 -31.5 -114.5t-101.5 -86.5v-8q184 -55 184 -246q0 -138 -100 -217.5t-264 -79.5h-658zM481 244h187q51 0 77.5 23.5t26.5 64.5q0 84 -102 84h-189v-172zM481 618h166q86 0 86 70q0 36 -24.5 54t-65.5 18h-162v-142z" />
<glyph unicode="&#x433;" horiz-adv-x="1011" d="M106 0v1006h889v-267h-503v-739h-386z" />
<glyph unicode="&#x434;" horiz-adv-x="1329" d="M39 256h127q76 149 94 381l31 367h868v-748h133v-578h-307v322h-639v-322h-305zM514 256h264v496h-178l-14 -170q-11 -125 -24.5 -188.5t-47.5 -137.5z" />
<glyph unicode="&#x435;" horiz-adv-x="1216" d="M96 479q0 120 31 218t93 171.5t162.5 113.5t231.5 40t230.5 -38t159 -104.5t89 -150.5t29.5 -184q0 -33 -6 -74h-655q0 -46 2.5 -76.5t11.5 -64.5t25 -54t46 -33.5t72 -13.5q69 0 102.5 36.5t41.5 84.5h346q2 -14 2 -33q0 -92 -41.5 -159t-114 -103t-157 -52.5 t-185.5 -16.5q-516 0 -516 493zM471 639h268q-11 137 -135 137q-58 0 -94 -34.5t-39 -102.5z" />
<glyph unicode="&#x436;" horiz-adv-x="1867" d="M16 0l371 514l-364 492h409l221 -342h90v342h377v-342h90l222 342h405l-362 -488l372 -518h-422l-256 395h-49v-395h-377v395h-49l-256 -395h-422z" />
<glyph unicode="&#x437;" horiz-adv-x="1097" d="M41 309q0 16 4 56l348 2q8 -142 148 -142q60 0 90.5 30.5t30.5 70.5q0 36 -28.5 62t-86.5 26h-92v196h94q100 0 100 74q0 39 -30 64.5t-74 25.5q-105 0 -125 -115h-332q-2 23 -2 74q3 76 43.5 135t106.5 93.5t144.5 51.5t164.5 17q128 0 223 -24.5t149 -67t79.5 -94.5 t25.5 -113q0 -140 -145 -211v-12q48 -19 82 -47.5t49.5 -60.5t21.5 -58.5t6 -52.5q0 -64 -26 -117.5t-80.5 -97t-150 -68t-224.5 -24.5q-254 0 -384 82.5t-130 244.5z" />
<glyph unicode="&#x438;" horiz-adv-x="1294" d="M106 0v1006h359v-498h16q60 103 140 211l219 287h348v-1006h-367v547h-12q-34 -78 -139 -219l-240 -328h-324z" />
<glyph unicode="&#x439;" horiz-adv-x="1294" d="M106 0v1006h359v-498h16q60 103 140 211l219 287h348v-1006h-367v547h-12q-34 -78 -139 -219l-240 -328h-324zM285 1513h213q9 -74 47.5 -125t109.5 -51q67 0 106.5 52t47.5 124h213q-4 -50 -18 -101.5t-43.5 -105t-70 -94.5t-101.5 -67.5t-134 -26.5q-75 0 -137 26.5 t-102.5 67.5t-69.5 95t-43 105t-18 101z" />
<glyph unicode="&#x43a;" horiz-adv-x="1241" d="M106 0v1006h377v-304h103l221 304h418l-363 -461l373 -545h-426l-256 416h-70v-416h-377z" />
<glyph unicode="&#x43b;" horiz-adv-x="1228" d="M20 -2l17 231q37 4 58.5 9t46.5 19.5t39 41t27.5 71t21.5 111t12 160.5l22 367h858v-1008h-377v752h-170l-22 -299q-19 -256 -105.5 -362.5t-275.5 -106.5q-95 0 -152 14z" />
<glyph unicode="&#x43c;" horiz-adv-x="1671" d="M129 0l2 1004h412l127 -222q118 -201 159 -299h17q86 176 151 293l129 228h416v-1004h-366v502h-19q-46 -106 -90 -183l-98 -174h-264l-89 154q-21 37 -55 106t-51 101h-12v-506h-369z" />
<glyph unicode="&#x43d;" horiz-adv-x="1265" d="M106 0v1004h386v-355h290v355h377v-1004h-377v399h-290v-399h-386z" />
<glyph unicode="&#x43e;" horiz-adv-x="1308" d="M96 500q0 111 32 203.5t97.5 165.5t175.5 114t256 41q127 0 225.5 -30t159.5 -78.5t100.5 -118t54.5 -141t15 -154.5q0 -78 -15.5 -148.5t-55.5 -139t-101 -118t-159 -80t-224 -30.5q-561 0 -561 514zM467 500q0 -269 186 -269q88 0 136.5 68t48.5 203q0 270 -185 270 q-186 0 -186 -272z" />
<glyph unicode="&#x43f;" horiz-adv-x="1257" d="M102 0v1006h1053v-1006h-377v739h-291v-739h-385z" />
<glyph unicode="&#x440;" horiz-adv-x="1304" d="M106 -418v1424h316q18 -22 28.5 -66t10.5 -88h10q110 168 322 168q88 0 158 -24.5t117 -68.5t78 -107t45 -136.5t15 -161.5q1 -118 -23 -213.5t-74.5 -169.5t-136 -114.5t-200.5 -40.5q-209 0 -285 92h-10v-494h-371zM471 426q0 -209 166 -209q93 0 140.5 73t47.5 199 q0 140 -44.5 204.5t-141.5 64.5q-77 0 -122.5 -59t-45.5 -150v-123z" />
<glyph unicode="&#x441;" horiz-adv-x="1204" d="M90 498q0 261 139.5 391.5t374.5 130.5q229 0 358.5 -94.5t129.5 -259.5q0 -8 -5 -48h-346q-2 41 -16 71t-34.5 44.5t-40 20.5t-38.5 6q-46 0 -77.5 -22.5t-46 -63t-20 -82t-5.5 -94.5q0 -133 32 -192.5t126 -59.5q46 0 85.5 30.5t49.5 98.5h346q2 -14 2 -43 q0 -75 -26.5 -135t-71 -99t-105.5 -65.5t-126.5 -37.5t-137.5 -11q-280 0 -413.5 125.5t-133.5 388.5z" />
<glyph unicode="&#x442;" horiz-adv-x="1077" d="M20 739v267h1037v-267h-328v-739h-385v739h-324z" />
<glyph unicode="&#x443;" horiz-adv-x="1153" d="M14 1006h377l103 -408q53 -198 71 -315h13q22 134 77 323l113 400h375l-363 -1029q-21 -60 -34.5 -95t-38 -84t-48 -77.5t-60.5 -61t-80.5 -49.5t-103 -28.5t-132.5 -11.5h-174v283h124q73 0 112 21t58 67l29 75h-88z" />
<glyph unicode="&#x444;" horiz-adv-x="1646" d="M96 496q0 75 18 144.5t59 136t103 117.5t156 85t211 41v436h354v-436q122 -7 218.5 -39t158 -80.5t102 -113.5t57.5 -134.5t17 -148.5q0 -68 -20 -137t-64.5 -136t-107.5 -119.5t-156 -87t-203 -38.5v-406h-356v406q-138 5 -245.5 50t-172 117t-97 159t-32.5 184z M455 494q0 -224 188 -267v547q-76 -10 -132 -86.5t-56 -193.5zM999 227q80 18 134.5 82.5t54.5 190.5q0 120 -52 192.5t-137 81.5v-547z" />
<glyph unicode="&#x445;" horiz-adv-x="1228" d="M10 0l342 524l-319 482h426l145 -261h12l146 261h428l-324 -482l353 -524h-422l-174 313h-19l-172 -313h-422z" />
<glyph unicode="&#x446;" horiz-adv-x="1335" d="M106 0v1004h381v-748h297v748h381v-748h140v-578h-308v322h-891z" />
<glyph unicode="&#x447;" horiz-adv-x="1187" d="M51 649v359h367v-320q0 -129 143 -129q87 0 148 27v422h376v-1008h-376v352q-130 -51 -295 -51q-175 0 -269 86t-94 262z" />
<glyph unicode="&#x448;" horiz-adv-x="1824" d="M106 0v1004h383v-748h232v748h381v-748h235v748h381v-1004h-1612z" />
<glyph unicode="&#x449;" horiz-adv-x="1888" d="M106 0v1004h383v-748h232v748h381v-748h235v748h381v-748h140v-578h-308v322h-1444z" />
<glyph unicode="&#x44a;" horiz-adv-x="1433" d="M25 752v254l688 2v-314h288q77 0 144.5 -21t121 -62t84.5 -109t31 -154q0 -157 -98.5 -252.5t-259.5 -95.5h-692v752h-307zM709 248h200q58 0 86.5 30.5t28.5 73.5t-32 74t-91 31h-192v-209z" />
<glyph unicode="&#x44b;" horiz-adv-x="1712" d="M106 0v1008h381v-314h289q77 0 144.5 -21t121 -62t84.5 -109t31 -154q0 -157 -98.5 -252.5t-259.5 -95.5h-693zM483 248h201q58 0 86.5 30.5t28.5 73.5t-32 74t-91 31h-193v-209zM1233 0v1006h373v-1006h-373z" />
<glyph unicode="&#x44c;" horiz-adv-x="1228" d="M106 0v1008h381v-314h289q77 0 144.5 -21t121 -62t84.5 -109t31 -154q0 -157 -98.5 -252.5t-259.5 -95.5h-693zM483 248h201q58 0 86.5 30.5t28.5 73.5t-32 74t-91 31h-193v-209z" />
<glyph unicode="&#x44d;" horiz-adv-x="1183" d="M82 311q0 29 2 43h338q17 -118 139 -118q68 0 107.5 38t40.5 113h-220v231h218q-2 59 -35.5 97.5t-98.5 38.5q-26 0 -51 -9t-49.5 -36t-30.5 -70h-329q-2 12 -2 39q1 76 31 136.5t77 98t110.5 62.5t127 35t131.5 10q499 0 499 -528q0 -249 -126 -380.5t-406 -131.5 q-95 0 -178 19t-150 57.5t-106 104t-39 150.5z" />
<glyph unicode="&#x44e;" horiz-adv-x="1775" d="M113 0v1008h372v-367h133q17 82 55 149t100 120.5t157 83.5t215 30q126 0 223 -31.5t154.5 -81.5t94 -120.5t49.5 -140t13 -148.5q0 -76 -13.5 -144t-50 -138t-94.5 -120t-154.5 -82t-221.5 -32q-136 0 -236.5 30.5t-161 88t-93.5 128t-44 160.5h-125v-393h-372zM975 500 q0 -131 37 -200t129 -69q83 0 123.5 72t40.5 199q0 270 -164 270q-166 0 -166 -272z" />
<glyph unicode="&#x44f;" horiz-adv-x="1212" d="M51 0l281 387q-66 18 -114 53t-72.5 78t-36 84.5t-11.5 83.5q0 147 106 235.5t304 88.5h598v-1010h-373v371h-28l-263 -371h-391zM459 674q0 -42 27.5 -66t82.5 -24h168v186h-166q-52 0 -82 -26.5t-30 -69.5z" />
<glyph unicode="&#x451;" horiz-adv-x="1216" d="M96 479q0 -493 516 -493q101 0 185.5 16.5t157 52.5t114 103t41.5 159q0 19 -2 33h-346q-8 -48 -41.5 -84.5t-102.5 -36.5q-42 0 -72 13.5t-46 33.5t-25 54t-11.5 64.5t-2.5 76.5h655q6 41 6 74q0 100 -29.5 184t-89 150.5t-159 104.5t-230.5 38t-231.5 -40 t-162.5 -113.5t-93 -171.5t-31 -218zM236 1341q0 68 47 115t114 47t114.5 -47.5t47.5 -114.5t-47 -114t-115 -47q-67 0 -114 47t-47 114zM471 639q3 68 39 102.5t94 34.5q124 0 135 -137h-268zM686 1341q0 67 47 114.5t115 47.5t115 -47.5t47 -114.5t-47 -114t-115 -47 t-115 47t-47 114z" />
<glyph unicode="&#x452;" horiz-adv-x="1257" d="M16 1108v172h99v174h352v-174h371v-172h-371v-100q0 -150 -27 -232h11q31 54 71.5 92t83.5 56.5t79.5 26t72.5 7.5q107 0 185.5 -36.5t124.5 -104.5t67.5 -156.5t21.5 -201.5q0 -72 -6 -133.5t-22 -123t-41 -110.5t-64.5 -92t-91 -71.5t-123 -45t-158.5 -16.5 q-22 0 -80 4v260q107 14 166.5 98.5t59.5 229.5q0 111 -43.5 179.5t-132.5 68.5q-80 0 -112 -55.5t-32 -159.5v-492h-362v1108h-99z" />
<glyph unicode="&#x453;" horiz-adv-x="1011" d="M106 0v1006h889v-267h-503v-739h-386zM315 1280l349 367l198 -211l-399 -299z" />
<glyph unicode="&#x454;" horiz-adv-x="1191" d="M96 492q0 256 141 392t373 136q227 0 352.5 -90t127.5 -244q0 -7 -5 -47h-346q-8 67 -43.5 93t-79.5 26q-65 0 -101 -41.5t-38 -100.5h217v-231h-219q1 -76 38.5 -111.5t111.5 -35.5q121 0 137 116h346q2 -14 2 -43q0 -85 -40 -150.5t-107.5 -104t-148.5 -57.5t-171 -19 q-287 0 -417 125t-130 387z" />
<glyph unicode="&#x455;" horiz-adv-x="1159" d="M84 301q0 15 4 39h332q3 -56 44.5 -86.5t110.5 -30.5q66 0 100 23.5t34 56.5q0 32 -41 50t-146 38q-112 20 -185 44t-128 61t-80 90.5t-25 128.5q0 40 13 80t47 82.5t84.5 74t133.5 52t187 20.5q85 0 162 -15t147 -47t112 -92t42 -141q0 -17 -4 -49h-334q-3 50 -33 75 t-81 25q-50 0 -76.5 -19.5t-26.5 -49.5q0 -31 22 -49t85 -29q144 -27 232.5 -53t150 -64.5t86 -89t24.5 -125.5q0 -141 -125 -228t-364 -87q-71 0 -136 7.5t-134 29t-119 55.5t-82.5 91.5t-32.5 131.5z" />
<glyph unicode="&#x456;" horiz-adv-x="661" d="M133 1290q0 86 57.5 143.5t139.5 57.5q86 0 143 -57.5t57 -143.5q0 -82 -57 -139t-143 -57q-82 0 -139.5 57t-57.5 139zM141 0v1006h373v-1006h-373z" />
<glyph unicode="&#x457;" horiz-adv-x="661" d="M-51 1327q0 67 47.5 114.5t114.5 47.5t114 -47t47 -115t-47 -115t-114 -47t-114.5 47.5t-47.5 114.5zM141 0v1006h373v-1006h-373zM399 1327q0 67 47.5 114.5t114.5 47.5t114.5 -47.5t47.5 -114.5t-47.5 -114.5t-114.5 -47.5t-114.5 47.5t-47.5 114.5z" />
<glyph unicode="&#x458;" horiz-adv-x="661" d="M0 -152h29q77 0 99 27t22 98v1033h372v-1117q0 -71 -15.5 -126t-51 -99.5t-100 -68t-156.5 -23.5h-199v276zM141 1290q0 86 57.5 143.5t139.5 57.5q86 0 143.5 -57.5t57.5 -143.5q0 -82 -57.5 -139t-143.5 -57q-82 0 -139.5 57t-57.5 139z" />
<glyph unicode="&#x459;" horiz-adv-x="1826" d="M20 -2l17 231q37 4 58.5 9t46.5 19.5t39 41t27.5 71t21.5 111t12 160.5l22 367h842v-314h268q77 0 144.5 -21t121 -62t84.5 -109t31 -154q0 -157 -98.5 -252.5t-259.5 -95.5h-672v752h-150l-22 -299q-19 -256 -105.5 -362.5t-275.5 -106.5q-95 0 -152 14zM1102 248h180 q58 0 86.5 30.5t28.5 73.5t-32 74t-91 31h-172v-209z" />
<glyph unicode="&#x45a;" horiz-adv-x="1832" d="M106 0v1004h386v-334h253v338h381v-338h277q79 0 144.5 -17.5t119.5 -54t84.5 -100.5t30.5 -150q0 -157 -98 -252.5t-259 -95.5h-680v420h-253v-420h-386zM1122 248h187q59 0 86.5 26t27.5 68q0 41 -31 65.5t-92 24.5h-178v-184z" />
<glyph unicode="&#x45b;" horiz-adv-x="1261" d="M16 1108v172h90v178h367v-178h375v-172h-375v-41q0 -67 -7 -155t-22 -128h13q32 54 78.5 92.5t96.5 57.5t91.5 27t79.5 8q190 0 271 -95.5t81 -281.5v-592h-377v551q0 162 -133 162q-37 0 -66.5 -12.5t-46 -31.5t-27.5 -44t-14.5 -47.5t-3.5 -45.5v-532h-381v1108h-90z " />
<glyph unicode="&#x45c;" horiz-adv-x="1241" d="M106 0v1006h377v-304h103l221 304h418l-363 -461l373 -545h-426l-256 416h-70v-416h-377zM446 1253l349 367l198 -211l-399 -299z" />
<glyph unicode="&#x45e;" horiz-adv-x="1153" d="M14 1006h377l103 -408q53 -198 71 -315h13q22 134 77 323l113 400h375l-363 -1029q-21 -60 -34.5 -95t-38 -84t-48 -77.5t-60.5 -61t-80.5 -49.5t-103 -28.5t-132.5 -11.5h-174v283h124q73 0 112 21t58 67l29 75h-88zM217 1460h213q9 -73 48 -124.5t110 -51.5 q67 0 106 51.5t47 124.5h213q-5 -64 -27.5 -128.5t-64 -126.5t-113 -101t-161.5 -39q-75 0 -137 26.5t-102.5 67.5t-70 95t-43.5 105t-18 101z" />
<glyph unicode="&#x45f;" horiz-adv-x="1282" d="M106 0v1004h381v-748h308v748h381v-1004h-373v-340h-320v340h-377z" />
<glyph unicode="&#x490;" horiz-adv-x="1191" d="M127 0v1386h739v252h314v-538h-664v-1100h-389z" />
<glyph unicode="&#x491;" horiz-adv-x="1011" d="M106 0v1006h584v280h305v-547h-503v-739h-386z" />
<glyph unicode="&#x4d9;" horiz-adv-x="1216" d="M96 455q0 41 6 88h664v39q0 188 -158 188q-64 0 -100 -35t-43 -80h-346q22 369 502 369q139 0 240 -39.5t158.5 -112t84 -164.5t26.5 -208q0 -111 -31 -203t-93 -163t-162.5 -110.5t-231.5 -39.5t-231.5 36.5t-162 101.5t-92 148.5t-30.5 184.5zM487 367 q11 -138 136 -138q58 0 94 35t39 103h-269z" />
<glyph unicode="&#x1e80;" horiz-adv-x="2160" d="M16 1386h410l94 -442q8 -41 27.5 -130t30.5 -142t25.5 -133t23.5 -150h8q13 91 31 177.5t49 216t39 163.5l104 440h445l114 -464q77 -318 113 -521h10q23 153 96 517l99 468h409l-399 -1386h-430l-107 442q-8 31 -33.5 131.5t-37 149.5t-28.5 132.5t-26 156.5h-8 q-46 -243 -119 -543l-112 -469h-428zM637 1663l162 260l426 -295l-121 -170z" />
<glyph unicode="&#x1e81;" horiz-adv-x="1800" d="M10 1008h412l70 -295q55 -237 75 -383h11q29 186 81 387l74 291h344l68 -281q16 -62 78 -393h14q17 132 78 397l63 277h412l-336 -1008h-397l-76 258q-51 179 -78 369h-12q-42 -260 -74 -375l-69 -252h-400zM506 1409l199 211l348 -367l-148 -143z" />
<glyph unicode="&#x1e82;" horiz-adv-x="2160" d="M16 1386l400 -1386h428l112 469q73 300 119 543h8q9 -73 26 -156.5t28.5 -132.5t37 -149.5t33.5 -131.5l107 -442h430l399 1386h-409l-99 -468q-73 -364 -96 -517h-10q-36 203 -113 521l-114 464h-445l-104 -440q-8 -34 -39 -163.5t-49 -216t-31 -177.5h-8 q-9 70 -23.5 150t-25.5 133t-30.5 142t-27.5 130l-94 442h-410zM881 1642l415 287l160 -260l-467 -205z" />
<glyph unicode="&#x1e83;" horiz-adv-x="1800" d="M10 1008h412l70 -295q55 -237 75 -383h11q29 186 81 387l74 291h344l68 -281q16 -62 78 -393h14q17 132 78 397l63 277h412l-336 -1008h-397l-76 258q-51 179 -78 369h-12q-42 -260 -74 -375l-69 -252h-400zM715 1253l348 367l199 -211l-400 -299z" />
<glyph unicode="&#x1e84;" horiz-adv-x="2160" d="M16 1386l400 -1386h428l112 469q73 300 119 543h8q9 -73 26 -156.5t28.5 -132.5t37 -149.5t33.5 -131.5l107 -442h430l399 1386h-409l-99 -468q-73 -364 -96 -517h-10q-36 203 -113 521l-114 464h-445l-104 -440q-8 -34 -39 -163.5t-49 -216t-31 -177.5h-8 q-9 70 -23.5 150t-25.5 133t-30.5 142t-27.5 130l-94 442h-410zM688 1677q0 67 47 114.5t115 47.5t115 -47.5t47 -114.5t-47 -114t-115 -47t-115 47t-47 114zM1139 1677q0 68 47 115t114 47q68 0 115 -47.5t47 -114.5t-47 -114t-115 -47t-114.5 47t-46.5 114z" />
<glyph unicode="&#x1e85;" horiz-adv-x="1800" d="M10 1008h412l70 -295q55 -237 75 -383h11q29 186 81 387l74 291h344l68 -281q16 -62 78 -393h14q17 132 78 397l63 277h412l-336 -1008h-397l-76 258q-51 179 -78 369h-12q-42 -260 -74 -375l-69 -252h-400zM510 1327q0 67 47 114.5t115 47.5t115 -47.5t47 -114.5 t-47 -114.5t-115 -47.5t-115 47.5t-47 114.5zM961 1327q0 68 47 115t114 47q68 0 115 -47.5t47 -114.5t-47 -114.5t-115 -47.5q-67 0 -114 47t-47 115z" />
<glyph unicode="&#x1ef2;" horiz-adv-x="1404" d="M10 1386h402l143 -286q20 -40 40.5 -85.5t32.5 -75.5t34 -85.5t32 -79.5h13q84 208 143 320l156 292h389l-502 -907v-479h-387v467zM346 1663l162 260l426 -295l-121 -170z" />
<glyph unicode="&#x1ef3;" horiz-adv-x="1153" d="M14 1006h377l103 -408q53 -198 71 -315h13q22 134 77 323l113 400h375l-363 -1029q-21 -60 -34.5 -95t-38 -84t-48 -77.5t-60.5 -61t-80.5 -49.5t-103 -28.5t-132.5 -11.5h-174v283h124q73 0 112 21t58 67l29 75h-88zM178 1409l199 211l348 -367l-147 -143z" />
<glyph unicode="&#x1f00;" horiz-adv-x="1284" d="M92 496q0 88 13.5 163.5t45 143.5t79.5 116.5t122 76.5t168 28q211 0 299 -150h10q3 84 39 134h306v-1008h-318q-35 47 -35 141h-12q-36 -50 -77 -83t-85 -47.5t-79 -19.5t-79 -5q-110 0 -188 36t-123 105t-65.5 159t-20.5 210zM442 1485l99 233q129 -41 206.5 -121 t77.5 -198q0 -72 -49 -154t-129 -127l-135 60q76 84 76 170t-146 137zM471 502q0 -51 3.5 -88.5t14 -74.5t28.5 -60t48 -37.5t72 -14.5q87 0 129.5 69t42.5 173v96q0 92 -42.5 146.5t-123.5 54.5q-172 0 -172 -264z" />
<glyph unicode="&#x1f01;" horiz-adv-x="1284" d="M92 496q0 88 13.5 163.5t45 143.5t79.5 116.5t122 76.5t168 28q211 0 299 -150h10q3 84 39 134h306v-1008h-318q-35 47 -35 141h-12q-36 -50 -77 -83t-85 -47.5t-79 -19.5t-79 -5q-110 0 -188 36t-123 105t-65.5 159t-20.5 210zM446 1399q0 118 78 198t207 121l98 -233 q-145 -51 -145 -137t76 -170l-135 -60q-80 45 -129.5 127.5t-49.5 153.5zM471 502q0 -51 3.5 -88.5t14 -74.5t28.5 -60t48 -37.5t72 -14.5q87 0 129.5 69t42.5 173v96q0 92 -42.5 146.5t-123.5 54.5q-172 0 -172 -264z" />
<glyph unicode="&#x1f02;" horiz-adv-x="1284" d="M92 496q0 88 13.5 163.5t45 143.5t79.5 116.5t122 76.5t168 28q211 0 299 -150h10q3 84 39 134h306v-1008h-318q-35 47 -35 141h-12q-36 -50 -77 -83t-85 -47.5t-79 -19.5t-79 -5q-110 0 -188 36t-123 105t-65.5 159t-20.5 210zM182 1477l99 233q129 -41 206.5 -121 t77.5 -198q0 -72 -49 -154t-129 -127l-135 59q76 84 76 170q0 87 -146 138zM471 502q0 -51 3.5 -88.5t14 -74.5t28.5 -60t48 -37.5t72 -14.5q87 0 129.5 69t42.5 173v96q0 92 -42.5 146.5t-123.5 54.5q-172 0 -172 -264zM565 1614l281 112l225 -524l-190 -80z" />
<glyph unicode="&#x1f03;" horiz-adv-x="1284" d="M92 496q0 88 13.5 163.5t45 143.5t79.5 116.5t122 76.5t168 28q211 0 299 -150h10q3 84 39 134h306v-1008h-318q-35 47 -35 141h-12q-36 -50 -77 -83t-85 -47.5t-79 -19.5t-79 -5q-110 0 -188 36t-123 105t-65.5 159t-20.5 210zM215 1395q0 118 78 198t207 121l98 -233 q-145 -51 -145 -138q0 -86 75 -169l-135 -60q-80 45 -129 127t-49 154zM471 502q0 -51 3.5 -88.5t14 -74.5t28.5 -60t48 -37.5t72 -14.5q87 0 129.5 69t42.5 173v96q0 92 -42.5 146.5t-123.5 54.5q-172 0 -172 -264zM608 1612l281 112l225 -524l-190 -80z" />
<glyph unicode="&#x1f04;" horiz-adv-x="1284" d="M92 496q0 88 13.5 163.5t45 143.5t79.5 116.5t122 76.5t168 28q211 0 299 -150h10q3 84 39 134h306v-1008h-318q-35 47 -35 141h-12q-36 -50 -77 -83t-85 -47.5t-79 -19.5t-79 -5q-110 0 -188 36t-123 105t-65.5 159t-20.5 210zM227 1493l99 233q129 -41 206.5 -121 t77.5 -198q0 -72 -49 -154t-129 -127l-135 60q76 84 76 170t-146 137zM471 502q0 -51 3.5 -88.5t14 -74.5t28.5 -60t48 -37.5t72 -14.5q87 0 129.5 69t42.5 173v96q0 92 -42.5 146.5t-123.5 54.5q-172 0 -172 -264zM629 1184l225 524l281 -113l-316 -491z" />
<glyph unicode="&#x1f05;" horiz-adv-x="1284" d="M92 496q0 88 13.5 163.5t45 143.5t79.5 116.5t122 76.5t168 28q211 0 299 -150h10q3 84 39 134h306v-1008h-318q-35 47 -35 141h-12q-36 -50 -77 -83t-85 -47.5t-79 -19.5t-79 -5q-110 0 -188 36t-123 105t-65.5 159t-20.5 210zM258 1405q0 118 78 198t207 121l98 -233 q-145 -51 -145 -137q0 -87 75 -170l-135 -60q-80 45 -129 127t-49 154zM471 502q0 -51 3.5 -88.5t14 -74.5t28.5 -60t48 -37.5t72 -14.5q87 0 129.5 69t42.5 173v96q0 92 -42.5 146.5t-123.5 54.5q-172 0 -172 -264zM625 1178l225 524l280 -113l-315 -491z" />
<glyph unicode="&#x1f06;" horiz-adv-x="1284" d="M92 496q0 88 13.5 163.5t45 143.5t79.5 116.5t122 76.5t168 28q211 0 299 -150h10q3 84 39 134h306v-1008h-318q-35 47 -35 141h-12q-36 -50 -77 -83t-85 -47.5t-79 -19.5t-79 -5q-110 0 -188 36t-123 105t-65.5 159t-20.5 210zM156 1708q44 114 107 167.5t155 53.5 q48 0 157 -38t158 -38q44 0 80 15.5t78 62.5l139 -90q-28 -104 -98 -165.5t-160 -61.5q-55 0 -162 39t-149 39q-26 0 -45.5 -3t-53 -21.5t-61.5 -53.5zM412 1399q78 -20 112.5 -44.5t34.5 -58.5q0 -60 -76 -133l135 -57q75 40 129 110.5t54 129.5t-21.5 104t-63.5 74.5 t-89.5 48t-114.5 33.5zM471 502q0 -51 3.5 -88.5t14 -74.5t28.5 -60t48 -37.5t72 -14.5q87 0 129.5 69t42.5 173v96q0 92 -42.5 146.5t-123.5 54.5q-172 0 -172 -264z" />
<glyph unicode="&#x1f07;" horiz-adv-x="1284" d="M92 496q0 88 13.5 163.5t45 143.5t79.5 116.5t122 76.5t168 28q211 0 299 -150h10q3 84 39 134h306v-1008h-318q-35 47 -35 141h-12q-36 -50 -77 -83t-85 -47.5t-79 -19.5t-79 -5q-110 0 -188 36t-123 105t-65.5 159t-20.5 210zM233 1735q44 114 107.5 167.5t155.5 53.5 q48 0 157 -38t158 -38q44 0 80 15.5t78 62.5l139 -90q-28 -104 -98.5 -166t-159.5 -62q-55 0 -162 39t-149 39q-26 0 -45.5 -3t-53 -21.5t-61.5 -53.5zM459 1343q0 59 21.5 104t63.5 74.5t89.5 48.5t114.5 34l100 -207q-78 -20 -113 -44.5t-35 -58.5q0 -60 76 -133l-135 -57 q-74 40 -128 110t-54 129zM471 502q0 -51 3.5 -88.5t14 -74.5t28.5 -60t48 -37.5t72 -14.5q87 0 129.5 69t42.5 173v96q0 92 -42.5 146.5t-123.5 54.5q-172 0 -172 -264z" />
<glyph unicode="&#x1f08;" horiz-adv-x="1521" d="M-178 1243l98 234q129 -41 207 -121.5t78 -198.5q0 -71 -49 -153t-129 -127l-136 59q76 84 76 170t-145 137zM8 0l539 1391h438l504 -1391h-406l-90 299h-489l-105 -299h-391zM608 571h287l-53 187q-55 190 -74 295h-18q-42 -178 -80 -295z" />
<glyph unicode="&#x1f09;" horiz-adv-x="1521" d="M-203 1161q0 118 78 198.5t207 121.5l98 -234q-145 -51 -145 -137t76 -170l-136 -59q-80 45 -129 127t-49 153zM8 0l539 1391h438l504 -1391h-406l-90 299h-489l-105 -299h-391zM608 571h287l-53 187q-55 190 -74 295h-18q-42 -178 -80 -295z" />
<glyph unicode="&#x1f0a;" horiz-adv-x="1521" d="M-662 1221l99 233q129 -41 206.5 -121t77.5 -198q0 -72 -49 -154t-129 -127l-135 59q76 84 76 170q0 87 -146 138zM-279 1358l281 112l225 -524l-190 -80zM8 0l539 1391h438l504 -1391h-406l-90 299h-489l-105 -299h-391zM608 571h287l-53 187q-55 190 -74 295h-18 q-42 -178 -80 -295z" />
<glyph unicode="&#x1f0b;" horiz-adv-x="1521" d="M-657 1151q0 118 77.5 198t206.5 121l99 -233q-146 -51 -146 -137t76 -170l-135 -60q-80 45 -129 127t-49 154zM-264 1368l280 113l226 -525l-191 -79zM8 0l539 1391h438l504 -1391h-406l-90 299h-489l-105 -299h-391zM608 571h287l-53 187q-55 190 -74 295h-18 q-42 -178 -80 -295z" />
<glyph unicode="&#x1f0c;" horiz-adv-x="1521" d="M-616 1219l98 233q129 -41 207 -121t78 -198q0 -71 -49.5 -153.5t-129.5 -127.5l-135 59q76 84 76 170q0 87 -145 138zM-215 909l225 525l281 -113l-316 -492zM8 0l539 1391h438l504 -1391h-406l-90 299h-489l-105 -299h-391zM608 571h287l-53 187q-55 190 -74 295h-18 q-42 -178 -80 -295z" />
<glyph unicode="&#x1f0d;" horiz-adv-x="1521" d="M-575 1137q0 118 77.5 198t206.5 121l98 -233q-145 -51 -145 -138q0 -86 76 -170l-135 -59q-80 45 -129 127t-49 154zM-209 909l225 525l281 -113l-315 -492zM8 0l539 1391h438l504 -1391h-406l-90 299h-489l-105 -299h-391zM608 571h287l-53 187q-55 190 -74 295h-18 q-42 -178 -80 -295z" />
<glyph unicode="&#x1f0e;" horiz-adv-x="1521" d="M-530 1290q44 114 107 167.5t155 53.5q48 0 157 -37.5t158 -37.5q44 0 80 15t78 62l139 -90q-28 -104 -98 -165.5t-160 -61.5q-55 0 -162 39t-149 39q-26 0 -45.5 -3t-53 -21.5t-61.5 -53.5zM-274 981q78 -20 112.5 -44t34.5 -58q0 -61 -76 -134l135 -57q75 40 129 110.5 t54 129.5t-21.5 104t-63.5 74.5t-89.5 48t-114.5 33.5zM8 0l539 1391h438l504 -1391h-406l-90 299h-489l-105 -299h-391zM608 571h287l-53 187q-55 190 -74 295h-18q-42 -178 -80 -295z" />
<glyph unicode="&#x1f0f;" horiz-adv-x="1521" d="M-514 1274q44 114 107 167.5t155 53.5q48 0 157 -38t158 -38q44 0 80 15.5t78 62.5l139 -90q-28 -104 -98 -165.5t-160 -61.5q-55 0 -162 38.5t-149 38.5q-27 0 -46 -2.5t-52.5 -21t-61.5 -53.5zM-289 883q0 59 21.5 104t63.5 74.5t89.5 48t114.5 33.5l100 -207 q-78 -20 -112.5 -44t-34.5 -58q0 -61 76 -134l-135 -57q-75 40 -129 110.5t-54 129.5zM8 0l539 1391h438l504 -1391h-406l-90 299h-489l-105 -299h-391zM608 571h287l-53 187q-55 190 -74 295h-18q-42 -178 -80 -295z" />
<glyph unicode="&#x1f10;" horiz-adv-x="1089" d="M82 289q0 36 10 71t46.5 77.5t97.5 66.5v12q-142 55 -142 195q0 61 27.5 116t82 101t147 73t210.5 27q66 0 127 -10.5t117.5 -33.5t98.5 -57t68.5 -84.5t28.5 -111.5q0 -45 -4 -74h-319q-6 67 -35.5 91t-81.5 24q-42 0 -71 -24.5t-29 -63.5q0 -74 96 -74h88v-196h-90 q-57 0 -84 -25.5t-27 -62.5q0 -38 28.5 -62t88.5 -24q134 0 144 131h335q4 -40 4 -58q0 -162 -122 -245.5t-359 -83.5q-246 0 -363.5 83t-117.5 222zM352 1485l99 233q129 -41 206.5 -121t77.5 -198q0 -72 -49 -154t-129 -127l-135 60q76 84 76 170t-146 137z" />
<glyph unicode="&#x1f11;" horiz-adv-x="1089" d="M82 289q0 -139 117.5 -222t363.5 -83q237 0 359 83.5t122 245.5q0 18 -4 58h-335q-10 -131 -144 -131q-60 0 -88.5 24t-28.5 62q0 37 27 62.5t84 25.5h90v196h-88q-96 0 -96 74q0 39 29 63.5t71 24.5q52 0 81.5 -24t35.5 -91h319q4 29 4 74q-2 61 -28.5 111.5t-68.5 84.5 t-98.5 57t-117.5 33.5t-127 10.5q-118 0 -210.5 -27t-147 -73t-82 -101t-27.5 -116q0 -140 142 -195v-12q-61 -24 -97.5 -66.5t-46.5 -77.5t-10 -71zM383 1399q0 118 78 198t207 121l98 -233q-145 -51 -145 -137q0 -87 75 -170l-135 -60q-80 45 -129 127t-49 154z" />
<glyph unicode="&#x1f12;" horiz-adv-x="1089" d="M82 289q0 36 10 71t46.5 77.5t97.5 66.5v12q-142 55 -142 195q0 61 27.5 116t82 101t147 73t210.5 27q66 0 127 -10.5t117.5 -33.5t98.5 -57t68.5 -84.5t28.5 -111.5q0 -45 -4 -74h-319q-6 67 -35.5 91t-81.5 24q-42 0 -71 -24.5t-29 -63.5q0 -74 96 -74h88v-196h-90 q-57 0 -84 -25.5t-27 -62.5q0 -38 28.5 -62t88.5 -24q134 0 144 131h335q4 -40 4 -58q0 -162 -122 -245.5t-359 -83.5q-246 0 -363.5 83t-117.5 222zM106 1477l99 233q129 -41 206.5 -121t77.5 -198q0 -72 -49 -154t-129 -127l-135 59q76 84 76 170q0 87 -146 138zM489 1614 l281 112l225 -524l-190 -80z" />
<glyph unicode="&#x1f13;" horiz-adv-x="1089" d="M82 289q0 36 10 71t46.5 77.5t97.5 66.5v12q-142 55 -142 195q0 61 27.5 116t82 101t147 73t210.5 27q66 0 127 -10.5t117.5 -33.5t98.5 -57t68.5 -84.5t28.5 -111.5q0 -45 -4 -74h-319q-6 67 -35.5 91t-81.5 24q-42 0 -71 -24.5t-29 -63.5q0 -74 96 -74h88v-196h-90 q-57 0 -84 -25.5t-27 -62.5q0 -38 28.5 -62t88.5 -24q134 0 144 131h335q4 -40 4 -58q0 -162 -122 -245.5t-359 -83.5q-246 0 -363.5 83t-117.5 222zM109 1395q0 118 77.5 198t206.5 121l99 -233q-146 -51 -146 -138q0 -85 76 -169l-135 -60q-80 45 -129 127t-49 154z M502 1612l280 112l226 -524l-191 -80z" />
<glyph unicode="&#x1f14;" horiz-adv-x="1089" d="M82 289q0 36 10 71t46.5 77.5t97.5 66.5v12q-142 55 -142 195q0 61 27.5 116t82 101t147 73t210.5 27q66 0 127 -10.5t117.5 -33.5t98.5 -57t68.5 -84.5t28.5 -111.5q0 -45 -4 -74h-319q-6 67 -35.5 91t-81.5 24q-42 0 -71 -24.5t-29 -63.5q0 -74 96 -74h88v-196h-90 q-57 0 -84 -25.5t-27 -62.5q0 -38 28.5 -62t88.5 -24q134 0 144 131h335q4 -40 4 -58q0 -162 -122 -245.5t-359 -83.5q-246 0 -363.5 83t-117.5 222zM160 1493l98 233q129 -41 207 -121t78 -198q0 -72 -49 -154t-129 -127l-136 60q76 84 76 170t-145 137zM561 1184l225 524 l281 -113l-315 -491z" />
<glyph unicode="&#x1f15;" horiz-adv-x="1089" d="M82 289q0 -139 117.5 -222t363.5 -83q237 0 359 83.5t122 245.5q0 18 -4 58h-335q-10 -131 -144 -131q-60 0 -88.5 24t-28.5 62q0 37 27 62.5t84 25.5h90v196h-88q-96 0 -96 74q0 39 29 63.5t71 24.5q52 0 81.5 -24t35.5 -91h319q4 29 4 74q-2 61 -28.5 111.5t-68.5 84.5 t-98.5 57t-117.5 33.5t-127 10.5q-118 0 -210.5 -27t-147 -73t-82 -101t-27.5 -116q0 -140 142 -195v-12q-61 -24 -97.5 -66.5t-46.5 -77.5t-10 -71zM168 1405q0 118 78 198t207 121l98 -233q-145 -51 -145 -137q0 -87 75 -170l-135 -60q-80 45 -129 127t-49 154zM535 1178 l225 524l280 -113l-315 -491z" />
<glyph unicode="&#x1f18;" horiz-adv-x="1318" d="M-403 1212l98 234q129 -41 207 -121.5t78 -198.5q0 -71 -49.5 -153t-129.5 -127l-135 59q76 84 76 170t-145 137zM129 0v1386h1077v-286h-690v-238h629v-284h-629v-293h707v-285h-1094z" />
<glyph unicode="&#x1f19;" horiz-adv-x="1318" d="M-379 1135q0 118 78 198t207 121l98 -233q-145 -51 -145 -138t75 -170l-135 -59q-80 45 -129 127t-49 154zM129 0v1386h1077v-286h-690v-238h629v-284h-629v-293h707v-285h-1094z" />
<glyph unicode="&#x1f1a;" horiz-adv-x="1318" d="M-803 1227l98 233q129 -41 207 -121t78 -198q0 -72 -49 -154t-129 -127l-135 60q76 84 76 170t-146 137zM-420 1364l281 113l225 -525l-190 -80zM129 0v1386h1077v-286h-690v-238h629v-284h-629v-293h707v-285h-1094z" />
<glyph unicode="&#x1f1b;" horiz-adv-x="1318" d="M-834 1147q0 118 78 198t207 121l98 -233q-145 -51 -145 -137t76 -170l-135 -60q-80 45 -129.5 127.5t-49.5 153.5zM-440 1364l280 113l226 -525l-191 -80zM129 0v1386h1077v-286h-690v-238h629v-284h-629v-293h707v-285h-1094z" />
<glyph unicode="&#x1f1c;" horiz-adv-x="1318" d="M-842 1233l99 233q129 -41 206.5 -121t77.5 -198q0 -72 -49 -154t-129 -127l-135 60q76 84 76 170t-146 137zM-440 924l225 524l281 -113l-316 -491zM129 0v1386h1077v-286h-690v-238h629v-284h-629v-293h707v-285h-1094z" />
<glyph unicode="&#x1f1d;" horiz-adv-x="1318" d="M-782 1139q0 118 77.5 198t206.5 121l99 -233q-146 -51 -146 -138q0 -85 76 -169l-135 -60q-80 45 -129 127t-49 154zM-416 911l226 525l280 -113l-315 -492zM129 0v1386h1077v-286h-690v-238h629v-284h-629v-293h707v-285h-1094z" />
<glyph unicode="&#x1f20;" horiz-adv-x="1261" d="M106 0v1006h328q41 -51 41 -156h10q104 170 322 170q190 0 269 -95t79 -282v-643h-377v600q0 79 -30 120.5t-101 41.5q-50 0 -84 -20t-49.5 -53.5t-21 -62.5t-5.5 -61v-565h-381zM381 1485l98 233q129 -41 207 -121t78 -198q0 -72 -49 -154t-129 -127l-135 60 q75 83 75 170q0 86 -145 137z" />
<glyph unicode="&#x1f21;" horiz-adv-x="1261" d="M106 0v1006h328q41 -51 41 -156h10q104 170 322 170q190 0 269 -95t79 -282v-643h-377v600q0 79 -30 120.5t-101 41.5q-50 0 -84 -20t-49.5 -53.5t-21 -62.5t-5.5 -61v-565h-381zM383 1399q0 118 78 198t207 121l98 -233q-145 -51 -145 -137q0 -87 75 -170l-135 -60 q-80 45 -129 127t-49 154z" />
<glyph unicode="&#x1f22;" horiz-adv-x="1261" d="M106 0v1006h328q41 -51 41 -156h10q104 170 322 170q190 0 269 -95t79 -282v-643h-377v600q0 79 -30 120.5t-101 41.5q-50 0 -84 -20t-49.5 -53.5t-21 -62.5t-5.5 -61v-565h-381zM164 1477l98 233q129 -41 207 -121t78 -198q0 -72 -49 -154t-129 -127l-136 59 q76 84 76 170q0 87 -145 138zM547 1614l280 112l226 -524l-191 -80z" />
<glyph unicode="&#x1f23;" horiz-adv-x="1261" d="M106 0v1006h328q41 -51 41 -156h10q104 170 322 170q190 0 269 -95t79 -282v-643h-377v600q0 79 -30 120.5t-101 41.5q-50 0 -84 -20t-49.5 -53.5t-21 -62.5t-5.5 -61v-565h-381zM168 1395q0 118 78 198t207 121l98 -233q-145 -51 -145 -138q0 -86 75 -169l-135 -60 q-80 45 -129 127t-49 154zM561 1612l281 112l225 -524l-190 -80z" />
<glyph unicode="&#x1f24;" horiz-adv-x="1261" d="M106 0v1006h328q41 -51 41 -156h10q104 170 322 170q190 0 269 -95t79 -282v-643h-377v600q0 79 -30 120.5t-101 41.5q-50 0 -84 -20t-49.5 -53.5t-21 -62.5t-5.5 -61v-565h-381zM182 1493l99 233q129 -41 206.5 -121t77.5 -198q0 -72 -49 -154t-129 -127l-135 60 q76 84 76 170t-146 137zM584 1184l225 524l281 -113l-316 -491z" />
<glyph unicode="&#x1f25;" horiz-adv-x="1261" d="M106 0v1006h328q41 -51 41 -156h10q104 170 322 170q190 0 269 -95t79 -282v-643h-377v600q0 79 -30 120.5t-101 41.5q-50 0 -84 -20t-49.5 -53.5t-21 -62.5t-5.5 -61v-565h-381zM205 1405q0 118 77.5 198t206.5 121l99 -233q-146 -51 -146 -137t76 -170l-135 -60 q-80 45 -129 127t-49 154zM571 1178l226 524l280 -113l-315 -491z" />
<glyph unicode="&#x1f26;" horiz-adv-x="1261" d="M106 0v1006h328q41 -51 41 -156h10q104 170 322 170q190 0 269 -95t79 -282v-643h-377v600q0 79 -30 120.5t-101 41.5q-50 0 -84 -20t-49.5 -53.5t-21 -62.5t-5.5 -61v-565h-381zM135 1708q44 114 107 167.5t155 53.5q48 0 157.5 -38t158.5 -38q44 0 79.5 15.5t77.5 62.5 l140 -90q-28 -104 -98 -165.5t-160 -61.5q-55 0 -162.5 39t-149.5 39q-26 0 -45 -3t-52.5 -21.5t-61.5 -53.5zM391 1399q78 -20 113 -44.5t35 -58.5q0 -60 -76 -133l135 -57q74 40 128 110.5t54 129.5q0 48 -15 86.5t-39.5 65t-62.5 48t-78 35t-93 25.5z" />
<glyph unicode="&#x1f27;" horiz-adv-x="1261" d="M106 0v1006h328q41 -51 41 -156h10q104 170 322 170q190 0 269 -95t79 -282v-643h-377v600q0 79 -30 120.5t-101 41.5q-50 0 -84 -20t-49.5 -53.5t-21 -62.5t-5.5 -61v-565h-381zM184 1733q44 114 107 167.5t155 53.5q48 0 157.5 -38t158.5 -38q44 0 80 15.5t78 62.5 l139 -90q-28 -104 -98.5 -166t-159.5 -62q-55 0 -162.5 39t-149.5 39q-26 0 -45 -3t-52.5 -21.5t-61.5 -53.5zM410 1341q0 59 21.5 104t63 74.5t89.5 48.5t114 34l101 -207q-78 -20 -113 -44.5t-35 -58.5q0 -60 76 -133l-135 -57q-74 40 -128 110t-54 129z" />
<glyph unicode="&#x1f28;" horiz-adv-x="1568" d="M-410 1249l99 234q129 -41 206.5 -121.5t77.5 -198.5q0 -71 -49 -153t-129 -127l-135 59q76 84 76 170t-146 137zM129 0v1389h387v-527h535v527h389v-1389h-389v575h-535v-575h-387z" />
<glyph unicode="&#x1f29;" horiz-adv-x="1568" d="M-383 1163q0 118 78 198.5t207 121.5l98 -234q-145 -51 -145 -137q0 -87 75 -170l-135 -59q-80 45 -129 127t-49 153zM129 0v1389h387v-527h535v527h389v-1389h-389v575h-535v-575h-387z" />
<glyph unicode="&#x1f2a;" horiz-adv-x="1568" d="M-823 1227l98 233q129 -41 207 -121t78 -198q0 -72 -49 -154t-129 -127l-136 60q76 84 76 170t-145 137zM-440 1364l280 113l226 -525l-191 -80zM129 0v1389h387v-527h535v527h389v-1389h-389v575h-535v-575h-387z" />
<glyph unicode="&#x1f2b;" horiz-adv-x="1568" d="M-840 1149q0 118 78 198t207 121l98 -233q-145 -51 -145 -137t76 -170l-136 -60q-80 45 -129 127t-49 154zM-446 1366l280 113l225 -525l-190 -80zM129 0v1389h387v-527h535v527h389v-1389h-389v575h-535v-575h-387z" />
<glyph unicode="&#x1f2c;" horiz-adv-x="1568" d="M-850 1233l98 233q129 -41 207 -121t78 -198q0 -72 -49 -154t-129 -127l-135 60q75 83 75 170q0 86 -145 137zM-449 924l226 524l280 -113l-315 -491zM129 0v1389h387v-527h535v527h389v-1389h-389v575h-535v-575h-387z" />
<glyph unicode="&#x1f2d;" horiz-adv-x="1568" d="M-825 1141q0 118 77.5 198t206.5 121l99 -233q-146 -51 -146 -137t76 -170l-135 -60q-80 45 -129 127t-49 154zM-459 913l226 525l280 -113l-315 -491zM129 0v1389h387v-527h535v527h389v-1389h-389v575h-535v-575h-387z" />
<glyph unicode="&#x1f2e;" horiz-adv-x="1568" d="M-852 1288q44 114 107 167.5t155 53.5q48 0 157.5 -37.5t158.5 -37.5q44 0 79.5 15t77.5 62l140 -90q-28 -104 -98.5 -165.5t-160.5 -61.5q-55 0 -162 39t-149 39q-26 0 -45.5 -3t-53 -21.5t-61.5 -53.5zM-596 979q78 -20 112.5 -44t34.5 -58q0 -62 -75 -134l135 -57 q74 40 128 110.5t54 129.5t-21.5 104t-63.5 74.5t-89.5 48t-114.5 33.5zM129 0v1389h387v-527h535v527h389v-1389h-389v575h-535v-575h-387z" />
<glyph unicode="&#x1f2f;" horiz-adv-x="1568" d="M-862 1280q44 114 107 167.5t155 53.5q48 0 157 -38t158 -38q44 0 80 15.5t78 62.5l139 -90q-28 -104 -98 -165.5t-160 -61.5q-55 0 -162 39t-149 39q-26 0 -45.5 -3t-53 -21.5t-61.5 -53.5zM-637 889q0 59 21.5 104t63.5 74.5t89.5 48t114.5 33.5l100 -207 q-78 -20 -112.5 -44t-34.5 -58q0 -60 76 -133l-136 -58q-74 40 -128 110.5t-54 129.5zM129 0v1389h387v-527h535v527h389v-1389h-389v575h-535v-575h-387z" />
<glyph unicode="&#x1f30;" horiz-adv-x="661" d="M127 1485l98 233q129 -41 207 -121t78 -198q0 -72 -49 -154t-129 -127l-135 60q75 83 75 170q0 86 -145 137zM141 0v1006h373v-1006h-373z" />
<glyph unicode="&#x1f31;" horiz-adv-x="661" d="M119 1399q0 118 77.5 198t206.5 121l99 -233q-146 -51 -146 -137t76 -170l-135 -60q-80 45 -129 127t-49 154zM141 0v1006h373v-1006h-373z" />
<glyph unicode="&#x1f32;" horiz-adv-x="661" d="M-141 1477l98 233q129 -41 207 -121t78 -198q0 -71 -49.5 -153.5t-129.5 -127.5l-135 59q76 84 76 170q0 87 -145 138zM141 0v1006h373v-1006h-373zM242 1614l280 112l226 -524l-191 -80z" />
<glyph unicode="&#x1f33;" horiz-adv-x="661" d="M-131 1399q0 118 78 198t207 121l98 -233q-146 -51 -146 -137t76 -170l-135 -60q-80 45 -129 127t-49 154zM141 0v1006h373v-1006h-373zM262 1616l281 113l225 -525l-190 -80z" />
<glyph unicode="&#x1f34;" horiz-adv-x="661" d="M-35 1493l98 233q129 -41 207 -121t78 -198q0 -72 -49 -154t-129 -127l-135 60q76 84 76 170t-146 137zM141 0v1006h373v-1006h-373zM367 1184l225 524l280 -113l-315 -491z" />
<glyph unicode="&#x1f35;" horiz-adv-x="661" d="M-49 1405q0 118 78 198t207 121l98 -233q-146 -51 -146 -137t76 -170l-135 -60q-80 45 -129 127t-49 154zM141 0v1006h373v-1006h-373zM317 1178l226 524l280 -113l-315 -491z" />
<glyph unicode="&#x1f36;" horiz-adv-x="661" d="M-131 1708q44 114 107 167.5t155 53.5q48 0 157 -38t158 -38q44 0 80 15.5t78 62.5l139 -90q-28 -104 -98 -165.5t-160 -61.5q-55 0 -162 39t-149 39q-26 0 -45.5 -3t-53 -21.5t-61.5 -53.5zM125 1399q78 -20 112.5 -44.5t34.5 -58.5q0 -61 -75 -133l135 -57 q74 40 128 110.5t54 129.5t-21.5 104t-63.5 74.5t-89.5 48t-114.5 33.5zM141 0v1006h373v-1006h-373z" />
<glyph unicode="&#x1f37;" horiz-adv-x="661" d="M-119 1735q44 114 107 167.5t155 53.5q48 0 157.5 -38t158.5 -38q44 0 79.5 15.5t77.5 62.5l140 -90q-28 -104 -98.5 -166t-159.5 -62q-55 0 -162.5 39t-149.5 39q-26 0 -45 -3t-52.5 -21.5t-61.5 -53.5zM106 1343q0 59 21.5 104t63.5 74.5t89.5 48.5t114.5 34l101 -207 q-78 -20 -113 -44.5t-35 -58.5q0 -60 76 -133l-135 -57q-75 40 -129 110t-54 129zM141 0v1006h373v-1006h-373z" />
<glyph unicode="&#x1f38;" horiz-adv-x="667" d="M-371 1249l99 234q129 -41 206.5 -121.5t77.5 -198.5q0 -71 -49 -153t-129 -127l-135 59q76 84 76 170t-146 137zM139 0v1386h389v-1386h-389z" />
<glyph unicode="&#x1f39;" horiz-adv-x="667" d="M-371 1163q0 118 78 198.5t207 121.5l98 -234q-145 -51 -145 -137t76 -170l-136 -59q-80 45 -129 127t-49 153zM139 0v1386h389v-1386h-389z" />
<glyph unicode="&#x1f3a;" horiz-adv-x="667" d="M-797 1233l99 233q129 -41 206.5 -121t77.5 -198q0 -72 -49 -154t-129 -127l-135 60q76 84 76 170t-146 137zM-414 1370l281 113l225 -525l-190 -79zM139 0v1386h389v-1386h-389z" />
<glyph unicode="&#x1f3b;" horiz-adv-x="667" d="M-805 1153q0 118 78 198.5t207 121.5l98 -234q-145 -51 -145 -137q0 -87 75 -170l-135 -60q-80 45 -129 127t-49 154zM-412 1370l281 113l225 -525l-190 -79zM139 0v1386h389v-1386h-389z" />
<glyph unicode="&#x1f3c;" horiz-adv-x="667" d="M-793 1233l99 233q129 -41 206.5 -121t77.5 -198q0 -72 -49 -154t-129 -127l-135 60q76 84 76 170t-146 137zM-391 924l225 524l281 -113l-316 -491zM139 0v1386h389v-1386h-389z" />
<glyph unicode="&#x1f3d;" horiz-adv-x="667" d="M-782 1128q0 118 77.5 198.5t206.5 121.5l99 -234q-146 -51 -146 -137t76 -170l-135 -59q-80 45 -129 127t-49 153zM-416 901l226 524l280 -112l-315 -492zM139 0v1386h389v-1386h-389z" />
<glyph unicode="&#x1f3e;" horiz-adv-x="667" d="M-815 1284q44 114 107 167.5t155 53.5q48 0 157 -37.5t158 -37.5q44 0 80 15t78 62l139 -90q-28 -104 -98 -165.5t-160 -61.5q-55 0 -162 39t-149 39q-26 0 -45.5 -3t-53 -21.5t-61.5 -53.5zM-559 975q78 -20 112.5 -44.5t34.5 -58.5q0 -61 -75 -133l135 -57 q74 40 128 110.5t54 129.5t-21.5 104t-63.5 74.5t-89.5 48t-114.5 33.5zM139 0v1386h389v-1386h-389z" />
<glyph unicode="&#x1f3f;" horiz-adv-x="667" d="M-817 1266q44 114 107 167.5t155 53.5q48 0 157 -38t158 -38q44 0 80 15.5t78 62.5l139 -90q-28 -104 -98.5 -166t-159.5 -62q-55 0 -162 39t-149 39q-26 0 -45.5 -3t-53 -21.5t-61.5 -53.5zM-592 874q0 59 21.5 104t63.5 74.5t89.5 48.5t114.5 34l100 -207 q-78 -20 -112.5 -44.5t-34.5 -58.5q0 -60 76 -133l-136 -57q-74 40 -128 110t-54 129zM139 0v1386h389v-1386h-389z" />
<glyph unicode="&#x1f40;" horiz-adv-x="1308" d="M96 500q0 111 32 203.5t97.5 165.5t175.5 114t256 41q127 0 225.5 -30t159.5 -78.5t100.5 -118t54.5 -141t15 -154.5q0 -78 -15.5 -148.5t-55.5 -139t-101 -118t-159 -80t-224 -30.5q-561 0 -561 514zM449 1485l98 233q129 -41 206.5 -121t77.5 -198q0 -72 -49 -154 t-129 -127l-135 60q76 84 76 170t-145 137zM467 500q0 -269 186 -269q88 0 136.5 68t48.5 203q0 270 -185 270q-186 0 -186 -272z" />
<glyph unicode="&#x1f41;" horiz-adv-x="1308" d="M96 500q0 111 32 203.5t97.5 165.5t175.5 114t256 41q127 0 225.5 -30t159.5 -78.5t100.5 -118t54.5 -141t15 -154.5q0 -78 -15.5 -148.5t-55.5 -139t-101 -118t-159 -80t-224 -30.5q-561 0 -561 514zM451 1399q0 118 77.5 198t206.5 121l99 -233q-146 -51 -146 -137 t76 -170l-135 -60q-80 45 -129 127t-49 154zM467 500q0 -269 186 -269q88 0 136.5 68t48.5 203q0 270 -185 270q-186 0 -186 -272z" />
<glyph unicode="&#x1f42;" horiz-adv-x="1308" d="M96 500q0 111 32 203.5t97.5 165.5t175.5 114t256 41q127 0 225.5 -30t159.5 -78.5t100.5 -118t54.5 -141t15 -154.5q0 -78 -15.5 -148.5t-55.5 -139t-101 -118t-159 -80t-224 -30.5q-561 0 -561 514zM188 1477l99 233q129 -41 206.5 -121t77.5 -198q0 -72 -49 -154 t-129 -127l-135 59q76 84 76 170q0 87 -146 138zM467 500q0 -269 186 -269q88 0 136.5 68t48.5 203q0 270 -185 270q-186 0 -186 -272zM571 1614l281 112l225 -524l-190 -80z" />
<glyph unicode="&#x1f43;" horiz-adv-x="1308" d="M96 500q0 111 32 203.5t97.5 165.5t175.5 114t256 41q127 0 225.5 -30t159.5 -78.5t100.5 -118t54.5 -141t15 -154.5q0 -78 -15.5 -148.5t-55.5 -139t-101 -118t-159 -80t-224 -30.5q-561 0 -561 514zM195 1395q0 118 77.5 198t206.5 121l99 -233q-146 -51 -146 -138 q0 -85 76 -169l-135 -60q-80 45 -129 127t-49 154zM467 500q0 -269 186 -269q88 0 136.5 68t48.5 203q0 270 -185 270q-186 0 -186 -272zM588 1612l280 112l226 -524l-191 -80z" />
<glyph unicode="&#x1f44;" horiz-adv-x="1308" d="M96 500q0 111 32 203.5t97.5 165.5t175.5 114t256 41q127 0 225.5 -30t159.5 -78.5t100.5 -118t54.5 -141t15 -154.5q0 -78 -15.5 -148.5t-55.5 -139t-101 -118t-159 -80t-224 -30.5q-561 0 -561 514zM272 1493l99 233q129 -41 206.5 -121t77.5 -198q0 -72 -49 -154 t-129 -127l-135 60q76 84 76 170t-146 137zM467 500q0 -269 186 -269q88 0 136.5 68t48.5 203q0 270 -185 270q-186 0 -186 -272zM674 1184l225 524l281 -113l-316 -491z" />
<glyph unicode="&#x1f45;" horiz-adv-x="1308" d="M96 500q0 111 32 203.5t97.5 165.5t175.5 114t256 41q127 0 225.5 -30t159.5 -78.5t100.5 -118t54.5 -141t15 -154.5q0 -78 -15.5 -148.5t-55.5 -139t-101 -118t-159 -80t-224 -30.5q-561 0 -561 514zM270 1405q0 118 78 198t207 121l98 -233q-145 -51 -145 -137t76 -170 l-135 -60q-80 45 -129.5 127.5t-49.5 153.5zM467 500q0 -269 186 -269q88 0 136.5 68t48.5 203q0 270 -185 270q-186 0 -186 -272zM637 1178l225 524l281 -113l-316 -491z" />
<glyph unicode="&#x1f48;" horiz-adv-x="1658" d="M-334 1214l98 234q129 -41 207 -121.5t78 -198.5q0 -71 -49 -153t-129 -127l-135 59q76 84 76 170t-146 137zM106 676q0 122 25 228t81 199.5t139.5 160t207 105t277.5 38.5q161 0 287.5 -43t205 -113t130 -167t71.5 -196t20 -210q0 -70 -10.5 -137.5t-35 -137.5 t-62 -130.5t-95 -114.5t-129.5 -92t-170.5 -60t-213.5 -22q-163 0 -289.5 36.5t-208 98.5t-134 151.5t-74.5 189t-22 216.5zM506 682q0 -208 81 -316t244 -108q148 0 232 112.5t84 313.5q0 93 -17.5 170t-53.5 139.5t-98.5 97.5t-146.5 35q-96 0 -161.5 -33t-100.5 -96.5 t-49 -138.5t-14 -176z" />
<glyph unicode="&#x1f49;" horiz-adv-x="1658" d="M-326 1120q0 118 78 198.5t207 121.5l98 -234q-145 -51 -145 -137t76 -170l-135 -59q-80 45 -129.5 127t-49.5 153zM106 676q0 122 25 228t81 199.5t139.5 160t207 105t277.5 38.5q161 0 287.5 -43t205 -113t130 -167t71.5 -196t20 -210q0 -70 -10.5 -137.5t-35 -137.5 t-62 -130.5t-95 -114.5t-129.5 -92t-170.5 -60t-213.5 -22q-163 0 -289.5 36.5t-208 98.5t-134 151.5t-74.5 189t-22 216.5zM506 682q0 -208 81 -316t244 -108q148 0 232 112.5t84 313.5q0 93 -17.5 170t-53.5 139.5t-98.5 97.5t-146.5 35q-96 0 -161.5 -33t-100.5 -96.5 t-49 -138.5t-14 -176z" />
<glyph unicode="&#x1f4a;" horiz-adv-x="1658" d="M-827 1202l98 234q129 -41 207 -121.5t78 -198.5q0 -71 -49.5 -153t-129.5 -127l-135 59q76 84 76 170t-145 137zM-444 1339l280 113l225 -524l-190 -80zM106 676q0 122 25 228t81 199.5t139.5 160t207 105t277.5 38.5q161 0 287.5 -43t205 -113t130 -167t71.5 -196 t20 -210q0 -70 -10.5 -137.5t-35 -137.5t-62 -130.5t-95 -114.5t-129.5 -92t-170.5 -60t-213.5 -22q-163 0 -289.5 36.5t-208 98.5t-134 151.5t-74.5 189t-22 216.5zM506 682q0 -208 81 -316t244 -108q148 0 232 112.5t84 313.5q0 93 -17.5 170t-53.5 139.5t-98.5 97.5 t-146.5 35q-96 0 -161.5 -33t-100.5 -96.5t-49 -138.5t-14 -176z" />
<glyph unicode="&#x1f4b;" horiz-adv-x="1658" d="M-844 1135q0 118 78 198t207 121l98 -233q-145 -51 -145 -138q0 -86 76 -170l-136 -59q-80 45 -129 127t-49 154zM-451 1352l281 112l225 -524l-190 -80zM106 676q0 122 25 228t81 199.5t139.5 160t207 105t277.5 38.5q161 0 287.5 -43t205 -113t130 -167t71.5 -196 t20 -210q0 -70 -10.5 -137.5t-35 -137.5t-62 -130.5t-95 -114.5t-129.5 -92t-170.5 -60t-213.5 -22q-163 0 -289.5 36.5t-208 98.5t-134 151.5t-74.5 189t-22 216.5zM506 682q0 -208 81 -316t244 -108q148 0 232 112.5t84 313.5q0 93 -17.5 170t-53.5 139.5t-98.5 97.5 t-146.5 35q-96 0 -161.5 -33t-100.5 -96.5t-49 -138.5t-14 -176z" />
<glyph unicode="&#x1f4c;" horiz-adv-x="1658" d="M-776 1239l98 234q129 -41 207 -121.5t78 -198.5q0 -72 -49 -154t-129 -127l-136 60q76 84 76 170t-145 137zM-375 930l225 524l281 -113l-315 -491zM106 676q0 122 25 228t81 199.5t139.5 160t207 105t277.5 38.5q161 0 287.5 -43t205 -113t130 -167t71.5 -196t20 -210 q0 -70 -10.5 -137.5t-35 -137.5t-62 -130.5t-95 -114.5t-129.5 -92t-170.5 -60t-213.5 -22q-163 0 -289.5 36.5t-208 98.5t-134 151.5t-74.5 189t-22 216.5zM506 682q0 -208 81 -316t244 -108q148 0 232 112.5t84 313.5q0 93 -17.5 170t-53.5 139.5t-98.5 97.5t-146.5 35 q-96 0 -161.5 -33t-100.5 -96.5t-49 -138.5t-14 -176z" />
<glyph unicode="&#x1f4d;" horiz-adv-x="1658" d="M-729 1149q0 118 78 198t207 121l98 -233q-146 -51 -146 -137t76 -170l-135 -60q-80 45 -129 127t-49 154zM-362 922l225 524l280 -113l-315 -491zM106 676q0 122 25 228t81 199.5t139.5 160t207 105t277.5 38.5q161 0 287.5 -43t205 -113t130 -167t71.5 -196t20 -210 q0 -70 -10.5 -137.5t-35 -137.5t-62 -130.5t-95 -114.5t-129.5 -92t-170.5 -60t-213.5 -22q-163 0 -289.5 36.5t-208 98.5t-134 151.5t-74.5 189t-22 216.5zM506 682q0 -208 81 -316t244 -108q148 0 232 112.5t84 313.5q0 93 -17.5 170t-53.5 139.5t-98.5 97.5t-146.5 35 q-96 0 -161.5 -33t-100.5 -96.5t-49 -138.5t-14 -176z" />
<glyph unicode="&#x1f50;" horiz-adv-x="1234" d="M102 401v605h381v-600q0 -173 133 -173q71 0 107.5 39.5t36.5 133.5v600h373v-605q0 -203 -142.5 -308t-378.5 -105q-238 0 -374 104.5t-136 308.5zM432 1485l98 233q129 -41 207 -121t78 -198q0 -72 -49 -154t-129 -127l-135 60q76 84 76 170t-146 137z" />
<glyph unicode="&#x1f51;" horiz-adv-x="1234" d="M102 401v605h381v-600q0 -173 133 -173q71 0 107.5 39.5t36.5 133.5v600h373v-605q0 -203 -142.5 -308t-378.5 -105q-238 0 -374 104.5t-136 308.5zM432 1399q0 118 78 198t207 121l98 -233q-145 -51 -145 -137q0 -87 75 -170l-135 -60q-80 45 -129 127t-49 154z" />
<glyph unicode="&#x1f52;" horiz-adv-x="1234" d="M102 401v605h381v-600q0 -173 133 -173q71 0 107.5 39.5t36.5 133.5v600h373v-605q0 -203 -142.5 -308t-378.5 -105q-238 0 -374 104.5t-136 308.5zM176 1477l98 233q129 -41 207 -121t78 -198q0 -72 -49 -154t-129 -127l-135 59q76 84 76 170q0 87 -146 138zM559 1614 l281 112l225 -524l-191 -80z" />
<glyph unicode="&#x1f53;" horiz-adv-x="1234" d="M102 401v605h381v-600q0 -173 133 -173q71 0 107.5 39.5t36.5 133.5v600h373v-605q0 -203 -142.5 -308t-378.5 -105q-238 0 -374 104.5t-136 308.5zM180 1395q0 118 78 198t207 121l98 -233q-145 -51 -145 -138q0 -85 76 -169l-136 -60q-80 45 -129 127t-49 154z M573 1612l281 112l225 -524l-190 -80z" />
<glyph unicode="&#x1f54;" horiz-adv-x="1234" d="M102 401v605h381v-600q0 -173 133 -173q71 0 107.5 39.5t36.5 133.5v600h373v-605q0 -203 -142.5 -308t-378.5 -105q-238 0 -374 104.5t-136 308.5zM238 1493l98 233q129 -41 207 -121t78 -198q0 -71 -49.5 -153.5t-129.5 -127.5l-135 60q76 84 76 170t-145 137z M639 1184l225 524l281 -113l-316 -491z" />
<glyph unicode="&#x1f55;" horiz-adv-x="1234" d="M102 401v605h381v-600q0 -173 133 -173q71 0 107.5 39.5t36.5 133.5v600h373v-605q0 -203 -142.5 -308t-378.5 -105q-238 0 -374 104.5t-136 308.5zM246 1405q0 118 77.5 198t206.5 121l99 -233q-146 -51 -146 -137t76 -170l-135 -60q-80 45 -129 127t-49 154zM612 1178 l226 524l280 -113l-315 -491z" />
<glyph unicode="&#x1f56;" horiz-adv-x="1234" d="M102 401v605h381v-600q0 -173 133 -173q71 0 107.5 39.5t36.5 133.5v600h373v-605q0 -203 -142.5 -308t-378.5 -105q-238 0 -374 104.5t-136 308.5zM178 1675q44 114 107 167.5t155 53.5q48 0 157.5 -37.5t158.5 -37.5q44 0 79.5 15t77.5 62l140 -90q-28 -104 -98 -165.5 t-160 -61.5q-55 0 -162.5 39t-149.5 39q-26 0 -45 -3t-52.5 -21.5t-61.5 -53.5zM434 1366q78 -20 113 -44t35 -58q0 -61 -76 -134l135 -57q74 40 128 110.5t54 129.5q0 48 -15 86.5t-39.5 65t-62.5 48t-78 35t-93 25.5z" />
<glyph unicode="&#x1f57;" horiz-adv-x="1234" d="M102 401v605h381v-600q0 -173 133 -173q71 0 107.5 39.5t36.5 133.5v600h373v-605q0 -203 -142.5 -308t-378.5 -105q-238 0 -374 104.5t-136 308.5zM209 1718q44 114 107 167.5t155 53.5q48 0 157 -37.5t158 -37.5q44 0 80 15.5t78 62.5l139 -91q-28 -104 -98 -165.5 t-160 -61.5q-55 0 -162 39t-149 39q-26 0 -45.5 -3t-53 -21.5t-61.5 -53.5zM434 1327q0 59 21.5 104t63.5 74.5t89.5 48t114.5 33.5l100 -207q-78 -20 -112.5 -44t-34.5 -58q0 -60 76 -133l-136 -58q-74 40 -128 110.5t-54 129.5z" />
<glyph unicode="&#x1f59;" horiz-adv-x="1404" d="M-412 1165q0 118 78 198.5t207 121.5l98 -234q-145 -51 -145 -137t76 -170l-135 -59q-80 45 -129.5 127t-49.5 153zM10 1386h402l143 -286q20 -40 40.5 -85.5t32.5 -75.5t34 -85.5t32 -79.5h13q84 208 143 320l156 292h389l-502 -907v-479h-387v467z" />
<glyph unicode="&#x1f5b;" horiz-adv-x="1404" d="M-815 1151q0 118 78 198t207 121l98 -233q-146 -51 -146 -137t76 -170l-135 -60q-80 45 -129 127t-49 154zM-422 1368l281 113l225 -525l-190 -79zM10 1386h402l143 -286q20 -40 40.5 -85.5t32.5 -75.5t34 -85.5t32 -79.5h13q84 208 143 320l156 292h389l-502 -907v-479 h-387v467z" />
<glyph unicode="&#x1f5d;" horiz-adv-x="1404" d="M-887 1153q0 118 78 198.5t207 121.5l98 -234q-145 -51 -145 -137t76 -170l-136 -60q-80 45 -129 127t-49 154zM-520 926l225 524l281 -113l-316 -491zM10 1386h402l143 -286q20 -40 40.5 -85.5t32.5 -75.5t34 -85.5t32 -79.5h13q84 208 143 320l156 292h389l-502 -907 v-479h-387v467z" />
<glyph unicode="&#x1f5f;" horiz-adv-x="1404" d="M-930 1264q44 114 107 167.5t155 53.5q48 0 157.5 -38t158.5 -38q44 0 79.5 15.5t77.5 62.5l140 -90q-28 -104 -98.5 -166t-159.5 -62q-55 0 -162.5 39t-149.5 39q-26 0 -45 -3t-52.5 -21.5t-61.5 -53.5zM-705 872q0 59 21.5 104t63.5 74.5t89.5 48.5t114.5 34l101 -207 q-78 -20 -113 -44.5t-35 -58.5q0 -60 76 -133l-135 -57q-75 40 -129 110t-54 129zM10 1386h402l143 -286q20 -40 40.5 -85.5t32.5 -75.5t34 -85.5t32 -79.5h13q84 208 143 320l156 292h389l-502 -907v-479h-387v467z" />
<glyph unicode="&#x1f60;" horiz-adv-x="1695" d="M96 502q0 110 31 201.5t95 164t173.5 113.5t255.5 41v-252q-186 0 -186 -272q0 -133 31.5 -193.5t99.5 -60.5q40 0 64 29.5t24 86.5v273h326v-268q0 -117 86 -117q63 0 99 66t36 184q0 272 -187 272v252q146 0 255.5 -41t173.5 -113.5t95 -164t31 -201.5q0 -112 -26 -202 t-81 -162t-152 -112t-230 -40q-186 0 -266 145h-17q-41 -75 -119 -110t-161 -35q-451 0 -451 516zM627 1446l98 233q129 -41 207 -121t78 -198q0 -71 -49.5 -153.5t-129.5 -127.5l-135 60q76 84 76 170t-145 137z" />
<glyph unicode="&#x1f61;" horiz-adv-x="1695" d="M96 502q0 110 31 201.5t95 164t173.5 113.5t255.5 41v-252q-186 0 -186 -272q0 -133 31.5 -193.5t99.5 -60.5q40 0 64 29.5t24 86.5v273h326v-268q0 -117 86 -117q63 0 99 66t36 184q0 272 -187 272v252q146 0 255.5 -41t173.5 -113.5t95 -164t31 -201.5q0 -112 -26 -202 t-81 -162t-152 -112t-230 -40q-186 0 -266 145h-17q-41 -75 -119 -110t-161 -35q-451 0 -451 516zM657 1354q0 118 78 198t207 121l98 -233q-145 -51 -145 -137t76 -170l-135 -60q-80 45 -129.5 127.5t-49.5 153.5z" />
<glyph unicode="&#x1f62;" horiz-adv-x="1695" d="M96 502q0 110 31 201.5t95 164t173.5 113.5t255.5 41v-252q-186 0 -186 -272q0 -133 31.5 -193.5t99.5 -60.5q40 0 64 29.5t24 86.5v273h326v-268q0 -117 86 -117q63 0 99 66t36 184q0 272 -187 272v252q146 0 255.5 -41t173.5 -113.5t95 -164t31 -201.5q0 -112 -26 -202 t-81 -162t-152 -112t-230 -40q-186 0 -266 145h-17q-41 -75 -119 -110t-161 -35q-451 0 -451 516zM395 1477l99 233q129 -41 206.5 -121t77.5 -198q0 -72 -49 -154t-129 -127l-135 59q76 84 76 170q0 87 -146 138zM778 1614l281 112l225 -524l-190 -80z" />
<glyph unicode="&#x1f63;" horiz-adv-x="1695" d="M96 502q0 110 31 201.5t95 164t173.5 113.5t255.5 41v-252q-186 0 -186 -272q0 -133 31.5 -193.5t99.5 -60.5q40 0 64 29.5t24 86.5v273h326v-268q0 -117 86 -117q63 0 99 66t36 184q0 272 -187 272v252q146 0 255.5 -41t173.5 -113.5t95 -164t31 -201.5q0 -112 -26 -202 t-81 -162t-152 -112t-230 -40q-186 0 -266 145h-17q-41 -75 -119 -110t-161 -35q-451 0 -451 516zM403 1395q0 118 78 198t207 121l98 -233q-145 -51 -145 -138q0 -85 76 -169l-135 -60q-80 45 -129.5 127.5t-49.5 153.5zM797 1612l280 112l226 -524l-191 -80z" />
<glyph unicode="&#x1f64;" horiz-adv-x="1695" d="M96 502q0 110 31 201.5t95 164t173.5 113.5t255.5 41v-252q-186 0 -186 -272q0 -133 31.5 -193.5t99.5 -60.5q40 0 64 29.5t24 86.5v273h326v-268q0 -117 86 -117q63 0 99 66t36 184q0 272 -187 272v252q146 0 255.5 -41t173.5 -113.5t95 -164t31 -201.5q0 -112 -26 -202 t-81 -162t-152 -112t-230 -40q-186 0 -266 145h-17q-41 -75 -119 -110t-161 -35q-451 0 -451 516zM424 1493l98 233q129 -41 207 -121t78 -198q0 -72 -49 -154t-129 -127l-135 60q75 83 75 170q0 86 -145 137zM825 1184l226 524l280 -113l-315 -491z" />
<glyph unicode="&#x1f65;" horiz-adv-x="1695" d="M96 502q0 110 31 201.5t95 164t173.5 113.5t255.5 41v-252q-186 0 -186 -272q0 -133 31.5 -193.5t99.5 -60.5q40 0 64 29.5t24 86.5v273h326v-268q0 -117 86 -117q63 0 99 66t36 184q0 272 -187 272v252q146 0 255.5 -41t173.5 -113.5t95 -164t31 -201.5q0 -112 -26 -202 t-81 -162t-152 -112t-230 -40q-186 0 -266 145h-17q-41 -75 -119 -110t-161 -35q-451 0 -451 516zM434 1405q0 118 78 198t207 121l98 -233q-145 -51 -145 -137t76 -170l-136 -60q-80 45 -129 127t-49 154zM801 1178l225 524l281 -113l-316 -491z" />
<glyph unicode="&#x1f66;" horiz-adv-x="1695" d="M96 502q0 110 31 201.5t95 164t173.5 113.5t255.5 41v-252q-186 0 -186 -272q0 -133 31.5 -193.5t99.5 -60.5q40 0 64 29.5t24 86.5v273h326v-268q0 -117 86 -117q63 0 99 66t36 184q0 272 -187 272v252q146 0 255.5 -41t173.5 -113.5t95 -164t31 -201.5q0 -112 -26 -202 t-81 -162t-152 -112t-230 -40q-186 0 -266 145h-17q-41 -75 -119 -110t-161 -35q-451 0 -451 516zM403 1651q44 114 107.5 167.5t155.5 53.5q48 0 157 -38t158 -38q44 0 80 15.5t78 62.5l139 -90q-28 -104 -98.5 -166t-159.5 -62q-55 0 -162 39t-149 39q-26 0 -45.5 -3 t-53 -21.5t-61.5 -53.5zM659 1341q78 -20 113 -44t35 -58q0 -60 -76 -133l135 -57q75 40 129 110t54 129t-21.5 104t-63.5 74.5t-89.5 48t-114.5 33.5z" />
<glyph unicode="&#x1f67;" horiz-adv-x="1695" d="M96 502q0 110 31 201.5t95 164t173.5 113.5t255.5 41v-252q-186 0 -186 -272q0 -133 31.5 -193.5t99.5 -60.5q40 0 64 29.5t24 86.5v273h326v-268q0 -117 86 -117q63 0 99 66t36 184q0 272 -187 272v252q146 0 255.5 -41t173.5 -113.5t95 -164t31 -201.5q0 -112 -26 -202 t-81 -162t-152 -112t-230 -40q-186 0 -266 145h-17q-41 -75 -119 -110t-161 -35q-451 0 -451 516zM424 1653q44 114 107 167.5t155 53.5q48 0 157 -38t158 -38q44 0 80 15.5t78 62.5l139 -90q-28 -104 -98 -165.5t-160 -61.5q-55 0 -162 38.5t-149 38.5q-27 0 -46 -2.5 t-52.5 -21t-61.5 -53.5zM649 1262q0 59 21.5 104t63.5 74.5t89.5 48t114.5 33.5l100 -207q-78 -20 -112.5 -44.5t-34.5 -58.5q0 -60 76 -133l-136 -57q-74 40 -128 110.5t-54 129.5z" />
<glyph unicode="&#x1f68;" horiz-adv-x="1748" d="M-303 1249l98 234q129 -41 207 -121.5t78 -198.5q0 -71 -49 -153t-129 -127l-135 59q75 83 75 170q0 86 -145 137zM92 0v283h197l6 8q-91 68 -128.5 184t-37.5 238q0 115 28.5 218.5t89 192t148 152.5t212 100.5t274.5 36.5q161 0 290 -41.5t212.5 -109t139.5 -159.5 t79.5 -188.5t23.5 -199.5q0 -66 -13 -135.5t-53.5 -152t-103.5 -134.5l8 -10h193v-283h-656v279q108 52 163 163.5t55 272.5q0 192 -95.5 302.5t-253.5 110.5q-172 0 -256 -110.5t-84 -304.5q0 -325 205 -430v-283h-643z" />
<glyph unicode="&#x1f69;" horiz-adv-x="1748" d="M-299 1163q0 118 78 198.5t207 121.5l98 -234q-145 -51 -145 -137q0 -87 75 -170l-135 -59q-80 45 -129 127t-49 153zM92 0v283h197l6 8q-91 68 -128.5 184t-37.5 238q0 115 28.5 218.5t89 192t148 152.5t212 100.5t274.5 36.5q161 0 290 -41.5t212.5 -109t139.5 -159.5 t79.5 -188.5t23.5 -199.5q0 -66 -13 -135.5t-53.5 -152t-103.5 -134.5l8 -10h193v-283h-656v279q108 52 163 163.5t55 272.5q0 192 -95.5 302.5t-253.5 110.5q-172 0 -256 -110.5t-84 -304.5q0 -325 205 -430v-283h-643z" />
<glyph unicode="&#x1f6a;" horiz-adv-x="1748" d="M-793 1241l99 234q129 -41 206.5 -121.5t77.5 -198.5q0 -72 -49 -154t-129 -127l-135 60q76 84 76 170t-146 137zM-410 1378l281 113l225 -524l-190 -80zM92 0v283h197l6 8q-91 68 -128.5 184t-37.5 238q0 115 28.5 218.5t89 192t148 152.5t212 100.5t274.5 36.5 q161 0 290 -41.5t212.5 -109t139.5 -159.5t79.5 -188.5t23.5 -199.5q0 -66 -13 -135.5t-53.5 -152t-103.5 -134.5l8 -10h193v-283h-656v279q108 52 163 163.5t55 272.5q0 192 -95.5 302.5t-253.5 110.5q-172 0 -256 -110.5t-84 -304.5q0 -325 205 -430v-283h-643z" />
</font>
</defs>
</svg>
