<?xml version="1.0" standalone="no"?>
<!DOCTYPE svg PUBLIC "-//W3C//DTD SVG 1.1//EN" "http://www.w3.org/Graphics/SVG/1.1/DTD/svg11.dtd" >
<svg xmlns="http://www.w3.org/2000/svg" xmlns:xlink="http://www.w3.org/1999/xlink" version="1.1">
<metadata></metadata>
<defs>
<font id="pf_encore_sans_proBlkIt" horiz-adv-x="3723" >
<font-face units-per-em="2048" ascent="1536" descent="-512" />
<missing-glyph horiz-adv-x="638" />
<glyph unicode="fj" horiz-adv-x="1318" d="M90 768l35 197l162 39l18 106q17 99 56.5 174.5t90.5 122t117 76t131 40.5t138 11q134 0 331 -47l-47 -266q-186 26 -248 26q-99 0 -149.5 -38t-69.5 -148l-10 -57h633l-176 -1100q-30 -185 -110 -259.5t-238 -74.5q-73 0 -185 16l37 277q85 0 112.5 23t39.5 102l125 780 h-281l-131 -768h-360l133 768h-154z" />
<glyph unicode="ffj" horiz-adv-x="1951" d="M90 768l35 197l162 39l18 108q14 80 45.5 142.5t73.5 102.5t97 66t112 36.5t123 10.5q70 0 180 -20l-45 -256q-27 4 -74 4q-71 0 -109 -28.5t-51 -100.5l-12 -65h275l16 104q15 98 54 174t89.5 122.5t117.5 76t131.5 40.5t137.5 11q139 0 332 -47l-47 -266 q-139 26 -246 26q-99 0 -151 -38.5t-68 -147.5l-8 -55h635l-174 -1100q-30 -185 -110 -259.5t-238 -74.5q-73 0 -185 16l37 277q85 0 112.5 23t39.5 102l125 780h-283l-162 -991h-366l170 991h-275l-135 -768h-358l135 768h-156z" />
<glyph unicode="fb" horiz-adv-x="2027" d="M49 -387l197 1155h-156l35 197l162 39l10 61q17 99 56.5 174.5t90 122t116.5 76t131 40.5t138 11q121 0 269 -35h301l-64 -375q-29 -158 -59 -209h12q150 152 348 152q312 0 312 -375q0 -131 -29 -247t-85.5 -210t-151 -149t-216.5 -55q-124 0 -205 43t-102 114h-10 q-23 -93 -57 -143h-310l209 1186q-105 14 -125 14q-100 0 -148.5 -33t-66.5 -133l-6 -30h195l-41 -236h-195l-194 -1155h-361zM1208 375q0 -72 33.5 -110t97.5 -38q99 0 167.5 95t68.5 268q0 178 -137 178q-95 0 -162.5 -109.5t-67.5 -283.5z" />
<glyph unicode="ffb" horiz-adv-x="2629" d="M39 -387l207 1155h-156l35 197l162 39l14 88q64 358 451 358q88 0 198 -20l-45 -256q-58 4 -86 4q-77 0 -115 -26t-51 -103l-8 -45h277l10 61q17 99 56.5 174.5t90.5 122t117 76t130.5 40.5t137.5 11q28 0 52.5 -1.5t54.5 -6t40.5 -6.5t49.5 -10t43 -9h301l-63 -375 q-29 -160 -58 -209h12q150 152 347 152q311 0 311 -375q0 -104 -17.5 -199.5t-55.5 -180t-93 -147t-136 -98.5t-179 -36q-125 0 -206 43t-102 114h-10q-23 -93 -57 -143h-309l208 1186q-65 10 -114 10q-78 0 -129.5 -35.5t-67.5 -128.5l-6 -30h178l-41 -236h-178l-172 -991 h-362l176 991h-277l-207 -1155h-358zM1815 377q0 -72 33.5 -110t97.5 -38q99 0 167 95t68 268q0 178 -137 178q-95 0 -162 -109.5t-67 -283.5z" />
<glyph unicode="fh" horiz-adv-x="1972" d="M45 -387l199 1155h-156l35 197l162 39l10 61q17 99 56.5 174.5t90 122t116.5 76t131 40.5t138 11q120 0 271 -31h291l-70 -391q-25 -151 -68 -231h13q40 54 91.5 92.5t102.5 57t92.5 26.5t77.5 8q124 0 190.5 -48.5t79.5 -136.5t-6 -212l-104 -623h-363l105 602 q29 162 -98 162q-45 0 -81.5 -25.5t-58 -65t-34 -75t-17.5 -68.5l-94 -530h-367l209 1190q-82 10 -125 10q-100 0 -148.5 -33t-66.5 -133l-6 -30h203l-41 -236h-203l-194 -1155h-363z" />
<glyph unicode="ffh" horiz-adv-x="2578" d="M43 -387l203 1155h-156l35 197l162 39l14 88q64 358 451 358q88 0 198 -20l-45 -256q-58 4 -86 4q-77 0 -115 -26t-51 -103l-8 -45h277l10 61q17 99 56.5 174.5t90.5 122t117 76t130.5 40.5t137.5 11q28 0 52.5 -1.5t54.5 -6t40.5 -6.5t49.5 -10t43 -9h291l-70 -391 q-25 -154 -67 -231h10q77 101 178.5 142.5t187.5 41.5q123 0 191 -50t82 -140t-6 -214l-107 -614h-362l104 600q29 162 -98 162q-36 0 -67 -16t-51 -39.5t-35.5 -54.5t-23.5 -56t-12 -49l-96 -547h-367l209 1188q-62 10 -112 10q-78 0 -129.5 -35.5t-67.5 -128.5l-6 -30h180 l-41 -236h-180l-172 -991h-362l176 991h-277l-203 -1155h-358z" />
<glyph unicode="fk" horiz-adv-x="1953" d="M45 -387l201 1155h-156l35 197l162 39l10 61q17 99 56.5 174.5t90 122t116.5 76t131 40.5t138 11q120 0 271 -31h301l-133 -756h80l264 304h422l-430 -461l262 -545h-389l-174 416h-86l-72 -416h-363l209 1190q-82 10 -125 10q-100 0 -148.5 -33t-66.5 -133l-6 -30h207 l-41 -236h-207l-196 -1155h-363z" />
<glyph unicode="ffk" horiz-adv-x="2557" d="M39 -387l207 1155h-156l35 197l162 39l14 88q64 358 451 358q88 0 198 -20l-45 -256q-58 4 -86 4q-77 0 -115 -26t-51 -103l-8 -45h277l10 61q17 99 56.5 174.5t90.5 122t117 76t130.5 40.5t137.5 11q28 0 52.5 -1.5t54.5 -6t40.5 -6.5t49.5 -10t43 -9h301l-133 -756h80 l264 304h422l-430 -461l262 -545h-389l-174 416h-86l-72 -416h-363l209 1190q-62 10 -112 10q-78 0 -129.5 -35.5t-67.5 -128.5l-6 -30h176l-41 -236h-176l-172 -991h-362l176 991h-277l-207 -1155h-358z" />
<glyph unicode="ry" horiz-adv-x="1798" d="M41 0l176 1006h307q36 -74 11 -205h10q185 270 542 213l70 -418q30 -181 37 -315h12l154 325q42 88 67 159t34.5 113t25.5 128h338q-3 -18 -11 -67t-11 -65t-11 -55t-15.5 -61t-19.5 -57t-27.5 -69t-35.5 -73l-508 -979h-363l226 422l-99 -4l-145 709q-143 -9 -225.5 -94 t-104.5 -216l-67 -397h-367z" />
<glyph unicode="ff" horiz-adv-x="1521" d="M43 -387l203 1155h-156l35 197l160 39l20 108q34 189 143 280t304 91q94 0 206 -31l-45 -260q-71 8 -100 8q-69 0 -105.5 -28.5t-50.5 -102.5l-12 -63h311l29 155q32 187 140.5 275t304.5 88q133 0 245 -31l-45 -256q-110 12 -139 12q-72 0 -113.5 -29t-54.5 -102 l-20 -114h278l-41 -236h-276l-156 -991h-354l161 991h-311l-203 -1155h-358z" />
<glyph unicode="fi" horiz-adv-x="1318" d="M43 -387l201 1155h-154l35 197l162 39l18 106q17 99 56.5 174.5t90.5 122t117 76t131 40.5t138 11q134 0 331 -47l-47 -266q-186 26 -248 26q-99 0 -149.5 -38t-69.5 -148l-10 -57h637l-172 -1004h-360l135 768h-283l-196 -1155h-363z" />
<glyph unicode="fl" horiz-adv-x="1351" d="M43 -387l203 1155h-156l35 197l162 39l12 71q17 99 56.5 174.5t90 122t116.5 76t131 40.5t138 11q110 0 271 -33h293l-256 -1466h-357l211 1200q-82 10 -125 10q-101 0 -152 -33.5t-69 -132.5l-8 -40h217l-41 -236h-217l-199 -1155h-356z" />
<glyph unicode="ffi" horiz-adv-x="1951" d="M39 -387l207 1155h-156l35 197l162 39l18 108q34 200 146 285.5t305 85.5q64 0 180 -21l-45 -272q-41 8 -84 8q-64 0 -100.5 -29.5t-49.5 -99.5l-12 -65h275l16 104q15 98 54 174t89.5 122.5t117.5 76t131.5 40.5t137.5 11q139 0 332 -47l-47 -266q-139 26 -246 26 q-99 0 -153 -39t-70 -147l-8 -55h635l-164 -1004h-361l127 768h-278l-160 -991h-362l168 991h-275l-207 -1155h-358z" />
<glyph unicode="ffl" horiz-adv-x="1986" d="M39 -387l207 1155h-156l35 197l162 39l14 88q18 101 58 173.5t99.5 115t131.5 62t162 19.5q88 0 198 -20l-45 -268q-58 4 -86 4q-77 0 -115 -26t-51 -103l-8 -45h277l20 100q26 123 75.5 208t121 131t152 65.5t184.5 19.5q28 0 52.5 -1.5t53.5 -6t41 -6.5t49 -10t43 -9 h295l-258 -1495h-356l211 1229q-74 8 -113 8q-173 0 -203 -164l-14 -69h211l-41 -236h-211l-166 -991h-358l170 991h-277l-207 -1155h-358z" />
<glyph unicode="ft" horiz-adv-x="1566" d="M47 -387l199 1155h-156l35 197l162 39l28 157q34 187 142 275t305 88q134 0 246 -31l-45 -256q-110 12 -140 12q-69 0 -106.5 -28.5t-50.5 -102.5l-21 -112h309l136 299h262l-54 -299h267l-41 -238h-267l-67 -381q-13 -76 11 -101.5t110 -25.5q89 0 157 12l-45 -258 q-102 -26 -276 -26q-184 0 -267.5 94.5t-50.5 279.5l72 406h-297l-194 -1155h-363z" />
<glyph unicode=" "  horiz-adv-x="638" />
<glyph unicode="&#x09;" horiz-adv-x="638" />
<glyph unicode="&#xa0;" horiz-adv-x="638" />
<glyph unicode="!" horiz-adv-x="694" d="M123 125q0 86 61.5 147.5t141.5 61.5q63 0 102 -39.5t39 -101.5q0 -86 -60.5 -147.5t-142.5 -61.5q-64 0 -102.5 39.5t-38.5 101.5zM205 422l135 967h350l-209 -967h-276z" />
<glyph unicode="&#x22;" horiz-adv-x="815" d="M246 920l61 497h238l-109 -497h-190zM549 920l67 497h240l-115 -497h-192z" />
<glyph unicode="#" horiz-adv-x="1376" d="M117 387l63 191h205l61 186h-204l63 188h205l127 363h219l-129 -363h178l123 363h217l-123 -363h207l-65 -188h-205l-66 -186h211l-63 -191h-211l-131 -387h-219l133 387h-178l-129 -387h-218l129 387h-200zM600 578h178l66 186h-178z" />
<glyph unicode="$" horiz-adv-x="1404" d="M102 317q0 70 25 140h342q-4 -32 -4 -45q0 -64 34.5 -103t98.5 -51l49 283q-203 31 -312.5 112t-109.5 228q0 51 13.5 104t52.5 115t99 110.5t163 84.5t235 44l27 148h115l-27 -148q121 -6 215 -41.5t153.5 -107t59.5 -170.5q0 -63 -26 -139h-347q3 18 3 34 q0 55 -28 91.5t-81 48.5l-41 -234q174 -33 278.5 -85.5t145.5 -116.5t41 -152q0 -212 -156.5 -343t-455.5 -140l-23 -131h-115l23 133q-205 13 -326 96t-121 235zM602 926q0 -29 22.5 -48t75.5 -34l37 211q-54 -11 -94.5 -43.5t-40.5 -85.5zM711 252q74 7 131 49t57 115 q0 37 -33 62t-108 44z" />
<glyph unicode="%" horiz-adv-x="1996" d="M113 864q0 253 126 395t351 142q338 -3 338 -334q0 -78 -14.5 -149t-49.5 -137.5t-87.5 -115t-135 -77.5t-186.5 -29q-181 0 -261.5 78t-80.5 227zM375 -57l1032 1503h213l-1036 -1503h-209zM395 883q0 -115 90 -115q64 0 111 76.5t47 222.5q0 125 -84 125 q-72 0 -118 -90t-46 -219zM1096 295q0 252 126 394t351 142q338 -3 338 -333q0 -78 -14.5 -149t-49.5 -137.5t-87.5 -115t-135 -77.5t-186.5 -29q-181 0 -261.5 78t-80.5 227zM1378 313q0 -114 90 -114q64 0 111 76.5t47 222.5q0 125 -84 125q-72 0 -118 -90.5t-46 -219.5z " />
<glyph unicode="&#x26;" horiz-adv-x="1605" d="M88 291q0 55 18.5 116.5t56.5 128t106.5 132.5t158.5 118q-72 110 -72 220q0 71 28 139.5t81.5 127t142.5 94.5t199 36q151 0 237 -74t86 -192q0 -106 -80.5 -213t-213.5 -195q88 -175 254 -352q73 71 109 156t36 145q0 95 -117 164l109 188q140 -22 214.5 -99.5 t74.5 -201.5q0 -116 -59.5 -261.5t-186.5 -264.5q67 -58 166 -119l-187 -211q-119 69 -237 164q-218 -86 -482 -86q-216 0 -329 94t-113 246zM438 352q0 -68 53 -105.5t144 -37.5q92 0 184 20q-100 123 -244 357q-55 -41 -96 -109t-41 -125zM682 1036q0 -44 20 -100 q42 35 69.5 83.5t27.5 92.5q0 43 -39 43q-60 0 -75 -92q-3 -18 -3 -27z" />
<glyph unicode="'" horiz-adv-x="567" d="M264 920l64 497h237l-110 -497h-191z" />
<glyph unicode="(" horiz-adv-x="690" d="M86 459q0 262 158 541t413 511l160 -137q-196 -202 -302.5 -467t-106.5 -501q0 -308 137 -527l-199 -147q-120 160 -190 349t-70 378z" />
<glyph unicode=")" horiz-adv-x="690" d="M-23 -121q184 188 291 440.5t107 507.5q0 148 -36.5 291t-105.5 256l209 137q119 -162 188.5 -352t69.5 -381q0 -261 -159.5 -538t-417.5 -508z" />
<glyph unicode="*" horiz-adv-x="980" d="M174 1038l113 215l211 -98l34 244h240l-57 -244q57 22 239 98l52 -215l-267 -77l125 -203l-225 -144l-90 209q-39 -57 -160 -209l-178 142l197 209q-34 10 -114.5 36t-119.5 37z" />
<glyph unicode="+" horiz-adv-x="1376" d="M240 442l43 250h307l55 307h277l-56 -307h303l-43 -250h-303l-53 -297h-276l53 297h-307z" />
<glyph unicode="," horiz-adv-x="595" d="M-51 -414l201 416q-42 18 -67.5 56.5t-25.5 88.5q0 93 70.5 162.5t157.5 69.5q73 0 116 -44t43 -114q0 -75 -49 -149l-350 -527z" />
<glyph unicode="-" horiz-adv-x="1030" d="M162 420l45 262h690l-45 -262h-690z" />
<glyph unicode="." horiz-adv-x="585" d="M49 137q0 96 67.5 165t157.5 69q70 0 114 -44.5t44 -115.5q0 -93 -68 -160t-157 -67q-70 0 -114 43t-44 110z" />
<glyph unicode="/" horiz-adv-x="1169" d="M-94 -90l1143 1560h294l-1144 -1560h-293z" />
<glyph unicode="0" horiz-adv-x="1376" d="M90 469q0 258 85.5 456.5t255 312.5t400.5 114q115 0 204.5 -27.5t147.5 -74.5t96 -115t53.5 -143t15.5 -163q0 -123 -23 -238.5t-78.5 -227t-137.5 -194t-209.5 -133t-285.5 -50.5q-524 0 -524 483zM451 494q0 -125 48 -183.5t150 -58.5q66 0 125.5 35.5t107.5 104 t76.5 180.5t28.5 253q0 126 -45.5 190t-146.5 64q-162 0 -253 -161t-91 -424z" />
<glyph unicode="1" horiz-adv-x="1376" d="M98 0l45 266h326l135 764l-280 -39l38 221l386 123h266l-189 -1069h332l-45 -266h-1014z" />
<glyph unicode="2" horiz-adv-x="1376" d="M51 0l25 141q14 84 49 156t83 129t121.5 112t150.5 100t186 99q150 73 213 121.5t63 114.5q0 110 -133 110q-68 0 -129.5 -47t-85.5 -151h-336q-2 14 -2 43q0 85 35.5 157t93.5 120t133.5 82t154.5 49.5t158 15.5q131 0 227.5 -25.5t152.5 -72t82 -106.5t26 -136 q0 -53 -13 -100t-33.5 -85t-58 -76t-73.5 -66.5t-94.5 -63t-106 -59.5t-121.5 -62q-267 -134 -352 -234h739l-45 -266h-1110z" />
<glyph unicode="3" horiz-adv-x="1376" d="M119 285q0 53 31 155h313q-11 -90 38 -139t132 -49q110 0 173.5 63t63.5 156q0 86 -62 126t-194 40q-50 0 -75 -4l-66 180l336 244l-2 14h-488l46 264h968l-41 -239l-374 -246l4 -12q154 -15 237.5 -102t83.5 -226q0 -240 -180.5 -383t-484.5 -143q-71 0 -134.5 9.5 t-124 31.5t-104 55.5t-70 86t-26.5 118.5z" />
<glyph unicode="4" horiz-adv-x="1376" d="M76 289l45 252l764 796h334l-140 -784h201l-47 -264h-201l-49 -289h-348l49 289h-608zM487 553h244l55 309h-8l-289 -297z" />
<glyph unicode="5" horiz-adv-x="1376" d="M113 285q0 57 30 155h314q-11 -90 38 -139t132 -49q110 0 173.5 66.5t63.5 164.5q0 89 -55 136t-141 47q-63 0 -137 -18.5t-128 -47.5l-157 113l217 622h848l-45 -262h-580l-61 -162q62 4 96 4q235 0 371.5 -102t136.5 -303q0 -231 -183.5 -378.5t-484.5 -147.5 q-70 0 -133 9.5t-121.5 31.5t-100.5 55.5t-67.5 86t-25.5 118.5z" />
<glyph unicode="6" horiz-adv-x="1376" d="M143 461q0 104 18 206.5t54 203.5t96 187t137.5 152.5t185.5 104t234 37.5q209 0 324 -70.5t115 -202.5q0 -25 -17 -112h-342q-2 52 -34.5 85t-100.5 33q-103 0 -169 -72t-93 -200l12 -2q96 76 254 76q213 0 321.5 -95.5t108.5 -267.5q0 -239 -168.5 -388.5 t-464.5 -149.5q-233 0 -352 119t-119 356zM506 397q0 -62 36.5 -101.5t114.5 -39.5q76 0 129.5 37t75 87.5t21.5 106.5q0 65 -40.5 100.5t-121.5 35.5q-89 0 -152 -64.5t-63 -161.5z" />
<glyph unicode="7" horiz-adv-x="1376" d="M213 0l702 1073h-636l45 262h1032l-39 -227l-721 -1108h-383z" />
<glyph unicode="8" horiz-adv-x="1376" d="M117 342q0 45 13.5 93.5t43.5 103t90 102t142 74.5l2 12q-83 36 -112.5 87t-29.5 114q0 59 21.5 117.5t67.5 115t112 99.5t163 69.5t212 26.5q101 0 180 -18.5t129 -49t82.5 -72.5t45.5 -85.5t13 -92.5q0 -13 -2 -32t-15.5 -60t-36.5 -78t-71 -77t-112 -64l-4 -8 q182 -63 182 -264q0 -90 -45 -174t-125.5 -149.5t-201 -104.5t-261.5 -39q-230 0 -356.5 92.5t-126.5 261.5zM473 377q0 -66 52.5 -101.5t119.5 -35.5q102 0 170 59t68 143q0 131 -166 156q-109 -22 -176.5 -81.5t-67.5 -139.5zM618 944q0 -45 37 -76.5t103 -46.5 q87 19 130.5 65t43.5 103q0 50 -36.5 76.5t-100.5 26.5q-68 0 -122.5 -41.5t-54.5 -106.5z" />
<glyph unicode="9" horiz-adv-x="1376" d="M127 260q0 34 18 111h334q3 -51 40.5 -85t105.5 -34q218 0 270 272l-14 2q-95 -75 -254 -75q-212 0 -322 89t-110 253q0 111 40.5 211t116.5 178t195.5 124t267.5 46q235 0 359 -124.5t124 -369.5q0 -188 -44 -345t-130.5 -275.5t-226 -185t-319.5 -66.5 q-214 0 -332.5 70.5t-118.5 203.5zM563 862q0 -66 41.5 -106.5t124.5 -40.5q86 0 147.5 59.5t61.5 153.5q0 62 -37.5 107.5t-116.5 45.5q-74 0 -126 -34t-73.5 -82t-21.5 -103z" />
<glyph unicode=":" horiz-adv-x="585" d="M49 137q0 96 67.5 165t157.5 69q70 0 114 -44.5t44 -115.5q0 -93 -68 -160t-157 -67q-70 0 -114 43t-44 110zM143 670q0 96 68 164.5t158 68.5q70 0 113.5 -44.5t43.5 -115.5q0 -93 -68 -160t-157 -67q-70 0 -114 43.5t-44 110.5z" />
<glyph unicode=";" horiz-adv-x="585" d="M-59 -414l198 416q-42 18 -67 56.5t-25 88.5q0 93 70.5 162.5t158.5 69.5q71 0 114.5 -44t43.5 -114q0 -75 -49 -149l-350 -527zM143 670q0 96 68 164.5t158 68.5q70 0 113.5 -44.5t43.5 -115.5q0 -93 -68 -160t-157 -67q-70 0 -114 43.5t-44 110.5z" />
<glyph unicode="&#x3c;" horiz-adv-x="1376" d="M242 457l41 229l958 412l-51 -301l-604 -238l520 -237l-51 -285z" />
<glyph unicode="=" horiz-adv-x="1376" d="M201 262l43 244h899l-43 -244h-899zM264 625l43 245h899l-43 -245h-899z" />
<glyph unicode="&#x3e;" horiz-adv-x="1376" d="M168 37l51 307l602 238l-518 237l51 279l815 -412l-41 -229z" />
<glyph unicode="?" horiz-adv-x="1107" d="M133 991q0 88 33.5 163t89 127t128 89t151 54.5t157.5 17.5q226 -2 339.5 -71t113.5 -222q0 -68 -24 -126.5t-64 -102t-88 -83.5t-98 -78.5t-93.5 -78.5t-75 -93t-40.5 -112l-9 -53h-293l11 65q16 100 63 177.5t102 124t108 87.5t88.5 90t35.5 109q0 109 -121 109 q-61 0 -114 -46t-74 -147h-326zM289 125q0 86 61 147.5t139 61.5q64 0 104 -39.5t40 -101.5q0 -86 -60.5 -147.5t-144.5 -61.5q-62 0 -100.5 39.5t-38.5 101.5z" />
<glyph unicode="@" horiz-adv-x="1781" d="M133 483q0 199 70.5 377t193.5 308t300 206t380 76q306 0 485 -162t179 -444q0 -281 -140.5 -454t-367.5 -173q-17 0 -35 1.5t-48.5 10t-54.5 23.5t-43.5 45t-23.5 70l-12 -2q-108 -127 -281 -127q-122 0 -176.5 72t-54.5 212q0 74 12.5 147t42 146t72.5 128.5t111 90.5 t151 35q74 0 124.5 -31.5t69.5 -87.5h9q17 70 47 105h217l-88 -523q-2 -10 -2 -24q0 -62 59 -62q62 0 106 61t62.5 144t18.5 172q0 99 -37 179.5t-100.5 132t-145.5 79t-174 27.5q-143 0 -272 -55t-223 -149.5t-149 -228.5t-55 -286q0 -217 136.5 -349t365.5 -132 q234 0 465 78l35 -193q-275 -92 -514 -92q-324 0 -519.5 173.5t-195.5 475.5zM778 547q0 -115 96 -115q71 0 118.5 88t47.5 221q0 121 -92 121q-73 0 -121.5 -83t-48.5 -232z" />
<glyph unicode="A" horiz-adv-x="1460" d="M-74 0l760 1391h422l240 -1391h-381l-35 299h-471l-152 -299h-383zM610 571h277l-19 187q-17 144 -20 295h-19q-61 -154 -127 -295z" />
<glyph unicode="B" horiz-adv-x="1392" d="M59 0l244 1386h668q168 0 266 -69.5t98 -216.5q0 -29 -5 -61t-21.5 -76.5t-43.5 -82.5t-76 -74.5t-114 -57.5l-2 -11q215 -43 215 -288q0 -197 -138.5 -323t-363.5 -126h-727zM483 285h240q86 0 137 48.5t51 131.5q0 58 -37 89.5t-100 31.5h-237zM582 870h223 q63 0 105 40.5t42 103.5q0 41 -27.5 63.5t-74.5 22.5h-227z" />
<glyph unicode="C" horiz-adv-x="1431" d="M125 498q0 146 28 278t89.5 248t151 200.5t220.5 133.5t291 49q144 0 261.5 -41.5t191.5 -128.5t74 -207q0 -53 -17 -123h-362q4 28 4 43q0 81 -50 122.5t-141 41.5q-156 0 -257 -166.5t-101 -429.5q0 -125 52.5 -185.5t166.5 -60.5q105 0 181.5 62t95.5 164h358 q0 -24 -8 -70q-20 -114 -81 -201.5t-149.5 -139.5t-193 -78.5t-219.5 -26.5q-294 0 -440 126.5t-146 389.5z" />
<glyph unicode="D" horiz-adv-x="1470" d="M51 0l244 1386h514q97 0 181.5 -16.5t163 -56.5t134 -101t88.5 -156.5t33 -217.5q0 -244 -104 -435t-290.5 -297t-424.5 -106h-539zM475 283h90q58 0 117 15.5t120.5 53t109 93.5t78 145.5t30.5 200.5q0 81 -20.5 140.5t-50.5 91.5t-75.5 51.5t-83.5 24.5t-85 5h-84z" />
<glyph unicode="E" horiz-adv-x="1265" d="M41 0l244 1386h1024l-52 -286h-651l-41 -238h604l-51 -284h-604l-51 -293h688l-49 -285h-1061z" />
<glyph unicode="F" horiz-adv-x="1230" d="M57 0l244 1386h1057l-51 -286h-684l-48 -269h623l-49 -284h-623l-96 -547h-373z" />
<glyph unicode="G" horiz-adv-x="1454" d="M125 502q0 148 29.5 281t91.5 247.5t152 198t217 131t280 47.5q89 0 167.5 -11.5t147.5 -38t119 -66t78.5 -98t28.5 -130.5q0 -61 -17 -125h-368q2 10 2 29q0 69 -48.5 109t-127.5 40q-83 0 -149.5 -41.5t-107 -105.5t-68 -147.5t-38 -161t-10.5 -152.5q0 -126 54.5 -184 t174.5 -58q114 0 185.5 54.5t87.5 136.5l8 43h-144l43 254h508l-37 -234q-19 -121 -65.5 -215t-109.5 -154t-144.5 -98.5t-166 -54.5t-179.5 -16q-594 0 -594 520z" />
<glyph unicode="H" horiz-adv-x="1505" d="M41 0l244 1389h372l-92 -527h512l92 527h375l-244 -1389h-374l100 575h-512l-100 -575h-373z" />
<glyph unicode="I" horiz-adv-x="663" d="M61 0l244 1386h375l-244 -1386h-375z" />
<glyph unicode="J" horiz-adv-x="1257" d="M4 309q0 74 31 183h358q-8 -58 -8 -80q0 -67 33 -102.5t112 -35.5q192 0 234 230l156 885h370l-147 -850q-11 -63 -25.5 -116.5t-40 -111.5t-58 -104t-81 -89t-108 -71.5t-140.5 -45.5t-176 -17q-252 0 -381 82.5t-129 242.5z" />
<glyph unicode="K" horiz-adv-x="1411" d="M41 0l244 1391h370l-88 -504h47l471 504h457l-622 -650l397 -741h-430l-299 588h-74l-102 -588h-371z" />
<glyph unicode="L" horiz-adv-x="1204" d="M45 0l244 1386h373l-195 -1099h680l-49 -287h-1053z" />
<glyph unicode="M" horiz-adv-x="1951" d="M61 0l306 1386h417l103 -354q46 -153 108 -436h21q80 153 246 414l239 376h420l-192 -1386h-367l129 838h-16q-118 -210 -211 -359l-181 -278h-295l-86 291q-12 40 -26 104t-30 145t-23 115h-15l-180 -856h-367z" />
<glyph unicode="N" horiz-adv-x="1478" d="M37 0l244 1386h342l208 -405q123 -236 175 -377h18l135 782h363l-244 -1386h-320l-245 479q-86 157 -158 330l-14 -2l-140 -807h-364z" />
<glyph unicode="O" horiz-adv-x="1593" d="M127 516q0 147 30.5 278.5t95 244t158 194t226.5 128t293 46.5q134 0 239.5 -32t173 -86t111.5 -130t62 -158.5t18 -177.5q0 -78 -11 -155.5t-37.5 -161.5t-67 -158.5t-104 -142t-143.5 -116t-190.5 -77t-239.5 -28.5q-134 0 -239 26.5t-175 73t-115.5 114.5t-65 146 t-19.5 172zM508 539q0 -281 254 -281q164 0 277.5 157.5t113.5 415.5q0 134 -58.5 214.5t-181.5 80.5q-85 0 -155.5 -38.5t-115.5 -99.5t-76.5 -140t-44.5 -156.5t-13 -152.5z" />
<glyph unicode="P" horiz-adv-x="1314" d="M41 0l244 1386h620q451 0 451 -385q0 -71 -17.5 -140.5t-62 -141.5t-110.5 -126.5t-173 -89t-241 -34.5h-256l-82 -469h-373zM545 754h211q28 0 56.5 5t62 19.5t59 37t42.5 61t17 88.5q0 49 -27.5 80.5t-65.5 43t-85 11.5h-209z" />
<glyph unicode="Q" horiz-adv-x="1593" d="M127 516q0 147 30.5 278.5t95 244t158 194t226.5 128t293 46.5q134 0 239.5 -32t173 -86t111.5 -130t62 -158.5t18 -177.5q0 -105 -21.5 -209.5t-67 -210.5t-129.5 -196.5t-198 -145.5q91 -39 264 -86l-141 -264q-287 78 -547 275q-153 5 -265 47t-177 114.5t-95 163.5 t-30 205zM508 539q0 -281 254 -281q164 0 277.5 157.5t113.5 415.5q0 134 -58.5 214.5t-181.5 80.5q-85 0 -155.5 -38.5t-115.5 -99.5t-76.5 -140t-44.5 -156.5t-13 -152.5z" />
<glyph unicode="R" horiz-adv-x="1368" d="M43 0l244 1386h624q226 0 333.5 -96.5t107.5 -273.5q0 -30 -7 -70.5t-32 -103t-65 -118.5t-115 -110.5t-172 -83.5l270 -530h-426l-240 508h-59l-88 -508h-375zM555 791h209q89 0 153 49.5t64 134.5q0 67 -40 98t-105 31h-226z" />
<glyph unicode="S" horiz-adv-x="1361" d="M70 340q0 61 22 141h352q-4 -32 -4 -47q0 -168 213 -168q113 0 171.5 47t58.5 113q0 57 -55 89t-193 54q-108 17 -184 41t-135 63.5t-88 98.5t-29 139q0 66 17 130t62 132t113.5 118.5t181.5 83t256 32.5q139 0 250.5 -38t180.5 -117t69 -187q0 -67 -26 -141h-357 q2 12 2 37q0 71 -44 111t-122 40q-95 0 -147.5 -42t-52.5 -99q0 -38 43 -62t143 -43q146 -27 244 -63.5t153.5 -87t78 -108.5t22.5 -136q0 -99 -42 -186t-122 -154.5t-208.5 -107t-289.5 -39.5q-84 0 -159.5 11.5t-145 38t-119.5 66.5t-80 101.5t-30 138.5z" />
<glyph unicode="T" horiz-adv-x="1263" d="M139 1102l51 284h1207l-51 -284h-414l-193 -1102h-370l192 1102h-422z" />
<glyph unicode="U" horiz-adv-x="1499" d="M143 596l142 793h372l-145 -824q-10 -52 -10 -93q0 -18 2 -34q6 -53 21.5 -87t47.5 -54t67.5 -27.5t82.5 -7.5q48 0 93 16t87.5 50t74.5 95.5t46 143.5l145 822h369l-141 -807q-19 -108 -51 -194.5t-88 -163t-133 -128t-188.5 -81t-250.5 -29.5q-559 0 -559 446 q0 75 16 164z" />
<glyph unicode="V" horiz-adv-x="1421" d="M178 1386h377l66 -444q56 -376 65 -569h10q120 300 260 569l220 444h391l-746 -1386h-372z" />
<glyph unicode="W" horiz-adv-x="2074" d="M178 1386h387l13 -442q1 -52 4 -178t3 -183t-3 -194h8q21 71 50 151t49.5 131.5t58.5 144t53 130.5l178 440h434l27 -464q16 -267 17 -475q0 -23 -1 -46h10q27 88 57 172.5t70 193t56 151.5l178 468h393l-627 -1386h-413l-25 442q-16 249 -16 430q0 94 4 170h-8 q-114 -321 -217 -573l-189 -469h-412z" />
<glyph unicode="X" horiz-adv-x="1396" d="M-72 0l600 719l-315 667h403l156 -452l311 452h428l-555 -667l351 -719h-412l-184 479l-355 -479h-428z" />
<glyph unicode="Y" horiz-adv-x="1349" d="M172 1386h373l86 -286q54 -172 74 -336h12q111 206 196 330l201 292h387l-641 -907l-84 -479h-373l82 467z" />
<glyph unicode="Z" horiz-adv-x="1339" d="M4 0l45 264l832 836h-658l51 289h1110l-47 -265l-829 -843h700l-49 -281h-1155z" />
<glyph unicode="[" horiz-adv-x="669" d="M-10 -217l293 1669h479l-41 -225h-166l-215 -1217h166l-39 -227h-477z" />
<glyph unicode="\" horiz-adv-x="1169" d="M164 1470h295l598 -1560h-295z" />
<glyph unicode="]" horiz-adv-x="669" d="M-43 -217l39 227h166l215 1217h-166l41 225h481l-297 -1669h-479z" />
<glyph unicode="^" horiz-adv-x="1376" d="M178 473l567 924h222l231 -924h-268l-125 584l-330 -584h-297z" />
<glyph unicode="_" horiz-adv-x="983" d="M-141 -338l41 225h981l-41 -225h-981z" />
<glyph unicode="`" horiz-adv-x="1157" d="M430 1399l160 215l379 -350l-123 -140z" />
<glyph unicode="a" horiz-adv-x="1232" d="M74 342q0 91 17 182t56.5 182.5t97 161t147.5 113t200 43.5q101 0 169.5 -39.5t96.5 -110.5h10q15 80 60 134h293l-177 -1008h-301q-13 35 -13 80q0 28 5 61h-12q-133 -155 -340 -155q-162 0 -235.5 90t-73.5 266zM442 371q0 -144 127 -144q96 0 160 110t64 275 q0 154 -125 154q-96 0 -161 -104.5t-65 -290.5z" />
<glyph unicode="b" horiz-adv-x="1263" d="M20 0l256 1454h365l-68 -375q-30 -163 -57 -209h12q150 152 346 152q312 0 312 -375q0 -104 -17.5 -199.5t-55.5 -180t-93 -147t-136 -98.5t-179 -36q-125 0 -206 43t-102 114h-10q-23 -93 -57 -143h-310zM446 375q0 -69 33.5 -108.5t98.5 -39.5q96 0 165.5 100.5 t69.5 262.5q0 178 -137 178q-96 0 -163 -107.5t-67 -285.5z" />
<glyph unicode="c" horiz-adv-x="1155" d="M80 373q0 132 32 240t87.5 183t131.5 126t162.5 74.5t182.5 23.5q188 0 298.5 -75t110.5 -220q0 -52 -14 -107h-332q0 4 1 13.5t1 13.5q0 62 -31 88.5t-69 26.5q-57 0 -100 -41t-65 -104.5t-32 -124.5t-10 -117q0 -65 28 -96t95 -31q44 0 87.5 30.5t64.5 98.5h331v-15 q0 -97 -47 -172t-123.5 -118t-164 -64.5t-179.5 -21.5q-225 0 -335.5 95t-110.5 294z" />
<glyph unicode="d" horiz-adv-x="1253" d="M82 332q0 200 61.5 355t182.5 245t284 90q166 0 242 -92h10l96 524h353l-252 -1454h-299q-19 28 -19 88q0 31 7 66h-9q-128 -168 -336 -168q-172 0 -246.5 91t-74.5 255zM440 395q0 -83 36 -122.5t110 -39.5q86 0 154.5 108t68.5 280q0 80 -32.5 116.5t-98.5 36.5 q-105 0 -171.5 -108t-66.5 -271z" />
<glyph unicode="e" horiz-adv-x="1146" d="M86 369q0 295 169.5 474t451.5 179q180 0 279 -76.5t99 -195.5q0 -64 -16 -114.5t-58 -96.5t-109.5 -76t-174.5 -48t-250 -18h-39q-6 -30 -6 -57q0 -111 119 -111q117 0 160 121h301q2 -14 2 -43q0 -105 -62.5 -179t-166.5 -108t-240 -34q-233 0 -346 99.5t-113 283.5z M465 596h35q120 0 175.5 32.5t55.5 76.5q0 33 -25 50t-65 17q-78 0 -121 -49.5t-55 -126.5z" />
<glyph unicode="f" horiz-adv-x="851" d="M47 -387l199 1155h-156l35 197l162 39l18 108q32 187 141.5 275t305.5 88q133 0 245 -31l-45 -256q-110 12 -139 12q-70 0 -106.5 -28.5t-49.5 -102.5l-12 -65h266l-41 -236h-266l-192 -1155h-365z" />
<glyph unicode="g" horiz-adv-x="1269" d="M10 -168q0 55 27 129h305q0 -17 4 -41q19 -104 148 -104q195 0 233 219q17 94 49 162h-10q-128 -146 -346 -146q-322 0 -322 318q0 100 18.5 193t59 177t100 146t147.5 98.5t195 36.5q103 0 175 -43.5t94 -114.5h8q18 91 59 144h291l-145 -891q-9 -54 -20 -100 t-33 -105.5t-51 -107t-75.5 -95.5t-103.5 -80.5t-138 -52.5t-177 -20q-238 0 -365 72.5t-127 205.5zM467 430q0 -137 145 -137q65 0 113.5 45t71 112.5t22.5 145.5q0 80 -34.5 123t-100.5 43q-88 0 -152.5 -89.5t-64.5 -242.5z" />
<glyph unicode="h" horiz-adv-x="1210" d="M20 0l256 1458h353l-70 -391q-25 -153 -70 -231h13q40 54 91.5 92.5t102.5 57t92.5 26.5t77.5 8q181 0 241 -106q38 -68 38 -173q0 -59 -12 -131l-107 -610h-360l104 602q5 30 5 54q0 108 -105 108q-44 0 -79.5 -21.5t-57 -57t-34 -69.5t-18.5 -69l-96 -547h-365z" />
<glyph unicode="i" horiz-adv-x="651" d="M61 0l177 1006h358l-176 -1006h-359zM270 1253q0 96 71 167t159 71q73 0 117.5 -45.5t44.5 -118.5q0 -93 -70.5 -163t-161.5 -70q-69 0 -114.5 45t-45.5 114z" />
<glyph unicode="j" horiz-adv-x="634" d="M-172 -436l37 276q59 3 93.5 10t54 24t26.5 35.5t14 55.5l185 1041h358l-199 -1125q-7 -42 -12.5 -67.5t-19 -65.5t-29.5 -64.5t-44.5 -54t-64.5 -45.5t-89 -27.5t-118 -11.5q-75 0 -192 19zM270 1253q0 96 71 167t159 71q73 0 117.5 -45.5t44.5 -118.5q0 -93 -70.5 -163 t-161.5 -70q-69 0 -114.5 45t-45.5 114z" />
<glyph unicode="k" horiz-adv-x="1191" d="M20 0l256 1456h363l-133 -754h80l266 304h418l-430 -461l264 -545h-389l-174 416h-86l-72 -416h-363z" />
<glyph unicode="l" horiz-adv-x="645" d="M92 315l205 1139h356l-190 -1079q-5 -28 -5 -47q0 -30 11 -42q18 -20 90 -24l-37 -264q-99 -12 -168 -12q-176 0 -236 72q-38 47 -38 140q0 51 12 117z" />
<glyph unicode="m" horiz-adv-x="1818" d="M20 0l177 1006h315q18 -35 18 -88q0 -30 -6 -66h11q136 168 313 168q104 0 171.5 -43t92.5 -121q134 164 348 164q188 0 250 -104q40 -68 41 -176q0 -57 -12 -126l-105 -614h-362l106 606q6 34 6 60q0 38 -12 62q-20 40 -90 40q-71 0 -115.5 -62.5t-58.5 -144.5 l-100 -561h-361l105 598q6 33 6 60q0 39 -12 62q-20 40 -91 40q-34 0 -63 -15.5t-48 -38.5t-34 -54t-22.5 -57.5t-12.5 -53.5l-90 -541h-365z" />
<glyph unicode="n" horiz-adv-x="1210" d="M20 0l177 1006h315q18 -35 18 -89q0 -31 -6 -67h11q129 170 335 170q176 0 235 -100q39 -65 39 -168q0 -54 -11 -119l-107 -633h-360l104 600q6 31 6 56q0 106 -104 106q-48 0 -84.5 -22t-58 -59t-33 -71t-17.5 -71l-94 -539h-365z" />
<glyph unicode="o" horiz-adv-x="1255" d="M90 383q0 105 23 199t72.5 175.5t122 140.5t176 92.5t229.5 33.5q463 0 463 -418q0 -82 -16.5 -162t-60.5 -164.5t-111 -148t-176.5 -104.5t-248.5 -41q-473 0 -473 397zM444 395q0 -164 140 -164q97 0 167 97t70 278q0 166 -141 166q-111 0 -173.5 -105.5t-62.5 -271.5z " />
<glyph unicode="p" horiz-adv-x="1253" d="M-53 -418l250 1424h303q16 -32 16 -91q0 -33 -6 -63h10q134 168 338 168q163 0 239.5 -94.5t76.5 -261.5q0 -143 -29 -263.5t-88 -215t-156.5 -148t-224.5 -53.5q-189 0 -279 92h-8l-86 -494h-356zM444 356q0 -73 30.5 -106t92.5 -33q105 0 172.5 108.5t67.5 272.5 q0 81 -37 120.5t-104 39.5q-89 0 -155.5 -108.5t-66.5 -293.5z" />
<glyph unicode="q" horiz-adv-x="1253" d="M80 336q0 109 19 208t60.5 186.5t102 151.5t149.5 101t197 37q103 0 175 -43.5t94 -114.5h8q18 91 59 144h299l-252 -1426h-356l59 336q25 139 58 209h-11q-90 -86 -172.5 -113.5t-173.5 -27.5q-168 0 -241.5 90.5t-73.5 261.5zM446 373q0 -75 32.5 -113.5t109.5 -38.5 q96 0 160.5 112.5t64.5 284.5q0 70 -34 107t-95 37q-99 0 -165.5 -95.5t-72.5 -293.5z" />
<glyph unicode="r" horiz-adv-x="866" d="M41 0l176 1006h307q21 -44 21 -107q0 -44 -10 -98h10q70 110 172.5 166.5t206.5 58.5l-39 -315q-109 -4 -183.5 -25.5t-120 -63t-69.5 -94.5t-37 -131l-67 -397h-367z" />
<glyph unicode="s" horiz-adv-x="1112" d="M45 248q0 40 14 92h312q0 -57 36.5 -87t102.5 -30q65 0 103 26t38 60q0 29 -36.5 46.5t-127.5 35.5q-182 35 -265 95t-83 173q0 48 13.5 95t49.5 97t91 87.5t146 61.5t206 24q58 0 112 -7.5t106.5 -25t91 -45t62 -70t23.5 -96.5q0 -30 -16 -100h-309q0 49 -28 74.5 t-75 25.5q-56 0 -84 -26t-28 -62q0 -22 19.5 -35.5t70.5 -23.5q238 -47 326 -112.5t88 -192.5q0 -154 -134.5 -248t-380.5 -94q-81 0 -152.5 11.5t-140.5 39t-110 81.5t-41 130z" />
<glyph unicode="t" horiz-adv-x="905" d="M88 768l35 201l170 37l133 299h262l-53 -299h268l-41 -238h-268l-68 -381q-5 -27 -4 -47q0 -38 15 -54q24 -26 110 -26q93 0 160 12l-29 -258q-102 -26 -295 -26q-184 0 -267 94q-59 68 -59 182q0 45 9 98l72 406h-150z" />
<glyph unicode="u" horiz-adv-x="1181" d="M70 212v21q0 60 14 129l113 644h362l-104 -596q-8 -47 -7 -82q0 -40 24 -60t73 -20q39 0 70.5 21t50.5 56t30 68.5t17 69.5l94 543h367l-177 -1006h-315q-18 35 -18 89q0 31 6 67h-11q-44 -55 -94.5 -92t-96 -52t-75 -20.5t-57.5 -5.5q-98 0 -158.5 28.5t-82.5 79 t-25 118.5z" />
<glyph unicode="v" horiz-adv-x="1208" d="M102 1008h361l59 -361q29 -177 37 -319h23l129 262q72 145 104.5 230.5t52.5 185.5h361q-21 -122 -57 -212.5t-117 -236.5l-310 -561h-436z" />
<glyph unicode="w" horiz-adv-x="1730" d="M102 1008h355l26 -310q19 -206 21 -336h10q33 101 119 291l104 228h381l27 -211q23 -186 31 -297h10l106 250q56 128 75 193.5t38 189.5h346q-21 -158 -43.5 -238.5t-93.5 -216.5l-291 -555h-360l-35 244q-31 214 -37 338h-17q-60 -179 -141 -349l-112 -233h-381z" />
<glyph unicode="x" horiz-adv-x="1179" d="M-72 0l428 524l-231 482h397l90 -277h13l188 277h422l-401 -482l251 -524h-393l-108 332h-19l-221 -332h-416z" />
<glyph unicode="y" horiz-adv-x="1144" d="M84 1008h346l68 -412q30 -181 37 -315h12l153 325q42 88 67 159t34.5 113t25.5 128h338q-3 -18 -11 -67t-11 -65t-11 -55t-15.5 -61t-19.5 -57t-27.5 -69t-35.5 -73l-508 -979h-362l225 422l-98 -4z" />
<glyph unicode="z" horiz-adv-x="1040" d="M-10 0l30 176l562 574h-424l45 254h868l-33 -181l-559 -569h471l-43 -254h-917z" />
<glyph unicode="{" horiz-adv-x="751" d="M109 561l30 180q75 20 113.5 67t52.5 132l41 234q10 59 27.5 104.5t48 85t80.5 61t116 21.5h213l-34 -203h-64q-39 0 -64.5 -26t-31.5 -64l-39 -223q-35 -211 -184 -273l-6 -12q47 -27 72 -76t25 -96.5t-5 -91.5l-58 -315q-6 -35 10 -56.5t58 -21.5h63l-36 -209h-193 q-114 0 -167 73t-32 185l58 323q16 88 -3.5 133.5t-90.5 67.5z" />
<glyph unicode="|" horiz-adv-x="696" d="M184 -217v1683h326v-1683h-326z" />
<glyph unicode="}" horiz-adv-x="751" d="M-31 -221l37 209h64q81 0 96 78l41 268q6 33 18 67.5t33 72.5t55.5 71t77.5 53l-2 12q-47 23 -71 65.5t-25 94t8 113.5l55 270q7 38 -8.5 64t-54.5 26h-64l35 203h213q66 0 108.5 -22t58.5 -59.5t19.5 -87t-8.5 -103.5l-57 -281q-14 -87 7 -133t89 -66l-30 -180 q-81 -23 -117.5 -68t-52.5 -133l-41 -276q-21 -113 -99 -185.5t-192 -72.5h-193z" />
<glyph unicode="~" horiz-adv-x="1376" d="M199 485q67 121 155.5 190.5t171.5 69.5q70 0 188.5 -44t190.5 -44q37 0 73.5 22.5t88.5 78.5l141 -111q-60 -126 -151 -192t-185 -66q-60 0 -120.5 23.5t-120 47t-115.5 23.5q-36 0 -80.5 -25.5t-111.5 -86.5z" />
<glyph unicode="&#xa1;" horiz-adv-x="694" d="M27 -391l204 966h277l-131 -966h-350zM242 805q0 86 61 147.5t143 61.5q64 0 103 -40t39 -104q0 -85 -61.5 -145.5t-141.5 -60.5q-64 0 -103.5 39.5t-39.5 101.5z" />
<glyph unicode="&#xa2;" horiz-adv-x="1376" d="M231 543q0 125 29 227.5t78.5 173.5t118 122t144 77.5t159.5 34.5l53 301h107l-54 -299q106 -3 184.5 -31t127.5 -89t49 -151q0 -50 -19 -118h-319q9 46 -6.5 86t-61.5 47l-88 -496q41 3 74 33.5t51 89.5h320v-21q0 -112 -71 -195.5t-181 -124t-238 -40.5l-53 -305h-107 l54 309q-351 37 -351 369zM555 557q0 -112 72 -129l88 494q-53 -23 -90.5 -85t-53.5 -134t-16 -146z" />
<glyph unicode="&#xa3;" horiz-adv-x="1376" d="M70 0l45 266h104q57 69 81 129.5t24 147.5q0 5 -1 20t-1 23h-142l37 211h88q-4 40 -4 61q0 152 74 265.5t199 171t282 57.5q209 0 334 -75.5t125 -229.5q0 -60 -15 -115h-325q0 153 -144 153q-102 0 -150 -68.5t-48 -176.5q0 -29 2 -43h350l-37 -211h-289 q0 -121 -22.5 -184.5t-79.5 -135.5h631l-45 -266h-1073z" />
<glyph unicode="&#xa4;" horiz-adv-x="1433" d="M186 279l136 135q-52 96 -52 213q0 116 52 215l-136 139l176 174l134 -133q101 53 219 53q122 0 221 -57l133 139q30 -31 88 -88.5t88 -87.5l-135 -137q51 -97 51 -217q0 -94 -53 -215l137 -131q-22 -23 -88 -89.5t-88 -89.5l-135 134q-96 -54 -219 -54q-120 0 -219 54 l-134 -134q-26 26 -85 84t-91 93zM510 627q0 -85 59 -144t144 -59q87 0 147 58.5t60 144.5t-59.5 146.5t-147.5 60.5q-85 0 -144 -60.5t-59 -146.5z" />
<glyph unicode="&#xa5;" horiz-adv-x="1404" d="M180 350l23 129h289l-29 82h-246l23 129h178l-221 639h389l69 -229q32 -102 78 -326h12q12 20 36.5 62t34 58.5t28.5 48t31.5 51t30.5 46.5t38 54l162 239h381l-461 -643h188l-22 -129h-256l-59 -82h301l-23 -129h-301l-61 -350h-379l61 350h-295z" />
<glyph unicode="&#xa6;" horiz-adv-x="806" d="M225 -213v786h338v-786h-338zM225 682v758h338v-758h-338z" />
<glyph unicode="&#xa7;" horiz-adv-x="1159" d="M72 33q0 71 16 94h281q0 -57 38.5 -90t94.5 -33q83 0 126.5 41t43.5 94q0 45 -38.5 70.5t-103.5 44.5q-76 21 -134.5 46t-114.5 61.5t-86.5 88t-30.5 113.5q0 73 43 149t123 124q-78 56 -78 178q0 48 13.5 97t49 102t89.5 93t144 66.5t204 26.5q176 0 275 -69t99 -191 q0 -67 -18 -97h-272q-1 61 -37 92t-86 31q-61 0 -103.5 -35t-42.5 -83q0 -36 38 -64t93 -43q90 -26 153 -52t117.5 -62.5t81.5 -86t27 -112.5q0 -74 -41 -148.5t-127 -126.5q88 -75 88 -194q0 -46 -15 -95t-54 -102.5t-97 -95.5t-153.5 -69t-214.5 -27q-181 0 -286 70.5 t-105 193.5zM455 604q0 -105 229 -145q96 59 96 123q0 55 -63 94.5t-156 58.5q-45 -22 -75.5 -57t-30.5 -74z" />
<glyph unicode="&#xa8;" horiz-adv-x="1169" d="M352 1327q12 68 66.5 115t120.5 47q65 0 102 -47.5t25 -114.5t-66 -114.5t-119 -47.5q-66 0 -103.5 47t-25.5 115zM788 1327q12 68 66.5 115t120.5 47t103.5 -47t25.5 -115t-66 -115t-120 -47t-104 47.5t-26 114.5z" />
<glyph unicode="&#xa9;" horiz-adv-x="1689" d="M113 729q0 161 58.5 301.5t158 238t234.5 153t284 55.5q148 0 282 -55.5t233 -153t157.5 -238t58.5 -301.5t-58.5 -302t-157 -239.5t-233 -155.5t-282.5 -57q-222 0 -390 97t-256.5 267.5t-88.5 389.5zM285 729q0 -165 67.5 -300t197.5 -216.5t298 -81.5q165 0 293 81.5 t195 217t67 299.5q0 161 -68 295t-196 214.5t-291 80.5q-160 0 -290 -80t-201.5 -215t-71.5 -295zM408 723q0 -449 450 -449q71 0 138 17t124 50t92 89t35 127q0 31 -4 47h-239q0 -65 -44 -105t-114 -40q-97 0 -140.5 64.5t-43.5 199.5q0 272 178 272q69 0 107.5 -33 t39.5 -98h240q2 10 2 33q0 134 -110.5 210.5t-270.5 76.5q-92 0 -170.5 -28t-139.5 -83t-95.5 -145t-34.5 -205z" />
<glyph unicode="&#xaa;" horiz-adv-x="876" d="M121 786q0 213 102 345.5t260 132.5q133 0 187 -99l10 4q9 42 27 80h239l-119 -678h-243q-21 21 -21 70v12h-8q-35 -43 -92 -67.5t-119 -24.5q-223 0 -223 225zM424 836q0 -45 17.5 -64.5t56.5 -19.5q35 0 62 37.5t39.5 87.5t12.5 98q0 86 -61 86q-57 0 -92 -62.5 t-35 -162.5z" />
<glyph unicode="&#xab;" horiz-adv-x="1218" d="M115 453l12 63l489 463l129 -113l-319 -383l192 -385l-178 -118zM584 453l12 63l491 463l130 -113l-320 -383l193 -385l-179 -118z" />
<glyph unicode="&#xac;" horiz-adv-x="1376" d="M240 442l43 250h886l-96 -547h-276l53 297h-610z" />
<glyph unicode="&#xad;" horiz-adv-x="1030" d="M162 420l45 262h690l-45 -262h-690z" />
<glyph unicode="&#xae;" horiz-adv-x="1187" d="M68 920q0 140 69 258t186 186t255 68q220 0 364.5 -148t144.5 -364q0 -139 -67.5 -256t-184.5 -184.5t-257 -67.5q-152 0 -269 68t-179 183t-62 257zM203 920q0 -159 106.5 -272t268.5 -113q164 0 270 113t106 272t-110.5 274t-265.5 115q-159 0 -267 -114.5t-108 -274.5 zM387 649v574h201q93 0 150 -46.5t57 -138.5q0 -43 -26.5 -84t-72.5 -67l109 -238h-141l-99 225h-49v-225h-129zM516 987h74q63 0 63 53q0 30 -18 46t-45 16h-74v-115z" />
<glyph unicode="&#xaf;" horiz-adv-x="1155" d="M371 1219l41 227h673l-41 -227h-673z" />
<glyph unicode="&#xb0;" horiz-adv-x="894" d="M92 1016q0 144 103.5 241t253.5 97q142 0 245 -97.5t103 -240.5q0 -139 -104 -240.5t-244 -101.5q-165 0 -261 98.5t-96 243.5zM289 1016q0 -66 42 -111t113 -45q62 0 108 46.5t46 109.5q0 60 -46 103.5t-108 43.5q-63 0 -109 -43t-46 -104z" />
<glyph unicode="&#xb1;" horiz-adv-x="1376" d="M156 0l41 240h899l-41 -240h-899zM264 571l43 248h309l48 266h272l-47 -266h305l-43 -248h-305l-47 -258h-273l47 258h-309z" />
<glyph unicode="&#xb2;" horiz-adv-x="827" d="M80 754l12 86q17 118 104 198t259 168q70 35 104.5 65.5t34.5 61.5q0 49 -62 49q-38 0 -74 -24t-50 -70h-211v19q0 124 112.5 204t261.5 80q88 0 151.5 -19t97.5 -52.5t49.5 -71t15.5 -82.5q0 -122 -156 -233q-60 -44 -167.5 -101.5t-127.5 -75.5h385l-35 -202h-704z" />
<glyph unicode="&#xb3;" horiz-adv-x="811" d="M88 940q0 43 16 84h226q-2 -6 -2 -18q0 -31 26 -49.5t66 -18.5q58 0 92.5 30.5t34.5 73.5q0 78 -109 78q-23 0 -73 -8l-29 137l172 115l-2 8h-291l35 199h637l-33 -182l-197 -119l2 -10q92 -21 131 -67t39 -124q0 -139 -118 -232.5t-314 -93.5q-55 0 -107 11t-98.5 33 t-75 61.5t-28.5 91.5z" />
<glyph unicode="&#xb4;" horiz-adv-x="1157" d="M520 1243l404 377l153 -211l-436 -299z" />
<glyph unicode="&#xb5;" horiz-adv-x="1167" d="M-53 -420q123 708 250 1426h362l-110 -625q-4 -34 -3.5 -63.5t21.5 -49.5t63 -20q39 0 70 18t49 47t28.5 57.5t14.5 57.5l103 578h364l-176 -1006h-313q-30 52 -13 156h-10q-62 -70 -129 -113q-64 -39 -137 -47l-74 -416h-360z" />
<glyph unicode="&#xb6;" horiz-adv-x="1163" d="M170 868q0 119 43 219.5t115 166.5t165 102.5t193 36.5h232l-158 -897h-232q-168 0 -263 103.5t-95 268.5zM418 -393l35 184q163 9 228.5 59t86.5 168l242 1375h198l-245 -1397q-12 -66 -28.5 -117.5t-50 -106.5t-80 -91t-120.5 -59t-170 -23q-49 0 -96 8z" />
<glyph unicode="&#xb7;" horiz-adv-x="661" d="M123 575q0 91 61 152t150 61q91 0 152 -61t61 -152q0 -89 -61 -149.5t-152 -60.5q-89 0 -150 60.5t-61 149.5z" />
<glyph unicode="&#xb8;" horiz-adv-x="1155" d="M129 -457l57 119q78 -16 144 -16q151 0 151 88q0 53 -65 53q-46 0 -90 -29l-72 58l188 250h148l-109 -140q74 -1 126.5 -17t79 -43.5t37.5 -55t11 -58.5q0 -103 -92 -176.5t-264 -73.5q-131 0 -250 41z" />
<glyph unicode="&#xb9;" horiz-adv-x="782" d="M72 754l32 194h195l70 391q-29 -3 -86 -11t-82 -11l30 178l254 80h203l-110 -627h198l-33 -194h-671z" />
<glyph unicode="&#xba;" horiz-adv-x="878" d="M127 836q0 195 119 309.5t334 114.5q87 0 151 -22t100 -61.5t53 -88.5t17 -109q0 -189 -110.5 -302.5t-333.5 -113.5q-330 0 -330 273zM410 848q0 -92 75 -92q54 0 91.5 54t37.5 157q0 98 -75 98q-59 0 -94 -64t-35 -153z" />
<glyph unicode="&#xbb;" horiz-adv-x="1218" d="M55 98l326 385l-184 383l170 113l327 -463l-12 -63l-492 -473zM524 98l328 385l-184 383l170 113l325 -463l-12 -63l-489 -473z" />
<glyph unicode="&#xbc;" horiz-adv-x="1996" d="M102 569l33 195h195l69 391q-29 -3 -86 -11t-82 -11l31 178l254 80h203l-111 -627h199l-33 -195h-672zM438 -57l1032 1503h213l-1036 -1503h-209zM1044 166l31 182l475 471h252l-80 -459h119l-35 -194h-118l-29 -166h-268l28 166h-375zM1315 360h139l27 160z" />
<glyph unicode="&#xbd;" horiz-adv-x="1996" d="M80 569l33 195h194l70 391q-29 -3 -86 -11t-82 -11l31 178l254 80h202l-110 -627h198l-32 -195h-672zM403 -57l1033 1503h213l-1037 -1503h-209zM1104 0l12 86q17 118 104 198.5t259 168.5q139 69 139 127q0 49 -62 49q-38 0 -74 -24t-50 -70h-211v18q0 124 112.5 204.5 t261.5 80.5q88 0 151.5 -19t97.5 -52.5t49.5 -71.5t15.5 -83q0 -122 -156 -233q-60 -44 -167.5 -101t-127.5 -75h385l-35 -203h-704z" />
<glyph unicode="&#xbe;" horiz-adv-x="1996" d="M135 756q0 40 17 84h225q-2 -6 -2 -19q0 -31 26 -49t66 -18q58 0 92.5 30.5t34.5 73.5q0 78 -109 78q-23 0 -73 -8l-29 137l172 115l-2 8h-291l35 198h637l-33 -182l-196 -119l2 -10q93 -21 131.5 -66.5t38.5 -123.5q0 -139 -118.5 -232.5t-314.5 -93.5q-55 0 -107 11 t-98.5 33t-75 61.5t-28.5 91.5zM424 -57l1032 1503h213l-1036 -1503h-209zM1034 166l31 182l475 471h252l-80 -459h119l-35 -194h-119l-28 -166h-269l29 166h-375zM1305 360h139l26 160z" />
<glyph unicode="&#xbf;" horiz-adv-x="1056" d="M-70 -154q0 68 24.5 126.5t64 102t87.5 83.5t98.5 78.5t93.5 78.5t75 93t41 112l8 53h293l-10 -65q-12 -73 -40 -134.5t-64 -102.5t-76.5 -77t-79 -65.5t-69.5 -59t-50 -67.5t-19 -82q0 -108 121 -108q61 0 114 45.5t74 146.5h326q0 -88 -33.5 -163t-89 -127t-128 -88.5 t-151 -54t-157.5 -17.5q-227 2 -340 70.5t-113 221.5zM451 803q0 86 61 147.5t145 61.5q63 0 101.5 -40.5t38.5 -103.5q0 -84 -62.5 -145t-140.5 -61q-64 0 -103.5 39.5t-39.5 101.5z" />
<glyph unicode="&#xc0;" horiz-adv-x="1460" d="M-74 0l760 1391h422l240 -1391h-381l-35 299h-471l-152 -299h-383zM516 1671l146 234l366 -287l-115 -148zM610 571h277l-19 187q-17 144 -20 295h-19q-61 -154 -127 -295z" />
<glyph unicode="&#xc1;" horiz-adv-x="1460" d="M-74 0l760 1391h422l240 -1391h-381l-35 299h-471l-152 -299h-383zM610 571h277l-19 187q-17 144 -20 295h-19q-61 -154 -127 -295zM786 1642l451 287l119 -239l-488 -199z" />
<glyph unicode="&#xc2;" horiz-adv-x="1460" d="M-74 0l760 1391h422l240 -1391h-381l-35 299h-471l-152 -299h-383zM528 1579l351 307h213l221 -307l-133 -115l-222 203l-335 -203zM610 571h277l-19 187q-17 144 -20 295h-19q-61 -154 -127 -295z" />
<glyph unicode="&#xc3;" horiz-adv-x="1460" d="M-74 0l760 1391h422l240 -1391h-381l-35 299h-471l-152 -299h-383zM455 1673q62 114 131 167.5t157 53.5q47 0 145.5 -37.5t145.5 -37.5q42 0 78 15t86 62l119 -90q-46 -104 -124 -165.5t-163 -61.5q-53 0 -149 39t-136 39q-26 0 -45 -3t-54 -21.5t-68 -53.5zM610 571 h277l-19 187q-17 144 -20 295h-19q-61 -154 -127 -295z" />
<glyph unicode="&#xc4;" horiz-adv-x="1460" d="M-74 0l760 1391h422l240 -1391h-381l-35 299h-471l-152 -299h-383zM557 1622q0 75 57.5 131.5t128.5 56.5q58 0 94.5 -37.5t36.5 -93.5q0 -78 -56 -135t-130 -57q-58 0 -94.5 38t-36.5 97zM610 571h277l-19 187q-17 144 -20 295h-19q-61 -154 -127 -295zM993 1622 q0 75 58 131.5t131 56.5q56 0 92.5 -37.5t36.5 -93.5q0 -77 -56 -134.5t-129 -57.5q-59 0 -96 38t-37 97z" />
<glyph unicode="&#xc5;" horiz-adv-x="1460" d="M-74 0l760 1391h422l240 -1391h-381l-35 299h-471l-152 -299h-383zM610 571h277l-19 187q-17 144 -20 295h-19q-61 -154 -127 -295zM713 1651q0 115 85.5 204t194.5 89q88 0 142.5 -57.5t54.5 -143.5q0 -119 -85 -202t-198 -83q-88 0 -141 54t-53 139zM879 1683 q0 -25 17 -43t40 -18q33 0 58.5 28t25.5 62q0 27 -16.5 45.5t-40.5 18.5q-29 0 -56.5 -29t-27.5 -64z" />
<glyph unicode="&#xc6;" horiz-adv-x="2072" d="M-57 -2l958 1388h1182l-31 -286h-635l-24 -238h577l-31 -280h-577l-31 -295h649l-28 -287h-1000l33 319h-469l-213 -321h-360zM717 588h297l53 510l-10 2q-53 -84 -228 -344z" />
<glyph unicode="&#xc7;" horiz-adv-x="1431" d="M125 498q0 146 28 278t89.5 248t151 200.5t220.5 133.5t291 49q144 0 261.5 -41.5t191.5 -128.5t74 -207q0 -53 -17 -123h-362q4 28 4 43q0 81 -50 122.5t-141 41.5q-156 0 -257 -166.5t-101 -429.5q0 -125 52.5 -185.5t166.5 -60.5q105 0 181.5 62t95.5 164h358 q0 -24 -8 -70q-20 -114 -81 -201.5t-149.5 -139.5t-193 -78.5t-219.5 -26.5q-294 0 -440 126.5t-146 389.5zM313 -477l58 119q83 -17 143 -17q152 0 152 88q0 27 -18.5 40.5t-47.5 13.5q-46 0 -90 -29l-72 57l189 250h147l-108 -139q74 -1 126.5 -17t79 -43.5t37.5 -55 t11 -58.5q0 -102 -92.5 -176t-264.5 -74q-131 0 -250 41z" />
<glyph unicode="&#xc8;" horiz-adv-x="1265" d="M41 0l244 1386h1024l-52 -286h-651l-41 -238h604l-51 -284h-604l-51 -293h688l-49 -285h-1061zM512 1671l145 234l367 -287l-115 -148z" />
<glyph unicode="&#xc9;" horiz-adv-x="1265" d="M41 0l244 1386h1024l-52 -286h-651l-41 -238h604l-51 -284h-604l-51 -293h688l-49 -285h-1061zM610 1642l451 287l119 -239l-488 -199z" />
<glyph unicode="&#xca;" horiz-adv-x="1265" d="M41 0l244 1386h1024l-52 -286h-651l-41 -238h604l-51 -284h-604l-51 -293h688l-49 -285h-1061zM406 1579l350 307h213l221 -307l-133 -115l-221 203l-336 -203z" />
<glyph unicode="&#xcb;" horiz-adv-x="1265" d="M41 0l244 1386h1024l-52 -286h-651l-41 -238h604l-51 -284h-604l-51 -293h688l-49 -285h-1061zM436 1622q0 75 58 131.5t129 56.5q58 0 94.5 -37.5t36.5 -93.5q0 -77 -56.5 -134.5t-130.5 -57.5q-58 0 -94.5 38t-36.5 97zM872 1622q0 75 58 131.5t131 56.5 q56 0 92.5 -37.5t36.5 -93.5q0 -77 -55.5 -134.5t-128.5 -57.5q-60 0 -97 38t-37 97z" />
<glyph unicode="&#xcc;" horiz-adv-x="663" d="M61 0l244 1386h375l-244 -1386h-375zM115 1671l145 234l367 -287l-115 -148z" />
<glyph unicode="&#xcd;" horiz-adv-x="663" d="M61 0l244 1386h375l-244 -1386h-375zM377 1642l450 287l119 -239l-487 -199z" />
<glyph unicode="&#xce;" horiz-adv-x="663" d="M61 0l244 1386h375l-244 -1386h-375zM123 1579l350 307h213l221 -307l-133 -115l-221 203l-336 -203z" />
<glyph unicode="&#xcf;" horiz-adv-x="663" d="M61 0l244 1386h375l-244 -1386h-375zM154 1622q0 75 57.5 131.5t128.5 56.5q58 0 94.5 -37.5t36.5 -93.5q0 -78 -56 -135t-130 -57q-58 0 -94.5 38t-36.5 97zM590 1622q0 75 57.5 131.5t130.5 56.5q56 0 92.5 -37.5t36.5 -93.5q0 -77 -55.5 -134.5t-128.5 -57.5 q-59 0 -96 38t-37 97z" />
<glyph unicode="&#xd0;" horiz-adv-x="1476" d="M51 602l37 201h684l-37 -201h-684zM57 0l244 1386h514q97 0 181.5 -16.5t163 -56.5t134 -101t88.5 -156.5t33 -217.5q0 -244 -104 -435t-290.5 -297t-424.5 -106h-539zM481 283h90q58 0 117 15.5t120.5 53t109 93.5t78 145.5t30.5 200.5q0 81 -20.5 140.5t-50.5 91.5 t-75.5 51.5t-83.5 24.5t-85 5h-84z" />
<glyph unicode="&#xd1;" horiz-adv-x="1478" d="M37 0l244 1386h342l208 -405q123 -236 175 -377h18l135 782h363l-244 -1386h-320l-245 479q-86 157 -158 330l-14 -2l-140 -807h-364zM518 1636q62 114 131.5 168t157.5 54q47 0 145.5 -38t145.5 -38q42 0 78 15.5t86 62.5l118 -91q-46 -104 -123.5 -165.5t-162.5 -61.5 q-53 0 -149 39t-136 39q-26 0 -45 -3t-54.5 -21.5t-68.5 -53.5z" />
<glyph unicode="&#xd2;" horiz-adv-x="1593" d="M127 516q0 147 30.5 278.5t95 244t158 194t226.5 128t293 46.5q134 0 239.5 -32t173 -86t111.5 -130t62 -158.5t18 -177.5q0 -78 -11 -155.5t-37.5 -161.5t-67 -158.5t-104 -142t-143.5 -116t-190.5 -77t-239.5 -28.5q-134 0 -239 26.5t-175 73t-115.5 114.5t-65 146 t-19.5 172zM508 539q0 -281 254 -281q164 0 277.5 157.5t113.5 415.5q0 134 -58.5 214.5t-181.5 80.5q-85 0 -155.5 -38.5t-115.5 -99.5t-76.5 -140t-44.5 -156.5t-13 -152.5zM629 1671l145 234l367 -287l-115 -148z" />
<glyph unicode="&#xd3;" horiz-adv-x="1593" d="M127 516q0 147 30.5 278.5t95 244t158 194t226.5 128t293 46.5q134 0 239.5 -32t173 -86t111.5 -130t62 -158.5t18 -177.5q0 -78 -11 -155.5t-37.5 -161.5t-67 -158.5t-104 -142t-143.5 -116t-190.5 -77t-239.5 -28.5q-134 0 -239 26.5t-175 73t-115.5 114.5t-65 146 t-19.5 172zM508 539q0 -281 254 -281q164 0 277.5 157.5t113.5 415.5q0 134 -58.5 214.5t-181.5 80.5q-85 0 -155.5 -38.5t-115.5 -99.5t-76.5 -140t-44.5 -156.5t-13 -152.5zM834 1642l450 287l119 -239l-488 -199z" />
<glyph unicode="&#xd4;" horiz-adv-x="1593" d="M127 516q0 147 30.5 278.5t95 244t158 194t226.5 128t293 46.5q134 0 239.5 -32t173 -86t111.5 -130t62 -158.5t18 -177.5q0 -78 -11 -155.5t-37.5 -161.5t-67 -158.5t-104 -142t-143.5 -116t-190.5 -77t-239.5 -28.5q-134 0 -239 26.5t-175 73t-115.5 114.5t-65 146 t-19.5 172zM508 539q0 -281 254 -281q164 0 277.5 157.5t113.5 415.5q0 134 -58.5 214.5t-181.5 80.5q-85 0 -155.5 -38.5t-115.5 -99.5t-76.5 -140t-44.5 -156.5t-13 -152.5zM604 1579l350 307h213l222 -307l-134 -115l-221 203l-336 -203z" />
<glyph unicode="&#xd5;" horiz-adv-x="1593" d="M127 516q0 147 30.5 278.5t95 244t158 194t226.5 128t293 46.5q134 0 239.5 -32t173 -86t111.5 -130t62 -158.5t18 -177.5q0 -78 -11 -155.5t-37.5 -161.5t-67 -158.5t-104 -142t-143.5 -116t-190.5 -77t-239.5 -28.5q-134 0 -239 26.5t-175 73t-115.5 114.5t-65 146 t-19.5 172zM508 539q0 -281 254 -281q164 0 277.5 157.5t113.5 415.5q0 134 -58.5 214.5t-181.5 80.5q-85 0 -155.5 -38.5t-115.5 -99.5t-76.5 -140t-44.5 -156.5t-13 -152.5zM580 1640q62 114 131.5 168t156.5 54q47 0 145.5 -38t145.5 -38q42 0 78 15.5t86 62.5l119 -90 q-46 -104 -124 -166t-163 -62q-53 0 -149 39t-136 39q-26 0 -45 -3t-54.5 -21.5t-68.5 -53.5z" />
<glyph unicode="&#xd6;" horiz-adv-x="1593" d="M127 516q0 147 30.5 278.5t95 244t158 194t226.5 128t293 46.5q134 0 239.5 -32t173 -86t111.5 -130t62 -158.5t18 -177.5q0 -78 -11 -155.5t-37.5 -161.5t-67 -158.5t-104 -142t-143.5 -116t-190.5 -77t-239.5 -28.5q-134 0 -239 26.5t-175 73t-115.5 114.5t-65 146 t-19.5 172zM508 539q0 -281 254 -281q164 0 277.5 157.5t113.5 415.5q0 134 -58.5 214.5t-181.5 80.5q-85 0 -155.5 -38.5t-115.5 -99.5t-76.5 -140t-44.5 -156.5t-13 -152.5zM637 1634q0 75 58 132t128 57q58 0 94.5 -37.5t36.5 -93.5q0 -78 -56 -135.5t-130 -57.5 q-58 0 -94.5 38t-36.5 97zM1073 1634q0 75 58 132t131 57q56 0 92.5 -37.5t36.5 -93.5q0 -77 -56 -135t-129 -58q-59 0 -96 38t-37 97z" />
<glyph unicode="&#xd7;" horiz-adv-x="1376" d="M242 313l293 256l-201 258l198 177l203 -259l295 259l137 -175l-293 -260l199 -258l-199 -174l-200 258l-293 -256z" />
<glyph unicode="&#xd8;" horiz-adv-x="1593" d="M51 66l152 143q-76 123 -76 307q0 147 30.5 278.5t95 244t158 194t226.5 128t293 46.5q265 0 420 -125l139 131l94 -104l-141 -133q92 -139 92 -353q0 -78 -11 -155.5t-37.5 -161.5t-67 -158.5t-104 -142t-143.5 -116t-190.5 -77t-239.5 -28.5q-288 0 -440 118l-156 -147 zM508 496l588 548q-63 82 -183 82q-85 0 -155.5 -38.5t-115.5 -99.5t-76.5 -140t-44.5 -156.5t-13 -152.5v-43zM559 344q62 -86 203 -86q164 0 277.5 157.5t113.5 415.5q0 28 -4 68z" />
<glyph unicode="&#xd9;" horiz-adv-x="1499" d="M143 596l142 793h372l-145 -824q-15 -74 -8.5 -127t22 -87t47.5 -54t67.5 -27.5t82.5 -7.5q48 0 93 16t87.5 50t74.5 95.5t46 143.5l145 822h369l-141 -807q-19 -108 -51 -194.5t-88 -163t-133 -128t-188.5 -81t-250.5 -29.5q-654 0 -543 610zM623 1671l145 234l367 -287 l-115 -148z" />
<glyph unicode="&#xda;" horiz-adv-x="1499" d="M143 596l142 793h372l-145 -824q-15 -74 -8.5 -127t22 -87t47.5 -54t67.5 -27.5t82.5 -7.5q48 0 93 16t87.5 50t74.5 95.5t46 143.5l145 822h369l-141 -807q-19 -108 -51 -194.5t-88 -163t-133 -128t-188.5 -81t-250.5 -29.5q-654 0 -543 610zM766 1642l451 287l118 -239 l-487 -199z" />
<glyph unicode="&#xdb;" horiz-adv-x="1499" d="M143 596l142 793h372l-145 -824q-15 -74 -8.5 -127t22 -87t47.5 -54t67.5 -27.5t82.5 -7.5q48 0 93 16t87.5 50t74.5 95.5t46 143.5l145 822h369l-141 -807q-19 -108 -51 -194.5t-88 -163t-133 -128t-188.5 -81t-250.5 -29.5q-654 0 -543 610zM561 1579l350 307h213 l222 -307l-134 -115l-221 203l-336 -203z" />
<glyph unicode="&#xdc;" horiz-adv-x="1499" d="M143 596l142 793h372l-145 -824q-15 -74 -8.5 -127t22 -87t47.5 -54t67.5 -27.5t82.5 -7.5q48 0 93 16t87.5 50t74.5 95.5t46 143.5l145 822h369l-141 -807q-19 -108 -51 -194.5t-88 -163t-133 -128t-188.5 -81t-250.5 -29.5q-654 0 -543 610zM575 1624q0 75 58 131.5 t129 56.5q58 0 94.5 -37.5t36.5 -93.5q0 -78 -56 -135t-130 -57q-58 0 -95 38t-37 97zM1012 1624q0 75 57.5 131.5t130.5 56.5q56 0 92.5 -37.5t36.5 -93.5q0 -77 -55.5 -134.5t-128.5 -57.5q-59 0 -96 38t-37 97z" />
<glyph unicode="&#xdd;" horiz-adv-x="1349" d="M172 1386h373l86 -286q54 -172 74 -336h12q111 206 196 330l201 292h387l-641 -907l-84 -479h-373l82 467zM702 1642l451 287l119 -239l-488 -199z" />
<glyph unicode="&#xde;" horiz-adv-x="1269" d="M53 0l242 1389h367l-37 -211h206q445 0 445 -392q0 -46 -9.5 -94.5t-31 -100.5t-54 -99t-81.5 -90t-109.5 -74t-143 -49.5t-177.5 -18.5h-207l-45 -260h-365zM510 524h184q38 0 77 13.5t75 40t59 73t23 105.5q0 79 -47 119t-121 40h-182z" />
<glyph unicode="&#xdf;" horiz-adv-x="1277" d="M-281 -367l43 258q72 -10 111 -10q87 0 125.5 48.5t60.5 179.5l146 866q41 245 191.5 369t367.5 124q107 0 195.5 -28.5t145.5 -76t88 -108t32 -125.5q0 -92 -51.5 -177t-137.5 -144q-24 -17 -37.5 -35.5t-13.5 -30.5q3 -35 68 -100q149 -149 149 -295q0 -77 -28 -144 t-83.5 -121.5t-148.5 -86t-213 -31.5q-113 0 -240 31l37 246q66 -17 131 -17q78 0 130.5 29t52.5 96t-68 135q-74 74 -109.5 132.5t-35.5 113.5q0 64 42 124t136 136q63 51 63 133q0 39 -33 68t-92 29q-71 0 -114.5 -64.5t-65.5 -193.5l-164 -957q-16 -93 -43.5 -161.5 t-75.5 -125.5t-126 -86.5t-185 -29.5q-143 0 -250 30z" />
<glyph unicode="&#xe0;" horiz-adv-x="1232" d="M74 342q0 91 17 182t56.5 182.5t97 161t147.5 113t200 43.5q101 0 169.5 -39.5t96.5 -110.5h10q15 80 60 134h293l-177 -1008h-301q-22 58 -8 141h-12q-133 -155 -340 -155q-162 0 -235.5 90t-73.5 266zM397 1399l160 215l379 -350l-123 -140zM442 371q0 -144 127 -144 q96 0 160 110t64 275q0 154 -125 154q-96 0 -161 -104.5t-65 -290.5z" />
<glyph unicode="&#xe1;" horiz-adv-x="1232" d="M74 342q0 91 17 182t56.5 182.5t97 161t147.5 113t200 43.5q101 0 169.5 -39.5t96.5 -110.5h10q15 80 60 134h293l-177 -1008h-301q-22 58 -8 141h-12q-133 -155 -340 -155q-162 0 -235.5 90t-73.5 266zM442 371q0 -144 127 -144q96 0 160 110t64 275q0 154 -125 154 q-96 0 -161 -104.5t-65 -290.5zM567 1243l404 377l153 -211l-436 -299z" />
<glyph unicode="&#xe2;" horiz-adv-x="1232" d="M74 342q0 91 17 182t56.5 182.5t97 161t147.5 113t200 43.5q101 0 169.5 -39.5t96.5 -110.5h10q15 80 60 134h293l-177 -1008h-301q-22 58 -8 141h-12q-133 -155 -340 -155q-162 0 -235.5 90t-73.5 266zM354 1235l363 348h213l231 -352l-153 -111l-234 217l-321 -217z M442 371q0 -144 127 -144q96 0 160 110t64 275q0 154 -125 154q-96 0 -161 -104.5t-65 -290.5z" />
<glyph unicode="&#xe3;" horiz-adv-x="1232" d="M74 342q0 91 17 182t56.5 182.5t97 161t147.5 113t200 43.5q101 0 169.5 -39.5t96.5 -110.5h10q15 80 60 134h293l-177 -1008h-301q-22 58 -8 141h-12q-133 -155 -340 -155q-162 0 -235.5 90t-73.5 266zM326 1272q62 114 131 167.5t157 53.5q47 0 145.5 -38t145.5 -38 q42 0 78 15.5t86 62.5l119 -90q-46 -104 -124 -165.5t-163 -61.5q-53 0 -149 38.5t-136 38.5q-26 0 -45 -2.5t-54 -21t-68 -53.5zM442 371q0 -144 127 -144q96 0 160 110t64 275q0 154 -125 154q-96 0 -161 -104.5t-65 -290.5z" />
<glyph unicode="&#xe4;" horiz-adv-x="1232" d="M74 342q0 91 17 182t56.5 182.5t97 161t147.5 113t200 43.5q101 0 169.5 -39.5t96.5 -110.5h10q15 80 60 134h293l-177 -1008h-301q-22 58 -8 141h-12q-133 -155 -340 -155q-162 0 -235.5 90t-73.5 266zM389 1327q12 68 66 115t120 47q65 0 102 -47.5t25 -114.5 t-65.5 -114.5t-118.5 -47.5q-66 0 -103.5 47t-25.5 115zM442 371q0 -144 127 -144q96 0 160 110t64 275q0 154 -125 154q-96 0 -161 -104.5t-65 -290.5zM825 1327q12 68 66.5 115t120.5 47t103.5 -47t25.5 -115t-66.5 -115t-120.5 -47t-103.5 47t-25.5 115z" />
<glyph unicode="&#xe5;" horiz-adv-x="1232" d="M74 342q0 91 17 182t56.5 182.5t97 161t147.5 113t200 43.5q101 0 169.5 -39.5t96.5 -110.5h10q15 80 60 134h293l-177 -1008h-301q-22 58 -8 141h-12q-133 -155 -340 -155q-162 0 -235.5 90t-73.5 266zM442 371q0 -144 127 -144q96 0 160 110t64 275q0 154 -125 154 q-96 0 -161 -104.5t-65 -290.5zM528 1329q0 115 86 204t195 89q88 0 142.5 -57.5t54.5 -143.5q0 -119 -85 -201.5t-198 -82.5q-88 0 -141.5 54t-53.5 138zM694 1362q0 -25 17.5 -43.5t40.5 -18.5q33 0 58.5 28.5t25.5 62.5q0 26 -16.5 44.5t-41.5 18.5q-29 0 -56.5 -28.5 t-27.5 -63.5z" />
<glyph unicode="&#xe6;" horiz-adv-x="1751" d="M37 225q0 90 32.5 159t84 111t124.5 68.5t146 36.5t156 10h135q4 36 4 49q0 113 -103 113q-93 0 -124 -84h-304q-2 12 -2 39q0 69 32 122.5t80.5 85t112.5 52t121 28t113 7.5q100 0 188.5 -25.5t131.5 -68.5q145 94 346 94q180 0 279.5 -76.5t99.5 -195.5 q0 -63 -14.5 -112.5t-53.5 -95.5t-103 -76.5t-167.5 -49t-241.5 -19.5h-68q-6 -30 -6 -57q0 -111 119 -111q117 0 160 121h301q2 -14 2 -43q0 -105 -62.5 -179t-166.5 -108t-240 -34q-293 0 -399 159q-167 -163 -441 -163q-146 0 -209 59t-63 184zM395 311q0 -42 25.5 -61 t64.5 -19q56 0 113 20t96 50q-10 74 -2 125q-62 4 -84 4q-213 0 -213 -119zM1069 596h72q101 6 147.5 37t46.5 72q0 33 -25 50t-65 17q-78 0 -121 -49.5t-55 -126.5z" />
<glyph unicode="&#xe7;" horiz-adv-x="1155" d="M80 373q0 132 32 240t87.5 183t131.5 126t162.5 74.5t182.5 23.5q188 0 298.5 -75t110.5 -220q0 -52 -14 -107h-332q0 4 1 13.5t1 13.5q0 62 -31 88.5t-69 26.5q-57 0 -100 -41t-65 -104.5t-32 -124.5t-10 -117q0 -65 28 -96t95 -31q44 0 87.5 30.5t64.5 98.5h331v-15 q0 -76 -30 -139.5t-79 -105.5t-114.5 -71.5t-134 -43.5t-139.5 -16l-45 -58q74 -1 126.5 -17t79 -43.5t37.5 -55t11 -58.5q0 -102 -92.5 -176t-264.5 -74q-131 0 -250 41l58 119q78 -16 143 -16q152 0 152 88q0 26 -18.5 39.5t-47.5 13.5q-46 0 -90 -29l-72 58l133 176 q-163 23 -243 117t-80 264z" />
<glyph unicode="&#xe8;" horiz-adv-x="1146" d="M86 369q0 295 169.5 474t451.5 179q180 0 279 -76.5t99 -195.5q0 -64 -16 -114.5t-58 -96.5t-109.5 -76t-174.5 -48t-250 -18h-39q-6 -30 -6 -57q0 -111 119 -111q117 0 160 121h301q2 -14 2 -43q0 -105 -62.5 -179t-166.5 -108t-240 -34q-233 0 -346 99.5t-113 283.5z M401 1399l160 215l379 -350l-123 -140zM465 596h35q120 0 175.5 32.5t55.5 76.5q0 33 -25 50t-65 17q-78 0 -121 -49.5t-55 -126.5z" />
<glyph unicode="&#xe9;" horiz-adv-x="1146" d="M86 369q0 295 169.5 474t451.5 179q180 0 279 -76.5t99 -195.5q0 -64 -16 -114.5t-58 -96.5t-109.5 -76t-174.5 -48t-250 -18h-39q-6 -30 -6 -57q0 -111 119 -111q117 0 160 121h301q2 -14 2 -43q0 -105 -62.5 -179t-166.5 -108t-240 -34q-233 0 -346 99.5t-113 283.5z M465 596h35q120 0 175.5 32.5t55.5 76.5q0 33 -25 50t-65 17q-78 0 -121 -49.5t-55 -126.5zM530 1243l404 377l153 -211l-436 -299z" />
<glyph unicode="&#xea;" horiz-adv-x="1146" d="M86 369q0 -184 113 -283.5t346 -99.5q136 0 240 34t166.5 108t62.5 179q0 29 -2 43h-301q-43 -121 -160 -121q-119 0 -119 111q0 27 6 57h39q143 0 250 18t174.5 48t109.5 76t58 96.5t16 114.5q0 119 -99 195.5t-279 76.5q-282 0 -451.5 -179t-169.5 -474zM332 1235 l362 348h213l232 -352l-154 -111l-233 217l-322 -217zM465 596q12 77 55 126.5t121 49.5q40 0 65 -17t25 -50q0 -44 -55.5 -76.5t-175.5 -32.5h-35z" />
<glyph unicode="&#xeb;" horiz-adv-x="1146" d="M86 369q0 -184 113 -283.5t346 -99.5q136 0 240 34t166.5 108t62.5 179q0 29 -2 43h-301q-43 -121 -160 -121q-119 0 -119 111q0 27 6 57h39q143 0 250 18t174.5 48t109.5 76t58 96.5t16 114.5q0 119 -99 195.5t-279 76.5q-282 0 -451.5 -179t-169.5 -474zM381 1327 q12 68 66 115t120 47q65 0 102 -47.5t25 -114.5t-65.5 -114.5t-118.5 -47.5q-66 0 -103.5 47t-25.5 115zM465 596q12 77 55 126.5t121 49.5q40 0 65 -17t25 -50q0 -44 -55.5 -76.5t-175.5 -32.5h-35zM817 1327q12 68 66.5 115t120.5 47t103.5 -47t25.5 -115t-66.5 -115 t-120.5 -47t-103.5 47t-25.5 115z" />
<glyph unicode="&#xec;" horiz-adv-x="661" d="M39 1399l160 215l379 -350l-123 -140zM53 0l176 1006h359l-176 -1006h-359z" />
<glyph unicode="&#xed;" horiz-adv-x="661" d="M53 0l176 1006h359l-176 -1006h-359zM305 1243l404 377l153 -211l-436 -299z" />
<glyph unicode="&#xee;" horiz-adv-x="653" d="M45 1235l363 348h213l231 -352l-154 -111l-233 217l-322 -217zM61 0l177 1006h358l-176 -1006h-359z" />
<glyph unicode="&#xef;" horiz-adv-x="653" d="M61 0l177 1006h358l-176 -1006h-359zM106 1327q12 68 66.5 115t120.5 47q65 0 102 -47.5t25 -114.5t-65.5 -114.5t-118.5 -47.5q-66 0 -104 47.5t-26 114.5zM543 1327q12 68 66 115t120 47t103.5 -47t25.5 -115t-66 -115t-120 -47t-103.5 47t-25.5 115z" />
<glyph unicode="&#xf0;" horiz-adv-x="1255" d="M78 350q0 119 35 222.5t103.5 185.5t181 129t257.5 47q68 0 139.5 -19.5t104.5 -54.5l12 6q2 12 2 41q0 102 -49 176l-137 -102l-74 102l113 91q-75 60 -227 86l71 268q259 -15 426 -144l150 119l80 -98l-144 -119q107 -153 107 -403q0 -91 -9.5 -177.5t-32.5 -177.5 t-58.5 -169.5t-91 -148.5t-126.5 -119t-169 -78t-214 -29q-450 0 -450 366zM430 385q0 -76 36 -116t105 -40q90 0 155 75.5t65 219.5q0 75 -34 119.5t-104 44.5q-69 0 -120.5 -43.5t-77 -111.5t-25.5 -148z" />
<glyph unicode="&#xf1;" horiz-adv-x="1210" d="M20 0l177 1006h315q28 -55 12 -156h11q129 170 335 170q176 0 235 -99.5t28 -287.5l-107 -633h-360l104 600q30 162 -98 162q-48 0 -84.5 -22t-58 -59t-33 -71t-17.5 -71l-94 -539h-365zM276 1272q62 114 131.5 167.5t157.5 53.5q47 0 145.5 -38t145.5 -38q42 0 78 15.5 t86 62.5l119 -90q-46 -104 -124 -165.5t-163 -61.5q-53 0 -149 38.5t-136 38.5q-26 0 -45 -2.5t-54.5 -21t-68.5 -53.5z" />
<glyph unicode="&#xf2;" horiz-adv-x="1255" d="M90 383q0 105 23 199t72.5 175.5t122 140.5t176 92.5t229.5 33.5q463 0 463 -418q0 -82 -16.5 -162t-60.5 -164.5t-111 -148t-176.5 -104.5t-248.5 -41q-473 0 -473 397zM416 1399l159 215l379 -350l-123 -140zM444 395q0 -164 140 -164q97 0 167 97t70 278 q0 166 -141 166q-111 0 -173.5 -105.5t-62.5 -271.5z" />
<glyph unicode="&#xf3;" horiz-adv-x="1255" d="M90 383q0 105 23 199t72.5 175.5t122 140.5t176 92.5t229.5 33.5q463 0 463 -418q0 -82 -16.5 -162t-60.5 -164.5t-111 -148t-176.5 -104.5t-248.5 -41q-473 0 -473 397zM444 395q0 -164 140 -164q97 0 167 97t70 278q0 166 -141 166q-111 0 -173.5 -105.5t-62.5 -271.5z M604 1243l404 377l153 -211l-436 -299z" />
<glyph unicode="&#xf4;" horiz-adv-x="1255" d="M90 383q0 105 23 199t72.5 175.5t122 140.5t176 92.5t229.5 33.5q463 0 463 -418q0 -82 -16.5 -162t-60.5 -164.5t-111 -148t-176.5 -104.5t-248.5 -41q-473 0 -473 397zM360 1235l363 348h213l231 -352l-153 -111l-234 217l-321 -217zM444 395q0 -164 140 -164 q97 0 167 97t70 278q0 166 -141 166q-111 0 -173.5 -105.5t-62.5 -271.5z" />
<glyph unicode="&#xf5;" horiz-adv-x="1255" d="M90 383q0 105 23 199t72.5 175.5t122 140.5t176 92.5t229.5 33.5q463 0 463 -418q0 -82 -16.5 -162t-60.5 -164.5t-111 -148t-176.5 -104.5t-248.5 -41q-473 0 -473 397zM334 1272q62 114 131.5 167.5t157.5 53.5q47 0 145 -38t145 -38q42 0 78 15.5t86 62.5l119 -90 q-46 -104 -124 -165.5t-163 -61.5q-53 0 -148.5 38.5t-135.5 38.5q-26 0 -45 -2.5t-54.5 -21t-68.5 -53.5zM444 395q0 -164 140 -164q97 0 167 97t70 278q0 166 -141 166q-111 0 -173.5 -105.5t-62.5 -271.5z" />
<glyph unicode="&#xf6;" horiz-adv-x="1255" d="M90 383q0 105 23 199t72.5 175.5t122 140.5t176 92.5t229.5 33.5q463 0 463 -418q0 -82 -16.5 -162t-60.5 -164.5t-111 -148t-176.5 -104.5t-248.5 -41q-473 0 -473 397zM383 1327q12 68 66 115t120 47q65 0 102 -47.5t25 -114.5t-65.5 -114.5t-118.5 -47.5 q-66 0 -103.5 47t-25.5 115zM444 395q0 -164 140 -164q97 0 167 97t70 278q0 166 -141 166q-111 0 -173.5 -105.5t-62.5 -271.5zM819 1327q12 68 66.5 115t120.5 47t103.5 -47t25.5 -115t-66.5 -115t-120.5 -47t-103.5 47t-25.5 115z" />
<glyph unicode="&#xf7;" horiz-adv-x="1390" d="M240 430l43 250h897l-43 -250h-897zM498 168q0 79 58 138t132 59q60 0 97.5 -38.5t37.5 -97.5q0 -78 -59.5 -137t-134.5 -59q-58 0 -94.5 38t-36.5 97zM621 877q0 77 59.5 135.5t132.5 58.5q59 0 96 -38t37 -97q0 -79 -58 -138t-134 -59q-59 0 -96 39.5t-37 98.5z" />
<glyph unicode="&#xf8;" horiz-adv-x="1255" d="M31 84l104 88q-45 86 -45 211q0 105 23 199t72.5 175.5t122 140.5t176 92.5t229.5 33.5q207 0 327 -88l119 100l82 -100l-117 -98q52 -96 52 -232q0 -82 -16.5 -162t-60.5 -164.5t-111 -148t-176.5 -104.5t-248.5 -41q-226 0 -344 88l-110 -92zM444 434l347 291 q-37 47 -111 47q-104 0 -166 -93.5t-70 -244.5zM469 285q35 -54 115 -54q94 0 162.5 90.5t74.5 260.5z" />
<glyph unicode="&#xf9;" horiz-adv-x="1181" d="M70 212.5q-3 68.5 14 149.5l113 644h362l-104 -596q-8 -50 -7.5 -86t24 -56t73.5 -20q39 0 70.5 21t50.5 56t30 68.5t17 69.5l94 543h367l-177 -1006h-315q-28 55 -12 156h-11q-44 -55 -94.5 -92t-96 -52t-75 -20.5t-57.5 -5.5q-98 0 -158.5 28.5t-82.5 79t-25 119z M346 1399l160 215l379 -350l-123 -140z" />
<glyph unicode="&#xfa;" horiz-adv-x="1181" d="M70 212.5q-3 68.5 14 149.5l113 644h362l-104 -596q-8 -50 -7.5 -86t24 -56t73.5 -20q39 0 70.5 21t50.5 56t30 68.5t17 69.5l94 543h367l-177 -1006h-315q-28 55 -12 156h-11q-44 -55 -94.5 -92t-96 -52t-75 -20.5t-57.5 -5.5q-98 0 -158.5 28.5t-82.5 79t-25 119z M571 1243l404 377l153 -211l-436 -299z" />
<glyph unicode="&#xfb;" horiz-adv-x="1181" d="M70 212.5q3 -68.5 25 -119t82.5 -79t158.5 -28.5q28 0 57.5 5.5t75 20.5t96 52t94.5 92h11q-16 -101 12 -156h315l177 1006h-367l-94 -543q-6 -36 -17 -69.5t-30 -68.5t-50.5 -56t-70.5 -21q-50 0 -73.5 20t-24 56t7.5 86l104 596h-362l-113 -644q-17 -81 -14 -149.5z M328 1235l362 348h213l232 -352l-154 -111l-233 217l-322 -217z" />
<glyph unicode="&#xfc;" horiz-adv-x="1181" d="M70 212.5q3 -68.5 25 -119t82.5 -79t158.5 -28.5q28 0 57.5 5.5t75 20.5t96 52t94.5 92h11q-16 -101 12 -156h315l177 1006h-367l-94 -543q-6 -36 -17 -69.5t-30 -68.5t-50.5 -56t-70.5 -21q-50 0 -73.5 20t-24 56t7.5 86l104 596h-362l-113 -644q-17 -81 -14 -149.5z M371 1327q12 68 66 115t120 47q65 0 102 -47.5t25 -114.5t-65.5 -114.5t-118.5 -47.5q-66 0 -103.5 47t-25.5 115zM807 1327q12 68 66 115t120 47t103.5 -47t25.5 -115t-66 -115t-120 -47t-103.5 47t-25.5 115z" />
<glyph unicode="&#xfd;" horiz-adv-x="1144" d="M84 1008h346l68 -412q30 -181 37 -315h12l153 325q42 88 67 159t34.5 113t25.5 128h338q-3 -18 -11 -67t-11 -65t-11 -55t-15.5 -61t-19.5 -57t-27.5 -69t-35.5 -73l-508 -979h-362l225 422l-98 -4zM504 1243l403 377l154 -211l-436 -299z" />
<glyph unicode="&#xfe;" horiz-adv-x="1245" d="M-53 -418l329 1872h365l-68 -375q-21 -143 -57 -209h12q152 154 330 154q91 0 154.5 -25.5t99 -74.5t51 -111.5t15.5 -144.5q0 -108 -18 -206.5t-59 -186.5t-100.5 -152t-148 -101.5t-197.5 -37.5q-196 0 -260 100h-8l-84 -502h-356zM444 348q0 -131 121 -131 q68 0 122.5 55t83 143.5t28.5 190.5q0 78 -32.5 115t-102.5 37q-92 0 -156 -117t-64 -293z" />
<glyph unicode="&#xff;" horiz-adv-x="1144" d="M84 1008h346l68 -412q30 -181 37 -315h12l153 325q42 88 67 159t34.5 113t25.5 128h338q-3 -18 -11 -67t-11 -65t-11 -55t-15.5 -61t-19.5 -57t-27.5 -69t-35.5 -73l-508 -979h-362l225 422l-98 -4zM330 1327q12 68 66 115t120 47q65 0 102 -47.5t25 -114.5t-65.5 -114.5 t-118.5 -47.5q-66 0 -103.5 47t-25.5 115zM766 1327q12 68 66 115t120 47t103.5 -47t25.5 -115t-66 -115t-120 -47t-103.5 47t-25.5 115z" />
<glyph unicode="&#x100;" horiz-adv-x="1460" d="M-74 0l760 1391h422l240 -1391h-381l-35 299h-471l-152 -299h-383zM596 1561l39 227h657l-39 -227h-657zM610 571h277l-19 187q-17 144 -20 295h-19q-61 -154 -127 -295z" />
<glyph unicode="&#x101;" horiz-adv-x="1232" d="M74 342q0 91 17 182t56.5 182.5t97 161t147.5 113t200 43.5q101 0 169.5 -39.5t96.5 -110.5h10q15 80 60 134h293l-177 -1008h-301q-22 58 -8 141h-12q-133 -155 -340 -155q-162 0 -235.5 90t-73.5 266zM442 371q0 -144 127 -144q96 0 160 110t64 275q0 154 -125 154 q-96 0 -161 -104.5t-65 -290.5zM442 1219l41 227h674l-41 -227h-674z" />
<glyph unicode="&#x102;" horiz-adv-x="1460" d="M-74 0l760 1391h422l240 -1391h-381l-35 299h-471l-152 -299h-383zM610 571h277l-19 187q-17 144 -20 295h-19q-61 -154 -127 -295zM626.5 1796.5q-0.5 42.5 6.5 83.5h192q-5 -46 2 -84t35 -65t74 -27q65 0 114 51.5t74 124.5h215q-15 -50 -40.5 -101.5t-66 -105 t-89 -94.5t-113.5 -67.5t-135 -26.5q-60 0 -107.5 18t-77 50t-49.5 71t-27 84.5t-7.5 88z" />
<glyph unicode="&#x103;" horiz-adv-x="1232" d="M74 342q0 91 17 182t56.5 182.5t97 161t147.5 113t200 43.5q101 0 169.5 -39.5t96.5 -110.5h10q15 80 60 134h293l-177 -1008h-301q-22 58 -8 141h-12q-133 -155 -340 -155q-162 0 -235.5 90t-73.5 266zM442 371q0 -144 127 -144q96 0 160 110t64 275q0 154 -125 154 q-96 0 -161 -104.5t-65 -290.5zM450.5 1466.5q-0.5 42.5 6.5 83.5h192q-5 -46 2 -84t35 -65t74 -27q65 0 114 51.5t74 124.5h215q-15 -50 -40.5 -101.5t-66 -105t-89 -94.5t-113.5 -67.5t-135 -26.5q-60 0 -107.5 18t-77 50t-49.5 71t-27 84.5t-7.5 88z" />
<glyph unicode="&#x104;" horiz-adv-x="1460" d="M-74 0l760 1391h422l240 -1391h-252q-113 -110 -129 -199q-11 -62 30.5 -98.5t124.5 -36.5q50 0 111 15l10 -103q-144 -63 -287 -63q-135 0 -194 53t-45 137q12 74 78.5 155t171.5 146l-33 293h-471l-152 -299h-385zM612 571h277l-19 187q-17 144 -20 295h-19 q-67 -168 -126 -295z" />
<glyph unicode="&#x105;" horiz-adv-x="1232" d="M74 342q0 91 17 182t56.5 182.5t97 161t147.5 113t200 43.5q101 0 169.5 -39.5t96.5 -110.5h10q15 80 60 134h293l-177 -1008h-208q-131 -125 -131 -223q0 -51 41.5 -81t115.5 -30q50 0 111 15l10 -103q-144 -63 -287 -63q-122 0 -182.5 43t-60.5 114q0 82 76.5 180 t203.5 171q-14 42 2 118h-12q-133 -155 -340 -155q-162 0 -235.5 90t-73.5 266zM442 371q0 -144 127 -144q96 0 160 110t64 275q0 154 -125 154q-96 0 -161 -104.5t-65 -290.5z" />
<glyph unicode="&#x106;" horiz-adv-x="1431" d="M125 498q0 -263 146 -389.5t440 -126.5q115 0 219.5 26.5t193 78.5t149.5 139.5t81 201.5q8 46 8 70h-358q-19 -102 -95.5 -164t-181.5 -62q-114 0 -166.5 60.5t-52.5 185.5q0 263 101 429.5t257 166.5q91 0 141 -41.5t50 -122.5q0 -15 -4 -43h362q17 70 17 123 q0 120 -74 207t-191.5 128.5t-261.5 41.5q-160 0 -291 -49t-220.5 -133.5t-151 -200.5t-89.5 -248t-28 -278zM774 1642l451 287l118 -239l-487 -199z" />
<glyph unicode="&#x107;" horiz-adv-x="1155" d="M80 373q0 132 32 240t87.5 183t131.5 126t162.5 74.5t182.5 23.5q188 0 298.5 -75t110.5 -220q0 -52 -14 -107h-332q0 4 1 13.5t1 13.5q0 62 -31 88.5t-69 26.5q-57 0 -100 -41t-65 -104.5t-32 -124.5t-10 -117q0 -65 28 -96t95 -31q44 0 87.5 30.5t64.5 98.5h331v-15 q0 -97 -47 -172t-123.5 -118t-164 -64.5t-179.5 -21.5q-225 0 -335.5 95t-110.5 294zM526 1243l404 377l153 -211l-436 -299z" />
<glyph unicode="&#x108;" horiz-adv-x="1431" d="M125 498q0 -263 146 -389.5t440 -126.5q115 0 219.5 26.5t193 78.5t149.5 139.5t81 201.5q8 46 8 70h-358q-19 -102 -95.5 -164t-181.5 -62q-114 0 -166.5 60.5t-52.5 185.5q0 263 101 429.5t257 166.5q91 0 141 -41.5t50 -122.5q0 -15 -4 -43h362q17 70 17 123 q0 120 -74 207t-191.5 128.5t-261.5 41.5q-160 0 -291 -49t-220.5 -133.5t-151 -200.5t-89.5 -248t-28 -278zM555 1583l350 307h213l221 -307l-133 -115l-221 203l-336 -203z" />
<glyph unicode="&#x109;" horiz-adv-x="1155" d="M80 373q0 -199 110.5 -294t335.5 -95q92 0 179.5 21.5t164 64.5t123.5 118t47 172v15h-331q-21 -68 -64.5 -98.5t-87.5 -30.5q-67 0 -95 31t-28 96q0 56 10 117t32 124.5t65 104.5t100 41q38 0 69 -26.5t31 -88.5q0 -4 -1 -13.5t-1 -13.5h332q14 55 14 107 q0 145 -110.5 220t-298.5 75q-96 0 -182.5 -23.5t-162.5 -74.5t-131.5 -126t-87.5 -183t-32 -240zM311 1235l363 348h213l231 -352l-153 -111l-234 217l-321 -217z" />
<glyph unicode="&#x10a;" horiz-adv-x="1431" d="M125 498q0 -263 146 -389.5t440 -126.5q115 0 219.5 26.5t193 78.5t149.5 139.5t81 201.5q8 46 8 70h-358q-19 -102 -95.5 -164t-181.5 -62q-114 0 -166.5 60.5t-52.5 185.5q0 263 101 429.5t257 166.5q91 0 141 -41.5t50 -122.5q0 -15 -4 -43h362q17 70 17 123 q0 120 -74 207t-191.5 128.5t-261.5 41.5q-160 0 -291 -49t-220.5 -133.5t-151 -200.5t-89.5 -248t-28 -278zM823 1659q0 78 59 138.5t134 60.5q58 0 96.5 -40t38.5 -100q0 -77 -60 -135.5t-133 -58.5q-60 0 -97.5 38t-37.5 97z" />
<glyph unicode="&#x10b;" horiz-adv-x="1155" d="M80 373q0 -199 110.5 -294t335.5 -95q92 0 179.5 21.5t164 64.5t123.5 118t47 172v15h-331q-21 -68 -64.5 -98.5t-87.5 -30.5q-67 0 -95 31t-28 96q0 56 10 117t32 124.5t65 104.5t100 41q38 0 69 -26.5t31 -88.5q0 -4 -1 -13.5t-1 -13.5h332q14 55 14 107 q0 145 -110.5 220t-298.5 75q-96 0 -182.5 -23.5t-162.5 -74.5t-131.5 -126t-87.5 -183t-32 -240zM575 1311q0 78 59 138t134 60q58 0 96.5 -39.5t38.5 -99.5q0 -77 -59.5 -135.5t-132.5 -58.5q-60 0 -98 38t-38 97z" />
<glyph unicode="&#x10c;" horiz-adv-x="1431" d="M125 498q0 146 28 278t89.5 248t151 200.5t220.5 133.5t291 49q144 0 261.5 -41.5t191.5 -128.5t74 -207q0 -53 -17 -123h-362q4 28 4 43q0 81 -50 122.5t-141 41.5q-156 0 -257 -166.5t-101 -429.5q0 -125 52.5 -185.5t166.5 -60.5q105 0 181.5 62t95.5 164h358 q0 -24 -8 -70q-20 -114 -81 -201.5t-149.5 -139.5t-193 -78.5t-219.5 -26.5q-294 0 -440 126.5t-146 389.5zM584 1790l139 115l248 -199l307 199l115 -111l-349 -311h-213z" />
<glyph unicode="&#x10d;" horiz-adv-x="1155" d="M80 373q0 132 32 240t87.5 183t131.5 126t162.5 74.5t182.5 23.5q188 0 298.5 -75t110.5 -220q0 -52 -14 -107h-332q0 4 1 13.5t1 13.5q0 62 -31 88.5t-69 26.5q-57 0 -100 -41t-65 -104.5t-32 -124.5t-10 -117q0 -65 28 -96t95 -31q44 0 87.5 30.5t64.5 98.5h331v-15 q0 -97 -47 -172t-123.5 -118t-164 -64.5t-179.5 -21.5q-225 0 -335.5 95t-110.5 294zM371 1473l139 114l235 -219l318 219l104 -104l-342 -344h-213z" />
<glyph unicode="&#x10e;" horiz-adv-x="1470" d="M51 0l244 1386h514q97 0 181.5 -16.5t163 -56.5t134 -101t88.5 -156.5t33 -217.5q0 -244 -104 -435t-290.5 -297t-424.5 -106h-539zM475 283h90q58 0 117 15.5t120.5 53t109 93.5t78 145.5t30.5 200.5q0 81 -20.5 140.5t-50.5 91.5t-75.5 51.5t-83.5 24.5t-85 5h-84z M477 1784l139 114l248 -198l307 198l115 -110l-348 -311h-213z" />
<glyph unicode="&#x10f;" horiz-adv-x="1646" d="M82 332q0 -164 74.5 -255t246.5 -91q208 0 336 168h9q-7 -35 -7 -66q0 -60 19 -88h299l252 1454h-353l-96 -524h-10q-76 92 -242 92q-163 0 -284 -90t-182.5 -245t-61.5 -355zM440 395q0 163 66.5 271t171.5 108q66 0 98.5 -36.5t32.5 -116.5q0 -172 -68.5 -280 t-154.5 -108q-74 0 -110 39.5t-36 122.5zM1413 932l125 246q-35 13 -54.5 44.5t-19.5 71.5q0 76 57 133.5t128 57.5q58 0 92.5 -35.5t34.5 -91.5q0 -73 -39 -125l-240 -338z" />
<glyph unicode="&#x110;" horiz-adv-x="1476" d="M51 602l37 201h684l-37 -201h-684zM57 0l244 1386h514q97 0 181.5 -16.5t163 -56.5t134 -101t88.5 -156.5t33 -217.5q0 -244 -104 -435t-290.5 -297t-424.5 -106h-539zM481 283h90q58 0 117 15.5t120.5 53t109 93.5t78 145.5t30.5 200.5q0 81 -20.5 140.5t-50.5 91.5 t-75.5 51.5t-83.5 24.5t-85 5h-84z" />
<glyph unicode="&#x111;" horiz-adv-x="1253" d="M80 324q0 145 32.5 265t96 208t162.5 137t225 49q85 0 157.5 -25.5t106.5 -68.5h10l41 233h-270l29 158h270l31 174h352l-31 -174h74l-29 -158h-73l-193 -1122h-295q-16 24 -18.5 72.5t6.5 81.5h-8q-75 -95 -159.5 -131.5t-193.5 -36.5q-174 0 -248.5 88t-74.5 250z M465 375q0 -142 137 -142q81 0 148 101t67 270q0 62 -34.5 95.5t-90.5 33.5q-106 0 -166.5 -100t-60.5 -258z" />
<glyph unicode="&#x112;" horiz-adv-x="1265" d="M41 0l244 1386h1024l-52 -286h-651l-41 -238h604l-51 -284h-604l-51 -293h688l-49 -285h-1061zM508 1561l39 227h657l-39 -227h-657z" />
<glyph unicode="&#x113;" horiz-adv-x="1146" d="M86 369q0 -184 113 -283.5t346 -99.5q136 0 240 34t166.5 108t62.5 179q0 29 -2 43h-301q-43 -121 -160 -121q-119 0 -119 111q0 27 6 57h39q143 0 250 18t174.5 48t109.5 76t58 96.5t16 114.5q0 119 -99 195.5t-279 76.5q-282 0 -451.5 -179t-169.5 -474zM385 1219 l41 227h674l-41 -227h-674zM465 596q12 77 55 126.5t121 49.5q40 0 65 -17t25 -50q0 -44 -55.5 -76.5t-175.5 -32.5h-35z" />
<glyph unicode="&#x114;" horiz-adv-x="1265" d="M41 0l244 1386h1024l-52 -286h-651l-41 -238h604l-51 -284h-604l-51 -293h688l-49 -285h-1061zM554.5 1796.5q-0.5 42.5 6.5 83.5h193q-5 -47 2 -84.5t34.5 -64.5t73.5 -27q65 0 114.5 51.5t74.5 124.5h215q-19 -63 -56 -128t-91.5 -127t-132.5 -101t-165 -39 q-60 0 -107.5 18t-77 50t-49.5 71t-27 84.5t-7.5 88z" />
<glyph unicode="&#x115;" horiz-adv-x="1146" d="M86 369q0 -184 113 -283.5t346 -99.5q136 0 240 34t166.5 108t62.5 179q0 29 -2 43h-301q-43 -121 -160 -121q-119 0 -119 111q0 27 6 57h39q143 0 250 18t174.5 48t109.5 76t58 96.5t16 114.5q0 119 -99 195.5t-279 76.5q-282 0 -451.5 -179t-169.5 -474zM435 1466.5 q-2 44.5 7 83.5h193q-5 -47 2 -84.5t34.5 -64.5t73.5 -27q65 0 114.5 51.5t74.5 124.5h215q-15 -50 -40.5 -101.5t-66 -105t-89 -94.5t-113.5 -67.5t-135 -26.5q-60 0 -108 18.5t-77 49.5t-49.5 71t-27 84t-8.5 88.5zM465 596q12 77 55 126.5t121 49.5q40 0 65 -17t25 -50 q0 -44 -55.5 -76.5t-175.5 -32.5h-35z" />
<glyph unicode="&#x116;" horiz-adv-x="1265" d="M41 0l244 1386h1024l-52 -286h-651l-41 -238h604l-51 -284h-604l-51 -293h688l-49 -285h-1061zM657 1659q0 78 59 138.5t134 60.5q58 0 96.5 -40t38.5 -100q0 -77 -59.5 -135.5t-132.5 -58.5q-60 0 -98 38t-38 97z" />
<glyph unicode="&#x117;" horiz-adv-x="1146" d="M86 369q0 -184 113 -283.5t346 -99.5q136 0 240 34t166.5 108t62.5 179q0 29 -2 43h-301q-43 -121 -160 -121q-119 0 -119 111q0 27 6 57h39q143 0 250 18t174.5 48t109.5 76t58 96.5t16 114.5q0 119 -99 195.5t-279 76.5q-282 0 -451.5 -179t-169.5 -474zM465 596 q12 77 55 126.5t121 49.5q40 0 65 -17t25 -50q0 -44 -55.5 -76.5t-175.5 -32.5h-35zM592 1311q0 78 58.5 138t133.5 60q59 0 97.5 -39.5t38.5 -99.5q0 -77 -60 -135.5t-133 -58.5q-60 0 -97.5 38t-37.5 97z" />
<glyph unicode="&#x118;" horiz-adv-x="1265" d="M41 0l244 1386h1034l-51 -286h-662l-41 -238h604l-51 -284h-604l-51 -293h678l-49 -285h-117q-135 -129 -135 -225q0 -52 41.5 -81.5t117.5 -29.5q51 0 111 14l8 -102q-144 -63 -284 -63q-124 0 -185 43t-61 114q0 77 67 167t181 163h-795z" />
<glyph unicode="&#x119;" horiz-adv-x="1146" d="M86 369q0 295 169.5 474t451.5 179q180 0 279 -76.5t99 -195.5q0 -65 -16.5 -116t-60.5 -96.5t-115.5 -75.5t-186 -47.5t-268.5 -17.5q-6 -30 -6 -57q0 -111 119 -111q117 0 160 121h301q2 -14 2 -43q0 -110 -65.5 -184t-182.5 -109q-119 -116 -119 -211 q0 -51 41.5 -80.5t116.5 -29.5q53 0 110 14l11 -102q-147 -64 -287 -64q-122 0 -183 43.5t-61 114.5q0 65 50.5 143t138.5 146q-6 0 -19.5 -1t-19.5 -1q-233 0 -346 99.5t-113 283.5zM465 596q138 0 202 32t64 77q0 33 -25 50t-65 17q-78 0 -121 -49.5t-55 -126.5z" />
<glyph unicode="&#x11a;" horiz-adv-x="1265" d="M41 0l244 1386h1024l-52 -286h-651l-41 -238h604l-51 -284h-604l-51 -293h688l-49 -285h-1061zM465 1784l139 114l248 -198l307 198l115 -110l-348 -311h-213z" />
<glyph unicode="&#x11b;" horiz-adv-x="1146" d="M86 369q0 295 169.5 474t451.5 179q180 0 279 -76.5t99 -195.5q0 -64 -16 -114.5t-58 -96.5t-109.5 -76t-174.5 -48t-250 -18h-39q-6 -30 -6 -57q0 -111 119 -111q117 0 160 121h301q2 -14 2 -43q0 -105 -62.5 -179t-166.5 -108t-240 -34q-233 0 -346 99.5t-113 283.5z M379 1473l139 114l236 -219l317 219l105 -104l-342 -344h-213zM465 596h35q120 0 175.5 32.5t55.5 76.5q0 33 -25 50t-65 17q-78 0 -121 -49.5t-55 -126.5z" />
<glyph unicode="&#x11c;" horiz-adv-x="1454" d="M125 502q0 -520 594 -520q95 0 179.5 16t166 54.5t144.5 98.5t109.5 154t65.5 215l37 234h-508l-43 -254h144l-8 -43q-16 -82 -87.5 -136.5t-185.5 -54.5q-120 0 -174.5 58t-54.5 184q0 75 10.5 152.5t38 161t68 147.5t107 105.5t149.5 41.5q79 0 127.5 -40t48.5 -109 q0 -19 -2 -29h368q17 64 17 125q0 72 -28.5 130.5t-78.5 98t-119 66t-147.5 38t-167.5 11.5q-153 0 -280 -47.5t-217 -131t-152 -198t-91.5 -247.5t-29.5 -281zM555 1577l350 307h213l221 -307l-133 -115l-221 203l-336 -203z" />
<glyph unicode="&#x11d;" horiz-adv-x="1269" d="M10 -168q0 55 27 129h305q0 -17 4 -41q19 -104 148 -104q195 0 233 219q17 94 49 162h-10q-128 -146 -346 -146q-322 0 -322 318q0 100 18.5 193t59 177t100 146t147.5 98.5t195 36.5q103 0 175 -43.5t94 -114.5h8q18 91 59 144h291l-145 -891q-9 -54 -20 -100 t-33 -105.5t-51 -107t-75.5 -95.5t-103.5 -80.5t-138 -52.5t-177 -20q-238 0 -365 72.5t-127 205.5zM350 1235l363 348h213l231 -352l-153 -111l-234 217l-321 -217zM467 430q0 -137 145 -137q65 0 113.5 45t71 112.5t22.5 145.5q0 80 -34.5 123t-100.5 43 q-88 0 -152.5 -89.5t-64.5 -242.5z" />
<glyph unicode="&#x11e;" horiz-adv-x="1454" d="M125 502q0 -520 594 -520q95 0 179.5 16t166 54.5t144.5 98.5t109.5 154t65.5 215l37 234h-508l-43 -254h144l-8 -43q-16 -82 -87.5 -136.5t-185.5 -54.5q-120 0 -174.5 58t-54.5 184q0 75 10.5 152.5t38 161t68 147.5t107 105.5t149.5 41.5q79 0 127.5 -40t48.5 -109 q0 -19 -2 -29h368q17 64 17 125q0 72 -28.5 130.5t-78.5 98t-119 66t-147.5 38t-167.5 11.5q-153 0 -280 -47.5t-217 -131t-152 -198t-91.5 -247.5t-29.5 -281zM669.5 1800.5q-0.5 42.5 6.5 83.5h192q-5 -46 2 -84t35 -65t74 -27q65 0 114 51.5t74 124.5h215 q-15 -50 -40.5 -101.5t-66 -105t-89 -94.5t-113.5 -67.5t-135 -26.5q-60 0 -107.5 18t-77 50t-49.5 71t-27 84.5t-7.5 88z" />
<glyph unicode="&#x11f;" horiz-adv-x="1269" d="M10 -168q0 55 27 129h305q0 -17 4 -41q19 -104 148 -104q195 0 233 219q17 94 49 162h-10q-128 -146 -346 -146q-322 0 -322 318q0 100 18.5 193t59 177t100 146t147.5 98.5t195 36.5q103 0 175 -43.5t94 -114.5h8q18 91 59 144h291l-145 -891q-9 -54 -20 -100 t-33 -105.5t-51 -107t-75.5 -95.5t-103.5 -80.5t-138 -52.5t-177 -20q-238 0 -365 72.5t-127 205.5zM458.5 1466.5q-0.5 42.5 6.5 83.5h192q-5 -46 2 -84t35 -65t74 -27q65 0 114 51.5t74 124.5h215q-15 -50 -40.5 -101.5t-66 -105t-89 -94.5t-113.5 -67.5t-135 -26.5 q-60 0 -107.5 18t-77 50t-49.5 71t-27 84.5t-7.5 88zM467 430q0 -137 145 -137q65 0 113.5 45t71 112.5t22.5 145.5q0 80 -34.5 123t-100.5 43q-88 0 -152.5 -89.5t-64.5 -242.5z" />
<glyph unicode="&#x120;" horiz-adv-x="1454" d="M125 502q0 -520 594 -520q95 0 179.5 16t166 54.5t144.5 98.5t109.5 154t65.5 215l37 234h-508l-43 -254h144l-8 -43q-16 -82 -87.5 -136.5t-185.5 -54.5q-120 0 -174.5 58t-54.5 184q0 75 10.5 152.5t38 161t68 147.5t107 105.5t149.5 41.5q79 0 127.5 -40t48.5 -109 q0 -19 -2 -29h368q17 64 17 125q0 72 -28.5 130.5t-78.5 98t-119 66t-147.5 38t-167.5 11.5q-153 0 -280 -47.5t-217 -131t-152 -198t-91.5 -247.5t-29.5 -281zM831 1669q0 78 59 138.5t134 60.5q58 0 96.5 -39.5t38.5 -99.5q0 -77 -59.5 -136t-132.5 -59q-60 0 -98 38 t-38 97z" />
<glyph unicode="&#x121;" horiz-adv-x="1269" d="M10 -168q0 55 27 129h305q0 -17 4 -41q19 -104 148 -104q195 0 233 219q17 94 49 162h-10q-128 -146 -346 -146q-322 0 -322 318q0 100 18.5 193t59 177t100 146t147.5 98.5t195 36.5q103 0 175 -43.5t94 -114.5h8q18 91 59 144h291l-145 -891q-9 -54 -20 -100 t-33 -105.5t-51 -107t-75.5 -95.5t-103.5 -80.5t-138 -52.5t-177 -20q-238 0 -365 72.5t-127 205.5zM467 430q0 -137 145 -137q65 0 113.5 45t71 112.5t22.5 145.5q0 80 -34.5 123t-100.5 43q-88 0 -152.5 -89.5t-64.5 -242.5zM653 1311q0 78 59 138t134 60q58 0 96.5 -39.5 t38.5 -99.5q0 -77 -60 -135.5t-133 -58.5q-60 0 -97.5 38t-37.5 97z" />
<glyph unicode="&#x122;" horiz-adv-x="1454" d="M125 502q0 148 29.5 281t91.5 247.5t152 198t217 131t280 47.5q89 0 167.5 -11.5t147.5 -38t119 -66t78.5 -98t28.5 -130.5q0 -61 -17 -125h-368q2 10 2 29q0 69 -48.5 109t-127.5 40q-83 0 -149.5 -41.5t-107 -105.5t-68 -147.5t-38 -161t-10.5 -152.5q0 -126 54.5 -184 t174.5 -58q114 0 185.5 54.5t87.5 136.5l8 43h-144l43 254h508l-37 -234q-19 -121 -65.5 -215t-109.5 -154t-144.5 -98.5t-166 -54.5t-179.5 -16q-594 0 -594 520zM426 -631l125 246q-35 13 -54.5 45t-19.5 72q0 76 57 133t128 57q58 0 92 -35.5t34 -91.5q0 -74 -38 -125 l-240 -338z" />
<glyph unicode="&#x123;" horiz-adv-x="1269" d="M10 -168q0 55 27 129h305q0 -17 4 -41q19 -104 148 -104q195 0 233 219q17 94 49 162h-10q-128 -146 -346 -146q-322 0 -322 318q0 100 18.5 193t59 177t100 146t147.5 98.5t195 36.5q103 0 175 -43.5t94 -114.5h8q18 91 59 144h291l-145 -891q-9 -54 -20 -100 t-33 -105.5t-51 -107t-75.5 -95.5t-103.5 -80.5t-138 -52.5t-177 -20q-238 0 -365 72.5t-127 205.5zM467 430q0 -137 145 -137q65 0 113.5 45t71 112.5t22.5 145.5q0 80 -34.5 123t-100.5 43q-88 0 -152.5 -89.5t-64.5 -242.5zM557 1251q0 67 41 125l223 307l86 -36 l-110 -215q34 -13 53.5 -45.5t19.5 -73.5q0 -74 -56.5 -131.5t-127.5 -57.5q-58 0 -93.5 35.5t-35.5 91.5z" />
<glyph unicode="&#x124;" horiz-adv-x="1505" d="M41 0l244 1389h372l-92 -527h512l92 527h375l-244 -1389h-374l100 575h-512l-100 -575h-373zM563 1585l350 307h213l222 -307l-134 -115l-221 203l-336 -203z" />
<glyph unicode="&#x125;" horiz-adv-x="1210" d="M20 0h365l96 547q6 35 18.5 69t34 69.5t57 57t79.5 21.5q129 0 100 -162l-104 -602h360l107 610q34 197 -26 303.5t-241 106.5q-36 0 -77.5 -8t-92.5 -26.5t-102.5 -57t-91.5 -92.5h-13q45 78 70 231l70 391h-353zM61 1616l351 307h213l221 -307l-133 -115l-221 203 l-336 -203z" />
<glyph unicode="&#x126;" horiz-adv-x="1505" d="M41 0l184 1057h-94l31 174h94l29 158h370l-28 -158h522l29 158h366l-28 -158h102l-31 -174h-102l-185 -1057h-366l100 575h-522l-100 -575h-371zM563 862h522l33 195h-522z" />
<glyph unicode="&#x127;" horiz-adv-x="1210" d="M20 0l195 1108h-86l31 172h86l30 178h353l-31 -178h342l-31 -172h-342l-8 -41q-10 -62 -33 -152t-45 -131h13q52 70 126.5 114.5t130.5 57.5t107 13q182 0 241 -103t25 -303l-98 -563h-360l96 551q29 162 -100 162q-44 0 -80 -21.5t-58.5 -57.5t-36 -73t-20.5 -78 l-82 -483h-365z" />
<glyph unicode="&#x128;" horiz-adv-x="663" d="M61 0l244 1386h375l-244 -1386h-375zM96 1620q62 114 131.5 167.5t157.5 53.5q47 0 145.5 -38t145.5 -38q42 0 78 15.5t86 62.5l118 -90q-46 -104 -123.5 -165.5t-162.5 -61.5q-53 0 -149 39t-136 39q-26 0 -45 -3t-54.5 -21.5t-68.5 -53.5z" />
<glyph unicode="&#x129;" horiz-adv-x="661" d="M12 1272q62 114 131.5 167.5t157.5 53.5q47 0 145.5 -38t145.5 -38q42 0 78 15.5t86 62.5l118 -90q-46 -104 -123.5 -165.5t-162.5 -61.5q-53 0 -149 38.5t-136 38.5q-26 0 -45 -2.5t-54.5 -21t-68.5 -53.5zM53 0l176 1006h359l-176 -1006h-359z" />
<glyph unicode="&#x12a;" horiz-adv-x="663" d="M61 0l244 1386h375l-244 -1386h-375zM180 1561l39 227h658l-39 -227h-658z" />
<glyph unicode="&#x12b;" horiz-adv-x="661" d="M53 0l176 1006h359l-176 -1006h-359zM109 1219l41 227h673l-41 -227h-673z" />
<glyph unicode="&#x12c;" horiz-adv-x="630" d="M45 0l244 1386h375l-244 -1386h-375zM231.5 1800.5q-0.5 42.5 6.5 83.5h192q-5 -46 2 -84t35 -65t74 -27q65 0 114 51.5t74 124.5h215q-15 -50 -40.5 -101.5t-66 -105t-89 -94.5t-113.5 -67.5t-135 -26.5q-60 0 -107.5 18t-77 50t-49.5 71t-27 84.5t-7.5 88z" />
<glyph unicode="&#x12d;" horiz-adv-x="661" d="M53 0l176 1006h359l-176 -1006h-359zM143.5 1479.5q-0.5 42.5 6.5 83.5h192q-5 -47 2 -85t35 -65t74 -27q65 0 114 52t74 125h215q-15 -50 -40.5 -101.5t-66 -105t-89 -95t-113.5 -68t-135 -26.5q-60 0 -107.5 18.5t-77 50t-49.5 71t-27 85t-7.5 88z" />
<glyph unicode="&#x12e;" horiz-adv-x="641" d="M-193 -336q0 78 66 170t178 166l244 1386h375l-244 -1386h-231q-138 -129 -138 -229q0 -52 41 -81.5t117 -29.5q54 0 111 14l10 -102q-147 -64 -287 -64q-121 0 -181.5 42.5t-60.5 113.5z" />
<glyph unicode="&#x12f;" horiz-adv-x="634" d="M-184 -315q0 77 63.5 164.5t173.5 158.5l176 998h359l-176 -1006h-226q-120 -120 -120 -211q0 -52 41.5 -81.5t117.5 -29.5q47 0 109 15l10 -103q-141 -63 -287 -63q-121 0 -181 43.5t-60 114.5zM262 1237q0 108 63.5 175t168.5 67q80 0 122.5 -40t42.5 -110 q0 -111 -66.5 -173t-166.5 -62q-79 0 -121.5 36.5t-42.5 106.5z" />
<glyph unicode="&#x130;" horiz-adv-x="663" d="M61 0l244 1386h375l-244 -1386h-375zM391 1659q0 78 59 138.5t134 60.5q58 0 96.5 -40t38.5 -100q0 -77 -60 -135.5t-133 -58.5q-60 0 -97.5 38t-37.5 97z" />
<glyph unicode="&#x131;" horiz-adv-x="653" d="M61 0l177 1006h358l-176 -1006h-359z" />
<glyph unicode="&#x132;" horiz-adv-x="1855" d="M61 0l244 1386h375l-244 -1386h-375zM602 309q0 74 31 183h358q-8 -58 -8 -80q0 -67 33 -102.5t112 -35.5q192 0 234 230l156 885h370l-147 -850q-11 -63 -25.5 -116.5t-40 -111.5t-58 -104t-81 -89t-108 -71.5t-140.5 -45.5t-176 -17q-252 0 -381 82.5t-129 242.5z" />
<glyph unicode="&#x133;" horiz-adv-x="1220" d="M61 0l177 1006h358l-176 -1006h-359zM270 1253q0 96 71 167t159 71q73 0 117.5 -45.5t44.5 -118.5q0 -93 -70.5 -163t-161.5 -70q-69 0 -114.5 45t-45.5 114zM414 -436l37 276q59 3 93.5 10t54 24t26.5 35.5t14 55.5l184 1041h359l-199 -1125q-7 -42 -12.5 -67.5 t-19 -65.5t-29.5 -64.5t-44.5 -54t-64.5 -45.5t-89 -27.5t-118 -11.5q-75 0 -192 19zM856 1253q0 96 70.5 167t158.5 71q73 0 117.5 -45.5t44.5 -118.5q0 -93 -70 -163t-161 -70q-69 0 -114.5 45t-45.5 114z" />
<glyph unicode="&#x134;" horiz-adv-x="1310" d="M4 309q0 74 31 183h358q-8 -58 -8 -80q0 -67 33 -102.5t112 -35.5q192 0 234 230l156 885h370l-147 -850q-11 -63 -25.5 -116.5t-40 -111.5t-58 -104t-81 -89t-108 -71.5t-140.5 -45.5t-176 -17q-252 0 -381 82.5t-129 242.5zM756 1583l350 307h213l221 -307l-133 -115 l-221 203l-336 -203z" />
<glyph unicode="&#x135;" horiz-adv-x="634" d="M-172 -436l37 276q59 3 93.5 10t54 24t26.5 35.5t14 55.5l185 1041h358l-199 -1125q-7 -42 -12.5 -67.5t-19 -65.5t-29.5 -64.5t-44.5 -54t-64.5 -45.5t-89 -27.5t-118 -11.5q-75 0 -192 19zM59 1235l363 348h213l231 -352l-153 -111l-234 217l-321 -217z" />
<glyph unicode="&#x136;" horiz-adv-x="1411" d="M41 0l244 1391h370l-88 -504h47l471 504h457l-622 -650l397 -741h-430l-299 588h-74l-102 -588h-371zM412 -588l125 246q-35 13 -54.5 45t-19.5 72q0 76 56.5 133t127.5 57q58 0 92.5 -35.5t34.5 -91.5q0 -73 -39 -125l-239 -338z" />
<glyph unicode="&#x137;" horiz-adv-x="1191" d="M20 0l256 1456h363l-133 -754h80l266 304h418l-430 -461l264 -545h-389l-174 416h-86l-72 -416h-363zM313 -629l125 246q-35 13 -54 44.5t-19 72.5q0 76 56.5 133t127.5 57q58 0 92.5 -35.5t34.5 -91.5q0 -73 -39 -125l-240 -338z" />
<glyph unicode="&#x138;" horiz-adv-x="1191" d="M20 0l177 1006h362l-53 -304h82l264 304h418l-430 -461l264 -545h-381l-178 416h-90l-72 -416h-363z" />
<glyph unicode="&#x139;" horiz-adv-x="1204" d="M45 0l244 1386h373l-195 -1099h680l-49 -287h-1053zM350 1642l451 287l119 -239l-488 -199z" />
<glyph unicode="&#x13a;" horiz-adv-x="645" d="M92 315l205 1139h356l-190 -1079q-12 -69 6 -89.5t90 -23.5l-37 -264q-99 -12 -168 -12q-176 0 -235.5 72.5t-26.5 256.5zM379 1724l450 287l119 -239l-487 -199z" />
<glyph unicode="&#x13b;" horiz-adv-x="1204" d="M45 0l244 1386h373l-195 -1099h680l-49 -287h-1053zM362 -629l125 246q-35 13 -54 44.5t-19 72.5q0 76 56.5 133t127.5 57q58 0 92.5 -35.5t34.5 -91.5q0 -73 -39 -125l-240 -338z" />
<glyph unicode="&#x13c;" horiz-adv-x="645" d="M57 -629l125 246q-35 13 -54 44.5t-19 72.5q0 76 56.5 133t127.5 57q58 0 92.5 -35.5t34.5 -91.5q0 -73 -39 -125l-240 -338zM92 315l205 1139h356l-190 -1079q-12 -69 6 -89.5t90 -23.5l-37 -264q-99 -12 -168 -12q-176 0 -235.5 72.5t-26.5 256.5z" />
<glyph unicode="&#x13d;" horiz-adv-x="1204" d="M45 0l244 1386h373l-195 -1099h680l-49 -287h-1053zM854 836l125 245q-35 13 -54.5 45t-19.5 72q0 76 57 133.5t128 57.5q58 0 92.5 -35.5t34.5 -91.5q0 -73 -39 -125l-240 -338z" />
<glyph unicode="&#x13e;" horiz-adv-x="911" d="M39 315l205 1139h356l-190 -1079q-12 -69 6 -89.5t90 -23.5l-37 -264q-99 -12 -168 -12q-176 0 -235.5 72.5t-26.5 256.5zM659 901l125 246q-35 13 -54 44.5t-19 72.5q0 76 56.5 133t127.5 57q58 0 92.5 -35.5t34.5 -91.5q0 -73 -39 -125l-240 -338z" />
<glyph unicode="&#x13f;" horiz-adv-x="1204" d="M45 0l244 1386h373l-195 -1099h680l-49 -287h-1053zM795 807q0 78 58.5 138.5t133.5 60.5q58 0 96.5 -40t38.5 -100q0 -77 -59.5 -135.5t-132.5 -58.5q-60 0 -97.5 38t-37.5 97z" />
<glyph unicode="&#x140;" horiz-adv-x="968" d="M92 315l205 1139h356l-190 -1079q-12 -69 6 -89.5t90 -23.5l-37 -264q-99 -12 -168 -12q-176 0 -235.5 72.5t-26.5 256.5zM680 786q0 78 58.5 138.5t133.5 60.5q59 0 97.5 -39.5t38.5 -99.5q0 -77 -60 -136t-133 -59q-60 0 -97.5 38t-37.5 97z" />
<glyph unicode="&#x141;" horiz-adv-x="1204" d="M-37 549l195 90l131 747h373l-101 -565l268 125l37 -158l-338 -157l-61 -344h680l-49 -287h-1053l78 446l-125 -57z" />
<glyph unicode="&#x142;" horiz-adv-x="645" d="M-35 582l197 104l135 768h356l-98 -555l127 68l49 -152l-211 -115l-57 -325q-12 -69 6 -89.5t90 -23.5l-47 -264q-99 -12 -158 -12q-172 0 -230 79.5t-26 266.5l27 155l-113 -59z" />
<glyph unicode="&#x143;" horiz-adv-x="1478" d="M37 0l244 1386h342l208 -405q123 -236 175 -377h18l135 782h363l-244 -1386h-320l-245 479q-86 157 -158 330l-14 -2l-140 -807h-364zM752 1642l450 287l119 -239l-487 -199z" />
<glyph unicode="&#x144;" horiz-adv-x="1210" d="M20 0l177 1006h315q28 -55 12 -156h11q129 170 335 170q176 0 235 -99.5t28 -287.5l-107 -633h-360l104 600q30 162 -98 162q-48 0 -84.5 -22t-58 -59t-33 -71t-17.5 -71l-94 -539h-365zM469 1243l403 377l154 -211l-436 -299z" />
<glyph unicode="&#x145;" horiz-adv-x="1478" d="M37 0l244 1386h342l208 -405q123 -236 175 -377h18l135 782h363l-244 -1386h-320l-245 479q-86 157 -158 330l-14 -2l-140 -807h-364zM459 -588l125 246q-35 13 -54.5 45t-19.5 72q0 76 56.5 133t127.5 57q58 0 92.5 -35.5t34.5 -91.5q0 -73 -39 -125l-239 -338z" />
<glyph unicode="&#x146;" horiz-adv-x="1210" d="M20 0l177 1006h315q28 -55 12 -156h11q129 170 335 170q176 0 235 -99.5t28 -287.5l-107 -633h-360l104 600q30 162 -98 162q-48 0 -84.5 -22t-58 -59t-33 -71t-17.5 -71l-94 -539h-365zM274 -629l125 246q-35 13 -54 44.5t-19 72.5q0 76 56.5 133t127.5 57 q58 0 92.5 -35.5t34.5 -91.5q0 -73 -39 -125l-240 -338z" />
<glyph unicode="&#x147;" horiz-adv-x="1478" d="M37 0l244 1386h342l208 -405q123 -236 175 -377h18l135 782h363l-244 -1386h-320l-245 479q-86 157 -158 330l-14 -2l-140 -807h-364zM557 1784l139 114l248 -198l307 198l115 -110l-348 -311h-213z" />
<glyph unicode="&#x148;" horiz-adv-x="1210" d="M20 0l177 1006h315q28 -55 12 -156h11q129 170 335 170q176 0 235 -99.5t28 -287.5l-107 -633h-360l104 600q30 162 -98 162q-48 0 -84.5 -22t-58 -59t-33 -71t-17.5 -71l-94 -539h-365zM319 1473l140 114l235 -219l318 219l104 -104l-342 -344h-213z" />
<glyph unicode="&#x149;" horiz-adv-x="1458" d="M125 936l125 246q-35 13 -54.5 44.5t-19.5 71.5q0 76 56.5 133.5t127.5 57.5q58 0 92.5 -35.5t34.5 -91.5q0 -74 -38 -125l-240 -338zM268 0l176 1006h316q28 -55 12 -156h10q129 170 336 170q176 0 234.5 -99.5t27.5 -287.5l-106 -633h-361l105 600q30 162 -98 162 q-48 0 -84.5 -22t-58 -59t-33 -71t-17.5 -71l-94 -539h-365z" />
<glyph unicode="&#x14a;" horiz-adv-x="1478" d="M37 0l244 1386h342l208 -393q123 -236 175 -377h18l135 770h363l-256 -1452q-13 -72 -30 -126t-50 -107t-78.5 -86.5t-117 -54.5t-163.5 -21q-57 0 -147 16.5t-154 49.5l92 235q86 -22 150 -22t94 37t45 129l15 84l-209 399q-86 157 -158 330l-14 -2l-140 -795h-364z" />
<glyph unicode="&#x14b;" horiz-adv-x="1210" d="M20 0l177 1006h315q28 -55 12 -156h11q129 170 335 170q182 0 242 -95t27 -282l-119 -684q-18 -104 -47 -178t-78 -130.5t-123.5 -84t-177.5 -27.5q-61 0 -142.5 15t-150.5 51l94 231q71 -18 127 -18q64 0 94.5 37t45.5 129l108 616q30 162 -98 162q-39 0 -70.5 -14 t-51 -34.5t-34.5 -49t-22 -52t-11 -47.5l-98 -565h-365z" />
<glyph unicode="&#x14c;" horiz-adv-x="1593" d="M127 516q0 147 30.5 278.5t95 244t158 194t226.5 128t293 46.5q134 0 239.5 -32t173 -86t111.5 -130t62 -158.5t18 -177.5q0 -78 -11 -155.5t-37.5 -161.5t-67 -158.5t-104 -142t-143.5 -116t-190.5 -77t-239.5 -28.5q-134 0 -239 26.5t-175 73t-115.5 114.5t-65 146 t-19.5 172zM508 539q0 -281 254 -281q164 0 277.5 157.5t113.5 415.5q0 134 -58.5 214.5t-181.5 80.5q-85 0 -155.5 -38.5t-115.5 -99.5t-76.5 -140t-44.5 -156.5t-13 -152.5zM664 1563l38 227h658l-39 -227h-657z" />
<glyph unicode="&#x14d;" horiz-adv-x="1255" d="M90 383q0 105 23 199t72.5 175.5t122 140.5t176 92.5t229.5 33.5q463 0 463 -418q0 -82 -16.5 -162t-60.5 -164.5t-111 -148t-176.5 -104.5t-248.5 -41q-473 0 -473 397zM422 1219l41 227h674l-41 -227h-674zM444 395q0 -164 140 -164q97 0 167 97t70 278q0 166 -141 166 q-111 0 -173.5 -105.5t-62.5 -271.5z" />
<glyph unicode="&#x14e;" horiz-adv-x="1593" d="M127 516q0 147 30.5 278.5t95 244t158 194t226.5 128t293 46.5q134 0 239.5 -32t173 -86t111.5 -130t62 -158.5t18 -177.5q0 -78 -11 -155.5t-37.5 -161.5t-67 -158.5t-104 -142t-143.5 -116t-190.5 -77t-239.5 -28.5q-134 0 -239 26.5t-175 73t-115.5 114.5t-65 146 t-19.5 172zM508 539q0 -281 254 -281q164 0 277.5 157.5t113.5 415.5q0 134 -58.5 214.5t-181.5 80.5q-85 0 -155.5 -38.5t-115.5 -99.5t-76.5 -140t-44.5 -156.5t-13 -152.5zM722.5 1796.5q-0.5 42.5 6.5 83.5h193q-5 -47 2 -84.5t34.5 -64.5t73.5 -27q65 0 114.5 51.5 t74.5 124.5h215q-19 -63 -56 -128t-91.5 -127t-132.5 -101t-165 -39q-60 0 -107.5 18t-77 50t-49.5 71t-27 84.5t-7.5 88z" />
<glyph unicode="&#x14f;" horiz-adv-x="1255" d="M90 383q0 105 23 199t72.5 175.5t122 140.5t176 92.5t229.5 33.5q463 0 463 -418q0 -82 -16.5 -162t-60.5 -164.5t-111 -148t-176.5 -104.5t-248.5 -41q-473 0 -473 397zM444 395q0 -164 140 -164q97 0 167 97t70 278q0 166 -141 166q-111 0 -173.5 -105.5t-62.5 -271.5z M464.5 1466.5q-0.5 42.5 6.5 83.5h193q-5 -47 2 -84.5t34.5 -64.5t73.5 -27q65 0 114.5 51.5t74.5 124.5h215q-19 -63 -56 -128t-91.5 -127t-132.5 -101t-165 -39q-60 0 -107.5 18t-77 50t-49.5 71t-27 84.5t-7.5 88z" />
<glyph unicode="&#x150;" horiz-adv-x="1593" d="M127 516q0 147 30.5 278.5t95 244t158 194t226.5 128t293 46.5q134 0 239.5 -32t173 -86t111.5 -130t62 -158.5t18 -177.5q0 -78 -11 -155.5t-37.5 -161.5t-67 -158.5t-104 -142t-143.5 -116t-190.5 -77t-239.5 -28.5q-134 0 -239 26.5t-175 73t-115.5 114.5t-65 146 t-19.5 172zM508 539q0 -281 254 -281q164 0 277.5 157.5t113.5 415.5q0 134 -58.5 214.5t-181.5 80.5q-85 0 -155.5 -38.5t-115.5 -99.5t-76.5 -140t-44.5 -156.5t-13 -152.5zM547 1620l393 317l158 -221l-443 -248zM1024 1620l393 317l158 -221l-440 -248z" />
<glyph unicode="&#x151;" horiz-adv-x="1255" d="M90 383q0 105 23 199t72.5 175.5t122 140.5t176 92.5t229.5 33.5q463 0 463 -418q0 -82 -16.5 -162t-60.5 -164.5t-111 -148t-176.5 -104.5t-248.5 -41q-473 0 -473 397zM342 1253l399 367l156 -211l-438 -299zM444 395q0 -164 140 -164q97 0 167 97t70 278 q0 166 -141 166q-111 0 -173.5 -105.5t-62.5 -271.5zM776 1253l402 367l153 -211l-436 -299z" />
<glyph unicode="&#x152;" horiz-adv-x="1961" d="M127 516q0 147 30.5 278.5t95 244t158 194t226.5 128t293 46.5q95 0 198 -21h877l-51 -286h-619l-41 -238h584l-51 -284h-584l-51 -293h668l-50 -285h-884q-91 -16 -185 -16q-134 0 -239 26.5t-175 73t-115.5 114.5t-65 146t-19.5 172zM508 539q0 -281 254 -281 q21 0 53 4l152 858q-24 6 -54 6q-85 0 -155.5 -38.5t-115.5 -99.5t-76.5 -140t-44.5 -156.5t-13 -152.5z" />
<glyph unicode="&#x153;" horiz-adv-x="1892" d="M90 383q0 105 23 199t72.5 175.5t122 140.5t176 92.5t229.5 33.5q238 0 358 -139q142 137 379 137q180 0 279.5 -76.5t99.5 -195.5q0 -65 -16.5 -116t-60.5 -96.5t-115.5 -75.5t-186 -47.5t-268.5 -17.5q-6 -30 -6 -57q0 -111 118 -111q117 0 160 121h301q2 -14 2 -43 q0 -105 -62.5 -179t-166.5 -108t-240 -34q-119 0 -208.5 36.5t-137.5 100.5q-161 -137 -379 -137q-473 0 -473 397zM444 395q0 -164 140 -164q97 0 167 97t70 278q0 166 -141 166q-111 0 -173.5 -105.5t-62.5 -271.5zM1208 596q138 0 202.5 32t64.5 77q0 32 -25.5 49.5 t-65.5 17.5q-78 0 -121 -49.5t-55 -126.5z" />
<glyph unicode="&#x154;" horiz-adv-x="1368" d="M43 0l244 1386h624q226 0 333.5 -96.5t107.5 -273.5q0 -30 -7 -70.5t-32 -103t-65 -118.5t-115 -110.5t-172 -83.5l270 -530h-426l-240 508h-59l-88 -508h-375zM555 791h209q89 0 153 49.5t64 134.5q0 67 -40 98t-105 31h-226zM602 1642l451 287l118 -239l-487 -199z" />
<glyph unicode="&#x155;" horiz-adv-x="866" d="M41 0l176 1006h307q36 -74 11 -205h10q70 110 172.5 166.5t206.5 58.5l-39 -315q-109 -4 -183.5 -25.5t-120 -63t-69.5 -94.5t-37 -131l-67 -397h-367zM317 1243l404 377l153 -211l-436 -299z" />
<glyph unicode="&#x156;" horiz-adv-x="1368" d="M43 0l244 1386h624q226 0 333.5 -96.5t107.5 -273.5q0 -30 -7 -70.5t-32 -103t-65 -118.5t-115 -110.5t-172 -83.5l270 -530h-426l-240 508h-59l-88 -508h-375zM346 -588l125 246q-35 13 -54.5 45t-19.5 72q0 76 57 133t128 57q58 0 92.5 -35.5t34.5 -91.5 q0 -73 -39 -125l-240 -338zM555 791h209q89 0 153 49.5t64 134.5q0 67 -40 98t-105 31h-226z" />
<glyph unicode="&#x157;" horiz-adv-x="866" d="M-27 -629l125 246q-35 13 -54 44.5t-19 72.5q0 76 56.5 133t127.5 57q58 0 92.5 -35.5t34.5 -91.5q0 -73 -39 -125l-240 -338zM41 0l176 1006h307q36 -74 11 -205h10q70 110 172.5 166.5t206.5 58.5l-39 -315q-109 -4 -183.5 -25.5t-120 -63t-69.5 -94.5t-37 -131 l-67 -397h-367z" />
<glyph unicode="&#x158;" horiz-adv-x="1368" d="M43 0l244 1386h624q226 0 333.5 -96.5t107.5 -273.5q0 -30 -7 -70.5t-32 -103t-65 -118.5t-115 -110.5t-172 -83.5l270 -530h-426l-240 508h-59l-88 -508h-375zM399 1784l140 114l247 -198l308 198l114 -110l-348 -311h-213zM555 791h209q89 0 153 49.5t64 134.5 q0 67 -40 98t-105 31h-226z" />
<glyph unicode="&#x159;" horiz-adv-x="866" d="M41 0l176 1006h307q36 -74 11 -205h10q70 110 172.5 166.5t206.5 58.5l-39 -315q-109 -4 -183.5 -25.5t-120 -63t-69.5 -94.5t-37 -131l-67 -397h-367zM180 1473l139 114l236 -219l317 219l105 -104l-342 -344h-213z" />
<glyph unicode="&#x15a;" horiz-adv-x="1361" d="M70 340q0 61 22 141h352q-4 -32 -4 -47q0 -168 213 -168q113 0 171.5 47t58.5 113q0 57 -55 89t-193 54q-108 17 -184 41t-135 63.5t-88 98.5t-29 139q0 66 17 130t62 132t113.5 118.5t181.5 83t256 32.5q139 0 250.5 -38t180.5 -117t69 -187q0 -67 -26 -141h-357 q2 12 2 37q0 71 -44 111t-122 40q-95 0 -147.5 -42t-52.5 -99q0 -38 43 -62t143 -43q146 -27 244 -63.5t153.5 -87t78 -108.5t22.5 -136q0 -99 -42 -186t-122 -154.5t-208.5 -107t-289.5 -39.5q-84 0 -159.5 11.5t-145 38t-119.5 66.5t-80 101.5t-30 138.5zM647 1642 l451 287l119 -239l-488 -199z" />
<glyph unicode="&#x15b;" horiz-adv-x="1112" d="M45 248q0 40 14 92h312q0 -57 36.5 -87t102.5 -30q65 0 103 26t38 60q0 29 -36.5 46.5t-127.5 35.5q-182 35 -265 95t-83 173q0 48 13.5 95t49.5 97t91 87.5t146 61.5t206 24q58 0 112 -7.5t106.5 -25t91 -45t62 -70t23.5 -96.5q0 -30 -16 -100h-309q0 49 -28 74.5 t-75 25.5q-56 0 -84 -26t-28 -62q0 -22 19.5 -35.5t70.5 -23.5q238 -47 326 -112.5t88 -192.5q0 -154 -134.5 -248t-380.5 -94q-81 0 -152.5 11.5t-140.5 39t-110 81.5t-41 130zM455 1243l403 377l154 -211l-437 -299z" />
<glyph unicode="&#x15c;" horiz-adv-x="1361" d="M70 340q0 61 22 141h352q-4 -32 -4 -47q0 -168 213 -168q113 0 171.5 47t58.5 113q0 57 -55 89t-193 54q-108 17 -184 41t-135 63.5t-88 98.5t-29 139q0 66 17 130t62 132t113.5 118.5t181.5 83t256 32.5q139 0 250.5 -38t180.5 -117t69 -187q0 -67 -26 -141h-357 q2 12 2 37q0 71 -44 111t-122 40q-95 0 -147.5 -42t-52.5 -99q0 -38 43 -62t143 -43q146 -27 244 -63.5t153.5 -87t78 -108.5t22.5 -136q0 -99 -42 -186t-122 -154.5t-208.5 -107t-289.5 -39.5q-84 0 -159.5 11.5t-145 38t-119.5 66.5t-80 101.5t-30 138.5zM485 1579 l351 307h213l221 -307l-133 -115l-222 203l-335 -203z" />
<glyph unicode="&#x15d;" horiz-adv-x="1112" d="M45 248q0 40 14 92h312q0 -57 36.5 -87t102.5 -30q65 0 103 26t38 60q0 29 -36.5 46.5t-127.5 35.5q-182 35 -265 95t-83 173q0 48 13.5 95t49.5 97t91 87.5t146 61.5t206 24q58 0 112 -7.5t106.5 -25t91 -45t62 -70t23.5 -96.5q0 -30 -16 -100h-309q0 49 -28 74.5 t-75 25.5q-56 0 -84 -26t-28 -62q0 -22 19.5 -35.5t70.5 -23.5q238 -47 326 -112.5t88 -192.5q0 -154 -134.5 -248t-380.5 -94q-81 0 -152.5 11.5t-140.5 39t-110 81.5t-41 130zM264 1235l363 348h213l231 -352l-153 -111l-234 217l-322 -217z" />
<glyph unicode="&#x15e;" horiz-adv-x="1361" d="M70 340q0 61 22 141h352q-4 -32 -4 -47q0 -168 213 -168q113 0 171.5 47t58.5 113q0 57 -55 89t-193 54q-108 17 -184 41t-135 63.5t-88 98.5t-29 139q0 66 17 130t62 132t113.5 118.5t181.5 83t256 32.5q139 0 250.5 -38t180.5 -117t69 -187q0 -67 -26 -141h-357 q2 12 2 37q0 71 -44 111t-122 40q-95 0 -147.5 -42t-52.5 -99q0 -38 43 -62t143 -43q146 -27 244 -63.5t153.5 -87t78 -108.5t22.5 -136q0 -97 -39.5 -182t-115 -152t-196.5 -108t-274 -45l-45 -58q74 -1 126.5 -17t79 -43.5t37.5 -55t11 -58.5q0 -103 -92 -176.5 t-264 -73.5q-131 0 -250 41l57 119q78 -16 143 -16q152 0 152 88q0 26 -18.5 39.5t-47.5 13.5q-46 0 -90 -29l-71 58l129 172q-71 7 -132.5 23t-116.5 45t-94.5 68t-62 94t-22.5 122z" />
<glyph unicode="&#x15f;" horiz-adv-x="1112" d="M45 248q0 40 14 92h312q0 -57 36.5 -87t102.5 -30q65 0 103 26t38 60q0 29 -36.5 46.5t-127.5 35.5q-182 35 -265 95t-83 173q0 48 13.5 95t49.5 97t91 87.5t146 61.5t206 24q58 0 112 -7.5t106.5 -25t91 -45t62 -70t23.5 -96.5q0 -30 -16 -100h-309q0 49 -28 74.5 t-75 25.5q-56 0 -84 -26t-28 -62q0 -22 19.5 -35.5t70.5 -23.5q238 -47 326 -112.5t88 -192.5q0 -146 -125 -239.5t-351 -100.5l-47 -62q74 -1 126.5 -17t79 -43.5t37.5 -55t11 -58.5q0 -103 -92 -176.5t-264 -73.5q-131 0 -250 41l57 119q78 -16 144 -16q151 0 151 88 q0 53 -65 53q-46 0 -90 -29l-72 58l131 176q-53 5 -100 15.5t-92 31t-77 48t-51.5 69t-19.5 92.5z" />
<glyph unicode="&#x160;" horiz-adv-x="1361" d="M70 340q0 61 22 141h352q-4 -32 -4 -47q0 -168 213 -168q113 0 171.5 47t58.5 113q0 57 -55 89t-193 54q-108 17 -184 41t-135 63.5t-88 98.5t-29 139q0 66 17 130t62 132t113.5 118.5t181.5 83t256 32.5q139 0 250.5 -38t180.5 -117t69 -187q0 -67 -26 -141h-357 q2 12 2 37q0 71 -44 111t-122 40q-95 0 -147.5 -42t-52.5 -99q0 -38 43 -62t143 -43q146 -27 244 -63.5t153.5 -87t78 -108.5t22.5 -136q0 -99 -42 -186t-122 -154.5t-208.5 -107t-289.5 -39.5q-84 0 -159.5 11.5t-145 38t-119.5 66.5t-80 101.5t-30 138.5zM492 1784 l139 114l248 -198l307 198l114 -110l-348 -311h-213z" />
<glyph unicode="&#x161;" horiz-adv-x="1112" d="M45 248q0 40 14 92h312q0 -57 36.5 -87t102.5 -30q65 0 103 26t38 60q0 29 -36.5 46.5t-127.5 35.5q-182 35 -265 95t-83 173q0 48 13.5 95t49.5 97t91 87.5t146 61.5t206 24q58 0 112 -7.5t106.5 -25t91 -45t62 -70t23.5 -96.5q0 -30 -16 -100h-309q0 49 -28 74.5 t-75 25.5q-56 0 -84 -26t-28 -62q0 -22 19.5 -35.5t70.5 -23.5q238 -47 326 -112.5t88 -192.5q0 -154 -134.5 -248t-380.5 -94q-81 0 -152.5 11.5t-140.5 39t-110 81.5t-41 130zM303 1473l139 114l236 -219l317 219l105 -104l-342 -344h-213z" />
<glyph unicode="&#x162;" horiz-adv-x="1263" d="M139 1102l51 284h1207l-51 -284h-414l-193 -1102h-127l-57 -74q74 -1 126.5 -17t79 -43.5t37.5 -55t11 -58.5q0 -103 -92 -176.5t-264 -73.5q-131 0 -250 41l57 119q78 -16 143 -16q152 0 152 88q0 26 -18.5 39.5t-47.5 13.5q-47 0 -90 -29l-71 58l139 184h-98l192 1102 h-422z" />
<glyph unicode="&#x163;" horiz-adv-x="905" d="M-2 -457l57 119q78 -16 144 -16q151 0 151 88q0 53 -65 53q-47 0 -90 -29l-72 58l160 213q-163 86 -117 333l72 406h-150l35 201l170 37l133 299h262l-53 -299h268l-41 -238h-268l-68 -381q-13 -76 11 -101.5t110 -25.5q93 0 160 12l-29 -258q-102 -26 -295 -26 q-41 0 -82 6l-51 -68q74 -1 126.5 -17t79 -43.5t37.5 -55t11 -58.5q0 -103 -92 -176.5t-264 -73.5q-131 0 -250 41z" />
<glyph unicode="&#x164;" horiz-adv-x="1263" d="M139 1102l51 284h1207l-51 -284h-414l-193 -1102h-370l192 1102h-422zM467 1784l139 114l248 -198l307 198l115 -110l-348 -311h-213z" />
<glyph unicode="&#x165;" horiz-adv-x="1087" d="M88 768h150l-72 -406q-33 -185 50 -279.5t267 -94.5q193 0 295 26l29 258q-67 -12 -160 -12q-86 0 -110 25.5t-11 101.5l68 381h268l41 238h-268l53 299h-262l-133 -299l-170 -37zM870 1126l125 246q-35 13 -54 44.5t-19 72.5q0 76 56.5 133t127.5 57q58 0 92.5 -35.5 t34.5 -91.5q0 -73 -39 -125l-240 -337z" />
<glyph unicode="&#x166;" horiz-adv-x="1263" d="M139 1102l51 284h1207l-51 -284h-412l-51 -297h280l-35 -193h-280l-107 -612h-374l106 612h-276l34 193h277l51 297h-420z" />
<glyph unicode="&#x167;" horiz-adv-x="905" d="M20 444l31 179h160l27 145h-150l35 201l170 37l133 299h262l-53 -299h268l-41 -238h-268l-27 -145h197l-31 -179h-196l-11 -57q-13 -76 11 -101.5t110 -25.5q93 0 160 12l-45 -258q-102 -26 -279 -26q-184 0 -267 94.5t-50 279.5l14 82h-160z" />
<glyph unicode="&#x168;" horiz-adv-x="1499" d="M143 596l142 793h372l-145 -824q-15 -74 -8.5 -127t22 -87t47.5 -54t67.5 -27.5t82.5 -7.5q48 0 93 16t87.5 50t74.5 95.5t46 143.5l145 822h369l-141 -807q-19 -108 -51 -194.5t-88 -163t-133 -128t-188.5 -81t-250.5 -29.5q-654 0 -543 610zM520 1620 q62 114 131.5 167.5t157.5 53.5q47 0 145.5 -38t145.5 -38q42 0 78 15.5t86 62.5l118 -90q-46 -104 -123.5 -165.5t-162.5 -61.5q-53 0 -149 39t-136 39q-26 0 -45 -3t-54.5 -21.5t-68.5 -53.5z" />
<glyph unicode="&#x169;" horiz-adv-x="1181" d="M70 212.5q3 -68.5 25 -119t82.5 -79t158.5 -28.5q28 0 57.5 5.5t75 20.5t96 52t94.5 92h11q-16 -101 12 -156h315l177 1006h-367l-94 -543q-6 -36 -17 -69.5t-30 -68.5t-50.5 -56t-70.5 -21q-50 0 -73.5 20t-24 56t7.5 86l104 596h-362l-113 -644q-17 -81 -14 -149.5z M319 1272q62 114 131.5 167.5t157.5 53.5q47 0 145.5 -38t145.5 -38q42 0 78 15.5t86 62.5l119 -90q-46 -104 -124 -165.5t-163 -61.5q-53 0 -149 38.5t-136 38.5q-26 0 -45 -2.5t-54.5 -21t-68.5 -53.5z" />
<glyph unicode="&#x16a;" horiz-adv-x="1499" d="M143 596l142 793h372l-145 -824q-15 -74 -8.5 -127t22 -87t47.5 -54t67.5 -27.5t82.5 -7.5q48 0 93 16t87.5 50t74.5 95.5t46 143.5l145 822h369l-141 -807q-19 -108 -51 -194.5t-88 -163t-133 -128t-188.5 -81t-250.5 -29.5q-654 0 -543 610zM610 1561l39 227h658 l-39 -227h-658z" />
<glyph unicode="&#x16b;" horiz-adv-x="1181" d="M70 212.5q3 -68.5 25 -119t82.5 -79t158.5 -28.5q28 0 57.5 5.5t75 20.5t96 52t94.5 92h11q-16 -101 12 -156h315l177 1006h-367l-94 -543q-6 -36 -17 -69.5t-30 -68.5t-50.5 -56t-70.5 -21q-50 0 -73.5 20t-24 56t7.5 86l104 596h-362l-113 -644q-17 -81 -14 -149.5z M371 1219l41 227h673l-41 -227h-673z" />
<glyph unicode="&#x16c;" horiz-adv-x="1499" d="M143 596l142 793h372l-145 -824q-15 -74 -8.5 -127t22 -87t47.5 -54t67.5 -27.5t82.5 -7.5q48 0 93 16t87.5 50t74.5 95.5t46 143.5l145 822h369l-141 -807q-19 -108 -51 -194.5t-88 -163t-133 -128t-188.5 -81t-250.5 -29.5q-654 0 -543 610zM661.5 1784.5 q-0.5 42.5 6.5 83.5h192q-5 -46 2 -84t35 -65t74 -27q65 0 114 51.5t74 124.5h215q-15 -50 -40.5 -101.5t-66 -105t-89 -94.5t-113.5 -67.5t-135 -26.5q-60 0 -107.5 18t-77 50t-49.5 71t-27 84.5t-7.5 88z" />
<glyph unicode="&#x16d;" horiz-adv-x="1181" d="M70 212.5q3 -68.5 25 -119t82.5 -79t158.5 -28.5q28 0 57.5 5.5t75 20.5t96 52t94.5 92h11q-16 -101 12 -156h315l177 1006h-367l-94 -543q-6 -36 -17 -69.5t-30 -68.5t-50.5 -56t-70.5 -21q-50 0 -73.5 20t-24 56t7.5 86l104 596h-362l-113 -644q-17 -81 -14 -149.5z M423.5 1466.5q-0.5 42.5 6.5 83.5h193q-5 -47 2 -84.5t34.5 -64.5t73.5 -27q65 0 114.5 51.5t74.5 124.5h215q-19 -63 -56 -128t-91.5 -127t-132.5 -101t-165 -39q-60 0 -107.5 18t-77 50t-49.5 71t-27 84.5t-7.5 88z" />
<glyph unicode="&#x16e;" horiz-adv-x="1499" d="M143 596l142 793h372l-145 -824q-15 -74 -8.5 -127t22 -87t47.5 -54t67.5 -27.5t82.5 -7.5q48 0 93 16t87.5 50t74.5 95.5t46 143.5l145 822h369l-141 -807q-19 -108 -51 -194.5t-88 -163t-133 -128t-188.5 -81t-250.5 -29.5q-654 0 -543 610zM719 1653q0 115 85.5 204 t194.5 89q88 0 142.5 -57.5t54.5 -143.5q0 -119 -85 -202t-198 -83q-88 0 -141 54t-53 139zM885 1686q0 -25 17 -43.5t40 -18.5q33 0 58.5 28t25.5 62q0 27 -16.5 45.5t-40.5 18.5q-29 0 -56.5 -28.5t-27.5 -63.5z" />
<glyph unicode="&#x16f;" horiz-adv-x="1181" d="M70 212.5q3 -68.5 25 -119t82.5 -79t158.5 -28.5q28 0 57.5 5.5t75 20.5t96 52t94.5 92h11q-16 -101 12 -156h315l177 1006h-367l-94 -543q-6 -36 -17 -69.5t-30 -68.5t-50.5 -56t-70.5 -21q-50 0 -73.5 20t-24 56t7.5 86l104 596h-362l-113 -644q-17 -81 -14 -149.5z M520 1329q0 115 86 204t195 89q88 0 142 -57.5t54 -143.5q0 -119 -84.5 -201.5t-197.5 -82.5q-88 0 -141.5 54t-53.5 138zM686 1362q0 -25 17 -43.5t40 -18.5q33 0 58.5 28.5t25.5 62.5q0 27 -16 45t-41 18q-29 0 -56.5 -28.5t-27.5 -63.5z" />
<glyph unicode="&#x170;" horiz-adv-x="1499" d="M143 596l142 793h372l-145 -824q-15 -74 -8.5 -127t22 -87t47.5 -54t67.5 -27.5t82.5 -7.5q48 0 93 16t87.5 50t74.5 95.5t46 143.5l145 822h369l-141 -807q-19 -108 -51 -194.5t-88 -163t-133 -128t-188.5 -81t-250.5 -29.5q-654 0 -543 610zM487 1620l394 317l157 -221 l-442 -248zM965 1620l393 317l158 -221l-441 -248z" />
<glyph unicode="&#x171;" horiz-adv-x="1181" d="M70 212.5q-3 68.5 14 149.5l113 644h362l-104 -596q-8 -50 -7.5 -86t24 -56t73.5 -20q39 0 70.5 21t50.5 56t30 68.5t17 69.5l94 543h367l-177 -1006h-315q-28 55 -12 156h-11q-44 -55 -94.5 -92t-96 -52t-75 -20.5t-57.5 -5.5q-98 0 -158.5 28.5t-82.5 79t-25 119z M299 1253l399 367l156 -211l-438 -299zM733 1253l402 367l153 -211l-436 -299z" />
<glyph unicode="&#x172;" horiz-adv-x="1499" d="M125 401q0 74 16 168l144 820h372l-145 -824q-10 -65 -10 -100q0 -114 58 -158.5t163 -44.5q49 0 94 16t87 50t73.5 95.5t46.5 143.5l145 822h369l-141 -807q-22 -127 -70 -228.5t-126 -181.5t-195 -127.5t-267 -56.5q-108 -114 -108 -203q0 -52 40.5 -81.5t114.5 -29.5 q52 0 113 15l8 -103q-144 -63 -286 -63q-121 0 -181.5 43.5t-60.5 114.5q0 72 56 154.5t157 154.5q-246 13 -356.5 117t-110.5 294z" />
<glyph unicode="&#x173;" horiz-adv-x="1181" d="M67.5 227.5q1.5 50.5 12.5 116.5l117 662h362l-104 -596q-35 -162 90 -162q128 0 160 180l102 578h367l-177 -1006h-206q-127 -124 -127 -219q0 -52 40.5 -81.5t114.5 -29.5q49 0 111 15l12 -103q-148 -63 -289 -63q-122 0 -182.5 43t-60.5 114q0 79 72 172.5t194 167.5 q-21 55 -6 140h-11q-44 -55 -94.5 -92t-96 -52t-75 -20.5t-57.5 -5.5q-77 0 -131 18t-83.5 48.5t-42.5 77.5t-11.5 97.5z" />
<glyph unicode="&#x174;" horiz-adv-x="2074" d="M178 1386l139 -1386h412l189 469q103 252 217 573h8q-13 -222 12 -600l25 -442h413l627 1386h-393l-178 -468q-16 -43 -56 -151.5t-70 -193t-57 -172.5h-10q2 224 -16 521l-27 464h-434l-178 -440q-15 -38 -53 -130.5t-58.5 -144t-49.5 -131.5t-50 -151h-8q3 137 3 194 t-3 183t-4 178l-13 442h-387zM850 1579l350 307h213l221 -307l-133 -115l-221 203l-336 -203z" />
<glyph unicode="&#x175;" horiz-adv-x="1730" d="M102 1008h355l26 -310q19 -206 21 -336h10q33 101 119 291l104 228h381l27 -211q23 -186 31 -297h10l106 250q56 128 75 193.5t38 189.5h346q-21 -158 -43.5 -238.5t-93.5 -216.5l-291 -555h-360l-35 244q-31 214 -37 338h-17q-60 -179 -141 -349l-112 -233h-381z M565 1235l363 348h213l231 -352l-153 -111l-234 217l-321 -217z" />
<glyph unicode="&#x176;" horiz-adv-x="1349" d="M172 1386h373l86 -286q54 -172 74 -336h12q111 206 196 330l201 292h387l-641 -907l-84 -479h-373l82 467zM453 1579l350 307h213l221 -307l-133 -115l-221 203l-336 -203z" />
<glyph unicode="&#x177;" horiz-adv-x="1144" d="M84 1008h346l68 -412q30 -181 37 -315h12l153 325q42 88 67 159t34.5 113t25.5 128h338q-3 -18 -11 -67t-11 -65t-11 -55t-15.5 -61t-19.5 -57t-27.5 -69t-35.5 -73l-508 -979h-362l225 422l-98 -4zM279 1235l362 348h213l231 -352l-153 -111l-234 217l-321 -217z" />
<glyph unicode="&#x178;" horiz-adv-x="1349" d="M172 1386h373l86 -286q54 -172 74 -336h12q111 206 196 330l201 292h387l-641 -907l-84 -479h-373l82 467zM500 1622q0 75 57.5 131.5t128.5 56.5q58 0 94.5 -37.5t36.5 -93.5q0 -78 -56 -135t-130 -57q-58 0 -94.5 38t-36.5 97zM936 1622q0 75 57.5 131.5t130.5 56.5 q56 0 92.5 -37.5t36.5 -93.5q0 -77 -55.5 -134.5t-128.5 -57.5q-59 0 -96 38t-37 97z" />
<glyph unicode="&#x179;" horiz-adv-x="1339" d="M4 0l45 264l832 836h-658l51 289h1110l-47 -265l-829 -843h700l-49 -281h-1155zM702 1642l451 287l119 -239l-488 -199z" />
<glyph unicode="&#x17a;" horiz-adv-x="1040" d="M-10 0l30 176l562 574h-424l45 254h868l-33 -181l-559 -569h471l-43 -254h-917zM477 1243l404 377l153 -211l-436 -299z" />
<glyph unicode="&#x17b;" horiz-adv-x="1339" d="M4 0l45 264l832 836h-658l51 289h1110l-47 -265l-829 -843h700l-49 -281h-1155zM705 1659q0 78 58.5 138.5t133.5 60.5q58 0 96.5 -40t38.5 -100q0 -77 -59.5 -135.5t-132.5 -58.5q-60 0 -97.5 38t-37.5 97z" />
<glyph unicode="&#x17c;" horiz-adv-x="1040" d="M-10 0l30 176l562 574h-424l45 254h868l-33 -181l-559 -569h471l-43 -254h-917zM559 1311q0 78 59 138t134 60q58 0 96.5 -39.5t38.5 -99.5q0 -77 -60 -135.5t-133 -58.5q-60 0 -97.5 38t-37.5 97z" />
<glyph unicode="&#x17d;" horiz-adv-x="1339" d="M4 0l45 264l832 836h-658l51 289h1110l-47 -265l-829 -843h700l-49 -281h-1155zM496 1784l139 114l248 -198l307 198l115 -110l-349 -311h-213z" />
<glyph unicode="&#x17e;" horiz-adv-x="1040" d="M-10 0l30 176l562 574h-424l45 254h868l-33 -181l-559 -569h471l-43 -254h-917zM334 1473l139 114l236 -219l317 219l104 -104l-342 -344h-213z" />
<glyph unicode="&#x192;" horiz-adv-x="1376" d="M113 -201l67 256q68 -12 101 -12q34 0 57 5.5t43 24t32.5 41t26 71t24 99.5t25.5 138l27 143h-184l12 203h211l10 57q19 104 36 174t42.5 134.5t56.5 103t76.5 68t104.5 41.5t139 12q40 0 106 -11t113 -26l-63 -240q-69 15 -97 15q-84 0 -118 -61t-58 -214l-8 -53h207 l-12 -203h-232l-24 -147q-21 -124 -46 -220t-51.5 -164.5t-60.5 -117t-68 -77.5t-79 -45t-86.5 -21.5t-98.5 -5.5q-125 0 -231 32z" />
<glyph unicode="&#x1a0;" horiz-adv-x="1593" d="M127 516q0 147 30.5 278.5t95 244t158 194t226.5 128t293 46.5q263 0 413 -121q69 8 119 53.5t64 128.5l30 172h242l-39 -223q-8 -43 -18 -77t-31.5 -76.5t-49.5 -72.5t-74.5 -53t-104.5 -30q53 -123 53 -285q0 -78 -11 -155.5t-37.5 -161.5t-67 -158.5t-104 -142 t-143.5 -116t-190.5 -77t-239.5 -28.5q-134 0 -239 26.5t-175 73t-115.5 114.5t-65 146t-19.5 172zM508 539q0 -281 254 -281q164 0 277.5 157.5t113.5 415.5q0 134 -58.5 214.5t-181.5 80.5q-85 0 -155.5 -38.5t-115.5 -99.5t-76.5 -140t-44.5 -156.5t-13 -152.5z" />
<glyph unicode="&#x1a1;" horiz-adv-x="1366" d="M90 389q0 134 39.5 247.5t116 201t200.5 137t283 49.5q121 0 199 -26t135 -78q69 2 111.5 38.5t56.5 122.5l29 172h241l-39 -223q-21 -117 -93 -202t-202 -107q11 -72 11 -123q0 -84 -19 -166t-66.5 -164t-117.5 -143.5t-181 -100t-249 -38.5q-125 0 -215 29t-141.5 84.5 t-75 126.5t-23.5 163zM444 395q0 -164 140 -164q97 0 167 97t70 278q0 166 -141 166q-111 0 -173.5 -105.5t-62.5 -271.5z" />
<glyph unicode="&#x1af;" horiz-adv-x="1708" d="M129.5 384.5q-3.5 92.5 13.5 201.5l142 803h372l-145 -824q-15 -74 -8.5 -127t22 -87t47.5 -54t67.5 -27.5t82.5 -7.5q48 0 93 16t87.5 50t74.5 95.5t46 143.5l145 822h369l-14 -86h18q75 0 111 35.5t53 129.5l31 172h241l-39 -223q-12 -63 -37.5 -116t-70 -100t-119 -74 t-172.5 -27h-53l-90 -518q-19 -107 -53 -194.5t-91.5 -163.5t-135 -127.5t-186.5 -81t-243 -29.5q-141 0 -246.5 27.5t-170.5 79.5t-101.5 125.5t-40 166z" />
<glyph unicode="&#x1b0;" horiz-adv-x="1449" d="M65.5 216.5q-3.5 69.5 14.5 150.5l117 639h362l-104 -590q-8 -51 -7.5 -88t24 -58.5t73.5 -21.5q39 0 70 18t48.5 47t27.5 57.5t14 57.5l102 578h367l-17 -91h17q75 0 111.5 36t53.5 130l29 172h242l-39 -223q-9 -50 -25 -93t-47 -85.5t-73.5 -72t-107 -48t-144.5 -18.5 h-52l-125 -713h-315q-28 55 -12 156h-11q-44 -55 -94.5 -92t-96 -52t-75 -20.5t-57.5 -5.5q-98 0 -159.5 29.5t-84.5 80.5t-26.5 120.5z" />
<glyph unicode="&#x1fc;" horiz-adv-x="2072" d="M-57 -2l958 1388h1182l-31 -286h-635l-24 -238h577l-31 -280h-577l-31 -295h649l-28 -287h-1000l33 319h-469l-213 -321h-360zM717 588h297l53 510l-10 2q-53 -84 -228 -344zM1262 1642l450 287l119 -239l-488 -199z" />
<glyph unicode="&#x1fd;" horiz-adv-x="1751" d="M37 225q0 90 32.5 159t84 111t124.5 68.5t146 36.5t156 10h135q4 36 4 49q0 113 -103 113q-93 0 -124 -84h-304q-2 12 -2 39q0 69 32 122.5t80.5 85t112.5 52t121 28t113 7.5q100 0 188.5 -25.5t131.5 -68.5q145 94 346 94q180 0 279.5 -76.5t99.5 -195.5 q0 -63 -14.5 -112.5t-53.5 -95.5t-103 -76.5t-167.5 -49t-241.5 -19.5h-68q-6 -30 -6 -57q0 -111 119 -111q117 0 160 121h301q2 -14 2 -43q0 -105 -62.5 -179t-166.5 -108t-240 -34q-293 0 -399 159q-167 -163 -441 -163q-146 0 -209 59t-63 184zM395 311q0 -42 25.5 -61 t64.5 -19q56 0 113 20t96 50q-10 74 -2 125q-62 4 -84 4q-213 0 -213 -119zM827 1243l404 377l153 -211l-436 -299zM1069 596h72q101 6 147.5 37t46.5 72q0 33 -25 50t-65 17q-78 0 -121 -49.5t-55 -126.5z" />
<glyph unicode="&#x1fe;" horiz-adv-x="1593" d="M51 66l152 143q-76 123 -76 307q0 147 30.5 278.5t95 244t158 194t226.5 128t293 46.5q265 0 420 -125l139 131l94 -104l-141 -133q92 -139 92 -353q0 -78 -11 -155.5t-37.5 -161.5t-67 -158.5t-104 -142t-143.5 -116t-190.5 -77t-239.5 -28.5q-288 0 -440 118l-156 -147 zM508 496l588 548q-63 82 -183 82q-85 0 -155.5 -38.5t-115.5 -99.5t-76.5 -140t-44.5 -156.5t-13 -152.5v-43zM559 344q62 -86 203 -86q164 0 277.5 157.5t113.5 415.5q0 28 -4 68zM823 1642l451 287l119 -239l-488 -199z" />
<glyph unicode="&#x1ff;" horiz-adv-x="1255" d="M31 84l104 88q-45 86 -45 211q0 105 23 199t72.5 175.5t122 140.5t176 92.5t229.5 33.5q207 0 327 -88l119 100l82 -100l-117 -98q52 -96 52 -232q0 -82 -16.5 -162t-60.5 -164.5t-111 -148t-176.5 -104.5t-248.5 -41q-226 0 -344 88l-110 -92zM444 434l347 291 q-37 47 -111 47q-104 0 -166 -93.5t-70 -244.5zM469 285q35 -54 115 -54q94 0 162.5 90.5t74.5 260.5zM594 1243l403 377l154 -211l-436 -299z" />
<glyph unicode="&#x218;" horiz-adv-x="1361" d="M70 340q0 61 22 141h352q-4 -32 -4 -47q0 -168 213 -168q113 0 171.5 47t58.5 113q0 57 -55 89t-193 54q-108 17 -184 41t-135 63.5t-88 98.5t-29 139q0 66 17 130t62 132t113.5 118.5t181.5 83t256 32.5q139 0 250.5 -38t180.5 -117t69 -187q0 -67 -26 -141h-357 q2 12 2 37q0 71 -44 111t-122 40q-95 0 -147.5 -42t-52.5 -99q0 -38 43 -62t143 -43q146 -27 244 -63.5t153.5 -87t78 -108.5t22.5 -136q0 -99 -42 -186t-122 -154.5t-208.5 -107t-289.5 -39.5q-84 0 -159.5 11.5t-145 38t-119.5 66.5t-80 101.5t-30 138.5zM377 -629 l125 246q-35 13 -54.5 45t-19.5 72q0 76 56.5 133t127.5 57q58 0 92.5 -35.5t34.5 -91.5q0 -73 -39 -125l-239 -338z" />
<glyph unicode="&#x219;" horiz-adv-x="1112" d="M45 248q0 40 14 92h312q0 -57 36.5 -87t102.5 -30q65 0 103 26t38 60q0 29 -36.5 46.5t-127.5 35.5q-182 35 -265 95t-83 173q0 48 13.5 95t49.5 97t91 87.5t146 61.5t206 24q58 0 112 -7.5t106.5 -25t91 -45t62 -70t23.5 -96.5q0 -30 -16 -100h-309q0 49 -28 74.5 t-75 25.5q-56 0 -84 -26t-28 -62q0 -22 19.5 -35.5t70.5 -23.5q238 -47 326 -112.5t88 -192.5q0 -154 -134.5 -248t-380.5 -94q-81 0 -152.5 11.5t-140.5 39t-110 81.5t-41 130zM252 -629l125 246q-35 13 -54.5 45t-19.5 72q0 76 56.5 133t127.5 57q58 0 92.5 -35.5 t34.5 -91.5q0 -73 -39 -125l-239 -338z" />
<glyph unicode="&#x21a;" horiz-adv-x="1263" d="M139 1102l51 284h1207l-51 -284h-414l-193 -1102h-370l192 1102h-422zM322 -629l124 246q-35 13 -54 44.5t-19 72.5q0 76 56.5 133t127.5 57q58 0 92.5 -35.5t34.5 -91.5q0 -73 -39 -125l-239 -338z" />
<glyph unicode="&#x21b;" horiz-adv-x="905" d="M88 768l35 201l170 37l133 299h262l-53 -299h268l-41 -238h-268l-68 -381q-13 -76 11 -101.5t110 -25.5q93 0 160 12l-29 -258q-102 -26 -295 -26q-184 0 -267 94.5t-50 279.5l72 406h-150zM104 -629l125 246q-35 13 -54 44.5t-19 72.5q0 76 56.5 133t127.5 57 q58 0 92.5 -35.5t34.5 -91.5q0 -73 -39 -125l-240 -338z" />
<glyph unicode="&#x259;" horiz-adv-x="1138" d="M78 258q0 66 15.5 115.5t57.5 95t112 74.5t183 46t267 17q10 75 -15.5 123.5t-95.5 48.5q-65 0 -98 -34.5t-51 -86.5h-301q-2 14 -2 43q0 79 38.5 141.5t104.5 101.5t149 59t176 20q233 0 346 -99.5t113 -283.5q0 -295 -169 -474t-451 -179q-180 0 -279.5 76.5 t-99.5 195.5zM414 303q0 -33 25 -50t65 -17q78 0 121 49.5t55 126.5q-138 0 -202 -32t-64 -77z" />
<glyph unicode="&#x2b9;" horiz-adv-x="555" d="M168 881l338 653l282 -113l-436 -633z" />
<glyph unicode="&#x2c6;" horiz-adv-x="1157" d="M313 1235l363 348h213l231 -352l-153 -111l-234 217l-321 -217z" />
<glyph unicode="&#x2c7;" horiz-adv-x="1157" d="M373 1473l139 114l236 -219l317 219l104 -104l-342 -344h-213z" />
<glyph unicode="&#x2d8;" horiz-adv-x="1169" d="M452.5 1466.5q-0.5 42.5 6.5 83.5h192q-5 -46 2 -84t35 -65t74 -27q65 0 114 51.5t74 124.5h215q-15 -50 -40.5 -101.5t-66 -105t-89 -94.5t-113.5 -67.5t-135 -26.5q-60 0 -107.5 18t-77 50t-49.5 71t-27 84.5t-7.5 88z" />
<glyph unicode="&#x2d9;" horiz-adv-x="1165" d="M608 1311q0 78 59 138t134 60q58 0 96.5 -39.5t38.5 -99.5q0 -77 -60 -135.5t-133 -58.5q-60 0 -97.5 38t-37.5 97z" />
<glyph unicode="&#x2da;" horiz-adv-x="1075" d="M518 1329q0 115 86 204t195 89q88 0 142 -57.5t54 -143.5q0 -119 -84.5 -201.5t-197.5 -82.5q-88 0 -141.5 54t-53.5 138zM684 1362q0 -25 17 -43.5t40 -18.5q33 0 58.5 28.5t25.5 62.5q0 27 -16 45t-41 18q-29 0 -56.5 -28.5t-27.5 -63.5z" />
<glyph unicode="&#x2db;" horiz-adv-x="1091" d="M410 -328q0 94 97.5 204t254.5 183l49 -43q-74 -67 -111.5 -129t-37.5 -110q0 -51 41.5 -81t115.5 -30q49 0 111 15l10 -103q-144 -63 -287 -63q-122 0 -182.5 43t-60.5 114z" />
<glyph unicode="&#x2dc;" horiz-adv-x="1130" d="M309 1272q62 114 131.5 167.5t157.5 53.5q47 0 145.5 -38t145.5 -38q42 0 78 15.5t86 62.5l118 -90q-46 -104 -123.5 -165.5t-162.5 -61.5q-53 0 -149 38.5t-136 38.5q-26 0 -45 -2.5t-54.5 -21t-68.5 -53.5z" />
<glyph unicode="&#x2dd;" horiz-adv-x="1239" d="M322 1253l399 367l156 -211l-439 -299zM756 1253l401 367l154 -211l-437 -299z" />
<glyph unicode="&#x384;" horiz-adv-x="1157" d="M494 1210l344 418l192 -174l-397 -360z" />
<glyph unicode="&#x385;" horiz-adv-x="1169" d="M172 1247q0 76 56 134.5t130 58.5q58 0 96 -38t38 -97q0 -75 -58.5 -132t-130.5 -57q-58 0 -94.5 37t-36.5 94zM487 1135l226 471l264 -86l-307 -451zM889 1247q0 77 55.5 135t128.5 58q58 0 95.5 -38t37.5 -97q0 -75 -58 -132t-130 -57q-57 0 -93 37t-36 94z" />
<glyph unicode="&#x386;" horiz-adv-x="1460" d="M-137 1108l344 418l192 -174l-397 -361zM-74 0l760 1391h422l240 -1391h-381l-35 299h-471l-152 -299h-383zM610 571h277l-19 187q-17 144 -20 295h-19q-61 -154 -127 -295z" />
<glyph unicode="&#x387;" horiz-adv-x="585" d="M143 670q0 96 68 164.5t158 68.5q70 0 113.5 -44.5t43.5 -115.5q0 -93 -68 -160t-157 -67q-70 0 -114 43.5t-44 110.5z" />
<glyph unicode="&#x388;" horiz-adv-x="1265" d="M-397 1108l344 418l192 -174l-397 -361zM41 0l244 1386h1024l-52 -286h-651l-41 -238h604l-51 -284h-604l-51 -293h688l-49 -285h-1061z" />
<glyph unicode="&#x389;" horiz-adv-x="1505" d="M-379 1108l344 418l193 -174l-398 -361zM41 0l244 1389h372l-92 -527h512l92 527h375l-244 -1389h-374l100 575h-512l-100 -575h-373z" />
<glyph unicode="&#x38a;" horiz-adv-x="663" d="M-360 1108l344 418l192 -174l-397 -361zM61 0l244 1386h375l-244 -1386h-375z" />
<glyph unicode="&#x38c;" horiz-adv-x="1593" d="M-270 1108l344 418l192 -174l-397 -361zM127 516q0 147 30.5 278.5t95 244t158 194t226.5 128t293 46.5q134 0 239.5 -32t173 -86t111.5 -130t62 -158.5t18 -177.5q0 -78 -11 -155.5t-37.5 -161.5t-67 -158.5t-104 -142t-143.5 -116t-190.5 -77t-239.5 -28.5 q-134 0 -239 26.5t-175 73t-115.5 114.5t-65 146t-19.5 172zM508 539q0 -281 254 -281q164 0 277.5 157.5t113.5 415.5q0 134 -58.5 214.5t-181.5 80.5q-85 0 -155.5 -38.5t-115.5 -99.5t-76.5 -140t-44.5 -156.5t-13 -152.5z" />
<glyph unicode="&#x38e;" horiz-adv-x="1349" d="M-436 1108l344 418l192 -174l-397 -361zM172 1386h373l86 -286q54 -172 74 -336h12q111 206 196 330l201 292h387l-641 -907l-84 -479h-373l82 467z" />
<glyph unicode="&#x38f;" horiz-adv-x="1615" d="M-307 1083l344 418l192 -174l-397 -360zM12 0l49 283h170l9 8q-107 97 -107 305q0 162 55.5 308t158.5 259.5t264 180.5t358 67q131 0 235 -31t171.5 -83.5t112.5 -125.5t64 -153t19 -170q0 -30 -2 -60.5t-9.5 -84t-25 -104.5t-44 -107t-72.5 -108t-105 -91l6 -10h188 l-49 -283h-622l51 293q122 34 207.5 181.5t85.5 359.5q0 140 -67 216t-191 76q-194 0 -303 -159t-109 -414q0 -205 139 -256l-51 -297h-586z" />
<glyph unicode="&#x390;" horiz-adv-x="694" d="M-39 1255q0 76 56 134.5t130 58.5q58 0 96 -38t38 -97q0 -75 -58.5 -132t-130.5 -57q-58 0 -94.5 37t-36.5 94zM123 379q-37 -211 29 -301t266 -90q93 0 172 18l26 256q-32 0 -50.5 1t-39 5.5t-29.5 13t-16 24t-6.5 39t6.5 56.5l113 605h-363zM276 1143l226 471l264 -86 l-307 -451zM678 1255q0 77 55.5 135t128.5 58q58 0 95.5 -38t37.5 -97q0 -75 -58 -132t-130 -57q-57 0 -93 37t-36 94z" />
<glyph unicode="&#x391;" horiz-adv-x="1460" d="M-74 0l760 1391h422l240 -1391h-381l-35 299h-471l-152 -299h-383zM610 571h277l-19 187q-17 144 -20 295h-19q-61 -154 -127 -295z" />
<glyph unicode="&#x392;" horiz-adv-x="1392" d="M59 0l244 1386h668q168 0 266 -69.5t98 -216.5q0 -29 -5 -61t-21.5 -76.5t-43.5 -82.5t-76 -74.5t-114 -57.5l-2 -11q215 -43 215 -288q0 -197 -138.5 -323t-363.5 -126h-727zM483 285h240q86 0 137 48.5t51 131.5q0 58 -37 89.5t-100 31.5h-237zM582 870h223 q63 0 105 40.5t42 103.5q0 41 -27.5 63.5t-74.5 22.5h-227z" />
<glyph unicode="&#x393;" horiz-adv-x="1144" d="M41 0l244 1386h1009l-51 -286h-637l-192 -1100h-373z" />
<glyph unicode="&#x395;" horiz-adv-x="1265" d="M41 0l244 1386h1024l-52 -286h-651l-41 -238h604l-51 -284h-604l-51 -293h688l-49 -285h-1061z" />
<glyph unicode="&#x396;" horiz-adv-x="1339" d="M4 0l45 264l832 836h-658l51 289h1110l-47 -265l-829 -843h700l-49 -281h-1155z" />
<glyph unicode="&#x397;" horiz-adv-x="1505" d="M41 0l244 1389h372l-92 -527h512l92 527h375l-244 -1389h-374l100 575h-512l-100 -575h-373z" />
<glyph unicode="&#x398;" horiz-adv-x="1632" d="M127 522q0 149 33.5 281.5t102.5 243.5t168.5 191t239 124.5t306.5 44.5q114 0 206.5 -22t156.5 -62.5t110.5 -93.5t72.5 -120.5t38 -137t12 -148.5q0 -86 -12.5 -168.5t-42 -167t-73.5 -157.5t-111 -137.5t-150 -110t-194.5 -72t-241.5 -26.5q-170 0 -293 40.5 t-193.5 115t-102.5 169t-32 213.5zM508 543q0 -285 272 -285q179 0 293.5 150t114.5 411q0 307 -256 307q-107 0 -190.5 -49t-133.5 -132.5t-75 -185.5t-25 -216zM625 571l45 256h413l-45 -256h-413z" />
<glyph unicode="&#x399;" horiz-adv-x="663" d="M61 0l244 1386h375l-244 -1386h-375z" />
<glyph unicode="&#x39a;" horiz-adv-x="1411" d="M41 0l244 1391h370l-88 -504h47l471 504h457l-622 -650l397 -741h-430l-299 588h-74l-102 -588h-371z" />
<glyph unicode="&#x39b;" horiz-adv-x="1460" d="M-61 0l739 1391h420l262 -1391h-379l-102 735q-26 184 -29 342h-19q-54 -163 -147 -350l-360 -727h-385z" />
<glyph unicode="&#x39c;" horiz-adv-x="1951" d="M61 0l306 1386h417l103 -354q46 -153 108 -436h21q80 153 246 414l239 376h420l-192 -1386h-367l129 838h-16q-118 -210 -211 -359l-181 -278h-295l-86 291q-12 40 -26 104t-30 145t-23 115h-15l-180 -856h-367z" />
<glyph unicode="&#x39d;" horiz-adv-x="1478" d="M37 0l244 1386h342l208 -405q123 -236 175 -377h18l135 782h363l-244 -1386h-320l-245 479q-86 157 -158 330l-14 -2l-140 -807h-364z" />
<glyph unicode="&#x39e;" horiz-adv-x="1302" d="M16 0l50 287h1118l-49 -287h-1119zM209 575l51 287h918l-52 -287h-917zM233 1100l52 286h1046l-51 -286h-1047z" />
<glyph unicode="&#x39f;" horiz-adv-x="1593" d="M127 516q0 147 30.5 278.5t95 244t158 194t226.5 128t293 46.5q134 0 239.5 -32t173 -86t111.5 -130t62 -158.5t18 -177.5q0 -78 -11 -155.5t-37.5 -161.5t-67 -158.5t-104 -142t-143.5 -116t-190.5 -77t-239.5 -28.5q-134 0 -239 26.5t-175 73t-115.5 114.5t-65 146 t-19.5 172zM508 539q0 -281 254 -281q164 0 277.5 157.5t113.5 415.5q0 134 -58.5 214.5t-181.5 80.5q-85 0 -155.5 -38.5t-115.5 -99.5t-76.5 -140t-44.5 -156.5t-13 -152.5z" />
<glyph unicode="&#x3a0;" horiz-adv-x="1447" d="M41 0l244 1389h1200l-244 -1389h-369l193 1100h-459l-192 -1100h-373z" />
<glyph unicode="&#x3a1;" horiz-adv-x="1314" d="M41 0l244 1386h620q451 0 451 -385q0 -71 -17.5 -140.5t-62 -141.5t-110.5 -126.5t-173 -89t-241 -34.5h-256l-82 -469h-373zM545 754h211q28 0 56.5 5t62 19.5t59 37t42.5 61t17 88.5q0 49 -27.5 80.5t-65.5 43t-85 11.5h-209z" />
<glyph unicode="&#x3a3;" horiz-adv-x="1220" d="M-8 0l45 264l399 475l-246 385l48 265h1056l-51 -287h-592l213 -363l-364 -452h653l-49 -287h-1112z" />
<glyph unicode="&#x3a4;" horiz-adv-x="1263" d="M139 1102l51 284h1207l-51 -284h-414l-193 -1102h-370l192 1102h-422z" />
<glyph unicode="&#x3a5;" horiz-adv-x="1349" d="M172 1386h373l86 -286q54 -172 74 -336h12q111 206 196 330l201 292h387l-641 -907l-84 -479h-373l82 467z" />
<glyph unicode="&#x3a6;" horiz-adv-x="1736" d="M127 588q0 289 191.5 482t512.5 230l17 89h336l-15 -86q260 -31 384 -166t124 -334q0 -94 -25.5 -186t-82 -180.5t-138.5 -158t-204 -116t-269 -56.5l-18 -106h-336l19 106q-251 31 -373.5 157.5t-122.5 324.5zM481 618q0 -186 185 -245l118 659q-139 -26 -221 -139.5 t-82 -274.5zM1006 375q107 29 178.5 98.5t101 152.5t29.5 179q0 92 -49 153t-142 76z" />
<glyph unicode="&#x3a7;" horiz-adv-x="1396" d="M-72 0l600 719l-315 667h403l156 -452l311 452h428l-555 -667l351 -719h-412l-184 479l-355 -479h-428z" />
<glyph unicode="&#x3a8;" horiz-adv-x="1736" d="M178 930l82 459h367l-86 -490q-13 -64 -6.5 -111.5t20.5 -79t40.5 -52t53 -30t58.5 -12.5l137 779h373l-138 -779q39 4 78 20.5t78 48.5t69.5 88t43.5 130l86 488h364l-78 -461q-17 -102 -53.5 -189.5t-95 -162t-136 -128.5t-181.5 -86.5t-226 -37.5l-55 -324h-373 l55 324q-286 20 -405.5 179t-71.5 427z" />
<glyph unicode="&#x3a9;" horiz-adv-x="1615" d="M12 0l49 283h170l9 8q-107 97 -107 305q0 162 55.5 308t158.5 259.5t264 180.5t358 67q131 0 235 -31t171.5 -83.5t112.5 -125.5t64 -153t19 -170q0 -30 -2 -60.5t-9.5 -84t-25 -104.5t-44 -107t-72.5 -108t-105 -91l6 -10h188l-49 -283h-622l51 293q122 34 207.5 181.5 t85.5 359.5q0 140 -67 216t-191 76q-194 0 -303 -159t-109 -414q0 -205 139 -256l-51 -297h-586z" />
<glyph unicode="&#x3aa;" horiz-adv-x="663" d="M61 0l244 1386h375l-244 -1386h-375zM156 1622q0 75 57.5 131.5t128.5 56.5q58 0 94.5 -37.5t36.5 -93.5q0 -78 -56 -135t-130 -57q-58 0 -94.5 38t-36.5 97zM592 1622q0 75 57.5 131.5t130.5 56.5q56 0 92.5 -37.5t36.5 -93.5q0 -77 -55.5 -134.5t-128.5 -57.5 q-59 0 -96 38t-37 97z" />
<glyph unicode="&#x3ab;" horiz-adv-x="1349" d="M172 1386h373l86 -286q54 -172 74 -336h12q111 206 196 330l201 292h387l-641 -907l-84 -479h-373l82 467zM508 1622q0 75 57.5 131.5t128.5 56.5q58 0 94.5 -37.5t36.5 -93.5q0 -78 -56 -135t-130 -57q-58 0 -94.5 38t-36.5 97zM944 1622q0 75 58 131.5t131 56.5 q56 0 92.5 -37.5t36.5 -93.5q0 -77 -56 -134.5t-129 -57.5q-59 0 -96 38t-37 97z" />
<glyph unicode="&#x3ac;" horiz-adv-x="1232" d="M74 342q0 91 17 182t56.5 182.5t97 161t147.5 113t200 43.5q101 0 169.5 -39.5t96.5 -110.5h10q15 80 60 134h293l-177 -1008h-301q-22 58 -8 141h-12q-133 -155 -340 -155q-162 0 -235.5 90t-73.5 266zM442 371q0 -144 127 -144q96 0 160 110t64 275q0 154 -125 154 q-96 0 -161 -104.5t-65 -290.5zM563 1210l344 418l193 -174l-398 -360z" />
<glyph unicode="&#x3ad;" horiz-adv-x="1046" d="M39 254q0 30 8.5 61.5t29.5 68.5t65.5 69t107.5 51l2 12q-121 50 -121 172q0 63 27 121.5t81.5 108.5t148 80t214.5 30q105 0 194 -31.5t147 -99t58 -158.5q0 -21 -10 -69h-295q0 57 -27.5 79.5t-76.5 22.5q-45 0 -80 -28.5t-35 -73.5q0 -60 82 -60h84l-35 -196h-86 q-56 0 -88.5 -30t-32.5 -67t25 -57t72 -20q71 0 111.5 29.5t47.5 101.5l304 -2q0 -6 1 -18.5t1 -18.5q0 -161 -130.5 -254.5t-361.5 -93.5q-220 0 -326 76t-106 194zM455 1210l344 418l192 -174l-397 -360z" />
<glyph unicode="&#x3ae;" horiz-adv-x="1210" d="M20 0l177 1006h315q28 -55 12 -156h11q129 170 335 170q93 0 153.5 -29t87 -82.5t31 -129t-13.5 -169.5l-159 -942h-361l162 932q30 162 -98 162q-38 0 -70.5 -18t-52.5 -43t-35.5 -59.5t-23 -60.5t-11.5 -51l-94 -530h-365zM520 1210l344 418l193 -174l-398 -360z" />
<glyph unicode="&#x3af;" horiz-adv-x="694" d="M123 379l108 627h363l-113 -605q-6 -33 -6.5 -56.5t6.5 -39t16 -24t29.5 -13t39 -5.5t50.5 -1l-26 -256q-79 -18 -172 -18q-200 0 -266 90t-29 301zM297 1210l344 418l193 -174l-398 -360z" />
<glyph unicode="&#x3b0;" horiz-adv-x="1185" d="M92 436l101 570h366l-106 -600q-31 -173 98 -173q68 0 108.5 39.5t57.5 133.5l106 600h359l-107 -592q-39 -213 -176.5 -319.5t-386.5 -106.5q-230 0 -343.5 120t-76.5 328zM225 1247q0 76 56.5 134.5t130.5 58.5q58 0 95.5 -38t37.5 -97q0 -75 -58.5 -132t-130.5 -57 q-58 0 -94.5 37t-36.5 94zM541 1135l225 471l264 -86l-307 -451zM942 1247q0 77 55.5 135t128.5 58q58 0 96 -38t38 -97q0 -75 -58.5 -132t-130.5 -57q-57 0 -93 37t-36 94z" />
<glyph unicode="&#x3b1;" horiz-adv-x="1232" d="M74 342q0 91 17 182t56.5 182.5t97 161t147.5 113t200 43.5q101 0 169.5 -39.5t96.5 -110.5h10q15 80 60 134h293l-177 -1008h-301q-22 58 -8 141h-12q-133 -155 -340 -155q-162 0 -235.5 90t-73.5 266zM442 371q0 -144 127 -144q96 0 160 110t64 275q0 154 -125 154 q-96 0 -161 -104.5t-65 -290.5z" />
<glyph unicode="&#x3b2;" horiz-adv-x="1253" d="M-39 -328l234 1323q39 224 179 347.5t374 123.5q206 0 322 -80.5t116 -224.5q0 -101 -57 -186.5t-146 -114.5l4 -10q178 -69 178 -293q0 -83 -19.5 -163.5t-62 -155t-103 -130.5t-149 -90t-194.5 -34q-36 0 -60.5 2t-61 10t-66.5 28t-52 52h-12l-72 -404h-352zM436 369 q0 -72 34 -115t101 -43q93 0 157.5 91.5t64.5 205.5q0 89 -53.5 135.5t-123.5 46.5h-57l43 240h45q77 0 123.5 52.5t46.5 127.5q0 48 -26.5 77.5t-71.5 29.5q-76 0 -117.5 -56t-54.5 -133l-105 -594q-6 -34 -6 -65z" />
<glyph unicode="&#x3b3;" horiz-adv-x="1136" d="M76 737l8 234q59 26 144 41.5t132 15.5q57 0 94 -16.5t55 -51.5t24 -66t10 -83l14 -176q8 -89 12 -260h11q34 118 131 342l131 287h379l-527 -959l-82 -465h-362l61 344l-125 731q-5 26 -8.5 37t-14 24t-31.5 17t-56 4z" />
<glyph unicode="&#x3b4;" horiz-adv-x="1255" d="M84 381q0 86 21.5 169t66 158.5t107 133t151.5 91.5t193 34q-93 121 -336 266l35 207h940l-43 -252h-365q324 -229 324 -570q0 -154 -48 -275.5t-133 -198.5t-199 -117.5t-249 -40.5q-230 0 -347.5 100.5t-117.5 294.5zM444 393q0 -164 144 -164q96 0 163.5 99.5 t67.5 261.5q0 104 -55 194q-36 4 -51 4q-121 0 -195 -111t-74 -284z" />
<glyph unicode="&#x3b5;" horiz-adv-x="1046" d="M39 254q0 30 8.5 61.5t29.5 68.5t65.5 69t107.5 51l2 12q-121 50 -121 172q0 63 27 121.5t81.5 108.5t148 80t214.5 30q105 0 194 -31.5t147 -99t58 -158.5q0 -21 -10 -69h-295q0 57 -27.5 79.5t-76.5 22.5q-45 0 -80 -28.5t-35 -73.5q0 -60 82 -60h84l-35 -196h-86 q-56 0 -88.5 -30t-32.5 -67t25 -57t72 -20q71 0 111.5 29.5t47.5 101.5l304 -2q0 -6 1 -18.5t1 -18.5q0 -161 -130.5 -254.5t-361.5 -93.5q-220 0 -326 76t-106 194z" />
<glyph unicode="&#x3b6;" horiz-adv-x="983" d="M70 399q0 183 166.5 384t453.5 393l2 10h-430l43 250h893l-41 -232q-367 -263 -537.5 -434.5t-170.5 -282.5q0 -25 9 -43.5t23 -31.5t42.5 -27.5t54.5 -25t73 -29.5t86 -37q100 -46 142.5 -96.5t42.5 -114.5q0 -59 -30 -126.5t-81 -131t-106.5 -118.5t-118.5 -105 l-183 145q50 59 83.5 107t46 72t12.5 34q0 37 -111 82q-68 28 -113.5 49t-90.5 47t-71.5 51t-48.5 57t-31 69.5t-9 84.5z" />
<glyph unicode="&#x3b7;" horiz-adv-x="1210" d="M20 0l177 1006h315q28 -55 12 -156h11q129 170 335 170q93 0 153.5 -29t87 -82.5t31 -129t-13.5 -169.5l-159 -942h-361l162 932q30 162 -98 162q-38 0 -70.5 -18t-52.5 -43t-35.5 -59.5t-23 -60.5t-11.5 -51l-94 -530h-365z" />
<glyph unicode="&#x3b8;" horiz-adv-x="1257" d="M109 459q0 171 27 321t83 275t137.5 214.5t195.5 139t251 49.5q124 0 210.5 -36t133.5 -103t67.5 -149t20.5 -189q0 -93 -8.5 -184t-31 -191.5t-56.5 -188t-89 -168t-125 -138t-168 -91.5t-214 -34q-120 0 -205.5 33t-135 97t-71.5 148t-22 195zM449 412q0 -91 32 -137 t105 -46q45 0 81 18.5t62.5 50.5t47 84.5t35 112t28.5 140.5h-365q-26 -143 -26 -223zM520 870h359q12 77 12 144q0 198 -131 198q-170 0 -240 -342z" />
<glyph unicode="&#x3b9;" horiz-adv-x="694" d="M123 379l108 627h363l-113 -605q-6 -33 -6.5 -56.5t6.5 -39t16 -24t29.5 -13t39 -5.5t50.5 -1l-26 -256q-79 -18 -172 -18q-200 0 -266 90t-29 301z" />
<glyph unicode="&#x3ba;" horiz-adv-x="1191" d="M20 0l177 1006h362l-53 -304h82l264 304h418l-430 -461l264 -545h-381l-178 416h-90l-72 -416h-363z" />
<glyph unicode="&#x3bb;" horiz-adv-x="1097" d="M-72 0l494 991h92l-12 113q-8 48 -28 66t-85 18h-63l43 252h202q54 0 95.5 -9t71.5 -22.5t52 -40.5t35 -53.5t23 -71t15 -82t11 -98.5l58 -762q5 -36 10.5 -50.5t24.5 -22.5t61 -7l-14 -205q-103 -39 -240 -39q-85 0 -125 42.5t-47 168.5l-14 240q-11 169 -6 279h-13 q-7 -28 -15 -55.5t-14.5 -47.5t-17 -49t-15.5 -42.5t-18.5 -46.5t-17 -42t-20 -47.5t-19.5 -46.5l-143 -330h-361z" />
<glyph unicode="&#x3bd;" horiz-adv-x="1208" d="M102 1008h361l59 -361q29 -177 37 -319h23l129 262q72 145 104.5 230.5t52.5 185.5h361q-21 -122 -57 -212.5t-117 -236.5l-310 -561h-436z" />
<glyph unicode="&#x3be;" horiz-adv-x="964" d="M63 381q0 139 81.5 239t207.5 148l2 10q-157 59 -157 219q0 111 45.5 200.5t122.5 145t172.5 84.5t201.5 29q113 0 197.5 -26.5t138 -90t53.5 -159.5q0 -54 -14 -111h-332q0 129 -86 129q-57 0 -100 -46.5t-43 -135.5q0 -119 158 -119h176l-47 -264h-193 q-91 0 -154 -46.5t-63 -129.5q0 -31 10.5 -53t40 -41.5t61 -34t92.5 -38.5q32 -13 50 -20q115 -49 164 -107t49 -128q0 -188 -297 -441l-186 144q116 154 116 194q0 21 -22 36.5t-70 37.5q-66 28 -107 47.5t-89 47t-76.5 53.5t-54.5 60.5t-37 75.5t-11 91z" />
<glyph unicode="&#x3bf;" horiz-adv-x="1255" d="M90 383q0 105 23 199t72.5 175.5t122 140.5t176 92.5t229.5 33.5q463 0 463 -418q0 -82 -16.5 -162t-60.5 -164.5t-111 -148t-176.5 -104.5t-248.5 -41q-473 0 -473 397zM444 395q0 -164 140 -164q97 0 167 97t70 278q0 166 -141 166q-111 0 -173.5 -105.5t-62.5 -271.5z " />
<glyph unicode="&#x3c0;" horiz-adv-x="1206" d="M16 0l177 1006h1009l-176 -1006h-360l129 739h-281l-129 -739h-369z" />
<glyph unicode="&#x3c1;" horiz-adv-x="1245" d="M-61 -418l145 832q25 141 72 249.5t104 174.5t129 108t140.5 58t144.5 16q241 0 365 -115.5t124 -310.5q0 -268 -141 -439t-375 -171q-90 0 -151.5 16.5t-106.5 58.5h-10l-84 -477h-356zM429 377q-3 -39 4 -64.5t21 -49t43.5 -35t71.5 -11.5q69 0 123 57.5t80.5 142 t26.5 177.5q0 80 -35 126t-107 46q-153 0 -206 -246q-9 -45 -14 -74.5t-8 -68.5z" />
<glyph unicode="&#x3c2;" horiz-adv-x="1048" d="M80 377q0 299 156 471t423 172q84 0 156 -14.5t131 -45.5t93 -85t34 -127q0 -56 -24 -130h-304q18 142 -106 142q-80 0 -135 -73.5t-55 -223.5q0 -50 20 -83t45 -49t94 -51q17 -9 27 -14q138 -70 183.5 -116t45.5 -119q0 -21 -8 -49.5t-32 -81t-86.5 -128t-155.5 -159.5 l-195 147q98 141 98 168q0 45 -75 76q-91 38 -149 72t-101 77.5t-61.5 97.5t-18.5 126z" />
<glyph unicode="&#x3c3;" horiz-adv-x="1267" d="M90 383q0 279 173 452t460 173h577l-47 -267h-69q-78 0 -117 17l-8 -8q90 -64 90 -220q0 -99 -37 -194t-106.5 -174t-182 -127.5t-250.5 -48.5q-128 0 -223 29.5t-151 84t-82.5 125t-26.5 158.5zM442 391q0 -164 142 -164q95 0 164 99t69 272q0 79 -33 126.5t-104 47.5 q-75 0 -131 -57.5t-81.5 -142t-25.5 -181.5z" />
<glyph unicode="&#x3c4;" horiz-adv-x="915" d="M74 745l45 261h788l-45 -261h-237l-62 -348q-13 -79 12 -108t105 -29q68 0 133 12l-35 -258q-98 -26 -276 -26q-175 0 -253.5 94.5t-45.5 279.5l67 383h-196z" />
<glyph unicode="&#x3c5;" horiz-adv-x="1185" d="M92 436l101 570h366l-106 -600q-31 -173 98 -173q68 0 108.5 39.5t57.5 133.5l106 600h359l-107 -592q-39 -213 -176.5 -319.5t-386.5 -106.5q-230 0 -343.5 120t-76.5 328z" />
<glyph unicode="&#x3c6;" horiz-adv-x="1574" d="M90 381q0 268 129 435t361 192l12 -254q-70 -21 -118 -109.5t-48 -220.5q0 -179 139 -191l137 787h328q102 0 182.5 -23.5t132.5 -63.5t86.5 -95.5t49 -116.5t14.5 -131q0 -77 -20.5 -156.5t-68 -160t-116 -142.5t-175.5 -102.5t-236 -42.5l-72 -406h-358l71 406 q-220 12 -325 115.5t-105 279.5zM924 233q96 13 163.5 103t67.5 231q0 185 -139 193z" />
<glyph unicode="&#x3c7;" horiz-adv-x="1179" d="M-72 0l428 524l-231 482h397l90 -277h13l188 277h422l-401 -482l251 -524h-393l-108 332h-19l-221 -332h-416z" />
<glyph unicode="&#x3c8;" horiz-adv-x="1533" d="M98 467l95 539h350l-99 -564q-10 -42 -6.5 -73t10.5 -51.5t24 -33.5t33 -19.5t38 -10.5l133 752h352l-133 -754q72 6 120.5 53.5t65.5 136.5l99 564h350l-100 -568q-36 -208 -189.5 -329.5t-392.5 -120.5l-72 -408h-352l74 410q-102 11 -182.5 46.5t-136.5 93.5 t-78 144.5t-3 192.5z" />
<glyph unicode="&#x3c9;" horiz-adv-x="1628" d="M82 342q0 118 21 218.5t69 187t120 147t179 95t242 34.5l-35 -272q-115 -11 -177.5 -109t-62.5 -285q0 -114 92 -114q39 0 69 30t40 86l47 273h311l-47 -268q-4 -24 -4 -39q0 -78 68 -78q74 0 124 98t50 244q0 165 -146 182l33 252q106 0 189 -22t136 -59.5t87.5 -91 t48.5 -112.5t14 -129q0 -99 -20.5 -190t-63.5 -170.5t-105 -138t-150.5 -92t-194.5 -33.5q-81 0 -157 35t-107 110h-17q-108 -145 -297 -145q-80 0 -142 19t-102 51.5t-65.5 78.5t-36 96.5t-10.5 110.5z" />
<glyph unicode="&#x3ca;" horiz-adv-x="694" d="M94 1327q12 68 66.5 115t120.5 47q65 0 102 -47.5t25 -114.5t-66 -114.5t-119 -47.5q-66 0 -103.5 47t-25.5 115zM123 379q-37 -211 29 -301t266 -90q93 0 172 18l26 256q-32 0 -50.5 1t-39 5.5t-29.5 13t-16 24t-6.5 39t6.5 56.5l113 605h-363zM530 1327q12 68 66.5 115 t120.5 47t103.5 -47t25.5 -115t-66.5 -115t-120.5 -47t-103.5 47t-25.5 115z" />
<glyph unicode="&#x3cb;" horiz-adv-x="1185" d="M92 436l101 570h366l-106 -600q-31 -173 98 -173q68 0 108.5 39.5t57.5 133.5l106 600h359l-107 -592q-39 -213 -176.5 -319.5t-386.5 -106.5q-230 0 -343.5 120t-76.5 328zM367 1327q12 68 66 115t120 47q65 0 102 -47.5t25 -114.5t-65.5 -114.5t-118.5 -47.5 q-66 0 -103.5 47t-25.5 115zM803 1327q12 68 66 115t120 47t103.5 -47t25.5 -115t-66 -115t-120 -47t-103.5 47t-25.5 115z" />
<glyph unicode="&#x3cc;" horiz-adv-x="1255" d="M90 383q0 105 23 199t72.5 175.5t122 140.5t176 92.5t229.5 33.5q463 0 463 -418q0 -82 -16.5 -162t-60.5 -164.5t-111 -148t-176.5 -104.5t-248.5 -41q-473 0 -473 397zM444 395q0 -164 140 -164q97 0 167 97t70 278q0 166 -141 166q-111 0 -173.5 -105.5t-62.5 -271.5z M627 1210l344 418l192 -174l-397 -360z" />
<glyph unicode="&#x3cd;" horiz-adv-x="1185" d="M92 436l101 570h366l-106 -600q-31 -173 98 -173q68 0 108.5 39.5t57.5 133.5l106 600h359l-107 -592q-39 -213 -176.5 -319.5t-386.5 -106.5q-230 0 -343.5 120t-76.5 328zM541 1210l344 418l192 -174l-397 -360z" />
<glyph unicode="&#x3ce;" horiz-adv-x="1628" d="M127 342q0 118 21 218.5t69 187t120 147t179 95t242 34.5l-35 -272q-115 -11 -177.5 -109t-62.5 -285q0 -114 92 -114q39 0 69 30t40 86l47 273h311l-47 -268q-4 -24 -4 -39q0 -78 68 -78q74 0 124 98t50 244q0 165 -146 182l33 252q106 0 189 -22t136 -59.5t87.5 -91 t48.5 -112.5t14 -129q0 -99 -20.5 -190t-63.5 -170.5t-105 -138t-150.5 -92t-194.5 -33.5q-81 0 -157 35t-107 110h-17q-108 -145 -297 -145q-80 0 -142 19t-102 51.5t-65.5 78.5t-36 96.5t-10.5 110.5zM752 1210l344 418l192 -174l-397 -360z" />
<glyph unicode="&#x3e0;" horiz-adv-x="1417" d="M74 1192l35 192q238 -11 435 -71.5t337 -159t236 -231.5t142 -289t46 -332q0 -184 -70 -455l-238 37q33 199 33 338q0 123 -29 252q-69 -39 -254 -144t-276 -155l-109 176l578 314q-29 65 -74 131l-569 -314l-107 172l531 295q-205 194 -647 244z" />
<glyph unicode="&#x3e1;" horiz-adv-x="1228" d="M72 860l24 168q253 -12 451.5 -86t323 -195.5t189 -278.5t64.5 -341q0 -159 -61 -385l-225 33q28 155 28 288q0 99 -20 189q-78 -46 -236 -133t-200 -111l-97 156l480 264q-22 56 -58 100l-473 -256l-94 150l438 246q-178 152 -534 192z" />
<glyph unicode="&#x401;" horiz-adv-x="1265" d="M41 0l244 1386h1024l-52 -286h-651l-41 -238h604l-51 -284h-604l-51 -293h688l-49 -285h-1061zM473 1642q0 75 58 132t128 57q58 0 95 -37.5t37 -93.5q0 -78 -56.5 -135.5t-130.5 -57.5q-58 0 -94.5 38t-36.5 97zM909 1642q0 75 58 132t131 57q56 0 92.5 -37.5 t36.5 -93.5q0 -77 -56 -135t-129 -58q-59 0 -96 38t-37 97z" />
<glyph unicode="&#x402;" horiz-adv-x="1746" d="M131 1102l51 284h1274l-51 -284h-510l-51 -299l10 -6q96 69 202 97t185 28q200 0 297.5 -115t97.5 -320q0 -79 -12.5 -155.5t-39 -153.5t-71.5 -141.5t-105 -115t-145 -79t-186 -28.5q-56 0 -108 8l49 276q98 8 161.5 94t63.5 222q0 84 -46.5 128t-129.5 44 q-147 0 -285 -123l-80 -463h-374l192 1102h-389z" />
<glyph unicode="&#x403;" horiz-adv-x="1144" d="M41 0l244 1386h1009l-51 -286h-637l-192 -1100h-373zM647 1642l451 287l119 -239l-488 -199z" />
<glyph unicode="&#x404;" horiz-adv-x="1431" d="M125 498q0 146 28 278t89.5 248t151 200.5t220.5 133.5t291 49q101 0 193.5 -24t166.5 -69t118 -117.5t44 -162.5q0 -44 -12 -96h-362q2 12 2 33q0 69 -55 106t-134 37q-101 0 -183 -69t-124 -195h424l-49 -266h-424q-22 -142 29 -227t188 -85q105 0 181.5 62t95.5 164 h358q0 -24 -8 -70q-20 -114 -81 -201.5t-149.5 -139.5t-193 -78.5t-219.5 -26.5q-294 0 -440 126.5t-146 389.5z" />
<glyph unicode="&#x405;" horiz-adv-x="1361" d="M70 340q0 61 22 141h352q-4 -32 -4 -47q0 -168 213 -168q113 0 171.5 47t58.5 113q0 57 -55 89t-193 54q-108 17 -184 41t-135 63.5t-88 98.5t-29 139q0 66 17 130t62 132t113.5 118.5t181.5 83t256 32.5q139 0 250.5 -38t180.5 -117t69 -187q0 -67 -26 -141h-357 q2 12 2 37q0 71 -44 111t-122 40q-95 0 -147.5 -42t-52.5 -99q0 -38 43 -62t143 -43q146 -27 244 -63.5t153.5 -87t78 -108.5t22.5 -136q0 -99 -42 -186t-122 -154.5t-208.5 -107t-289.5 -39.5q-84 0 -159.5 11.5t-145 38t-119.5 66.5t-80 101.5t-30 138.5z" />
<glyph unicode="&#x406;" horiz-adv-x="663" d="M61 0l244 1386h375l-244 -1386h-375z" />
<glyph unicode="&#x407;" horiz-adv-x="663" d="M61 0l244 1386h375l-244 -1386h-375zM184 1694q12 67 66.5 114t120.5 47q65 0 102 -47t25 -114t-66 -114.5t-119 -47.5q-66 0 -103.5 47t-25.5 115zM621 1694q12 68 66 114.5t120 46.5t103.5 -47t25.5 -114q-12 -68 -66 -115t-120 -47t-103.5 47t-25.5 115z" />
<glyph unicode="&#x408;" horiz-adv-x="1257" d="M4 309q0 74 31 183h358q-8 -58 -8 -80q0 -67 33 -102.5t112 -35.5q192 0 234 230l156 885h370l-147 -850q-11 -63 -25.5 -116.5t-40 -111.5t-58 -104t-81 -89t-108 -71.5t-140.5 -45.5t-176 -17q-252 0 -381 82.5t-129 242.5z" />
<glyph unicode="&#x409;" horiz-adv-x="2084" d="M-49 -8l39 239q38 4 60 8.5t48 17.5t41 29t35.5 51t34 75.5t33.5 110t38 148t44 195.5l114 523h959l-92 -527h301q99 0 175 -20.5t123 -53.5t77 -80t41.5 -96t11.5 -106q0 -225 -157 -364.5t-447 -139.5h-652l193 1098h-252l-86 -381q-25 -112 -45 -191t-44.5 -158 t-47 -131t-51.5 -101t-60.5 -77.5t-72 -51t-88 -31.5t-105.5 -9q-78 0 -168 23zM1200 281h264q71 0 129 46t58 138q0 66 -38.5 94.5t-94.5 28.5h-265z" />
<glyph unicode="&#x40a;" horiz-adv-x="2125" d="M41 0l244 1389h372l-92 -527h406l92 527h373l-95 -527h306q99 0 175 -20.5t123 -53.5t77 -80t41.5 -96t11.5 -106q0 -225 -157.5 -364.5t-447.5 -139.5h-651l101 573h-406l-100 -575h-373zM1241 281h264q71 0 129 46t58 138q0 66 -38.5 94.5t-94.5 28.5h-265z" />
<glyph unicode="&#x40b;" horiz-adv-x="1736" d="M131 1100l51 286h1258l-51 -286h-492l-51 -293l12 -4q88 61 202.5 91t209.5 30q93 0 164.5 -24t125 -77.5t69.5 -139t-3 -208.5l-82 -475h-373l58 328q49 268 -158 268q-71 0 -149.5 -33.5t-135.5 -95.5l-81 -467h-375l192 1100h-391z" />
<glyph unicode="&#x40c;" horiz-adv-x="1411" d="M41 0l244 1391h370l-88 -504h47l471 504h457l-622 -650l397 -741h-430l-299 588h-74l-102 -588h-371zM727 1649l451 286l118 -239l-487 -199z" />
<glyph unicode="&#x40e;" horiz-adv-x="1251" d="M178 1386h348l123 -737h21l381 737h354l-574 -1056q-60 -111 -120.5 -183t-125.5 -108.5t-126 -50t-142 -13.5h-124l45 281h69q64 0 98.5 19.5t75.5 80.5l29 45l-88 -4zM523 1745.5q-2 44.5 7 83.5h193q-5 -46 2 -84t35 -65t74 -27q65 0 114 51.5t74 124.5h215 q-15 -50 -40.5 -101.5t-66 -105t-89 -94.5t-113.5 -67.5t-135 -26.5q-60 0 -108 18.5t-77 49.5t-49.5 71t-27 84t-8.5 88.5z" />
<glyph unicode="&#x40f;" horiz-adv-x="1505" d="M41 0l244 1389h372l-194 -1102h512l194 1102h375l-244 -1389h-456l-72 -399h-336l72 399h-467z" />
<glyph unicode="&#x410;" horiz-adv-x="1460" d="M-74 0l760 1391h422l240 -1391h-381l-35 299h-471l-152 -299h-383zM610 571h277l-19 187q-17 144 -20 295h-19q-61 -154 -127 -295z" />
<glyph unicode="&#x411;" horiz-adv-x="1351" d="M41 2l244 1384h1034l-51 -286h-660l-41 -238h301q99 0 175 -20.5t123 -53.5t77 -80t41.5 -96t11.5 -106q0 -225 -157 -364.5t-447 -139.5h-651zM463 281h264q71 0 128.5 46t57.5 138q0 66 -38.5 94.5t-94.5 28.5h-264z" />
<glyph unicode="&#x412;" horiz-adv-x="1392" d="M59 0l244 1386h668q168 0 266 -69.5t98 -216.5q0 -29 -5 -61t-21.5 -76.5t-43.5 -82.5t-76 -74.5t-114 -57.5l-2 -11q215 -43 215 -288q0 -197 -138.5 -323t-363.5 -126h-727zM483 285h240q86 0 137 48.5t51 131.5q0 58 -37 89.5t-100 31.5h-237zM582 870h223 q63 0 105 40.5t42 103.5q0 41 -27.5 63.5t-74.5 22.5h-227z" />
<glyph unicode="&#x413;" horiz-adv-x="1191" d="M41 0l244 1386h1009l-51 -286h-637l-192 -1100h-373z" />
<glyph unicode="&#x414;" horiz-adv-x="1548" d="M-115 -358l111 645h129q82 107 134.5 238t107.5 358l122 508h1022l-194 -1104h145l-112 -645h-299l63 358h-868l-64 -358h-297zM485 287h457l143 813h-327l-58 -221q-34 -131 -49.5 -187.5t-43.5 -144t-56.5 -146.5t-65.5 -114z" />
<glyph unicode="&#x415;" horiz-adv-x="1265" d="M41 0l244 1386h1024l-52 -286h-651l-41 -238h604l-51 -284h-604l-51 -293h688l-49 -285h-1061z" />
<glyph unicode="&#x416;" horiz-adv-x="2146" d="M-51 0l629 754l-390 637h400l297 -504h78l88 504h362l-88 -504h61l453 504h440l-602 -650l377 -741h-409l-277 588h-96l-103 -588h-362l102 588h-51l-463 -588h-446z" />
<glyph unicode="&#x417;" horiz-adv-x="1341" d="M35 293q0 50 33 147h352q-2 -8 -2 -24q0 -45 19 -77t50 -48t62 -22.5t63 -6.5q113 0 180.5 57.5t67.5 139.5q0 57 -41 88t-106 31h-183l52 284h114q109 0 173.5 39t64.5 107q0 49 -44 80.5t-120 31.5q-27 0 -53 -3.5t-57.5 -15t-56.5 -30.5t-46.5 -52.5t-32.5 -78.5h-370 v27q0 90 37 165.5t99 127t144.5 87t172.5 52t184 16.5q255 0 391.5 -94t136.5 -262q0 -43 -14 -88.5t-42.5 -90t-79.5 -81t-118 -54.5l-2 -10q99 -32 141.5 -103.5t42.5 -154.5q0 -150 -86 -264.5t-236.5 -176t-342.5 -61.5q-104 0 -197 16.5t-174 52t-128.5 99.5t-47.5 150 z" />
<glyph unicode="&#x418;" horiz-adv-x="1478" d="M37 0l244 1386h362l-139 -770h18q19 26 39 52.5t46 58.5t41 50.5t48.5 58.5t42 50t49 57t43.5 50l349 393h342l-244 -1386h-365l144 815l-15 2q-119 -163 -266 -332l-420 -485h-319z" />
<glyph unicode="&#x419;" horiz-adv-x="1478" d="M37 0l244 1386h362l-139 -770h18q19 26 39 52.5t46 58.5t41 50.5t48.5 58.5t42 50t49 57t43.5 50l349 393h342l-244 -1386h-365l144 815l-15 2q-119 -163 -266 -332l-420 -485h-319zM671.5 1835.5q-0.5 42.5 6.5 83.5h192q-5 -46 2 -84t35 -65t74 -27q65 0 114 51.5 t74 124.5h215q-15 -50 -40.5 -101.5t-66 -105t-89 -94.5t-113.5 -67.5t-135 -26.5q-60 0 -107.5 18t-77 50t-49.5 71t-27 84.5t-7.5 88z" />
<glyph unicode="&#x41a;" horiz-adv-x="1411" d="M41 0l244 1391h370l-88 -504h47l471 504h457l-622 -650l397 -741h-430l-299 588h-74l-102 -588h-371z" />
<glyph unicode="&#x41b;" horiz-adv-x="1433" d="M-49 -6l39 239q38 4 60 8.5t48 17.5t41 29t35.5 51t34 75.5t33.5 110t38 148t44 195.5l114 523h1032l-243 -1391h-371l193 1100h-326l-86 -379q-25 -111 -45.5 -191t-44.5 -158t-47.5 -131t-52.5 -101t-61 -77.5t-73 -51.5t-88.5 -31t-105.5 -9q-78 0 -168 23z" />
<glyph unicode="&#x41c;" horiz-adv-x="1951" d="M61 0l306 1386h417l103 -354q46 -153 108 -436h21q80 153 246 414l239 376h420l-192 -1386h-367l129 838h-16q-118 -210 -211 -359l-181 -278h-295l-86 291q-12 40 -26 104t-30 145t-23 115h-15l-180 -856h-367z" />
<glyph unicode="&#x41d;" horiz-adv-x="1505" d="M41 0l244 1389h372l-92 -527h512l92 527h375l-244 -1389h-374l100 575h-512l-100 -575h-373z" />
<glyph unicode="&#x41e;" horiz-adv-x="1593" d="M127 516q0 147 30.5 278.5t95 244t158 194t226.5 128t293 46.5q134 0 239.5 -32t173 -86t111.5 -130t62 -158.5t18 -177.5q0 -78 -11 -155.5t-37.5 -161.5t-67 -158.5t-104 -142t-143.5 -116t-190.5 -77t-239.5 -28.5q-134 0 -239 26.5t-175 73t-115.5 114.5t-65 146 t-19.5 172zM508 539q0 -281 254 -281q164 0 277.5 157.5t113.5 415.5q0 134 -58.5 214.5t-181.5 80.5q-85 0 -155.5 -38.5t-115.5 -99.5t-76.5 -140t-44.5 -156.5t-13 -152.5z" />
<glyph unicode="&#x41f;" horiz-adv-x="1447" d="M41 0l244 1389h1200l-244 -1389h-369l193 1100h-459l-192 -1100h-373z" />
<glyph unicode="&#x420;" horiz-adv-x="1314" d="M41 0l244 1386h620q451 0 451 -385q0 -71 -17.5 -140.5t-62 -141.5t-110.5 -126.5t-173 -89t-241 -34.5h-256l-82 -469h-373zM545 754h211q28 0 56.5 5t62 19.5t59 37t42.5 61t17 88.5q0 49 -27.5 80.5t-65.5 43t-85 11.5h-209z" />
<glyph unicode="&#x421;" horiz-adv-x="1431" d="M125 498q0 146 28 278t89.5 248t151 200.5t220.5 133.5t291 49q144 0 261.5 -41.5t191.5 -128.5t74 -207q0 -53 -17 -123h-362q4 28 4 43q0 81 -50 122.5t-141 41.5q-156 0 -257 -166.5t-101 -429.5q0 -125 52.5 -185.5t166.5 -60.5q105 0 181.5 62t95.5 164h358 q0 -24 -8 -70q-20 -114 -81 -201.5t-149.5 -139.5t-193 -78.5t-219.5 -26.5q-294 0 -440 126.5t-146 389.5z" />
<glyph unicode="&#x422;" horiz-adv-x="1263" d="M139 1102l51 284h1207l-51 -284h-414l-193 -1102h-370l192 1102h-422z" />
<glyph unicode="&#x423;" horiz-adv-x="1251" d="M178 1386h348l123 -737h21l381 737h354l-574 -1056q-60 -111 -120.5 -183t-125.5 -108.5t-126 -50t-142 -13.5h-124l45 281h69q64 0 98.5 19.5t75.5 80.5l29 45l-88 -4z" />
<glyph unicode="&#x424;" horiz-adv-x="1736" d="M127 588q0 289 191.5 482t512.5 230l17 89h336l-15 -86q260 -31 384 -166t124 -334q0 -94 -25.5 -186t-82 -180.5t-138.5 -158t-204 -116t-269 -56.5l-18 -106h-336l19 106q-251 31 -373.5 157.5t-122.5 324.5zM481 618q0 -186 185 -245l118 659q-139 -26 -221 -139.5 t-82 -274.5zM1006 375q107 29 178.5 98.5t101 152.5t29.5 179q0 92 -49 153t-142 76z" />
<glyph unicode="&#x425;" horiz-adv-x="1396" d="M-72 0l600 719l-315 667h403l156 -452l311 452h428l-555 -667l351 -719h-412l-184 479l-355 -479h-428z" />
<glyph unicode="&#x426;" horiz-adv-x="1599" d="M41 0l244 1389h372l-194 -1102h512l194 1102h375l-194 -1104h178l-113 -643h-307l63 358h-1130z" />
<glyph unicode="&#x427;" horiz-adv-x="1382" d="M148 789q2 76 16 165l76 437h372l-67 -383q-10 -55 -10.5 -96t8.5 -69.5t24 -47t41 -29t55 -14.5t70 -4q98 0 209 18l111 620h372l-243 -1386h-375l80 487q-169 -26 -303 -26q-123 0 -209 23t-134 65t-71.5 103t-21.5 137z" />
<glyph unicode="&#x428;" horiz-adv-x="2027" d="M37 0l244 1389h372l-194 -1102h342l194 1102h371l-195 -1102h332l195 1102h373l-244 -1389h-1790z" />
<glyph unicode="&#x429;" horiz-adv-x="2127" d="M37 0l244 1389h372l-194 -1102h342l194 1102h371l-195 -1102h332l195 1102h373l-195 -1104h180l-112 -643h-308l64 358h-1663z" />
<glyph unicode="&#x42a;" horiz-adv-x="1636" d="M131 1096l51 293h766l-92 -527h301q99 0 175 -20.5t123 -53.5t77 -80t41.5 -96t11.5 -106q0 -225 -157 -364.5t-447 -139.5h-649l192 1094h-393zM752 281h264q71 0 128.5 46t57.5 138q0 66 -38.5 94.5t-94.5 28.5h-264z" />
<glyph unicode="&#x42b;" horiz-adv-x="1902" d="M55 2l244 1387h375l-92 -527h301q99 0 175 -20.5t123 -53.5t77 -80t41.5 -96t11.5 -106q0 -225 -157 -364.5t-447 -139.5h-652zM477 281h264q71 0 129 46t58 138q0 66 -38.5 94.5t-94.5 28.5h-265zM1323 0l244 1386h372l-243 -1386h-373z" />
<glyph unicode="&#x42c;" horiz-adv-x="1361" d="M55 2l244 1387h375l-92 -527h301q99 0 175 -20.5t123 -53.5t77 -80t41.5 -96t11.5 -106q0 -225 -157 -364.5t-447 -139.5h-652zM477 281h264q71 0 129 46t58 138q0 66 -38.5 94.5t-94.5 28.5h-265z" />
<glyph unicode="&#x42d;" horiz-adv-x="1411" d="M61 356q0 60 17 121h360q-2 -14 -2 -39q0 -82 52 -124t147 -42q129 0 212.5 80t98.5 228h-399l51 282h393q4 40 4 56q0 100 -54.5 149t-152.5 49q-104 0 -178.5 -52.5t-87.5 -143.5h-348q0 98 34 179.5t92 137.5t136 95t164 57t178 18q138 0 243 -29t183.5 -91t119 -166 t40.5 -249q0 -272 -84.5 -470.5t-256.5 -309t-417 -110.5q-107 0 -202 22t-173.5 65.5t-124 117.5t-45.5 169z" />
<glyph unicode="&#x42e;" horiz-adv-x="2127" d="M41 0l244 1389h374l-92 -527h195q38 120 100 216.5t152 172t215.5 117t277.5 41.5q129 0 229 -31.5t162.5 -83.5t102.5 -126.5t56 -153t16 -170.5q0 -70 -10 -144t-36 -160t-65 -163.5t-102.5 -151t-143 -126.5t-191.5 -85t-243 -32q-130 0 -230.5 29t-164 77 t-104.5 116.5t-57.5 142t-16.5 159.5q0 47 2 72h-195l-100 -578h-375zM1081 530q0 -274 234 -274q161 0 268 167t107 427q0 278 -222 278q-94 0 -169.5 -50.5t-122 -136t-71 -191t-24.5 -220.5z" />
<glyph unicode="&#x42f;" horiz-adv-x="1370" d="M-14 0l446 535q-68 26 -118 69.5t-76.5 94.5t-39 100t-12.5 98q0 221 163 355t433 134h623l-244 -1386h-375l88 508h-51l-411 -508h-426zM553 913q0 -60 42 -91t107 -31h226l55 313h-225q-36 0 -71 -10.5t-65.5 -32.5t-49.5 -60t-19 -88z" />
<glyph unicode="&#x430;" horiz-adv-x="1232" d="M74 342q0 91 17 182t56.5 182.5t97 161t147.5 113t200 43.5q101 0 169.5 -39.5t96.5 -110.5h10q15 80 60 134h293l-177 -1008h-301q-22 58 -8 141h-12q-133 -155 -340 -155q-162 0 -235.5 90t-73.5 266zM442 371q0 -144 127 -144q96 0 160 110t64 275q0 154 -125 154 q-96 0 -161 -104.5t-65 -290.5z" />
<glyph unicode="&#x431;" horiz-adv-x="1245" d="M92 371q-2 104 23 255t73 287q79 224 196.5 346t279.5 166q147 40 483 64l18 -266q-271 -27 -272 -27q-89 -12 -150.5 -36.5t-105 -70t-71.5 -103t-54 -146.5l10 -9q141 130 332 130q161 0 240.5 -90.5t79.5 -252.5q0 -101 -22 -192.5t-70.5 -173t-119.5 -140.5 t-174.5 -93.5t-230.5 -34.5q-107 0 -188 20t-132.5 54t-84 84.5t-46 105.5t-14.5 123zM442 383q0 -150 140 -150q98 0 165.5 95.5t67.5 236.5q0 73 -33.5 111.5t-89.5 38.5q-66 0 -117 -31t-78.5 -81.5t-41 -106t-13.5 -113.5z" />
<glyph unicode="&#x432;" horiz-adv-x="1196" d="M87.5 345q0.5 48 10.5 101l25 132q10 53 27 101t45 100.5t71 94t99 76t135.5 53.5t173.5 19q124 0 215 -24.5t138.5 -65t69 -84t21.5 -90.5q0 -53 -40.5 -114.5t-121.5 -94.5l-2 -10q80 -23 117 -72t37 -109q0 -51 -14 -99t-51.5 -99.5t-96.5 -89t-157 -62t-224 -24.5 q-88 0 -160.5 13t-124.5 36.5t-90 57.5t-60 73.5t-32.5 86t-10 94.5zM453 424q-39 -203 127 -203q86 0 125.5 37.5t39.5 83.5q0 37 -32.5 59t-94.5 19l-47 -2l37 211h45q54 0 84.5 22.5t30.5 55.5q0 30 -27.5 50.5t-78.5 20.5q-76 0 -119.5 -47.5t-55.5 -114.5z" />
<glyph unicode="&#x433;" horiz-adv-x="1105" d="M59 262q0 144 122.5 228.5t404.5 142.5q64 13 87 33t23 51q0 27 -22.5 45t-67.5 18q-48 0 -83 -25.5t-50 -74.5h-309q-2 10 -2 31q0 66 30 120t78.5 89t112.5 59t129 34.5t131 10.5q113 0 195 -24t126.5 -65t64.5 -88.5t20 -103.5q0 -129 -113 -216.5t-330 -127.5 q-102 -19 -147 -44t-45 -62q0 -29 30 -49.5t86 -20.5q66 0 112 30t63 87h311v-27q0 -77 -34.5 -137t-87 -95t-124 -57.5t-136 -30t-132.5 -7.5q-218 0 -330.5 75t-112.5 201z" />
<glyph unicode="&#x434;" horiz-adv-x="1269" d="M88 397q0 92 21 179t64.5 163.5t104 133.5t145 90.5t181.5 33.5q72 0 142.5 -19t115.5 -56l10 6v33q0 139 -60.5 192t-184.5 53q-86 0 -199 -26l-53 254q161 47 307 47q109 0 202 -31t166.5 -94t115.5 -169.5t42 -246.5q0 -58 -1.5 -106t-14 -153t-34.5 -187 t-68.5 -182.5t-110.5 -167t-166.5 -112.5t-230.5 -46q-99 0 -176.5 14t-131 41.5t-90.5 63t-57.5 83.5t-29.5 98t-9 111zM440 406q0 -175 146 -175q84 0 154.5 99t70.5 264q0 73 -33.5 120.5t-103.5 47.5q-76 0 -130 -48.5t-79 -127.5t-25 -180z" />
<glyph unicode="&#x435;" horiz-adv-x="1146" d="M86 369q0 295 169.5 474t451.5 179q180 0 279 -76.5t99 -195.5q0 -64 -16 -114.5t-58 -96.5t-109.5 -76t-174.5 -48t-250 -18h-39q-6 -30 -6 -57q0 -111 119 -111q117 0 160 121h301q2 -14 2 -43q0 -105 -62.5 -179t-166.5 -108t-240 -34q-233 0 -346 99.5t-113 283.5z M465 596h35q120 0 175.5 32.5t55.5 76.5q0 33 -25 50t-65 17q-78 0 -121 -49.5t-55 -126.5z" />
<glyph unicode="&#x436;" horiz-adv-x="1814" d="M-57 0l424 514l-263 492h388l151 -342h113l59 342h363l-60 -342h88l275 342h395l-434 -488l268 -518h-381l-180 395h-78l-70 -395h-362l70 395h-58l-299 -395h-409z" />
<glyph unicode="&#x437;" horiz-adv-x="1054" d="M23 246q0 52 20 119h315q-2 -10 -2 -27q0 -113 119 -113q63 0 99 36t36 79q0 66 -96 66h-78l35 208h80q56 0 83.5 24.5t27.5 61.5q0 33 -25 53.5t-62 20.5q-102 0 -139 -100h-315q0 4 -1 12.5t-1 13.5q0 154 132.5 242t332.5 88q118 0 204.5 -21.5t134.5 -60.5t70.5 -86 t22.5 -104q0 -68 -51.5 -136.5t-133.5 -101.5l-2 -12q74 -29 108 -82.5t34 -106.5q0 -64 -29 -122t-87 -107.5t-159.5 -78.5t-232.5 -29q-213 0 -326.5 66.5t-113.5 197.5z" />
<glyph unicode="&#x438;" horiz-adv-x="1181" d="M70 212.5q-3 68.5 14 149.5l113 644h362l-104 -596q-8 -50 -7.5 -86t24 -56t73.5 -20q39 0 70.5 21t50.5 56t30 68.5t17 69.5l94 543h367l-177 -1006h-315q-28 55 -12 156h-11q-44 -55 -94.5 -92t-96 -52t-75 -20.5t-57.5 -5.5q-98 0 -158.5 28.5t-82.5 79t-25 119z" />
<glyph unicode="&#x439;" horiz-adv-x="1181" d="M70 212.5q3 -68.5 25 -119t82.5 -79t158.5 -28.5q28 0 57.5 5.5t75 20.5t96 52t94.5 92h11q-16 -101 12 -156h315l177 1006h-367l-94 -543q-6 -36 -17 -69.5t-30 -68.5t-50.5 -56t-70.5 -21q-50 0 -73.5 20t-24 56t7.5 86l104 596h-362l-113 -644q-17 -81 -14 -149.5z M427.5 1462.5q-0.5 42.5 6.5 83.5h193q-5 -47 2 -84.5t34.5 -64.5t73.5 -27q65 0 114.5 51.5t74.5 124.5h215q-19 -63 -56 -128t-91.5 -127t-132.5 -101t-165 -39q-60 0 -107.5 18t-77 50t-49.5 71t-27 84.5t-7.5 88z" />
<glyph unicode="&#x43a;" horiz-adv-x="1191" d="M20 0l177 1006h362l-53 -304h82l264 304h418l-430 -461l264 -545h-381l-178 416h-90l-72 -416h-363z" />
<glyph unicode="&#x43b;" horiz-adv-x="1179" d="M-55 -2l28 242q29 3 45 5.5t41 9t39.5 18t35 31t35 48.5t31.5 69t32.5 95t31.5 125l84 367h823l-176 -1008h-362l131 752h-168l-68 -299q-58 -255 -161.5 -362t-286.5 -107q-84 0 -135 14z" />
<glyph unicode="&#x43c;" horiz-adv-x="1622" d="M35 0l219 1006h369l82 -246q73 -186 102 -301h14q151 225 201 295l170 252h379l-146 -1006h-360l94 516h-18q-39 -77 -129 -197l-127 -174h-258l-58 154q-43 121 -71 225h-13l-100 -524h-350z" />
<glyph unicode="&#x43d;" horiz-adv-x="1214" d="M20 0l177 1004h368l-63 -355h280l64 355h360l-176 -1004h-360l69 399h-280l-70 -399h-369z" />
<glyph unicode="&#x43e;" horiz-adv-x="1255" d="M90 383q0 105 23 199t72.5 175.5t122 140.5t176 92.5t229.5 33.5q463 0 463 -418q0 -82 -16.5 -162t-60.5 -164.5t-111 -148t-176.5 -104.5t-248.5 -41q-473 0 -473 397zM444 395q0 -164 140 -164q97 0 167 97t70 278q0 166 -141 166q-111 0 -173.5 -105.5t-62.5 -271.5z " />
<glyph unicode="&#x43f;" horiz-adv-x="1210" d="M20 0l177 1006h315q28 -55 12 -156h11q129 170 335 170q176 0 235 -99.5t28 -287.5l-107 -633h-360l104 600q30 162 -98 162q-48 0 -84.5 -22t-58 -59t-33 -71t-17.5 -71l-94 -539h-365z" />
<glyph unicode="&#x440;" horiz-adv-x="1253" d="M-53 -418l250 1424h303q16 -32 16 -91q0 -33 -6 -63h10q134 168 338 168q163 0 239.5 -94.5t76.5 -261.5q0 -143 -29 -263.5t-88 -215t-156.5 -148t-224.5 -53.5q-189 0 -279 92h-8l-86 -494h-356zM444 356q0 -73 30.5 -106t92.5 -33q105 0 172.5 108.5t67.5 272.5 q0 81 -37 120.5t-104 39.5q-89 0 -155.5 -108.5t-66.5 -293.5z" />
<glyph unicode="&#x441;" horiz-adv-x="1155" d="M80 373q0 132 32 240t87.5 183t131.5 126t162.5 74.5t182.5 23.5q188 0 298.5 -75t110.5 -220q0 -52 -14 -107h-332q0 4 1 13.5t1 13.5q0 62 -31 88.5t-69 26.5q-57 0 -100 -41t-65 -104.5t-32 -124.5t-10 -117q0 -65 28 -96t95 -31q44 0 87.5 30.5t64.5 98.5h331v-15 q0 -97 -47 -172t-123.5 -118t-164 -64.5t-179.5 -21.5q-225 0 -335.5 95t-110.5 294z" />
<glyph unicode="&#x442;" horiz-adv-x="1818" d="M20 0l177 1006h315q28 -55 12 -154h11q136 168 313 168q104 0 171.5 -43t92.5 -121q134 164 348 164q188 0 250 -104.5t29 -301.5l-105 -614h-362l106 606q14 82 -6 122t-90 40q-71 0 -115.5 -62.5t-58.5 -144.5l-100 -561h-361l105 598q14 82 -6.5 122t-90.5 40 q-34 0 -63 -15.5t-48 -38.5t-34 -54t-22.5 -57.5t-12.5 -53.5l-90 -541h-365z" />
<glyph unicode="&#x443;" horiz-adv-x="1144" d="M84 1008h346l68 -412q30 -181 37 -315h12l153 325q42 88 67 159t34.5 113t25.5 128h338q-3 -18 -11 -67t-11 -65t-11 -55t-15.5 -61t-19.5 -57t-27.5 -69t-35.5 -73l-508 -979h-362l225 422l-98 -4z" />
<glyph unicode="&#x444;" horiz-adv-x="1632" d="M90 420q0 85 22.5 166.5t73.5 158.5t125 135.5t184 96.5t244 43l78 436h340l-78 -436q122 -8 214.5 -45t148.5 -95.5t84 -130.5t28 -155q0 -73 -22 -151t-73.5 -158.5t-125 -144.5t-186.5 -106.5t-248 -47.5l-72 -406h-342l72 406q-99 3 -179 30t-132.5 68.5t-88.5 97 t-51.5 115t-15.5 123.5zM432 420q0 -82 47.5 -129t120.5 -64l96 547q-46 -7 -91.5 -34t-84.5 -70.5t-63.5 -109t-24.5 -140.5zM942 227q49 12 94 38.5t84.5 69t63.5 109.5t24 148q0 77 -51 125.5t-119 56.5z" />
<glyph unicode="&#x445;" horiz-adv-x="1179" d="M-72 0l428 524l-231 482h397l90 -277h13l188 277h422l-401 -482l251 -524h-393l-108 332h-19l-221 -332h-416z" />
<glyph unicode="&#x446;" horiz-adv-x="1230" d="M70 221q0 52 14 141l113 644h362l-104 -596q-9 -43 -9 -74q0 -44 22.5 -66t76.5 -22q33 0 62 15.5t48 38.5t34 53.5t23 57.5t13 54l90 541h365l-119 -650q-10 -55 -10 -86q0 -51 22 -85.5t74 -65.5l-107 -492h-305l64 363q-36 24 -58 63.5t-22 85.5q0 19 2 29h-10 q-37 -54 -86.5 -92.5t-101 -56.5t-92.5 -25.5t-79 -7.5q-282 0 -282 233z" />
<glyph unicode="&#x447;" horiz-adv-x="1140" d="M84 674l59 334h353l-56 -320q-22 -129 115 -129q81 0 145 27l74 422h363l-176 -1008h-363l61 352q-133 -51 -292 -51q-168 0 -242 93t-41 280z" />
<glyph unicode="&#x448;" horiz-adv-x="1808" d="M82 391l104 615h363l-107 -607q-14 -81 6.5 -121t90.5 -40q71 0 115.5 62t58.5 144l100 562h361l-105 -598q-14 -82 6 -122t90 -40q42 0 76 22t54.5 58t32.5 70t18 69l90 541h364l-176 -1006h-315q-29 56 -13 154h-10q-136 -168 -313 -168q-104 0 -171.5 43t-92.5 121 q-134 -164 -349 -164q-188 0 -249.5 104t-28.5 301z" />
<glyph unicode="&#x449;" horiz-adv-x="1841" d="M82 391l104 615h363l-107 -607q-14 -81 6.5 -121t90.5 -40q71 0 115.5 62t58.5 144l100 562h361l-105 -598q-14 -82 6 -122t90 -40q42 0 76 22t54.5 58t32.5 70t18 69l90 541h364l-119 -650q-19 -91 -1 -144t87 -93l-106 -492h-305l63 363q-42 27 -64.5 75.5t-13.5 102.5 h-10q-37 -54 -86.5 -92.5t-100.5 -56.5t-92 -25.5t-79 -7.5q-104 0 -171.5 43t-92.5 121q-134 -164 -349 -164q-188 0 -249.5 104t-28.5 301z" />
<glyph unicode="&#x44a;" horiz-adv-x="1376" d="M74 752l45 254l659 2l-55 -314h240q164 0 260 -71t96 -209q0 -60 -16.5 -117t-58 -114.5t-104.5 -100t-163.5 -69.5t-226.5 -27q-445 0 -445 348q0 62 12 127l52 291h-295zM664 354q0 -46 31 -76.5t98 -31.5q80 0 125 36.5t45 90.5q0 29 -25 56.5t-78 27.5h-180l-14 -74 q-2 -10 -2 -29z" />
<glyph unicode="&#x44b;" horiz-adv-x="1652" d="M88 334q0 -348 444 -348q130 0 232.5 27t164.5 69.5t102.5 100t55.5 114t15 117.5q0 138 -96.5 209t-260.5 71h-239l53 312h-362l-97 -545q-12 -65 -12 -127zM446 354q0 14 3 29l14 74h180q53 0 77.5 -27.5t24.5 -56.5q0 -54 -45 -90.5t-125 -36.5q-67 1 -98 31.5 t-31 76.5zM1112 0l176 1006h359l-177 -1006h-358z" />
<glyph unicode="&#x44c;" horiz-adv-x="1179" d="M88 334q0 62 12 127l97 545h362l-53 -312h239q164 0 260.5 -71t96.5 -209q0 -61 -15 -117.5t-55.5 -114t-102.5 -100t-164.5 -69.5t-232.5 -27q-444 0 -444 348zM446 354q0 -46 31 -76.5t98 -31.5q80 0 125 36.5t45 90.5q0 29 -24.5 56.5t-77.5 27.5h-180l-14 -74 q-3 -15 -3 -29z" />
<glyph unicode="&#x44d;" horiz-adv-x="1136" d="M43 252q0 49 16 102h326q0 -118 113 -118q65 0 109 38t59 113h-187l41 231h185q2 10 2 29q0 48 -26.5 77.5t-80.5 29.5q-25 0 -50.5 -9t-53.5 -36t-41 -70h-326q4 75 36 139t81.5 108t113.5 74.5t132 45t137 14.5q218 0 324 -96.5t106 -296.5q0 -310 -154 -478.5 t-459 -168.5q-83 0 -154 16t-127.5 47.5t-89 85t-32.5 123.5z" />
<glyph unicode="&#x44e;" horiz-adv-x="1703" d="M27 0l176 1008h358l-63 -367h127q31 82 77.5 148.5t114.5 120.5t163 84t210 30q99 0 176 -23t125 -61.5t78.5 -93.5t42.5 -112.5t12 -125.5q0 -50 -7.5 -102.5t-26.5 -114.5t-49 -118t-78.5 -109.5t-109.5 -92t-148.5 -62t-190.5 -23.5q-100 0 -177.5 20t-126.5 54 t-81 83t-45 102.5t-13 116.5v31h-118l-68 -393h-358zM930 358q2 -60 32.5 -93.5t90.5 -33.5q79 0 131.5 72.5t75.5 198.5q47 270 -111 270q-160 0 -207 -272q-14 -82 -12 -142z" />
<glyph unicode="&#x44f;" horiz-adv-x="1204" d="M-23 0l330 387q-93 31 -134.5 100t-41.5 150q0 170 123.5 271.5t333.5 101.5h575l-157 -1010h-377l67 371h-30l-306 -371h-383zM479 653q0 -69 94 -69h162l33 186h-160q-57 0 -93 -33t-36 -84z" />
<glyph unicode="&#x451;" horiz-adv-x="1146" d="M86 369q0 -184 113 -283.5t346 -99.5q136 0 240 34t166.5 108t62.5 179q0 29 -2 43h-301q-43 -121 -160 -121q-119 0 -119 111q0 27 6 57h39q143 0 250 18t174.5 48t109.5 76t58 96.5t16 114.5q0 119 -99 195.5t-279 76.5q-282 0 -451.5 -179t-169.5 -474zM381 1341 q12 68 66 115t120 47q65 0 102 -47.5t25 -114.5t-65.5 -114t-118.5 -47q-66 0 -103.5 47t-25.5 114zM465 596q12 77 55 126.5t121 49.5q40 0 65 -17t25 -50q0 -44 -55.5 -76.5t-175.5 -32.5h-35zM817 1341q12 68 66.5 115t120.5 47t103.5 -47t25.5 -115q-12 -67 -66.5 -114 t-120.5 -47t-103.5 47t-25.5 114z" />
<glyph unicode="&#x452;" horiz-adv-x="1206" d="M29 0l194 1108h-94l31 172h94l31 174h338l-31 -174h356l-30 -172h-357l-18 -100q-33 -167 -68 -232h10q52 71 117.5 114t114 55.5t96.5 12.5q162 0 231.5 -96t69.5 -274q0 -120 -18 -222.5t-61 -196t-108.5 -159.5t-167.5 -104.5t-231 -38.5q-21 0 -75 4l47 260 q122 12 196 122t74 288q0 77 -32.5 121.5t-100.5 44.5q-77 0 -116 -55t-58 -160l-86 -492h-348z" />
<glyph unicode="&#x453;" horiz-adv-x="1105" d="M59 262q0 144 122.5 228.5t404.5 142.5q64 13 87 33t23 51q0 27 -22.5 45t-67.5 18q-48 0 -83 -25.5t-50 -74.5h-309q-2 10 -2 31q0 66 30 120t78.5 89t112.5 59t129 34.5t131 10.5q113 0 195 -24t126.5 -65t64.5 -88.5t20 -103.5q0 -129 -113 -216.5t-330 -127.5 q-102 -19 -147 -44t-45 -62q0 -29 30 -49.5t86 -20.5q66 0 112 30t63 87h311v-27q0 -77 -34.5 -137t-87 -95t-124 -57.5t-136 -30t-132.5 -7.5q-218 0 -330.5 75t-112.5 201zM483 1243l404 377l153 -211l-436 -299z" />
<glyph unicode="&#x454;" horiz-adv-x="1144" d="M80 373q0 132 32 240t87.5 183t131.5 126t162.5 74.5t182.5 23.5q187 0 298 -76t111 -219q0 -39 -14 -94h-332q0 4 1 13t1 13q0 59 -30.5 81t-69.5 22q-108 0 -164 -144h201l-41 -231h-203v-12q0 -65 28 -96t95 -31q117 0 152 112h331v-14q0 -91 -47 -162.5 t-123.5 -113.5t-164.5 -63t-179 -21q-225 0 -335.5 95t-110.5 294z" />
<glyph unicode="&#x455;" horiz-adv-x="1112" d="M45 248q0 40 14 92h312q0 -57 36.5 -87t102.5 -30q65 0 103 26t38 60q0 29 -36.5 46.5t-127.5 35.5q-182 35 -265 95t-83 173q0 48 13.5 95t49.5 97t91 87.5t146 61.5t206 24q58 0 112 -7.5t106.5 -25t91 -45t62 -70t23.5 -96.5q0 -30 -16 -100h-309q0 49 -28 74.5 t-75 25.5q-56 0 -84 -26t-28 -62q0 -22 19.5 -35.5t70.5 -23.5q238 -47 326 -112.5t88 -192.5q0 -154 -134.5 -248t-380.5 -94q-81 0 -152.5 11.5t-140.5 39t-110 81.5t-41 130z" />
<glyph unicode="&#x456;" horiz-adv-x="651" d="M61 0l177 1006h358l-176 -1006h-359zM270 1253q0 96 71 167t159 71q73 0 117.5 -45.5t44.5 -118.5q0 -93 -70.5 -163t-161.5 -70q-69 0 -114.5 45t-45.5 114z" />
<glyph unicode="&#x457;" horiz-adv-x="661" d="M53 0l176 1006h359l-176 -1006h-359zM94 1327q12 68 66.5 115t120.5 47q65 0 102 -47.5t25 -114.5t-66 -114.5t-119 -47.5q-66 0 -103.5 47t-25.5 115zM530 1327q12 68 66.5 115t120.5 47t103.5 -47t25.5 -115t-66.5 -115t-120.5 -47t-103.5 47t-25.5 115z" />
<glyph unicode="&#x458;" horiz-adv-x="634" d="M-172 -436l37 276q59 3 93.5 10t54 24t26.5 35.5t14 55.5l185 1041h358l-199 -1125q-7 -42 -12.5 -67.5t-19 -65.5t-29.5 -64.5t-44.5 -54t-64.5 -45.5t-89 -27.5t-118 -11.5q-75 0 -192 19zM270 1253q0 96 71 167t159 71q73 0 117.5 -45.5t44.5 -118.5q0 -93 -70.5 -163 t-161.5 -70q-69 0 -114.5 45t-45.5 114z" />
<glyph unicode="&#x459;" horiz-adv-x="1775" d="M-55 -2l28 242q29 3 45 5.5t41 9t39.5 18t35 31t35 48.5t31.5 69t32.5 95t31.5 125l84 367l805 -2l-53 -312h239q164 0 260.5 -71t96.5 -209q0 -61 -15 -117.5t-55.5 -114t-102.5 -100t-164.5 -69.5t-232.5 -27q-444 0 -444 348q0 62 12 127l51 291h-149l-68 -299 q-58 -255 -161.5 -362t-286.5 -107q-84 0 -135 14zM1040 354q0 -46 31 -76.5t98 -31.5q80 0 125 36.5t45 90.5q0 29 -24.5 56.5t-77.5 27.5h-180l-15 -74q-2 -10 -2 -29z" />
<glyph unicode="&#x45a;" horiz-adv-x="1759" d="M20 0l177 1004h368l-55 -324h244l57 326h363l-56 -326h240q167 0 262.5 -64.5t95.5 -201.5q0 -60 -17.5 -117t-59.5 -114.5t-105 -100.5t-163 -69.5t-224 -26.5q-208 0 -327.5 88t-119.5 258q0 36 5 65l4 33h-242l-78 -430h-369zM1063 356q0 -53 33.5 -80.5t93.5 -29.5 q80 0 125 36.5t45 90.5q0 27 -25.5 48t-79.5 21h-180l-10 -59q-2 -10 -2 -27z" />
<glyph unicode="&#x45b;" horiz-adv-x="1210" d="M20 0l195 1108h-86l31 172h86l30 178h353l-31 -178h342l-31 -172h-342l-8 -41q-10 -62 -33 -152t-45 -131h13q52 70 126.5 114.5t130.5 57.5t107 13q182 0 241 -103t25 -303l-98 -563h-360l96 551q29 162 -100 162q-44 0 -80 -21.5t-58.5 -57.5t-36 -73t-20.5 -78 l-82 -483h-365z" />
<glyph unicode="&#x45c;" horiz-adv-x="1191" d="M20 0l177 1006h362l-53 -304h82l264 304h418l-430 -461l264 -545h-381l-178 416h-90l-72 -416h-363zM563 1243l404 377l153 -211l-436 -299z" />
<glyph unicode="&#x45e;" horiz-adv-x="1144" d="M84 1008h346l68 -412q30 -181 37 -315h12l153 325q42 88 67 159t34.5 113t25.5 128h338q-3 -18 -11 -67t-11 -65t-11 -55t-15.5 -61t-19.5 -57t-27.5 -69t-35.5 -73l-508 -979h-362l225 422l-98 -4zM370.5 1378.5q-0.5 42.5 6.5 83.5h192q-5 -46 2 -84t35 -65t74 -27 q65 0 114 51.5t74 124.5h215q-15 -50 -40.5 -101.5t-66 -105t-89 -94.5t-113.5 -67.5t-135 -26.5q-60 0 -107.5 18t-77 50t-49.5 71t-27 84.5t-7.5 88z" />
<glyph unicode="&#x45f;" horiz-adv-x="1181" d="M70 212.5q-3 68.5 14 149.5l113 644h362l-104 -596q-8 -50 -7.5 -86t24 -56t73.5 -20q39 0 70.5 21t50.5 56t30 68.5t17 69.5l94 543h367l-177 -1006h-315q-28 55 -12 156h-11q-44 -55 -94.5 -92t-96 -52t-75 -20.5t-57.5 -5.5q-98 0 -158.5 28.5t-82.5 79t-25 119z M324 -512l53 440h313l-84 -440h-282z" />
<glyph unicode="&#x490;" horiz-adv-x="1144" d="M41 0l244 1386h708l45 252h301l-96 -538h-637l-192 -1100h-373z" />
<glyph unicode="&#x491;" horiz-adv-x="970" d="M20 0l177 1006h561l49 280h293l-96 -547h-486l-129 -739h-369z" />
<glyph unicode="&#x4d9;" horiz-adv-x="1138" d="M78 258q0 66 15.5 115.5t57.5 95t112 74.5t183 46t267 17q10 75 -15.5 123.5t-95.5 48.5q-65 0 -98 -34.5t-51 -86.5h-301q-2 14 -2 43q0 79 38.5 141.5t104.5 101.5t149 59t176 20q233 0 346 -99.5t113 -283.5q0 -295 -169 -474t-451 -179q-180 0 -279.5 76.5 t-99.5 195.5zM414 303q0 -33 25 -50t65 -17q78 0 121 49.5t55 126.5q-138 0 -202 -32t-64 -77z" />
<glyph unicode="&#x1e80;" horiz-adv-x="2074" d="M178 1386h387l13 -442q1 -52 4 -178t3 -183t-3 -194h8q21 71 50 151t49.5 131.5t58.5 144t53 130.5l178 440h434l27 -464q18 -297 16 -521h10q27 88 57 172.5t70 193t56 151.5l178 468h393l-627 -1386h-413l-25 442q-25 378 -12 600h-8q-114 -321 -217 -573l-189 -469 h-412zM836 1671l145 234l367 -287l-115 -148z" />
<glyph unicode="&#x1e81;" horiz-adv-x="1730" d="M102 1008h355l26 -310q19 -206 21 -336h10q33 101 119 291l104 228h381l27 -211q23 -186 31 -297h10l106 250q56 128 75 193.5t38 189.5h346q-21 -158 -43.5 -238.5t-93.5 -216.5l-291 -555h-360l-35 244q-31 214 -37 338h-17q-60 -179 -141 -349l-112 -233h-381z M582 1397l159 215l379 -350l-123 -140z" />
<glyph unicode="&#x1e82;" horiz-adv-x="2074" d="M178 1386l139 -1386h412l189 469q103 252 217 573h8q-13 -222 12 -600l25 -442h413l627 1386h-393l-178 -468q-16 -43 -56 -151.5t-70 -193t-57 -172.5h-10q2 224 -16 521l-27 464h-434l-178 -440q-15 -38 -53 -130.5t-58.5 -144t-49.5 -131.5t-50 -151h-8q3 137 3 194 t-3 183t-4 178l-13 442h-387zM1065 1642l451 287l118 -239l-487 -199z" />
<glyph unicode="&#x1e83;" horiz-adv-x="1730" d="M102 1008h355l26 -310q19 -206 21 -336h10q33 101 119 291l104 228h381l27 -211q23 -186 31 -297h10l106 250q56 128 75 193.5t38 189.5h346q-21 -158 -43.5 -238.5t-93.5 -216.5l-291 -555h-360l-35 244q-31 214 -37 338h-17q-60 -179 -141 -349l-112 -233h-381z M801 1243l403 377l154 -211l-436 -299z" />
<glyph unicode="&#x1e84;" horiz-adv-x="2074" d="M178 1386l139 -1386h412l189 469q103 252 217 573h8q-13 -222 12 -600l25 -442h413l627 1386h-393l-178 -468q-16 -43 -56 -151.5t-70 -193t-57 -172.5h-10q2 224 -16 521l-27 464h-434l-178 -440q-15 -38 -53 -130.5t-58.5 -144t-49.5 -131.5t-50 -151h-8q3 137 3 194 t-3 183t-4 178l-13 442h-387zM883 1651q0 75 57.5 131.5t128.5 56.5q58 0 94.5 -37.5t36.5 -93.5q0 -78 -56 -135t-130 -57q-58 0 -94.5 38t-36.5 97zM1319 1651q0 75 57.5 131.5t130.5 56.5q56 0 92.5 -37.5t36.5 -93.5q0 -77 -55.5 -134.5t-128.5 -57.5q-59 0 -96 38 t-37 97z" />
<glyph unicode="&#x1e85;" horiz-adv-x="1730" d="M102 1008h355l26 -310q19 -206 21 -336h10q33 101 119 291l104 228h381l27 -211q23 -186 31 -297h10l106 250q56 128 75 193.5t38 189.5h346q-21 -158 -43.5 -238.5t-93.5 -216.5l-291 -555h-360l-35 244q-31 214 -37 338h-17q-60 -179 -141 -349l-112 -233h-381z M612 1327q12 68 66.5 115t120.5 47q65 0 102 -47.5t25 -114.5t-66 -114.5t-119 -47.5q-66 0 -103.5 47t-25.5 115zM1049 1327q12 68 66 115t120 47t103.5 -47t25.5 -115t-66 -115t-120 -47t-103.5 47t-25.5 115z" />
<glyph unicode="&#x1ef2;" horiz-adv-x="1349" d="M172 1386h373l86 -286q54 -172 74 -336h12q111 206 196 330l201 292h387l-641 -907l-84 -479h-373l82 467zM508 1671l145 234l367 -287l-115 -148z" />
<glyph unicode="&#x1ef3;" horiz-adv-x="1144" d="M84 1008h346l68 -412q30 -181 37 -315h12l153 325q42 88 67 159t34.5 113t25.5 128h338q-3 -18 -11 -67t-11 -65t-11 -55t-15.5 -61t-19.5 -57t-27.5 -69t-35.5 -73l-508 -979h-362l225 422l-98 -4zM293 1399l160 215l378 -350l-122 -140z" />
<glyph unicode="&#x1f00;" horiz-adv-x="1232" d="M74 342q0 91 17 182t56.5 182.5t97 161t147.5 113t200 43.5q101 0 169.5 -39.5t96.5 -110.5h10q15 80 60 134h293l-177 -1008h-301q-22 58 -8 141h-12q-133 -155 -340 -155q-162 0 -235.5 90t-73.5 266zM442 371q0 -144 127 -144q96 0 160 110t64 275q0 154 -125 154 q-96 0 -161 -104.5t-65 -290.5zM602 1485l135 233q102 -36 161.5 -102t59.5 -162q0 -50 -24 -111t-76.5 -123.5t-122.5 -101.5l-121 60q59 55 83 106.5t24 79.5q0 74 -119 121z" />
<glyph unicode="&#x1f01;" horiz-adv-x="1232" d="M74 342q0 91 17 182t56.5 182.5t97 161t147.5 113t200 43.5q101 0 169.5 -39.5t96.5 -110.5h10q15 80 60 134h293l-177 -1008h-301q-22 58 -8 141h-12q-133 -155 -340 -155q-162 0 -235.5 90t-73.5 266zM442 371q0 -144 127 -144q96 0 160 110t64 275q0 154 -125 154 q-96 0 -161 -104.5t-65 -290.5zM592 1399q21 118 109 198t219 121l53 -233q-149 -51 -162 -137q-16 -86 41 -170l-139 -60q-69 45 -101.5 127t-19.5 154z" />
<glyph unicode="&#x1f02;" horiz-adv-x="1232" d="M74 342q0 91 17 182t56.5 182.5t97 161t147.5 113t200 43.5q101 0 169.5 -39.5t96.5 -110.5h10q15 80 60 134h293l-177 -1008h-301q-22 58 -8 141h-12q-133 -155 -340 -155q-162 0 -235.5 90t-73.5 266zM352 1477l135 233q102 -36 163 -102.5t61 -161.5 q0 -80 -60.5 -179.5t-167.5 -156.5l-118 59q59 55 82.5 107t23.5 80q0 74 -119 121zM442 371q0 -144 127 -144q96 0 160 110t64 275q0 154 -125 154q-96 0 -161 -104.5t-65 -290.5zM743 1614l273 104l141 -516l-196 -80z" />
<glyph unicode="&#x1f03;" horiz-adv-x="1232" d="M74 342q0 91 17 182t56.5 182.5t97 161t147.5 113t200 43.5q101 0 169.5 -39.5t96.5 -110.5h10q15 80 60 134h293l-177 -1008h-301q-22 58 -8 141h-12q-133 -155 -340 -155q-162 0 -235.5 90t-73.5 266zM367 1356q0 129 96.5 221t236.5 137l54 -233q-94 -33 -130 -74 t-36 -94q0 -75 45 -139l-141 -60q-59 40 -92 107t-33 135zM442 371q0 -144 127 -144q96 0 160 110t64 275q0 154 -125 154q-96 0 -161 -104.5t-65 -290.5zM793 1618l272 106l125 -524l-178 -57z" />
<glyph unicode="&#x1f04;" horiz-adv-x="1232" d="M74 342q0 91 17 182t56.5 182.5t97 161t147.5 113t200 43.5q101 0 169.5 -39.5t96.5 -110.5h10q15 80 60 134h293l-177 -1008h-301q-22 58 -8 141h-12q-133 -155 -340 -155q-162 0 -235.5 90t-73.5 266zM393 1493l137 233q102 -36 162 -103t60 -163q0 -80 -61 -178.5 t-167 -155.5l-116 60q42 40 67.5 84.5t31 67.5t5.5 38q0 69 -119 117zM442 371q0 -144 127 -144q96 0 160 110t64 275q0 154 -125 154q-96 0 -161 -104.5t-65 -290.5zM750 1200l284 508l250 -113l-373 -483z" />
<glyph unicode="&#x1f05;" horiz-adv-x="1232" d="M74 342q0 91 17 182t56.5 182.5t97 161t147.5 113t200 43.5q101 0 169.5 -39.5t96.5 -110.5h10q15 80 60 134h293l-177 -1008h-301q-22 58 -8 141h-12q-133 -155 -340 -155q-162 0 -235.5 90t-73.5 266zM408 1368q0 66 28 125.5t76.5 103t105.5 75.5t121 52l54 -233 q-96 -33 -131 -74t-35 -96q0 -75 45 -137l-142 -60q-59 39 -90.5 107t-31.5 137zM442 371q0 -144 127 -144q96 0 160 110t64 275q0 154 -125 154q-96 0 -161 -104.5t-65 -290.5zM745 1214l285 488l250 -113l-379 -477z" />
<glyph unicode="&#x1f06;" horiz-adv-x="1232" d="M74 342q0 91 17 182t56.5 182.5t97 161t147.5 113t200 43.5q101 0 169.5 -39.5t96.5 -110.5h10q15 80 60 134h293l-177 -1008h-301q-22 58 -8 141h-12q-133 -155 -340 -155q-162 0 -235.5 90t-73.5 266zM367 1708q63 115 132 168t158 53q46 0 144 -38t145 -38 q42 0 79 15.5t87 62.5l117 -90q-44 -104 -123 -165.5t-166 -61.5q-53 0 -149 39t-136 39q-92 0 -168 -78zM442 371q0 -144 127 -144q96 0 160 110t64 275q0 154 -125 154q-96 0 -161 -104.5t-65 -290.5zM557 1399q65 -19 94 -40t29 -50q0 -64 -94 -146l119 -57 q98 51 158.5 133.5t60.5 155.5q0 88 -60.5 135.5t-173.5 75.5z" />
<glyph unicode="&#x1f07;" horiz-adv-x="1232" d="M74 342q0 91 17 182t56.5 182.5t97 161t147.5 113t200 43.5q101 0 169.5 -39.5t96.5 -110.5h10q15 80 60 134h293l-177 -1008h-301q-22 58 -8 141h-12q-133 -155 -340 -155q-162 0 -235.5 90t-73.5 266zM430 1735q63 115 132.5 168t158.5 53q46 0 144 -38t145 -38 q42 0 79 15.5t87 62.5l116 -90q-44 -104 -122 -166t-164 -62q-53 0 -150 39t-137 39q-92 0 -166 -78zM442 371q0 -144 127 -144q96 0 160 110t64 275q0 154 -125 154q-96 0 -161 -104.5t-65 -290.5zM594 1319q0 64 27.5 114.5t77.5 83t102.5 52.5t118.5 35l59 -207 q-91 -23 -126.5 -51t-35.5 -74q0 -49 49 -111l-137 -57q-58 35 -96.5 96.5t-38.5 118.5z" />
<glyph unicode="&#x1f08;" horiz-adv-x="1460" d="M-74 0l760 1391h422l240 -1391h-381l-35 299h-471l-152 -299h-383zM-70 1243l136 234q102 -36 161.5 -102.5t59.5 -162.5q0 -50 -24.5 -110.5t-77 -123t-122.5 -101.5l-120 59q59 55 82.5 106.5t23.5 79.5q0 74 -119 121zM610 571h277l-19 187q-17 144 -20 295h-19 q-61 -154 -127 -295z" />
<glyph unicode="&#x1f09;" horiz-adv-x="1460" d="M-74 0l760 1391h422l240 -1391h-381l-35 299h-471l-152 -299h-383zM-57 1161q21 118 109 198.5t218 121.5l54 -234q-149 -51 -162 -137q-16 -86 41 -170l-140 -59q-69 45 -101 126.5t-19 153.5zM610 571h277l-19 187q-17 144 -20 295h-19q-61 -154 -127 -295z" />
<glyph unicode="&#x1f0a;" horiz-adv-x="1460" d="M-492 1221l136 233q102 -36 162.5 -102.5t60.5 -161.5q0 -80 -60 -179.5t-167 -156.5l-119 59q59 55 82.5 107t23.5 80q0 74 -119 121zM-100 1358l272 104l141 -516l-196 -80zM-74 0l760 1391h422l240 -1391h-381l-35 299h-471l-152 -299h-383zM610 571h277l-19 187 q-17 144 -20 295h-19q-61 -154 -127 -295z" />
<glyph unicode="&#x1f0b;" horiz-adv-x="1460" d="M-506 1112q0 67 28.5 126.5t77 103t106 75.5t122.5 53l53 -233q-94 -33 -130 -74t-36 -94q0 -75 45 -139l-141 -60q-59 40 -92 107t-33 135zM-80 1374l273 107l124 -525l-178 -57zM-74 0l760 1391h422l240 -1391h-381l-35 299h-471l-152 -299h-383zM610 571h277l-19 187 q-17 144 -20 295h-19q-61 -154 -127 -295z" />
<glyph unicode="&#x1f0c;" horiz-adv-x="1460" d="M-451 1219l138 233q101 -36 161 -103t60 -163q0 -81 -60.5 -179t-166.5 -155l-117 59q33 31 55.5 63.5t32 59t13 42.5t3.5 26q0 69 -119 117zM-94 926l284 508l250 -113l-372 -483zM-74 0l760 1391h422l240 -1391h-381l-35 299h-471l-152 -299h-383zM610 571h277l-19 187 q-17 144 -20 295h-19q-61 -154 -127 -295z" />
<glyph unicode="&#x1f0d;" horiz-adv-x="1460" d="M-426 1100q0 66 28.5 125.5t76.5 103t105.5 75.5t121.5 52l53 -233q-96 -33 -131 -74t-35 -96q0 -76 45 -138l-141 -59q-59 39 -91 107t-32 137zM-88 946l285 488l249 -113l-378 -477zM-74 0l760 1391h422l240 -1391h-381l-35 299h-471l-152 -299h-383zM610 571h277 l-19 187q-17 144 -20 295h-19q-61 -154 -127 -295z" />
<glyph unicode="&#x1f0e;" horiz-adv-x="1460" d="M-420 1272q63 115 132.5 168t158.5 53q46 0 144 -38t145 -38q42 0 79 15.5t87 62.5l116 -90q-44 -104 -122.5 -165.5t-165.5 -61.5q-53 0 -149 38.5t-136 38.5q-25 0 -43.5 -2.5t-54.5 -21t-70 -53.5zM-229 963q65 -19 94 -40.5t29 -50.5q0 -62 -95 -145l119 -57 q98 51 158.5 133t60.5 155q0 88 -60 135.5t-173 75.5zM-74 0l760 1391h422l240 -1391h-381l-35 299h-471l-152 -299h-383zM610 571h277l-19 187q-17 144 -20 295h-19q-61 -154 -127 -295z" />
<glyph unicode="&#x1f0f;" horiz-adv-x="1460" d="M-410 1253q64 115 133 168.5t158 53.5q46 0 144 -38t145 -38q42 0 79 15.5t87 62.5l117 -91q-44 -104 -122 -165.5t-165 -61.5q-53 0 -150 39t-137 39q-92 0 -166 -78zM-246 838q0 52 19.5 95t49.5 72.5t74.5 53t87.5 37.5t95 26l59 -207q-92 -23 -127 -51t-35 -73 q0 -48 50 -111l-138 -57q-58 35 -96.5 96.5t-38.5 118.5zM-74 0l760 1391h422l240 -1391h-381l-35 299h-471l-152 -299h-383zM610 571h277l-19 187q-17 144 -20 295h-19q-61 -154 -127 -295z" />
<glyph unicode="&#x1f10;" horiz-adv-x="1046" d="M39 254q0 30 8.5 61.5t29.5 68.5t65.5 69t107.5 51l2 12q-121 50 -121 172q0 63 27 121.5t81.5 108.5t148 80t214.5 30q105 0 194 -31.5t147 -99t58 -158.5q0 -21 -10 -69h-295q0 57 -27.5 79.5t-76.5 22.5q-45 0 -80 -28.5t-35 -73.5q0 -60 82 -60h84l-35 -196h-86 q-56 0 -88.5 -30t-32.5 -67t25 -57t72 -20q71 0 111.5 29.5t47.5 101.5l304 -2q0 -6 1 -18.5t1 -18.5q0 -161 -130.5 -254.5t-361.5 -93.5q-220 0 -326 76t-106 194zM512 1485l135 233q102 -36 161.5 -102t59.5 -162q0 -50 -24 -111t-76.5 -123.5t-122.5 -101.5l-121 60 q59 55 83 106.5t24 79.5q0 74 -119 121z" />
<glyph unicode="&#x1f11;" horiz-adv-x="1046" d="M39 254q0 -118 106 -194t326 -76q231 0 361.5 93.5t130.5 254.5q0 6 -1 18.5t-1 18.5l-304 2q-7 -72 -47.5 -101.5t-111.5 -29.5q-47 0 -72 20t-25 57t32.5 67t88.5 30h86l35 196h-84q-82 0 -82 60q0 45 35 73.5t80 28.5q49 0 76.5 -22.5t27.5 -79.5h295q10 48 10 69 q0 91 -58 158.5t-147 99t-194 31.5q-121 0 -214.5 -30t-148 -80t-81.5 -108.5t-27 -121.5q0 -122 121 -172l-2 -12q-63 -19 -107.5 -51t-65.5 -69t-29.5 -68.5t-8.5 -61.5zM500 1399q21 118 108.5 198t218.5 121l54 -233q-149 -51 -162 -137q-16 -86 41 -170l-139 -60 q-69 45 -101.5 127t-19.5 154z" />
<glyph unicode="&#x1f12;" horiz-adv-x="1046" d="M39 254q0 30 8.5 61.5t29.5 68.5t65.5 69t107.5 51l2 12q-121 50 -121 172q0 63 27 121.5t81.5 108.5t148 80t214.5 30q105 0 194 -31.5t147 -99t58 -158.5q0 -21 -10 -69h-295q0 57 -27.5 79.5t-76.5 22.5q-45 0 -80 -28.5t-35 -73.5q0 -60 82 -60h84l-35 -196h-86 q-56 0 -88.5 -30t-32.5 -67t25 -57t72 -20q71 0 111.5 29.5t47.5 101.5l304 -2q0 -6 1 -18.5t1 -18.5q0 -161 -130.5 -254.5t-361.5 -93.5q-220 0 -326 76t-106 194zM276 1477l136 233q102 -36 162.5 -102.5t60.5 -161.5q0 -80 -60 -179.5t-167 -156.5l-119 59 q59 55 82.5 107t23.5 80q0 74 -119 121zM668 1614l272 104l141 -516l-196 -80z" />
<glyph unicode="&#x1f13;" horiz-adv-x="1046" d="M39 254q0 30 8.5 61.5t29.5 68.5t65.5 69t107.5 51l2 12q-121 50 -121 172q0 63 27 121.5t81.5 108.5t148 80t214.5 30q105 0 194 -31.5t147 -99t58 -158.5q0 -21 -10 -69h-295q0 57 -27.5 79.5t-76.5 22.5q-45 0 -80 -28.5t-35 -73.5q0 -60 82 -60h84l-35 -196h-86 q-56 0 -88.5 -30t-32.5 -67t25 -57t72 -20q71 0 111.5 29.5t47.5 101.5l304 -2q0 -6 1 -18.5t1 -18.5q0 -161 -130.5 -254.5t-361.5 -93.5q-220 0 -326 76t-106 194zM260 1356q0 67 28.5 126.5t77 103t106 75.5t122.5 53l53 -233q-94 -33 -130 -74t-36 -94q0 -75 45 -139 l-141 -60q-59 40 -92 107t-33 135zM686 1618l272 106l125 -524l-178 -57z" />
<glyph unicode="&#x1f14;" horiz-adv-x="1046" d="M39 254q0 30 8.5 61.5t29.5 68.5t65.5 69t107.5 51l2 12q-121 50 -121 172q0 63 27 121.5t81.5 108.5t148 80t214.5 30q105 0 194 -31.5t147 -99t58 -158.5q0 -21 -10 -69h-295q0 57 -27.5 79.5t-76.5 22.5q-45 0 -80 -28.5t-35 -73.5q0 -60 82 -60h84l-35 -196h-86 q-56 0 -88.5 -30t-32.5 -67t25 -57t72 -20q71 0 111.5 29.5t47.5 101.5l304 -2q0 -6 1 -18.5t1 -18.5q0 -161 -130.5 -254.5t-361.5 -93.5q-220 0 -326 76t-106 194zM326 1493l137 233q101 -36 161 -103t60 -163q0 -81 -60.5 -179t-166.5 -155l-117 60q42 40 67.5 84.5 t31 67.5t5.5 38q0 69 -118 117zM682 1200l285 508l250 -113l-373 -483z" />
<glyph unicode="&#x1f15;" horiz-adv-x="1046" d="M39 254q0 -118 106 -194t326 -76q231 0 361.5 93.5t130.5 254.5q0 6 -1 18.5t-1 18.5l-304 2q-7 -72 -47.5 -101.5t-111.5 -29.5q-47 0 -72 20t-25 57t32.5 67t88.5 30h86l35 196h-84q-82 0 -82 60q0 45 35 73.5t80 28.5q49 0 76.5 -22.5t27.5 -79.5h295q10 48 10 69 q0 91 -58 158.5t-147 99t-194 31.5q-121 0 -214.5 -30t-148 -80t-81.5 -108.5t-27 -121.5q0 -122 121 -172l-2 -12q-63 -19 -107.5 -51t-65.5 -69t-29.5 -68.5t-8.5 -61.5zM317 1368q0 66 28.5 125.5t76.5 103t105.5 75.5t121.5 52l53 -233q-96 -33 -130.5 -73.5 t-34.5 -96.5q0 -75 45 -137l-142 -60q-59 39 -91 107t-32 137zM655 1214l285 488l250 -113l-379 -477z" />
<glyph unicode="&#x1f18;" horiz-adv-x="1265" d="M-295 1212l135 234q102 -36 161.5 -102t59.5 -162q0 -50 -24 -111t-76.5 -123.5t-122.5 -101.5l-121 59q59 55 83 107t24 80q0 73 -119 120zM41 0l244 1386h1024l-52 -286h-651l-41 -238h604l-51 -284h-604l-51 -293h688l-49 -285h-1061z" />
<glyph unicode="&#x1f19;" horiz-adv-x="1265" d="M-309 1135q21 118 108.5 198t218.5 121l54 -233q-148 -51 -162 -138q-16 -86 41 -170l-139 -59q-69 45 -101.5 127t-19.5 154zM41 0l244 1386h1024l-52 -286h-651l-41 -238h604l-51 -284h-604l-51 -293h688l-49 -285h-1061z" />
<glyph unicode="&#x1f1a;" horiz-adv-x="1265" d="M-711 1227l136 233q102 -36 162.5 -102.5t60.5 -161.5q0 -80 -60.5 -179.5t-167.5 -156.5l-118 60q59 55 82.5 106.5t23.5 79.5q0 74 -119 121zM-319 1364l272 104l141 -516l-196 -80zM41 0l244 1386h1024l-52 -286h-651l-41 -238h604l-51 -284h-604l-51 -293h688 l-49 -285h-1061z" />
<glyph unicode="&#x1f1b;" horiz-adv-x="1265" d="M-760 1108q0 67 28.5 126.5t77 103t106 75.5t122.5 53l53 -233q-94 -33 -130 -74t-36 -94q0 -75 45 -139l-141 -60q-59 40 -92 107t-33 135zM-334 1370l273 107l124 -525l-178 -57zM41 0l244 1386h1024l-52 -286h-651l-41 -238h604l-51 -284h-604l-51 -293h688l-49 -285 h-1061z" />
<glyph unicode="&#x1f1c;" horiz-adv-x="1265" d="M-735 1235l137 233q101 -36 161 -103t60 -163q0 -81 -60.5 -179t-166.5 -155l-117 60q42 40 68 84.5t31.5 67.5t5.5 38q0 69 -119 117zM-379 942l285 508l250 -113l-373 -483zM41 0l244 1386h1024l-52 -286h-651l-41 -238h604l-51 -284h-604l-51 -293h688l-49 -285h-1061 z" />
<glyph unicode="&#x1f1d;" horiz-adv-x="1265" d="M-713 1108q0 66 28.5 125.5t76.5 103t105.5 75.5t121.5 52l53 -233q-96 -33 -131 -74t-35 -96q0 -75 45 -137l-141 -60q-59 39 -91 107t-32 137zM-375 954l285 488l250 -113l-379 -477zM41 0l244 1386h1024l-52 -286h-651l-41 -238h604l-51 -284h-604l-51 -293h688 l-49 -285h-1061z" />
<glyph unicode="&#x1f20;" horiz-adv-x="1210" d="M20 0l177 1006h315q28 -55 12 -156h11q129 170 335 170q93 0 153.5 -29t87 -82.5t31 -129t-13.5 -169.5l-159 -942h-361l162 932q30 162 -98 162q-38 0 -70.5 -18t-52.5 -43t-35.5 -59.5t-23 -60.5t-11.5 -51l-94 -530h-365zM510 1485l135 233q102 -36 161.5 -102 t59.5 -162q0 -50 -24 -111t-76.5 -123.5t-122.5 -101.5l-121 60q59 55 83 106.5t24 79.5q0 74 -119 121z" />
<glyph unicode="&#x1f21;" horiz-adv-x="1210" d="M20 0l177 1006h315q28 -55 12 -156h11q129 170 335 170q93 0 153.5 -29t87 -82.5t31 -129t-13.5 -169.5l-159 -942h-361l162 932q30 162 -98 162q-38 0 -70.5 -18t-52.5 -43t-35.5 -59.5t-23 -60.5t-11.5 -51l-94 -530h-365zM502 1395q21 118 108.5 198t218.5 121 l54 -233q-148 -51 -162 -138q-15 -85 41 -169l-139 -60q-69 45 -101.5 127t-19.5 154z" />
<glyph unicode="&#x1f22;" horiz-adv-x="1210" d="M20 0l177 1006h315q28 -55 12 -156h11q129 170 335 170q93 0 153.5 -29t87 -82.5t31 -129t-13.5 -169.5l-159 -942h-361l162 932q30 162 -98 162q-38 0 -70.5 -18t-52.5 -43t-35.5 -59.5t-23 -60.5t-11.5 -51l-94 -530h-365zM293 1487l135 233q102 -36 162.5 -102.5 t60.5 -161.5q0 -80 -60 -179.5t-167 -156.5l-119 60q59 55 83 106.5t24 79.5q0 74 -119 121zM684 1624l272 105l142 -517l-197 -79z" />
<glyph unicode="&#x1f23;" horiz-adv-x="1210" d="M20 0l177 1006h315q28 -55 12 -156h11q129 170 335 170q93 0 153.5 -29t87 -82.5t31 -129t-13.5 -169.5l-159 -942h-361l162 932q30 162 -98 162q-38 0 -70.5 -18t-52.5 -43t-35.5 -59.5t-23 -60.5t-11.5 -51l-94 -530h-365zM268 1356q0 67 28.5 126.5t77 103t106 75.5 t122.5 53l53 -233q-94 -33 -130 -74t-36 -94q0 -73 46 -139l-142 -60q-59 40 -92 107t-33 135zM694 1618l273 106l125 -524l-179 -57z" />
<glyph unicode="&#x1f24;" horiz-adv-x="1210" d="M20 0l177 1006h315q28 -55 12 -156h11q129 170 335 170q93 0 153.5 -29t87 -82.5t31 -129t-13.5 -169.5l-159 -942h-361l162 932q30 162 -98 162q-38 0 -70.5 -18t-52.5 -43t-35.5 -59.5t-23 -60.5t-11.5 -51l-94 -530h-365zM297 1491l137 233q101 -36 161 -103t60 -163 q0 -81 -60.5 -179t-166.5 -155l-117 60q42 40 68 84.5t31.5 67.5t5.5 38q0 69 -119 117zM653 1198l285 508l250 -113l-373 -483z" />
<glyph unicode="&#x1f25;" horiz-adv-x="1210" d="M20 0l177 1006h315q28 -55 12 -156h11q129 170 335 170q93 0 153.5 -29t87 -82.5t31 -129t-13.5 -169.5l-159 -942h-361l162 932q30 162 -98 162q-38 0 -70.5 -18t-52.5 -43t-35.5 -59.5t-23 -60.5t-11.5 -51l-94 -530h-365zM324 1368q0 66 28 125.5t76.5 103t105.5 75.5 t121 52l54 -233q-96 -33 -131 -74t-35 -96q0 -75 45 -137l-142 -60q-59 39 -90.5 107t-31.5 137zM662 1214l284 488l250 -113l-379 -477z" />
<glyph unicode="&#x1f26;" horiz-adv-x="1210" d="M20 0l177 1006h315q28 -55 12 -156h11q129 170 335 170q93 0 153.5 -29t87 -82.5t31 -129t-13.5 -169.5l-159 -942h-361l162 932q30 162 -98 162q-38 0 -70.5 -18t-52.5 -43t-35.5 -59.5t-23 -60.5t-11.5 -51l-94 -530h-365zM309 1702q63 115 132.5 168t158.5 53 q46 0 144 -38t145 -38q42 0 79 15.5t87 62.5l116 -90q-44 -104 -122.5 -165.5t-165.5 -61.5q-53 0 -149 39t-136 39q-92 0 -168 -78zM500 1393q65 -19 94 -40t29 -50q0 -63 -95 -146l119 -57q98 51 158.5 133.5t60.5 155.5q0 88 -60 135t-173 75z" />
<glyph unicode="&#x1f27;" horiz-adv-x="1210" d="M20 0l177 1006h315q28 -55 12 -156h11q129 170 335 170q93 0 153.5 -29t87 -82.5t31 -129t-13.5 -169.5l-159 -942h-361l162 932q30 162 -98 162q-38 0 -70.5 -18t-52.5 -43t-35.5 -59.5t-23 -60.5t-11.5 -51l-94 -530h-365zM315 1718q63 115 132.5 168t158.5 53 q46 0 144 -37.5t145 -37.5q42 0 79 15.5t87 62.5l117 -91q-44 -104 -122 -165.5t-165 -61.5q-53 0 -150 39t-137 39q-92 0 -166 -78zM479 1303q0 52 19.5 95t49.5 72.5t74.5 53t87.5 37.5t95 26l59 -207q-91 -23 -126.5 -51t-35.5 -74q0 -47 50 -110l-138 -58 q-58 35 -96.5 97t-38.5 119z" />
<glyph unicode="&#x1f28;" horiz-adv-x="1505" d="M-297 1249l135 234q102 -36 161.5 -102t59.5 -162q0 -50 -24 -111t-76.5 -123.5t-122.5 -101.5l-121 59q59 55 83 106.5t24 79.5q0 74 -119 121zM41 0l244 1389h372l-92 -527h512l92 527h375l-244 -1389h-374l100 575h-512l-100 -575h-373z" />
<glyph unicode="&#x1f29;" horiz-adv-x="1505" d="M-289 1163q21 118 109 198.5t219 121.5l53 -234q-149 -51 -162 -137q-16 -86 41 -170l-139 -59q-69 45 -101.5 126.5t-19.5 153.5zM41 0l244 1389h372l-92 -527h512l92 527h375l-244 -1389h-374l100 575h-512l-100 -575h-373z" />
<glyph unicode="&#x1f2a;" horiz-adv-x="1505" d="M-727 1227l135 233q102 -36 162.5 -102.5t60.5 -161.5q0 -80 -60 -179.5t-167 -156.5l-119 60q59 55 83 106.5t24 79.5q0 74 -119 121zM-336 1364l273 104l141 -516l-197 -80zM41 0l244 1389h372l-92 -527h512l92 527h375l-244 -1389h-374l100 575h-512l-100 -575h-373z " />
<glyph unicode="&#x1f2b;" horiz-adv-x="1505" d="M-737 1110q0 67 28.5 126.5t77 103t106 75.5t122.5 53l53 -233q-94 -33 -130 -74t-36 -94q0 -75 45 -139l-141 -60q-59 40 -92 107t-33 135zM-311 1372l272 107l125 -525l-178 -57zM41 0l244 1389h372l-92 -527h512l92 527h375l-244 -1389h-374l100 575h-512l-100 -575 h-373z" />
<glyph unicode="&#x1f2c;" horiz-adv-x="1505" d="M-733 1233l137 233q101 -36 161 -103t60 -163q0 -81 -60.5 -179t-166.5 -155l-117 60q42 40 68 84.5t31.5 67.5t5.5 38q0 69 -119 117zM-377 940l285 508l250 -113l-373 -483zM41 0l244 1389h372l-92 -527h512l92 527h375l-244 -1389h-374l100 575h-512l-100 -575h-373z " />
<glyph unicode="&#x1f2d;" horiz-adv-x="1505" d="M-721 1104q0 66 28.5 125.5t76.5 103t105.5 75.5t121.5 52l53 -233q-96 -33 -131 -74t-35 -96q0 -75 45 -137l-141 -60q-59 39 -91 107t-32 137zM-383 950l285 488l250 -113l-379 -477zM41 0l244 1389h372l-92 -527h512l92 527h375l-244 -1389h-374l100 575h-512 l-100 -575h-373z" />
<glyph unicode="&#x1f2e;" horiz-adv-x="1505" d="M-698 1288q63 115 132 168t158 53q46 0 144 -37.5t145 -37.5q42 0 79 15t87 62l117 -90q-44 -104 -123 -165.5t-166 -61.5q-53 0 -149 39t-136 39q-92 0 -168 -78zM-508 979q65 -19 94 -40t29 -50q0 -64 -94 -146l119 -57q98 51 158.5 133.5t60.5 155.5q0 88 -60.5 135.5 t-173.5 75.5zM41 0l244 1389h372l-92 -527h512l92 527h375l-244 -1389h-374l100 575h-512l-100 -575h-373z" />
<glyph unicode="&#x1f2f;" horiz-adv-x="1505" d="M-713 1280q63 115 132.5 168t158.5 53q46 0 144 -38t145 -38q42 0 79 15.5t87 62.5l117 -90q-44 -104 -122 -165.5t-165 -61.5q-53 0 -150 39t-137 39q-92 0 -166 -78zM-549 864q0 64 27.5 114.5t77.5 83t102.5 52.5t118.5 35l59 -207q-91 -23 -126.5 -51t-35.5 -74 q0 -47 50 -110l-138 -58q-58 35 -96.5 96.5t-38.5 118.5zM41 0l244 1389h372l-92 -527h512l92 527h375l-244 -1389h-374l100 575h-512l-100 -575h-373z" />
<glyph unicode="&#x1f30;" horiz-adv-x="694" d="M123 379l108 627h363l-113 -605q-6 -33 -6.5 -56.5t6.5 -39t16 -24t29.5 -13t39 -5.5t50.5 -1l-26 -256q-79 -18 -172 -18q-200 0 -266 90t-29 301zM287 1485l135 233q102 -36 161.5 -102t59.5 -162q0 -50 -24 -111t-76.5 -123.5t-122.5 -101.5l-121 60q59 55 83 106.5 t24 79.5q0 74 -119 121z" />
<glyph unicode="&#x1f31;" horiz-adv-x="694" d="M123 379q-37 -211 29 -301t266 -90q93 0 172 18l26 256q-32 0 -50.5 1t-39 5.5t-29.5 13t-16 24t-6.5 39t6.5 56.5l113 605h-363zM264 1399q21 118 109 198t219 121l53 -233q-149 -51 -162 -137q-16 -86 41 -170l-139 -60q-69 45 -101.5 127t-19.5 154z" />
<glyph unicode="&#x1f32;" horiz-adv-x="694" d="M29 1477l135 233q102 -36 162.5 -102.5t60.5 -161.5q0 -80 -60 -179.5t-167 -156.5l-119 59q59 55 82.5 107t23.5 80q0 74 -118 121zM123 379l108 627h363l-113 -605q-6 -33 -6.5 -56.5t6.5 -39t16 -24t29.5 -13t39 -5.5t50.5 -1l-26 -256q-79 -18 -172 -18 q-200 0 -266 90t-29 301zM420 1614l272 104l142 -516l-197 -80z" />
<glyph unicode="&#x1f33;" horiz-adv-x="694" d="M20 1360q0 67 28.5 126.5t77 103t106 75.5t122.5 53l54 -233q-94 -33 -130 -74t-36 -94q0 -75 45 -139l-142 -60q-59 40 -92 107t-33 135zM123 379l108 627h363l-113 -605q-6 -33 -6.5 -56.5t6.5 -39t16 -24t29.5 -13t39 -5.5t50.5 -1l-26 -256q-79 -18 -172 -18 q-200 0 -266 90t-29 301zM446 1622l273 107l125 -525l-178 -57z" />
<glyph unicode="&#x1f34;" horiz-adv-x="694" d="M123 379l108 627h363l-113 -605q-6 -33 -6.5 -56.5t6.5 -39t16 -24t29.5 -13t39 -5.5t50.5 -1l-26 -256q-79 -18 -172 -18q-200 0 -266 90t-29 301zM131 1493l137 233q101 -36 161 -103t60 -163q0 -81 -60.5 -179t-166.5 -155l-117 60q42 40 68 84.5t31.5 67.5t5.5 38 q0 69 -119 117zM487 1200l285 508l250 -113l-373 -483z" />
<glyph unicode="&#x1f35;" horiz-adv-x="694" d="M100 1368q0 66 28.5 125.5t76.5 103t105.5 75.5t121.5 52l53 -233q-96 -33 -131 -74t-35 -96q0 -74 46 -137l-142 -60q-59 39 -91 107t-32 137zM123 379q-37 -211 29 -301t266 -90q93 0 172 18l26 256q-32 0 -50.5 1t-39 5.5t-29.5 13t-16 24t-6.5 39t6.5 56.5l113 605 h-363zM438 1214l285 488l250 -113l-379 -477z" />
<glyph unicode="&#x1f36;" horiz-adv-x="694" d="M80 1708q63 115 132.5 168t158.5 53q46 0 143.5 -38t144.5 -38q42 0 79 15.5t87 62.5l117 -90q-44 -104 -123 -165.5t-166 -61.5q-53 0 -148.5 39t-135.5 39q-92 0 -168 -78zM123 379q-37 -211 29 -301t266 -90q93 0 172 18l26 256q-32 0 -50.5 1t-39 5.5t-29.5 13 t-16 24t-6.5 39t6.5 56.5l113 605h-363zM270 1399q65 -19 94 -40t29 -50q0 -64 -94 -146l119 -57q98 51 158.5 133.5t60.5 155.5q0 88 -60.5 135.5t-173.5 75.5z" />
<glyph unicode="&#x1f37;" horiz-adv-x="694" d="M78 1735q63 115 132.5 168t158.5 53q46 0 143.5 -38t144.5 -38q42 0 79 15.5t87 62.5l117 -90q-44 -104 -122.5 -166t-164.5 -62q-53 0 -149.5 39t-136.5 39q-92 0 -166 -78zM123 379q-37 -211 29 -301t266 -90q93 0 172 18l26 256q-32 0 -50.5 1t-39 5.5t-29.5 13 t-16 24t-6.5 39t6.5 56.5l113 605h-363zM242 1319q0 64 27.5 114.5t77 83t102 52.5t118.5 35l60 -207q-91 -23 -126.5 -51t-35.5 -74q0 -49 49 -111l-137 -57q-58 35 -96.5 96.5t-38.5 118.5z" />
<glyph unicode="&#x1f38;" horiz-adv-x="663" d="M-268 1249l135 234q102 -36 161.5 -102t59.5 -162q0 -50 -24 -111t-76.5 -123.5t-122.5 -101.5l-121 59q59 55 82.5 106.5t23.5 79.5q0 74 -118 121zM61 0l244 1386h375l-244 -1386h-375z" />
<glyph unicode="&#x1f39;" horiz-adv-x="663" d="M-256 1163q21 118 109 198.5t219 121.5l53 -234q-149 -51 -162 -137q-16 -86 41 -170l-139 -59q-69 45 -101.5 126.5t-19.5 153.5zM61 0l244 1386h375l-244 -1386h-375z" />
<glyph unicode="&#x1f3a;" horiz-adv-x="663" d="M-668 1233l136 233q102 -36 162.5 -102.5t60.5 -161.5q0 -80 -60.5 -179.5t-167.5 -156.5l-118 60q59 55 82.5 106.5t23.5 79.5q0 74 -119 121zM-276 1370l272 105l141 -517l-196 -79zM61 0l244 1386h375l-244 -1386h-375z" />
<glyph unicode="&#x1f3b;" horiz-adv-x="663" d="M-698 1114q0 67 28 126.5t76.5 103.5t106 76t122.5 53l54 -234q-94 -33 -130 -74t-36 -94q0 -75 45 -139l-141 -60q-59 40 -92 107t-33 135zM-272 1376l272 107l125 -525l-178 -57zM61 0l244 1386h375l-244 -1386h-375z" />
<glyph unicode="&#x1f3c;" horiz-adv-x="663" d="M-690 1233l137 233q101 -36 161 -103t60 -163q0 -81 -60.5 -179t-166.5 -155l-117 60q42 40 68 84.5t31.5 67.5t5.5 38q0 69 -119 117zM-334 940l285 508l250 -113l-373 -483zM61 0l244 1386h375l-244 -1386h-375z" />
<glyph unicode="&#x1f3d;" horiz-adv-x="663" d="M-678 1098q0 66 28.5 125.5t76.5 103t105.5 75.5t121.5 52l53 -233q-96 -33 -131 -74t-35 -96q0 -76 45 -138l-141 -59q-59 39 -91 107t-32 137zM-340 944l285 488l250 -113l-379 -477zM61 0l244 1386h375l-244 -1386h-375z" />
<glyph unicode="&#x1f3e;" horiz-adv-x="663" d="M-639 1284q63 115 132.5 168t158.5 53q46 0 144 -37.5t145 -37.5q42 0 78.5 15t86.5 62l117 -90q-44 -104 -123 -165.5t-166 -61.5q-53 0 -148.5 39t-135.5 39q-92 0 -168 -78zM-449 975q65 -19 94 -40t29 -50q0 -64 -94 -146l119 -57q98 51 158.5 133.5t60.5 155.5 q0 88 -60 135.5t-173 75.5zM61 0l244 1386h375l-244 -1386h-375z" />
<glyph unicode="&#x1f3f;" horiz-adv-x="663" d="M-666 1266q63 115 132.5 168t158.5 53q46 0 144 -38t145 -38q42 0 79 15.5t87 62.5l117 -90q-44 -104 -122.5 -166t-164.5 -62q-53 0 -150 39t-137 39q-92 0 -166 -78zM-502 850q0 64 27.5 114.5t77.5 83t102.5 52.5t118.5 35l59 -207q-91 -23 -126.5 -51t-35.5 -74 q0 -48 50 -111l-138 -57q-58 35 -96.5 96.5t-38.5 118.5zM61 0l244 1386h375l-244 -1386h-375z" />
<glyph unicode="&#x1f40;" horiz-adv-x="1255" d="M90 383q0 105 23 199t72.5 175.5t122 140.5t176 92.5t229.5 33.5q463 0 463 -418q0 -82 -16.5 -162t-60.5 -164.5t-111 -148t-176.5 -104.5t-248.5 -41q-473 0 -473 397zM444 395q0 -164 140 -164q97 0 167 97t70 278q0 166 -141 166q-111 0 -173.5 -105.5t-62.5 -271.5z M608 1485l135 233q102 -36 162 -102.5t60 -161.5q0 -50 -24.5 -111t-77 -123.5t-122.5 -101.5l-120 60q59 55 82.5 106.5t23.5 79.5q0 74 -119 121z" />
<glyph unicode="&#x1f41;" horiz-adv-x="1255" d="M90 383q0 105 23 199t72.5 175.5t122 140.5t176 92.5t229.5 33.5q463 0 463 -418q0 -82 -16.5 -162t-60.5 -164.5t-111 -148t-176.5 -104.5t-248.5 -41q-473 0 -473 397zM444 395q0 -164 140 -164q97 0 167 97t70 278q0 166 -141 166q-111 0 -173.5 -105.5t-62.5 -271.5z M596 1399q21 118 109 198t219 121l53 -233q-149 -51 -162 -137q-16 -86 41 -170l-139 -60q-69 45 -101.5 127t-19.5 154z" />
<glyph unicode="&#x1f42;" horiz-adv-x="1255" d="M90 383q0 105 23 199t72.5 175.5t122 140.5t176 92.5t229.5 33.5q463 0 463 -418q0 -82 -16.5 -162t-60.5 -164.5t-111 -148t-176.5 -104.5t-248.5 -41q-473 0 -473 397zM358 1477l136 233q102 -36 162.5 -102.5t60.5 -161.5q0 -80 -60.5 -179.5t-167.5 -156.5l-118 59 q59 55 82.5 107t23.5 80q0 74 -119 121zM444 395q0 -164 140 -164q97 0 167 97t70 278q0 166 -141 166q-111 0 -173.5 -105.5t-62.5 -271.5zM750 1614l272 104l141 -516l-196 -80z" />
<glyph unicode="&#x1f43;" horiz-adv-x="1255" d="M90 383q0 105 23 199t72.5 175.5t122 140.5t176 92.5t229.5 33.5q463 0 463 -418q0 -82 -16.5 -162t-60.5 -164.5t-111 -148t-176.5 -104.5t-248.5 -41q-473 0 -473 397zM346 1356q0 67 28.5 126.5t77 103t106 75.5t122.5 53l53 -233q-94 -33 -130 -74t-36 -94 q0 -75 45 -139l-141 -60q-59 40 -92 107t-33 135zM444 395q0 -164 140 -164q97 0 167 97t70 278q0 166 -141 166q-111 0 -173.5 -105.5t-62.5 -271.5zM772 1618l272 106l125 -524l-178 -57z" />
<glyph unicode="&#x1f44;" horiz-adv-x="1255" d="M90 383q0 105 23 199t72.5 175.5t122 140.5t176 92.5t229.5 33.5q463 0 463 -418q0 -82 -16.5 -162t-60.5 -164.5t-111 -148t-176.5 -104.5t-248.5 -41q-473 0 -473 397zM438 1493l137 233q102 -36 162 -103t60 -163q0 -80 -61 -178.5t-167 -155.5l-116 60 q42 40 67.5 84.5t31 67.5t5.5 38q0 69 -119 117zM444 395q0 -164 140 -164q97 0 167 97t70 278q0 166 -141 166q-111 0 -173.5 -105.5t-62.5 -271.5zM795 1200l284 508l250 -113l-373 -483z" />
<glyph unicode="&#x1f45;" horiz-adv-x="1255" d="M90 383q0 105 23 199t72.5 175.5t122 140.5t176 92.5t229.5 33.5q463 0 463 -418q0 -82 -16.5 -162t-60.5 -164.5t-111 -148t-176.5 -104.5t-248.5 -41q-473 0 -473 397zM420 1368q0 66 28.5 125.5t76.5 103t105.5 75.5t121.5 52l53 -233q-96 -33 -131 -74t-35 -96 q0 -75 45 -137l-141 -60q-59 39 -91 107t-32 137zM444 395q0 -164 140 -164q97 0 167 97t70 278q0 166 -141 166q-111 0 -173.5 -105.5t-62.5 -271.5zM758 1214l284 488l250 -113l-379 -477z" />
<glyph unicode="&#x1f48;" horiz-adv-x="1593" d="M-246 1219l135 233q102 -36 162 -102.5t60 -161.5q0 -50 -24.5 -111t-77 -123.5t-122.5 -101.5l-120 59q59 55 82.5 107t23.5 80q0 74 -119 121zM127 516q0 147 30.5 278.5t95 244t158 194t226.5 128t293 46.5q134 0 239.5 -32t173 -86t111.5 -130t62 -158.5t18 -177.5 q0 -78 -11 -155.5t-37.5 -161.5t-67 -158.5t-104 -142t-143.5 -116t-190.5 -77t-239.5 -28.5q-134 0 -239 26.5t-175 73t-115.5 114.5t-65 146t-19.5 172zM508 539q0 -281 254 -281q164 0 277.5 157.5t113.5 415.5q0 134 -58.5 214.5t-181.5 80.5q-85 0 -155.5 -38.5 t-115.5 -99.5t-76.5 -140t-44.5 -156.5t-13 -152.5z" />
<glyph unicode="&#x1f49;" horiz-adv-x="1593" d="M-252 1130q21 118 109 198.5t219 121.5l53 -233q-148 -51 -162 -138q-16 -86 41 -170l-139 -59q-69 45 -101.5 126.5t-19.5 153.5zM127 516q0 147 30.5 278.5t95 244t158 194t226.5 128t293 46.5q134 0 239.5 -32t173 -86t111.5 -130t62 -158.5t18 -177.5 q0 -78 -11 -155.5t-37.5 -161.5t-67 -158.5t-104 -142t-143.5 -116t-190.5 -77t-239.5 -28.5q-134 0 -239 26.5t-175 73t-115.5 114.5t-65 146t-19.5 172zM508 539q0 -281 254 -281q164 0 277.5 157.5t113.5 415.5q0 134 -58.5 214.5t-181.5 80.5q-85 0 -155.5 -38.5 t-115.5 -99.5t-76.5 -140t-44.5 -156.5t-13 -152.5z" />
<glyph unicode="&#x1f4a;" horiz-adv-x="1593" d="M-694 1202l135 234q102 -36 162.5 -103t60.5 -162q0 -80 -60 -179t-167 -156l-119 59q59 55 83 106.5t24 79.5q0 74 -119 121zM-303 1339l272 105l142 -516l-197 -80zM127 516q0 147 30.5 278.5t95 244t158 194t226.5 128t293 46.5q134 0 239.5 -32t173 -86t111.5 -130 t62 -158.5t18 -177.5q0 -78 -11 -155.5t-37.5 -161.5t-67 -158.5t-104 -142t-143.5 -116t-190.5 -77t-239.5 -28.5q-134 0 -239 26.5t-175 73t-115.5 114.5t-65 146t-19.5 172zM508 539q0 -281 254 -281q164 0 277.5 157.5t113.5 415.5q0 134 -58.5 214.5t-181.5 80.5 q-85 0 -155.5 -38.5t-115.5 -99.5t-76.5 -140t-44.5 -156.5t-13 -152.5z" />
<glyph unicode="&#x1f4b;" horiz-adv-x="1593" d="M-735 1096q0 67 28.5 126.5t77 103t106 75.5t122.5 53l53 -233q-94 -33 -130 -74t-36 -94q0 -76 45 -140l-141 -59q-59 40 -92 107t-33 135zM-309 1358l272 106l125 -524l-178 -57zM127 516q0 147 30.5 278.5t95 244t158 194t226.5 128t293 46.5q134 0 239.5 -32t173 -86 t111.5 -130t62 -158.5t18 -177.5q0 -78 -11 -155.5t-37.5 -161.5t-67 -158.5t-104 -142t-143.5 -116t-190.5 -77t-239.5 -28.5q-134 0 -239 26.5t-175 73t-115.5 114.5t-65 146t-19.5 172zM508 539q0 -281 254 -281q164 0 277.5 157.5t113.5 415.5q0 134 -58.5 214.5 t-181.5 80.5q-85 0 -155.5 -38.5t-115.5 -99.5t-76.5 -140t-44.5 -156.5t-13 -152.5z" />
<glyph unicode="&#x1f4c;" horiz-adv-x="1593" d="M-655 1239l137 234q101 -36 161 -103t60 -164q0 -81 -60.5 -179t-166.5 -155l-117 60q42 40 67.5 84.5t31 67.5t5.5 38q0 69 -118 117zM-299 946l285 508l250 -113l-373 -483zM127 516q0 147 30.5 278.5t95 244t158 194t226.5 128t293 46.5q134 0 239.5 -32t173 -86 t111.5 -130t62 -158.5t18 -177.5q0 -78 -11 -155.5t-37.5 -161.5t-67 -158.5t-104 -142t-143.5 -116t-190.5 -77t-239.5 -28.5q-134 0 -239 26.5t-175 73t-115.5 114.5t-65 146t-19.5 172zM508 539q0 -281 254 -281q164 0 277.5 157.5t113.5 415.5q0 134 -58.5 214.5 t-181.5 80.5q-85 0 -155.5 -38.5t-115.5 -99.5t-76.5 -140t-44.5 -156.5t-13 -152.5z" />
</font>
</defs>
</svg>
