<?xml version="1.0" standalone="no"?>
<!DOCTYPE svg PUBLIC "-//W3C//DTD SVG 1.1//EN" "http://www.w3.org/Graphics/SVG/1.1/DTD/svg11.dtd" >
<svg xmlns="http://www.w3.org/2000/svg" xmlns:xlink="http://www.w3.org/1999/xlink" version="1.1">
<metadata></metadata>
<defs>
<font id="pf_encore_sans_prohairline" horiz-adv-x="3723" >
<font-face units-per-em="2048" ascent="1536" descent="-512" />
<missing-glyph horiz-adv-x="512" />
<glyph unicode="fj" horiz-adv-x="864" d="M37 967v12h192v221q0 146 77 212.5t233 66.5q62 0 149 -11v-12q-79 10 -149 10q-150 0 -223.5 -63t-73.5 -203v-221h483v-1202q0 -108 -29.5 -152.5t-113.5 -44.5h-33v12h33q77 0 104 41.5t27 143.5v1190h-471v-967h-13v967h-192z" />
<glyph unicode="ffj" horiz-adv-x="1347" d="M37 967v12h176v211q0 159 60 224t200 65q59 0 117 -15l-2 -10q-55 12 -115 12q-137 0 -192.5 -61t-55.5 -215v-211h482v262q0 146 76.5 212.5t232.5 66.5q62 0 149 -11v-12q-79 10 -149 10q-150 0 -223.5 -63t-73.5 -203v-262h489v-1202q0 -108 -29.5 -152.5 t-113.5 -44.5h-33v12h33q77 0 104 41.5t27 143.5v1190h-477v-967h-12v967h-482v-967h-12v967h-176z" />
<glyph unicode="fb" horiz-adv-x="1628" d="M37 967v12h192v221q0 279 310 279q104 0 192 -13v-813q29 159 133 247.5t262 88.5q104 0 181.5 -36t125 -103t70.5 -156.5t23 -201.5q0 -113 -23.5 -203t-72 -157.5t-129.5 -103.5t-191 -36q-50 0 -94.5 8t-92 29.5t-84.5 55.5t-66 89t-42 127v-301h-12v1454 q-79 12 -180 12q-297 0 -297 -266v-221h317v-12h-317v-967h-13v967h-192zM731 434q0 -106 25 -186t63 -125.5t91 -73t100 -36.5t100 -9q108 0 187 35.5t125.5 101.5t68.5 153t22 198q0 226 -93.5 355.5t-293.5 129.5q-61 0 -116.5 -14.5t-107 -49t-89 -86t-60 -129.5 t-22.5 -176v-88z" />
<glyph unicode="ffb" horiz-adv-x="2091" d="M37 967v12h176v211q0 159 60 224t200 65q59 0 117 -15l-2 -10q-55 12 -115 12q-137 0 -192.5 -61t-55.5 -215v-211h467v262q0 279 309 279q105 0 193 -13v-854q29 159 133 247.5t262 88.5q104 0 181.5 -36t125 -103t70.5 -156.5t23 -201.5q0 -113 -23.5 -203t-72 -157.5 t-129.5 -103.5t-191 -36q-50 0 -94.5 8t-92 29.5t-84.5 55.5t-66 89t-42 127v-301h-12v1495q-79 12 -181 12q-296 0 -296 -266v-262h317v-12h-317v-967h-13v967h-467v-967h-12v967h-176zM1194 434q0 -106 25 -186t63 -125.5t91 -73t100 -36.5t100 -9q108 0 187 35.5 t125.5 101.5t68.5 153t22 198q0 226 -93.5 355.5t-293.5 129.5q-61 0 -116.5 -14.5t-107 -49t-89 -86t-60 -129.5t-22.5 -176v-88z" />
<glyph unicode="fh" horiz-adv-x="1593" d="M37 967v12h192v221q0 279 310 279q104 0 192 -13v-800q15 74 47.5 133t72 93.5t86.5 57.5t86.5 31t76.5 8q88 0 154.5 -22t107 -58t65.5 -90.5t34 -112.5t9 -131v-575h-12v575q0 70 -8.5 126t-32.5 109.5t-63 88.5t-103.5 56.5t-150.5 21.5q-39 0 -82 -9.5t-96 -40 t-94 -77.5t-69 -130.5t-28 -191.5v-528h-12v1454q-79 12 -180 12q-297 0 -297 -266v-221h317v-12h-317v-967h-13v967h-192z" />
<glyph unicode="ffh" horiz-adv-x="2056" d="M37 967v12h176v211q0 159 60 224t200 65q59 0 117 -15l-2 -10q-55 12 -115 12q-137 0 -192.5 -61t-55.5 -215v-211h467v262q0 279 309 279q105 0 193 -13v-841q15 74 47.5 133t72 93.5t86.5 57.5t86.5 31t76.5 8q88 0 154.5 -22t107 -58t65.5 -90.5t34 -112.5t9 -131 v-575h-12v575q0 70 -8.5 126t-32.5 109.5t-63 88.5t-103.5 56.5t-150.5 21.5q-39 0 -82 -9.5t-96 -40t-94 -77.5t-69 -130.5t-28 -191.5v-528h-12v1495q-79 12 -181 12q-296 0 -296 -266v-262h317v-12h-317v-967h-13v967h-467v-967h-12v967h-176z" />
<glyph unicode="fk" horiz-adv-x="1439" d="M37 967v12h192v221q0 279 310 279q104 0 192 -13v-919h311l359 432h14l-362 -438l370 -541h-16l-365 535h-311v-535h-12v1454q-79 12 -180 12q-297 0 -297 -266v-221h317v-12h-317v-967h-13v967h-192z" />
<glyph unicode="ffk" horiz-adv-x="1902" d="M37 967v12h176v211q0 159 60 224t200 65q59 0 117 -15l-2 -10q-55 12 -115 12q-137 0 -192.5 -61t-55.5 -215v-211h467v262q0 279 309 279q105 0 193 -13v-960h311l359 432h14l-362 -438l370 -541h-16l-365 535h-311v-535h-12v1495q-79 12 -181 12q-296 0 -296 -266v-262 h317v-12h-317v-967h-13v967h-467v-967h-12v967h-176z" />
<glyph unicode="ry" horiz-adv-x="1263" d="M156 0v979h12v-313q15 74 46.5 132.5t69 92.5t83.5 57t84.5 31.5t76.5 9.5l351 -983h47l350 973h14l-409 -1135q-12 -33 -16.5 -45.5t-16.5 -41.5t-20 -42t-22.5 -36t-27 -34t-32 -26t-40 -22t-47.5 -12t-57 -5h-76v12h76q130 0 196 100q27 41 70 156l54 148h-52 l-352 979q-41 -2 -82 -13t-91 -42.5t-88 -78.5t-63.5 -128.5t-25.5 -186.5v-526h-12z" />
<glyph unicode="ff" horiz-adv-x="1089" d="M37 967v12h176v211q0 159 60 224t200 65q59 0 117 -15l-2 -10q-55 12 -115 12q-137 0 -192.5 -61t-55.5 -215v-211h488v252q0 160 59 224.5t201 64.5q59 0 117 -15l-3 -10q-55 12 -114 12q-137 0 -192.5 -61t-55.5 -215v-252h342v-12h-342v-967h-12v967h-488v-967h-12 v967h-176z" />
<glyph unicode="fi" horiz-adv-x="864" d="M37 967v12h192v221q0 146 77 212.5t233 66.5q62 0 149 -11v-12q-79 10 -149 10q-150 0 -223.5 -63t-73.5 -203v-221h483v-979h-12v967h-471v-967h-13v967h-192z" />
<glyph unicode="fl" horiz-adv-x="874" d="M37 967v12h192v221q0 279 310 279q104 0 192 -13v-1462h-12v1450q-79 12 -180 12q-297 0 -297 -266v-221h317v-12h-317v-967h-13v967h-192z" />
<glyph unicode="ffi" horiz-adv-x="1347" d="M37 967v12h176v211q0 159 60 224t200 65q59 0 117 -15l-2 -10q-55 12 -115 12q-137 0 -192.5 -61t-55.5 -215v-211h482v262q0 146 76.5 212.5t232.5 66.5q62 0 149 -11v-12q-79 10 -149 10q-150 0 -223.5 -63t-73.5 -203v-262h489v-979h-12v967h-477v-967h-12v967h-482 v-967h-12v967h-176z" />
<glyph unicode="ffl" horiz-adv-x="1337" d="M37 967v12h176v211q0 159 60 224t200 65q59 0 117 -15l-2 -10q-55 12 -115 12q-137 0 -192.5 -61t-55.5 -215v-211h467v262q0 279 309 279q105 0 193 -13v-1503h-12v1491q-79 12 -181 12q-296 0 -296 -266v-262h317v-12h-317v-967h-13v967h-467v-967h-12v967h-176z" />
<glyph unicode="ft" horiz-adv-x="1060" d="M37 967v12h176v211q0 159 60 224t200 65q59 0 117 -15l-2 -10q-55 12 -115 12q-137 0 -192.5 -61t-55.5 -215v-211h465v268h12v-268h314v-12h-314v-691q0 -155 62 -213.5t199 -58.5q39 0 98 6v-12q-59 -6 -98 -6q-143 0 -208 61.5t-65 222.5v691h-465v-967h-12v967h-176z " />
<glyph unicode=" "  horiz-adv-x="512" />
<glyph unicode="&#x09;" horiz-adv-x="512" />
<glyph unicode="&#xa0;" horiz-adv-x="512" />
<glyph unicode="!" horiz-adv-x="448" d="M199 16q0 9 5 15t13 6q9 0 15 -6t6 -15q0 -8 -6 -13t-15 -5q-7 0 -12.5 5t-5.5 13zM213 1423h18l-4 -1200h-12z" />
<glyph unicode="&#x22;" horiz-adv-x="489" d="M164 1380h16l-4 -413h-10zM309 1380h17l-4 -413h-11z" />
<glyph unicode="#" horiz-adv-x="1116" d="M29 473v12h266l70 406h-273v12h275l75 438h13l-76 -438h418l75 438h13l-76 -438h276v-12h-278l-70 -406h275v-12h-277l-80 -473h-12l80 473h-418l-80 -473h-12l80 473h-264zM307 485h418l70 406h-418z" />
<glyph unicode="$" horiz-adv-x="1116" d="M76 369q0 15 4 39h12q-4 -28 -4 -39q0 -161 117 -263t346 -102h8v737q-89 14 -147 27t-114.5 36t-88.5 53.5t-51 77t-19 109.5q0 135 107 227t313 95v129h12v-129q110 -1 194.5 -28.5t133.5 -73.5t73.5 -100.5t24.5 -114.5q0 -19 -2 -33h-12q2 12 2 31q0 59 -23.5 112 t-71.5 97.5t-130 70.5t-189 27v-602q476 -53 476 -377q0 -72 -25.5 -136t-79 -120t-149 -90t-222.5 -37v-166h-12v166h-8q-235 0 -355 104.5t-120 272.5zM152 1044q0 -51 12 -91t39 -68.5t57.5 -48.5t82.5 -35.5t98 -25t118 -21.5v600q-200 -3 -303.5 -92t-103.5 -218z M571 4q124 2 217 34.5t145 87t76.5 116.5t24.5 133q0 158 -118.5 249t-344.5 115v-735z" />
<glyph unicode="%" horiz-adv-x="1556" d="M55 991q0 190 80 299t254 109q94 0 161 -33t103 -92t52 -127.5t16 -153.5q0 -78 -18 -146t-55.5 -125.5t-103.5 -90.5t-155 -33q-334 0 -334 393zM68 991q0 -381 321 -381q86 0 150 32.5t100 88.5t53 121.5t17 140.5q0 64 -9 119t-31.5 106.5t-58 88t-92 58t-129.5 21.5 q-168 0 -244.5 -105.5t-76.5 -289.5zM348 -59l854 1501l12 -4l-854 -1501zM836 383q0 191 79.5 299.5t253.5 108.5q94 0 161 -33t103 -92t52 -127.5t16 -153.5q0 -78 -18 -146t-55.5 -125.5t-103.5 -90.5t-155 -33q-333 0 -333 393zM848 383q0 -381 321 -381q86 0 150 32.5 t100 88.5t53 121.5t17 140.5q0 64 -9 119t-31.5 106.5t-58 88t-92 58t-129.5 21.5q-168 0 -244.5 -105.5t-76.5 -289.5z" />
<glyph unicode="&#x26;" horiz-adv-x="1501" d="M102 332q0 60 21.5 117t51.5 100t82.5 91.5t93.5 80t106 76.5q40 28 52 36.5t47 34.5t47.5 37.5t40.5 36.5t39 40t29 39.5t25 45t13 45.5t6 51q0 95 -59.5 155t-166.5 60q-68 0 -117.5 -24.5t-74 -64t-35 -77t-10.5 -75.5q0 -132 100 -300.5t258 -328.5t336 -302 t352 -249l-6 -10q-137 84 -280.5 192t-282.5 237.5t-247.5 258.5t-175 261.5t-66.5 240.5q0 39 11.5 79t37 81.5t77.5 67.5t123 26q114 0 176 -63t62 -165q0 -46 -18 -90t-42 -77.5t-69.5 -74t-80 -66t-93.5 -67.5q-51 -36 -74 -53t-68.5 -53t-68 -59.5t-54 -61t-47 -70 t-27 -74t-11.5 -85.5q0 -89 36 -154t102 -101.5t146.5 -53.5t180.5 -17q141 0 265 37t216.5 103t159.5 153t101 189t34 210q0 79 -21 148t-71.5 131t-126.5 102l6 11q79 -41 130.5 -105t73 -134.5t21.5 -152.5q0 -109 -34.5 -212.5t-102.5 -192t-161.5 -155.5t-220 -105.5 t-269.5 -38.5q-81 0 -150.5 10.5t-131 35.5t-104 63t-67.5 96.5t-25 132.5z" />
<glyph unicode="'" horiz-adv-x="344" d="M164 1380h16l-4 -413h-10z" />
<glyph unicode="(" horiz-adv-x="540" d="M117 588q0 256 89 467.5t255 410.5l8 -6q-162 -196 -251 -407.5t-89 -464.5q0 -225 89 -444t231 -400l-9 -8q-145 183 -234 403t-89 449z" />
<glyph unicode=")" horiz-adv-x="540" d="M55 1460l8 6q166 -199 255.5 -410.5t89.5 -467.5q0 -229 -89.5 -448.5t-234.5 -403.5l-8 8q142 180 230.5 399t88.5 445q0 253 -89 464.5t-251 407.5z" />
<glyph unicode="*" horiz-adv-x="815" d="M143 1157l9 21l251 -91l-2 275h21l-8 -275l252 89l6 -19l-256 -82l170 -217l-19 -12l-159 223l-162 -221l-19 12l172 215z" />
<glyph unicode="+" horiz-adv-x="1116" d="M195 559v14h356v371h14v-371h355v-14h-355v-348h-14v348h-356z" />
<glyph unicode="," horiz-adv-x="280" d="M76 -193l69 183q-11 0 -19.5 7t-8.5 19q0 11 8 19t18 8q11 0 19 -7.5t8 -17.5t-6 -22l-80 -193z" />
<glyph unicode="-" horiz-adv-x="917" d="M211 506v18h496v-18h-496z" />
<glyph unicode="." horiz-adv-x="286" d="M117 16q0 11 8 19t18 8q11 0 19 -8.5t8 -18.5t-8 -18t-19 -8t-18.5 8t-7.5 18z" />
<glyph unicode="/" horiz-adv-x="958" d="M2 -94l936 1577h14l-934 -1577h-16z" />
<glyph unicode="0" horiz-adv-x="1116" d="M63 655q0 121 16 222t52.5 188t93 147.5t141.5 94.5t193 34q103 0 186 -33.5t140 -93.5t95 -146t55.5 -188t17.5 -223q0 -316 -131.5 -490.5t-362.5 -174.5q-496 0 -496 663zM76 655q0 -324 119 -487.5t364 -163.5q224 0 352.5 171.5t128.5 481.5q0 149 -27.5 269 t-83.5 211.5t-150 141.5t-220 50q-131 0 -226.5 -50.5t-150.5 -144t-80.5 -212t-25.5 -267.5z" />
<glyph unicode="1" horiz-adv-x="1116" d="M180 0v12h383v1299l-340 -54v13l340 53h12v-1311h359v-12h-754z" />
<glyph unicode="2" horiz-adv-x="1116" d="M100 0v16q0 65 13 121t43 106.5t66 92t96 89t118 87t146 94.5q67 42 117 76t103.5 79t87 86t55.5 90.5t22 98.5q0 134 -96 213.5t-285 79.5q-116 0 -204.5 -30.5t-138.5 -81t-73 -110t-18 -122.5h-13q-5 65 19 126t75.5 113.5t142.5 84.5t210 32q195 0 294 -82.5 t99 -222.5q0 -51 -22.5 -102t-57 -93t-88 -87.5t-103.5 -80t-116 -75.5q-58 -36 -91.5 -57.5t-82.5 -54.5t-77 -55.5t-64.5 -55.5t-57.5 -60.5t-44 -63.5t-34.5 -71.5t-19.5 -78t-8 -89.5h903v-12h-916z" />
<glyph unicode="3" horiz-adv-x="1116" d="M102 393h13q-9 -80 13 -150t73.5 -123.5t139 -84.5t200.5 -31q218 0 340.5 112.5t122.5 295.5q0 93 -39 166.5t-104 117.5t-143 67t-163 23q-53 0 -90 -6l-6 11l528 520h-797v12h814v-12l-525 -516q27 4 76 4q68 0 133.5 -14.5t125 -45.5t104.5 -75.5t71.5 -109.5 t26.5 -142q0 -187 -126 -303.5t-349 -116.5q-116 0 -206 31.5t-143 87t-76 127.5t-14 155z" />
<glyph unicode="4" horiz-adv-x="1116" d="M41 379v12q126 152 392.5 465t393.5 467h13v-932h235v-12h-235v-379h-13v379h-786zM57 391h770v916z" />
<glyph unicode="5" horiz-adv-x="1116" d="M104 399h13q-11 -81 10 -152t71.5 -125.5t138 -86t202.5 -31.5q219 0 340.5 117t121.5 301q0 110 -39.5 192.5t-108 129.5t-150.5 69.5t-177 22.5q-147 0 -305 -48l-10 5l78 530h647v-12h-635l-76 -508q155 45 301 45q98 0 182.5 -23.5t154.5 -71.5t110.5 -133t40.5 -198 q0 -190 -125 -310t-350 -120q-119 0 -209 32.5t-142 88.5t-73.5 129t-10.5 157z" />
<glyph unicode="6" horiz-adv-x="1116" d="M100 586q0 115 15 218t52 203.5t94.5 172.5t148.5 116.5t206 44.5q73 0 139.5 -18.5t123 -55.5t87.5 -103.5t25 -153.5h-12q5 66 -13 120.5t-53 91t-84 61t-102 35.5t-111 11q-113 0 -202 -43.5t-144.5 -114.5t-91.5 -169.5t-50.5 -200t-14.5 -215.5q0 -106 10 -191 q2 101 40.5 185t100.5 138t140.5 83.5t162.5 29.5q203 0 325 -107.5t122 -299.5t-121 -312t-334 -120q-174 0 -289 88q-87 65 -128.5 186.5t-41.5 319.5zM135 399q0 -171 112.5 -283t311.5 -112q207 0 324.5 117t117.5 303t-118.5 290.5t-315.5 104.5q-180 0 -306 -120.5 t-126 -299.5z" />
<glyph unicode="7" horiz-adv-x="1116" d="M125 1311v12h866v-12l-649 -1311h-14l649 1311h-852z" />
<glyph unicode="8" horiz-adv-x="1116" d="M104 334q0 36 8.5 74t35.5 86.5t70 89.5t120.5 77t177.5 54q-356 67 -356 319q0 56 24.5 109.5t71.5 98t125 72t176 27.5q104 0 184.5 -26.5t127 -70.5t69.5 -96.5t23 -109.5q0 -27 -7.5 -58t-31 -72.5t-60.5 -77t-103.5 -67.5t-152.5 -48q76 -11 139 -33t104 -49 t71.5 -61t47.5 -65t27 -65.5t12.5 -57.5t2.5 -46q0 -67 -29 -128.5t-83.5 -110.5t-142.5 -78t-198 -29q-214 0 -333.5 90.5t-119.5 251.5zM117 330q0 -69 24 -124.5t65 -92.5t97.5 -62t119.5 -36t134 -11q123 0 222 38.5t158.5 115.5t59.5 180q0 150 -107.5 249.5 t-330.5 121.5q-207 -26 -324.5 -127t-117.5 -252zM172 1034q0 -255 385 -315q190 25 290.5 113t100.5 204q0 140 -108.5 216.5t-282.5 76.5q-163 0 -274 -81t-111 -214z" />
<glyph unicode="9" horiz-adv-x="1116" d="M104 903q0 121 47 217t148 157t244 64q308 0 413 -239q53 -119 56 -346v-39q0 -725 -500 -725q-185 0 -288 93.5t-83 250.5h13q-21 -147 76.5 -239.5t283.5 -92.5q485 0 485 713q0 149 -10 223q-1 -93 -38.5 -171.5t-99 -130.5t-139 -81t-159.5 -31q-203 0 -326 97.5 t-123 279.5zM117 911q0 -181 116 -276.5t320 -95.5q177 3 300.5 116.5t123.5 280.5q0 78 -27.5 148t-79 125t-134 87.5t-185.5 32.5q-104 0 -187.5 -33.5t-137 -91.5t-81.5 -133t-28 -160z" />
<glyph unicode=":" horiz-adv-x="286" d="M117 16q0 11 8 19t18 8q11 0 19 -8.5t8 -18.5t-8 -18t-19 -8t-18.5 8t-7.5 18zM117 743q0 11 8 19t18 8q11 0 19 -8t8 -19q0 -10 -8 -18t-19 -8t-18.5 7.5t-7.5 18.5z" />
<glyph unicode=";" horiz-adv-x="286" d="M76 -193l69 183q-11 0 -19.5 7t-8.5 19q0 11 8 19t18 8q11 0 19 -7.5t8 -17.5t-6 -22l-80 -193zM117 743q0 11 8 19t18 8q11 0 19 -8t8 -19q0 -10 -8 -18t-19 -8t-18.5 7.5t-7.5 18.5z" />
<glyph unicode="&#x3c;" horiz-adv-x="1116" d="M190 551v12l734 361v-15l-717 -352l717 -352v-15z" />
<glyph unicode="=" horiz-adv-x="1116" d="M195 393v15h725v-15h-725zM195 700v15h725v-15h-725z" />
<glyph unicode="&#x3e;" horiz-adv-x="1116" d="M190 190v15l717 352l-717 352v15l734 -361v-12z" />
<glyph unicode="?" horiz-adv-x="1114" d="M180 1081q-4 53 5 101.5t36.5 94.5t72 80t115.5 54.5t162 20.5q189 0 278 -79.5t89 -209.5q0 -47 -14 -89t-43.5 -81t-55 -66t-69.5 -67q-45 -41 -73.5 -70t-64 -75.5t-55.5 -90t-34.5 -104t-14.5 -127.5v-154h-12v154q0 60 9 112t29.5 97.5t39.5 78.5t53.5 71.5t55 58.5 t59.5 57q40 39 55 53.5t45.5 49.5t43 59t23.5 60t11 73q0 125 -84.5 200.5t-270.5 75.5q-88 0 -156.5 -19.5t-111 -52t-69.5 -77t-36 -91.5t-5 -98h-13zM485 16q0 9 5.5 15t13.5 6q20 0 20 -21q0 -18 -20 -18q-8 0 -13.5 5.5t-5.5 12.5z" />
<glyph unicode="@" horiz-adv-x="1699" d="M160 657q0 204 97 367.5t259 252.5t356 89q129 0 247 -39.5t211.5 -113.5t149.5 -192t56 -263q0 -222 -77.5 -333.5t-207.5 -111.5q-75 0 -118 44.5t-43 117.5v60q-23 -78 -82 -136t-125 -84t-129 -26q-104 0 -170 49.5t-66 148.5q0 107 88.5 178.5t261.5 71.5 q105 0 222 -24v86q0 235 -267 235q-46 0 -90.5 -11t-85 -34t-64 -64.5t-20.5 -95.5h-12q-3 57 21.5 101t66.5 68.5t89 36.5t95 12q279 0 279 -248v-324q0 -67 40 -108t109 -41q124 0 198.5 108t74.5 324q0 115 -36 212.5t-98.5 167.5t-145.5 119t-177.5 73t-194.5 24 q-142 0 -270 -52t-223 -142.5t-151 -221.5t-56 -281q0 -222 88 -382.5t246.5 -242t370.5 -81.5q228 0 419 74l4 -13q-188 -73 -423 -73q-216 0 -377 83t-250.5 246t-89.5 389zM530 487q0 -93 63 -139.5t161 -46.5q59 0 118.5 23.5t108 64t79 101.5t30.5 131v79 q-122 25 -222 25q-167 0 -252.5 -68.5t-85.5 -169.5z" />
<glyph unicode="A" horiz-adv-x="1120" d="M31 0l518 1378h16l527 -1378h-15l-149 389h-738l-147 -389h-12zM195 401h729l-367 965z" />
<glyph unicode="B" horiz-adv-x="1232" d="M143 0v1378h535q191 0 297 -88t106 -237q0 -50 -17 -102t-49.5 -100t-88 -83t-125.5 -45q66 -8 120.5 -33.5t91.5 -61t62.5 -79.5t37 -88.5t11.5 -89.5q0 -57 -12 -108t-43 -100t-78.5 -84.5t-123.5 -57t-173 -21.5h-551zM156 12h538q95 0 169 20.5t120 54.5t76 82 t41.5 97t11.5 105q0 65 -22.5 124.5t-67 110t-121 81t-174.5 30.5h-571v-705zM156 727h585q101 0 177.5 49t113.5 122.5t37 154.5q0 141 -101.5 227t-289.5 86h-522v-639z" />
<glyph unicode="C" horiz-adv-x="1226" d="M123 678q0 161 31 288.5t96 224t173 148.5t253 52q66 0 130 -13.5t122 -43t100 -72t63 -104.5q15 -45 15 -98q0 -20 -2 -40h-12q2 20 2 40q0 50 -14 93q-20 61 -61 101.5t-98 69t-118.5 41.5t-126.5 13q-115 0 -206 -33.5t-153.5 -94.5t-103.5 -149t-59.5 -192.5 t-18.5 -230.5q0 -124 15.5 -223t52.5 -185t96 -143.5t150 -90t210 -32.5q237 0 357 111q105 98 106 239q0 19 -2 39h13q2 -20 2 -39q1 -147 -109 -248q-124 -114 -367 -114q-122 0 -214.5 33t-153 91t-98.5 145.5t-54 188.5t-16 228z" />
<glyph unicode="D" horiz-adv-x="1253" d="M143 0v1378h387q80 0 157.5 -16.5t164 -63t150.5 -119.5t106.5 -197.5t42.5 -285.5q0 -118 -22.5 -217t-59.5 -169t-88.5 -125.5t-107 -89.5t-117.5 -56t-116.5 -30.5t-107.5 -8.5h-389zM156 12h376q76 0 152 17t160 64.5t147.5 121t105.5 198t42 283.5q0 158 -41.5 281 t-104.5 194.5t-147.5 117t-160.5 61.5t-155 16h-374v-1354z" />
<glyph unicode="E" horiz-adv-x="1064" d="M143 0v1378h815v-12h-802v-651h749v-13h-749v-690h852v-12h-865z" />
<glyph unicode="F" horiz-adv-x="1017" d="M143 0v1378h836v-12h-823v-661h749v-13h-749v-692h-13z" />
<glyph unicode="G" horiz-adv-x="1259" d="M123 678q0 160 32 289t96 224.5t167.5 147.5t240.5 52q120 0 210 -31.5t139 -84.5t71 -114q18 -50 18 -103q0 -12 -1 -24h-13q1 13 1 25q0 38 -9 74q-12 48 -43.5 93t-79.5 78.5t-123.5 53.5t-169.5 20q-135 0 -237 -51t-164 -145t-92.5 -220t-30.5 -284 q0 -346 129.5 -510t392.5 -164q83 0 152.5 17t117.5 45t84.5 67.5t58 80.5t35.5 89t18.5 88.5t4.5 81.5v186h-407v11h420v-197q0 -62 -10 -120t-41.5 -126.5t-82 -118t-141 -83t-209.5 -33.5q-268 0 -401 167.5t-133 518.5z" />
<glyph unicode="H" horiz-adv-x="1294" d="M143 0v1378h13v-663h983v663h12v-1378h-12v702h-983v-702h-13z" />
<glyph unicode="I" horiz-adv-x="380" d="M184 0v1378h13v-1378h-13z" />
<glyph unicode="J" horiz-adv-x="1067" d="M43 342h12q-1 -13 -1 -25q0 -50 16 -95q19 -56 65 -104.5t131 -77t199 -28.5q207 0 316.5 111t109.5 305v950h12v-950q0 -200 -112.5 -314t-325.5 -114q-117 0 -204.5 30t-134.5 80.5t-68 109.5q-16 45 -16 94q0 14 1 28z" />
<glyph unicode="K" horiz-adv-x="1083" d="M143 0v1378h13v-661h376l496 661h14l-499 -667l520 -711h-14l-517 705h-376v-705h-13z" />
<glyph unicode="L" horiz-adv-x="1054" d="M143 0v1378h13v-1366h868v-12h-881z" />
<glyph unicode="M" horiz-adv-x="1583" d="M143 0v1378h11l630 -1142l643 1142h13v-1378h-13v1354l-639 -1137h-8l-624 1135v-1352h-13z" />
<glyph unicode="N" horiz-adv-x="1302" d="M143 0v1378h13l991 -1358v1358h12v-1378h-12l-991 1360v-1360h-13z" />
<glyph unicode="O" horiz-adv-x="1341" d="M123 684q0 122 18.5 225.5t61 193.5t106 153t157.5 99t212 36q117 0 209 -34.5t154 -96t102.5 -151t58 -194t17.5 -229.5q0 -340 -149 -517t-411 -177q-275 0 -405.5 169.5t-130.5 522.5zM135 684q0 -346 128 -513t396 -167q256 0 401.5 174.5t145.5 507.5q0 123 -17 225 t-56.5 190t-99.5 148.5t-150 94.5t-205 34q-116 0 -208 -35.5t-154 -97.5t-103 -150t-59.5 -190t-18.5 -221z" />
<glyph unicode="P" horiz-adv-x="1120" d="M143 0v1378h488q205 0 321.5 -120t116.5 -306q0 -58 -11.5 -111.5t-42.5 -109.5t-78.5 -97t-126 -67t-179.5 -26h-475v-541h-13zM156 553h475q98 0 175 25t123 65t76 94t41 106.5t11 108.5q0 179 -114 296.5t-312 117.5h-475v-813z" />
<glyph unicode="Q" horiz-adv-x="1341" d="M123 684q0 122 18.5 225.5t61 193.5t106 153t157.5 99t212 36q117 0 209 -34.5t154 -96t102.5 -151t58 -194t17.5 -229.5q0 -334 -143 -511t-396 -183q178 -93 420 -168l-6 -14q-280 91 -437 182q-273 0 -403.5 169.5t-130.5 522.5zM135 684q0 -346 128 -513t396 -167 q256 0 401.5 174.5t145.5 507.5q0 123 -17 225t-56.5 190t-99.5 148.5t-150 94.5t-205 34q-116 0 -208 -35.5t-154 -97.5t-103 -150t-59.5 -190t-18.5 -221z" />
<glyph unicode="R" horiz-adv-x="1099" d="M143 0v1378h469q205 0 321 -106t116 -287q0 -54 -11.5 -104.5t-42.5 -102t-79 -89t-126.5 -61.5t-179.5 -24h-63l469 -604h-15l-469 604h-376v-604h-13zM156 616h456q97 0 172 22t121.5 57.5t77 85t42 99t11.5 105.5q0 175 -112.5 278t-311.5 103h-456v-750z" />
<glyph unicode="S" horiz-adv-x="1189" d="M102 377q0 15 4 39h13q-4 -28 -4 -39q0 -165 119 -270t352 -105q107 0 193 22t141 58.5t92 87t52 103t15 110.5q0 159 -106 247t-314 118q-76 11 -125.5 19t-106.5 21.5t-92.5 29t-71 38.5t-54.5 52t-31 68.5t-12 88.5q0 139 111.5 233.5t326.5 94.5q91 0 165.5 -18.5 t124.5 -49.5t84 -73t49 -88t15 -95q0 -19 -2 -33h-12q2 12 2 31q0 61 -24.5 115.5t-73.5 100t-133.5 72.5t-194.5 27q-107 0 -190.5 -26t-134 -71t-76 -101t-25.5 -119q0 -34 5 -63t17.5 -52.5t26 -43t37.5 -35.5t44.5 -28t56 -23t62 -18.5t71.5 -15.5t76.5 -13t84.5 -13 q213 -32 323 -121t110 -256q0 -59 -16 -113t-53.5 -105.5t-94 -89t-144.5 -60.5t-198 -23q-239 0 -361.5 107t-122.5 278z" />
<glyph unicode="T" horiz-adv-x="1060" d="M20 1366v12h1020v-12h-499v-1366h-13v1366h-508z" />
<glyph unicode="U" horiz-adv-x="1327" d="M143 573v805h13v-805q0 -135 25.5 -235.5t83 -177.5t158 -116.5t243.5 -39.5q134 0 233 42.5t157.5 121t86.5 180t28 227.5v803h13v-803q0 -129 -29 -232.5t-89.5 -183.5t-162 -123.5t-237.5 -43.5q-117 0 -206.5 27t-149 75.5t-97.5 121.5t-54 160t-16 197z" />
<glyph unicode="V" horiz-adv-x="1130" d="M20 1378h15l526 -1360l535 1360h14l-545 -1378h-10z" />
<glyph unicode="W" horiz-adv-x="1759" d="M20 1378h15l385 -1360l454 1360h13l452 -1360l385 1360h15l-393 -1378h-11l-454 1360l-457 -1360h-10z" />
<glyph unicode="X" horiz-adv-x="1097" d="M27 0l514 713l-475 665h14l469 -655l471 655h14l-479 -663l512 -715h-14l-506 705l-508 -705h-12z" />
<glyph unicode="Y" horiz-adv-x="993" d="M16 1378h15l458 -776l474 776h14l-481 -790v-588h-13v588z" />
<glyph unicode="Z" horiz-adv-x="1019" d="M20 0v12l932 1354h-884v12h899v-12l-930 -1354h962v-12h-979z" />
<glyph unicode="[" horiz-adv-x="530" d="M184 -254v1708h244v-12h-231v-1684h231v-12h-244z" />
<glyph unicode="\" horiz-adv-x="958" d="M2 1483h14l936 -1577h-16z" />
<glyph unicode="]" horiz-adv-x="530" d="M98 -242h232v1684h-232v12h244v-1708h-244v12z" />
<glyph unicode="^" horiz-adv-x="1171" d="M178 569l408 803h16l408 -803h-15l-401 791q-67 -132 -201 -395.5t-200 -395.5h-15z" />
<glyph unicode="_" horiz-adv-x="1024" d="M0 -164h1024v-14h-1024v14z" />
<glyph unicode="`" horiz-adv-x="960" d="M504 1378l14 13l215 -252l-8 -6z" />
<glyph unicode="a" horiz-adv-x="960" d="M92 256q0 68 28 127t83 106t147.5 74t212.5 27q105 0 266 -31v96q0 32 -2 57t-9.5 60t-20.5 61.5t-37.5 55t-57.5 46.5t-84 30t-114 12q-85 0 -149.5 -21.5t-98.5 -57.5q-34 -34 -50 -76q-13 -35 -14 -72q0 -7 1 -15h-13q-1 9 -1 18q0 35 13 71q16 44 52.5 81.5 t103.5 60.5t156 23q90 0 155.5 -23.5t100 -56.5t54 -82.5t24 -87t4.5 -84.5v-655h-13v258q-35 -118 -140 -192t-279 -74q-139 0 -228.5 65t-89.5 199zM104 256q0 -128 86.5 -190t219.5 -62q196 0 307.5 99t111.5 259v185q-164 31 -266 31q-117 0 -207 -26.5t-144 -72 t-81 -102t-27 -121.5z" />
<glyph unicode="b" horiz-adv-x="1032" d="M123 0v1470h12v-817q29 159 133 247.5t262 88.5q104 0 181.5 -36t125 -103t70.5 -156.5t23 -201.5q0 -113 -23.5 -203t-72 -157.5t-129.5 -103.5t-191 -36q-50 0 -94.5 8t-92 29.5t-84.5 55.5t-66 89t-42 127v-301h-12zM135 434q0 -106 25 -186t63 -125.5t91 -73 t100 -36.5t100 -9q108 0 187 35.5t126 101.5t69 153t22 198q0 226 -94 355.5t-294 129.5q-61 0 -116.5 -14.5t-107 -49t-89 -86t-60 -129.5t-22.5 -176v-88z" />
<glyph unicode="c" horiz-adv-x="917" d="M102 481q0 100 21.5 187t67.5 161t127.5 117t191.5 43q64 0 119.5 -11.5t107.5 -38t80 -78.5q24 -44 23 -103v-21h-13v16q0 45 -15 83q-18 44 -49 70t-75 42.5t-87 22.5t-91 6q-86 0 -154.5 -28t-113 -75t-73.5 -112t-41.5 -134.5t-12.5 -146.5q0 -107 17.5 -188 t49 -135.5t80.5 -89t108.5 -49.5t135.5 -15q79 0 140.5 17t99 44.5t60.5 65t31 75.5q6 28 6 57q0 11 -1 22h12q0 -9 1 -18q0 -45 -13 -85q-15 -48 -52 -92.5t-110 -71t-174 -26.5q-201 0 -302.5 111.5t-101.5 377.5z" />
<glyph unicode="d" horiz-adv-x="1032" d="M102 483q0 87 14.5 162t46.5 139t79.5 109t117 70.5t156.5 25.5q157 0 255 -86.5t126 -247.5v815h12v-1470h-12v324q-65 -332 -397 -332q-110 0 -188 34.5t-123.5 101t-66 153.5t-20.5 202zM115 483q0 -113 20.5 -198.5t65 -149.5t119.5 -97.5t180 -33.5q89 0 159.5 25.5 t124.5 79.5t83.5 145.5t29.5 216.5v51q0 119 -29.5 208.5t-83 142.5t-120.5 78.5t-148 25.5q-106 0 -185 -38.5t-125 -107t-68.5 -155.5t-22.5 -193z" />
<glyph unicode="e" horiz-adv-x="966" d="M102 496q0 106 22.5 193t70 155.5t129.5 106.5t192 38q82 0 148.5 -25.5t109 -70.5t70.5 -106t32 -131q1 -20 1 -41q0 -52 -7 -107h-755v-12q0 -94 9.5 -164t35 -134.5t69.5 -105t115.5 -64.5t169.5 -24q79 0 141.5 19t100.5 49.5t62.5 71t33.5 80.5q7 30 7 61 q0 10 -1 20h12q1 -10 1 -21q0 -30 -7 -62q-9 -42 -34.5 -84.5t-65 -74t-104.5 -51.5t-146 -20q-100 0 -174 24.5t-119 66t-72 107.5t-37 138t-10 168zM115 520h745q7 46 7 89q0 72 -19 135q-30 102 -115.5 167.5t-216.5 65.5q-383 0 -401 -457z" />
<glyph unicode="f" horiz-adv-x="589" d="M37 967v12h176v211q0 159 60 224t200 65q59 0 117 -15l-2 -10q-55 12 -115 12q-137 0 -192.5 -61t-55.5 -215v-211h342v-12h-342v-967h-12v967h-176z" />
<glyph unicode="g" horiz-adv-x="1005" d="M72 -195q0 84 59 161t160 134q-85 20 -127.5 49t-42.5 76q0 77 115 140q-68 41 -102 113t-34 159q0 159 106.5 255.5t282.5 96.5q55 0 113 -10h299v-12h-248q116 -36 182 -120.5t66 -207.5q0 -69 -25 -131t-73 -110t-125 -76.5t-174 -28.5q-153 0 -258 63 q-113 -58 -113 -131q0 -32 24 -56t74 -40t98.5 -25.5t123.5 -19.5l108 -14q96 -13 163 -29.5t121.5 -44t81.5 -70.5t27 -102q0 -66 -38 -116.5t-106 -80t-154 -44.5t-189 -15q-147 0 -236.5 30.5t-124 81t-34.5 125.5zM84 -195q0 -109 86.5 -167t296.5 -58q135 0 238.5 24 t170 80t66.5 140q0 45 -18 80t-49 59.5t-80 43t-104 30.5t-128 22q-170 21 -258 37q-103 -56 -162 -131.5t-59 -159.5zM113 637q0 -86 31.5 -151t86 -104t123.5 -58t150 -19q96 0 171.5 28.5t121 76t69 106t23.5 123.5q0 156 -109.5 247t-290.5 91q-172 0 -274 -95 t-102 -245z" />
<glyph unicode="h" horiz-adv-x="997" d="M123 0v1470h12v-804q15 74 47.5 133t72 93.5t86.5 57.5t86.5 31t76.5 8q88 0 154.5 -22t107 -58t65.5 -90.5t34 -112.5t9 -131v-575h-12v575q0 70 -8.5 126t-32.5 109.5t-63 88.5t-103.5 56.5t-150.5 21.5q-39 0 -82 -9.5t-96 -40t-94 -77.5t-69 -130.5t-28 -191.5v-528 h-12z" />
<glyph unicode="i" horiz-adv-x="342" d="M152 1272q0 7 5 12.5t15 5.5q8 0 13 -5.5t5 -12.5q0 -8 -5.5 -13.5t-12.5 -5.5q-8 0 -14 5t-6 14zM166 0v979h12v-979h-12z" />
<glyph unicode="j" horiz-adv-x="370" d="M20 -408h33q77 0 104 41.5t27 143.5v1202h13v-1202q0 -108 -30 -152.5t-114 -44.5h-33v12zM170 1272q0 7 5 12.5t15 5.5q8 0 13.5 -5.5t5.5 -12.5q0 -8 -6 -13.5t-13 -5.5q-8 0 -14 5t-6 14z" />
<glyph unicode="k" horiz-adv-x="843" d="M123 0v1470h12v-923h311l359 432h14l-362 -438l370 -541h-16l-365 535h-311v-535h-12z" />
<glyph unicode="l" horiz-adv-x="317" d="M143 119v1351h13v-1351q0 -57 24 -82t101 -25v-12q-84 0 -111 27t-27 92z" />
<glyph unicode="m" horiz-adv-x="1695" d="M123 0v979h12v-313q12 63 35.5 115t55 86t65.5 59t71.5 38t69.5 19t62 6q97 0 167 -26.5t110 -75.5t59 -109.5t22 -138.5q11 80 41 143.5t68.5 101.5t85.5 62.5t86.5 33.5t76.5 9q88 0 153.5 -22t105 -58t63.5 -91t32.5 -112.5t8.5 -130.5v-575h-12v575q0 71 -8 126.5 t-30.5 109t-60 88.5t-101 56.5t-149.5 21.5q-39 0 -81 -9.5t-93.5 -40t-90.5 -77.5t-66 -130.5t-27 -191.5v-528h-12v580q0 70 -7.5 124t-30 107t-60 88t-101 56.5t-149.5 21.5q-41 0 -83.5 -9.5t-94 -40t-90 -77.5t-65 -130.5t-26.5 -191.5v-528h-12z" />
<glyph unicode="n" horiz-adv-x="997" d="M123 0v979h12v-313q15 74 47.5 133t72 93.5t86.5 57.5t86.5 31t76.5 8q88 0 154.5 -22t107 -58t65.5 -90.5t34 -112.5t9 -131v-575h-12v575q0 70 -8.5 126t-32.5 109.5t-63 88.5t-103.5 56.5t-150.5 21.5q-39 0 -82 -9.5t-96 -40t-94 -77.5t-69 -130.5t-28 -191.5v-528 h-12z" />
<glyph unicode="o" horiz-adv-x="1013" d="M102 479q0 89 14 165t45 140.5t78 109t115.5 70t155.5 25.5q86 0 154.5 -25.5t114.5 -69.5t76 -108t43 -138t13 -161q0 -246 -106.5 -370.5t-294.5 -124.5q-216 0 -312 119.5t-96 367.5zM115 479q0 -242 93 -358.5t302 -116.5q181 0 285 121.5t104 361.5q0 107 -21 193 t-65.5 154t-121.5 105.5t-181 37.5q-105 0 -182.5 -37.5t-123 -106t-67.5 -156.5t-22 -198z" />
<glyph unicode="p" horiz-adv-x="1032" d="M123 -420v1401h12v-324q67 332 402 332q200 0 296.5 -130t96.5 -361q0 -111 -22 -200t-69.5 -159t-129 -108.5t-193.5 -38.5q-158 0 -256.5 85t-124.5 249v-746h-12zM135 459q0 -120 29 -209t81.5 -142t120 -78.5t150.5 -25.5q87 0 156 25.5t114.5 70t75.5 107.5t43 135 t13 156q0 226 -94.5 352.5t-286.5 126.5q-87 0 -157 -24.5t-126.5 -77t-87.5 -145.5t-31 -220v-51z" />
<glyph unicode="q" horiz-adv-x="1032" d="M102 489q0 113 23.5 203t72 157.5t129.5 103.5t191 36q62 0 118.5 -16t111 -51t94 -100t55.5 -154v313h12v-1401h-12v748q-29 -158 -134 -247t-261 -89q-400 0 -400 497zM115 489q0 -485 387 -485q61 0 116.5 14.5t107 49t89 86t60 129.5t22.5 176v71q0 106 -25 187.5 t-63 129.5t-90.5 78.5t-100.5 41t-100 10.5q-108 0 -187 -35.5t-125.5 -101.5t-68.5 -153t-22 -198z" />
<glyph unicode="r" horiz-adv-x="559" d="M156 0v979h12v-313q15 74 47.5 133t72 93.5t86.5 57.5t86.5 31t76.5 8v-14q-41 0 -84 -9.5t-96 -39.5t-93.5 -76.5t-68 -130t-27.5 -191.5v-528h-12z" />
<glyph unicode="s" horiz-adv-x="911" d="M96 299h13q-3 -21 -3 -41q0 -97 77 -168q93 -86 261 -86q99 0 171.5 21.5t113 59t59.5 82t19 97.5q0 60 -23 105t-66.5 74t-96 46.5t-121.5 28.5q-76 12 -120.5 21t-94 27t-75.5 41.5t-43 62t-17 90.5q0 99 77.5 164t229.5 65q95 0 162.5 -22t101 -59.5t45.5 -79.5 q9 -30 9 -65q0 -14 -1 -28h-12q1 12 1 24q0 35 -9 65q-12 40 -43.5 76t-96 56.5t-157.5 20.5q-149 0 -222 -61.5t-73 -155.5q0 -42 9.5 -73.5t32.5 -54.5t47.5 -38t69.5 -27.5t81.5 -19.5t99.5 -17q151 -24 234 -86t83 -180q0 -117 -91.5 -194.5t-283.5 -77.5 q-174 0 -270 90q-81 75 -81 176q0 20 3 41z" />
<glyph unicode="t" horiz-adv-x="591" d="M31 967v12h190v268h12v-268h314v-12h-314v-691q0 -155 62 -213.5t199 -58.5q40 0 98 6v-12q-58 -6 -98 -6q-143 0 -208 61.5t-65 222.5v691h-190z" />
<glyph unicode="u" horiz-adv-x="987" d="M123 406v573h12v-573q0 -72 7 -126.5t29 -109t59.5 -89t101 -56t151.5 -21.5q39 0 82 9.5t96 40t94 77.5t69 130.5t28 191.5v526h12v-977h-12v313q-15 -74 -47.5 -133t-72 -93.5t-86.5 -57.5t-86.5 -31t-76.5 -8q-89 0 -155 22t-104.5 57.5t-62 91t-31 112.5t-7.5 131z " />
<glyph unicode="v" horiz-adv-x="833" d="M16 979h13l385 -969l387 969h12l-391 -979h-16z" />
<glyph unicode="w" horiz-adv-x="1353" d="M20 979h13l295 -969l338 969h12l334 -969l299 969h12l-303 -979h-16l-332 963l-336 -963h-17z" />
<glyph unicode="x" horiz-adv-x="800" d="M20 0l369 502l-350 477h14l342 -469l346 469h15l-353 -475l373 -504h-14l-365 494l-362 -494h-15z" />
<glyph unicode="y" horiz-adv-x="806" d="M16 979h15l348 -973h47l350 973h15l-410 -1135q-12 -33 -16.5 -45.5t-16.5 -41.5t-20 -42t-22.5 -36t-27 -34t-32 -26t-40 -22t-47.5 -12t-57 -5h-75v12h75q61 0 105 17.5t75 61t44.5 72.5t38.5 95q1 2 1.5 3.5l1 3t1.5 3.5l53 148h-51z" />
<glyph unicode="z" horiz-adv-x="774" d="M16 0v12l709 955h-651v12h667v-12l-706 -955h708v-12h-727z" />
<glyph unicode="{" horiz-adv-x="634" d="M223 616v9q35 11 57.5 35t32 59.5t12.5 65.5t3 73v371q0 31 1 51t4.5 49t12.5 47t23 36t37.5 27t54.5 9h71v-12h-71q-34 0 -57.5 -13.5t-35.5 -31.5t-19 -49.5t-8 -54t-1 -58.5v-371q0 -94 -19.5 -153.5t-76.5 -83.5q33 -15 53.5 -40t29 -62.5t11 -68t2.5 -81.5v-400 q0 -36 1 -58.5t8 -54t19 -49.5t35.5 -31.5t57.5 -13.5h71v-12h-71q-31 0 -54.5 9t-37.5 27t-23 36t-12.5 47t-4.5 49t-1 51v400q0 39 -1 64.5t-7 58.5t-16.5 55t-31 41t-49.5 28z" />
<glyph unicode="|" horiz-adv-x="477" d="M233 -254v1722h13v-1722h-13z" />
<glyph unicode="}" horiz-adv-x="634" d="M119 -238h71q34 0 57.5 13.5t35.5 31.5t19 49.5t8 54t1 58.5v400q0 103 17.5 163.5t79.5 88.5q-58 24 -77.5 83.5t-19.5 153.5v371q0 36 -1 58.5t-8 54t-19 49.5t-35.5 31.5t-57.5 13.5h-71v12h71q27 0 48 -7.5t35 -18.5t24 -29.5t15 -35.5t8 -42t3.5 -42.5t0.5 -43.5 v-371q0 -44 3 -73.5t12 -65t31.5 -59.5t57.5 -35v-9q-29 -9 -49 -28.5t-30.5 -40.5t-16.5 -55t-7 -59t-1 -64v-400q0 -26 -0.5 -43.5t-3.5 -42.5t-8 -42t-15 -35.5t-24 -29.5t-35 -18.5t-48 -7.5h-71v12z" />
<glyph unicode="~" horiz-adv-x="1116" d="M131 516q43 72 89 97.5t110 25.5q29 0 67.5 -11t62.5 -22l72 -33q142 -69 213 -69q69 0 130.5 33.5t95.5 105.5l12 -4q-37 -76 -101 -111.5t-137 -35.5q-79 0 -217 69q-52 24 -72.5 33t-60 21t-65.5 12q-60 0 -103.5 -25t-83.5 -94z" />
<glyph unicode="&#xa1;" horiz-adv-x="448" d="M199 965q0 7 5.5 12.5t12.5 5.5q9 0 15 -5t6 -13q0 -9 -6 -15t-15 -6q-8 0 -13 6t-5 15zM213 -442l2 1200h12l4 -1200h-18z" />
<glyph unicode="&#xa2;" horiz-adv-x="1116" d="M182 664q0 79 12.5 149.5t42.5 136.5t75 113.5t114 77t156 30.5v224h10v-224q64 0 119.5 -11.5t106.5 -38t79 -78t23 -123.5h-13q3 56 -14.5 99t-48.5 69t-74.5 42.5t-86.5 22.5t-91 6v-973q77 1 137.5 18t97 44.5t59.5 64.5t31 75t5 79h12q3 -54 -12 -102.5t-51.5 -92.5 t-108 -70.5t-170.5 -27.5v-276h-10v276q-199 0 -299.5 112.5t-100.5 377.5zM195 664q0 -132 25.5 -225.5t77 -148.5t121 -79.5t163.5 -24.5v973q-85 -2 -152 -31t-110.5 -75.5t-72 -111t-40.5 -133t-12 -144.5z" />
<glyph unicode="&#xa3;" horiz-adv-x="1116" d="M104 0v12h82q63 93 100.5 211.5t37.5 218.5q0 51 -8.5 102t-17.5 82.5t-26 84.5h-166v12h162q-47 159 -47 270q0 159 98 253.5t293 94.5q197 0 294 -81t87 -191h-12q10 106 -84 183t-285 77q-189 0 -284 -91.5t-95 -244.5q0 -114 50 -270h415v-12h-411q49 -145 49 -269 q0 -101 -36.5 -218.5t-98.5 -211.5h778v-12h-875z" />
<glyph unicode="&#xa4;" horiz-adv-x="1116" d="M207 229l115 115q-89 89 -89 217q0 129 84 219l-110 115l8 8l111 -115q95 95 227 95q139 0 233 -101l119 121l8 -8l-120 -123q77 -86 77 -211q0 -122 -79 -211l122 -121l-8 -8l-123 121q-91 -94 -229 -94q-132 0 -223 88l-115 -115zM246 561q0 -125 90 -213t217 -88 q128 0 216.5 88t88.5 213q0 129 -88 219t-217 90q-128 0 -217.5 -90t-89.5 -219z" />
<glyph unicode="&#xa5;" horiz-adv-x="1116" d="M113 1329h14l430 -727l442 727h15l-451 -741v-4h430v-13h-430v-161h430v-13h-430v-397h-12v397h-422v13h422v161h-422v13h422v4z" />
<glyph unicode="&#xa6;" horiz-adv-x="477" d="M231 -254v780h13v-780h-13zM231 739v729h13v-729h-13z" />
<glyph unicode="&#xa7;" horiz-adv-x="1028" d="M127 16h12q-6 -107 89.5 -182.5t260.5 -75.5q168 0 268.5 74t100.5 195q0 93 -64.5 156.5t-166.5 84.5q-188 39 -275 74q-219 90 -219 262q0 82 63.5 162t180.5 119q-100 32 -151.5 91.5t-51.5 137.5q0 48 18 94t56.5 88.5t110 68.5t167.5 26q91 0 170.5 -29.5t131.5 -92 t49 -145.5h-13q2 45 -17.5 88.5t-59.5 81t-108.5 61t-154.5 23.5q-157 0 -247.5 -73t-90.5 -191q0 -93 70 -151t166 -78q56 -12 93.5 -20.5t93 -24.5t93 -32.5t79.5 -42.5t67 -55t42 -69t17 -86q0 -83 -66 -165.5t-190 -115.5q113 -31 166 -100t53 -151q0 -47 -20.5 -93 t-63 -88.5t-119.5 -69t-178 -26.5q-68 0 -131.5 16t-117 48t-85 85t-28.5 121zM145 604q0 -248 484 -321q111 20 188.5 98.5t77.5 173.5q0 128 -125.5 204.5t-378.5 119.5q-111 -32 -178.5 -112.5t-67.5 -162.5z" />
<glyph unicode="&#xa8;" horiz-adv-x="958" d="M330 1204q0 7 6 13t14 6t13.5 -6t5.5 -13q0 -18 -19 -18q-20 0 -20 18zM631 1204q0 7 5 13t15 6q7 0 12 -6t5 -13q0 -18 -17 -18q-20 0 -20 18z" />
<glyph unicode="&#xa9;" horiz-adv-x="1656" d="M111 731q0 154 55 291t150.5 236t230 157t287.5 58q147 0 280.5 -58t229.5 -156.5t153 -236.5t57 -291q0 -154 -57 -292.5t-153 -237.5t-229.5 -157t-280.5 -58q-211 0 -375.5 92t-256 262t-91.5 391zM123 731q0 -328 198 -530.5t513 -202.5q193 0 355.5 97t257.5 266 t95 370q0 200 -95 368t-257.5 264.5t-355.5 96.5q-199 0 -362.5 -96.5t-256 -263.5t-92.5 -369zM399 688q0 85 13 158.5t45 141.5t80.5 116.5t124 77t172.5 28.5q171 0 265 -73t81 -201h-13q13 122 -78 192t-255 70q-94 0 -168 -28t-121 -75.5t-77.5 -114t-43 -138.5 t-12.5 -154q0 -252 96.5 -370.5t318.5 -118.5q53 0 104 10t99 32.5t83.5 55.5t55.5 83t17 112h12q3 -64 -17.5 -116.5t-57.5 -87t-87 -58t-102.5 -34t-106.5 -10.5q-228 0 -328 122t-100 380z" />
<glyph unicode="&#xaa;" horiz-adv-x="661" d="M59 770q0 92 80.5 152.5t235.5 60.5q82 0 190 -18v67q0 211 -235 211q-114 0 -169 -45.5t-52 -118.5h-11q-3 48 17 84t55.5 55t75 28t82.5 9q133 0 191.5 -60.5t58.5 -160.5v-420h-13v168q-19 -57 -57.5 -96t-86 -55t-82.5 -21.5t-71 -5.5q-91 0 -150 40.5t-59 125.5z M72 770q0 -73 50.5 -113.5t147.5 -40.5q84 0 145.5 24.5t92 64t44 78.5t13.5 79v90q-100 19 -192 19q-148 0 -224.5 -57.5t-76.5 -143.5z" />
<glyph unicode="&#xab;" horiz-adv-x="784" d="M127 449v12l309 387l8 -6l-301 -387l318 -383l-8 -6zM346 449v12l309 387l9 -6l-302 -387l318 -383l-8 -6z" />
<glyph unicode="&#xac;" horiz-adv-x="1116" d="M195 559v14h725v-362h-15v348h-710z" />
<glyph unicode="&#xad;" horiz-adv-x="917" d="M211 506v18h496v-18h-496z" />
<glyph unicode="&#xae;" horiz-adv-x="1153" d="M96 934q0 133 61.5 244.5t172 177t245.5 65.5q216 0 349 -140.5t133 -346.5q0 -131 -64 -241t-175 -174t-243 -64q-216 0 -347.5 137t-131.5 342zM109 934q0 -199 128 -333t338 -134q128 0 236 62.5t170.5 170t62.5 234.5q0 130 -56.5 238t-164.5 172.5t-248 64.5 q-131 0 -238.5 -64.5t-167.5 -173t-60 -237.5zM424 662v565h186q76 0 125 -41t49 -119q0 -53 -35.5 -100.5t-97.5 -55.5l129 -249h-14l-129 249h-10h-191v-249h-12zM436 924h191q67 0 106 44t39 99q0 72 -46 109.5t-116 37.5h-174v-290z" />
<glyph unicode="&#xaf;" horiz-adv-x="958" d="M219 1212v17h559v-17h-559z" />
<glyph unicode="&#xb0;" horiz-adv-x="825" d="M188 1116q0 97 64 159t156 62q98 0 163.5 -62.5t65.5 -158.5q0 -91 -66 -153t-163 -62q-99 0 -159.5 61t-60.5 154zM201 1116q0 -87 57 -145t150 -58q91 0 154 59t63 144q0 90 -62.5 149.5t-154.5 59.5q-86 0 -146.5 -59t-60.5 -150z" />
<glyph unicode="&#xb1;" horiz-adv-x="1116" d="M199 0v14h725v-14h-725zM199 535v14h356v371h14v-371h355v-14h-355v-349h-14v349h-356z" />
<glyph unicode="&#xb2;" horiz-adv-x="761" d="M59 793v26q0 39 8 71t28.5 61.5t42.5 52t64 51t77.5 50t97.5 56.5q56 31 93 54.5t75 55t57 65.5t19 71q0 76 -62 120t-184 44q-139 0 -203.5 -52.5t-62.5 -134.5h-13q-2 89 66 144t213 55q128 0 193 -47t65 -129q0 -39 -20 -75.5t-60 -69.5t-78 -57.5t-94 -55.5 q-85 -47 -133.5 -78t-93 -71.5t-63.5 -83.5t-19 -97v-14h598v-12h-611z" />
<glyph unicode="&#xb3;" horiz-adv-x="761" d="M70 997h12q-8 -58 17.5 -100.5t73 -63t93 -29.5t90.5 -9q141 0 224.5 66t83.5 173q0 100 -81 163t-210 63q-19 0 -49 -3l-7 11l328 293h-528v12h545v-12l-322 -289h33q135 0 219 -66t84 -172q0 -114 -86 -183t-234 -69q-47 0 -95 10t-97 32t-76 67t-18 106z" />
<glyph unicode="&#xb4;" horiz-adv-x="958" d="M451 1145l215 252l14 -13l-221 -245z" />
<glyph unicode="&#xb5;" horiz-adv-x="987" d="M123 -420v1399h12v-573q0 -72 7 -126.5t29 -109t59.5 -89t101 -56t151.5 -21.5q39 0 82 9.5t96 40t94 77.5t69 130.5t28 191.5v526h12v-977h-12v313q-15 -74 -47.5 -133t-72 -93.5t-86.5 -57.5t-86.5 -31t-76.5 -8q-165 0 -244.5 67t-103.5 191v-670h-12z" />
<glyph unicode="&#xb6;" horiz-adv-x="817" d="M102 1098q0 147 104 248.5t271 101.5h94v-703h-94q-172 0 -273.5 100.5t-101.5 252.5zM373 -276h35q123 0 176 61t53 219v1444h12v-1444q0 -164 -56 -228.5t-185 -64.5h-35v13z" />
<glyph unicode="&#xb7;" horiz-adv-x="286" d="M117 565q0 11 8 19t18 8q11 0 19 -8t8 -19q0 -10 -8 -18t-19 -8t-18.5 7.5t-7.5 18.5z" />
<glyph unicode="&#xb8;" horiz-adv-x="966" d="M352 -369l4 13q83 -27 142 -27q82 0 125 36t43 91q0 58 -43 90.5t-101 32.5q-44 0 -78 -12l-8 8l80 137l10 -4l-73 -127q30 10 69 10q62 0 110 -36t48 -99q0 -59 -49 -99t-133 -40q-66 0 -146 26z" />
<glyph unicode="&#xb9;" horiz-adv-x="761" d="M129 793v12h250v754l-221 -37l-2 12l223 39h12v-768h254v-12h-516z" />
<glyph unicode="&#xba;" horiz-adv-x="735" d="M82 922q0 66 16.5 124t49.5 106t91 75.5t134 27.5q82 0 141.5 -28t91.5 -77t46 -103.5t14 -118.5q0 -62 -15 -117t-47.5 -103t-91.5 -76t-139 -28q-291 0 -291 318zM94 922q0 -306 279 -306q62 0 111.5 18t80.5 48t51.5 71t28.5 84t8 91q0 62 -13.5 115t-43.5 99.5 t-87 73.5t-136 27q-73 0 -128.5 -27t-87.5 -73.5t-47.5 -102t-15.5 -118.5z" />
<glyph unicode="&#xbb;" horiz-adv-x="784" d="M104 72l318 383l-301 387l8 6l309 -387v-12l-325 -383zM324 72l317 383l-301 387l8 6l309 -387v-12l-325 -383z" />
<glyph unicode="&#xbc;" horiz-adv-x="1556" d="M115 608v13h250v753l-222 -37l-2 13l224 39h12v-768h254v-13h-516zM391 -59l854 1501l12 -4l-854 -1501zM805 211v12l526 557h12v-557h134v-12h-134v-211h-12v211h-526zM821 223h510v541z" />
<glyph unicode="&#xbd;" horiz-adv-x="1556" d="M76 608v13h250v753l-222 -37l-2 13l224 39h12v-768h254v-13h-516zM338 -59l854 1501l12 -4l-854 -1501zM870 0v27q0 39 8 71t28.5 61.5t42.5 52t64 51t77.5 50t97.5 56.5q56 31 93 54.5t75 55t57 65t19 70.5q0 76 -62 120t-184 44q-139 0 -203.5 -52t-62.5 -134h-13 q-2 89 66 144t213 55q128 0 193 -47.5t65 -129.5q0 -39 -20 -75.5t-60 -69.5t-78 -57.5t-94 -55.5q-68 -38 -109 -63t-84 -57t-65 -61.5t-36.5 -67t-14.5 -80.5v-15h598v-12h-611z" />
<glyph unicode="&#xbe;" horiz-adv-x="1556" d="M68 813h12q-7 -47 10 -84.5t46.5 -59t70 -35.5t76.5 -19t71 -5q141 0 224.5 66.5t83.5 173.5q0 100 -81 162.5t-210 62.5q-29 0 -49 -2l-7 10l328 293h-528v13h544v-13l-321 -289h33q135 0 219 -65.5t84 -171.5q0 -114 -86 -183t-234 -69q-47 0 -95 10t-97 32t-76 67 t-18 106zM420 -59l854 1501l12 -4l-854 -1501zM823 211v12l527 557h12v-557h133v-12h-133v-211h-12v211h-527zM840 223h510v541z" />
<glyph unicode="&#xbf;" horiz-adv-x="1114" d="M176 -164q0 47 14 89t43.5 81t55 66t69.5 67q45 41 73.5 70t64 75.5t55.5 90t34.5 104t14.5 127.5v154h12v-154q0 -71 -15.5 -134.5t-35.5 -106.5t-58.5 -91.5t-63.5 -73.5t-72 -69q-90 -86 -120 -126q-59 -80 -59 -169q0 -125 84.5 -200.5t270.5 -75.5q88 0 156.5 19.5 t111.5 52t69.5 77t36 91.5t5.5 98h12q4 -53 -5 -101.5t-36.5 -94.5t-72 -80t-115.5 -54.5t-162 -20.5q-189 0 -278 79.5t-89 209.5zM590 963q0 18 20 18q8 0 13.5 -5.5t5.5 -12.5q0 -9 -5.5 -15t-13.5 -6q-20 0 -20 21z" />
<glyph unicode="&#xc0;" horiz-adv-x="1120" d="M31 0l518 1378h16l527 -1378h-15l-149 389h-738l-147 -389h-12zM195 401h729l-367 965zM309 1716l13 13l247 -218l-8 -8z" />
<glyph unicode="&#xc1;" horiz-adv-x="1120" d="M31 0l518 1378h16l527 -1378h-15l-149 389h-738l-147 -389h-12zM195 401h729l-367 965zM530 1511l248 218l13 -13l-252 -213z" />
<glyph unicode="&#xc2;" horiz-adv-x="1120" d="M31 0l518 1378h16l527 -1378h-15l-149 389h-738l-147 -389h-12zM195 401h729l-367 965zM274 1475l277 219h14l271 -213l-9 -8l-270 206l-274 -213z" />
<glyph unicode="&#xc3;" horiz-adv-x="1120" d="M31 0l518 1378h16l527 -1378h-15l-149 389h-738l-147 -389h-12zM195 401h729l-367 965zM283 1571q50 102 149 102q37 0 133 -45q92 -45 131 -45q79 0 127 86l13 -4q-54 -94 -140 -94q-43 0 -135 45q-96 45 -129 45q-90 0 -137 -94z" />
<glyph unicode="&#xc4;" horiz-adv-x="1120" d="M31 0l518 1378h16l527 -1378h-15l-149 389h-738l-147 -389h-12zM195 401h729l-367 965zM385 1595q0 7 6.5 13t14.5 6t13 -6t5 -13q0 -18 -18 -18q-21 0 -21 18zM686 1595q0 7 5.5 13t15.5 6q7 0 11.5 -6t4.5 -13q0 -18 -16 -18q-21 0 -21 18z" />
<glyph unicode="&#xc5;" horiz-adv-x="1120" d="M31 0l518 1378h16l527 -1378h-15l-149 389h-738l-147 -389h-12zM195 401h729l-367 965zM418 1616q0 60 38.5 100.5t98.5 40.5q65 0 102 -40.5t37 -100.5t-37.5 -101.5t-101.5 -41.5q-59 0 -98 39.5t-39 103.5zM430 1616q0 -58 36 -94.5t89 -36.5q58 0 92.5 38.5 t34.5 92.5t-34 91.5t-93 37.5q-54 0 -89.5 -37.5t-35.5 -91.5z" />
<glyph unicode="&#xc6;" horiz-adv-x="1789" d="M6 0l914 1378h786v-12h-768v-618h700v-13h-700v-723h795v-12h-807v557h-535l-368 -557h-17zM399 569h527v797z" />
<glyph unicode="&#xc7;" horiz-adv-x="1226" d="M123 678q0 161 31 288.5t96 224t173 148.5t253 52q66 -1 130 -14.5t122 -43t100 -71.5t63 -104.5t13 -137.5h-12q8 72 -12.5 132.5t-61 101t-97.5 69t-118.5 41.5t-126.5 14q-115 0 -206 -33.5t-153.5 -94.5t-103.5 -149t-59.5 -192.5t-18.5 -230.5q0 -124 15.5 -223 t52.5 -185t96 -143.5t150 -90t210 -32.5q238 0 357.5 111t103.5 278h13q16 -173 -107.5 -287t-366.5 -114h-10l-71 -123q30 10 69 10q63 0 110.5 -36t47.5 -99q0 -59 -49 -99t-133 -40q-66 0 -146 26l4 13q83 -27 142 -27q82 0 125 36t43 91q0 58 -43 90.5t-101 32.5 q-43 0 -78 -12l-8 8l76 131q-144 3 -246 53t-159.5 143.5t-83 212t-25.5 275.5z" />
<glyph unicode="&#xc8;" horiz-adv-x="1064" d="M143 0v1378h815v-12h-802v-651h749v-13h-749v-690h852v-12h-865zM373 1716l12 13l248 -218l-8 -8z" />
<glyph unicode="&#xc9;" horiz-adv-x="1064" d="M143 0v1378h815v-12h-802v-651h749v-13h-749v-690h852v-12h-865zM504 1511l248 218l12 -13l-252 -213z" />
<glyph unicode="&#xca;" horiz-adv-x="1064" d="M143 0v1378h815v-12h-802v-651h749v-13h-749v-690h852v-12h-865zM274 1501l277 219h14l271 -213l-9 -8l-270 207l-274 -213z" />
<glyph unicode="&#xcb;" horiz-adv-x="1064" d="M143 0v1378h815v-12h-802v-651h749v-13h-749v-690h852v-12h-865zM379 1595q0 7 6 13t14 6t13.5 -6t5.5 -13q0 -18 -19 -18q-20 0 -20 18zM680 1595q0 7 5 13t15 6q7 0 12 -6t5 -13q0 -18 -17 -18q-20 0 -20 18z" />
<glyph unicode="&#xcc;" horiz-adv-x="380" d="M-39 1716l12 13l248 -218l-8 -8zM184 0v1378h13v-1378h-13z" />
<glyph unicode="&#xcd;" horiz-adv-x="380" d="M184 0v1378h13v-1378h-13zM184 1511l248 218l12 -13l-251 -213z" />
<glyph unicode="&#xce;" horiz-adv-x="380" d="M-88 1501l276 219h15l270 -213l-8 -8l-270 207l-275 -213zM184 0v1378h13v-1378h-13z" />
<glyph unicode="&#xcf;" horiz-adv-x="380" d="M25 1595q0 7 6 13t14 6t13 -6t5 -13q0 -18 -18 -18q-20 0 -20 18zM184 0v1378h13v-1378h-13zM326 1595q0 7 5 13t15 6q7 0 11.5 -6t4.5 -13q0 -18 -16 -18q-20 0 -20 18z" />
<glyph unicode="&#xd0;" horiz-adv-x="1253" d="M0 721v12h143v645h387q80 0 157.5 -16.5t164 -63t150.5 -119.5t106.5 -197.5t42.5 -285.5q0 -118 -22.5 -217t-59.5 -169t-88.5 -125.5t-107 -89.5t-117.5 -56t-116.5 -30.5t-107.5 -8.5h-389v721h-143zM156 12h376q76 0 152 17t160 64.5t147.5 121t105.5 198t42 283.5 q0 158 -41.5 281t-104.5 194.5t-147.5 117t-160.5 61.5t-155 16h-374v-633h585v-12h-585v-709z" />
<glyph unicode="&#xd1;" horiz-adv-x="1302" d="M143 0v1378h13l991 -1358v1358h12v-1378h-12l-991 1360v-1360h-13zM395 1552q50 103 150 103q37 0 133 -45q92 -45 131 -45q79 0 127 86l12 -4q-54 -95 -139 -95q-43 0 -135 45q-96 45 -129 45q-90 0 -137 -94z" />
<glyph unicode="&#xd2;" horiz-adv-x="1341" d="M123 684q0 122 18.5 225.5t61 193.5t106 153t157.5 99t212 36q117 0 209 -34.5t154 -96t102.5 -151t58 -194t17.5 -229.5q0 -340 -149 -517t-411 -177q-275 0 -405.5 169.5t-130.5 522.5zM135 684q0 -346 128 -513t396 -167q256 0 401.5 174.5t145.5 507.5q0 123 -17 225 t-56.5 190t-99.5 148.5t-150 94.5t-205 34q-116 0 -208 -35.5t-154 -97.5t-103 -150t-59.5 -190t-18.5 -221zM463 1716l12 13l248 -218l-8 -8z" />
<glyph unicode="&#xd3;" horiz-adv-x="1341" d="M123 684q0 122 18.5 225.5t61 193.5t106 153t157.5 99t212 36q117 0 209 -34.5t154 -96t102.5 -151t58 -194t17.5 -229.5q0 -340 -149 -517t-411 -177q-275 0 -405.5 169.5t-130.5 522.5zM135 684q0 -346 128 -513t396 -167q256 0 401.5 174.5t145.5 507.5q0 123 -17 225 t-56.5 190t-99.5 148.5t-150 94.5t-205 34q-116 0 -208 -35.5t-154 -97.5t-103 -150t-59.5 -190t-18.5 -221zM649 1511l248 218l12 -13l-252 -213z" />
<glyph unicode="&#xd4;" horiz-adv-x="1341" d="M123 684q0 122 18.5 225.5t61 193.5t106 153t157.5 99t212 36q117 0 209 -34.5t154 -96t102.5 -151t58 -194t17.5 -229.5q0 -340 -149 -517t-411 -177q-275 0 -405.5 169.5t-130.5 522.5zM135 684q0 -346 128 -513t396 -167q256 0 401.5 174.5t145.5 507.5q0 123 -17 225 t-56.5 190t-99.5 148.5t-150 94.5t-205 34q-116 0 -208 -35.5t-154 -97.5t-103 -150t-59.5 -190t-18.5 -221zM391 1501l277 219h14l270 -213l-8 -8l-270 207l-275 -213z" />
<glyph unicode="&#xd5;" horiz-adv-x="1341" d="M123 684q0 122 18.5 225.5t61 193.5t106 153t157.5 99t212 36q117 0 209 -34.5t154 -96t102.5 -151t58 -194t17.5 -229.5q0 -340 -149 -517t-411 -177q-275 0 -405.5 169.5t-130.5 522.5zM135 684q0 -346 128 -513t396 -167q256 0 401.5 174.5t145.5 507.5q0 123 -17 225 t-56.5 190t-99.5 148.5t-150 94.5t-205 34q-116 0 -208 -35.5t-154 -97.5t-103 -150t-59.5 -190t-18.5 -221zM406 1587q50 103 149 103q37 0 133 -45q94 -46 131 -46q78 0 127 87l12 -5q-54 -94 -139 -94q-43 0 -135 45q-96 45 -129 45q-90 0 -137 -94z" />
<glyph unicode="&#xd6;" horiz-adv-x="1341" d="M123 684q0 122 18.5 225.5t61 193.5t106 153t157.5 99t212 36q117 0 209 -34.5t154 -96t102.5 -151t58 -194t17.5 -229.5q0 -340 -149 -517t-411 -177q-275 0 -405.5 169.5t-130.5 522.5zM135 684q0 -346 128 -513t396 -167q256 0 401.5 174.5t145.5 507.5q0 123 -17 225 t-56.5 190t-99.5 148.5t-150 94.5t-205 34q-116 0 -208 -35.5t-154 -97.5t-103 -150t-59.5 -190t-18.5 -221zM506 1595q0 7 6 13t14 6t13.5 -6t5.5 -13q0 -18 -19 -18q-20 0 -20 18zM807 1595q0 7 5 13t15 6q7 0 12 -6t5 -13q0 -18 -17 -18q-20 0 -20 18z" />
<glyph unicode="&#xd7;" horiz-adv-x="1116" d="M276 313l252 252l-252 252l11 10l252 -252l249 250l11 -10l-250 -250l250 -250l-11 -10l-249 250l-252 -252z" />
<glyph unicode="&#xd8;" horiz-adv-x="1341" d="M123 684q0 122 18.5 225.5t61 193.5t106 153t157.5 99t212 36q268 0 405 -183l136 178l8 -8l-135 -180q127 -180 127 -512q0 -340 -149 -517t-411 -177q-247 0 -376 135l-129 -170l-9 8l129 170q-151 170 -151 549zM135 684q0 -373 148 -537l792 1051q-134 180 -397 180 q-116 0 -208 -35.5t-154 -97.5t-103 -150t-59.5 -190t-18.5 -221zM291 137q127 -133 368 -133q256 0 401.5 174.5t145.5 507.5q0 326 -123 502z" />
<glyph unicode="&#xd9;" horiz-adv-x="1327" d="M143 573v805h13v-805q0 -135 25.5 -235.5t83 -177.5t158 -116.5t243.5 -39.5q134 0 233 42.5t157.5 121t86.5 180t28 227.5v803h13v-803q0 -129 -29 -232.5t-89.5 -183.5t-162 -123.5t-237.5 -43.5q-117 0 -206.5 27t-149 75.5t-97.5 121.5t-54 160t-16 197zM467 1716 l12 13l248 -218l-8 -8z" />
<glyph unicode="&#xda;" horiz-adv-x="1327" d="M143 573v805h13v-805q0 -135 25.5 -235.5t83 -177.5t158 -116.5t243.5 -39.5q134 0 233 42.5t157.5 121t86.5 180t28 227.5v803h13v-803q0 -129 -29 -232.5t-89.5 -183.5t-162 -123.5t-237.5 -43.5q-117 0 -206.5 27t-149 75.5t-97.5 121.5t-54 160t-16 197zM584 1511 l247 218l13 -13l-252 -213z" />
<glyph unicode="&#xdb;" horiz-adv-x="1327" d="M143 573v805h13v-805q0 -135 25.5 -235.5t83 -177.5t158 -116.5t243.5 -39.5q134 0 233 42.5t157.5 121t86.5 180t28 227.5v803h13v-803q0 -129 -29 -232.5t-89.5 -183.5t-162 -123.5t-237.5 -43.5q-117 0 -206.5 27t-149 75.5t-97.5 121.5t-54 160t-16 197zM379 1501 l276 219h15l270 -213l-8 -8l-270 207l-275 -213z" />
<glyph unicode="&#xdc;" horiz-adv-x="1327" d="M143 573v805h13v-805q0 -135 25.5 -235.5t83 -177.5t158 -116.5t243.5 -39.5q134 0 233 42.5t157.5 121t86.5 180t28 227.5v803h13v-803q0 -129 -29 -232.5t-89.5 -183.5t-162 -123.5t-237.5 -43.5q-117 0 -206.5 27t-149 75.5t-97.5 121.5t-54 160t-16 197zM479 1595 q0 7 6.5 13t14.5 6t13 -6t5 -13q0 -18 -18 -18q-21 0 -21 18zM780 1595q0 7 5.5 13t15.5 6q7 0 11.5 -6t4.5 -13q0 -18 -16 -18q-21 0 -21 18z" />
<glyph unicode="&#xdd;" horiz-adv-x="993" d="M16 1378h15l458 -776l474 776h14l-481 -790v-588h-13v588zM438 1477l248 217l12 -13l-252 -213z" />
<glyph unicode="&#xde;" horiz-adv-x="1120" d="M143 0v1378h13v-262h477q206 0 321 -114.5t115 -299.5q0 -58 -11.5 -110.5t-42 -107t-77.5 -94t-125.5 -64.5t-179.5 -25h-477v-301h-13zM156 313h477q99 0 175 24t122 62.5t75.5 91t40.5 104t11 107.5q0 178 -112.5 290t-311.5 112h-477v-791z" />
<glyph unicode="&#xdf;" horiz-adv-x="1060" d="M123 0v1051q0 196 92 312t281 116q178 0 274 -87.5t96 -240.5q0 -29 -10 -65t-32 -79t-66 -82t-103 -61q155 -37 231.5 -150.5t76.5 -275.5q0 -91 -25.5 -171.5t-75.5 -145.5t-133 -103t-190 -38q-16 0 -62 4h-10v12h10q46 -4 62 -4q104 0 185 37.5t129 101t72.5 141.5 t24.5 166q0 163 -79 277t-240 143v10q63 19 109.5 56.5t69.5 80.5t33.5 79.5t10.5 66.5q0 147 -93.5 231t-264.5 84q-183 0 -272 -113t-89 -302v-1051h-12z" />
<glyph unicode="&#xe0;" horiz-adv-x="960" d="M92 256q0 68 28 127t83 106t147.5 74t212.5 27q105 0 266 -31v96q0 32 -2 57t-9.5 60t-20.5 61.5t-37.5 55t-57.5 46.5t-84 30t-114 12q-85 0 -149.5 -21.5t-99 -57t-50 -77t-12.5 -86.5h-13q-4 46 12 89.5t52.5 81t103.5 60.5t156 23q90 0 155.5 -23.5t100 -56.5 t54 -82.5t24 -87t4.5 -84.5v-655h-13v258q-35 -118 -140 -192t-279 -74q-139 0 -228.5 65t-89.5 199zM104 256q0 -128 86.5 -190t219.5 -62q196 0 307.5 99t111.5 259v185q-164 31 -266 31q-117 0 -207 -26.5t-144 -72t-81 -102t-27 -121.5zM340 1378l14 13l215 -252l-8 -6z " />
<glyph unicode="&#xe1;" horiz-adv-x="960" d="M92 256q0 68 28 127t83 106t147.5 74t212.5 27q105 0 266 -31v96q0 32 -2 57t-9.5 60t-20.5 61.5t-37.5 55t-57.5 46.5t-84 30t-114 12q-85 0 -149.5 -21.5t-99 -57t-50 -77t-12.5 -86.5h-13q-4 46 12 89.5t52.5 81t103.5 60.5t156 23q90 0 155.5 -23.5t100 -56.5 t54 -82.5t24 -87t4.5 -84.5v-655h-13v258q-35 -118 -140 -192t-279 -74q-139 0 -228.5 65t-89.5 199zM104 256q0 -128 86.5 -190t219.5 -62q196 0 307.5 99t111.5 259v185q-164 31 -266 31q-117 0 -207 -26.5t-144 -72t-81 -102t-27 -121.5zM461 1145l215 252l14 -13 l-221 -245z" />
<glyph unicode="&#xe2;" horiz-adv-x="960" d="M92 256q0 68 28 127t83 106t147.5 74t212.5 27q105 0 266 -31v96q0 32 -2 57t-9.5 60t-20.5 61.5t-37.5 55t-57.5 46.5t-84 30t-114 12q-85 0 -149.5 -21.5t-99 -57t-50 -77t-12.5 -86.5h-13q-4 46 12 89.5t52.5 81t103.5 60.5t156 23q90 0 155.5 -23.5t100 -56.5 t54 -82.5t24 -87t4.5 -84.5v-655h-13v258q-35 -118 -140 -192t-279 -74q-139 0 -228.5 65t-89.5 199zM104 256q0 -128 86.5 -190t219.5 -62q196 0 307.5 99t111.5 259v185q-164 31 -266 31q-117 0 -207 -26.5t-144 -72t-81 -102t-27 -121.5zM233 1122l287 256h15l280 -250 l-8 -8l-281 244l-284 -250z" />
<glyph unicode="&#xe3;" horiz-adv-x="960" d="M92 256q0 68 28 127t83 106t147.5 74t212.5 27q105 0 266 -31v96q0 32 -2 57t-9.5 60t-20.5 61.5t-37.5 55t-57.5 46.5t-84 30t-114 12q-85 0 -149.5 -21.5t-99 -57t-50 -77t-12.5 -86.5h-13q-4 46 12 89.5t52.5 81t103.5 60.5t156 23q90 0 155.5 -23.5t100 -56.5 t54 -82.5t24 -87t4.5 -84.5v-655h-13v258q-35 -118 -140 -192t-279 -74q-139 0 -228.5 65t-89.5 199zM104 256q0 -128 86.5 -190t219.5 -62q196 0 307.5 99t111.5 259v185q-164 31 -266 31q-117 0 -207 -26.5t-144 -72t-81 -102t-27 -121.5zM260 1219q50 102 150 102 q37 0 133 -45q92 -45 131 -45q79 0 127 86l12 -4q-54 -94 -139 -94q-43 0 -135 45q-96 45 -129 45q-90 0 -138 -95z" />
<glyph unicode="&#xe4;" horiz-adv-x="960" d="M92 256q0 68 28 127t83 106t147.5 74t212.5 27q105 0 266 -31v96q0 32 -2 57t-9.5 60t-20.5 61.5t-37.5 55t-57.5 46.5t-84 30t-114 12q-85 0 -149.5 -21.5t-99 -57t-50 -77t-12.5 -86.5h-13q-4 46 12 89.5t52.5 81t103.5 60.5t156 23q90 0 155.5 -23.5t100 -56.5 t54 -82.5t24 -87t4.5 -84.5v-655h-13v258q-35 -118 -140 -192t-279 -74q-139 0 -228.5 65t-89.5 199zM104 256q0 -128 86.5 -190t219.5 -62q196 0 307.5 99t111.5 259v185q-164 31 -266 31q-117 0 -207 -26.5t-144 -72t-81 -102t-27 -121.5zM342 1204q0 7 6 13t14 6t13.5 -6 t5.5 -13q0 -18 -19 -18q-20 0 -20 18zM643 1204q0 7 5.5 13t15.5 6q7 0 11.5 -6t4.5 -13q0 -18 -16 -18q-21 0 -21 18z" />
<glyph unicode="&#xe5;" horiz-adv-x="960" d="M92 256q0 68 28 127t83 106t147.5 74t212.5 27q105 0 266 -31v96q0 32 -2 57t-9.5 60t-20.5 61.5t-37.5 55t-57.5 46.5t-84 30t-114 12q-85 0 -149.5 -21.5t-99 -57t-50 -77t-12.5 -86.5h-13q-4 46 12 89.5t52.5 81t103.5 60.5t156 23q90 0 155.5 -23.5t100 -56.5 t54 -82.5t24 -87t4.5 -84.5v-655h-13v258q-35 -118 -140 -192t-279 -74q-139 0 -228.5 65t-89.5 199zM104 256q0 -128 86.5 -190t219.5 -62q196 0 307.5 99t111.5 259v185q-164 31 -266 31q-117 0 -207 -26.5t-144 -72t-81 -102t-27 -121.5zM383 1296q0 60 38.5 101t98.5 41 q65 0 102 -41t37 -101t-37.5 -101.5t-101.5 -41.5q-59 0 -98 39.5t-39 103.5zM395 1296q0 -58 36 -94.5t89 -36.5q58 0 92.5 38.5t34.5 92.5t-34 91.5t-93 37.5q-54 0 -89.5 -37.5t-35.5 -91.5z" />
<glyph unicode="&#xe6;" horiz-adv-x="1693" d="M92 256q0 137 115.5 212t355.5 75h266v112q0 32 -2 57t-9.5 60t-20.5 61.5t-37.5 55t-57.5 46.5t-84 30t-114 12q-85 0 -149.5 -21.5t-99 -57t-50 -77t-12.5 -86.5h-13q-4 46 12 89.5t52.5 81t103.5 60.5t156 23q90 0 155.5 -23.5t100 -56.5t54 -82.5t24 -87t4.5 -84.5 v-16q28 162 127 256t276 94q136 0 224 -62.5t118.5 -164.5t9.5 -232h-755v-57q1 -89 11 -156.5t36.5 -128.5t70.5 -100t114.5 -61.5t166.5 -22.5q79 0 141.5 19t100.5 49.5t62.5 71t33.5 80.5t6 81h12q3 -42 -6 -83.5t-34.5 -84t-65 -74t-104.5 -51.5t-146 -20 q-193 0 -284.5 83t-116.5 244q-9 -70 -37 -126q-47 -92 -146 -146.5t-247 -54.5q-139 0 -228.5 65t-89.5 199zM104 256q0 -128 86.5 -190t219.5 -62q196 0 307.5 99t111.5 259v168h-266q-234 0 -346.5 -71.5t-112.5 -202.5zM842 543h745q18 122 -11.5 218.5t-114.5 156 t-216 59.5q-104 0 -181.5 -34.5t-123.5 -96t-69.5 -136.5t-28.5 -167z" />
<glyph unicode="&#xe7;" horiz-adv-x="917" d="M102 481q0 100 21.5 187t67.5 161t127.5 117t191.5 43q64 0 119.5 -11.5t107.5 -38t80 -78.5t23 -124h-13q3 56 -15 99.5t-49 69.5t-75 42.5t-87 22.5t-91 6q-86 0 -154.5 -28t-113 -75t-73.5 -112t-41.5 -134.5t-12.5 -146.5q0 -107 17.5 -188t49 -135.5t80.5 -89 t108.5 -49.5t135.5 -15q79 0 140.5 17t99 44.5t60.5 65t31 75.5t5 79h12q3 -53 -11.5 -100.5t-50 -91.5t-104.5 -71t-164 -30l-71 -123q30 10 69 10q62 0 110 -36t48 -99q0 -59 -49 -99t-133 -40q-66 0 -146 26l4 13q83 -27 142 -27q82 0 125 36t43 91q0 58 -43 90.5 t-101 32.5q-44 0 -78 -12l-8 8l74 129h-4q-201 0 -302.5 111.5t-101.5 377.5z" />
<glyph unicode="&#xe8;" horiz-adv-x="966" d="M102 496q0 106 22.5 193t70 155.5t129.5 106.5t192 38q82 0 148.5 -25.5t109 -70.5t70.5 -106t32 -131.5t-6 -147.5h-755v-12q0 -94 9.5 -164t35 -134.5t69.5 -105t115.5 -64.5t169.5 -24q79 0 141.5 19t100.5 49.5t62.5 71t33.5 80.5t6 81h12q3 -42 -6 -83.5t-34.5 -84 t-65 -74t-104.5 -51.5t-146 -20q-100 0 -174 24.5t-119 66t-72 107.5t-37 138t-10 168zM115 520h745q18 122 -12 224t-115.5 167.5t-216.5 65.5q-383 0 -401 -457zM332 1378l14 13l215 -252l-8 -6z" />
<glyph unicode="&#xe9;" horiz-adv-x="966" d="M102 496q0 106 22.5 193t70 155.5t129.5 106.5t192 38q82 0 148.5 -25.5t109 -70.5t70.5 -106t32 -131.5t-6 -147.5h-755v-12q0 -94 9.5 -164t35 -134.5t69.5 -105t115.5 -64.5t169.5 -24q79 0 141.5 19t100.5 49.5t62.5 71t33.5 80.5t6 81h12q3 -42 -6 -83.5t-34.5 -84 t-65 -74t-104.5 -51.5t-146 -20q-100 0 -174 24.5t-119 66t-72 107.5t-37 138t-10 168zM115 520h745q18 122 -12 224t-115.5 167.5t-216.5 65.5q-383 0 -401 -457zM465 1145l215 252l14 -13l-221 -245z" />
<glyph unicode="&#xea;" horiz-adv-x="966" d="M102 496q0 106 22.5 193t70 155.5t129.5 106.5t192 38q82 0 148.5 -25.5t109 -70.5t70.5 -106t32 -131.5t-6 -147.5h-755v-12q0 -94 9.5 -164t35 -134.5t69.5 -105t115.5 -64.5t169.5 -24q79 0 141.5 19t100.5 49.5t62.5 71t33.5 80.5t6 81h12q3 -42 -6 -83.5t-34.5 -84 t-65 -74t-104.5 -51.5t-146 -20q-100 0 -174 24.5t-119 66t-72 107.5t-37 138t-10 168zM115 520h745q18 122 -12 224t-115.5 167.5t-216.5 65.5q-383 0 -401 -457zM217 1122l287 256h14l281 -250l-8 -8l-281 244l-285 -250z" />
<glyph unicode="&#xeb;" horiz-adv-x="966" d="M102 496q0 106 22.5 193t70 155.5t129.5 106.5t192 38q82 0 148.5 -25.5t109 -70.5t70.5 -106t32 -131.5t-6 -147.5h-755v-12q0 -94 9.5 -164t35 -134.5t69.5 -105t115.5 -64.5t169.5 -24q79 0 141.5 19t100.5 49.5t62.5 71t33.5 80.5t6 81h12q3 -42 -6 -83.5t-34.5 -84 t-65 -74t-104.5 -51.5t-146 -20q-100 0 -174 24.5t-119 66t-72 107.5t-37 138t-10 168zM115 520h745q18 122 -12 224t-115.5 167.5t-216.5 65.5q-383 0 -401 -457zM346 1204q0 6 6 12.5t15 6.5q8 0 13 -6t5 -13q0 -18 -18 -18q-21 0 -21 18zM647 1204q0 7 5.5 13t15.5 6 q7 0 11.5 -6t4.5 -13q0 -18 -16 -18q-21 0 -21 18z" />
<glyph unicode="&#xec;" horiz-adv-x="342" d="M-27 1378l15 13l215 -252l-8 -6zM166 0v979h12v-979h-12z" />
<glyph unicode="&#xed;" horiz-adv-x="342" d="M166 0v979h12v-979h-12zM186 1145l215 252l15 -13l-221 -245z" />
<glyph unicode="&#xee;" horiz-adv-x="342" d="M-115 1122l287 256h14l281 -250l-8 -8l-281 244l-284 -250zM166 0v979h12v-979h-12z" />
<glyph unicode="&#xef;" horiz-adv-x="342" d="M4 1204q0 6 6 12.5t15 6.5q8 0 13 -6t5 -13q0 -18 -18 -18q-21 0 -21 18zM166 0v979h12v-979h-12zM305 1204q0 7 5.5 13t15.5 6q7 0 11.5 -6t4.5 -13q0 -18 -16 -18q-21 0 -21 18z" />
<glyph unicode="&#xf0;" horiz-adv-x="1013" d="M100 471q0 89 14 165t45.5 142t78 112t115.5 72.5t155 26.5q182 0 284 -109.5t113 -277.5q2 37 2 98q0 361 -137 562l-176 -125l-8 8l178 127q-114 160 -315 192v13q204 -32 325 -199l182 129l9 -8l-185 -131q140 -209 140 -568q0 -66 -1 -113t-5.5 -110.5t-12.5 -109 t-23 -99.5t-36 -91.5t-52.5 -74.5t-71 -59.5t-93.5 -36.5t-119 -14q-218 0 -312 121.5t-94 357.5zM113 471q0 -233 90 -350t307 -117q71 0 129 18t97.5 47t69.5 71.5t47 85t28 94.5t15 92.5t5 85.5q3 143 -37 248.5t-131 168t-225 62.5q-107 0 -185 -39t-123 -109.5 t-66 -159t-21 -198.5z" />
<glyph unicode="&#xf1;" horiz-adv-x="997" d="M123 0v979h12v-313q15 74 47.5 133t72 93.5t86.5 57.5t86.5 31t76.5 8q88 0 154.5 -22t107 -58t65.5 -90.5t34 -112.5t9 -131v-575h-12v575q0 70 -8.5 126t-32.5 109.5t-63 88.5t-103.5 56.5t-150.5 21.5q-39 0 -82 -9.5t-96 -40t-94 -77.5t-69 -130.5t-28 -191.5v-528 h-12zM215 1219q50 102 150 102q37 0 133 -45q92 -45 131 -45q79 0 127 86l12 -4q-54 -94 -139 -94q-43 0 -135 45q-96 45 -129 45q-91 0 -138 -95z" />
<glyph unicode="&#xf2;" horiz-adv-x="1013" d="M102 479q0 89 14 165t45 140.5t78 109t115.5 70t155.5 25.5q86 0 154.5 -25.5t114.5 -69.5t76 -108t43 -138t13 -161q0 -246 -106.5 -370.5t-294.5 -124.5q-216 0 -312 119.5t-96 367.5zM115 479q0 -242 93 -358.5t302 -116.5q181 0 285 121.5t104 361.5q0 107 -21 193 t-65.5 154t-121.5 105.5t-181 37.5q-105 0 -182.5 -37.5t-123 -106t-67.5 -156.5t-22 -198zM336 1378l14 13l215 -252l-8 -6z" />
<glyph unicode="&#xf3;" horiz-adv-x="1013" d="M102 479q0 89 14 165t45 140.5t78 109t115.5 70t155.5 25.5q86 0 154.5 -25.5t114.5 -69.5t76 -108t43 -138t13 -161q0 -246 -106.5 -370.5t-294.5 -124.5q-216 0 -312 119.5t-96 367.5zM115 479q0 -242 93 -358.5t302 -116.5q181 0 285 121.5t104 361.5q0 107 -21 193 t-65.5 154t-121.5 105.5t-181 37.5q-105 0 -182.5 -37.5t-123 -106t-67.5 -156.5t-22 -198zM473 1145l215 252l14 -13l-221 -245z" />
<glyph unicode="&#xf4;" horiz-adv-x="1013" d="M102 479q0 89 14 165t45 140.5t78 109t115.5 70t155.5 25.5q86 0 154.5 -25.5t114.5 -69.5t76 -108t43 -138t13 -161q0 -246 -106.5 -370.5t-294.5 -124.5q-216 0 -312 119.5t-96 367.5zM115 479q0 -242 93 -358.5t302 -116.5q181 0 285 121.5t104 361.5q0 107 -21 193 t-65.5 154t-121.5 105.5t-181 37.5q-105 0 -182.5 -37.5t-123 -106t-67.5 -156.5t-22 -198zM229 1122l287 256h14l281 -250l-8 -8l-281 244l-284 -250z" />
<glyph unicode="&#xf5;" horiz-adv-x="1013" d="M102 479q0 89 14 165t45 140.5t78 109t115.5 70t155.5 25.5q86 0 154.5 -25.5t114.5 -69.5t76 -108t43 -138t13 -161q0 -246 -106.5 -370.5t-294.5 -124.5q-216 0 -312 119.5t-96 367.5zM115 479q0 -242 93 -358.5t302 -116.5q181 0 285 121.5t104 361.5q0 107 -21 193 t-65.5 154t-121.5 105.5t-181 37.5q-105 0 -182.5 -37.5t-123 -106t-67.5 -156.5t-22 -198zM254 1219q50 102 149 102q38 0 134 -45q92 -45 131 -45q79 0 127 86l12 -4q-54 -94 -139 -94q-44 0 -136 45q-96 45 -129 45q-89 0 -137 -95z" />
<glyph unicode="&#xf6;" horiz-adv-x="1013" d="M102 479q0 89 14 165t45 140.5t78 109t115.5 70t155.5 25.5q86 0 154.5 -25.5t114.5 -69.5t76 -108t43 -138t13 -161q0 -246 -106.5 -370.5t-294.5 -124.5q-216 0 -312 119.5t-96 367.5zM115 479q0 -242 93 -358.5t302 -116.5q181 0 285 121.5t104 361.5q0 107 -21 193 t-65.5 154t-121.5 105.5t-181 37.5q-105 0 -182.5 -37.5t-123 -106t-67.5 -156.5t-22 -198zM342 1204q0 7 6 13t14 6t13.5 -6t5.5 -13q0 -18 -19 -18q-20 0 -20 18zM643 1204q0 7 5.5 13t15.5 6q7 0 11.5 -6t4.5 -13q0 -18 -16 -18q-21 0 -21 18z" />
<glyph unicode="&#xf7;" horiz-adv-x="1116" d="M190 557v16h736v-16h-736zM539 291q0 8 6 15t16 7q9 0 15 -6.5t6 -15.5t-6 -15t-15 -6q-22 0 -22 21zM539 836q0 20 22 20q21 0 21 -20q0 -8 -6 -15.5t-15 -7.5q-22 0 -22 23z" />
<glyph unicode="&#xf8;" horiz-adv-x="1013" d="M98 -25l105 129q-101 118 -101 375q0 89 14 165t45 140.5t78 109t115.5 70t155.5 25.5q199 0 301 -133l102 127l9 -8l-103 -127q92 -125 92 -361q0 -246 -106.5 -370.5t-294.5 -124.5q-201 0 -299 104l-105 -129zM115 479q0 -251 96 -364l592 733q-98 129 -293 129 q-105 0 -182.5 -37.5t-123 -106t-67.5 -156.5t-22 -198zM219 106q92 -102 291 -102q181 0 285 121.5t104 361.5q0 224 -88 351z" />
<glyph unicode="&#xf9;" horiz-adv-x="987" d="M123 406v573h12v-573q0 -72 7 -126.5t29 -109t59.5 -89t101 -56t151.5 -21.5q39 0 82 9.5t96 40t94 77.5t69 130.5t28 191.5v526h12v-977h-12v313q-15 -74 -47.5 -133t-72 -93.5t-86.5 -57.5t-86.5 -31t-76.5 -8q-89 0 -155 22t-104.5 57.5t-62 91t-31 112.5t-7.5 131z M317 1378l15 13l215 -252l-8 -6z" />
<glyph unicode="&#xfa;" horiz-adv-x="987" d="M123 406v573h12v-573q0 -72 7 -126.5t29 -109t59.5 -89t101 -56t151.5 -21.5q39 0 82 9.5t96 40t94 77.5t69 130.5t28 191.5v526h12v-977h-12v313q-15 -74 -47.5 -133t-72 -93.5t-86.5 -57.5t-86.5 -31t-76.5 -8q-89 0 -155 22t-104.5 57.5t-62 91t-31 112.5t-7.5 131z M446 1145l216 252l14 -13l-221 -245z" />
<glyph unicode="&#xfb;" horiz-adv-x="987" d="M123 406v573h12v-573q0 -72 7 -126.5t29 -109t59.5 -89t101 -56t151.5 -21.5q39 0 82 9.5t96 40t94 77.5t69 130.5t28 191.5v526h12v-977h-12v313q-15 -74 -47.5 -133t-72 -93.5t-86.5 -57.5t-86.5 -31t-76.5 -8q-89 0 -155 22t-104.5 57.5t-62 91t-31 112.5t-7.5 131z M203 1122l286 256h15l280 -250l-8 -8l-280 244l-285 -250z" />
<glyph unicode="&#xfc;" horiz-adv-x="987" d="M123 406v573h12v-573q0 -72 7 -126.5t29 -109t59.5 -89t101 -56t151.5 -21.5q39 0 82 9.5t96 40t94 77.5t69 130.5t28 191.5v526h12v-977h-12v313q-15 -74 -47.5 -133t-72 -93.5t-86.5 -57.5t-86.5 -31t-76.5 -8q-89 0 -155 22t-104.5 57.5t-62 91t-31 112.5t-7.5 131z M336 1204q0 7 6 13t14 6t13.5 -6t5.5 -13q0 -18 -19 -18q-20 0 -20 18zM637 1204q0 7 5 13t15 6q7 0 12 -6t5 -13q0 -18 -17 -18q-20 0 -20 18z" />
<glyph unicode="&#xfd;" horiz-adv-x="806" d="M16 979h15l348 -973h47l350 973h15l-410 -1135q-12 -33 -16.5 -45.5t-16.5 -41.5t-20 -42t-22.5 -36t-27 -34t-32 -26t-40 -22t-47.5 -12t-57 -5h-75v12h75q61 0 105 17.5t75 61t44.5 72.5t38.5 95q1 2 1.5 3.5l1 3t1.5 3.5l53 148h-51zM381 1126l215 252l14 -12 l-221 -246z" />
<glyph unicode="&#xfe;" horiz-adv-x="1032" d="M123 -420v1895h12v-818q67 332 402 332q200 0 296.5 -130t96.5 -361q0 -111 -22 -200t-69.5 -159t-129 -108.5t-193.5 -38.5q-158 0 -256.5 85t-124.5 249v-746h-12zM135 459q0 -120 29 -209t81.5 -142t120 -78.5t150.5 -25.5q87 0 156 25.5t114.5 70t75.5 107.5t43 135 t13 156q0 226 -94.5 352.5t-286.5 126.5q-87 0 -157 -24.5t-126.5 -77t-87.5 -145.5t-31 -220v-51z" />
<glyph unicode="&#xff;" horiz-adv-x="806" d="M16 979h15l348 -973h47l350 973h15l-410 -1135q-12 -33 -16.5 -45.5t-16.5 -41.5t-20 -42t-22.5 -36t-27 -34t-32 -26t-40 -22t-47.5 -12t-57 -5h-75v12h75q61 0 105 17.5t75 61t44.5 72.5t38.5 95q1 2 1.5 3.5l1 3t1.5 3.5l53 148h-51zM250 1196q0 6 6 12t14 6 t13.5 -5.5t5.5 -12.5q0 -18 -19 -18q-20 0 -20 18zM551 1196q0 7 5 12.5t15 5.5q7 0 12 -6t5 -12q0 -18 -17 -18q-20 0 -20 18z" />
<glyph unicode="&#x100;" horiz-adv-x="1120" d="M31 0l518 1378h16l527 -1378h-15l-149 389h-738l-147 -389h-12zM195 401h729l-367 965zM276 1585v17h560v-17h-560z" />
<glyph unicode="&#x101;" horiz-adv-x="960" d="M92 256q0 68 28 127t83 106t147.5 74t212.5 27q105 0 266 -31v96q0 32 -2 57t-9.5 60t-20.5 61.5t-37.5 55t-57.5 46.5t-84 30t-114 12q-85 0 -149.5 -21.5t-99 -57t-50 -77t-12.5 -86.5h-13q-4 46 12 89.5t52.5 81t103.5 60.5t156 23q90 0 155.5 -23.5t100 -56.5 t54 -82.5t24 -87t4.5 -84.5v-655h-13v258q-35 -118 -140 -192t-279 -74q-139 0 -228.5 65t-89.5 199zM104 256q0 -128 86.5 -190t219.5 -62q196 0 307.5 99t111.5 259v185q-164 31 -266 31q-117 0 -207 -26.5t-144 -72t-81 -102t-27 -121.5zM240 1212v17h559v-17h-559z" />
<glyph unicode="&#x102;" horiz-adv-x="1120" d="M31 0l518 1378h16l527 -1378h-15l-149 389h-738l-147 -389h-12zM195 401h729l-367 965zM332 1733h12q1 -33 13 -67.5t36 -67.5t66.5 -54.5t97.5 -21.5q54 0 96.5 21t67.5 55t38.5 68t16.5 67h12q-3 -35 -17.5 -71.5t-40.5 -72.5t-71 -59t-102 -23t-102.5 23t-70.5 59 t-38 73t-14 71z" />
<glyph unicode="&#x103;" horiz-adv-x="960" d="M92 256q0 68 28 127t83 106t147.5 74t212.5 27q105 0 266 -31v96q0 32 -2 57t-9.5 60t-20.5 61.5t-37.5 55t-57.5 46.5t-84 30t-114 12q-85 0 -149.5 -21.5t-99 -57t-50 -77t-12.5 -86.5h-13q-4 46 12 89.5t52.5 81t103.5 60.5t156 23q90 0 155.5 -23.5t100 -56.5 t54 -82.5t24 -87t4.5 -84.5v-655h-13v258q-35 -118 -140 -192t-279 -74q-139 0 -228.5 65t-89.5 199zM104 256q0 -128 86.5 -190t219.5 -62q196 0 307.5 99t111.5 259v185q-164 31 -266 31q-117 0 -207 -26.5t-144 -72t-81 -102t-27 -121.5zM276 1376h13q1 -33 13 -67.5 t36 -67.5t66.5 -54.5t97.5 -21.5q54 0 96.5 21t67.5 55t38.5 68t16.5 67h12q-3 -35 -17.5 -71.5t-40.5 -72t-71 -58.5t-102 -23t-102.5 23t-71 58.5t-38.5 72.5t-14 71z" />
<glyph unicode="&#x104;" horiz-adv-x="1120" d="M31 0l518 1378h16l527 -1378h-13q-65 -50 -104 -113t-39 -120q0 -59 38.5 -86t100.5 -27q74 0 148 29l4 -13q-72 -28 -156 -28q-67 0 -109 29t-42 93q0 60 42 128.5t111 117.5l-145 379h-738l-147 -389h-12zM195 401h729l-367 965z" />
<glyph unicode="&#x105;" horiz-adv-x="960" d="M92 256q0 68 28 127t83 106t147.5 74t212.5 27q105 0 266 -31v96q0 32 -2 57t-9.5 60t-20.5 61.5t-37.5 55t-57.5 46.5t-84 30t-114 12q-85 0 -149.5 -21.5t-99 -57t-50 -77t-12.5 -86.5h-13q-4 46 12 89.5t52.5 81t103.5 60.5t156 23q90 0 155.5 -23.5t100 -56.5 t54 -82.5t24 -87t4.5 -84.5v-655h-11q-65 -50 -104 -113t-39 -120q0 -59 38.5 -86t100.5 -27q74 0 148 29l4 -13q-72 -28 -156 -28q-67 0 -109 29t-42 93q0 62 43.5 131.5t113.5 116.5v246q-35 -118 -140 -192t-279 -74q-139 0 -228.5 65t-89.5 199zM104 256 q0 -128 86.5 -190t219.5 -62q196 0 307.5 99t111.5 259v185q-164 31 -266 31q-117 0 -207 -26.5t-144 -72t-81 -102t-27 -121.5z" />
<glyph unicode="&#x106;" horiz-adv-x="1226" d="M123 678q0 161 31 288.5t96 224t173 148.5t253 52q66 0 130 -13.5t122 -43t100 -72t63 -105t13 -137.5h-12q8 72 -12.5 133t-61 101.5t-97.5 69t-118.5 41.5t-126.5 13q-115 0 -206 -33.5t-153.5 -94.5t-103.5 -149t-59.5 -192.5t-18.5 -230.5q0 -124 15.5 -223 t52.5 -185t96 -143.5t150 -90t210 -32.5q238 0 357.5 111t103.5 278h13q16 -173 -107.5 -287t-366.5 -114q-122 0 -214.5 33t-153 91t-98.5 145.5t-54 188.5t-16 228zM600 1511l248 218l12 -13l-252 -213z" />
<glyph unicode="&#x107;" horiz-adv-x="917" d="M102 481q0 100 21.5 187t67.5 161t127.5 117t191.5 43q64 0 119.5 -11.5t107.5 -38t80 -78.5t23 -124h-13q3 56 -15 99.5t-49 69.5t-75 42.5t-87 22.5t-91 6q-86 0 -154.5 -28t-113 -75t-73.5 -112t-41.5 -134.5t-12.5 -146.5q0 -107 17.5 -188t49 -135.5t80.5 -89 t108.5 -49.5t135.5 -15q79 0 140.5 17t99 44.5t60.5 65t31 75.5t5 79h12q3 -54 -12 -102.5t-52 -93t-110 -71t-174 -26.5q-201 0 -302.5 111.5t-101.5 377.5zM467 1145l215 252l14 -13l-221 -245z" />
<glyph unicode="&#x108;" horiz-adv-x="1226" d="M123 678q0 161 31 288.5t96 224t173 148.5t253 52q66 0 130 -13.5t122 -43t100 -72t63 -105t13 -137.5h-12q8 72 -12.5 133t-61 101.5t-97.5 69t-118.5 41.5t-126.5 13q-115 0 -206 -33.5t-153.5 -94.5t-103.5 -149t-59.5 -192.5t-18.5 -230.5q0 -124 15.5 -223 t52.5 -185t96 -143.5t150 -90t210 -32.5q238 0 357.5 111t103.5 278h13q16 -173 -107.5 -287t-366.5 -114q-122 0 -214.5 33t-153 91t-98.5 145.5t-54 188.5t-16 228zM397 1501l277 219h14l270 -213l-8 -8l-270 207l-274 -213z" />
<glyph unicode="&#x109;" horiz-adv-x="917" d="M102 481q0 100 21.5 187t67.5 161t127.5 117t191.5 43q64 0 119.5 -11.5t107.5 -38t80 -78.5t23 -124h-13q3 56 -15 99.5t-49 69.5t-75 42.5t-87 22.5t-91 6q-86 0 -154.5 -28t-113 -75t-73.5 -112t-41.5 -134.5t-12.5 -146.5q0 -107 17.5 -188t49 -135.5t80.5 -89 t108.5 -49.5t135.5 -15q79 0 140.5 17t99 44.5t60.5 65t31 75.5t5 79h12q3 -54 -12 -102.5t-52 -93t-110 -71t-174 -26.5q-201 0 -302.5 111.5t-101.5 377.5zM233 1122l287 256h15l280 -250l-8 -8l-281 244l-284 -250z" />
<glyph unicode="&#x10a;" horiz-adv-x="1226" d="M123 678q0 161 31 288.5t96 224t173 148.5t253 52q66 0 130 -13.5t122 -43t100 -72t63 -105t13 -137.5h-12q8 72 -12.5 133t-61 101.5t-97.5 69t-118.5 41.5t-126.5 13q-115 0 -206 -33.5t-153.5 -94.5t-103.5 -149t-59.5 -192.5t-18.5 -230.5q0 -124 15.5 -223 t52.5 -185t96 -143.5t150 -90t210 -32.5q238 0 357.5 111t103.5 278h13q16 -173 -107.5 -287t-366.5 -114q-122 0 -214.5 33t-153 91t-98.5 145.5t-54 188.5t-16 228zM647 1567q0 7 6.5 13.5t16.5 6.5t15 -6.5t5 -13.5q0 -10 -6.5 -15.5t-13.5 -5.5q-8 0 -15.5 5.5 t-7.5 15.5z" />
<glyph unicode="&#x10b;" horiz-adv-x="917" d="M102 481q0 100 21.5 187t67.5 161t127.5 117t191.5 43q64 0 119.5 -11.5t107.5 -38t80 -78.5t23 -124h-13q3 56 -15 99.5t-49 69.5t-75 42.5t-87 22.5t-91 6q-86 0 -154.5 -28t-113 -75t-73.5 -112t-41.5 -134.5t-12.5 -146.5q0 -107 17.5 -188t49 -135.5t80.5 -89 t108.5 -49.5t135.5 -15q79 0 140.5 17t99 44.5t60.5 65t31 75.5t5 79h12q3 -54 -12 -102.5t-52 -93t-110 -71t-174 -26.5q-201 0 -302.5 111.5t-101.5 377.5zM481 1219q0 7 6.5 13.5t16.5 6.5t15 -6.5t5 -13.5q0 -10 -6.5 -15.5t-13.5 -5.5q-8 0 -15.5 5.5t-7.5 15.5z" />
<glyph unicode="&#x10c;" horiz-adv-x="1226" d="M123 678q0 161 31 288.5t96 224t173 148.5t253 52q66 0 130 -13.5t122 -43t100 -72t63 -105t13 -137.5h-12q8 72 -12.5 133t-61 101.5t-97.5 69t-118.5 41.5t-126.5 13q-115 0 -206 -33.5t-153.5 -94.5t-103.5 -149t-59.5 -192.5t-18.5 -230.5q0 -124 15.5 -223 t52.5 -185t96 -143.5t150 -90t210 -32.5q238 0 357.5 111t103.5 278h13q16 -173 -107.5 -287t-366.5 -114q-122 0 -214.5 33t-153 91t-98.5 145.5t-54 188.5t-16 228zM381 1712l8 8l275 -213l270 207l8 -8l-270 -213h-15z" />
<glyph unicode="&#x10d;" horiz-adv-x="917" d="M102 481q0 100 21.5 187t67.5 161t127.5 117t191.5 43q64 0 119.5 -11.5t107.5 -38t80 -78.5t23 -124h-13q3 56 -15 99.5t-49 69.5t-75 42.5t-87 22.5t-91 6q-86 0 -154.5 -28t-113 -75t-73.5 -112t-41.5 -134.5t-12.5 -146.5q0 -107 17.5 -188t49 -135.5t80.5 -89 t108.5 -49.5t135.5 -15q79 0 140.5 17t99 44.5t60.5 65t31 75.5t5 79h12q3 -54 -12 -102.5t-52 -93t-110 -71t-174 -26.5q-201 0 -302.5 111.5t-101.5 377.5zM221 1370l8 8l285 -250l281 244l8 -8l-281 -250h-14z" />
<glyph unicode="&#x10e;" horiz-adv-x="1253" d="M143 0v1378h387q80 0 157.5 -16.5t164 -63t150.5 -119.5t106.5 -197.5t42.5 -285.5q0 -118 -22.5 -217t-59.5 -169t-88.5 -125.5t-107 -89.5t-117.5 -56t-116.5 -30.5t-107.5 -8.5h-389zM156 12h376q76 0 152 17t160 64.5t147.5 121t105.5 198t42 283.5q0 158 -41.5 281 t-104.5 194.5t-147.5 117t-160.5 61.5t-155 16h-374v-1354zM233 1712l9 8l274 -213l270 207l9 -8l-271 -213h-14z" />
<glyph unicode="&#x10f;" horiz-adv-x="1112" d="M102 483q0 87 14.5 162t46.5 139t79.5 109t117 70.5t156.5 25.5q157 0 255 -86.5t126 -247.5v815h12v-1470h-12v324q-65 -332 -397 -332q-110 0 -188 34.5t-123.5 101t-66 153.5t-20.5 202zM115 483q0 -113 20.5 -198.5t65 -149.5t119.5 -97.5t180 -33.5q89 0 159.5 25.5 t124.5 79.5t83.5 145.5t29.5 216.5v51q0 119 -29.5 208.5t-83 142.5t-120.5 78.5t-148 25.5q-106 0 -185 -38.5t-125 -107t-68.5 -155.5t-22.5 -193zM1016 1245l69 182q-11 0 -19.5 7.5t-8.5 19.5q0 11 8 19t18 8q11 0 19 -7.5t8 -17.5t-6 -22l-80 -193z" />
<glyph unicode="&#x110;" horiz-adv-x="1253" d="M0 721v12h143v645h387q80 0 157.5 -16.5t164 -63t150.5 -119.5t106.5 -197.5t42.5 -285.5q0 -118 -22.5 -217t-59.5 -169t-88.5 -125.5t-107 -89.5t-117.5 -56t-116.5 -30.5t-107.5 -8.5h-389v721h-143zM156 12h376q76 0 152 17t160 64.5t147.5 121t105.5 198t42 283.5 q0 158 -41.5 281t-104.5 194.5t-147.5 117t-160.5 61.5t-155 16h-374v-633h585v-12h-585v-709z" />
<glyph unicode="&#x111;" horiz-adv-x="1032" d="M102 483q0 87 14.5 162t46.5 139t79.5 109t117 70.5t156.5 25.5q157 0 255 -86.5t126 -247.5v535h-395v12h395v268h12v-268h142v-12h-142v-1190h-12v324q-65 -332 -397 -332q-110 0 -188 34.5t-123.5 101t-66 153.5t-20.5 202zM115 483q0 -113 20.5 -198.5t65 -149.5 t119.5 -97.5t180 -33.5q89 0 159.5 25.5t124.5 79.5t83.5 145.5t29.5 216.5v51q0 119 -29.5 208.5t-83 142.5t-120.5 78.5t-148 25.5q-106 0 -185 -38.5t-125 -107t-68.5 -155.5t-22.5 -193z" />
<glyph unicode="&#x112;" horiz-adv-x="1064" d="M143 0v1378h815v-12h-802v-651h749v-13h-749v-690h852v-12h-865zM281 1585v17h559v-17h-559z" />
<glyph unicode="&#x113;" horiz-adv-x="966" d="M102 496q0 106 22.5 193t70 155.5t129.5 106.5t192 38q82 0 148.5 -25.5t109 -70.5t70.5 -106t32 -131.5t-6 -147.5h-755v-12q0 -94 9.5 -164t35 -134.5t69.5 -105t115.5 -64.5t169.5 -24q79 0 141.5 19t100.5 49.5t62.5 71t33.5 80.5t6 81h12q3 -42 -6 -83.5t-34.5 -84 t-65 -74t-104.5 -51.5t-146 -20q-100 0 -174 24.5t-119 66t-72 107.5t-37 138t-10 168zM115 520h745q18 122 -12 224t-115.5 167.5t-216.5 65.5q-383 0 -401 -457zM225 1212v17h559v-17h-559z" />
<glyph unicode="&#x114;" horiz-adv-x="1064" d="M143 0v1378h815v-12h-802v-651h749v-13h-749v-690h852v-12h-865zM342 1733h12q1 -33 13 -67.5t36 -67.5t66.5 -54.5t97.5 -21.5q54 0 96.5 21t67.5 55t38.5 68t16.5 67h13q-3 -35 -17.5 -71.5t-41 -72.5t-71.5 -59t-102 -23t-102.5 23t-70.5 59t-38 73t-14 71z" />
<glyph unicode="&#x115;" horiz-adv-x="966" d="M102 496q0 106 22.5 193t70 155.5t129.5 106.5t192 38q82 0 148.5 -25.5t109 -70.5t70.5 -106t32 -131.5t-6 -147.5h-755v-12q0 -94 9.5 -164t35 -134.5t69.5 -105t115.5 -64.5t169.5 -24q79 0 141.5 19t100.5 49.5t62.5 71t33.5 80.5t6 81h12q3 -42 -6 -83.5t-34.5 -84 t-65 -74t-104.5 -51.5t-146 -20q-100 0 -174 24.5t-119 66t-72 107.5t-37 138t-10 168zM115 520h745q18 122 -12 224t-115.5 167.5t-216.5 65.5q-383 0 -401 -457zM279 1370h12q1 -33 13 -67.5t36 -67.5t66.5 -54.5t97.5 -21.5q54 0 96.5 21t67.5 55t38.5 68t16.5 67h12 q-3 -35 -17.5 -71.5t-40.5 -72t-71 -58.5t-102 -23t-102.5 23t-70.5 58.5t-38 72.5t-14 71z" />
<glyph unicode="&#x116;" horiz-adv-x="1064" d="M143 0v1378h815v-12h-802v-651h749v-13h-749v-690h852v-12h-865zM545 1552q0 7 6 14t16 7t15.5 -7t5.5 -14q0 -10 -7 -15t-14 -5q-22 0 -22 20z" />
<glyph unicode="&#x117;" horiz-adv-x="966" d="M102 496q0 106 22.5 193t70 155.5t129.5 106.5t192 38q82 0 148.5 -25.5t109 -70.5t70.5 -106t32 -131.5t-6 -147.5h-755v-12q0 -94 9.5 -164t35 -134.5t69.5 -105t115.5 -64.5t169.5 -24q79 0 141.5 19t100.5 49.5t62.5 71t33.5 80.5t6 81h12q3 -42 -6 -83.5t-34.5 -84 t-65 -74t-104.5 -51.5t-146 -20q-100 0 -174 24.5t-119 66t-72 107.5t-37 138t-10 168zM115 520h745q18 122 -12 224t-115.5 167.5t-216.5 65.5q-383 0 -401 -457zM492 1219q0 7 6 13.5t16 6.5t15.5 -6.5t5.5 -13.5q0 -10 -7 -15.5t-14 -5.5q-8 0 -15 5.5t-7 15.5z" />
<glyph unicode="&#x118;" horiz-adv-x="1064" d="M143 0v1378h815v-12h-802v-610h749v-13h-749v-731h852v-12h-103q-66 -50 -106.5 -115t-40.5 -123q0 -112 139 -112q75 0 147 28l5 -12q-72 -28 -156 -28q-67 0 -109.5 29t-42.5 93q0 59 40 125t106 115h-744z" />
<glyph unicode="&#x119;" horiz-adv-x="966" d="M102 496q0 106 23 193t71 155.5t130 106.5t192 38q82 0 148.5 -25.5t108.5 -70.5t69.5 -106t31.5 -131.5t-6 -147.5h-755v-12q0 -94 9.5 -164t35 -134.5t69.5 -105t115.5 -64.5t169.5 -24q79 0 141.5 19t100.5 49.5t62.5 71t33.5 80.5t6 81h12q2 -42 -7.5 -84t-33 -83.5 t-67 -75.5t-103.5 -52q-67 -47 -108 -112.5t-41 -124.5t38.5 -86t100.5 -27q74 0 148 29l4 -13q-72 -28 -156 -28q-67 0 -109 29.5t-42 93.5q0 57 37.5 120t99.5 113q-53 -12 -117 -12q-100 0 -174 24.5t-119 66t-72 107.5t-37 138t-10 168zM115 520h745q18 123 -11.5 224.5 t-114.5 167t-216 65.5q-84 0 -151 -23t-112.5 -63t-76 -98t-45.5 -125.5t-18 -147.5z" />
<glyph unicode="&#x11a;" horiz-adv-x="1064" d="M143 0v1378h815v-12h-802v-651h749v-13h-749v-690h852v-12h-865zM268 1712l8 8l275 -213l270 207l8 -8l-270 -213h-14z" />
<glyph unicode="&#x11b;" horiz-adv-x="966" d="M102 496q0 106 22.5 193t70 155.5t129.5 106.5t192 38q82 0 148.5 -25.5t109 -70.5t70.5 -106t32 -131.5t-6 -147.5h-755v-12q0 -94 9.5 -164t35 -134.5t69.5 -105t115.5 -64.5t169.5 -24q79 0 141.5 19t100.5 49.5t62.5 71t33.5 80.5t6 81h12q3 -42 -6 -83.5t-34.5 -84 t-65 -74t-104.5 -51.5t-146 -20q-100 0 -174 24.5t-119 66t-72 107.5t-37 138t-10 168zM115 520h745q18 122 -12 224t-115.5 167.5t-216.5 65.5q-383 0 -401 -457zM215 1370l8 8l285 -250l280 244l9 -8l-281 -250h-14z" />
<glyph unicode="&#x11c;" horiz-adv-x="1259" d="M123 678q0 160 32 289t96 224.5t167.5 147.5t240.5 52q120 0 210 -31.5t139 -84.5t71 -114t17 -127h-13q4 51 -8 99t-43.5 93t-79.5 78.5t-123.5 53.5t-169.5 20q-135 0 -237 -51t-164 -145t-92.5 -220t-30.5 -284q0 -346 129.5 -510t392.5 -164q83 0 152.5 17t117.5 45 t84.5 67.5t58 80.5t35.5 89t18.5 88.5t4.5 81.5v186h-407v11h420v-197q0 -62 -10 -120t-41.5 -126.5t-82 -118t-141 -83t-209.5 -33.5q-268 0 -401 167.5t-133 518.5zM369 1501l276 219h14l271 -213l-8 -8l-271 207l-274 -213z" />
<glyph unicode="&#x11d;" horiz-adv-x="1005" d="M72 -195q0 84 59 161t160 134q-85 20 -127.5 49t-42.5 76q0 77 115 140q-68 41 -102 113t-34 159q0 159 106.5 255.5t282.5 96.5q55 0 113 -10h299v-12h-248q116 -36 182 -120.5t66 -207.5q0 -69 -25 -131t-73 -110t-125 -76.5t-174 -28.5q-153 0 -258 63 q-113 -58 -113 -131q0 -32 24 -56t74 -40t98.5 -25.5t123.5 -19.5l108 -14q96 -13 163 -29.5t121.5 -44t81.5 -70.5t27 -102q0 -66 -38 -116.5t-106 -80t-154 -44.5t-189 -15q-147 0 -236.5 30.5t-124 81t-34.5 125.5zM84 -195q0 -109 86.5 -167t296.5 -58q135 0 238.5 24 t170 80t66.5 140q0 45 -18 80t-49 59.5t-80 43t-104 30.5t-128 22q-170 21 -258 37q-103 -56 -162 -131.5t-59 -159.5zM113 637q0 -86 31.5 -151t86 -104t123.5 -58t150 -19q96 0 171.5 28.5t121 76t69 106t23.5 123.5q0 156 -109.5 247t-290.5 91q-172 0 -274 -95 t-102 -245zM211 1122l287 256h14l281 -250l-9 -8l-280 244l-285 -250z" />
<glyph unicode="&#x11e;" horiz-adv-x="1259" d="M123 678q0 160 32 289t96 224.5t167.5 147.5t240.5 52q120 0 210 -31.5t139 -84.5t71 -114t17 -127h-13q4 51 -8 99t-43.5 93t-79.5 78.5t-123.5 53.5t-169.5 20q-135 0 -237 -51t-164 -145t-92.5 -220t-30.5 -284q0 -346 129.5 -510t392.5 -164q83 0 152.5 17t117.5 45 t84.5 67.5t58 80.5t35.5 89t18.5 88.5t4.5 81.5v186h-407v11h420v-197q0 -62 -10 -120t-41.5 -126.5t-82 -118t-141 -83t-209.5 -33.5q-268 0 -401 167.5t-133 518.5zM436 1733h13q1 -33 13 -67.5t36 -67.5t66.5 -54.5t97.5 -21.5q54 0 96.5 21t67.5 55t38.5 68t16.5 67h12 q-3 -35 -17.5 -71.5t-40.5 -72.5t-71 -59t-102 -23t-102.5 23t-71 59t-38.5 73t-14 71z" />
<glyph unicode="&#x11f;" horiz-adv-x="1005" d="M72 -195q0 84 59 161t160 134q-85 20 -127.5 49t-42.5 76q0 77 115 140q-68 41 -102 113t-34 159q0 159 106.5 255.5t282.5 96.5q55 0 113 -10h299v-12h-248q116 -36 182 -120.5t66 -207.5q0 -69 -25 -131t-73 -110t-125 -76.5t-174 -28.5q-153 0 -258 63 q-113 -58 -113 -131q0 -32 24 -56t74 -40t98.5 -25.5t123.5 -19.5l108 -14q96 -13 163 -29.5t121.5 -44t81.5 -70.5t27 -102q0 -66 -38 -116.5t-106 -80t-154 -44.5t-189 -15q-147 0 -236.5 30.5t-124 81t-34.5 125.5zM84 -195q0 -109 86.5 -167t296.5 -58q135 0 238.5 24 t170 80t66.5 140q0 45 -18 80t-49 59.5t-80 43t-104 30.5t-128 22q-170 21 -258 37q-103 -56 -162 -131.5t-59 -159.5zM113 637q0 -86 31.5 -151t86 -104t123.5 -58t150 -19q96 0 171.5 28.5t121 76t69 106t23.5 123.5q0 156 -109.5 247t-290.5 91q-172 0 -274 -95 t-102 -245zM266 1370h13q1 -33 13 -67.5t36 -67.5t66.5 -54.5t97.5 -21.5q54 0 96.5 21t67.5 55t38.5 68t16.5 67h12q-3 -35 -17.5 -71.5t-40.5 -72t-71 -58.5t-102 -23t-102.5 23t-71 58.5t-38.5 72.5t-14 71z" />
<glyph unicode="&#x120;" horiz-adv-x="1259" d="M123 678q0 160 32 289t96 224.5t167.5 147.5t240.5 52q120 0 210 -31.5t139 -84.5t71 -114t17 -127h-13q4 51 -8 99t-43.5 93t-79.5 78.5t-123.5 53.5t-169.5 20q-135 0 -237 -51t-164 -145t-92.5 -220t-30.5 -284q0 -346 129.5 -510t392.5 -164q83 0 152.5 17t117.5 45 t84.5 67.5t58 80.5t35.5 89t18.5 88.5t4.5 81.5v186h-407v11h420v-197q0 -62 -10 -120t-41.5 -126.5t-82 -118t-141 -83t-209.5 -33.5q-268 0 -401 167.5t-133 518.5zM633 1567q0 7 6 13.5t16 6.5t15.5 -6.5t5.5 -13.5q0 -10 -7 -15.5t-14 -5.5q-8 0 -15 5.5t-7 15.5z" />
<glyph unicode="&#x121;" horiz-adv-x="1005" d="M72 -195q0 84 59 161t160 134q-85 20 -127.5 49t-42.5 76q0 77 115 140q-68 41 -102 113t-34 159q0 159 106.5 255.5t282.5 96.5q55 0 113 -10h299v-12h-248q116 -36 182 -120.5t66 -207.5q0 -69 -25 -131t-73 -110t-125 -76.5t-174 -28.5q-153 0 -258 63 q-113 -58 -113 -131q0 -32 24 -56t74 -40t98.5 -25.5t123.5 -19.5l108 -14q96 -13 163 -29.5t121.5 -44t81.5 -70.5t27 -102q0 -66 -38 -116.5t-106 -80t-154 -44.5t-189 -15q-147 0 -236.5 30.5t-124 81t-34.5 125.5zM84 -195q0 -109 86.5 -167t296.5 -58q135 0 238.5 24 t170 80t66.5 140q0 45 -18 80t-49 59.5t-80 43t-104 30.5t-128 22q-170 21 -258 37q-103 -56 -162 -131.5t-59 -159.5zM113 637q0 -86 31.5 -151t86 -104t123.5 -58t150 -19q96 0 171.5 28.5t121 76t69 106t23.5 123.5q0 156 -109.5 247t-290.5 91q-172 0 -274 -95 t-102 -245zM473 1219q0 7 6.5 13.5t16.5 6.5t15 -6.5t5 -13.5q0 -10 -6.5 -15.5t-13.5 -5.5q-8 0 -15.5 5.5t-7.5 15.5z" />
<glyph unicode="&#x122;" horiz-adv-x="1259" d="M123 678q0 160 32 289t96 224.5t167.5 147.5t240.5 52q120 0 210 -31.5t139 -84.5t71 -114t17 -127h-13q4 51 -8 99t-43.5 93t-79.5 78.5t-123.5 53.5t-169.5 20q-135 0 -237 -51t-164 -145t-92.5 -220t-30.5 -284q0 -346 129.5 -510t392.5 -164q83 0 152.5 17t117.5 45 t84.5 67.5t58 80.5t35.5 89t18.5 88.5t4.5 81.5v186h-407v11h420v-197q0 -62 -10 -120t-41.5 -126.5t-82 -118t-141 -83t-209.5 -33.5q-268 0 -401 167.5t-133 518.5zM584 -369l69 183q-11 0 -19.5 7t-8.5 19q0 11 8 19t18 8q11 0 19 -7.5t8 -17.5t-6 -22l-80 -193z" />
<glyph unicode="&#x123;" horiz-adv-x="1005" d="M72 -195q0 84 59 161t160 134q-85 20 -127.5 49t-42.5 76q0 77 115 140q-68 41 -102 113t-34 159q0 159 106.5 255.5t282.5 96.5q55 0 113 -10h299v-12h-248q116 -36 182 -120.5t66 -207.5q0 -69 -25 -131t-73 -110t-125 -76.5t-174 -28.5q-153 0 -258 63 q-113 -58 -113 -131q0 -32 24 -56t74 -40t98.5 -25.5t123.5 -19.5l108 -14q96 -13 163 -29.5t121.5 -44t81.5 -70.5t27 -102q0 -66 -38 -116.5t-106 -80t-154 -44.5t-189 -15q-147 0 -236.5 30.5t-124 81t-34.5 125.5zM84 -195q0 -109 86.5 -167t296.5 -58q135 0 238.5 24 t170 80t66.5 140q0 45 -18 80t-49 59.5t-80 43t-104 30.5t-128 22q-170 21 -258 37q-103 -56 -162 -131.5t-59 -159.5zM113 637q0 -86 31.5 -151t86 -104t123.5 -58t150 -19q96 0 171.5 28.5t121 76t69 106t23.5 123.5q0 156 -109.5 247t-290.5 91q-172 0 -274 -95 t-102 -245zM465 1159q0 11 6 23l80 192l8 -4l-70 -182q11 0 20 -7.5t9 -19.5q0 -11 -8 -18.5t-18 -7.5q-12 0 -19.5 7.5t-7.5 16.5z" />
<glyph unicode="&#x124;" horiz-adv-x="1294" d="M143 0v1378h13v-663h983v663h12v-1378h-12v702h-983v-702h-13zM367 1501l276 219h14l271 -213l-8 -8l-271 207l-274 -213z" />
<glyph unicode="&#x125;" horiz-adv-x="997" d="M-150 1501l277 219h14l271 -213l-9 -8l-270 207l-274 -213zM123 0v1470h12v-804q15 74 47.5 133t72 93.5t86.5 57.5t86.5 31t76.5 8q88 0 154.5 -22t107 -58t65.5 -90.5t34 -112.5t9 -131v-575h-12v575q0 70 -8.5 126t-32.5 109.5t-63 88.5t-103.5 56.5t-150.5 21.5 q-39 0 -82 -9.5t-96 -40t-94 -77.5t-69 -130.5t-28 -191.5v-528h-12z" />
<glyph unicode="&#x126;" horiz-adv-x="1294" d="M25 1149v10h118v219h13v-219h983v219h12v-219h100v-10h-100v-1149h-12v723h-983v-723h-13v1149h-118zM156 733h983v416h-983v-416z" />
<glyph unicode="&#x127;" horiz-adv-x="997" d="M25 1233v10h98v227h12v-227h512v-10h-512v-567q15 74 47.5 133t72 93.5t86.5 57.5t86.5 31t76.5 8q88 0 154.5 -22t107 -58t65.5 -90.5t34 -112.5t9 -131v-575h-12v575q0 70 -8.5 126t-32.5 109.5t-63 88.5t-103.5 56.5t-150.5 21.5q-39 0 -82 -9.5t-96 -40t-94 -77.5 t-69 -130.5t-28 -191.5v-528h-12v1233h-98z" />
<glyph unicode="&#x128;" horiz-adv-x="380" d="M-86 1567q50 102 149 102q38 0 134 -45q92 -45 131 -45q79 0 127 86l12 -4q-54 -94 -139 -94q-43 0 -135 45q-96 45 -130 45q-90 0 -137 -94zM184 0v1378h13v-1378h-13z" />
<glyph unicode="&#x129;" horiz-adv-x="342" d="M-104 1219q50 102 149 102q37 0 133 -45q92 -45 131 -45q79 0 127 86l13 -4q-54 -94 -140 -94q-43 0 -135 45q-96 45 -129 45q-89 0 -137 -95zM166 0v979h12v-979h-12z" />
<glyph unicode="&#x12a;" horiz-adv-x="380" d="M-90 1585v17h559v-17h-559zM184 0v1378h13v-1378h-13z" />
<glyph unicode="&#x12b;" horiz-adv-x="342" d="M-106 1212v17h559v-17h-559zM166 0v979h12v-979h-12z" />
<glyph unicode="&#x12c;" horiz-adv-x="370" d="M-53 1733h12q1 -33 13 -67.5t36 -67.5t66.5 -54.5t97.5 -21.5q54 0 96.5 21t67.5 55t38.5 68t16.5 67h12q-3 -35 -17.5 -71.5t-40.5 -72.5t-71 -59t-102 -23t-102.5 23t-70.5 59t-38 73t-14 71zM168 0v1378h12v-1378h-12z" />
<glyph unicode="&#x12d;" horiz-adv-x="342" d="M-55 1370h12q1 -33 13 -67.5t36 -67.5t66.5 -54.5t97.5 -21.5q54 0 96.5 21t67.5 55t38.5 68t16.5 67h12q-3 -35 -17.5 -71.5t-40.5 -72t-71 -58.5t-102 -23t-102.5 23t-70.5 58.5t-38 72.5t-14 71zM166 0v979h12v-979h-12z" />
<glyph unicode="&#x12e;" horiz-adv-x="380" d="M27 -236q0 62 43.5 131.5t113.5 116.5v1366h13v-1378h-11q-65 -50 -104 -113t-39 -120q0 -59 38.5 -86t100.5 -27q74 0 148 29l4 -13q-72 -28 -156 -28q-67 0 -109 29t-42 93z" />
<glyph unicode="&#x12f;" horiz-adv-x="342" d="M6 -236q0 61 44.5 130.5t115.5 119.5v965h12v-979h-12q-65 -50 -104 -113t-39 -120q0 -59 38.5 -86t100.5 -27q73 0 147 29l4 -13q-72 -28 -155 -28q-67 0 -109.5 29t-42.5 93zM152 1272q0 6 6.5 12t13.5 6q6 0 12 -6t6 -12q0 -8 -5.5 -13.5t-12.5 -5.5q-8 0 -14 5t-6 14 z" />
<glyph unicode="&#x130;" horiz-adv-x="380" d="M172 1567q0 7 6.5 13.5t16.5 6.5t15 -6.5t5 -13.5q0 -10 -6.5 -15.5t-13.5 -5.5q-8 0 -15.5 5.5t-7.5 15.5zM184 0v1378h13v-1378h-13z" />
<glyph unicode="&#x131;" horiz-adv-x="342" d="M166 0v979h12v-979h-12z" />
<glyph unicode="&#x132;" horiz-adv-x="1351" d="M164 0v1378h12v-1378h-12zM338 342h12q-5 -63 14.5 -119.5t65.5 -105t131 -77t199 -28.5q207 0 316.5 111t109.5 305v950h12v-950q0 -200 -112.5 -314t-325.5 -114q-117 0 -204.5 30t-134.5 80.5t-68 109t-15 122.5z" />
<glyph unicode="&#x133;" horiz-adv-x="612" d="M139 1272q0 7 5.5 12.5t15.5 5.5q8 0 13 -5.5t5 -12.5q0 -8 -5.5 -13.5t-12.5 -5.5q-8 0 -14.5 5t-6.5 14zM154 0v979h12v-979h-12zM285 -408h32q77 0 104.5 41.5t27.5 143.5v1202h12v-1202q0 -108 -30 -152.5t-114 -44.5h-32v12zM434 1272q0 7 5.5 12.5t15.5 5.5 q8 0 13 -5.5t5 -12.5q0 -8 -5.5 -13.5t-12.5 -5.5q-8 0 -14.5 5t-6.5 14z" />
<glyph unicode="&#x134;" horiz-adv-x="1067" d="M43 344h12q-5 -63 14.5 -119.5t65.5 -105t131 -77t199 -28.5q207 0 316.5 111t109.5 305v950h12v-950q0 -200 -112.5 -314t-325.5 -114q-117 0 -204.5 30t-134.5 80.5t-68 109t-15 122.5zM616 1505l277 219h14l271 -213l-9 -8l-270 207l-274 -213z" />
<glyph unicode="&#x135;" horiz-adv-x="370" d="M-98 1122l286 256h15l280 -250l-8 -8l-280 244l-285 -250zM20 -408h33q77 0 104 41.5t27 143.5v1202h13v-1202q0 -108 -30 -152.5t-114 -44.5h-33v12z" />
<glyph unicode="&#x136;" horiz-adv-x="1083" d="M143 0v1378h13v-661h376l496 661h14l-499 -667l520 -711h-14l-517 705h-376v-705h-13zM434 -313l70 182q-11 0 -20 7.5t-9 19.5q0 10 8 18t19 8q12 0 19 -7t7 -17q0 -11 -6 -23l-80 -192z" />
<glyph unicode="&#x137;" horiz-adv-x="843" d="M123 0v1470h12v-923h311l359 432h14l-362 -438l370 -541h-16l-365 535h-311v-535h-12zM342 -340l70 182q-11 0 -20 7.5t-9 19.5q0 11 8.5 19t18.5 8q11 0 18.5 -7.5t7.5 -17.5q0 -11 -6 -23l-80 -192z" />
<glyph unicode="&#x138;" horiz-adv-x="843" d="M123 0v979h12v-465h326l344 465h14l-348 -471l356 -508h-16l-350 502h-326v-502h-12z" />
<glyph unicode="&#x139;" horiz-adv-x="1054" d="M115 1511l247 218l13 -13l-252 -213zM143 0v1378h13v-1366h868v-12h-881z" />
<glyph unicode="&#x13a;" horiz-adv-x="317" d="M133 1552l248 217l12 -12l-252 -213zM143 119v1351h13v-1351q0 -57 24 -82t101 -25v-12q-84 0 -111 27t-27 92z" />
<glyph unicode="&#x13b;" horiz-adv-x="1054" d="M143 0v1378h13v-1366h868v-12h-881zM510 -369l70 183q-11 0 -20 7.5t-9 18.5q0 10 8.5 18.5t18.5 8.5q11 0 18.5 -7.5t7.5 -17.5t-6 -22l-80 -193z" />
<glyph unicode="&#x13c;" horiz-adv-x="317" d="M113 -369l69 183q-11 0 -19.5 7t-8.5 19q0 11 8 19t18 8q12 0 19.5 -7.5t7.5 -17.5t-6 -22l-80 -193zM143 119v1351h13v-1351q0 -57 24 -82t101 -25v-12q-84 0 -111 27t-27 92z" />
<glyph unicode="&#x13d;" horiz-adv-x="1054" d="M143 0v1378h13v-1366h868v-12h-881zM678 1094l70 182q-11 0 -20 7.5t-9 19.5q0 11 7.5 18.5t18.5 7.5q12 0 19.5 -7.5t7.5 -16.5q0 -11 -6 -23l-80 -192z" />
<glyph unicode="&#x13e;" horiz-adv-x="471" d="M209 119v1351h12v-1351q0 -57 24 -82t101 -25v-12q-84 0 -110.5 27t-26.5 92zM350 1214l70 183q-11 0 -20 7.5t-9 18.5t8.5 19t18.5 8q11 0 18.5 -7.5t7.5 -17.5t-6 -22l-80 -193z" />
<glyph unicode="&#x13f;" horiz-adv-x="1054" d="M143 0v1378h13v-1366h868v-12h-881zM569 672q0 7 6.5 13.5t16.5 6.5t15 -6.5t5 -13.5q0 -10 -6.5 -15.5t-13.5 -5.5q-8 0 -15.5 5.5t-7.5 15.5z" />
<glyph unicode="&#x140;" horiz-adv-x="423" d="M164 119v1351h12v-1351q0 -57 24 -82t101 -25v-12q-84 0 -110.5 27t-26.5 92zM340 709q0 7 6 13.5t16 6.5t15.5 -6.5t5.5 -13.5q0 -10 -7 -15.5t-14 -5.5q-8 0 -15 5.5t-7 15.5z" />
<glyph unicode="&#x141;" horiz-adv-x="1054" d="M-47 473l190 111v794h13v-788l338 196l8 -12l-346 -201v-561h868v-12h-881v565l-182 -104z" />
<glyph unicode="&#x142;" horiz-adv-x="317" d="M-47 473l190 107v890h13v-882l180 102l8 -12l-188 -107v-452q0 -54 28 -80.5t97 -26.5v-12q-76 0 -107 28.5t-31 90.5v444l-182 -102z" />
<glyph unicode="&#x143;" horiz-adv-x="1302" d="M143 0v1378h13l991 -1358v1358h12v-1378h-12l-991 1360v-1360h-13zM604 1487l248 217l12 -12l-252 -213z" />
<glyph unicode="&#x144;" horiz-adv-x="997" d="M123 0v979h12v-313q15 74 47.5 133t72 93.5t86.5 57.5t86.5 31t76.5 8q88 0 154.5 -22t107 -58t65.5 -90.5t34 -112.5t9 -131v-575h-12v575q0 70 -8.5 126t-32.5 109.5t-63 88.5t-103.5 56.5t-150.5 21.5q-39 0 -82 -9.5t-96 -40t-94 -77.5t-69 -130.5t-28 -191.5v-528 h-12zM401 1145l215 252l15 -13l-221 -245z" />
<glyph unicode="&#x145;" horiz-adv-x="1302" d="M143 0v1378h13l991 -1358v1358h12v-1378h-12l-991 1360v-1360h-13zM549 -317l69 182q-11 0 -19.5 7.5t-8.5 18.5t8 19t18 8q12 0 19.5 -7.5t7.5 -16.5q0 -11 -6 -23l-80 -193z" />
<glyph unicode="&#x146;" horiz-adv-x="997" d="M123 0v979h12v-313q15 74 47.5 133t72 93.5t86.5 57.5t86.5 31t76.5 8q88 0 154.5 -22t107 -58t65.5 -90.5t34 -112.5t9 -131v-575h-12v575q0 70 -8.5 126t-32.5 109.5t-63 88.5t-103.5 56.5t-150.5 21.5q-39 0 -82 -9.5t-96 -40t-94 -77.5t-69 -130.5t-28 -191.5v-528 h-12zM434 -324l70 183q-11 0 -20 7.5t-9 18.5t8.5 19t18.5 8q11 0 18.5 -7.5t7.5 -17.5t-6 -22l-80 -193z" />
<glyph unicode="&#x147;" horiz-adv-x="1302" d="M143 0v1378h13l991 -1358v1358h12v-1378h-12l-991 1360v-1360h-13zM389 1712l8 8l275 -213l270 207l8 -8l-270 -213h-14z" />
<glyph unicode="&#x148;" horiz-adv-x="997" d="M123 0v979h12v-313q15 74 47.5 133t72 93.5t86.5 57.5t86.5 31t76.5 8q88 0 154.5 -22t107 -58t65.5 -90.5t34 -112.5t9 -131v-575h-12v575q0 70 -8.5 126t-32.5 109.5t-63 88.5t-103.5 56.5t-150.5 21.5q-39 0 -82 -9.5t-96 -40t-94 -77.5t-69 -130.5t-28 -191.5v-528 h-12zM182 1370l8 8l285 -250l281 244l8 -8l-281 -250h-14z" />
<glyph unicode="&#x149;" horiz-adv-x="1052" d="M4 997l70 183q-11 0 -20 7.5t-9 18.5q0 10 8.5 18.5t18.5 8.5q11 0 18.5 -7.5t7.5 -17.5t-6 -22l-80 -193zM178 0v979h12v-313q15 74 47.5 133t72 93.5t86.5 57.5t86.5 31t76.5 8q88 0 154.5 -22t107 -58t65.5 -90.5t34.5 -112.5t9.5 -131v-575h-12v575q0 70 -9 126 t-33 109.5t-63 88.5t-103.5 56.5t-150.5 21.5q-39 0 -82 -9.5t-96 -40t-94 -77.5t-69 -130.5t-28 -191.5v-528h-12z" />
<glyph unicode="&#x14a;" horiz-adv-x="1302" d="M143 0v1378h13l991 -1358v1358h12v-1609q0 -162 -166 -162q-43 0 -96 12l4 12q53 -12 92 -12q154 0 154 150v231l-991 1360v-1360h-13z" />
<glyph unicode="&#x14b;" horiz-adv-x="997" d="M123 0v979h12v-313q15 74 47.5 133t72 93.5t86.5 57.5t86.5 31t76.5 8q88 0 154.5 -22t107 -58t65.5 -90.5t34 -112.5t9 -131v-806q0 -162 -165 -162q-45 0 -97 12l4 12q52 -12 93 -12q153 0 153 150v806q0 70 -8.5 126t-32.5 109.5t-63 88.5t-103.5 56.5t-150.5 21.5 q-39 0 -82 -9.5t-96 -40t-94 -77.5t-69 -130.5t-28 -191.5v-528h-12z" />
<glyph unicode="&#x14c;" horiz-adv-x="1341" d="M123 684q0 122 18.5 225.5t61 193.5t106 153t157.5 99t212 36q117 0 209 -34.5t154 -96t102.5 -151t58 -194t17.5 -229.5q0 -340 -149 -517t-411 -177q-275 0 -405.5 169.5t-130.5 522.5zM135 684q0 -346 128 -513t396 -167q256 0 401.5 174.5t145.5 507.5q0 123 -17 225 t-56.5 190t-99.5 148.5t-150 94.5t-205 34q-116 0 -208 -35.5t-154 -97.5t-103 -150t-59.5 -190t-18.5 -221zM401 1585v17h560v-17h-560z" />
<glyph unicode="&#x14d;" horiz-adv-x="1013" d="M102 479q0 89 14 165t45 140.5t78 109t115.5 70t155.5 25.5q86 0 154.5 -25.5t114.5 -69.5t76 -108t43 -138t13 -161q0 -246 -106.5 -370.5t-294.5 -124.5q-216 0 -312 119.5t-96 367.5zM115 479q0 -242 93 -358.5t302 -116.5q181 0 285 121.5t104 361.5q0 107 -21 193 t-65.5 154t-121.5 105.5t-181 37.5q-105 0 -182.5 -37.5t-123 -106t-67.5 -156.5t-22 -198zM236 1212v17h559v-17h-559z" />
<glyph unicode="&#x14e;" horiz-adv-x="1341" d="M123 684q0 122 18.5 225.5t61 193.5t106 153t157.5 99t212 36q117 0 209 -34.5t154 -96t102.5 -151t58 -194t17.5 -229.5q0 -340 -149 -517t-411 -177q-275 0 -405.5 169.5t-130.5 522.5zM135 684q0 -346 128 -513t396 -167q256 0 401.5 174.5t145.5 507.5q0 123 -17 225 t-56.5 190t-99.5 148.5t-150 94.5t-205 34q-116 0 -208 -35.5t-154 -97.5t-103 -150t-59.5 -190t-18.5 -221zM455 1733h12q1 -33 13 -67.5t36 -67.5t66.5 -54.5t97.5 -21.5q54 0 96.5 21t67.5 55t38.5 68t16.5 67h12q-3 -35 -17.5 -71.5t-40.5 -72.5t-71 -59t-102 -23 t-102.5 23t-70.5 59t-38 73t-14 71z" />
<glyph unicode="&#x14f;" horiz-adv-x="1013" d="M102 479q0 89 14 165t45 140.5t78 109t115.5 70t155.5 25.5q86 0 154.5 -25.5t114.5 -69.5t76 -108t43 -138t13 -161q0 -246 -106.5 -370.5t-294.5 -124.5q-216 0 -312 119.5t-96 367.5zM115 479q0 -242 93 -358.5t302 -116.5q181 0 285 121.5t104 361.5q0 107 -21 193 t-65.5 154t-121.5 105.5t-181 37.5q-105 0 -182.5 -37.5t-123 -106t-67.5 -156.5t-22 -198zM289 1370h12q1 -33 13 -67.5t36 -67.5t66.5 -54.5t97.5 -21.5q54 0 96.5 21t67.5 55t38.5 68t16.5 67h12q-3 -35 -17.5 -71.5t-40.5 -72t-71 -58.5t-102 -23t-102.5 23t-70.5 58.5 t-38 72.5t-14 71z" />
<glyph unicode="&#x150;" horiz-adv-x="1341" d="M123 684q0 122 18.5 225.5t61 193.5t106 153t157.5 99t212 36q117 0 209 -34.5t154 -96t102.5 -151t58 -194t17.5 -229.5q0 -340 -149 -517t-411 -177q-275 0 -405.5 169.5t-130.5 522.5zM135 684q0 -346 128 -513t396 -167q256 0 401.5 174.5t145.5 507.5q0 123 -17 225 t-56.5 190t-99.5 148.5t-150 94.5t-205 34q-116 0 -208 -35.5t-154 -97.5t-103 -150t-59.5 -190t-18.5 -221zM539 1511l247 218l13 -13l-252 -213zM723 1511l248 218l12 -13l-252 -213z" />
<glyph unicode="&#x151;" horiz-adv-x="1013" d="M102 479q0 89 14 165t45 140.5t78 109t115.5 70t155.5 25.5q86 0 154.5 -25.5t114.5 -69.5t76 -108t43 -138t13 -161q0 -246 -106.5 -370.5t-294.5 -124.5q-216 0 -312 119.5t-96 367.5zM115 479q0 -242 93 -358.5t302 -116.5q181 0 285 121.5t104 361.5q0 107 -21 193 t-65.5 154t-121.5 105.5t-181 37.5q-105 0 -182.5 -37.5t-123 -106t-67.5 -156.5t-22 -198zM399 1145l215 252l15 -13l-221 -245zM563 1145l215 252l15 -13l-222 -245z" />
<glyph unicode="&#x152;" horiz-adv-x="1638" d="M123 684q0 122 18.5 225.5t61 193.5t106 153t157.5 99t212 36q68 0 131 -13h733v-12h-774v-610h711v-13h-711v-731h813v-12h-817q-66 -8 -105 -8q-275 0 -405.5 169.5t-130.5 522.5zM135 684q0 -346 128 -513t396 -167q66 0 97 6v1364q-50 4 -78 4q-116 0 -208 -35.5 t-154 -97.5t-103 -150t-59.5 -190t-18.5 -221z" />
<glyph unicode="&#x153;" horiz-adv-x="1767" d="M102 479q0 89 14 165t45 140.5t78 109t115.5 70t155.5 25.5q185 0 282 -109t115 -296q9 89 36.5 161t76 127.5t124.5 86t175 30.5q82 0 148.5 -25.5t108.5 -70.5t69.5 -106t31.5 -131.5t-6 -147.5h-756v-12q0 -94 9.5 -164t35.5 -134.5t70 -105t115.5 -64.5t169.5 -24 q79 0 141.5 19t100.5 49.5t62.5 71t33.5 80.5t6 81h12q3 -42 -6 -83.5t-34.5 -84t-65 -74t-104.5 -51.5t-146 -20q-110 0 -188 27.5t-123.5 82.5t-68.5 124.5t-30 166.5q-20 -200 -123.5 -300.5t-271.5 -100.5q-216 0 -312 119.5t-96 367.5zM115 479q0 -242 93 -358.5 t302 -116.5q181 0 285 121.5t104 361.5q0 107 -21 193t-65.5 154t-121.5 105.5t-181 37.5q-105 0 -182.5 -37.5t-123 -106t-67.5 -156.5t-22 -198zM915 520h746q18 123 -11.5 224.5t-114.5 167t-216 65.5q-105 0 -182.5 -34t-124 -97.5t-70 -144t-27.5 -181.5z" />
<glyph unicode="&#x154;" horiz-adv-x="1099" d="M143 0v1378h469q205 0 321 -106t116 -287q0 -54 -11.5 -104.5t-42.5 -102t-79 -89t-126.5 -61.5t-179.5 -24h-63l469 -604h-15l-469 604h-376v-604h-13zM156 616h456q97 0 172 22t121.5 57.5t77 85t42 99t11.5 105.5q0 175 -112.5 278t-311.5 103h-456v-750zM449 1511 l247 218l13 -13l-252 -213z" />
<glyph unicode="&#x155;" horiz-adv-x="559" d="M156 0v979h12v-313q15 74 47.5 133t72 93.5t86.5 57.5t86.5 31t76.5 8v-14q-41 0 -84 -9.5t-96 -39.5t-93.5 -76.5t-68 -130t-27.5 -191.5v-528h-12zM182 1145l215 252l15 -13l-222 -245z" />
<glyph unicode="&#x156;" horiz-adv-x="1099" d="M143 0v1378h469q205 0 321 -106t116 -287q0 -54 -11.5 -104.5t-42.5 -102t-79 -89t-126.5 -61.5t-179.5 -24h-63l469 -604h-15l-469 604h-376v-604h-13zM156 616h456q97 0 172 22t121.5 57.5t77 85t42 99t11.5 105.5q0 175 -112.5 278t-311.5 103h-456v-750zM469 -330 l70 183q-11 0 -20 7.5t-9 18.5t8 19t19 8t18.5 -7.5t7.5 -17.5t-6 -22l-80 -193z" />
<glyph unicode="&#x157;" horiz-adv-x="559" d="M98 -354l70 182q-11 0 -20 7.5t-9 19.5q0 10 8 18t19 8q12 0 19.5 -7.5t7.5 -16.5t-7 -23l-80 -192zM156 0v979h12v-313q15 74 47.5 133t72 93.5t86.5 57.5t86.5 31t76.5 8v-14q-41 0 -84 -9.5t-96 -39.5t-93.5 -76.5t-68 -130t-27.5 -191.5v-528h-12z" />
<glyph unicode="&#x158;" horiz-adv-x="1099" d="M143 0v1378h469q205 0 321 -106t116 -287q0 -54 -11.5 -104.5t-42.5 -102t-79 -89t-126.5 -61.5t-179.5 -24h-63l469 -604h-15l-469 604h-376v-604h-13zM156 616h456q97 0 172 22t121.5 57.5t77 85t42 99t11.5 105.5q0 175 -112.5 278t-311.5 103h-456v-750zM221 1712 l8 8l275 -213l270 207l8 -8l-270 -213h-14z" />
<glyph unicode="&#x159;" horiz-adv-x="559" d="M-133 1370l8 8l285 -250l280 244l9 -8l-281 -250h-14zM156 0v979h12v-313q15 74 47.5 133t72 93.5t86.5 57.5t86.5 31t76.5 8v-14q-41 0 -84 -9.5t-96 -39.5t-93.5 -76.5t-68 -130t-27.5 -191.5v-528h-12z" />
<glyph unicode="&#x15a;" horiz-adv-x="1189" d="M102 377q0 15 4 39h13q-4 -28 -4 -39q0 -165 119 -270t352 -105q107 0 193 22t141 58.5t92 87t52 103t15 110.5q0 159 -106 247t-314 118q-76 11 -125.5 19t-106.5 21.5t-92.5 29t-71 38.5t-54.5 52t-31 68.5t-12 88.5q0 139 111.5 233.5t326.5 94.5q91 0 165.5 -18.5 t124.5 -49.5t84 -73t49 -88t15 -95q0 -19 -2 -33h-12q2 12 2 31q0 61 -24.5 115.5t-73.5 100t-133.5 72.5t-194.5 27q-107 0 -190.5 -26t-134 -71t-76 -101t-25.5 -119q0 -34 5 -63t17.5 -52.5t26 -43t37.5 -35.5t44.5 -28t56 -23t62 -18.5t71.5 -15.5t76.5 -13t84.5 -13 q213 -32 323 -121t110 -256q0 -59 -16 -113t-53.5 -105.5t-94 -89t-144.5 -60.5t-198 -23q-239 0 -361.5 107t-122.5 278zM539 1511l247 218l13 -13l-252 -213z" />
<glyph unicode="&#x15b;" horiz-adv-x="911" d="M96 299h13q-19 -123 74 -209t261 -86q99 0 171.5 21.5t113 59t59.5 82t19 97.5q0 60 -23 105t-66.5 74t-96 46.5t-121.5 28.5q-76 12 -120.5 21t-94 27t-75.5 41.5t-43 62t-17 90.5q0 99 77.5 164t229.5 65q95 0 162.5 -22t101 -59.5t46 -80t7.5 -92.5h-12q4 48 -8 88.5 t-43.5 76.5t-96 56.5t-157.5 20.5q-149 0 -222 -61.5t-73 -155.5q0 -42 9.5 -73.5t32.5 -54.5t47.5 -38t69.5 -27.5t81.5 -19.5t99.5 -17q151 -24 234 -86t83 -180q0 -117 -91.5 -194.5t-283.5 -77.5q-174 0 -270.5 89.5t-77.5 217.5zM418 1145l215 252l14 -13l-221 -245z " />
<glyph unicode="&#x15c;" horiz-adv-x="1189" d="M102 377q0 15 4 39h13q-4 -28 -4 -39q0 -165 119 -270t352 -105q107 0 193 22t141 58.5t92 87t52 103t15 110.5q0 159 -106 247t-314 118q-76 11 -125.5 19t-106.5 21.5t-92.5 29t-71 38.5t-54.5 52t-31 68.5t-12 88.5q0 139 111.5 233.5t326.5 94.5q91 0 165.5 -18.5 t124.5 -49.5t84 -73t49 -88t15 -95q0 -19 -2 -33h-12q2 12 2 31q0 61 -24.5 115.5t-73.5 100t-133.5 72.5t-194.5 27q-107 0 -190.5 -26t-134 -71t-76 -101t-25.5 -119q0 -34 5 -63t17.5 -52.5t26 -43t37.5 -35.5t44.5 -28t56 -23t62 -18.5t71.5 -15.5t76.5 -13t84.5 -13 q213 -32 323 -121t110 -256q0 -59 -16 -113t-53.5 -105.5t-94 -89t-144.5 -60.5t-198 -23q-239 0 -361.5 107t-122.5 278zM328 1501l276 219h14l271 -213l-8 -8l-271 207l-274 -213z" />
<glyph unicode="&#x15d;" horiz-adv-x="911" d="M96 299h13q-19 -123 74 -209t261 -86q99 0 171.5 21.5t113 59t59.5 82t19 97.5q0 60 -23 105t-66.5 74t-96 46.5t-121.5 28.5q-76 12 -120.5 21t-94 27t-75.5 41.5t-43 62t-17 90.5q0 99 77.5 164t229.5 65q95 0 162.5 -22t101 -59.5t46 -80t7.5 -92.5h-12q4 48 -8 88.5 t-43.5 76.5t-96 56.5t-157.5 20.5q-149 0 -222 -61.5t-73 -155.5q0 -42 9.5 -73.5t32.5 -54.5t47.5 -38t69.5 -27.5t81.5 -19.5t99.5 -17q151 -24 234 -86t83 -180q0 -117 -91.5 -194.5t-283.5 -77.5q-174 0 -270.5 89.5t-77.5 217.5zM166 1122l287 256h14l281 -250l-9 -8 l-280 244l-285 -250z" />
<glyph unicode="&#x15e;" horiz-adv-x="1189" d="M102 377q0 15 4 39h13q-4 -28 -4 -39q0 -165 119 -270t352 -105q107 0 193 22t141 58.5t92 87t52 103t15 110.5q0 159 -106 247t-314 118q-76 11 -125.5 19t-106.5 21.5t-92.5 29t-71 38.5t-54.5 52t-31 68.5t-12 88.5q0 139 111.5 233.5t326.5 94.5q91 0 165.5 -18.5 t124.5 -49.5t84 -73t49 -88t15 -95q0 -19 -2 -33h-12q2 12 2 31q0 61 -24.5 115.5t-73.5 100t-133.5 72.5t-194.5 27q-107 0 -190.5 -26t-134 -71t-76 -101t-25.5 -119q0 -34 5 -63t17.5 -52.5t26 -43t37.5 -35.5t44.5 -28t56 -23t62 -18.5t71.5 -15.5t76.5 -13t84.5 -13 q213 -32 323 -121t110 -256q0 -73 -25.5 -138t-79 -122t-149.5 -92t-224 -39l-71 -123q30 10 69 10q62 0 110 -36t48 -99q0 -59 -49 -99t-133 -40q-66 0 -146 26l4 13q83 -27 142 -27q82 0 125 36t43 91q0 58 -43 90.5t-101 32.5q-42 0 -77 -12l-9 8l74 129h-14 q-239 0 -361.5 107t-122.5 278z" />
<glyph unicode="&#x15f;" horiz-adv-x="911" d="M96 299h13q-19 -123 74 -209t261 -86q99 0 171.5 21.5t113 59t59.5 82t19 97.5q0 60 -23 105t-66.5 74t-96 46.5t-121.5 28.5q-76 12 -120.5 21t-94 27t-75.5 41.5t-43 62t-17 90.5q0 99 77.5 164t229.5 65q95 0 162.5 -22t101 -59.5t46 -80t7.5 -92.5h-12q4 48 -8 88.5 t-43.5 76.5t-96 56.5t-157.5 20.5q-149 0 -222 -61.5t-73 -155.5q0 -42 9.5 -73.5t32.5 -54.5t47.5 -38t69.5 -27.5t81.5 -19.5t99.5 -17q151 -24 234 -86t83 -180q0 -112 -83.5 -188t-258.5 -82l-71 -127q30 10 69 10q63 0 110.5 -36t47.5 -99q0 -59 -49 -99t-133 -40 q-66 0 -146 26l4 13q83 -27 142 -27q82 0 124.5 36t42.5 91q0 58 -42.5 90.5t-100.5 32.5q-43 0 -78 -12l-8 8l76 131h-21q-174 0 -270.5 89.5t-77.5 217.5z" />
<glyph unicode="&#x160;" horiz-adv-x="1189" d="M102 377q0 15 4 39h13q-4 -28 -4 -39q0 -165 119 -270t352 -105q107 0 193 22t141 58.5t92 87t52 103t15 110.5q0 159 -106 247t-314 118q-76 11 -125.5 19t-106.5 21.5t-92.5 29t-71 38.5t-54.5 52t-31 68.5t-12 88.5q0 139 111.5 233.5t326.5 94.5q91 0 165.5 -18.5 t124.5 -49.5t84 -73t49 -88t15 -95q0 -19 -2 -33h-12q2 12 2 31q0 61 -24.5 115.5t-73.5 100t-133.5 72.5t-194.5 27q-107 0 -190.5 -26t-134 -71t-76 -101t-25.5 -119q0 -34 5 -63t17.5 -52.5t26 -43t37.5 -35.5t44.5 -28t56 -23t62 -18.5t71.5 -15.5t76.5 -13t84.5 -13 q213 -32 323 -121t110 -256q0 -59 -16 -113t-53.5 -105.5t-94 -89t-144.5 -60.5t-198 -23q-239 0 -361.5 107t-122.5 278zM319 1712l9 8l274 -213l270 207l9 -8l-271 -213h-14z" />
<glyph unicode="&#x161;" horiz-adv-x="911" d="M96 299h13q-19 -123 74 -209t261 -86q99 0 171.5 21.5t113 59t59.5 82t19 97.5q0 60 -23 105t-66.5 74t-96 46.5t-121.5 28.5q-76 12 -120.5 21t-94 27t-75.5 41.5t-43 62t-17 90.5q0 99 77.5 164t229.5 65q95 0 162.5 -22t101 -59.5t46 -80t7.5 -92.5h-12q4 48 -8 88.5 t-43.5 76.5t-96 56.5t-157.5 20.5q-149 0 -222 -61.5t-73 -155.5q0 -42 9.5 -73.5t32.5 -54.5t47.5 -38t69.5 -27.5t81.5 -19.5t99.5 -17q151 -24 234 -86t83 -180q0 -117 -91.5 -194.5t-283.5 -77.5q-174 0 -270.5 89.5t-77.5 217.5zM176 1370l8 8l285 -250l281 244l8 -8 l-281 -250h-14z" />
<glyph unicode="&#x162;" horiz-adv-x="1060" d="M20 1366v12h1020v-12h-499v-1366l-76 -131q30 10 70 10q62 0 109.5 -36t47.5 -99q0 -59 -49 -99t-133 -40q-65 0 -145 26l4 13q83 -27 141 -27q82 0 125 36t43 91q0 58 -42.5 90.5t-100.5 32.5q-43 0 -78 -12l-8 8l79 137v1366h-508z" />
<glyph unicode="&#x163;" horiz-adv-x="591" d="M31 967v12h190v268h12v-268h314v-12h-314v-691q0 -155 62 -213.5t199 -58.5q40 0 98 6v-12q-58 -6 -98 -6q-128 0 -185 41l-96 -164q30 10 70 10q62 0 109.5 -36t47.5 -99q0 -59 -49 -99t-133 -40q-65 0 -145 26l4 13q83 -27 141 -27q82 0 125 36t43 91q0 58 -42.5 90.5 t-100.5 32.5q-43 0 -78 -12l-8 8l102 176q-78 63 -78 237v691h-190z" />
<glyph unicode="&#x164;" horiz-adv-x="1060" d="M20 1366v12h1020v-12h-499v-1366h-13v1366h-508zM252 1712l8 8l275 -213l270 207l8 -8l-270 -213h-15z" />
<glyph unicode="&#x165;" horiz-adv-x="612" d="M31 967v12h190v268h12v-268h314v-12h-314v-691q0 -155 62 -213.5t199 -58.5q40 0 98 6v-12q-58 -6 -98 -6q-143 0 -208 61.5t-65 222.5v691h-190zM418 1153l69 182q-11 0 -19.5 7.5t-8.5 19.5q0 11 8 19t18 8q11 0 19 -7.5t8 -17.5q0 -11 -6 -23l-80 -192z" />
<glyph unicode="&#x166;" horiz-adv-x="1060" d="M20 1366v12h1020v-12h-499v-549h409v-10h-409v-807h-13v807h-407v10h407v549h-508z" />
<glyph unicode="&#x167;" horiz-adv-x="591" d="M31 967v12h190v268h12v-268h314v-12h-314v-318h312v-10h-312v-363q0 -155 62 -213.5t199 -58.5q40 0 98 6v-12q-58 -6 -98 -6q-143 0 -208 61.5t-65 222.5v363h-184v10h184v318h-190z" />
<glyph unicode="&#x168;" horiz-adv-x="1327" d="M143 573v805h13v-805q0 -135 25.5 -235.5t83 -177.5t158 -116.5t243.5 -39.5q134 0 233 42.5t157.5 121t86.5 180t28 227.5v803h13v-803q0 -129 -29 -232.5t-89.5 -183.5t-162 -123.5t-237.5 -43.5q-117 0 -206.5 27t-149 75.5t-97.5 121.5t-54 160t-16 197zM387 1550 q50 103 150 103q37 0 133 -45q92 -45 131 -45q79 0 127 86l12 -4q-54 -95 -139 -95q-43 0 -135 45q-96 45 -129 45q-91 0 -138 -94z" />
<glyph unicode="&#x169;" horiz-adv-x="987" d="M123 406v573h12v-573q0 -72 7 -126.5t29 -109t59.5 -89t101 -56t151.5 -21.5q39 0 82 9.5t96 40t94 77.5t69 130.5t28 191.5v526h12v-977h-12v313q-15 -74 -47.5 -133t-72 -93.5t-86.5 -57.5t-86.5 -31t-76.5 -8q-89 0 -155 22t-104.5 57.5t-62 91t-31 112.5t-7.5 131z M229 1219q50 102 150 102q37 0 133 -45q92 -45 131 -45q79 0 127 86l12 -4q-54 -94 -139 -94q-43 0 -135 45q-96 45 -129 45q-89 0 -137 -95z" />
<glyph unicode="&#x16a;" horiz-adv-x="1327" d="M143 573v805h13v-805q0 -135 25.5 -235.5t83 -177.5t158 -116.5t243.5 -39.5q134 0 233 42.5t157.5 121t86.5 180t28 227.5v803h13v-803q0 -129 -29 -232.5t-89.5 -183.5t-162 -123.5t-237.5 -43.5q-117 0 -206.5 27t-149 75.5t-97.5 121.5t-54 160t-16 197zM379 1567v16 h559v-16h-559z" />
<glyph unicode="&#x16b;" horiz-adv-x="987" d="M123 406v573h12v-573q0 -72 7 -126.5t29 -109t59.5 -89t101 -56t151.5 -21.5q39 0 82 9.5t96 40t94 77.5t69 130.5t28 191.5v526h12v-977h-12v313q-15 -74 -47.5 -133t-72 -93.5t-86.5 -57.5t-86.5 -31t-76.5 -8q-89 0 -155 22t-104.5 57.5t-62 91t-31 112.5t-7.5 131z M219 1212v17h559v-17h-559z" />
<glyph unicode="&#x16c;" horiz-adv-x="1327" d="M143 573v805h13v-805q0 -135 25.5 -235.5t83 -177.5t158 -116.5t243.5 -39.5q134 0 233 42.5t157.5 121t86.5 180t28 227.5v803h13v-803q0 -129 -29 -232.5t-89.5 -183.5t-162 -123.5t-237.5 -43.5q-117 0 -206.5 27t-149 75.5t-97.5 121.5t-54 160t-16 197zM453 1700h12 q1 -33 13 -67.5t36 -67.5t66.5 -54.5t97.5 -21.5q54 0 96.5 21t67.5 55t38.5 68t16.5 67h12q-3 -35 -17.5 -71.5t-40.5 -72t-71 -58.5t-102 -23t-102.5 23t-70.5 58.5t-38 72.5t-14 71z" />
<glyph unicode="&#x16d;" horiz-adv-x="987" d="M123 406v573h12v-573q0 -72 7 -126.5t29 -109t59.5 -89t101 -56t151.5 -21.5q39 0 82 9.5t96 40t94 77.5t69 130.5t28 191.5v526h12v-977h-12v313q-15 -74 -47.5 -133t-72 -93.5t-86.5 -57.5t-86.5 -31t-76.5 -8q-89 0 -155 22t-104.5 57.5t-62 91t-31 112.5t-7.5 131z M264 1370h12q1 -33 13 -67.5t36 -67.5t66.5 -54.5t97.5 -21.5q54 0 97 21t67.5 55t38.5 68t17 67h12q-3 -35 -17.5 -71.5t-41 -72t-71.5 -58.5t-102 -23t-102.5 23t-70.5 58.5t-38 72.5t-14 71z" />
<glyph unicode="&#x16e;" horiz-adv-x="1327" d="M143 573v805h13v-805q0 -135 25.5 -235.5t83 -177.5t158 -116.5t243.5 -39.5q134 0 233 42.5t157.5 121t86.5 180t28 227.5v803h13v-803q0 -129 -29 -232.5t-89.5 -183.5t-162 -123.5t-237.5 -43.5q-117 0 -206.5 27t-149 75.5t-97.5 121.5t-54 160t-16 197zM537 1597 q0 60 38.5 101t98.5 41q65 0 102 -41t37 -101t-37.5 -101.5t-101.5 -41.5q-59 0 -98 39.5t-39 103.5zM549 1597q0 -58 36 -94.5t89 -36.5q58 0 92.5 38.5t34.5 92.5t-34 91.5t-93 37.5q-54 0 -89.5 -37.5t-35.5 -91.5z" />
<glyph unicode="&#x16f;" horiz-adv-x="987" d="M123 406v573h12v-573q0 -72 7 -126.5t29 -109t59.5 -89t101 -56t151.5 -21.5q39 0 82 9.5t96 40t94 77.5t69 130.5t28 191.5v526h12v-977h-12v313q-15 -74 -47.5 -133t-72 -93.5t-86.5 -57.5t-86.5 -31t-76.5 -8q-89 0 -155 22t-104.5 57.5t-62 91t-31 112.5t-7.5 131z M375 1278q0 60 38.5 100.5t98.5 40.5q65 0 102 -40.5t37 -100.5t-37.5 -101.5t-101.5 -41.5q-59 0 -98 39.5t-39 103.5zM387 1278q0 -58 36 -94.5t89 -36.5q58 0 92.5 38.5t34.5 92.5t-34 91.5t-93 37.5q-54 0 -89.5 -37.5t-35.5 -91.5z" />
<glyph unicode="&#x170;" horiz-adv-x="1327" d="M143 573v805h13v-805q0 -135 25.5 -235.5t83 -177.5t158 -116.5t243.5 -39.5q134 0 233 42.5t157.5 121t86.5 180t28 227.5v803h13v-803q0 -129 -29 -232.5t-89.5 -183.5t-162 -123.5t-237.5 -43.5q-117 0 -206.5 27t-149 75.5t-97.5 121.5t-54 160t-16 197zM510 1511 l248 218l12 -13l-252 -213zM694 1511l248 218l12 -13l-252 -213z" />
<glyph unicode="&#x171;" horiz-adv-x="987" d="M123 406v573h12v-573q0 -72 7 -126.5t29 -109t59.5 -89t101 -56t151.5 -21.5q39 0 82 9.5t96 40t94 77.5t69 130.5t28 191.5v526h12v-977h-12v313q-15 -74 -47.5 -133t-72 -93.5t-86.5 -57.5t-86.5 -31t-76.5 -8q-89 0 -155 22t-104.5 57.5t-62 91t-31 112.5t-7.5 131z M346 1145l215 252l14 -13l-221 -245zM510 1145l215 252l14 -13l-221 -245z" />
<glyph unicode="&#x172;" horiz-adv-x="1327" d="M143 573v805h13v-805q0 -135 25.5 -235.5t83 -177.5t158 -116.5t243.5 -39.5q134 0 233 42.5t157.5 121t86.5 180t28 227.5v803h13v-803q0 -100 -17 -185t-55 -158t-95 -124.5t-140 -82t-187 -33.5q-66 -50 -106.5 -115t-40.5 -123q0 -112 139 -112q75 0 147 28l5 -12 q-74 -29 -156 -29q-67 0 -109.5 29.5t-42.5 93.5q0 59 40 125t106 115q-148 0 -252 40t-164 118.5t-86.5 181.5t-26.5 241z" />
<glyph unicode="&#x173;" horiz-adv-x="987" d="M123 406v573h12v-573q0 -72 7 -126.5t29 -109t59.5 -89t101 -56t151.5 -21.5q39 0 82 9.5t96 40t94 77.5t69 130.5t28 191.5v526h12v-977h-10q-66 -49 -105.5 -113.5t-39.5 -121.5q0 -59 38.5 -86t100.5 -27q73 0 147 29l4 -13q-72 -28 -155 -28q-67 0 -109.5 29 t-42.5 93q0 61 44.5 130.5t115.5 119.5v301q-15 -74 -47.5 -133t-72 -93.5t-86.5 -57.5t-86.5 -31t-76.5 -8q-89 0 -155 22t-104.5 57.5t-62 91t-31 112.5t-7.5 131z" />
<glyph unicode="&#x174;" horiz-adv-x="1759" d="M20 1378h15l385 -1360l454 1360h13l452 -1360l385 1360h15l-393 -1378h-11l-454 1360l-457 -1360h-10zM600 1501l277 219h14l270 -213l-8 -8l-270 207l-275 -213z" />
<glyph unicode="&#x175;" horiz-adv-x="1353" d="M20 979h13l295 -969l338 969h12l334 -969l299 969h12l-303 -979h-16l-332 963l-336 -963h-17zM381 1122l287 256h14l281 -250l-9 -8l-280 244l-285 -250z" />
<glyph unicode="&#x176;" horiz-adv-x="993" d="M16 1378h15l458 -776l474 776h14l-481 -790v-588h-13v588zM209 1495l276 219h15l270 -213l-8 -8l-270 207l-275 -213z" />
<glyph unicode="&#x177;" horiz-adv-x="806" d="M16 979h15l348 -973h47l350 973h15l-410 -1135q-12 -33 -16.5 -45.5t-16.5 -41.5t-20 -42t-22.5 -36t-27 -34t-32 -26t-40 -22t-47.5 -12t-57 -5h-75v12h75q61 0 105 17.5t75 61t44.5 72.5t38.5 95q1 2 1.5 3.5l1 3t1.5 3.5l53 148h-51zM133 1128l287 256h14l281 -249 l-8 -9l-281 244l-285 -250z" />
<glyph unicode="&#x178;" horiz-adv-x="993" d="M16 1378h15l458 -776l474 776h14l-481 -790v-588h-13v588zM324 1567q0 7 6 12.5t14 5.5t13 -5.5t5 -12.5q0 -19 -18 -19q-8 0 -14 5t-6 14zM625 1567q0 7 5 12.5t15 5.5q7 0 12 -6t5 -12q0 -9 -5 -14t-12 -5q-20 0 -20 19z" />
<glyph unicode="&#x179;" horiz-adv-x="1019" d="M20 0v12l932 1354h-884v12h899v-12l-930 -1354h962v-12h-979zM451 1511l247 218l13 -13l-252 -213z" />
<glyph unicode="&#x17a;" horiz-adv-x="774" d="M16 0v12l709 955h-651v12h667v-12l-706 -955h708v-12h-727zM334 1145l215 252l14 -13l-221 -245z" />
<glyph unicode="&#x17b;" horiz-adv-x="1019" d="M20 0v12l932 1354h-884v12h899v-12l-930 -1354h962v-12h-979zM502 1567q0 7 6 13.5t16 6.5t15.5 -6.5t5.5 -13.5q0 -10 -7 -15.5t-14 -5.5q-8 0 -15 5.5t-7 15.5z" />
<glyph unicode="&#x17c;" horiz-adv-x="774" d="M16 0v12l709 955h-651v12h667v-12l-706 -955h708v-12h-727zM369 1219q0 7 6 13.5t16 6.5t15.5 -6.5t5.5 -13.5q0 -10 -7 -15.5t-14 -5.5q-8 0 -15 5.5t-7 15.5z" />
<glyph unicode="&#x17d;" horiz-adv-x="1019" d="M20 0v12l932 1354h-884v12h899v-12l-930 -1354h962v-12h-979zM236 1712l8 8l274 -213l270 207l9 -8l-271 -213h-14z" />
<glyph unicode="&#x17e;" horiz-adv-x="774" d="M16 0v12l709 955h-651v12h667v-12l-706 -955h708v-12h-727zM117 1370l8 8l285 -250l280 244l8 -8l-280 -250h-15z" />
<glyph unicode="&#x192;" horiz-adv-x="1116" d="M137 -190l2 10q55 -10 90 -10q46 0 83.5 13.5t63.5 36.5t46.5 57.5t33.5 71t23 83.5t16.5 88t13.5 91q1 6 1 9l65 508h-196v12h199l26 205q11 85 21 136.5t27.5 102t42 76t62 41t91.5 15.5q56 0 125 -17l-2 -12q-65 16 -123 16q-51 0 -86.5 -15t-59 -39.5t-40 -73.5 t-26 -98t-20.5 -132l-26 -205h219v-12h-221l-66 -508q-25 -188 -50 -264q-55 -168 -187 -194q-27 -5 -56 -5q-33 0 -92 13z" />
<glyph unicode="&#x1a0;" horiz-adv-x="1341" d="M123 684q0 122 18.5 225.5t61 193.5t106 153t157.5 99t212 36q285 0 422 -203q119 3 168 54.5t49 168.5v117h12v-117q0 -121 -50.5 -176t-172.5 -59q113 -181 113 -490q0 -340 -149 -517t-411 -177q-275 0 -405.5 169.5t-130.5 522.5zM135 684q0 -346 128 -513t396 -167 q256 0 401.5 174.5t145.5 507.5q0 123 -17 225t-56.5 190t-99.5 148.5t-150 94.5t-205 34q-116 0 -208 -35.5t-154 -97.5t-103 -150t-59.5 -190t-18.5 -221z" />
<glyph unicode="&#x1a1;" horiz-adv-x="1013" d="M102 479q0 89 14 165t45 140.5t78 109t115.5 70t155.5 25.5q186 0 287 -115q119 3 168 55t49 169v116h12v-116q0 -121 -50 -176.5t-169 -59.5q104 -129 104 -375t-106.5 -370.5t-294.5 -124.5q-216 0 -312 119.5t-96 367.5zM115 479q0 -242 93 -358.5t302 -116.5 q181 0 285 121.5t104 361.5q0 107 -21 193t-65.5 154t-121.5 105.5t-181 37.5q-105 0 -182.5 -37.5t-123 -106t-67.5 -156.5t-22 -198z" />
<glyph unicode="&#x1af;" horiz-adv-x="1411" d="M143 573v805h13v-805q0 -135 25.5 -235.5t83 -177.5t158 -116.5t243.5 -39.5q134 0 233 42.5t157.5 121t86.5 180t28 227.5v803h13v-157q117 3 171 56t54 167v117h12v-117q0 -119 -56.5 -175t-180.5 -61v-633q0 -129 -29 -232.5t-89.5 -183.5t-162 -123.5t-237.5 -43.5 q-117 0 -206.5 27t-149 75.5t-97.5 121.5t-54 160t-16 197z" />
<glyph unicode="&#x1b0;" horiz-adv-x="1075" d="M123 406v573h12v-573q0 -72 7 -126.5t29 -109t59.5 -89t101 -56t151.5 -21.5q39 0 82 9.5t96 40t94 77.5t69 130.5t28 191.5v526h12v-100q116 3 164.5 54.5t48.5 168.5v117h13v-117q0 -123 -52 -178t-174 -58v-864h-12v313q-15 -74 -47.5 -133t-72 -93.5t-86.5 -57.5 t-86.5 -31t-76.5 -8q-89 0 -155 22t-104.5 57.5t-62 91t-31 112.5t-7.5 131z" />
<glyph unicode="&#x1fc;" horiz-adv-x="1789" d="M6 0l914 1378h786v-12h-768v-618h700v-13h-700v-723h795v-12h-807v557h-535l-368 -557h-17zM399 569h527v797zM1145 1511l248 218l12 -13l-252 -213z" />
<glyph unicode="&#x1fd;" horiz-adv-x="1693" d="M92 256q0 137 115.5 212t355.5 75h266v112q0 32 -2 57t-9.5 60t-20.5 61.5t-37.5 55t-57.5 46.5t-84 30t-114 12q-85 0 -149.5 -21.5t-99 -57t-50 -77t-12.5 -86.5h-13q-4 46 12 89.5t52.5 81t103.5 60.5t156 23q90 0 155.5 -23.5t100 -56.5t54 -82.5t24 -87t4.5 -84.5 v-16q28 162 127 256t276 94q136 0 224 -62.5t118.5 -164.5t9.5 -232h-755v-57q1 -89 11 -156.5t36.5 -128.5t70.5 -100t114.5 -61.5t166.5 -22.5q79 0 141.5 19t100.5 49.5t62.5 71t33.5 80.5t6 81h12q3 -42 -6 -83.5t-34.5 -84t-65 -74t-104.5 -51.5t-146 -20 q-193 0 -284.5 83t-116.5 244q-9 -70 -37 -126q-47 -92 -146 -146.5t-247 -54.5q-139 0 -228.5 65t-89.5 199zM104 256q0 -128 86.5 -190t219.5 -62q196 0 307.5 99t111.5 259v168h-266q-234 0 -346.5 -71.5t-112.5 -202.5zM842 543h745q18 122 -11.5 218.5t-114.5 156 t-216 59.5q-104 0 -181.5 -34.5t-123.5 -96t-69.5 -136.5t-28.5 -167zM889 1145l215 252l14 -13l-221 -245z" />
<glyph unicode="&#x1fe;" horiz-adv-x="1341" d="M123 684q0 122 18.5 225.5t61 193.5t106 153t157.5 99t212 36q268 0 405 -183l136 178l8 -8l-135 -180q127 -180 127 -512q0 -340 -149 -517t-411 -177q-247 0 -376 135l-129 -170l-9 8l129 170q-151 170 -151 549zM135 684q0 -373 148 -537l792 1051q-134 180 -397 180 q-116 0 -208 -35.5t-154 -97.5t-103 -150t-59.5 -190t-18.5 -221zM291 137q127 -133 368 -133q256 0 401.5 174.5t145.5 507.5q0 326 -123 502zM664 1511l247 218l13 -13l-252 -213z" />
<glyph unicode="&#x1ff;" horiz-adv-x="1013" d="M98 -25l105 129q-101 118 -101 375q0 89 14 165t45 140.5t78 109t115.5 70t155.5 25.5q199 0 301 -133l102 127l9 -8l-103 -127q92 -125 92 -361q0 -246 -106.5 -370.5t-294.5 -124.5q-201 0 -299 104l-105 -129zM115 479q0 -251 96 -364l592 733q-98 129 -293 129 q-105 0 -182.5 -37.5t-123 -106t-67.5 -156.5t-22 -198zM219 106q92 -102 291 -102q181 0 285 121.5t104 361.5q0 224 -88 351zM498 1145l215 252l14 -13l-221 -245z" />
<glyph unicode="&#x218;" horiz-adv-x="1189" d="M102 377q0 15 4 39h13q-4 -28 -4 -39q0 -165 119 -270t352 -105q107 0 193 22t141 58.5t92 87t52 103t15 110.5q0 159 -106 247t-314 118q-76 11 -125.5 19t-106.5 21.5t-92.5 29t-71 38.5t-54.5 52t-31 68.5t-12 88.5q0 139 111.5 233.5t326.5 94.5q91 0 165.5 -18.5 t124.5 -49.5t84 -73t49 -88t15 -95q0 -19 -2 -33h-12q2 12 2 31q0 61 -24.5 115.5t-73.5 100t-133.5 72.5t-194.5 27q-107 0 -190.5 -26t-134 -71t-76 -101t-25.5 -119q0 -34 5 -63t17.5 -52.5t26 -43t37.5 -35.5t44.5 -28t56 -23t62 -18.5t71.5 -15.5t76.5 -13t84.5 -13 q213 -32 323 -121t110 -256q0 -59 -16 -113t-53.5 -105.5t-94 -89t-144.5 -60.5t-198 -23q-239 0 -361.5 107t-122.5 278zM522 -369l70 183q-11 0 -20 7.5t-9 18.5q0 10 8.5 18.5t18.5 8.5q11 0 18.5 -7.5t7.5 -17.5t-6 -22l-80 -193z" />
<glyph unicode="&#x219;" horiz-adv-x="911" d="M96 299h13q-19 -123 74 -209t261 -86q99 0 171.5 21.5t113 59t59.5 82t19 97.5q0 60 -23 105t-66.5 74t-96 46.5t-121.5 28.5q-76 12 -120.5 21t-94 27t-75.5 41.5t-43 62t-17 90.5q0 99 77.5 164t229.5 65q95 0 162.5 -22t101 -59.5t46 -80t7.5 -92.5h-12q4 48 -8 88.5 t-43.5 76.5t-96 56.5t-157.5 20.5q-149 0 -222 -61.5t-73 -155.5q0 -42 9.5 -73.5t32.5 -54.5t47.5 -38t69.5 -27.5t81.5 -19.5t99.5 -17q151 -24 234 -86t83 -180q0 -117 -91.5 -194.5t-283.5 -77.5q-174 0 -270.5 89.5t-77.5 217.5zM403 -369l70 183q-11 0 -20 7.5 t-9 18.5q0 10 8 18.5t19 8.5t19 -7.5t8 -17.5t-6 -22l-80 -193z" />
<glyph unicode="&#x21a;" horiz-adv-x="1060" d="M20 1366v12h1020v-12h-499v-1366h-13v1366h-508zM471 -379l70 182q-11 0 -20 7.5t-9 19.5q0 10 8 18.5t19 8.5t18.5 -7.5t7.5 -17.5t-6 -22l-80 -193z" />
<glyph unicode="&#x21b;" horiz-adv-x="591" d="M31 967v12h190v268h12v-268h314v-12h-314v-691q0 -155 62 -213.5t199 -58.5q40 0 98 6v-12q-58 -6 -98 -6q-143 0 -208 61.5t-65 222.5v691h-190zM213 -385l70 182q-11 0 -20 7.5t-9 19.5q0 10 8 18t19 8t18.5 -7t7.5 -17q0 -11 -6 -23l-80 -192z" />
<glyph unicode="&#x259;" horiz-adv-x="966" d="M105 325.5q-4 70.5 6 147.5h755v12q0 94 -9.5 164t-35 134.5t-69.5 105t-115.5 64.5t-169.5 24q-79 0 -141.5 -19t-100.5 -49.5t-62.5 -71t-33.5 -80.5t-6 -81h-12q-3 42 6 83.5t34.5 84t65 74t104.5 51.5t146 20q100 0 174 -24.5t119 -66t72 -107.5t37 -138t10 -168 q0 -106 -23 -193t-71 -155.5t-130 -106.5t-192 -38q-82 0 -148.5 25.5t-108.5 70.5t-69.5 106t-31.5 131.5zM121 461q-18 -123 11.5 -224.5t114.5 -167t216 -65.5q84 0 151 23t112.5 63t76 98t45.5 125.5t18 147.5h-745z" />
<glyph unicode="&#x2b9;" horiz-adv-x="280" d="M45 862l225 465l19 -8l-234 -461z" />
<glyph unicode="&#x2c6;" horiz-adv-x="960" d="M209 1122l287 256h14l281 -250l-9 -8l-280 244l-285 -250z" />
<glyph unicode="&#x2c7;" horiz-adv-x="960" d="M209 1370l8 8l285 -250l280 244l9 -8l-281 -250h-14z" />
<glyph unicode="&#x2d8;" horiz-adv-x="958" d="M270 1370h13q1 -33 13 -67.5t36 -67.5t66.5 -54.5t97.5 -21.5q54 0 96.5 21t67.5 55t38.5 68t16.5 67h12q-3 -35 -17.5 -71.5t-40.5 -72t-71 -58.5t-102 -23t-102.5 23t-71 58.5t-38.5 72.5t-14 71z" />
<glyph unicode="&#x2d9;" horiz-adv-x="958" d="M475 1219q0 7 6.5 13.5t16.5 6.5t15 -6.5t5 -13.5q0 -10 -6.5 -15.5t-13.5 -5.5q-8 0 -15.5 5.5t-7.5 15.5z" />
<glyph unicode="&#x2da;" horiz-adv-x="958" d="M346 1296q0 60 38.5 101t98.5 41q65 0 102.5 -41t37.5 -101t-38 -101.5t-102 -41.5q-59 0 -98 39.5t-39 103.5zM358 1296q0 -58 36 -94.5t89 -36.5q58 0 92.5 38.5t34.5 92.5t-34 91.5t-93 37.5q-54 0 -89.5 -37.5t-35.5 -91.5z" />
<glyph unicode="&#x2db;" horiz-adv-x="958" d="M682 -236q0 61 44.5 130.5t115.5 119.5l8 -8q-68 -50 -110 -115.5t-42 -123.5q0 -59 38.5 -86t101.5 -27q73 0 147 29l4 -13q-72 -28 -155 -28q-67 0 -109.5 29t-42.5 93z" />
<glyph unicode="&#x2dc;" horiz-adv-x="960" d="M231 1219q50 102 150 102q37 0 133 -45q92 -45 131 -45q79 0 127 86l12 -4q-54 -94 -139 -94q-43 0 -135 45q-96 45 -129 45q-89 0 -137 -95z" />
<glyph unicode="&#x2dd;" horiz-adv-x="958" d="M342 1145l215 252l14 -13l-221 -245zM506 1145l215 252l14 -13l-221 -245z" />
<glyph unicode="&#x384;" horiz-adv-x="958" d="M469 1122l156 293l18 -8l-164 -289z" />
<glyph unicode="&#x385;" horiz-adv-x="958" d="M330 1204q0 7 6 13t14 6t13.5 -6t5.5 -13q0 -18 -19 -18q-20 0 -20 18zM438 1122l156 293l18 -8l-163 -289zM631 1204q0 19 18 19q19 0 19 -19q0 -18 -17 -18q-20 0 -20 18z" />
<glyph unicode="&#x386;" horiz-adv-x="1120" d="M31 0l518 1378h16l527 -1378h-15l-149 389h-738l-147 -389h-12zM37 1122l156 293l18 -8l-164 -289zM195 401h729l-367 965z" />
<glyph unicode="&#x387;" horiz-adv-x="286" d="M117 743q0 11 8 19t18 8q11 0 19 -8t8 -19q0 -10 -8 -18t-19 -8t-18.5 7.5t-7.5 18.5z" />
<glyph unicode="&#x388;" horiz-adv-x="1064" d="M-203 1122l156 293l18 -8l-164 -289zM143 0v1378h815v-12h-802v-651h749v-13h-749v-690h852v-12h-865z" />
<glyph unicode="&#x389;" horiz-adv-x="1294" d="M-205 1122l156 293l18 -8l-164 -289zM143 0v1378h13v-663h983v663h12v-1378h-12v702h-983v-702h-13z" />
<glyph unicode="&#x38a;" horiz-adv-x="380" d="M-176 1122l156 293l18 -8l-164 -289zM184 0v1378h13v-1378h-13z" />
<glyph unicode="&#x38c;" horiz-adv-x="1341" d="M-106 1122l155 293l19 -8l-164 -289zM123 684q0 122 18.5 225.5t61 193.5t106 153t157.5 99t212 36q117 0 209 -34.5t154 -96t102.5 -151t58 -194t17.5 -229.5q0 -340 -149 -517t-411 -177q-275 0 -405.5 169.5t-130.5 522.5zM135 684q0 -346 128 -513t396 -167 q256 0 401.5 174.5t145.5 507.5q0 123 -17 225t-56.5 190t-99.5 148.5t-150 94.5t-205 34q-116 0 -208 -35.5t-154 -97.5t-103 -150t-59.5 -190t-18.5 -221z" />
<glyph unicode="&#x38e;" horiz-adv-x="993" d="M-246 1122l156 293l18 -8l-164 -289zM16 1378h15l458 -776l474 776h14l-481 -790v-588h-13v588z" />
<glyph unicode="&#x38f;" horiz-adv-x="1376" d="M-139 1122l155 293l19 -8l-164 -289zM72 0v12h364q-94 35 -159.5 104t-99 162.5t-47 189.5t-13.5 212q0 111 18 211.5t61 194t108 161t165 108t225 40.5t225.5 -40.5t165 -108t108 -161t61.5 -194t18 -211.5q0 -106 -15 -202.5t-49 -191.5t-99.5 -167.5t-156.5 -106.5 h361v-12h-379v18q92 32 158.5 101.5t101.5 163t50.5 191t15.5 206.5t-17.5 207t-60 190t-106 158.5t-161.5 106.5t-221 40t-221 -40t-161.5 -106.5t-105.5 -158.5t-59.5 -190t-17.5 -207q0 -548 326 -662v-18h-383z" />
<glyph unicode="&#x390;" horiz-adv-x="342" d="M16 1204q0 6 6 12.5t15 6.5q8 0 13 -6t5 -13q0 -18 -18 -18q-21 0 -21 18zM125 1122l156 293l18 -8l-164 -289zM166 0v979h12v-979h-12zM317 1204q0 19 19 19q18 0 18 -19q0 -18 -16 -18q-21 0 -21 18z" />
<glyph unicode="&#x391;" horiz-adv-x="1120" d="M31 0l518 1378h16l527 -1378h-15l-149 389h-738l-147 -389h-12zM195 401h729l-367 965z" />
<glyph unicode="&#x392;" horiz-adv-x="1232" d="M143 0v1378h535q191 0 297 -88t106 -237q0 -50 -17 -102t-49.5 -100t-88 -83t-125.5 -45q66 -8 120.5 -33.5t91.5 -61t62.5 -79.5t37 -88.5t11.5 -89.5q0 -57 -12 -108t-43 -100t-78.5 -84.5t-123.5 -57t-173 -21.5h-551zM156 12h538q95 0 169 20.5t120 54.5t76 82 t41.5 97t11.5 105q0 65 -22.5 124.5t-67 110t-121 81t-174.5 30.5h-571v-705zM156 727h585q101 0 177.5 49t113.5 122.5t37 154.5q0 141 -101.5 227t-289.5 86h-522v-639z" />
<glyph unicode="&#x393;" horiz-adv-x="1017" d="M143 0v1378h824v-12h-811v-1366h-13z" />
<glyph unicode="&#x395;" horiz-adv-x="1064" d="M143 0v1378h815v-12h-802v-651h749v-13h-749v-690h852v-12h-865z" />
<glyph unicode="&#x396;" horiz-adv-x="1019" d="M20 0v12l932 1354h-884v12h899v-12l-930 -1354h962v-12h-979z" />
<glyph unicode="&#x397;" horiz-adv-x="1294" d="M143 0v1378h13v-663h983v663h12v-1378h-12v702h-983v-702h-13z" />
<glyph unicode="&#x398;" horiz-adv-x="1372" d="M123 680q0 130 20 238t63.5 197.5t109.5 151t161.5 95t216.5 33.5q152 0 261.5 -51t172.5 -147.5t92 -223t29 -291.5q0 -345 -146 -517.5t-417 -172.5q-296 0 -429.5 167t-133.5 521zM135 680q0 -348 130.5 -512t420.5 -164q265 0 408 169.5t143 508.5q0 162 -28 286 t-90 219t-169 145t-256 50q-147 0 -256 -50.5t-174.5 -144.5t-97 -220t-31.5 -287zM334 707v12h710v-12h-710z" />
<glyph unicode="&#x399;" horiz-adv-x="380" d="M184 0v1378h13v-1378h-13z" />
<glyph unicode="&#x39a;" horiz-adv-x="1083" d="M143 0v1378h13v-661h376l496 661h14l-499 -667l520 -711h-14l-517 705h-376v-705h-13z" />
<glyph unicode="&#x39b;" horiz-adv-x="1120" d="M31 0l518 1378h16l527 -1378h-15l-520 1366l-514 -1366h-12z" />
<glyph unicode="&#x39c;" horiz-adv-x="1583" d="M143 0v1378h11l630 -1142l643 1142h13v-1378h-13v1354l-639 -1137h-8l-624 1135v-1352h-13z" />
<glyph unicode="&#x39d;" horiz-adv-x="1302" d="M143 0v1378h13l991 -1358v1358h12v-1378h-12l-991 1360v-1360h-13z" />
<glyph unicode="&#x39e;" horiz-adv-x="1120" d="M72 0v12h977v-12h-977zM96 1366v12h916v-12h-916zM164 713v12h788v-12h-788z" />
<glyph unicode="&#x39f;" horiz-adv-x="1341" d="M123 684q0 122 18.5 225.5t61 193.5t106 153t157.5 99t212 36q117 0 209 -34.5t154 -96t102.5 -151t58 -194t17.5 -229.5q0 -340 -149 -517t-411 -177q-275 0 -405.5 169.5t-130.5 522.5zM135 684q0 -346 128 -513t396 -167q256 0 401.5 174.5t145.5 507.5q0 123 -17 225 t-56.5 190t-99.5 148.5t-150 94.5t-205 34q-116 0 -208 -35.5t-154 -97.5t-103 -150t-59.5 -190t-18.5 -221z" />
<glyph unicode="&#x3a0;" horiz-adv-x="1294" d="M143 0v1378h1008v-1378h-12v1366h-983v-1366h-13z" />
<glyph unicode="&#x3a1;" horiz-adv-x="1120" d="M143 0v1378h488q205 0 321.5 -120t116.5 -306q0 -58 -11.5 -111.5t-42.5 -109.5t-78.5 -97t-126 -67t-179.5 -26h-475v-541h-13zM156 553h475q98 0 175 25t123 65t76 94t41 106.5t11 108.5q0 179 -114 296.5t-312 117.5h-475v-813z" />
<glyph unicode="&#x3a3;" horiz-adv-x="1087" d="M78 0v12l516 731l-514 619v16h942v-12h-930l516 -623l-514 -731h963v-12h-979z" />
<glyph unicode="&#x3a4;" horiz-adv-x="1060" d="M20 1366v12h1020v-12h-499v-1366h-13v1366h-508z" />
<glyph unicode="&#x3a5;" horiz-adv-x="993" d="M16 1378h15l458 -776l474 776h14l-481 -790v-588h-13v588z" />
<glyph unicode="&#x3a6;" horiz-adv-x="1466" d="M123 696q0 133 35.5 242.5t107.5 195.5t192 134t279 49v61h13v-61q136 -1 241.5 -37.5t170.5 -95t107 -140.5t58 -166t16 -180q0 -86 -17.5 -166t-61 -159.5t-109 -138.5t-170 -96t-235.5 -38v-100h-13v100q-159 1 -279 47.5t-192 129.5t-107.5 188t-35.5 231zM135 696 q0 -122 34.5 -225t105 -184t188.5 -127t274 -47v1192q-156 -1 -274 -48.5t-188.5 -131.5t-105 -191.5t-34.5 -237.5zM750 113q130 1 232.5 37t166.5 93.5t106 135.5t59 156t17 163q0 95 -15.5 177.5t-56.5 163t-105 137.5t-167 92.5t-237 36.5v-1192z" />
<glyph unicode="&#x3a7;" horiz-adv-x="1097" d="M27 0l514 713l-475 665h14l469 -655l471 655h14l-479 -663l512 -715h-14l-506 705l-508 -705h-12z" />
<glyph unicode="&#x3a8;" horiz-adv-x="1441" d="M133 936v442h12v-442q0 -91 16.5 -167.5t57 -146.5t104 -118.5t163 -78t227.5 -30.5v983h12v-983q259 0 417 145t158 398v440h13v-440q0 -259 -161.5 -407t-426.5 -148v-383h-12v383q-131 1 -232.5 31t-166 79.5t-106 121t-58.5 150t-17 171.5z" />
<glyph unicode="&#x3a9;" horiz-adv-x="1376" d="M72 0v12h364q-94 35 -159.5 104t-99 162.5t-47 189.5t-13.5 212q0 111 18 211.5t61 194t108 161t165 108t225 40.5t225.5 -40.5t165 -108t108 -161t61.5 -194t18 -211.5q0 -106 -15 -202.5t-49 -191.5t-99.5 -167.5t-156.5 -106.5h361v-12h-379v18q92 32 158.5 101.5 t101.5 163t50.5 191t15.5 206.5t-17.5 207t-60 190t-106 158.5t-161.5 106.5t-221 40t-221 -40t-161.5 -106.5t-105.5 -158.5t-59.5 -190t-17.5 -207q0 -548 326 -662v-18h-383z" />
<glyph unicode="&#x3aa;" horiz-adv-x="380" d="M27 1595q0 7 6 13t14 6t13.5 -6t5.5 -13q0 -18 -19 -18q-20 0 -20 18zM184 0v1378h13v-1378h-13zM328 1595q0 7 5 13t15 6q7 0 12 -6t5 -13q0 -18 -17 -18q-20 0 -20 18z" />
<glyph unicode="&#x3ab;" horiz-adv-x="993" d="M16 1378h15l458 -776l474 776h14l-481 -790v-588h-13v588zM319 1579q0 6 6 12t15 6q8 0 13 -5.5t5 -12.5q0 -18 -18 -18q-21 0 -21 18zM621 1579q0 7 5 12.5t15 5.5q7 0 11.5 -5.5t4.5 -12.5q0 -18 -16 -18q-20 0 -20 18z" />
<glyph unicode="&#x3ac;" horiz-adv-x="1032" d="M102 489q0 113 23.5 203t72 157.5t129.5 103.5t191 36q62 0 118.5 -16t111 -51t94 -100t55.5 -154v313h12v-981h-12v328q-29 -158 -134 -247t-261 -89q-400 0 -400 497zM115 489q0 -485 387 -485q61 0 116.5 14.5t107 49t89 86t60 129.5t22.5 176v71q0 106 -25 187.5 t-63 129.5t-90.5 78.5t-100.5 41t-100 10.5q-108 0 -187 -35.5t-125.5 -101.5t-68.5 -153t-22 -198zM512 1122l156 293l18 -8l-164 -289z" />
<glyph unicode="&#x3ad;" horiz-adv-x="884" d="M92 276q0 -127 90 -205.5t285 -78.5q68 0 131 17.5t117 52.5t84.5 96t25.5 139h-12q4 -61 -14.5 -111t-52.5 -83.5t-80.5 -56t-96.5 -32.5t-102 -10q-189 0 -276 74.5t-87 197.5q0 107 72 181.5t186 74.5h189v13h-184q-45 0 -84.5 8.5t-76.5 27.5t-59 56t-22 88 q0 111 83 181.5t257 70.5q156 0 247 -70.5t76 -191.5h13q15 126 -79.5 200t-256.5 74q-180 0 -266 -73.5t-86 -190.5q0 -151 180 -188q-58 -16 -100 -48.5t-62.5 -71.5t-29.5 -73.5t-9 -67.5zM416 1122l155 293l19 -8l-164 -289z" />
<glyph unicode="&#x3ae;" horiz-adv-x="1007" d="M123 0v979h12v-313q15 74 47.5 133t72 93.5t86.5 57.5t86.5 31t76.5 8q88 0 154.5 -22t107 -58t65.5 -90.5t34 -112.5t9 -131v-575h-12v575q0 70 -8.5 126t-32.5 109.5t-63 88.5t-103.5 56.5t-150.5 21.5q-39 0 -82 -9.5t-96 -40t-94 -77.5t-69 -130.5t-28 -191.5v-528 h-12zM434 1122l156 293l18 -8l-164 -289z" />
<glyph unicode="&#x3af;" horiz-adv-x="342" d="M166 0v979h12v-979h-12zM168 1122l156 293l18 -8l-164 -289z" />
<glyph unicode="&#x3b0;" horiz-adv-x="1034" d="M123 379v600h12v-600q0 -185 94.5 -280t278.5 -95q185 0 288 95t103 280v600h12v-600q0 -191 -106 -289t-297 -98q-190 0 -287.5 98t-97.5 289zM352 1204q0 6 6 12.5t15 6.5q8 0 13 -6t5 -13q0 -18 -18 -18q-21 0 -21 18zM461 1122l155 293l19 -8l-164 -289zM653 1204 q0 19 19 19q18 0 18 -19q0 -18 -16 -18q-21 0 -21 18z" />
<glyph unicode="&#x3b1;" horiz-adv-x="1032" d="M102 489q0 113 23.5 203t72 157.5t129.5 103.5t191 36q62 0 118.5 -16t111 -51t94 -100t55.5 -154v313h12v-981h-12v328q-29 -158 -134 -247t-261 -89q-400 0 -400 497zM115 489q0 -485 387 -485q61 0 116.5 14.5t107 49t89 86t60 129.5t22.5 176v71q0 106 -25 187.5 t-63 129.5t-90.5 78.5t-100.5 41t-100 10.5q-108 0 -187 -35.5t-125.5 -101.5t-68.5 -153t-22 -198z" />
<glyph unicode="&#x3b2;" horiz-adv-x="1040" d="M123 -305v1362q0 190 96.5 304t288.5 114q173 0 257.5 -86.5t84.5 -229.5q0 -54 -18.5 -107.5t-67 -104t-119.5 -70.5q135 -21 214 -140.5t79 -281.5q0 -74 -13 -139.5t-43.5 -126t-76.5 -104t-116.5 -69.5t-158.5 -26q-158 0 -262 81.5t-133 229.5v-606h-12zM135 432 q0 -197 102 -313.5t293 -116.5q86 0 154.5 25.5t113 68.5t74 102t42 122.5t12.5 134.5q0 110 -38 203t-114.5 151.5t-177.5 58.5h-164v13h139q59 0 107 20t77 50.5t48.5 68.5t27 71.5t7.5 63.5q0 138 -80 222.5t-250 84.5q-186 0 -279.5 -110.5t-93.5 -294.5v-625z" />
<glyph unicode="&#x3b3;" horiz-adv-x="829" d="M16 983q18 6 29 6q22 0 34.5 -18t41.5 -94l307 -828l367 930h14l-375 -950v-449h-12v449l-313 843q-26 68 -37.5 86.5t-26.5 18.5q-7 0 -25 -6z" />
<glyph unicode="&#x3b4;" horiz-adv-x="1013" d="M102 471q0 262 114 389t327 127q120 0 221 -39q-84 120 -228.5 239t-375.5 267v12h688v-12h-668q206 -131 338 -235.5t224.5 -219.5t131.5 -235.5t39 -271.5q0 -110 -22 -198t-69 -156.5t-127.5 -106t-190.5 -37.5q-212 0 -307 123.5t-95 353.5zM115 471 q0 -224 91.5 -344.5t297.5 -120.5q107 0 185 37t123.5 104t67 152.5t21.5 192.5q0 250 -125 438q-104 45 -233 45q-207 0 -317.5 -124t-110.5 -380z" />
<glyph unicode="&#x3b5;" horiz-adv-x="884" d="M92 276q0 33 9 67.5t29.5 73.5t62.5 71.5t100 48.5q-180 37 -180 188q0 117 86 190.5t266 73.5q162 0 256.5 -74t79.5 -200h-13q15 121 -76 191.5t-247 70.5q-174 0 -257 -70.5t-83 -181.5q0 -51 22 -88t59 -56t76.5 -27.5t84.5 -8.5h184v-13h-189q-114 0 -186 -74.5 t-72 -181.5q0 -123 87 -197.5t276 -74.5q52 0 102 10t96.5 32.5t80.5 56t52.5 83.5t14.5 111h12q5 -78 -25.5 -139t-84.5 -96t-117 -52.5t-131 -17.5q-195 0 -285 78.5t-90 205.5z" />
<glyph unicode="&#x3b6;" horiz-adv-x="790" d="M102 434q0 370 748 1012h-684v12h702v-12q-148 -125 -271.5 -246.5t-237.5 -257.5t-179 -267.5t-65 -240.5q0 -74 26 -133.5t77.5 -104.5t108 -76.5t138.5 -66.5q184 -77 246.5 -119.5t62.5 -91.5q0 -39 -29 -89.5t-90 -127.5l-10 8q58 73 86.5 122t28.5 87 q0 43 -59.5 83t-239.5 116q-63 27 -105.5 48t-95 57t-83.5 74t-53 93.5t-22 120.5z" />
<glyph unicode="&#x3b7;" horiz-adv-x="997" d="M123 0v979h12v-313q15 74 47.5 133t72 93.5t86.5 57.5t86.5 31t76.5 8q88 0 154.5 -22t107 -58t65.5 -90.5t34 -112.5t9 -131v-575h-12v575q0 70 -8.5 126t-32.5 109.5t-63 88.5t-103.5 56.5t-150.5 21.5q-39 0 -82 -9.5t-96 -40t-94 -77.5t-69 -130.5t-28 -191.5v-528 h-12z" />
<glyph unicode="&#x3b8;" horiz-adv-x="1050" d="M102 725q0 167 20.5 296.5t67.5 235t132 162t206 56.5q76 0 138 -21.5t105 -58t75.5 -92.5t51.5 -116.5t30.5 -139.5t15.5 -152t4 -162q0 -79 -4 -147.5t-15.5 -145.5t-30.5 -139.5t-51.5 -121t-75.5 -98t-105 -63.5t-138 -24q-102 0 -178 38.5t-122.5 102.5t-75.5 160.5 t-39.5 199t-10.5 230.5zM115 725q0 -126 10 -226.5t37.5 -195.5t73 -158t119.5 -101t173 -38q85 0 152 30t110.5 85.5t73.5 122.5t45 154t21 165t6 170v39h-821v-47zM115 784h821q-1 81 -6.5 149.5t-18.5 139.5t-32.5 127t-51 106.5t-72.5 83.5t-99 52.5t-128 19.5 q-91 0 -161 -34t-116 -93t-76 -146.5t-43.5 -185.5t-16.5 -219z" />
<glyph unicode="&#x3b9;" horiz-adv-x="342" d="M166 0v979h12v-979h-12z" />
<glyph unicode="&#x3ba;" horiz-adv-x="843" d="M123 0v979h12v-465h326l344 465h14l-348 -471l356 -508h-16l-350 502h-326v-502h-12z" />
<glyph unicode="&#x3bb;" horiz-adv-x="874" d="M31 0l375 954h43l-121 340q-35 96 -68.5 129t-107.5 33h-78v12h78q81 0 117 -36.5t71 -133.5l434 -1212q16 -45 25.5 -59.5t27.5 -14.5q13 0 29 4l2 -12q-20 -4 -31 -4q-24 0 -35 15t-30 67l-309 860h-39l-369 -942h-14z" />
<glyph unicode="&#x3bd;" horiz-adv-x="833" d="M16 979h13l385 -969l387 969h12l-391 -979h-16z" />
<glyph unicode="&#x3be;" horiz-adv-x="825" d="M102 428q0 48 9 96.5t33 103t60.5 98.5t98 79.5t139.5 48.5q-88 15 -150.5 49t-93.5 79t-44 87.5t-13 89.5q0 134 94.5 224t280.5 90q170 0 263.5 -73t80.5 -200h-12q13 120 -77.5 190t-254.5 70q-93 0 -164 -24t-113.5 -66.5t-63.5 -96t-21 -116.5q0 -82 36.5 -143 t97.5 -93.5t127 -47.5t138 -15h160v-12h-203q-82 0 -150 -25.5t-112.5 -67.5t-75 -97t-44 -112t-13.5 -116q0 -79 30 -139t96.5 -108t151.5 -84.5t215 -76.5q119 -36 156 -63t37 -66q0 -49 -96 -194l-11 6q43 65 68.5 117t25.5 71q0 34 -35.5 58t-148.5 59 q-102 32 -173 59.5t-137 65t-105.5 78t-63 95.5t-23.5 122z" />
<glyph unicode="&#x3bf;" horiz-adv-x="1013" d="M102 479q0 89 14 165t45 140.5t78 109t115.5 70t155.5 25.5q86 0 154.5 -25.5t114.5 -69.5t76 -108t43 -138t13 -161q0 -246 -106.5 -370.5t-294.5 -124.5q-216 0 -312 119.5t-96 367.5zM115 479q0 -242 93 -358.5t302 -116.5q181 0 285 121.5t104 361.5q0 107 -21 193 t-65.5 154t-121.5 105.5t-181 37.5q-105 0 -182.5 -37.5t-123 -106t-67.5 -156.5t-22 -198z" />
<glyph unicode="&#x3c0;" horiz-adv-x="1019" d="M123 0v979h774v-979h-12v967h-750v-967h-12z" />
<glyph unicode="&#x3c1;" horiz-adv-x="1044" d="M123 -420v946q0 100 23.5 182t72 146t130 99.5t188.5 35.5q204 0 304.5 -130.5t100.5 -360.5q0 -111 -22.5 -200t-70.5 -159t-131 -108.5t-196 -38.5q-159 0 -260 85t-127 249v-746h-12zM135 459q0 -119 30 -208.5t83.5 -142.5t122 -78.5t151.5 -25.5q89 0 159 25.5 t116.5 70t76.5 107.5t43 135t13 156q0 225 -98.5 352t-294.5 127q-86 0 -156.5 -25t-127 -78.5t-87.5 -147t-31 -220.5v-47z" />
<glyph unicode="&#x3c2;" horiz-adv-x="892" d="M98 463q0 88 12.5 162t43.5 142.5t78.5 116t122.5 75.5t171 28q49 0 96.5 -7.5t96.5 -26.5t84 -48.5t54 -78t11 -109.5h-12q7 59 -11.5 105.5t-52.5 74.5t-81.5 46t-92.5 25t-92 7q-94 0 -166.5 -27.5t-119 -74.5t-76 -113.5t-41.5 -139t-12 -157.5q0 -66 15.5 -118 t42 -91t75 -75t102 -64t135.5 -64q172 -75 210 -102q42 -29 42 -60q0 -18 -19.5 -55.5t-38 -66.5t-57.5 -86l-10 6q113 164 113 202q0 30 -52.5 60t-191.5 90q-85 37 -141 67t-105 67t-76 77t-42 93t-15 120z" />
<glyph unicode="&#x3c3;" horiz-adv-x="1062" d="M106 475q0 231 101.5 367.5t312.5 136.5h461v-12h-346q150 -35 221.5 -163.5t71.5 -320.5q0 -245 -109.5 -368t-298.5 -123q-217 0 -315.5 118.5t-98.5 364.5zM119 475q0 -240 95 -355.5t306 -115.5q182 0 288.5 120t106.5 359q0 106 -22 191.5t-67.5 152.5t-123 103.5 t-182.5 36.5q-84 0 -151.5 -24t-114 -67.5t-77 -105.5t-44.5 -135t-14 -160z" />
<glyph unicode="&#x3c4;" horiz-adv-x="700" d="M16 967v12h627v-12h-338v-691q0 -155 61.5 -213.5t198.5 -58.5q41 0 99 6v-12q-58 -6 -99 -6q-143 0 -207.5 61.5t-64.5 222.5v691h-277z" />
<glyph unicode="&#x3c5;" horiz-adv-x="1034" d="M123 379v600h12v-600q0 -185 94.5 -280t278.5 -95q185 0 288 95t103 280v600h12v-600q0 -191 -106 -289t-297 -98q-190 0 -287.5 98t-97.5 289z" />
<glyph unicode="&#x3c6;" horiz-adv-x="1228" d="M102 489q0 104 23.5 190t80 157t142.5 108l4 -12q-83 -36 -137.5 -105t-77 -152.5t-22.5 -185.5q0 -75 14 -141t48.5 -129t87.5 -109t138 -75t193 -31v979h35q495 0 495 -494q0 -76 -14 -143t-50.5 -133.5t-93 -114t-149 -77t-211.5 -29.5v-412h-12v412q-110 2 -197 32 t-142 77t-90.5 112t-50 132.5t-14.5 143.5zM608 4q117 0 207 28.5t145.5 75t91 111.5t49 130.5t13.5 139.5q0 482 -483 482h-23v-967z" />
<glyph unicode="&#x3c7;" horiz-adv-x="800" d="M20 0l369 502l-350 477h14l342 -469l346 469h15l-353 -475l373 -504h-14l-365 494l-362 -494h-15z" />
<glyph unicode="&#x3c8;" horiz-adv-x="1138" d="M119 401v578h12v-578q0 -108 29.5 -185.5t86.5 -123.5t133 -67.5t177 -22.5v977h12v-977q69 1 130.5 14t119 43t99 75t66 115t24.5 157v573h12v-573q0 -111 -37.5 -194t-103 -130t-143 -69t-167.5 -23v-410h-12v410q-213 2 -325.5 98t-112.5 313z" />
<glyph unicode="&#x3c9;" horiz-adv-x="1558" d="M102 483q0 506 387 506v-12q-105 0 -179 -36.5t-116 -105t-60.5 -155t-18.5 -197.5q0 -84 6.5 -147t28 -128t58.5 -106.5t101 -67.5t152 -26q140 0 226.5 85t86.5 212v326h12v-355q0 -119 94 -193.5t224 -74.5q85 0 148.5 30t99 75t57.5 111.5t28.5 126.5t6.5 132 q0 88 -11.5 160.5t-38.5 135.5t-69 106t-107 67.5t-149 24.5v12q108 -1 185 -39t120.5 -108t62.5 -158t19 -201q0 -52 -3 -96t-12.5 -95t-25.5 -92t-43.5 -80.5t-64 -65.5t-90 -42t-119.5 -16q-113 0 -207.5 65.5t-112.5 163.5q-30 -104 -114.5 -166.5t-202.5 -62.5 q-66 0 -119 13.5t-90 37t-64.5 60t-43.5 75.5t-25.5 91t-13 100.5t-3.5 109.5z" />
<glyph unicode="&#x3ca;" horiz-adv-x="342" d="M4 1204q0 6 6 12.5t15 6.5q8 0 13 -6t5 -13q0 -18 -18 -18q-21 0 -21 18zM166 0v979h12v-979h-12zM305 1204q0 7 5.5 13t15.5 6q7 0 11.5 -6t4.5 -13q0 -18 -16 -18q-21 0 -21 18z" />
<glyph unicode="&#x3cb;" horiz-adv-x="1034" d="M123 379v600h12v-600q0 -185 94.5 -280t278.5 -95q185 0 288 95t103 280v600h12v-600q0 -191 -106 -289t-297 -98q-190 0 -287.5 98t-97.5 289zM344 1204q0 6 6 12.5t15 6.5q8 0 13 -6t5 -13q0 -18 -18 -18q-21 0 -21 18zM645 1204q0 7 5.5 13t15.5 6q7 0 11.5 -6 t4.5 -13q0 -18 -16 -18q-21 0 -21 18z" />
<glyph unicode="&#x3cc;" horiz-adv-x="1013" d="M102 479q0 89 14 165t45 140.5t78 109t115.5 70t155.5 25.5q86 0 154.5 -25.5t114.5 -69.5t76 -108t43 -138t13 -161q0 -246 -106.5 -370.5t-294.5 -124.5q-216 0 -312 119.5t-96 367.5zM115 479q0 -242 93 -358.5t302 -116.5q181 0 285 121.5t104 361.5q0 107 -21 193 t-65.5 154t-121.5 105.5t-181 37.5q-105 0 -182.5 -37.5t-123 -106t-67.5 -156.5t-22 -198zM489 1122l156 293l19 -8l-164 -289z" />
<glyph unicode="&#x3cd;" horiz-adv-x="1034" d="M123 379v600h12v-600q0 -185 94.5 -280t278.5 -95q185 0 288 95t103 280v600h12v-600q0 -191 -106 -289t-297 -98q-190 0 -287.5 98t-97.5 289zM481 1122l156 293l18 -8l-163 -289z" />
<glyph unicode="&#x3ce;" horiz-adv-x="1558" d="M102 483q0 -61 3.5 -109.5t13 -100.5t25.5 -91t43.5 -75.5t64.5 -60t90 -37t119 -13.5q118 0 202.5 62.5t114.5 166.5q18 -98 112.5 -163.5t207.5 -65.5q66 0 119.5 16t90 42t64 65.5t43.5 80.5t25.5 92t12.5 95t3 96q0 113 -19 201t-62.5 158t-120.5 108t-185 39v-12 q84 0 149 -24.5t107 -67.5t69 -106t38.5 -135.5t11.5 -160.5q0 -72 -6.5 -132t-28.5 -126.5t-57.5 -111.5t-99 -75t-148.5 -30q-130 0 -224 74.5t-94 193.5v355h-12v-326q0 -127 -86.5 -212t-226.5 -85q-88 0 -152 26t-101 67.5t-58.5 106.5t-28 128t-6.5 147 q0 111 18.5 197.5t60.5 155t116 105t179 36.5v12q-387 0 -387 -506zM766 1122l156 293l18 -8l-164 -289z" />
<glyph unicode="&#x3e0;" horiz-adv-x="1269" d="M168 1317v12q244 -32 434 -126t312.5 -235.5t185.5 -323t63 -394.5q0 -208 -28 -330l-13 4q29 126 29 326q0 203 -59 383q-177 -100 -695 -385l-4 12q521 287 694 385q-69 191 -200 334l-686 -379l-4 12l680 377q-256 265 -709 328z" />
<glyph unicode="&#x3e1;" horiz-adv-x="1083" d="M117 1016v12q169 -24 309 -86.5t241.5 -154.5t172 -212t105 -261.5t34.5 -299.5q0 -182 -25 -309l-12 4q25 128 25 305q0 190 -52 355l-598 -357l-8 13l602 358q-56 177 -174 313l-590 -352l-8 12l590 351q-222 252 -612 309z" />
<glyph unicode="&#x401;" horiz-adv-x="1064" d="M143 0v1378h815v-12h-802v-651h749v-13h-749v-690h852v-12h-865zM383 1595q0 7 6 13t14 6t13.5 -6t5.5 -13q0 -18 -19 -18q-20 0 -20 18zM684 1595q0 7 5.5 13t15.5 6q7 0 11.5 -6t4.5 -13q0 -18 -16 -18q-21 0 -21 18z" />
<glyph unicode="&#x402;" horiz-adv-x="1521" d="M16 1366v12h1184v-12h-702v-627q71 88 197.5 140.5t246.5 52.5q112 0 197 -34t133 -86t78 -124t39.5 -136.5t9.5 -135.5q0 -80 -9.5 -146t-38 -134.5t-75.5 -115t-127.5 -77.5t-187.5 -33v12q104 2 182 31.5t123.5 75.5t73 113t37 131t9.5 143q0 49 -4.5 93.5t-17 96.5 t-32.5 95.5t-54.5 85t-80 70t-110.5 46t-145 17.5q-121 0 -244.5 -52t-199.5 -145v-723h-13v1366h-469z" />
<glyph unicode="&#x403;" horiz-adv-x="1017" d="M143 0v1378h824v-12h-811v-1366h-13zM463 1536l248 217l12 -12l-252 -213z" />
<glyph unicode="&#x404;" horiz-adv-x="1226" d="M123 678q0 161 31 288.5t96 224t173 148.5t253 52q66 0 130 -13.5t122 -43t100 -72t63 -105t13 -137.5h-12q8 72 -12.5 133t-61 101.5t-97.5 69t-118.5 41.5t-126.5 13q-139 0 -242.5 -47.5t-167 -136.5t-95.5 -206.5t-36 -266.5h727v-12h-727v-31q0 -124 15.5 -223 t52.5 -185t96 -143.5t150 -90t210 -32.5q238 0 357.5 111t103.5 278h13q16 -173 -107.5 -287t-366.5 -114q-122 0 -214.5 33t-153 91t-98.5 145.5t-54 188.5t-16 228z" />
<glyph unicode="&#x405;" horiz-adv-x="1189" d="M102 377q0 15 4 39h13q-4 -28 -4 -39q0 -165 119 -270t352 -105q107 0 193 22t141 58.5t92 87t52 103t15 110.5q0 159 -106 247t-314 118q-76 11 -125.5 19t-106.5 21.5t-92.5 29t-71 38.5t-54.5 52t-31 68.5t-12 88.5q0 139 111.5 233.5t326.5 94.5q91 0 165.5 -18.5 t124.5 -49.5t84 -73t49 -88t15 -95q0 -19 -2 -33h-12q2 12 2 31q0 61 -24.5 115.5t-73.5 100t-133.5 72.5t-194.5 27q-107 0 -190.5 -26t-134 -71t-76 -101t-25.5 -119q0 -34 5 -63t17.5 -52.5t26 -43t37.5 -35.5t44.5 -28t56 -23t62 -18.5t71.5 -15.5t76.5 -13t84.5 -13 q213 -32 323 -121t110 -256q0 -59 -16 -113t-53.5 -105.5t-94 -89t-144.5 -60.5t-198 -23q-239 0 -361.5 107t-122.5 278z" />
<glyph unicode="&#x406;" horiz-adv-x="380" d="M184 0v1378h13v-1378h-13z" />
<glyph unicode="&#x407;" horiz-adv-x="380" d="M25 1571q0 7 5.5 12.5t14.5 5.5q8 0 13 -5.5t5 -12.5q0 -19 -18 -19q-8 0 -14 5t-6 14zM184 0v1378h13v-1378h-13zM326 1571q0 7 5 12.5t15 5.5q7 0 11.5 -5.5t4.5 -12.5q0 -19 -16 -19q-20 0 -20 19z" />
<glyph unicode="&#x408;" horiz-adv-x="1067" d="M43 342h12q-5 -63 14.5 -119.5t65.5 -105t131 -77t199 -28.5q207 0 316.5 111t109.5 305v950h12v-950q0 -200 -112.5 -314t-325.5 -114q-117 0 -204.5 30t-134.5 80.5t-68 109t-15 122.5z" />
<glyph unicode="&#x409;" horiz-adv-x="1984" d="M20 4q69 1 121.5 24.5t85 60.5t54.5 93.5t32 111t15 124.5l75 960h586v-602h469q98 0 174.5 -21.5t124.5 -57t79 -84.5t43.5 -99t12.5 -106q0 -187 -112 -297.5t-322 -110.5h-481v1366h-561l-76 -948q-5 -70 -14.5 -124t-32 -113t-55.5 -98t-89 -64.5t-129 -26.5v12z M989 12h469q204 0 313 108t109 288q0 55 -12 103.5t-42.5 96t-77 81t-121 54.5t-169.5 21h-469v-752z" />
<glyph unicode="&#x40a;" horiz-adv-x="1921" d="M143 0v1378h13v-633h768v633h12v-633h469q98 0 174.5 -20t124.5 -53t79 -79.5t43.5 -95t12.5 -104.5q0 -185 -111 -289t-323 -104h-481v733h-768v-733h-13zM936 12h469q205 0 313.5 101.5t108.5 279.5q0 54 -12 101.5t-42.5 92t-77 76.5t-121 51t-169.5 19h-469v-721z " />
<glyph unicode="&#x40b;" horiz-adv-x="1511" d="M16 1366v12h1145v-12h-676v-604q84 84 226.5 134t279.5 50q91 0 161 -23t114 -61t72 -92.5t39.5 -113.5t11.5 -128v-528h-13v528q0 67 -10.5 123.5t-38 110t-70 90.5t-110.5 59.5t-156 22.5q-138 0 -279.5 -52t-226.5 -137v-745h-12v1366h-457z" />
<glyph unicode="&#x40c;" horiz-adv-x="1083" d="M143 0v1378h13v-661h376l496 661h14l-499 -667l520 -711h-14l-517 705h-376v-705h-13zM446 1518l248 217l13 -13l-252 -213z" />
<glyph unicode="&#x40e;" horiz-adv-x="1009" d="M41 1378h14l439 -966h43l438 966h14l-516 -1134q-20 -43 -32.5 -67.5t-34 -59t-43.5 -54t-53 -39t-71 -28t-89 -8.5h-58l2 12h58q66 0 114 16t83.5 52.5t59 75.5t52.5 104l67 151h-43zM295 1681h12q1 -33 13 -67.5t36 -67.5t66.5 -54.5t97.5 -21.5q54 0 96.5 21t67.5 55 t38.5 68t16.5 67h13q-3 -35 -17.5 -71.5t-41 -72t-71.5 -58.5t-102 -23t-102.5 23t-70.5 58.5t-38 72.5t-14 71z" />
<glyph unicode="&#x40f;" horiz-adv-x="1288" d="M143 0v1378h13v-1366h977v1366h12v-1378h-486v-356h-12v356h-504z" />
<glyph unicode="&#x410;" horiz-adv-x="1120" d="M31 0l518 1378h16l527 -1378h-15l-149 389h-738l-147 -389h-12zM195 401h729l-367 965z" />
<glyph unicode="&#x411;" horiz-adv-x="1183" d="M143 0v1378h818v-12h-805v-590h491q98 0 174.5 -21.5t124.5 -57t79 -84.5t43.5 -99t12.5 -106q0 -187 -112 -297.5t-322 -110.5h-504zM156 12h491q204 0 313 108t109 288q0 55 -12 103.5t-42.5 96t-77 81t-121 54.5t-169.5 21h-491v-752z" />
<glyph unicode="&#x412;" horiz-adv-x="1232" d="M143 0v1378h535q191 0 297 -88t106 -237q0 -50 -17 -102t-49.5 -100t-88 -83t-125.5 -45q66 -8 120.5 -33.5t91.5 -61t62.5 -79.5t37 -88.5t11.5 -89.5q0 -57 -12 -108t-43 -100t-78.5 -84.5t-123.5 -57t-173 -21.5h-551zM156 12h538q95 0 169 20.5t120 54.5t76 82 t41.5 97t11.5 105q0 65 -22.5 124.5t-67 110t-121 81t-174.5 30.5h-571v-705zM156 727h585q101 0 177.5 49t113.5 122.5t37 154.5q0 141 -101.5 227t-289.5 86h-522v-639z" />
<glyph unicode="&#x413;" horiz-adv-x="1017" d="M143 0v1378h824v-12h-811v-1366h-13z" />
<glyph unicode="&#x414;" horiz-adv-x="1351" d="M23 12h112q77 159 125.5 364t73.5 523l37 479h796v-1366h123v-340h-12v328h-1243v-328h-12v340zM150 12h1005v1354h-772l-37 -467q-25 -313 -73.5 -522.5t-122.5 -364.5z" />
<glyph unicode="&#x415;" horiz-adv-x="1064" d="M143 0v1378h815v-12h-802v-651h749v-13h-749v-690h852v-12h-865z" />
<glyph unicode="&#x416;" horiz-adv-x="1693" d="M23 0l520 713l-500 665h14l496 -659h289v659h12v-659h289l495 659h15l-500 -665l520 -713h-14l-516 707h-289v-707h-12v707h-289l-516 -707h-14z" />
<glyph unicode="&#x417;" horiz-adv-x="1173" d="M80 395h12q-14 -166 114 -277.5t365 -111.5q99 0 178.5 20.5t133.5 55.5t90.5 83.5t52.5 104t16 117.5q0 42 -8 83.5t-31 88t-59 81t-96.5 57t-138.5 22.5h-224v12h222q77 0 139.5 31.5t99 80t55.5 100.5t19 99q0 148 -113 240t-327 92q-67 0 -130 -11.5t-122.5 -39 t-102 -68t-64 -102t-11.5 -137.5h-13q-10 78 12.5 142t66.5 105.5t105 70t126 40.5t133 12q221 0 336.5 -95t115.5 -249q0 -104 -68.5 -197t-179.5 -118q89 -15 151.5 -66.5t91 -121.5t28.5 -152t-27.5 -151t-84 -124t-151.5 -86.5t-221 -31.5q-244 0 -374.5 114.5 t-116.5 286.5z" />
<glyph unicode="&#x418;" horiz-adv-x="1302" d="M143 0v1378h13v-1358l991 1358h12v-1378h-12v1360l-991 -1360h-13z" />
<glyph unicode="&#x419;" horiz-adv-x="1302" d="M143 0h13l991 1360v-1360h12v1378h-12l-991 -1358v1358h-13v-1378zM416 1706h12q1 -33 13 -67.5t36 -67.5t66.5 -54.5t97.5 -21.5q54 0 96.5 21t67.5 55t38.5 68t16.5 67h12q-3 -35 -17.5 -71.5t-40.5 -72t-71 -58.5t-102 -23t-102.5 23t-70.5 58.5t-38 72.5t-14 71z" />
<glyph unicode="&#x41a;" horiz-adv-x="1083" d="M143 0v1378h13v-661h376l496 661h14l-499 -667l520 -711h-14l-517 705h-376v-705h-13z" />
<glyph unicode="&#x41b;" horiz-adv-x="1249" d="M16 4q69 1 121.5 24.5t85 60.5t54.5 93.5t32 111t15 124.5l75 960h707v-1378h-12v1366h-682l-76 -948q-5 -70 -14.5 -124t-32 -113t-55.5 -98t-89 -64.5t-129 -26.5v12z" />
<glyph unicode="&#x41c;" horiz-adv-x="1583" d="M143 0v1378h11l630 -1142l643 1142h13v-1378h-13v1354l-639 -1137h-8l-624 1135v-1352h-13z" />
<glyph unicode="&#x41d;" horiz-adv-x="1294" d="M143 0v1378h13v-663h983v663h12v-1378h-12v702h-983v-702h-13z" />
<glyph unicode="&#x41e;" horiz-adv-x="1341" d="M123 684q0 122 18.5 225.5t61 193.5t106 153t157.5 99t212 36q117 0 209 -34.5t154 -96t102.5 -151t58 -194t17.5 -229.5q0 -340 -149 -517t-411 -177q-275 0 -405.5 169.5t-130.5 522.5zM135 684q0 -346 128 -513t396 -167q256 0 401.5 174.5t145.5 507.5q0 123 -17 225 t-56.5 190t-99.5 148.5t-150 94.5t-205 34q-116 0 -208 -35.5t-154 -97.5t-103 -150t-59.5 -190t-18.5 -221z" />
<glyph unicode="&#x41f;" horiz-adv-x="1294" d="M143 0v1378h1008v-1378h-12v1366h-983v-1366h-13z" />
<glyph unicode="&#x420;" horiz-adv-x="1120" d="M143 0v1378h488q205 0 321.5 -120t116.5 -306q0 -58 -11.5 -111.5t-42.5 -109.5t-78.5 -97t-126 -67t-179.5 -26h-475v-541h-13zM156 553h475q98 0 175 25t123 65t76 94t41 106.5t11 108.5q0 179 -114 296.5t-312 117.5h-475v-813z" />
<glyph unicode="&#x421;" horiz-adv-x="1226" d="M123 678q0 161 31 288.5t96 224t173 148.5t253 52q66 0 130 -13.5t122 -43t100 -72t63 -105t13 -137.5h-12q8 72 -12.5 133t-61 101.5t-97.5 69t-118.5 41.5t-126.5 13q-115 0 -206 -33.5t-153.5 -94.5t-103.5 -149t-59.5 -192.5t-18.5 -230.5q0 -124 15.5 -223 t52.5 -185t96 -143.5t150 -90t210 -32.5q238 0 357.5 111t103.5 278h13q16 -173 -107.5 -287t-366.5 -114q-122 0 -214.5 33t-153 91t-98.5 145.5t-54 188.5t-16 228z" />
<glyph unicode="&#x422;" horiz-adv-x="1060" d="M20 1366v12h1020v-12h-499v-1366h-13v1366h-508z" />
<glyph unicode="&#x423;" horiz-adv-x="1009" d="M41 1378h14l439 -966h43l438 966h14l-516 -1134q-20 -43 -32.5 -67.5t-34 -59t-43.5 -54t-53 -39t-71 -28t-89 -8.5h-58l2 12h58q66 0 114 16t83.5 52.5t59 75.5t52.5 104l67 151h-43z" />
<glyph unicode="&#x424;" horiz-adv-x="1466" d="M123 696q0 133 35.5 242.5t107.5 195.5t192 134t279 49v61h13v-61q136 -1 241.5 -37.5t170.5 -95t107 -140.5t58 -166t16 -180q0 -86 -17.5 -166t-61 -159.5t-109 -138.5t-170 -96t-235.5 -38v-100h-13v100q-159 1 -279 47.5t-192 129.5t-107.5 188t-35.5 231zM135 696 q0 -122 34.5 -225t105 -184t188.5 -127t274 -47v1192q-156 -1 -274 -48.5t-188.5 -131.5t-105 -191.5t-34.5 -237.5zM750 113q130 1 232.5 37t166.5 93.5t106 135.5t59 156t17 163q0 95 -15.5 177.5t-56.5 163t-105 137.5t-167 92.5t-237 36.5v-1192z" />
<glyph unicode="&#x425;" horiz-adv-x="1097" d="M27 0l514 713l-475 665h14l469 -655l471 655h14l-479 -663l512 -715h-14l-506 705l-508 -705h-12z" />
<glyph unicode="&#x426;" horiz-adv-x="1331" d="M143 0v1378h13v-1366h972v1366h13v-1366h119v-334h-13v322h-1104z" />
<glyph unicode="&#x427;" horiz-adv-x="1185" d="M123 1006v374h12v-374q0 -414 465 -414q200 0 428 53v735h12v-1380h-12v633q-226 -53 -428 -53q-477 0 -477 426z" />
<glyph unicode="&#x428;" horiz-adv-x="1925" d="M143 0v1378h13v-1366h802v1366h13v-1366h798v1366h13v-1378h-1639z" />
<glyph unicode="&#x429;" horiz-adv-x="1959" d="M143 0v1378h13v-1366h802v1366h13v-1366h798v1366h13v-1366h119v-334h-13v322h-1745z" />
<glyph unicode="&#x42a;" horiz-adv-x="1622" d="M16 1366v12h584v-602h496q98 0 174.5 -21.5t124.5 -57t79 -84.5t43.5 -99t12.5 -106q0 -187 -112 -297.5t-322 -110.5h-508v1366h-572zM600 12h496q204 0 313 108t109 288q0 55 -12 103.5t-42.5 96t-77 81t-121 54.5t-169.5 21h-496v-752z" />
<glyph unicode="&#x42b;" horiz-adv-x="1443" d="M143 0v1378h13v-602h495q98 0 174.5 -21.5t124.5 -57t79 -84.5t43.5 -99t12.5 -106q0 -187 -112 -297.5t-322 -110.5h-508zM156 12h495q204 0 313 108t109 288q0 55 -12 103.5t-42.5 96t-77 81t-121 54.5t-169.5 21h-495v-752zM1288 0v1378h12v-1378h-12z" />
<glyph unicode="&#x42c;" horiz-adv-x="1177" d="M143 0v1378h13v-602h495q98 0 174.5 -21.5t124.5 -57t79 -84.5t43.5 -99t12.5 -106q0 -187 -112 -297.5t-322 -110.5h-508zM156 12h495q204 0 313 108t109 288q0 55 -12 103.5t-42.5 96t-77 81t-121 54.5t-169.5 21h-495v-752z" />
<glyph unicode="&#x42d;" horiz-adv-x="1226" d="M94 401h12q-8 -82 15.5 -153t77.5 -126t148.5 -86.5t219.5 -31.5q121 0 212.5 34.5t150 94.5t95 151t51.5 195t16 236h-738v12h738q-1 150 -29.5 266.5t-88 204t-158.5 134t-234 46.5q-67 0 -130.5 -12.5t-122.5 -41t-102 -70t-66.5 -104t-17.5 -138.5h-12 q-6 78 18 142.5t68.5 107.5t105.5 73t126 43t133 13q111 0 199 -31.5t148 -88.5t99.5 -141t57.5 -185t18 -224q0 -136 -15.5 -243t-53 -200.5t-98 -154.5t-153.5 -96t-217 -35q-130 0 -226.5 32t-151.5 89t-79 129.5t-16 158.5z" />
<glyph unicode="&#x42e;" horiz-adv-x="1724" d="M143 0v1378h13v-663h372q1 141 33 261t95.5 214t169 147.5t243.5 53.5q121 0 214.5 -38.5t152.5 -103t97 -157.5t53.5 -192.5t15.5 -217.5q0 -105 -15 -199t-53 -185.5t-97 -157t-153.5 -106t-216.5 -40.5q-125 0 -219.5 35t-154.5 95.5t-97.5 152t-52 193.5t-15.5 232 h-372v-702h-13zM541 719q0 -130 13.5 -232.5t49.5 -195t94.5 -153.5t151.5 -96.5t217 -35.5q100 0 181.5 27t137.5 76t96.5 112t63 141t33 156t10.5 164q0 115 -14.5 213t-51.5 189t-95 154.5t-149.5 101.5t-209.5 38q-109 0 -198 -35t-149.5 -96t-101.5 -145t-60 -180 t-19 -203z" />
<glyph unicode="&#x42f;" horiz-adv-x="1167" d="M119 985q0 182 115.5 287.5t320.5 105.5h469v-1378h-12v604h-377l-469 -604h-14l469 604h-64q-101 0 -179.5 24t-126 61.5t-78.5 89t-42.5 102t-11.5 104.5zM131 985q0 -56 11.5 -105.5t42 -99t77 -85t121.5 -57.5t172 -22h457v750h-457q-199 0 -311.5 -103t-112.5 -278z " />
<glyph unicode="&#x430;" horiz-adv-x="960" d="M92 256q0 68 28 127t83 106t147.5 74t212.5 27q105 0 266 -31v96q0 32 -2 57t-9.5 60t-20.5 61.5t-37.5 55t-57.5 46.5t-84 30t-114 12q-85 0 -149.5 -21.5t-99 -57t-50 -77t-12.5 -86.5h-13q-4 46 12 89.5t52.5 81t103.5 60.5t156 23q90 0 155.5 -23.5t100 -56.5 t54 -82.5t24 -87t4.5 -84.5v-655h-13v258q-35 -118 -140 -192t-279 -74q-139 0 -228.5 65t-89.5 199zM104 256q0 -128 86.5 -190t219.5 -62q196 0 307.5 99t111.5 259v185q-164 31 -266 31q-117 0 -207 -26.5t-144 -72t-81 -102t-27 -121.5z" />
<glyph unicode="&#x431;" horiz-adv-x="1019" d="M102 569q0 181 31 328q17 85 39.5 149t57.5 116t75 89t102 71.5t127 60.5t162 59l109 37l4 -11l-100 -34q-82 -28 -131.5 -47t-109 -46.5t-95.5 -53t-75 -62.5t-64 -81t-47 -101.5t-37 -129.5q-35 -161 -35 -329q22 205 127.5 305t271.5 100q94 0 166 -29t116.5 -76 t72.5 -113t38.5 -133.5t10.5 -145.5q0 -68 -8.5 -130t-35.5 -132t-70 -120.5t-118 -84t-174 -33.5q-124 0 -205.5 37.5t-126 116t-61.5 178t-17 245.5zM121 481q0 -86 10 -154.5t37 -130.5t70 -103t112.5 -65t161.5 -24q96 0 169.5 33.5t114.5 83.5t67 119t34 128.5t8 123.5 q0 75 -10 140.5t-37 130.5t-69.5 111t-112.5 74.5t-162 28.5q-195 -3 -294 -131t-99 -365z" />
<glyph unicode="&#x432;" horiz-adv-x="987" d="M123 -6v991h442q146 0 222.5 -63.5t76.5 -186.5q0 -31 -8.5 -60.5t-28 -60.5t-58 -55.5t-91.5 -36.5q60 -13 104.5 -43t67.5 -68t34 -75t11 -74q0 -51 -18.5 -97t-56 -85t-103.5 -62.5t-152 -23.5h-442zM135 6h430q83 0 146.5 22t99.5 59.5t54 81.5t18 93 q0 113 -77.5 183.5t-199.5 70.5h-471v-510zM135 528h471q114 0 180 58t66 149q0 117 -73.5 177.5t-217.5 60.5h-426v-445z" />
<glyph unicode="&#x433;" horiz-adv-x="815" d="M127 0v979h668v-12h-656v-967h-12z" />
<glyph unicode="&#x434;" horiz-adv-x="1071" d="M20 12h95q115 201 153 609l33 358h627v-967h106v-295h-12v283h-989v-283h-13v295zM129 12h786v955h-604l-30 -346q-37 -408 -152 -609z" />
<glyph unicode="&#x435;" horiz-adv-x="966" d="M102 496q0 106 22.5 193t70 155.5t129.5 106.5t192 38q82 0 148.5 -25.5t109 -70.5t70.5 -106t32 -131.5t-6 -147.5h-755v-12q0 -94 9.5 -164t35 -134.5t69.5 -105t115.5 -64.5t169.5 -24q79 0 141.5 19t100.5 49.5t62.5 71t33.5 80.5t6 81h12q3 -42 -6 -83.5t-34.5 -84 t-65 -74t-104.5 -51.5t-146 -20q-100 0 -174 24.5t-119 66t-72 107.5t-37 138t-10 168zM115 520h745q18 122 -12 224t-115.5 167.5t-216.5 65.5q-383 0 -401 -457z" />
<glyph unicode="&#x436;" horiz-adv-x="1327" d="M20 0l361 516l-352 463h14l348 -457h266v457h13v-457h266l348 457h14l-352 -463l361 -516h-17l-354 510h-266v-510h-13v510h-266l-354 -510h-17z" />
<glyph unicode="&#x437;" horiz-adv-x="909" d="M70 291h12q-6 -75 22 -131.5t80.5 -89t117 -48.5t140.5 -16q174 0 268.5 73t94.5 195q0 107 -77 179.5t-224 72.5h-146v13h172q107 0 181.5 53t74.5 147q0 108 -83 171t-244 63q-55 0 -104.5 -8t-97.5 -28t-81.5 -50t-51.5 -78.5t-13 -110.5h-13q-5 64 14 114.5t54 82 t84.5 52.5t101 29.5t107.5 8.5q166 0 253 -65.5t87 -178.5q0 -29 -9 -58t-30.5 -61t-65.5 -57t-106 -35q65 -11 112 -39.5t71 -67t35 -75.5t11 -74q0 -128 -97.5 -204t-277.5 -76q-78 0 -145 16.5t-121 50.5t-83 93t-23 137z" />
<glyph unicode="&#x438;" horiz-adv-x="997" d="M123 0v979h12v-959l727 959h12v-979h-12v961l-727 -961h-12z" />
<glyph unicode="&#x439;" horiz-adv-x="997" d="M123 0h12l727 961v-961h12v979h-12l-727 -959v959h-12v-979zM285 1364h12q1 -33 13 -67.5t36 -67.5t66.5 -54.5t97.5 -21.5q54 0 96.5 21t67.5 55t38.5 68t16.5 67h12q-3 -35 -17.5 -71.5t-40.5 -72t-71 -58.5t-102 -23t-102.5 23t-70.5 58.5t-38 72.5t-14 71z" />
<glyph unicode="&#x43a;" horiz-adv-x="843" d="M123 0v979h12v-463h326l344 463h14l-348 -469l356 -510h-16l-350 504h-326v-504h-12z" />
<glyph unicode="&#x43b;" horiz-adv-x="997" d="M10 4q116 1 163 127.5t65 450.5l20 397h616v-979h-12v967h-592l-20 -385q-18 -337 -67 -463t-173 -127v12z" />
<glyph unicode="&#x43c;" horiz-adv-x="1198" d="M123 0v979h12l453 -813l475 813h12v-979h-12v958l-471 -808h-8l-449 804v-954h-12z" />
<glyph unicode="&#x43d;" horiz-adv-x="1009" d="M123 0v979h12v-455h739v455h13v-979h-13v512h-739v-512h-12z" />
<glyph unicode="&#x43e;" horiz-adv-x="1013" d="M102 479q0 89 14 165t45 140.5t78 109t115.5 70t155.5 25.5q86 0 154.5 -25.5t114.5 -69.5t76 -108t43 -138t13 -161q0 -246 -106.5 -370.5t-294.5 -124.5q-216 0 -312 119.5t-96 367.5zM115 479q0 -242 93 -358.5t302 -116.5q181 0 285 121.5t104 361.5q0 107 -21 193 t-65.5 154t-121.5 105.5t-181 37.5q-105 0 -182.5 -37.5t-123 -106t-67.5 -156.5t-22 -198z" />
<glyph unicode="&#x43f;" horiz-adv-x="1019" d="M123 0v979h774v-979h-12v967h-750v-967h-12z" />
<glyph unicode="&#x440;" horiz-adv-x="1032" d="M123 -420v1401h12v-324q67 332 402 332q200 0 296.5 -130t96.5 -361q0 -111 -22 -200t-69.5 -159t-129 -108.5t-193.5 -38.5q-158 0 -256.5 85t-124.5 249v-746h-12zM135 459q0 -120 29 -209t81.5 -142t120 -78.5t150.5 -25.5q87 0 156 25.5t114.5 70t75.5 107.5t43 135 t13 156q0 226 -94.5 352.5t-286.5 126.5q-87 0 -157 -24.5t-126.5 -77t-87.5 -145.5t-31 -220v-51z" />
<glyph unicode="&#x441;" horiz-adv-x="917" d="M102 481q0 100 21.5 187t67.5 161t127.5 117t191.5 43q64 0 119.5 -11.5t107.5 -38t80 -78.5t23 -124h-13q3 56 -15 99.5t-49 69.5t-75 42.5t-87 22.5t-91 6q-86 0 -154.5 -28t-113 -75t-73.5 -112t-41.5 -134.5t-12.5 -146.5q0 -107 17.5 -188t49 -135.5t80.5 -89 t108.5 -49.5t135.5 -15q79 0 140.5 17t99 44.5t60.5 65t31 75.5t5 79h12q3 -54 -12 -102.5t-52 -93t-110 -71t-174 -26.5q-201 0 -302.5 111.5t-101.5 377.5z" />
<glyph unicode="&#x442;" horiz-adv-x="843" d="M20 967v12h803v-12h-395v-967h-12v967h-396z" />
<glyph unicode="&#x443;" horiz-adv-x="806" d="M16 979h15l348 -973h47l350 973h15l-410 -1135q-12 -33 -16.5 -45.5t-16.5 -41.5t-20 -42t-22.5 -36t-27 -34t-32 -26t-40 -22t-47.5 -12t-57 -5h-75v12h75q61 0 105 17.5t75 61t44.5 72.5t38.5 95q1 2 1.5 3.5l1 3t1.5 3.5l53 148h-51z" />
<glyph unicode="&#x444;" horiz-adv-x="1202" d="M102 479q0 76 14 144.5t49 135.5t89.5 116t143 79t200.5 31v483h12v-483q109 -1 195 -30t140.5 -76t90 -112t50 -133.5t14.5 -146.5q0 -75 -15.5 -143.5t-52 -132.5t-91 -111.5t-140 -76.5t-191.5 -31v-412h-12v412q-496 2 -496 487zM115 479q0 -475 483 -475v969 q-110 -1 -196 -30.5t-139 -77t-87.5 -113t-47.5 -132.5t-13 -141zM610 4q104 1 187 29.5t136 74t88.5 108.5t50.5 130t15 141q0 76 -14 143t-48 130.5t-87 109t-137 74t-191 29.5v-969z" />
<glyph unicode="&#x445;" horiz-adv-x="800" d="M20 0l369 502l-350 477h14l342 -469l346 469h15l-353 -475l373 -504h-14l-365 494l-362 -494h-15z" />
<glyph unicode="&#x446;" horiz-adv-x="1087" d="M133 0v979h12v-967h762v967h13v-967h110v-313h-12v301h-885z" />
<glyph unicode="&#x447;" horiz-adv-x="909" d="M82 686v293h12v-293q0 -293 336 -293q149 0 344 62v524h12v-979h-12v442q-189 -61 -344 -61q-348 0 -348 305z" />
<glyph unicode="&#x448;" horiz-adv-x="1531" d="M123 0v979h12v-967h629v967h12v-967h621v967h12v-979h-1286z" />
<glyph unicode="&#x449;" horiz-adv-x="1595" d="M133 0v979h12v-967h629v967h12v-967h621v967h12v-967h119v-313h-12v301h-1393z" />
<glyph unicode="&#x44a;" horiz-adv-x="1253" d="M10 967v12h439v-410h387q76 0 134.5 -17.5t93.5 -45t57.5 -66t31 -76t8.5 -79.5q0 -129 -83.5 -207t-241.5 -78h-400v967h-426zM449 12h387q152 0 232.5 75t80.5 198q0 41 -8 77t-29.5 72.5t-55.5 63t-90.5 43t-129.5 16.5h-387v-545z" />
<glyph unicode="&#x44b;" horiz-adv-x="1167" d="M123 0v979h12v-410h387q94 0 161 -25.5t101 -69t49 -90t15 -99.5q0 -129 -84 -207t-242 -78h-399zM135 12h387q152 0 233 75t81 198q0 52 -14 96t-47 86t-97.5 66t-155.5 24h-387v-545zM1032 0v979h12v-979h-12z" />
<glyph unicode="&#x44c;" horiz-adv-x="940" d="M123 0v979h12v-410h387q94 0 161 -25.5t101 -69t49 -90t15 -99.5q0 -129 -84 -207t-242 -78h-399zM135 12h387q152 0 233 75t81 198q0 52 -14 96t-47 86t-97.5 66t-155.5 24h-387v-545z" />
<glyph unicode="&#x44d;" horiz-adv-x="956" d="M84 287h12q-13 -120 76.5 -200.5t269.5 -80.5q396 0 400 496h-498v12h498q-2 209 -101.5 334t-291.5 125q-163 0 -253.5 -73.5t-76.5 -184.5h-13q-14 117 80 193.5t263 76.5q200 0 302.5 -129.5t102.5 -347.5q0 -514 -412 -514q-186 0 -278.5 83.5t-79.5 209.5z" />
<glyph unicode="&#x44e;" horiz-adv-x="1323" d="M123 0v979h12v-463h262q1 101 26 185t75 148.5t130.5 100.5t186.5 37q95 0 168.5 -30.5t117.5 -78.5t72 -115.5t38 -134t10 -141.5q0 -77 -11 -144t-39.5 -133t-73 -113t-117 -76t-165.5 -29q-121 0 -203 32.5t-129 100t-66.5 158.5t-19.5 221h-262v-504h-12zM410 506 q0 -127 19 -216t64.5 -155.5t125 -98.5t196.5 -32q91 0 161 28t113 73.5t70.5 110t38 130t10.5 141.5q0 74 -9.5 138.5t-36.5 130.5t-69.5 113t-113.5 76.5t-164 29.5q-104 -1 -183 -37t-127 -100.5t-71.5 -147.5t-23.5 -184z" />
<glyph unicode="&#x44f;" horiz-adv-x="972" d="M92 686q0 134 82.5 213.5t235.5 79.5h440v-979h-12v416h-328l-371 -416h-16l373 416h-103q-73 0 -128 17t-87 43.5t-52 63.5t-27 72t-7 74zM104 686q0 -50 13 -92.5t43 -81.5t89 -61.5t142 -22.5h447v539h-428q-149 0 -227.5 -76t-78.5 -205z" />
<glyph unicode="&#x451;" horiz-adv-x="966" d="M102 496q0 106 22.5 193t70 155.5t129.5 106.5t192 38q82 0 148.5 -25.5t109 -70.5t70.5 -106t32 -131.5t-6 -147.5h-755v-12q0 -94 9.5 -164t35 -134.5t69.5 -105t115.5 -64.5t169.5 -24q79 0 141.5 19t100.5 49.5t62.5 71t33.5 80.5t6 81h12q3 -42 -6 -83.5t-34.5 -84 t-65 -74t-104.5 -51.5t-146 -20q-100 0 -174 24.5t-119 66t-72 107.5t-37 138t-10 168zM115 520h745q18 122 -12 224t-115.5 167.5t-216.5 65.5q-383 0 -401 -457zM356 1219q0 6 6 12t15 6q8 0 13 -5.5t5 -12.5q0 -19 -18 -19q-8 0 -14.5 5t-6.5 14zM657 1219q0 7 5.5 12.5 t15.5 5.5q7 0 11.5 -5.5t4.5 -12.5q0 -19 -16 -19q-21 0 -21 19z" />
<glyph unicode="&#x452;" horiz-adv-x="1017" d="M31 1233v10h108v227h13v-227h536v-10h-536v-567q15 74 47.5 133t72 93.5t86 57.5t86 31t76.5 8q79 0 142 -22t104 -54.5t70.5 -83.5t44 -95.5t23 -104t10 -96t1.5 -84.5q0 -252 -88 -397t-278 -154v12q354 17 354 539q0 47 -1.5 82.5t-9.5 94t-22.5 102t-43 93t-68 81.5 t-100.5 53.5t-138 21.5q-39 0 -82 -9.5t-96 -40t-93.5 -77.5t-68.5 -130.5t-28 -191.5v-528h-13v1233h-108z" />
<glyph unicode="&#x453;" horiz-adv-x="815" d="M127 0v979h668v-12h-656v-967h-12zM360 1171l215 252l15 -12l-221 -246z" />
<glyph unicode="&#x454;" horiz-adv-x="917" d="M102 481q0 100 21.5 187t67.5 161t127.5 117t191.5 43q64 0 119.5 -11.5t107.5 -38t80 -78.5t23 -124h-13q3 56 -15 99.5t-49 69.5t-75 42.5t-87 22.5t-91 6q-103 0 -180.5 -39t-122 -107t-67 -147.5t-25.5 -173.5h514v-12h-514v-17q0 -107 17.5 -188t49 -135.5t80.5 -89 t108.5 -49.5t135.5 -15q79 0 140.5 17t99 44.5t60.5 65t31 75.5t5 79h12q3 -54 -12 -102.5t-52 -93t-110 -71t-174 -26.5q-201 0 -302.5 111.5t-101.5 377.5z" />
<glyph unicode="&#x455;" horiz-adv-x="911" d="M96 299h13q-19 -123 74 -209t261 -86q99 0 171.5 21.5t113 59t59.5 82t19 97.5q0 60 -23 105t-66.5 74t-96 46.5t-121.5 28.5q-76 12 -120.5 21t-94 27t-75.5 41.5t-43 62t-17 90.5q0 99 77.5 164t229.5 65q95 0 162.5 -22t101 -59.5t46 -80t7.5 -92.5h-12q4 48 -8 88.5 t-43.5 76.5t-96 56.5t-157.5 20.5q-149 0 -222 -61.5t-73 -155.5q0 -42 9.5 -73.5t32.5 -54.5t47.5 -38t69.5 -27.5t81.5 -19.5t99.5 -17q151 -24 234 -86t83 -180q0 -117 -91.5 -194.5t-283.5 -77.5q-174 0 -270.5 89.5t-77.5 217.5z" />
<glyph unicode="&#x456;" horiz-adv-x="342" d="M152 1272q0 7 5 12.5t15 5.5q8 0 13 -5.5t5 -12.5q0 -8 -5.5 -13.5t-12.5 -5.5q-8 0 -14 5t-6 14zM166 0v979h12v-979h-12z" />
<glyph unicode="&#x457;" horiz-adv-x="342" d="M4 1204q0 6 6 12.5t15 6.5q8 0 13 -6t5 -13q0 -18 -18 -18q-21 0 -21 18zM166 0v979h12v-979h-12zM305 1204q0 7 5.5 13t15.5 6q7 0 11.5 -6t4.5 -13q0 -18 -16 -18q-21 0 -21 18z" />
<glyph unicode="&#x458;" horiz-adv-x="370" d="M20 -408h33q77 0 104 41.5t27 143.5v1202h13v-1202q0 -108 -30 -152.5t-114 -44.5h-33v12zM170 1272q0 7 5 12.5t15 5.5q8 0 13.5 -5.5t5.5 -12.5q0 -8 -6 -13.5t-13 -5.5q-8 0 -14 5t-6 14z" />
<glyph unicode="&#x459;" horiz-adv-x="1556" d="M10 4q116 1 163 127.5t65 450.5l20 397h494v-410h387q76 0 134.5 -17.5t93.5 -45t57.5 -66t31 -76t8.5 -79.5q0 -129 -83.5 -207t-241.5 -78h-400v967h-469l-20 -385q-18 -337 -67 -463t-173 -127v12zM752 12h387q152 0 232.5 75t80.5 198q0 41 -8 77t-29.5 72.5 t-55.5 63t-90.5 43t-129.5 16.5h-387v-545z" />
<glyph unicode="&#x45a;" horiz-adv-x="1542" d="M123 0v979h12v-430h590v430h12v-430h387q76 0 134.5 -16.5t94 -43t58 -63.5t31 -73.5t8.5 -78.5q0 -128 -83.5 -201t-242.5 -73h-399v537h-590v-537h-12zM737 12h387q154 0 234 69.5t80 192.5q0 51 -14 94.5t-47 83t-97.5 62.5t-155.5 23h-387v-525z" />
<glyph unicode="&#x45b;" horiz-adv-x="997" d="M25 1233v10h98v227h12v-227h512v-10h-512v-567q15 74 47.5 133t72 93.5t86.5 57.5t86.5 31t76.5 8q88 0 154.5 -22t107 -58t65.5 -90.5t34 -112.5t9 -131v-575h-12v575q0 70 -8.5 126t-32.5 109.5t-63 88.5t-103.5 56.5t-150.5 21.5q-39 0 -82 -9.5t-96 -40t-94 -77.5 t-69 -130.5t-28 -191.5v-528h-12v1233h-98z" />
<glyph unicode="&#x45c;" horiz-adv-x="843" d="M123 0v979h12v-463h326l344 463h14l-348 -469l356 -510h-16l-350 504h-326v-504h-12zM373 1145l215 252l14 -13l-221 -245z" />
<glyph unicode="&#x45e;" horiz-adv-x="806" d="M16 979h15l348 -973h47l350 973h15l-410 -1135q-12 -33 -16.5 -45.5t-16.5 -41.5t-20 -42t-22.5 -36t-27 -34t-32 -26t-40 -22t-47.5 -12t-57 -5h-75v12h75q61 0 105 17.5t75 61t44.5 72.5t38.5 95q1 2 1.5 3.5l1 3t1.5 3.5l53 148h-51zM193 1315h12q1 -33 13 -67.5 t36 -67.5t66.5 -54.5t97.5 -21.5q54 0 96.5 21t67.5 55t38.5 68t16.5 67h12q-3 -35 -17.5 -71.5t-40.5 -72t-71 -58.5t-102 -23t-102.5 23t-70.5 58.5t-38 72.5t-14 71z" />
<glyph unicode="&#x45f;" horiz-adv-x="1032" d="M123 0v979h12v-967h762v967h12v-979h-368v-336h-13v336h-405z" />
<glyph unicode="&#x490;" horiz-adv-x="1015" d="M143 0v1378h824v244h12v-256h-823v-1366h-13z" />
<glyph unicode="&#x491;" horiz-adv-x="825" d="M123 0v979h653v240h12v-252h-653v-967h-12z" />
<glyph unicode="&#x4d9;" horiz-adv-x="966" d="M105 325.5q-4 70.5 6 147.5h755v12q0 94 -9.5 164t-35 134.5t-69.5 105t-115.5 64.5t-169.5 24q-79 0 -141.5 -19t-100.5 -49.5t-62.5 -71t-33.5 -80.5t-6 -81h-12q-3 42 6 83.5t34.5 84t65 74t104.5 51.5t146 20q100 0 174 -24.5t119 -66t72 -107.5t37 -138t10 -168 q0 -106 -23 -193t-71 -155.5t-130 -106.5t-192 -38q-82 0 -148.5 25.5t-108.5 70.5t-69.5 106t-31.5 131.5zM121 461q-18 -123 11.5 -224.5t114.5 -167t216 -65.5q84 0 151 23t112.5 63t76 98t45.5 125.5t18 147.5h-745z" />
<glyph unicode="&#x1e80;" horiz-adv-x="1759" d="M20 1378h15l385 -1360l454 1360h13l452 -1360l385 1360h15l-393 -1378h-11l-454 1360l-457 -1360h-10zM621 1716l12 13l248 -218l-9 -8z" />
<glyph unicode="&#x1e81;" horiz-adv-x="1353" d="M20 979h13l295 -969l338 969h12l334 -969l299 969h12l-303 -979h-16l-332 963l-336 -963h-17zM444 1378l15 13l215 -252l-8 -6z" />
<glyph unicode="&#x1e82;" horiz-adv-x="1759" d="M20 1378h15l385 -1360l454 1360h13l452 -1360l385 1360h15l-393 -1378h-11l-454 1360l-457 -1360h-10zM834 1511l247 218l13 -13l-252 -213z" />
<glyph unicode="&#x1e83;" horiz-adv-x="1353" d="M20 979h13l295 -969l338 969h12l334 -969l299 969h12l-303 -979h-16l-332 963l-336 -963h-17zM641 1145l215 252l14 -13l-221 -245z" />
<glyph unicode="&#x1e84;" horiz-adv-x="1759" d="M20 1378h15l385 -1360l454 1360h13l452 -1360l385 1360h15l-393 -1378h-11l-454 1360l-457 -1360h-10zM713 1599q0 7 6 13t14 6t13.5 -6t5.5 -13q0 -18 -19 -18q-20 0 -20 18zM1014 1599q0 7 5 13t15 6q7 0 12 -6t5 -13q0 -18 -17 -18q-20 0 -20 18z" />
<glyph unicode="&#x1e85;" horiz-adv-x="1353" d="M20 979h13l295 -969l338 969h12l334 -969l299 969h12l-303 -979h-16l-332 963l-336 -963h-17zM504 1204q0 7 6 13t14 6t13.5 -6t5.5 -13q0 -18 -19 -18q-20 0 -20 18zM805 1204q0 7 5 13t15 6q7 0 12 -6t5 -13q0 -18 -17 -18q-20 0 -20 18z" />
<glyph unicode="&#x1ef2;" horiz-adv-x="993" d="M16 1378h15l458 -776l474 776h14l-481 -790v-588h-13v588zM281 1688l12 12l248 -217l-9 -8z" />
<glyph unicode="&#x1ef3;" horiz-adv-x="806" d="M16 979h15l348 -973h47l350 973h15l-410 -1135q-12 -33 -16.5 -45.5t-16.5 -41.5t-20 -42t-22.5 -36t-27 -34t-32 -26t-40 -22t-47.5 -12t-57 -5h-75v12h75q61 0 105 17.5t75 61t44.5 72.5t38.5 95q1 2 1.5 3.5l1 3t1.5 3.5l53 148h-51zM197 1378l14 13l215 -252l-8 -6z " />
<glyph unicode="&#x1f00;" horiz-adv-x="1032" d="M102 489q0 113 23.5 203t72 157.5t129.5 103.5t191 36q62 0 118.5 -16t111 -51t94 -100t55.5 -154v313h12v-981h-12v328q-29 -158 -134 -247t-261 -89q-400 0 -400 497zM115 489q0 -485 387 -485q61 0 116.5 14.5t107 49t89 86t60 129.5t22.5 176v71q0 106 -25 187.5 t-63 129.5t-90.5 78.5t-100.5 41t-100 10.5q-108 0 -187 -35.5t-125.5 -101.5t-68.5 -153t-22 -198zM455 1454l4 14q143 -45 143 -149q0 -83 -92 -203l-10 8q86 112 86 195q0 95 -131 135z" />
<glyph unicode="&#x1f01;" horiz-adv-x="1032" d="M102 489q0 113 23.5 203t72 157.5t129.5 103.5t191 36q62 0 118.5 -16t111 -51t94 -100t55.5 -154v313h12v-981h-12v328q-29 -158 -134 -247t-261 -89q-400 0 -400 497zM115 489q0 -485 387 -485q61 0 116.5 14.5t107 49t89 86t60 129.5t22.5 176v71q0 106 -25 187.5 t-63 129.5t-90.5 78.5t-100.5 41t-100 10.5q-108 0 -187 -35.5t-125.5 -101.5t-68.5 -153t-22 -198zM469 1319q0 104 143 149l4 -14q-131 -40 -131 -135q0 -83 86 -195l-10 -8q-92 120 -92 203z" />
<glyph unicode="&#x1f02;" horiz-adv-x="1032" d="M102 489q0 113 23.5 203t72 157.5t129.5 103.5t191 36q62 0 118.5 -16t111 -51t94 -100t55.5 -154v313h12v-981h-12v328q-29 -158 -134 -247t-261 -89q-400 0 -400 497zM115 489q0 -485 387 -485q61 0 116.5 14.5t107 49t89 86t60 129.5t22.5 176v71q0 106 -25 187.5 t-63 129.5t-90.5 78.5t-100.5 41t-100 10.5q-108 0 -187 -35.5t-125.5 -101.5t-68.5 -153t-22 -198zM309 1454l4 14q144 -45 144 -149q0 -83 -92 -203l-11 8q86 112 86 195q0 95 -131 135zM473 1460l16 10l181 -350l-11 -6z" />
<glyph unicode="&#x1f03;" horiz-adv-x="1032" d="M102 489q0 113 23.5 203t72 157.5t129.5 103.5t191 36q62 0 118.5 -16t111 -51t94 -100t55.5 -154v313h12v-981h-12v328q-29 -158 -134 -247t-261 -89q-400 0 -400 497zM115 489q0 -485 387 -485q61 0 116.5 14.5t107 49t89 86t60 129.5t22.5 176v71q0 106 -25 187.5 t-63 129.5t-90.5 78.5t-100.5 41t-100 10.5q-108 0 -187 -35.5t-125.5 -101.5t-68.5 -153t-22 -198zM324 1319q0 104 143 149l4 -14q-131 -40 -131 -135q0 -83 86 -195l-10 -8q-92 120 -92 203zM516 1460l16 10l181 -350l-11 -6z" />
<glyph unicode="&#x1f04;" horiz-adv-x="1032" d="M102 489q0 113 23.5 203t72 157.5t129.5 103.5t191 36q62 0 118.5 -16t111 -51t94 -100t55.5 -154v313h12v-981h-12v328q-29 -158 -134 -247t-261 -89q-400 0 -400 497zM115 489q0 -485 387 -485q61 0 116.5 14.5t107 49t89 86t60 129.5t22.5 176v71q0 106 -25 187.5 t-63 129.5t-90.5 78.5t-100.5 41t-100 10.5q-108 0 -187 -35.5t-125.5 -101.5t-68.5 -153t-22 -198zM358 1454l4 14q144 -45 144 -149q0 -83 -92 -203l-11 8q86 112 86 195q0 95 -131 135zM537 1120l180 350l16 -10l-186 -346z" />
<glyph unicode="&#x1f05;" horiz-adv-x="1032" d="M102 489q0 113 23.5 203t72 157.5t129.5 103.5t191 36q62 0 118.5 -16t111 -51t94 -100t55.5 -154v313h12v-981h-12v328q-29 -158 -134 -247t-261 -89q-400 0 -400 497zM115 489q0 -485 387 -485q61 0 116.5 14.5t107 49t89 86t60 129.5t22.5 176v71q0 106 -25 187.5 t-63 129.5t-90.5 78.5t-100.5 41t-100 10.5q-108 0 -187 -35.5t-125.5 -101.5t-68.5 -153t-22 -198zM354 1319q0 105 144 149l4 -14q-131 -40 -131 -135q0 -83 86 -195l-11 -8q-92 120 -92 203zM512 1120l180 350l17 -10l-187 -346z" />
<glyph unicode="&#x1f06;" horiz-adv-x="1032" d="M102 489q0 113 23.5 203t72 157.5t129.5 103.5t191 36q62 0 118.5 -16t111 -51t94 -100t55.5 -154v313h12v-981h-12v328q-29 -158 -134 -247t-261 -89q-400 0 -400 497zM115 489q0 -485 387 -485q61 0 116.5 14.5t107 49t89 86t60 129.5t22.5 176v71q0 106 -25 187.5 t-63 129.5t-90.5 78.5t-100.5 41t-100 10.5q-108 0 -187 -35.5t-125.5 -101.5t-68.5 -153t-22 -198zM225 1516q51 104 150 104q33 0 133 -47q92 -45 131 -45q79 0 127 86l12 -4q-55 -97 -139 -97q-41 0 -135 46q-100 47 -129 47q-89 0 -137 -95zM432 1434l4 14 q144 -45 144 -150q0 -81 -93 -202l-10 8q86 112 86 194q0 96 -131 136z" />
<glyph unicode="&#x1f07;" horiz-adv-x="1032" d="M102 489q0 113 23.5 203t72 157.5t129.5 103.5t191 36q62 0 118.5 -16t111 -51t94 -100t55.5 -154v313h12v-981h-12v328q-29 -158 -134 -247t-261 -89q-400 0 -400 497zM115 489q0 -485 387 -485q61 0 116.5 14.5t107 49t89 86t60 129.5t22.5 176v71q0 106 -25 187.5 t-63 129.5t-90.5 78.5t-100.5 41t-100 10.5q-108 0 -187 -35.5t-125.5 -101.5t-68.5 -153t-22 -198zM260 1516q51 104 150 104q33 0 133 -47q92 -45 131 -45q79 0 127 86l12 -4q-55 -97 -139 -97q-41 0 -135 46q-100 47 -129 47q-90 0 -138 -95zM467 1298q0 105 143 150 l4 -14q-131 -40 -131 -136q0 -82 86 -194l-10 -8q-92 120 -92 202z" />
<glyph unicode="&#x1f08;" horiz-adv-x="1120" d="M6 1352l4 14q144 -45 144 -149q0 -82 -93 -203l-10 8q86 112 86 195q0 95 -131 135zM31 0l518 1378h16l527 -1378h-15l-149 389h-738l-147 -389h-12zM195 401h729l-367 965z" />
<glyph unicode="&#x1f09;" horiz-adv-x="1120" d="M20 1217q0 104 144 149l4 -14q-131 -40 -131 -135q0 -83 86 -195l-10 -8q-93 121 -93 203zM31 0l518 1378h16l527 -1378h-15l-149 389h-738l-147 -389h-12zM195 401h729l-367 965z" />
<glyph unicode="&#x1f0a;" horiz-adv-x="1120" d="M-188 1352l4 14q143 -45 143 -149q0 -83 -92 -203l-10 8q86 112 86 195q0 95 -131 135zM-25 1358l17 10l180 -350l-10 -6zM31 0l518 1378h16l527 -1378h-15l-149 389h-738l-147 -389h-12zM195 401h729l-367 965z" />
<glyph unicode="&#x1f0b;" horiz-adv-x="1120" d="M-178 1217q0 104 143 149l4 -14q-131 -40 -131 -135q0 -83 86 -195l-10 -8q-92 120 -92 203zM14 1358l17 10l180 -350l-10 -6zM31 0l518 1378h16l527 -1378h-15l-149 389h-738l-147 -389h-12zM195 401h729l-367 965z" />
<glyph unicode="&#x1f0c;" horiz-adv-x="1120" d="M-154 1352l4 14q144 -45 144 -149q0 -83 -92 -203l-11 8q86 112 86 195q0 95 -131 135zM25 1018l180 350l16 -10l-186 -346zM31 0l518 1378h16l527 -1378h-15l-149 389h-738l-147 -389h-12zM195 401h729l-367 965z" />
<glyph unicode="&#x1f0d;" horiz-adv-x="1120" d="M-121 1217q0 105 144 149l4 -14q-131 -40 -131 -135q0 -83 86 -195l-11 -8q-92 120 -92 203zM31 0l518 1378h16l527 -1378h-15l-149 389h-738l-147 -389h-12zM37 1018l180 350l16 -10l-186 -346zM195 401h729l-367 965z" />
<glyph unicode="&#x1f0e;" horiz-adv-x="1120" d="M-270 1313q51 104 149 104q33 0 133 -47q92 -45 131 -45q79 0 127 86l13 -4q-55 -96 -140 -96q-43 0 -135 45q-100 47 -129 47q-90 0 -137 -94zM-63 1231l4 14q143 -45 143 -149q0 -83 -92 -203l-10 8q86 112 86 195q0 95 -131 135zM31 0l518 1378h16l527 -1378h-15 l-149 389h-738l-147 -389h-12zM195 401h729l-367 965z" />
<glyph unicode="&#x1f0f;" horiz-adv-x="1120" d="M-272 1284q51 105 149 105q9 0 20 -2.5t19 -4.5t23.5 -8.5t21.5 -9.5t25 -12t24 -11q92 -45 131 -45q79 0 127 86l13 -4q-55 -96 -140 -96q-43 0 -135 45q-100 47 -129 47q-90 0 -137 -94zM-66 1067q0 105 144 150l4 -15q-131 -40 -131 -135q0 -83 86 -195l-10 -8 q-93 121 -93 203zM31 0l518 1378h16l527 -1378h-15l-149 389h-738l-147 -389h-12zM195 401h729l-367 965z" />
<glyph unicode="&#x1f10;" horiz-adv-x="884" d="M92 276q0 -127 90 -205.5t285 -78.5q68 0 131 17.5t117 52.5t84.5 96t25.5 139h-12q4 -61 -14.5 -111t-52.5 -83.5t-80.5 -56t-96.5 -32.5t-102 -10q-189 0 -276 74.5t-87 197.5q0 107 72 181.5t186 74.5h189v13h-184q-45 0 -84.5 8.5t-76.5 27.5t-59 56t-22 88 q0 111 83 181.5t257 70.5q156 0 247 -70.5t76 -191.5h13q15 126 -79.5 200t-256.5 74q-180 0 -266 -73.5t-86 -190.5q0 -151 180 -188q-58 -16 -100 -48.5t-62.5 -71.5t-29.5 -73.5t-9 -67.5zM381 1454l4 14q143 -45 143 -149q0 -83 -92 -203l-10 8q86 112 86 195 q0 95 -131 135z" />
<glyph unicode="&#x1f11;" horiz-adv-x="884" d="M92 276q0 -127 90 -205.5t285 -78.5q68 0 131 17.5t117 52.5t84.5 96t25.5 139h-12q4 -61 -14.5 -111t-52.5 -83.5t-80.5 -56t-96.5 -32.5t-102 -10q-189 0 -276 74.5t-87 197.5q0 107 72 181.5t186 74.5h189v13h-184q-45 0 -84.5 8.5t-76.5 27.5t-59 56t-22 88 q0 111 83 181.5t257 70.5q156 0 247 -70.5t76 -191.5h13q15 126 -79.5 200t-256.5 74q-180 0 -266 -73.5t-86 -190.5q0 -151 180 -188q-58 -16 -100 -48.5t-62.5 -71.5t-29.5 -73.5t-9 -67.5zM391 1319q0 104 144 149l4 -14q-131 -40 -131 -135q0 -83 86 -195l-11 -8 q-92 120 -92 203z" />
<glyph unicode="&#x1f12;" horiz-adv-x="884" d="M92 276q0 -127 90 -205.5t285 -78.5q68 0 131 17.5t117 52.5t84.5 96t25.5 139h-12q4 -61 -14.5 -111t-52.5 -83.5t-80.5 -56t-96.5 -32.5t-102 -10q-189 0 -276 74.5t-87 197.5q0 107 72 181.5t186 74.5h189v13h-184q-45 0 -84.5 8.5t-76.5 27.5t-59 56t-22 88 q0 111 83 181.5t257 70.5q156 0 247 -70.5t76 -191.5h13q15 126 -79.5 200t-256.5 74q-180 0 -266 -73.5t-86 -190.5q0 -151 180 -188q-58 -16 -100 -48.5t-62.5 -71.5t-29.5 -73.5t-9 -67.5zM240 1454l4 14q143 -45 143 -149q0 -83 -92 -203l-10 8q86 112 86 195 q0 95 -131 135zM403 1460l17 10l180 -350l-10 -6z" />
<glyph unicode="&#x1f13;" horiz-adv-x="884" d="M92 276q0 -127 90 -205.5t285 -78.5q68 0 131 17.5t117 52.5t84.5 96t25.5 139h-12q4 -61 -14.5 -111t-52.5 -83.5t-80.5 -56t-96.5 -32.5t-102 -10q-189 0 -276 74.5t-87 197.5q0 107 72 181.5t186 74.5h189v13h-184q-45 0 -84.5 8.5t-76.5 27.5t-59 56t-22 88 q0 111 83 181.5t257 70.5q156 0 247 -70.5t76 -191.5h13q15 126 -79.5 200t-256.5 74q-180 0 -266 -73.5t-86 -190.5q0 -151 180 -188q-58 -16 -100 -48.5t-62.5 -71.5t-29.5 -73.5t-9 -67.5zM236 1319q0 104 143 149l4 -14q-131 -40 -131 -135q0 -83 86 -195l-10 -8 q-92 120 -92 203zM428 1460l16 10l181 -350l-11 -6z" />
<glyph unicode="&#x1f14;" horiz-adv-x="884" d="M92 276q0 -127 90 -205.5t285 -78.5q68 0 131 17.5t117 52.5t84.5 96t25.5 139h-12q4 -61 -14.5 -111t-52.5 -83.5t-80.5 -56t-96.5 -32.5t-102 -10q-189 0 -276 74.5t-87 197.5q0 107 72 181.5t186 74.5h189v13h-184q-45 0 -84.5 8.5t-76.5 27.5t-59 56t-22 88 q0 111 83 181.5t257 70.5q156 0 247 -70.5t76 -191.5h13q15 126 -79.5 200t-256.5 74q-180 0 -266 -73.5t-86 -190.5q0 -151 180 -188q-58 -16 -100 -48.5t-62.5 -71.5t-29.5 -73.5t-9 -67.5zM279 1454l4 14q143 -45 143 -149q0 -83 -92 -203l-10 8q86 112 86 195 q0 95 -131 135zM457 1120l180 350l16 -10l-186 -346z" />
<glyph unicode="&#x1f15;" horiz-adv-x="884" d="M92 276q0 -127 90 -205.5t285 -78.5q68 0 131 17.5t117 52.5t84.5 96t25.5 139h-12q4 -61 -14.5 -111t-52.5 -83.5t-80.5 -56t-96.5 -32.5t-102 -10q-189 0 -276 74.5t-87 197.5q0 107 72 181.5t186 74.5h189v13h-184q-45 0 -84.5 8.5t-76.5 27.5t-59 56t-22 88 q0 111 83 181.5t257 70.5q156 0 247 -70.5t76 -191.5h13q15 126 -79.5 200t-256.5 74q-180 0 -266 -73.5t-86 -190.5q0 -151 180 -188q-58 -16 -100 -48.5t-62.5 -71.5t-29.5 -73.5t-9 -67.5zM293 1319q0 106 143 149l4 -14q-131 -40 -131 -135q0 -83 86 -195l-10 -8 q-92 120 -92 203zM451 1120l180 350l16 -10l-186 -346z" />
<glyph unicode="&#x1f18;" horiz-adv-x="1064" d="M-219 1352l4 14q143 -45 143 -149q0 -83 -92 -203l-10 8q86 112 86 195q0 95 -131 135zM143 0v1378h815v-12h-802v-651h749v-13h-749v-690h852v-12h-865z" />
<glyph unicode="&#x1f19;" horiz-adv-x="1064" d="M-199 1217q0 104 144 149l4 -14q-131 -40 -131 -135q0 -83 86 -195l-10 -8q-93 121 -93 203zM143 0v1378h815v-12h-802v-651h749v-13h-749v-690h852v-12h-865z" />
<glyph unicode="&#x1f1a;" horiz-adv-x="1064" d="M-391 1352l4 14q143 -45 143 -149q0 -83 -92 -203l-10 8q86 112 86 195q0 95 -131 135zM-227 1358l16 10l180 -350l-10 -6zM143 0v1378h815v-12h-802v-651h749v-13h-749v-690h852v-12h-865z" />
<glyph unicode="&#x1f1b;" horiz-adv-x="1064" d="M-385 1217q0 104 143 149l4 -14q-131 -40 -131 -135q0 -83 86 -195l-10 -8q-92 120 -92 203zM-193 1358l17 10l180 -350l-10 -6zM143 0v1378h815v-12h-802v-651h749v-13h-749v-690h852v-12h-865z" />
<glyph unicode="&#x1f1c;" horiz-adv-x="1064" d="M-387 1352l4 14q143 -45 143 -149q0 -83 -92 -203l-10 8q86 112 86 195q0 95 -131 135zM-209 1018l180 350l17 -10l-187 -346zM143 0v1378h815v-12h-802v-651h749v-13h-749v-690h852v-12h-865z" />
<glyph unicode="&#x1f1d;" horiz-adv-x="1064" d="M-360 1217q0 106 143 149l4 -14q-131 -40 -131 -135q0 -83 86 -195l-10 -8q-92 120 -92 203zM-203 1018l180 350l17 -10l-187 -346zM143 0v1378h815v-12h-802v-651h749v-13h-749v-690h852v-12h-865z" />
<glyph unicode="&#x1f20;" horiz-adv-x="997" d="M123 0v979h12v-313q15 74 47.5 133t72 93.5t86.5 57.5t86.5 31t76.5 8q88 0 154.5 -22t107 -58t65.5 -90.5t34 -112.5t9 -131v-575h-12v575q0 70 -8.5 126t-32.5 109.5t-63 88.5t-103.5 56.5t-150.5 21.5q-39 0 -82 -9.5t-96 -40t-94 -77.5t-69 -130.5t-28 -191.5v-528 h-12zM381 1454l4 14q143 -45 143 -149q0 -83 -92 -203l-10 8q86 112 86 195q0 95 -131 135z" />
<glyph unicode="&#x1f21;" horiz-adv-x="997" d="M123 0v979h12v-313q15 74 47.5 133t72 93.5t86.5 57.5t86.5 31t76.5 8q88 0 154.5 -22t107 -58t65.5 -90.5t34 -112.5t9 -131v-575h-12v575q0 70 -8.5 126t-32.5 109.5t-63 88.5t-103.5 56.5t-150.5 21.5q-39 0 -82 -9.5t-96 -40t-94 -77.5t-69 -130.5t-28 -191.5v-528 h-12zM389 1319q0 104 143 149l5 -14q-131 -40 -131 -135q0 -83 86 -195l-11 -8q-92 120 -92 203z" />
<glyph unicode="&#x1f22;" horiz-adv-x="997" d="M123 0v979h12v-313q15 74 47.5 133t72 93.5t86.5 57.5t86.5 31t76.5 8q88 0 154.5 -22t107 -58t65.5 -90.5t34 -112.5t9 -131v-575h-12v575q0 70 -8.5 126t-32.5 109.5t-63 88.5t-103.5 56.5t-150.5 21.5q-39 0 -82 -9.5t-96 -40t-94 -77.5t-69 -130.5t-28 -191.5v-528 h-12zM260 1454l4 14q144 -45 144 -149q0 -82 -93 -203l-10 8q86 112 86 195q0 95 -131 135zM424 1460l16 10l181 -350l-11 -6z" />
<glyph unicode="&#x1f23;" horiz-adv-x="997" d="M123 0v979h12v-313q15 74 47.5 133t72 93.5t86.5 57.5t86.5 31t76.5 8q88 0 154.5 -22t107 -58t65.5 -90.5t34 -112.5t9 -131v-575h-12v575q0 70 -8.5 126t-32.5 109.5t-63 88.5t-103.5 56.5t-150.5 21.5q-39 0 -82 -9.5t-96 -40t-94 -77.5t-69 -130.5t-28 -191.5v-528 h-12zM270 1319q0 104 144 149l4 -14q-131 -40 -131 -135q0 -83 86 -195l-11 -8q-92 120 -92 203zM463 1460l16 10l180 -350l-10 -6z" />
<glyph unicode="&#x1f24;" horiz-adv-x="997" d="M123 0v979h12v-313q15 74 47.5 133t72 93.5t86.5 57.5t86.5 31t76.5 8q88 0 154.5 -22t107 -58t65.5 -90.5t34 -112.5t9 -131v-575h-12v575q0 70 -8.5 126t-32.5 109.5t-63 88.5t-103.5 56.5t-150.5 21.5q-39 0 -82 -9.5t-96 -40t-94 -77.5t-69 -130.5t-28 -191.5v-528 h-12zM317 1454l5 14q143 -45 143 -149q0 -83 -92 -203l-11 8q87 113 87 195q0 94 -132 135zM496 1120l180 350l16 -10l-186 -346z" />
<glyph unicode="&#x1f25;" horiz-adv-x="997" d="M123 0v979h12v-313q15 74 47.5 133t72 93.5t86.5 57.5t86.5 31t76.5 8q88 0 154.5 -22t107 -58t65.5 -90.5t34 -112.5t9 -131v-575h-12v575q0 70 -8.5 126t-32.5 109.5t-63 88.5t-103.5 56.5t-150.5 21.5q-39 0 -82 -9.5t-96 -40t-94 -77.5t-69 -130.5t-28 -191.5v-528 h-12zM348 1319q0 105 144 149l4 -14q-131 -40 -131 -135q0 -83 86 -195l-11 -8q-92 120 -92 203zM506 1120l180 350l16 -10l-186 -346z" />
<glyph unicode="&#x1f26;" horiz-adv-x="997" d="M123 0v979h12v-313q15 74 47.5 133t72 93.5t86.5 57.5t86.5 31t76.5 8q88 0 154.5 -22t107 -58t65.5 -90.5t34 -112.5t9 -131v-575h-12v575q0 70 -8.5 126t-32.5 109.5t-63 88.5t-103.5 56.5t-150.5 21.5q-39 0 -82 -9.5t-96 -40t-94 -77.5t-69 -130.5t-28 -191.5v-528 h-12zM199 1516q51 104 149 104q33 0 133 -47q92 -45 131 -45q79 0 127 86l13 -4q-55 -97 -140 -97q-41 0 -135 46q-100 47 -129 47q-90 0 -137 -95zM406 1434l4 14q143 -45 143 -150q0 -82 -92 -202l-10 8q86 112 86 194q0 96 -131 136z" />
<glyph unicode="&#x1f27;" horiz-adv-x="997" d="M123 0v979h12v-313q15 74 47.5 133t72 93.5t86.5 57.5t86.5 31t76.5 8q88 0 154.5 -22t107 -58t65.5 -90.5t34 -112.5t9 -131v-575h-12v575q0 70 -8.5 126t-32.5 109.5t-63 88.5t-103.5 56.5t-150.5 21.5q-39 0 -82 -9.5t-96 -40t-94 -77.5t-69 -130.5t-28 -191.5v-528 h-12zM203 1513q51 105 149 105q33 0 133 -47q92 -45 131 -45q79 0 127 86l13 -4q-55 -97 -140 -97q-43 0 -135 45q-6 3 -23.5 11.5t-25 11.5t-21.5 9t-22.5 9t-18.5 5t-18 2q-90 0 -137 -95zM410 1296q0 105 143 150l4 -14q-131 -40 -131 -136q0 -82 86 -194l-10 -8 q-92 120 -92 202z" />
<glyph unicode="&#x1f28;" horiz-adv-x="1294" d="M-223 1352l4 14q143 -45 143 -149q0 -83 -92 -203l-10 8q86 112 86 195q0 95 -131 135zM143 0v1378h13v-663h983v663h12v-1378h-12v702h-983v-702h-13z" />
<glyph unicode="&#x1f29;" horiz-adv-x="1294" d="M-201 1217q0 104 144 149l4 -14q-131 -40 -131 -135q0 -83 86 -195l-11 -8q-92 120 -92 203zM143 0v1378h13v-663h983v663h12v-1378h-12v702h-983v-702h-13z" />
<glyph unicode="&#x1f2a;" horiz-adv-x="1294" d="M-393 1352l4 14q143 -45 143 -149q0 -83 -92 -203l-10 8q86 112 86 195q0 95 -131 135zM-229 1358l16 10l180 -350l-10 -6zM143 0v1378h13v-663h983v663h12v-1378h-12v702h-983v-702h-13z" />
<glyph unicode="&#x1f2b;" horiz-adv-x="1294" d="M-406 1217q0 104 144 149l4 -14q-131 -40 -131 -135q0 -83 86 -195l-10 -8q-93 121 -93 203zM-213 1358l16 10l181 -350l-11 -6zM143 0v1378h13v-663h983v663h12v-1378h-12v702h-983v-702h-13z" />
<glyph unicode="&#x1f2c;" horiz-adv-x="1294" d="M-391 1352l4 14q143 -45 143 -149q0 -83 -92 -203l-10 8q86 112 86 195q0 95 -131 135zM-213 1018l180 350l17 -10l-187 -346zM143 0v1378h13v-663h983v663h12v-1378h-12v702h-983v-702h-13z" />
<glyph unicode="&#x1f2d;" horiz-adv-x="1294" d="M-383 1217q0 106 143 149l4 -14q-131 -40 -131 -135q0 -83 86 -195l-10 -8q-92 120 -92 203zM-225 1018l180 350l16 -10l-186 -346zM143 0v1378h13v-663h983v663h12v-1378h-12v702h-983v-702h-13z" />
<glyph unicode="&#x1f2e;" horiz-adv-x="1294" d="M-522 1313q51 104 149 104q33 0 133 -47q92 -45 131 -45q79 0 127 86l13 -4q-55 -96 -140 -96q-43 0 -135 45q-100 47 -129 47q-90 0 -137 -94zM-315 1231l4 14q143 -45 143 -149q0 -83 -92 -203l-10 8q86 112 86 195q0 95 -131 135zM143 0v1378h13v-663h983v663h12 v-1378h-12v702h-983v-702h-13z" />
<glyph unicode="&#x1f2f;" horiz-adv-x="1294" d="M-535 1296q51 105 150 105q33 0 133 -47q92 -45 131 -45q79 0 127 86l12 -4q-55 -97 -139 -97q-43 0 -135 45q-100 47 -129 47q-90 0 -137 -94zM-328 1079q0 105 144 150l4 -15q-131 -40 -131 -135q0 -82 86 -194l-11 -8q-92 120 -92 202zM143 0v1378h13v-663h983v663h12 v-1378h-12v702h-983v-702h-13z" />
<glyph unicode="&#x1f30;" horiz-adv-x="342" d="M100 1454l4 14q144 -45 144 -149q0 -83 -92 -203l-11 8q86 112 86 195q0 95 -131 135zM166 0v979h12v-979h-12z" />
<glyph unicode="&#x1f31;" horiz-adv-x="342" d="M102 1319q0 104 144 149l4 -14q-131 -40 -131 -135q0 -83 86 -195l-10 -8q-93 121 -93 203zM166 0v979h12v-979h-12z" />
<glyph unicode="&#x1f32;" horiz-adv-x="342" d="M-43 1454l4 14q143 -45 143 -149q0 -83 -92 -203l-10 8q86 112 86 195q0 95 -131 135zM121 1460l16 10l180 -350l-10 -6zM166 0v979h12v-979h-12z" />
<glyph unicode="&#x1f33;" horiz-adv-x="342" d="M-37 1323q0 105 143 150l5 -15q-131 -40 -131 -135q0 -83 86 -195l-11 -8q-92 120 -92 203zM156 1464l16 11l180 -351l-10 -6zM166 0v979h12v-979h-12z" />
<glyph unicode="&#x1f34;" horiz-adv-x="342" d="M27 1454l4 14q143 -45 143 -149q0 -83 -92 -203l-10 8q86 112 86 195q0 95 -131 135zM166 0v979h12v-979h-12zM205 1120l180 350l16 -10l-186 -346z" />
<glyph unicode="&#x1f35;" horiz-adv-x="342" d="M49 1319q0 105 144 149l4 -14q-131 -40 -131 -135q0 -83 86 -195l-11 -8q-92 120 -92 203zM166 0v979h12v-979h-12zM207 1120l180 350l16 -10l-186 -346z" />
<glyph unicode="&#x1f36;" horiz-adv-x="342" d="M-133 1491q51 104 149 104q34 0 134 -47q92 -45 131 -45q79 0 127 86l12 -4q-55 -96 -139 -96q-44 0 -136 45q-100 47 -129 47q-90 0 -137 -94zM74 1409l4 14q143 -45 143 -149q0 -83 -92 -203l-10 8q86 112 86 195q0 95 -131 135zM166 0v979h12v-979h-12z" />
<glyph unicode="&#x1f37;" horiz-adv-x="342" d="M-113 1516q51 104 150 104q33 0 133 -47q92 -45 131 -45q79 0 127 86l12 -4q-55 -97 -139 -97q-41 0 -135 46q-100 47 -129 47q-89 0 -137 -95zM94 1298q0 105 144 150l4 -14q-131 -40 -131 -136q0 -82 86 -194l-11 -8q-92 120 -92 202zM166 0v979h12v-979h-12z" />
<glyph unicode="&#x1f38;" horiz-adv-x="380" d="M-203 1352l4 14q144 -45 144 -149q0 -83 -92 -203l-11 8q86 112 86 195q0 95 -131 135zM184 0v1378h13v-1378h-13z" />
<glyph unicode="&#x1f39;" horiz-adv-x="380" d="M-158 1217q0 104 144 149l4 -14q-131 -40 -131 -135q0 -83 86 -195l-11 -8q-92 120 -92 203zM184 0v1378h13v-1378h-13z" />
<glyph unicode="&#x1f3a;" horiz-adv-x="380" d="M-344 1352l4 14q143 -45 143 -149q0 -83 -92 -203l-10 8q86 112 86 195q0 95 -131 135zM-180 1358l16 10l180 -350l-10 -6zM184 0v1378h13v-1378h-13z" />
<glyph unicode="&#x1f3b;" horiz-adv-x="380" d="M-356 1217q0 104 143 149l4 -14q-131 -40 -131 -135q0 -83 86 -195l-10 -8q-92 120 -92 203zM-164 1358l17 10l180 -350l-10 -6zM184 0v1378h13v-1378h-13z" />
<glyph unicode="&#x1f3c;" horiz-adv-x="380" d="M-340 1352l4 14q143 -45 143 -149q0 -83 -92 -203l-10 8q86 112 86 195q0 95 -131 135zM-162 1018l180 350l17 -10l-187 -346zM184 0v1378h13v-1378h-13z" />
<glyph unicode="&#x1f3d;" horiz-adv-x="380" d="M-319 1217q0 106 143 149l4 -14q-131 -40 -131 -135q0 -83 86 -195l-10 -8q-92 120 -92 203zM-162 1018l180 350l17 -10l-187 -346zM184 0v1378h13v-1378h-13z" />
<glyph unicode="&#x1f3e;" horiz-adv-x="380" d="M-492 1313q51 104 150 104q33 0 133 -47q92 -45 131 -45q79 0 127 86l12 -4q-55 -96 -139 -96q-43 0 -135 45q-100 47 -129 47q-90 0 -137 -94zM-285 1231l4 14q144 -45 144 -149q0 -83 -92 -203l-11 8q86 112 86 195q0 95 -131 135zM184 0v1378h13v-1378h-13z" />
<glyph unicode="&#x1f3f;" horiz-adv-x="380" d="M-483 1294q51 105 149 105q33 0 133 -47q92 -45 131 -45q79 0 127 86l13 -4q-55 -97 -140 -97q-43 0 -135 45q-100 47 -129 47q-90 0 -137 -94zM-276 1077q0 105 143 150l4 -15q-131 -40 -131 -135q0 -82 86 -194l-10 -9q-92 120 -92 203zM184 0v1378h13v-1378h-13z" />
<glyph unicode="&#x1f40;" horiz-adv-x="1013" d="M102 479q0 89 14 165t45 140.5t78 109t115.5 70t155.5 25.5q86 0 154.5 -25.5t114.5 -69.5t76 -108t43 -138t13 -161q0 -246 -106.5 -370.5t-294.5 -124.5q-216 0 -312 119.5t-96 367.5zM115 479q0 -242 93 -358.5t302 -116.5q181 0 285 121.5t104 361.5q0 107 -21 193 t-65.5 154t-121.5 105.5t-181 37.5q-105 0 -182.5 -37.5t-123 -106t-67.5 -156.5t-22 -198zM438 1454l4 14q144 -45 144 -149q0 -83 -92 -203l-11 8q86 112 86 195q0 95 -131 135z" />
<glyph unicode="&#x1f41;" horiz-adv-x="1013" d="M102 479q0 89 14 165t45 140.5t78 109t115.5 70t155.5 25.5q86 0 154.5 -25.5t114.5 -69.5t76 -108t43 -138t13 -161q0 -246 -106.5 -370.5t-294.5 -124.5q-216 0 -312 119.5t-96 367.5zM115 479q0 -242 93 -358.5t302 -116.5q181 0 285 121.5t104 361.5q0 107 -21 193 t-65.5 154t-121.5 105.5t-181 37.5q-105 0 -182.5 -37.5t-123 -106t-67.5 -156.5t-22 -198zM455 1319q0 104 143 149l4 -14q-131 -40 -131 -135q0 -83 86 -195l-10 -8q-92 120 -92 203z" />
<glyph unicode="&#x1f42;" horiz-adv-x="1013" d="M102 479q0 89 14 165t45 140.5t78 109t115.5 70t155.5 25.5q86 0 154.5 -25.5t114.5 -69.5t76 -108t43 -138t13 -161q0 -246 -106.5 -370.5t-294.5 -124.5q-216 0 -312 119.5t-96 367.5zM115 479q0 -242 93 -358.5t302 -116.5q181 0 285 121.5t104 361.5q0 107 -21 193 t-65.5 154t-121.5 105.5t-181 37.5q-105 0 -182.5 -37.5t-123 -106t-67.5 -156.5t-22 -198zM285 1454l4 14q143 -45 143 -149q0 -83 -92 -203l-10 8q86 112 86 195q0 95 -131 135zM449 1460l16 10l180 -350l-10 -6z" />
<glyph unicode="&#x1f43;" horiz-adv-x="1013" d="M102 479q0 89 14 165t45 140.5t78 109t115.5 70t155.5 25.5q86 0 154.5 -25.5t114.5 -69.5t76 -108t43 -138t13 -161q0 -246 -106.5 -370.5t-294.5 -124.5q-216 0 -312 119.5t-96 367.5zM115 479q0 -242 93 -358.5t302 -116.5q181 0 285 121.5t104 361.5q0 107 -21 193 t-65.5 154t-121.5 105.5t-181 37.5q-105 0 -182.5 -37.5t-123 -106t-67.5 -156.5t-22 -198zM303 1319q0 104 143 149l5 -14q-132 -41 -132 -135q0 -82 87 -195l-11 -8q-92 120 -92 203zM496 1460l16 10l180 -350l-10 -6z" />
<glyph unicode="&#x1f44;" horiz-adv-x="1013" d="M102 479q0 89 14 165t45 140.5t78 109t115.5 70t155.5 25.5q86 0 154.5 -25.5t114.5 -69.5t76 -108t43 -138t13 -161q0 -246 -106.5 -370.5t-294.5 -124.5q-216 0 -312 119.5t-96 367.5zM115 479q0 -242 93 -358.5t302 -116.5q181 0 285 121.5t104 361.5q0 107 -21 193 t-65.5 154t-121.5 105.5t-181 37.5q-105 0 -182.5 -37.5t-123 -106t-67.5 -156.5t-22 -198zM344 1454l4 14q144 -45 144 -149q0 -82 -93 -203l-10 8q86 112 86 195q0 95 -131 135zM522 1120l180 350l17 -10l-187 -346z" />
<glyph unicode="&#x1f45;" horiz-adv-x="1013" d="M102 479q0 89 14 165t45 140.5t78 109t115.5 70t155.5 25.5q86 0 154.5 -25.5t114.5 -69.5t76 -108t43 -138t13 -161q0 -246 -106.5 -370.5t-294.5 -124.5q-216 0 -312 119.5t-96 367.5zM115 479q0 -242 93 -358.5t302 -116.5q181 0 285 121.5t104 361.5q0 107 -21 193 t-65.5 154t-121.5 105.5t-181 37.5q-105 0 -182.5 -37.5t-123 -106t-67.5 -156.5t-22 -198zM354 1319q0 105 144 149l4 -14q-131 -40 -131 -135q0 -83 86 -195l-11 -8q-92 120 -92 203zM512 1120l180 350l17 -10l-187 -346z" />
<glyph unicode="&#x1f48;" horiz-adv-x="1341" d="M-147 1352l4 14q143 -45 143 -149q0 -83 -92 -203l-10 8q86 112 86 195q0 95 -131 135zM123 684q0 122 18.5 225.5t61 193.5t106 153t157.5 99t212 36q117 0 209 -34.5t154 -96t102.5 -151t58 -194t17.5 -229.5q0 -340 -149 -517t-411 -177q-275 0 -405.5 169.5 t-130.5 522.5zM135 684q0 -346 128 -513t396 -167q256 0 401.5 174.5t145.5 507.5q0 123 -17 225t-56.5 190t-99.5 148.5t-150 94.5t-205 34q-116 0 -208 -35.5t-154 -97.5t-103 -150t-59.5 -190t-18.5 -221z" />
<glyph unicode="&#x1f49;" horiz-adv-x="1341" d="M-127 1241q0 105 143 150l4 -15q-131 -40 -131 -135q0 -82 86 -194l-10 -9q-92 120 -92 203zM123 684q0 122 18.5 225.5t61 193.5t106 153t157.5 99t212 36q117 0 209 -34.5t154 -96t102.5 -151t58 -194t17.5 -229.5q0 -340 -149 -517t-411 -177q-275 0 -405.5 169.5 t-130.5 522.5zM135 684q0 -346 128 -513t396 -167q256 0 401.5 174.5t145.5 507.5q0 123 -17 225t-56.5 190t-99.5 148.5t-150 94.5t-205 34q-116 0 -208 -35.5t-154 -97.5t-103 -150t-59.5 -190t-18.5 -221z" />
<glyph unicode="&#x1f4a;" horiz-adv-x="1341" d="M-350 1352l4 14q143 -45 143 -149q0 -83 -92 -203l-10 8q86 112 86 195q0 95 -131 135zM-186 1358l16 10l180 -350l-10 -6zM123 684q0 122 18.5 225.5t61 193.5t106 153t157.5 99t212 36q117 0 209 -34.5t154 -96t102.5 -151t58 -194t17.5 -229.5q0 -340 -149 -517 t-411 -177q-275 0 -405.5 169.5t-130.5 522.5zM135 684q0 -346 128 -513t396 -167q256 0 401.5 174.5t145.5 507.5q0 123 -17 225t-56.5 190t-99.5 148.5t-150 94.5t-205 34q-116 0 -208 -35.5t-154 -97.5t-103 -150t-59.5 -190t-18.5 -221z" />
<glyph unicode="&#x1f4b;" horiz-adv-x="1341" d="M-385 1217q0 104 143 149l4 -14q-131 -40 -131 -135q0 -83 86 -195l-10 -8q-92 120 -92 203zM-193 1358l17 10l180 -350l-10 -6zM123 684q0 122 18.5 225.5t61 193.5t106 153t157.5 99t212 36q117 0 209 -34.5t154 -96t102.5 -151t58 -194t17.5 -229.5q0 -340 -149 -517 t-411 -177q-275 0 -405.5 169.5t-130.5 522.5zM135 684q0 -346 128 -513t396 -167q256 0 401.5 174.5t145.5 507.5q0 123 -17 225t-56.5 190t-99.5 148.5t-150 94.5t-205 34q-116 0 -208 -35.5t-154 -97.5t-103 -150t-59.5 -190t-18.5 -221z" />
<glyph unicode="&#x1f4c;" horiz-adv-x="1341" d="M-324 1352l5 14q143 -45 143 -149q0 -83 -92 -203l-11 8q86 112 86 195q0 95 -131 135zM-145 1018l180 350l16 -10l-186 -346zM123 684q0 122 18.5 225.5t61 193.5t106 153t157.5 99t212 36q117 0 209 -34.5t154 -96t102.5 -151t58 -194t17.5 -229.5q0 -340 -149 -517 t-411 -177q-275 0 -405.5 169.5t-130.5 522.5zM135 684q0 -346 128 -513t396 -167q256 0 401.5 174.5t145.5 507.5q0 123 -17 225t-56.5 190t-99.5 148.5t-150 94.5t-205 34q-116 0 -208 -35.5t-154 -97.5t-103 -150t-59.5 -190t-18.5 -221z" />
<glyph unicode="&#x1f4d;" horiz-adv-x="1341" d="M-328 1217q0 105 144 149l4 -14q-131 -40 -131 -135q0 -83 86 -195l-11 -8q-92 120 -92 203zM-170 1018l180 350l17 -10l-187 -346zM123 684q0 122 18.5 225.5t61 193.5t106 153t157.5 99t212 36q117 0 209 -34.5t154 -96t102.5 -151t58 -194t17.5 -229.5 q0 -340 -149 -517t-411 -177q-275 0 -405.5 169.5t-130.5 522.5zM135 684q0 -346 128 -513t396 -167q256 0 401.5 174.5t145.5 507.5q0 123 -17 225t-56.5 190t-99.5 148.5t-150 94.5t-205 34q-116 0 -208 -35.5t-154 -97.5t-103 -150t-59.5 -190t-18.5 -221z" />
<glyph unicode="&#x1f50;" horiz-adv-x="1034" d="M123 379v600h12v-600q0 -185 94.5 -280t278.5 -95q185 0 288 95t103 280v600h12v-600q0 -191 -106 -289t-297 -98q-190 0 -287.5 98t-97.5 289zM424 1454l4 14q143 -45 143 -149q0 -83 -92 -203l-10 8q86 112 86 195q0 95 -131 135z" />
<glyph unicode="&#x1f51;" horiz-adv-x="1034" d="M123 379v600h12v-600q0 -185 94.5 -280t278.5 -95q185 0 288 95t103 280v600h12v-600q0 -191 -106 -289t-297 -98q-190 0 -287.5 98t-97.5 289zM434 1317q0 104 144 149l4 -14q-131 -40 -131 -135q0 -83 86 -195l-11 -8q-92 120 -92 203z" />
<glyph unicode="&#x1f52;" horiz-adv-x="1034" d="M123 379v600h12v-600q0 -185 94.5 -280t278.5 -95q185 0 288 95t103 280v600h12v-600q0 -191 -106 -289t-297 -98q-190 0 -287.5 98t-97.5 289zM307 1454l4 14q144 -45 144 -149q0 -82 -93 -203l-10 8q86 112 86 195q0 95 -131 135zM471 1460l16 10l181 -350l-11 -6z" />
<glyph unicode="&#x1f53;" horiz-adv-x="1034" d="M123 379v600h12v-600q0 -185 94.5 -280t278.5 -95q185 0 288 95t103 280v600h12v-600q0 -191 -106 -289t-297 -98q-190 0 -287.5 98t-97.5 289zM301 1319q0 104 143 149l5 -14q-132 -41 -132 -135q0 -83 86 -195l-10 -8q-92 120 -92 203zM494 1460l16 10l180 -350l-10 -6 z" />
<glyph unicode="&#x1f54;" horiz-adv-x="1034" d="M123 379v600h12v-600q0 -185 94.5 -280t278.5 -95q185 0 288 95t103 280v600h12v-600q0 -191 -106 -289t-297 -98q-190 0 -287.5 98t-97.5 289zM340 1454l4 14q143 -45 143 -149q0 -83 -92 -203l-10 8q86 112 86 195q0 95 -131 135zM518 1120l180 350l17 -10l-187 -346z " />
<glyph unicode="&#x1f55;" horiz-adv-x="1034" d="M123 379v600h12v-600q0 -185 94.5 -280t278.5 -95q185 0 288 95t103 280v600h12v-600q0 -191 -106 -289t-297 -98q-190 0 -287.5 98t-97.5 289zM373 1319q0 106 143 149l4 -14q-131 -40 -131 -135q0 -83 86 -195l-10 -8q-92 120 -92 203zM530 1120l181 350l16 -10 l-186 -346z" />
<glyph unicode="&#x1f56;" horiz-adv-x="1034" d="M123 379v600h12v-600q0 -185 94.5 -280t278.5 -95q185 0 288 95t103 280v600h12v-600q0 -191 -106 -289t-297 -98q-190 0 -287.5 98t-97.5 289zM229 1468q51 105 150 105q33 0 133 -47q92 -45 131 -45q79 0 127 86l12 -4q-55 -97 -139 -97q-43 0 -135 45q-6 3 -23.5 11.5 t-25 11.5t-21.5 9t-22.5 9t-18.5 5t-18 2q-89 0 -137 -95zM436 1386l4 15q144 -45 144 -150q0 -82 -92 -202l-11 8q86 112 86 194q0 95 -131 135z" />
<glyph unicode="&#x1f57;" horiz-adv-x="1034" d="M123 379v600h12v-600q0 -185 94.5 -280t278.5 -95q185 0 288 95t103 280v600h12v-600q0 -191 -106 -289t-297 -98q-190 0 -287.5 98t-97.5 289zM233 1458q51 105 150 105q33 0 133 -47q94 -46 131 -46q79 0 127 86l12 -4q-55 -96 -139 -96q-43 0 -135 45q-100 47 -129 47 q-90 0 -137 -94zM440 1241q0 105 144 150l4 -15q-131 -40 -131 -135q0 -82 86 -194l-11 -9q-92 120 -92 203z" />
<glyph unicode="&#x1f59;" horiz-adv-x="993" d="M-233 1217q0 104 143 149l4 -14q-131 -40 -131 -135q0 -83 86 -195l-10 -8q-92 120 -92 203zM16 1378h15l458 -776l474 776h14l-481 -790v-588h-13v588z" />
<glyph unicode="&#x1f5b;" horiz-adv-x="993" d="M-434 1217q0 104 143 149l4 -14q-131 -40 -131 -135q0 -83 86 -195l-10 -8q-92 120 -92 203zM-242 1358l17 10l180 -350l-10 -6zM16 1378h15l458 -776l474 776h14l-481 -790v-588h-13v588z" />
<glyph unicode="&#x1f5d;" horiz-adv-x="993" d="M-418 1221q0 105 144 149l4 -14q-131 -40 -131 -135q0 -83 86 -195l-11 -8q-92 120 -92 203zM-260 1022l180 350l17 -10l-187 -346zM16 1378h15l458 -776l474 776h14l-481 -790v-588h-13v588z" />
<glyph unicode="&#x1f5f;" horiz-adv-x="993" d="M-606 1272q51 104 149 104q33 0 133 -47q92 -45 131 -45q79 0 127 86l13 -4q-55 -96 -140 -96q-43 0 -135 45q-100 47 -129 47q-90 0 -137 -94zM-399 1055q0 104 143 149l4 -14q-131 -40 -131 -135q0 -83 86 -195l-10 -8q-92 120 -92 203zM16 1378h15l458 -776l474 776 h14l-481 -790v-588h-13v588z" />
<glyph unicode="&#x1f60;" horiz-adv-x="1558" d="M102 483q0 -61 3.5 -109.5t13 -100.5t25.5 -91t43.5 -75.5t64.5 -60t90 -37t119 -13.5q118 0 202.5 62.5t114.5 166.5q18 -98 112.5 -163.5t207.5 -65.5q66 0 119.5 16t90 42t64 65.5t43.5 80.5t25.5 92t12.5 95t3 96q0 113 -19 201t-62.5 158t-120.5 108t-185 39v-12 q84 0 149 -24.5t107 -67.5t69 -106t38.5 -135.5t11.5 -160.5q0 -72 -6.5 -132t-28.5 -126.5t-57.5 -111.5t-99 -75t-148.5 -30q-130 0 -224 74.5t-94 193.5v355h-12v-326q0 -127 -86.5 -212t-226.5 -85q-88 0 -152 26t-101 67.5t-58.5 106.5t-28 128t-6.5 147 q0 111 18.5 197.5t60.5 155t116 105t179 36.5v12q-387 0 -387 -506zM717 1454l4 14q143 -45 143 -149q0 -83 -92 -203l-10 8q86 112 86 195q0 95 -131 135z" />
<glyph unicode="&#x1f61;" horiz-adv-x="1558" d="M102 483q0 -61 3.5 -109.5t13 -100.5t25.5 -91t43.5 -75.5t64.5 -60t90 -37t119 -13.5q118 0 202.5 62.5t114.5 166.5q18 -98 112.5 -163.5t207.5 -65.5q66 0 119.5 16t90 42t64 65.5t43.5 80.5t25.5 92t12.5 95t3 96q0 113 -19 201t-62.5 158t-120.5 108t-185 39v-12 q84 0 149 -24.5t107 -67.5t69 -106t38.5 -135.5t11.5 -160.5q0 -72 -6.5 -132t-28.5 -126.5t-57.5 -111.5t-99 -75t-148.5 -30q-130 0 -224 74.5t-94 193.5v355h-12v-326q0 -127 -86.5 -212t-226.5 -85q-88 0 -152 26t-101 67.5t-58.5 106.5t-28 128t-6.5 147 q0 111 18.5 197.5t60.5 155t116 105t179 36.5v12q-387 0 -387 -506zM717 1319q0 104 143 149l4 -14q-131 -40 -131 -135q0 -83 86 -195l-10 -8q-92 120 -92 203z" />
<glyph unicode="&#x1f62;" horiz-adv-x="1558" d="M102 483q0 -61 3.5 -109.5t13 -100.5t25.5 -91t43.5 -75.5t64.5 -60t90 -37t119 -13.5q118 0 202.5 62.5t114.5 166.5q18 -98 112.5 -163.5t207.5 -65.5q66 0 119.5 16t90 42t64 65.5t43.5 80.5t25.5 92t12.5 95t3 96q0 113 -19 201t-62.5 158t-120.5 108t-185 39v-12 q84 0 149 -24.5t107 -67.5t69 -106t38.5 -135.5t11.5 -160.5q0 -72 -6.5 -132t-28.5 -126.5t-57.5 -111.5t-99 -75t-148.5 -30q-130 0 -224 74.5t-94 193.5v355h-12v-326q0 -127 -86.5 -212t-226.5 -85q-88 0 -152 26t-101 67.5t-58.5 106.5t-28 128t-6.5 147 q0 111 18.5 197.5t60.5 155t116 105t179 36.5v12q-387 0 -387 -506zM584 1454l4 14q143 -45 143 -149q0 -83 -92 -203l-10 8q86 112 86 195q0 95 -131 135zM748 1460l16 10l180 -350l-10 -6z" />
<glyph unicode="&#x1f63;" horiz-adv-x="1558" d="M102 483q0 -61 3.5 -109.5t13 -100.5t25.5 -91t43.5 -75.5t64.5 -60t90 -37t119 -13.5q118 0 202.5 62.5t114.5 166.5q18 -98 112.5 -163.5t207.5 -65.5q66 0 119.5 16t90 42t64 65.5t43.5 80.5t25.5 92t12.5 95t3 96q0 113 -19 201t-62.5 158t-120.5 108t-185 39v-12 q84 0 149 -24.5t107 -67.5t69 -106t38.5 -135.5t11.5 -160.5q0 -72 -6.5 -132t-28.5 -126.5t-57.5 -111.5t-99 -75t-148.5 -30q-130 0 -224 74.5t-94 193.5v355h-12v-326q0 -127 -86.5 -212t-226.5 -85q-88 0 -152 26t-101 67.5t-58.5 106.5t-28 128t-6.5 147 q0 111 18.5 197.5t60.5 155t116 105t179 36.5v12q-387 0 -387 -506zM584 1319q0 104 143 149l4 -14q-131 -40 -131 -135q0 -83 86 -195l-10 -8q-92 120 -92 203zM776 1460l17 10l180 -350l-10 -6z" />
<glyph unicode="&#x1f64;" horiz-adv-x="1558" d="M102 483q0 -61 3.5 -109.5t13 -100.5t25.5 -91t43.5 -75.5t64.5 -60t90 -37t119 -13.5q118 0 202.5 62.5t114.5 166.5q18 -98 112.5 -163.5t207.5 -65.5q66 0 119.5 16t90 42t64 65.5t43.5 80.5t25.5 92t12.5 95t3 96q0 113 -19 201t-62.5 158t-120.5 108t-185 39v-12 q84 0 149 -24.5t107 -67.5t69 -106t38.5 -135.5t11.5 -160.5q0 -72 -6.5 -132t-28.5 -126.5t-57.5 -111.5t-99 -75t-148.5 -30q-130 0 -224 74.5t-94 193.5v355h-12v-326q0 -127 -86.5 -212t-226.5 -85q-88 0 -152 26t-101 67.5t-58.5 106.5t-28 128t-6.5 147 q0 111 18.5 197.5t60.5 155t116 105t179 36.5v12q-387 0 -387 -506zM637 1454l4 14q143 -45 143 -149q0 -83 -92 -203l-10 8q86 112 86 195q0 95 -131 135zM815 1120l180 350l17 -10l-187 -346z" />
</font>
</defs>
</svg>
