<?xml version="1.0" encoding="utf-8"?>
<svg viewBox="0 0 500 500" xmlns="http://www.w3.org/2000/svg">
  <defs>
    <clipPath id="clip-path" transform="translate(-227 -150.16)">
      <rect class="cls-1" x="227" y="150" width="344.88" height="301.92" style="fill: none;"/>
    </clipPath>
  </defs>
  <title>shopping-cart</title>
  <path d="M 55.689 56.696 C 50.245 56.696 46.843 62.589 49.565 67.304 C 52.287 72.019 59.092 72.019 61.814 67.304 C 62.435 66.229 62.762 65.009 62.762 63.768 C 62.751 59.867 59.591 56.707 55.689 56.696 Z M 55.689 68.011 C 52.423 68.018 50.374 64.486 52.001 61.654 C 53.629 58.822 57.712 58.813 59.351 61.639 C 59.726 62.286 59.924 63.02 59.924 63.768 C 59.917 66.108 58.021 68.004 55.681 68.011 Z M 55.689 68.011" style="fill: rgb(255, 255, 255);" transform="matrix(1, 0, 0, 1, 241.4299243611454, 240.71695258709667)"/>
  <g class="cls-2" style="clip-path: url(#clip-path);" transform="matrix(0.22100600600242615, 0, 0, 0.22100600600242615, 241.46109136167757, 245.06950643154858)">
    <path d="M350.84,387a32,32,0,1,0,32,32,32.09,32.09,0,0,0-32-32Zm0,51.2A19.2,19.2,0,1,1,370,419a19.26,19.26,0,0,1-19.2,19.2Zm0,0" transform="translate(-227 -150.16)" style="fill: rgb(255, 255, 255);"/>
    <path d="M568.44,203.28A19,19,0,0,0,552.76,195H291.64l-3.84-19.2a31.62,31.62,0,0,0-31.36-25.6h-23a6.4,6.4,0,1,0,0,12.8h23A18.61,18.61,0,0,1,275,178.32l4.8,24.32a4.55,4.55,0,0,0,.64,1.92l27.52,144a32.5,32.5,0,0,0,31.68,25.92H489.4a32.22,32.22,0,0,0,30.08-20.8L570.36,221.2a18.76,18.76,0,0,0-1.92-17.92Zm-9.92,13.12L507.64,348.88a19,19,0,0,1-17.92,12.48H340c-9,0-17-6.72-18.88-15.68l-19.2-99.52h151a6.4,6.4,0,0,0,0-12.8H299.32l-4.8-25.6H552.76a6.22,6.22,0,0,1,5.12,2.56,6,6,0,0,1,.64,6.08Zm0,0" transform="translate(-227 -150.16)" style="fill: rgb(255, 255, 255);"/>
  </g>
  <path d="M 58.447 22.74 L 56.326 22.74 C 55.237 22.74 54.557 23.919 55.101 24.862 C 55.354 25.299 55.82 25.569 56.326 25.569 L 58.447 25.569 C 59.536 25.569 60.217 24.39 59.673 23.447 C 59.42 23.01 58.953 22.74 58.447 22.74 Z M 58.447 22.74" style="fill: rgb(255, 255, 255);" transform="matrix(1, 0, 0, 1, 241.4299243611454, 240.71695258709667)"/>
</svg>